<?xml version="1.0" encoding="UTF-8" standalone="no"?>
<svg
   xmlns:dc="http://purl.org/dc/elements/1.1/"
   xmlns:cc="http://creativecommons.org/ns#"
   xmlns:rdf="http://www.w3.org/1999/02/22-rdf-syntax-ns#"
   xmlns:svg="http://www.w3.org/2000/svg"
   xmlns="http://www.w3.org/2000/svg"
   height="16"
   width="16"
   version="1.1"
   id="svg2"
   viewBox="0 0 16 16">
  <metadata
     id="metadata20">
    <rdf:RDF>
      <cc:Work
         rdf:about="">
        <dc:format>image/svg+xml</dc:format>
        <dc:type
           rdf:resource="http://purl.org/dc/dcmitype/StillImage" />
        <dc:title></dc:title>
      </cc:Work>
    </rdf:RDF>
  </metadata>
  <defs
     id="defs18" />
  <path
     style="opacity:1;fill:#5294e2;fill-opacity:1"
     d="M 7.5 1 C 5.567015 0.99999519 4.0000145 2.5669957 4 4.5 C 4.0000145 6.4330043 5.567015 8.0000053 7.5 8 C 9.4329853 8.0000053 10.999985 6.4330043 11 4.5 C 10.999985 2.5669957 9.4329853 0.99999519 7.5 1 z M 6 2 L 8 2 L 9 2 L 9 3 L 9 4 L 9 5 L 9 7 L 8 7 L 8 5 L 7 5 L 7 7 L 6 7 L 6 5 L 6 4 L 6 3 L 6 2 z M 7 3 L 7 4 L 8 4 L 8 3 L 7 3 z "
     id="path4307" />
  <path
     id="path4150"
     d="M 7.5,9 C 3.6893477,9.0048 0.47634178,11.003572 0,15 l 7.5,0 7.5,0 C 14.523658,11.003572 11.310652,9.0048 7.5,9 Z"
     style="opacity:1;fill:#5294e2;fill-opacity:1" />
</svg>
