<svg xmlns="http://www.w3.org/2000/svg" width="16" height="16" version="1.1">
 <g id="active-center">
  <rect style="opacity:0.001" width="16" height="16" x="0" y="0"/>
  <circle style="opacity:0.8;fill:#7a7f8b" cx="8" cy="8" r="3"/>
 </g>
 <g id="hover-center">
  <rect style="opacity:0.001" width="16" height="16" x="18" y="0"/>
  <circle style="opacity:0.95;fill:#ffffff" cx="26" cy="8" r="6"/>
  <path style="opacity:0.15;fill:#525d76" d="m 26,1 a 7,7 0 0 0 -7,7 7,7 0 0 0 7,7 7,7 0 0 0 7,-7 7,7 0 0 0 -7,-7 z m 0,1 a 6,6 0 0 1 6,6 6,6 0 0 1 -6,6 6,6 0 0 1 -6,-6 6,6 0 0 1 6,-6 z"/>
  <circle style="fill:#7a7f8b" cx="26" cy="8" r="3"/>
 </g>
 <g id="pressed-center">
  <rect style="opacity:0.001" width="16" height="16" x="36" y="0"/>
  <circle style="fill:#5294e2" cx="44" cy="8" r="7"/>
  <circle style="fill:#ffffff" cx="44" cy="8" r="3"/>
 </g>
 <g id="inactive-center">
  <rect style="opacity:0.001" width="16" height="16" x="54" y="0"/>
  <circle style="opacity:0.45;fill:#7a7f8b" cx="62" cy="8" r="3"/>
 </g>
 <g id="deactivated-center">
  <rect style="opacity:0.001" width="16" height="16" x="72" y="0"/>
  <circle style="opacity:0.45;fill:#7a7f8b" cx="80" cy="8" r="3"/>
 </g>
</svg>
