<svg xmlns="http://www.w3.org/2000/svg" id="svg4306" style="enable-background:new" width="16" height="16" version="1.1">
 <g id="active-center">
  <rect id="rect17883-32-6-9" style="display:inline;opacity:1;fill:none;fill-opacity:1;stroke:none;stroke-width:1;stroke-linecap:butt;stroke-linejoin:miter;stroke-miterlimit:4;stroke-dasharray:none;stroke-dashoffset:0;stroke-opacity:0" width="16" height="16" x="0" y="0"/>
  <path id="path4407" style="color:#000000;font-style:normal;font-variant:normal;font-weight:normal;font-stretch:normal;font-size:medium;line-height:normal;font-family:Sans;-inkscape-font-specification:Sans;text-indent:0;text-align:start;text-decoration:none;text-decoration-line:none;letter-spacing:normal;word-spacing:normal;text-transform:none;direction:ltr;block-progression:tb;writing-mode:lr-tb;baseline-shift:baseline;text-anchor:start;display:inline;overflow:visible;visibility:visible;opacity:1;fill:#90949e;fill-opacity:1;stroke:none;stroke-width:2;marker:none;enable-background:accumulate" d="m 8,5 -3,3 2,0 0,2 c 0,0.554 0.446,1 1,1 0.554,0 1,-0.446 1,-1 L 9,8 11,8 8,5 Z"/>
 </g>
 <g id="hover-center" transform="translate(-19)">
  <ellipse id="path4068-7-5-9-6-7-2-1-6-1" style="display:inline;opacity:1;fill:#fefefe;fill-opacity:1;stroke:none;stroke-width:0;stroke-linecap:butt;stroke-linejoin:miter;stroke-miterlimit:4;stroke-dasharray:none;stroke-dashoffset:0;stroke-opacity:1" cx="45" cy="8" rx="6" ry="6"/>
  <path id="path4068-7-5-9-6-7-2-5-23-4-3" style="display:inline;opacity:1;fill:#d4d5db;fill-opacity:1;stroke:none;stroke-width:0;stroke-linecap:butt;stroke-linejoin:miter;stroke-miterlimit:4;stroke-dasharray:none;stroke-dashoffset:0;stroke-opacity:1" d="m 45,1 a 7,7 0 0 0 -7,7 7,7 0 0 0 7,7 7,7 0 0 0 7,-7 7,7 0 0 0 -7,-7 z m 0,1 a 6,6 0 0 1 6,6 6,6 0 0 1 -6,6 6,6 0 0 1 -6,-6 6,6 0 0 1 6,-6 z"/>
  <g id="g4834-0-4-5" style="display:inline;opacity:1;fill:#c0e3ff;fill-opacity:1" transform="translate(37,1)">
   <g id="layer12-45-6-2-7" style="display:inline;fill:#c0e3ff;fill-opacity:1" transform="translate(-81.0002,-967)">
    <path id="rect9057-8-2-3" style="color:#000000;font-style:normal;font-variant:normal;font-weight:normal;font-stretch:normal;font-size:medium;line-height:normal;font-family:Sans;-inkscape-font-specification:Sans;text-indent:0;text-align:start;text-decoration:none;text-decoration-line:none;letter-spacing:normal;word-spacing:normal;text-transform:none;writing-mode:lr-tb;direction:ltr;baseline-shift:baseline;text-anchor:start;display:inline;overflow:visible;visibility:visible;opacity:1;fill:#7a7f8b;fill-opacity:1;stroke:none;stroke-width:2;marker:none;enable-background:accumulate" d="m 45,5 -3,3 h 2 v 2 c 0,0.554 0.446,1 1,1 0.554,0 1,-0.446 1,-1 V 8 h 2 z" transform="translate(44.0002,966)"/>
   </g>
  </g>
  <rect id="rect17883-11-4-0" style="display:inline;opacity:1;fill:none;fill-opacity:1;stroke:none;stroke-width:1;stroke-linecap:butt;stroke-linejoin:miter;stroke-miterlimit:4;stroke-dasharray:none;stroke-dashoffset:0;stroke-opacity:0" width="16" height="16" x="37" y="0"/>
 </g>
 <g id="pressed-center" transform="translate(-21)">
  <g id="g4490-3-6-1-4-1-6" style="display:inline;opacity:1" transform="translate(-1369,-247)">
   <g id="g4092-0-7-2-0-0-94-2" style="display:inline" transform="translate(58)">
    <circle id="path4068-7-3-0-3-6-8-3" style="fill:#5294e2;fill-opacity:1;stroke:none;stroke-width:0;stroke-linecap:butt;stroke-linejoin:miter;stroke-miterlimit:4;stroke-dasharray:none;stroke-dashoffset:0;stroke-opacity:1" cx="1376" cy="255" r="7"/>
   </g>
  </g>
  <rect id="rect17883-79-9-2-2" style="display:inline;opacity:1;fill:none;fill-opacity:1;stroke:none;stroke-width:1;stroke-linecap:butt;stroke-linejoin:miter;stroke-miterlimit:4;stroke-dasharray:none;stroke-dashoffset:0;stroke-opacity:0" width="16" height="16" x="57" y="0"/>
  <g id="g4437" style="display:inline;opacity:1;fill:#ffffff;fill-opacity:1" transform="translate(57,1)">
   <g id="g4455" style="display:inline;fill:#ffffff;fill-opacity:1" transform="translate(-81.0002,-967)">
    <path id="path4457" style="color:#000000;font-style:normal;font-variant:normal;font-weight:normal;font-stretch:normal;font-size:medium;line-height:normal;font-family:Sans;-inkscape-font-specification:Sans;text-indent:0;text-align:start;text-decoration:none;text-decoration-line:none;letter-spacing:normal;word-spacing:normal;text-transform:none;writing-mode:lr-tb;direction:ltr;baseline-shift:baseline;text-anchor:start;display:inline;overflow:visible;visibility:visible;opacity:1;fill:#ffffff;fill-opacity:1;stroke:none;stroke-width:2;marker:none;enable-background:accumulate" d="m 65,5 -3,3 h 2 v 2 c 0,0.554 0.446,1 1,1 0.554,0 1,-0.446 1,-1 V 8 h 2 z" transform="translate(24.0002,966)"/>
   </g>
  </g>
 </g>
 <g id="inactive-center" style="opacity:0.5" transform="translate(36)">
  <rect id="rect17883-39-3-46-6" style="display:inline;opacity:1;fill:none;fill-opacity:1;stroke:none;stroke-width:1;stroke-linecap:butt;stroke-linejoin:miter;stroke-miterlimit:4;stroke-dasharray:none;stroke-dashoffset:0;stroke-opacity:0" width="16" height="16" x="18" y="0"/>
  <path id="path4385" style="color:#000000;font-style:normal;font-variant:normal;font-weight:normal;font-stretch:normal;font-size:medium;line-height:normal;font-family:Sans;-inkscape-font-specification:Sans;text-indent:0;text-align:start;text-decoration:none;text-decoration-line:none;letter-spacing:normal;word-spacing:normal;text-transform:none;writing-mode:lr-tb;direction:ltr;baseline-shift:baseline;text-anchor:start;display:inline;overflow:visible;visibility:visible;opacity:1;fill:#90949e;fill-opacity:1;stroke:none;stroke-width:2;marker:none;enable-background:accumulate" d="m 26,5 -3,3 h 2 v 2 c 0,0.554 0.446,1 1,1 0.554,0 1,-0.446 1,-1 V 8 h 2 z"/>
 </g>
 <g id="deactivated-center" style="opacity:0.5" transform="translate(54)">
  <rect id="rect48" style="display:inline;opacity:1;fill:none;fill-opacity:1;stroke:none;stroke-width:1;stroke-linecap:butt;stroke-linejoin:miter;stroke-miterlimit:4;stroke-dasharray:none;stroke-dashoffset:0;stroke-opacity:0" width="16" height="16" x="18" y="0"/>
  <path id="path50" style="color:#000000;font-style:normal;font-variant:normal;font-weight:normal;font-stretch:normal;font-size:medium;line-height:normal;font-family:Sans;-inkscape-font-specification:Sans;text-indent:0;text-align:start;text-decoration:none;text-decoration-line:none;letter-spacing:normal;word-spacing:normal;text-transform:none;writing-mode:lr-tb;direction:ltr;baseline-shift:baseline;text-anchor:start;display:inline;overflow:visible;visibility:visible;opacity:1;fill:#90949e;fill-opacity:1;stroke:none;stroke-width:2;marker:none;enable-background:accumulate" d="m 26,5 -3,3 h 2 v 2 c 0,0.554 0.446,1 1,1 0.554,0 1,-0.446 1,-1 V 8 h 2 z"/>
 </g>
</svg>
