<?xml version="1.0" encoding="UTF-8" standalone="no"?>
<!-- Created with Inkscape (http://www.inkscape.org/) -->

<svg
   xmlns:dc="http://purl.org/dc/elements/1.1/"
   xmlns:cc="http://creativecommons.org/ns#"
   xmlns:rdf="http://www.w3.org/1999/02/22-rdf-syntax-ns#"
   xmlns:svg="http://www.w3.org/2000/svg"
   xmlns="http://www.w3.org/2000/svg"
   xmlns:sodipodi="http://sodipodi.sourceforge.net/DTD/sodipodi-0.dtd"
   xmlns:inkscape="http://www.inkscape.org/namespaces/inkscape"
   width="30"
   height="30"
   viewBox="0 0 30 30"
   id="svg2"
   version="1.1"
   inkscape:version="0.91 r13725"
   sodipodi:docname="bar_meter_vertical.svg">
  <defs
     id="defs4">
    <style
       type="text/css"
       id="current-color-scheme">
      .ColorScheme-Text {
        color:#d3dae3;
        stop-color:#d3dae3;
      }
      .ColorScheme-Highlight {
        color:#5294e2;
        stop-color:#5294e2;
      }
      </style>
  </defs>
  <sodipodi:namedview
     id="base"
     pagecolor="#b0dba0"
     bordercolor="#cc0000"
     borderopacity="1"
     inkscape:pageopacity="0"
     inkscape:pageshadow="2"
     inkscape:zoom="23.537572"
     inkscape:cx="25.543375"
     inkscape:cy="14.749452"
     inkscape:document-units="px"
     inkscape:current-layer="layer1"
     showgrid="true"
     inkscape:showpageshadow="false"
     borderlayer="true"
     units="px"
     inkscape:window-width="2560"
     inkscape:window-height="957"
     inkscape:window-x="0"
     inkscape:window-y="30"
     inkscape:window-maximized="1"
     showguides="true"
     fit-margin-top="0"
     fit-margin-left="0"
     fit-margin-right="0"
     fit-margin-bottom="0">
    <inkscape:grid
       type="xygrid"
       id="grid3336"
       empspacing="2"
       originx="0"
       originy="-117.99998" />
  </sodipodi:namedview>
  <metadata
     id="metadata7">
    <rdf:RDF>
      <cc:Work
         rdf:about="">
        <dc:format>image/svg+xml</dc:format>
        <dc:type
           rdf:resource="http://purl.org/dc/dcmitype/StillImage" />
        <dc:title />
      </cc:Work>
    </rdf:RDF>
  </metadata>
  <g
     inkscape:label="Layer 1"
     inkscape:groupmode="layer"
     id="layer1"
     transform="translate(0,-904.36218)">
    <rect
       style="opacity:1;fill:#ff2a2a;fill-opacity:1;stroke:none"
       id="hint-tile-center"
       width="4"
       height="4"
       x="0"
       y="904.36218" />
    <rect
       style="opacity:1;fill:#ff2a2a;fill-opacity:1;stroke:none"
       id="hint-bar-size"
       width="6"
       height="6"
       x="6"
       y="904.36218" />
    <path
       class="ColorScheme-Text"
       style="opacity:0.2;fill:currentColor;fill-opacity:1;stroke:none"
       d="m 17,15 0,3 c 1.661989,0 3,-1.338011 3,-3 l -3,0 z"
       transform="translate(0,904.36218)"
       id="bar-inactive-bottomright"
       inkscape:connector-curvature="0" />
    <path
       class="ColorScheme-Text"
       style="opacity:0.2;fill:currentColor;fill-opacity:1;stroke:none"
       d="m 17,12 0,2 3,0 0,-2 -3,0 z"
       transform="translate(0,904.36218)"
       id="bar-inactive-right"
       inkscape:connector-curvature="0" />
    <path
       class="ColorScheme-Text"
       style="opacity:0.2;fill:currentColor;fill-opacity:1;stroke:none"
       d="m 17,8 0,3 3,0 C 20,9.3380111 18.661989,8 17,8 Z"
       transform="translate(0,904.36218)"
       id="bar-inactive-topright"
       inkscape:connector-curvature="0" />
    <path
       class="ColorScheme-Text"
       style="opacity:0.2;fill:currentColor;fill-opacity:1;stroke:none"
       d="m 10,15 c 0,1.661989 1.338011,3 3,3 l 0,-3 -3,0 z"
       transform="translate(0,904.36218)"
       id="bar-inactive-bottomleft"
       inkscape:connector-curvature="0" />
    <path
       class="ColorScheme-Text"
       style="opacity:0.2;fill:currentColor;fill-opacity:1;stroke:none"
       d="m 10,12 0,2 3,0 0,-2 -3,0 z"
       transform="translate(0,904.36218)"
       id="bar-inactive-left"
       inkscape:connector-curvature="0" />
    <path
       class="ColorScheme-Text"
       style="opacity:0.2;fill:currentColor;fill-opacity:1;stroke:none"
       d="m 13,8 c -1.661989,0 -3,1.3380111 -3,3 l 3,0 0,-3 z"
       transform="translate(0,904.36218)"
       id="bar-inactive-topleft"
       inkscape:connector-curvature="0" />
    <path
       class="ColorScheme-Text"
       style="opacity:0.2;fill:currentColor;fill-opacity:1;stroke:none"
       d="m 14,15 0,3 2,0 0,-3 -2,0 z"
       transform="translate(0,904.36218)"
       id="bar-inactive-bottom"
       inkscape:connector-curvature="0" />
    <path
       class="ColorScheme-Text"
       style="opacity:0.2;fill:currentColor;fill-opacity:1;stroke:none"
       d="m 16,12 -2,0 0,2 2,0 0,-2 z"
       id="bar-inactive-center"
       transform="translate(0,904.36218)"
       inkscape:connector-curvature="0" />
    <path
       class="ColorScheme-Text"
       style="opacity:0.2;fill:currentColor;fill-opacity:1;stroke:none"
       d="m 14,8 0,3 2,0 0,-3 -2,0 z"
       transform="translate(0,904.36218)"
       id="bar-inactive-top"
       inkscape:connector-curvature="0" />
    <path
       id="bar-active-bottomright"
       d="m 17,931.36218 0,3 c 1.661989,0 3,-1.33801 3,-3 l -3,0 z"
       style="opacity:1;fill:currentColor;fill-opacity:1;stroke:none"
       inkscape:connector-curvature="0"
       class="ColorScheme-Highlight" />
    <path
       id="bar-active-right"
       d="m 17,928.36218 0,2 3,0 0,-2 -3,0 z"
       style="opacity:1;fill:currentColor;fill-opacity:1;stroke:none"
       inkscape:connector-curvature="0"
       class="ColorScheme-Highlight" />
    <path
       id="bar-active-topright"
       d="m 17,924.36218 0,3 3,0 c 0,-1.66199 -1.338011,-3 -3,-3 z"
       style="opacity:1;fill:currentColor;fill-opacity:1;stroke:none"
       inkscape:connector-curvature="0"
       class="ColorScheme-Highlight" />
    <path
       id="bar-active-bottomleft"
       d="m 10,931.36218 c 0,1.66199 1.338011,3 3,3 l 0,-3 -3,0 z"
       style="opacity:1;fill:currentColor;fill-opacity:1;stroke:none"
       inkscape:connector-curvature="0"
       class="ColorScheme-Highlight" />
    <path
       id="bar-active-left"
       d="m 10,928.36218 0,2 3,0 0,-2 -3,0 z"
       style="opacity:1;fill:currentColor;fill-opacity:1;stroke:none"
       inkscape:connector-curvature="0"
       class="ColorScheme-Highlight" />
    <path
       id="bar-active-topleft"
       d="m 13,924.36218 c -1.661989,0 -3,1.33801 -3,3 l 3,0 0,-3 z"
       style="opacity:1;fill:currentColor;fill-opacity:1;stroke:none"
       inkscape:connector-curvature="0"
       class="ColorScheme-Highlight" />
    <path
       id="bar-active-bottom"
       d="m 14,931.36218 0,3 2,0 0,-3 -2,0 z"
       style="opacity:1;fill:currentColor;fill-opacity:1;stroke:none"
       inkscape:connector-curvature="0"
       class="ColorScheme-Highlight" />
    <path
       id="bar-active-center"
       d="m 16,928.36218 -2,0 0,2 2,0 0,-2 z"
       style="opacity:1;fill:currentColor;fill-opacity:1;stroke:none"
       inkscape:connector-curvature="0"
       class="ColorScheme-Highlight" />
    <path
       id="bar-active-top"
       d="m 14,924.36218 0,3 2,0 0,-3 -2,0 z"
       style="opacity:1;fill:currentColor;fill-opacity:1;stroke:none"
       inkscape:connector-curvature="0"
       class="ColorScheme-Highlight" />
  </g>
</svg>
