<?xml version="1.0" encoding="UTF-8" standalone="no"?>
<!-- Created with Inkscape (http://www.inkscape.org/) -->

<svg
   xmlns:dc="http://purl.org/dc/elements/1.1/"
   xmlns:cc="http://creativecommons.org/ns#"
   xmlns:rdf="http://www.w3.org/1999/02/22-rdf-syntax-ns#"
   xmlns:svg="http://www.w3.org/2000/svg"
   xmlns="http://www.w3.org/2000/svg"
   xmlns:sodipodi="http://sodipodi.sourceforge.net/DTD/sodipodi-0.dtd"
   xmlns:inkscape="http://www.inkscape.org/namespaces/inkscape"
   width="136"
   height="136"
   viewBox="0 0 35.983333 35.983334"
   id="svg2"
   version="1.1"
   inkscape:version="0.91 r13725"
   sodipodi:docname="busywidget.svg">
  <defs
     id="defs7386">
    <style
       type="text/css"
       id="current-color-scheme">
   .ColorScheme-Text { color:#d3dae3; } .ColorScheme-Highlight { color:#5294e2; } .ColorScheme-ButtonBackground { color:#5c616c; }
  </style>
  </defs>
  <sodipodi:namedview
     id="base"
     pagecolor="#626262"
     bordercolor="#c90303"
     borderopacity="1"
     inkscape:pageopacity="0"
     inkscape:pageshadow="2"
     inkscape:zoom="2.05"
     inkscape:cx="26.390244"
     inkscape:cy="10.281981"
     inkscape:document-units="px"
     inkscape:current-layer="layer1"
     showgrid="true"
     units="px"
     inkscape:showpageshadow="false"
     borderlayer="true"
     inkscape:window-width="1600"
     inkscape:window-height="849"
     inkscape:window-x="0"
     inkscape:window-y="0"
     inkscape:window-maximized="1"
     fit-margin-top="0"
     fit-margin-left="0"
     fit-margin-right="0"
     fit-margin-bottom="0">
    <inkscape:grid
       type="xygrid"
       id="grid4160"
       empspacing="2"
       originx="0px"
       originy="0px"
       visible="true"
       enabled="true"
       snapvisiblegridlinesonly="true" />
    <sodipodi:guide
       position="-5.8455811e-08,35.983344"
       orientation="136.00001,0"
       id="guide4155" />
    <sodipodi:guide
       position="-5.8455811e-08,6.6152344e-06"
       orientation="0,136"
       id="guide4157" />
    <sodipodi:guide
       position="35.983333,6.6152344e-06"
       orientation="-136.00001,0"
       id="guide4159" />
    <sodipodi:guide
       position="35.983333,35.983344"
       orientation="0,-136"
       id="guide4161" />
    <sodipodi:guide
       position="1.1488343e-09,17.991675"
       orientation="68.000007,0"
       id="guide4165" />
    <sodipodi:guide
       position="1.1488343e-09,6.6152344e-06"
       orientation="0,67.999998"
       id="guide4167" />
    <sodipodi:guide
       position="17.991666,6.6152344e-06"
       orientation="-68.000007,0"
       id="guide4169" />
    <sodipodi:guide
       position="17.991666,17.991675"
       orientation="0,-67.999998"
       id="guide4171" />
    <sodipodi:guide
       position="1.8520831,34.131232"
       orientation="122.00003,0"
       id="guide4199" />
    <sodipodi:guide
       position="1.8520831,1.8520574"
       orientation="0,121.99999"
       id="guide4201" />
    <sodipodi:guide
       position="34.131248,1.8520574"
       orientation="-122.00003,0"
       id="guide4203" />
    <sodipodi:guide
       position="34.131248,34.131232"
       orientation="0,-121.99999"
       id="guide4205" />
  </sodipodi:namedview>
  <metadata
     id="metadata7">
    <rdf:RDF>
      <cc:Work
         rdf:about="">
        <dc:format>image/svg+xml</dc:format>
        <dc:type
           rdf:resource="http://purl.org/dc/dcmitype/StillImage" />
        <dc:title />
      </cc:Work>
    </rdf:RDF>
  </metadata>
  <g
     inkscape:label="Capa 1"
     inkscape:groupmode="layer"
     id="layer1"
     transform="translate(0.52916664,-249.37498)">
    <g
       id="stopped">
      <rect
         style="opacity:1;fill:none;fill-opacity:1;stroke:none;stroke-width:0.02645833;stroke-linecap:square;stroke-linejoin:miter;stroke-miterlimit:4;stroke-dasharray:none;stroke-dashoffset:0;stroke-opacity:1"
         id="rect4234"
         width="35.983334"
         height="35.983334"
         x="-42.862503"
         y="249.37497" />
      <ellipse
         ry="1.3229166"
         rx="1.322917"
         cy="38.364582"
         cx="267.36664"
         id="ellipse4238"
         style="opacity:1;fill:currentColor;fill-opacity:1;stroke:none;stroke-width:0.01322917;stroke-linecap:square;stroke-linejoin:miter;stroke-miterlimit:4;stroke-dasharray:none;stroke-dashoffset:0;stroke-opacity:1"
         class="ColorScheme-Highlight"
         transform="rotate(90)" />
      <ellipse
         transform="rotate(90)"
         style="opacity:1;fill:currentColor;fill-opacity:1;stroke:none;stroke-width:0.01058334;stroke-linecap:square;stroke-linejoin:miter;stroke-miterlimit:4;stroke-dasharray:none;stroke-dashoffset:0;stroke-opacity:1"
         class="ColorScheme-Highlight"
         id="ellipse4261"
         cx="267.36664"
         cy="11.377067"
         rx="1.0583339"
         ry="1.0583336" />
      <ellipse
         ry="2.1166663"
         rx="2.116667"
         cy="24.870825"
         cx="267.36664"
         id="ellipse4263"
         style="opacity:1;fill:currentColor;fill-opacity:1;stroke:none;stroke-width:0.02116666;stroke-linecap:square;stroke-linejoin:miter;stroke-miterlimit:4;stroke-dasharray:none;stroke-dashoffset:0;stroke-opacity:1"
         class="ColorScheme-Highlight"
         transform="rotate(90)" />
    </g>
    <rect
       style="fill:#0000ff;fill-opacity:1;fill-rule:nonzero;stroke:none;stroke-width:0.26458335"
       id="hint-rotation-angle"
       width="3.7041671"
       height="3.7041693"
       x="-0.52916706"
       y="285.35831" />
    <g
       id="busywidget"
       transform="translate(-36.777084,0)">
      <rect
         style="fill:none;stroke:none"
         id="rect3016"
         width="35.983334"
         height="35.983334"
         x="36.247917"
         y="249.37498" />
      <path
         inkscape:connector-curvature="0"
         class="ColorScheme-Highlight"
         id="path3018"
         transform="matrix(0.26458334,0,0,0.26458334,-0.52916714,249.37498)"
         d="m 207,7 a 60.999998,61.000013 0 0 0 -61,61 60.999998,61.000013 0 0 0 52.5,60.34375 60.999998,61.000013 0 0 0 0.0625,0 60.999998,61.000013 0 0 0 0.125,0.0313 60.999998,61.000013 0 0 0 3.46875,0.40625 60.999998,61.000013 0 0 0 1.34375,0.0937 60.999998,61.000013 0 0 0 0.0313,0 c 0.15685,0.009 0.31182,0.0232 0.46875,0.0313 A 60.999998,61.000013 0 0 0 207,129 c 0.15564,-7.2e-4 0.31314,-0.0292 0.46875,-0.0313 a 60.999998,61.000013 0 0 0 4.1875,-0.21875 c 0.20839,-0.0188 0.41684,-0.0101 0.625,-0.0313 12.83843,-1.3057 25.21151,-7.11778 34.34375,-16.25 10.43684,-10.43683 16.49999,-25.115076 16.5,-39.875 0,-5.534972 -0.85031,-11.052726 -2.46875,-16.34375 A 54.99999,55.000005 0 0 1 262,68 54.99999,55.000005 0 0 1 207,123 54.99999,55.000002 0 0 1 152,68 54.99999,55.000002 0 0 1 154.46875,51.75 54.99999,55.000002 0 0 1 207,13 l 1,0 c 1.10799,0 2,-0.892032 2,-2 l 0,-2 c 0,-1.1079685 -0.89201,-2 -2,-2 l -1,0 z"
         style="fill:currentColor;fill-opacity:1;stroke:none;opacity:1" />
    </g>
    <g
       id="22-22-busywidget">
      <rect
         y="279.53748"
         x="51.329166"
         height="5.8208337"
         width="5.8208337"
         id="rect3007"
         style="fill:none;stroke:none" />
      <path
         sodipodi:nodetypes="sccccccccccccccccsssss"
         inkscape:connector-curvature="0"
         id="path3009"
         transform="matrix(0.26458334,0,0,0.26458334,-0.52916714,249.37498)"
         d="m 206.90625,115 c -5.68285,0 -9.90626,4.76331 -9.90625,10 0,5.11064 3.86041,9.24196 8.53125,9.90625 0.007,0.001 0.0245,-0.001 0.0313,0 0.1869,0.0265 0.37435,0.0459 0.5625,0.0625 0.0726,0.008 0.11478,-0.004 0.1875,0 l 0.0313,0 c 0.0253,0.002 0.0371,0 0.0625,0 0.16207,0.008 0.3377,0.0313 0.5,0.0313 0.0253,-1.1e-4 0.0373,0 0.0625,0 0.22673,-0.003 0.46154,-0.0123 0.6875,-0.0313 0.0336,-0.003 0.06,0.002 0.0937,0 2.08268,-0.2143 4.08105,-1.19024 5.5625,-2.6875 2.29078,-2.85585 2.42433,-5.2927 1.42433,-9.29269 1.22819,5.24703 -2.45297,9.87167 -7.86188,10.0102 -4.24948,0 -7.87455,-3.58819 -7.87457,-7.99871 0.0682,-4.85133 3.99957,-7.98861 7.93707,-8.00652 l 0.15625,0 c 0.16789,0 0.31534,-0.15426 0.3125,-0.32394 -0.006,-0.3677 -0.0216,-0.97956 -0.0313,-1.32579 C 207.36994,115.1624 207.24222,115 207.0625,115 z"
         style="fill:currentColor;fill-opacity:1;stroke:none;opacity:1"
         class="ColorScheme-Highlight" />
    </g>
    <g
       id="16-16-busywidget">
      <rect
         style="fill:none;stroke:none"
         id="rect3792"
         width="4.2333336"
         height="4.2333336"
         x="58.472801"
         y="281.12497" />
      <path
         style="fill:currentColor;fill-opacity:1;stroke:none;opacity:1"
         d="m 60.57642,281.3808 c -1.05492,0 -1.838921,0.88423 -1.838919,1.85633 0,0.9487 0.716617,1.71561 1.583674,1.83892 0.0013,1.8e-4 0.0045,-1.8e-4 0.0058,0 0.03469,0.005 0.06949,0.008 0.104418,0.0115 0.01348,9.5e-4 0.02132,-7.1e-4 0.03481,0 l 0.0058,0 c 0.0047,3.7e-4 0.0068,0 0.0116,0 0.03009,9.5e-4 0.06269,0.006 0.09281,0.006 0.0047,-10e-6 0.007,0 0.01161,0 0.04209,-5.5e-4 0.08568,-0.002 0.127622,-0.006 0.0062,-5.5e-4 0.01115,3.7e-4 0.01739,0 0.386612,-0.0397 0.757573,-0.22096 1.032578,-0.49889 0.425244,-0.53014 0.450034,-0.98249 0.264402,-1.72502 0.227992,0.97402 -0.455349,1.8325 -1.459418,1.85821 -0.788838,0 -1.461768,-0.66608 -1.461773,-1.48481 0.01267,-0.90056 0.74245,-1.48294 1.473376,-1.48626 l 0.029,0 c 0.03117,0 0.05855,-0.0288 0.05801,-0.0601 -0.0011,-0.0683 -0.0039,-0.18183 -0.0058,-0.2461 -9.11e-4,-0.0337 -0.02464,-0.0638 -0.058,-0.0638 z"
         id="path3794"
         inkscape:connector-curvature="0"
         sodipodi:nodetypes="sccccccccccccccccsssss"
         class="ColorScheme-Highlight" />
    </g>
  </g>
</svg>
