<svg xmlns="http://www.w3.org/2000/svg" id="svg2" width="136" height="40" version="1.1" viewBox="0 0 35.98 10.58">
 <defs id="defs7386">
  <style id="current-color-scheme" type="text/css">
   .ColorScheme-Text { color:#d3dae3; } .ColorScheme-Highlight { color:#5294e2; } .ColorScheme-ButtonBackground { color:#d3dae3; }
  </style>
 </defs>
 <rect id="hint-rotation-angle" style="fill:#0000ff;fill-opacity:1;fill-rule:nonzero;stroke:none;stroke-width:0.26458335" width="3.704" height="3.704" x="0" y="10.59"/>
 <g id="22-22-busywidget" transform="translate(-45.23956,-25.397648)">
  <rect id="rect3007" style="opacity:0.00100002;fill:#000000;fill-opacity:1;stroke:none" width="5.82" height="5.82" x="51.85" y="30.16"/>
  <path id="path4211" class="ColorScheme-Text" style="opacity:1;fill:currentColor;fill-opacity:1;fill-rule:nonzero;stroke:none;stroke-width:2;stroke-linecap:round;stroke-linejoin:round;stroke-miterlimit:4;stroke-dasharray:none;stroke-opacity:1" d="m 207,114 a 6.0000001,6.0000001 0 0 0 -5.92188,5.07617 A 6.0000001,6.0000001 0 0 0 196,125 6.0000001,6.0000001 0 0 0 201.07617,130.92188 6.0000001,6.0000001 0 0 0 207,136 6.0000001,6.0000001 0 0 0 212.92188,130.92383 6.0000001,6.0000001 0 0 0 218,125 6.0000001,6.0000001 0 0 0 212.92383,119.07812 6.0000001,6.0000001 0 0 0 207,114 Z m 0,4 a 7.0000004,7.0000004 0 0 1 7,7 7.0000004,7.0000004 0 0 1 -7,7 7.0000004,7.0000004 0 0 1 -7,-7 7.0000004,7.0000004 0 0 1 7,-7 z" transform="scale(0.26455883,0.26455883)"/>
 </g>
 <g id="16-16-busywidget" transform="translate(-45.23956,-25.397648)">
  <rect id="rect4173" style="opacity:0.00100002;fill:#000000;fill-opacity:1;stroke:none" width="4.233" height="4.233" x="45.24" y="31.75"/>
  <path id="circle4175" class="ColorScheme-Text" style="opacity:1;fill:currentColor;fill-opacity:1;fill-rule:nonzero;stroke:none;stroke-width:2;stroke-linecap:round;stroke-linejoin:round;stroke-miterlimit:4;stroke-dasharray:none;stroke-opacity:1" d="m 179,120 a 3.9999999,4.0000008 0 0 0 -4,4 3.9999999,4.0000008 0 0 0 -4,4 3.9999999,4.0000008 0 0 0 4,4 3.9999999,4.0000008 0 0 0 4,4 3.9999999,4.0000008 0 0 0 4,-4 3.9999999,4.0000008 0 0 0 4,-4 3.9999999,4.0000008 0 0 0 -4,-4 3.9999999,4.0000008 0 0 0 -4,-4 z m 0,3 a 4.9999998,4.9999998 0 0 1 5,5 4.9999998,4.9999998 0 0 1 -5,5 4.9999998,4.9999998 0 0 1 -5,-5 4.9999998,4.9999998 0 0 1 5,-5 z" transform="scale(0.26455883,0.26455883)"/>
 </g>
 <g id="busywidget" transform="matrix(1.9999999,0,0,1.9999999,-75.399263,-61.377646)">
  <rect id="rect4205" style="opacity:0.00100002;fill:#000000;fill-opacity:1;stroke:none" width="4.233" height="4.233" x="45.24" y="31.75"/>
  <path id="path4207" class="ColorScheme-Text" style="opacity:1;fill:currentColor;fill-opacity:1;fill-rule:nonzero;stroke:none;stroke-width:2;stroke-linecap:round;stroke-linejoin:round;stroke-miterlimit:4;stroke-dasharray:none;stroke-opacity:1" d="m 179,120 a 3.9999999,4.0000008 0 0 0 -4,4 3.9999999,4.0000008 0 0 0 -4,4 3.9999999,4.0000008 0 0 0 4,4 3.9999999,4.0000008 0 0 0 4,4 3.9999999,4.0000008 0 0 0 4,-4 3.9999999,4.0000008 0 0 0 4,-4 3.9999999,4.0000008 0 0 0 -4,-4 3.9999999,4.0000008 0 0 0 -4,-4 z m 0,3 a 4.9999998,4.9999998 0 0 1 5,5 4.9999998,4.9999998 0 0 1 -5,5 4.9999998,4.9999998 0 0 1 -5,-5 4.9999998,4.9999998 0 0 1 5,-5 z" transform="scale(0.26455883,0.26455883)"/>
 </g>
 <g id="g4219" transform="translate(11.640588,-11.640588)">
  <rect id="rect4214" style="opacity:0.00100002;fill:#000000;fill-opacity:1;fill-rule:nonzero;stroke:none;stroke-width:2;stroke-linecap:round;stroke-linejoin:round;stroke-miterlimit:4;stroke-dasharray:none;stroke-opacity:1" width="8.466" height="8.466" x="13.76" y="13.76"/>
  <path id="stopped" class="ColorScheme-Text" style="opacity:1;fill:currentColor;fill-opacity:1;fill-rule:nonzero;stroke:none;stroke-width:2;stroke-linecap:round;stroke-linejoin:round;stroke-miterlimit:4;stroke-dasharray:none;stroke-opacity:1" d="m 15.786177,14.286177 4.407647,0 c 0.831,0 1.5,0.669 1.5,1.5 l 0,4.407647 c 0,0.831 -0.669,1.5 -1.5,1.5 l -4.407647,0 c -0.831,0 -1.5,-0.669 -1.5,-1.5 l 0,-4.407647 c 0,-0.831 0.669,-1.5 1.5,-1.5 z"/>
 </g>
</svg>
