<?xml version="1.0" encoding="UTF-8" standalone="no"?>
<!-- Created with Inkscape (http://www.inkscape.org/) -->

<svg
   xmlns:dc="http://purl.org/dc/elements/1.1/"
   xmlns:cc="http://creativecommons.org/ns#"
   xmlns:rdf="http://www.w3.org/1999/02/22-rdf-syntax-ns#"
   xmlns:svg="http://www.w3.org/2000/svg"
   xmlns="http://www.w3.org/2000/svg"
   xmlns:sodipodi="http://sodipodi.sourceforge.net/DTD/sodipodi-0.dtd"
   xmlns:inkscape="http://www.inkscape.org/namespaces/inkscape"
   id="svg2"
   sodipodi:version="0.32"
   inkscape:version="0.91 r13725"
   width="200"
   height="200"
   sodipodi:docname="clock.svg"
   inkscape:output_extension="org.inkscape.output.svgz.inkscape"
   inkscape:export-filename="/home/pinheiro/server/svnserver/estilo/plasma/4.2/test/image601cc.png"
   inkscape:export-xdpi="90"
   inkscape:export-ydpi="90"
   version="1.0">
  <sodipodi:namedview
     inkscape:window-height="1010"
     inkscape:window-width="1920"
     inkscape:pageshadow="2"
     inkscape:pageopacity="1"
     guidetolerance="3"
     gridtolerance="4"
     objecttolerance="6"
     borderopacity="1.0"
     bordercolor="#666666"
     pagecolor="#b9c8e1"
     id="base"
     inkscape:zoom="3.193561"
     inkscape:cx="-29.413232"
     inkscape:cy="99.999992"
     inkscape:window-x="-4"
     inkscape:window-y="-5"
     inkscape:current-layer="svg2"
     showgrid="true"
     showguides="true"
     inkscape:guide-bbox="true"
     inkscape:window-maximized="1">
    <inkscape:grid
       empspacing="5"
       enabled="true"
       visible="true"
       id="grid5592"
       type="xygrid"
       snapvisiblegridlinesonly="true"
       color="#0000ff"
       opacity="0.03921569"
       empcolor="#0000ff"
       empopacity="0.07843137" />
    <sodipodi:guide
       id="guide4454"
       position="1296.8644,-784.48024"
       orientation="1,0" />
    <sodipodi:guide
       id="guide7371"
       position="820.86441,-843.48024"
       orientation="0,1" />
  </sodipodi:namedview>
  <metadata
     id="metadata7">
    <rdf:RDF>
      <cc:Work
         rdf:about="">
        <dc:format>image/svg+xml</dc:format>
        <dc:type
           rdf:resource="http://purl.org/dc/dcmitype/StillImage" />
        <dc:title />
      </cc:Work>
    </rdf:RDF>
  </metadata>
  <defs
     id="defs7386">
    <style
       type="text/css"
       id="current-color-scheme">
   .ColorScheme-Text { color:#d3dae3; } .ColorScheme-Highlight { color:#5294e2; } .ColorScheme-Background { color:#383c4a; }
  </style>
  </defs>
  <g
     inkscape:groupmode="layer"
     id="layer1"
     style="display:none"
     inkscape:label="layer1"
     transform="translate(-1798.1356,76.7415)" />
  <g
     inkscape:groupmode="layer"
     id="layer2"
     style="display:inline"
     inkscape:label="glow"
     transform="translate(-1798.1356,76.7415)" />
  <g
     transform="translate(-1028.03,408.47464)"
     style="display:inline"
     inkscape:label="box"
     id="layer4" />
  <g
     transform="translate(-1028.03,408.47464)"
     style="display:inline"
     inkscape:label="zip_app"
     id="layer5" />
  <g
     inkscape:label="#g4535"
     id="ClockFace"
     transform="translate(-917.46243,-480.01699)">
    <g
       id="g4323"
       inkscape:label="#g4323">
      <rect
         y="473.017"
         x="910.4624"
         height="214"
         width="214"
         id="rect4069"
         style="opacity:0.00499998;fill:currentColor;fill-opacity:1;stroke:none" />
      <path
         sodipodi:type="arc"
         style="fill:url(#radialGradient4671);fill-opacity:1;stroke:none"
         id="path4329"
         sodipodi:cx="1255.8716"
         sodipodi:cy="382.72916"
         sodipodi:rx="96.605507"
         sodipodi:ry="96.605507"
         d="m 1352.4771,382.72916 c 0,53.35374 -43.2518,96.6055 -96.6055,96.6055 -53.3538,0 -96.6055,-43.25176 -96.6055,-96.6055 0,-53.35375 43.2517,-96.60551 96.6055,-96.60551 53.3537,0 96.6055,43.25176 96.6055,96.60551 z"
         transform="matrix(1.0765432,0,0,1.0765432,-334.53758,169.99252)"
         inkscape:export-xdpi="90"
         inkscape:export-ydpi="90" />
      <g
         id="g4245">
        <path
           inkscape:export-ydpi="90"
           inkscape:export-xdpi="90"
           transform="translate(-238.40858,197.28733)"
           sodipodi:type="arc"
           style="fill:currentColor;fill-opacity:1;stroke:none"
           class="ColorScheme-Background"
           id="path5099"
           sodipodi:cx="1255.8716"
           sodipodi:cy="382.72916"
           sodipodi:rx="96.605507"
           sodipodi:ry="96.605507"
           d="m 1352.4771,382.72916 c 0,53.35374 -43.2518,96.6055 -96.6055,96.6055 -53.3538,0 -96.6055,-43.25176 -96.6055,-96.6055 0,-53.35375 43.2517,-96.60551 96.6055,-96.60551 53.3537,0 96.6055,43.25176 96.6055,96.60551 z" />
        <g
           id="g6149"
           transform="translate(-0.50849973,-0.41219339)">
          <path
             inkscape:connector-curvature="0"
             style="fill:currentColor"
             class="ColorScheme-Text"
             d="m 974.36163,503.57953 -0.8437,0.5 2.0937,3.59375 c 0.2777,-0.16344 0.564,-0.30841 0.8437,-0.46875 z m 87.87497,0 -2.0313,3.53125 c 0.2926,0.16682 0.5847,0.3298 0.875,0.5 l 2.0313,-3.53125 z m -95.68747,5.03125 -0.8125,0.5625 2.4687,3.40625 c 0.2689,-0.19888 0.5412,-0.398 0.8126,-0.59375 z m 103.49997,0 -2.375,3.28125 c 0.2668,0.19173 0.5481,0.36775 0.8125,0.5625 l 2.375,-3.28125 z m -110.74997,5.8125 -0.7188,0.65625 2.7813,3.09375 c 0.2398,-0.21947 0.5076,-0.40827 0.75,-0.625 z m 117.99997,0 -2.7188,3 c 0.2483,0.22104 0.5045,0.43234 0.75,0.65625 l 2.7188,-3 z m -124.59377,6.53125 -0.6562,0.75 3.125,2.8125 c 0.2192,-0.24732 0.4342,-0.50529 0.6562,-0.75 z m 131.18757,0 -3,2.6875 c 0.2326,0.25546 0.4579,0.52294 0.6874,0.78125 l 3,-2.71875 z m -137.06257,7.1875 -0.5937,0.78125 3.4375,2.5 c 0.1922,-0.26833 0.3673,-0.54652 0.5625,-0.8125 z m 142.93757,0 -3.25,2.375 c 0.1905,0.25885 0.3748,0.52016 0.5624,0.78125 l 3.2813,-2.375 z m -148.06257,7.75 -0.5,0.875 3.6876,2.125 c 0.1656,-0.2917 0.3309,-0.58548 0.5,-0.875 z m 153.18757,0 -3.5,2.03125 c 0.17,0.29042 0.3333,0.58239 0.5,0.875 l 3.5,-2.03125 z m -157.43757,8.25 -0.4062,0.90625 3.875,1.71875 c 0.1333,-0.30532 0.2695,-0.60282 0.4062,-0.90625 z m 161.68757,0 -3.6876,1.625 c 0.1363,0.3014 0.2735,0.60298 0.4063,0.90625 l 3.6875,-1.625 z m -165.06257,8.65625 -0.3124,0.9375 4.0624,1.3125 c 0.098,-0.30841 0.1804,-0.63063 0.2813,-0.9375 z m 168.43757,0 -3.8438,1.25 c 0.1021,0.30968 0.2139,0.62625 0.3125,0.9375 l 3.8437,-1.25 z m -170.90627,8.96875 -0.1875,0.96875 4.1562,0.875 c 0.066,-0.32409 0.1492,-0.64602 0.2188,-0.96875 z m 173.34367,0 -3.9374,0.84375 c 0.069,0.32066 0.1218,0.64674 0.1874,0.96875 l 3.9688,-0.84375 z m -174.81237,9.15625 -0.125,0.96875 4.2812,0.4375 c 0.031,-0.32197 0.059,-0.64784 0.094,-0.96875 l -4.25,-0.4375 z m 176.34367,0 -4.0625,0.4375 c 0.035,0.32091 0.063,0.64678 0.094,0.96875 l 4.0624,-0.4375 -0.094,-0.96875 z m -172.15627,18.09375 -4.3124,0.4375 0.125,1 4.2812,-0.4375 c -0.037,-0.33266 -0.061,-0.66618 -0.094,-1 z m 168.15627,0 c -0.033,0.33382 -0.057,0.66734 -0.094,1 l 4.0937,0.4375 0.094,-1 z m -166.84367,8.71875 -4.2188,0.90625 0.1875,0.96875 4.25,-0.90625 c -0.071,-0.32234 -0.1519,-0.64505 -0.2187,-0.96875 z m 165.53117,0.0625 c -0.067,0.32362 -0.148,0.6465 -0.2188,0.96875 l 4,0.84375 0.2188,-0.96875 z m -163.28117,8.46875 -4.125,1.34375 0.3124,0.96875 4.125,-1.34375 c -0.1075,-0.32327 -0.2087,-0.64375 -0.3124,-0.96875 z m 160.99997,0.0625 c -0.1041,0.32488 -0.2047,0.64559 -0.3126,0.96875 l 3.9376,1.28125 0.3124,-0.96875 z m -157.87497,8.21875 -3.9688,1.78125 0.4062,0.90625 3.9688,-1.78125 c -0.1376,-0.30308 -0.2721,-0.60127 -0.4062,-0.90625 z m 154.74997,0.0937 c -0.1339,0.30333 -0.269,0.60481 -0.4063,0.90625 l 3.7813,1.6875 0.4062,-0.90625 z m -150.74997,7.78125 -3.8126,2.1875 0.5,0.875 3.8126,-2.1875 c -0.1699,-0.28898 -0.3335,-0.58384 -0.5,-0.875 z m 146.74997,0.0937 c -0.1676,0.29207 -0.3292,0.58514 -0.5,0.875 l 3.625,2.09375 0.5,-0.875 z m -141.99997,7.34375 -3.5313,2.5625 0.5937,0.8125 3.5313,-2.5625 c -0.1995,-0.27029 -0.3974,-0.53977 -0.5937,-0.8125 z m 137.18737,0.0937 c -0.1931,0.26753 -0.3662,0.54733 -0.5624,0.8125 l 3.375,2.46875 0.5937,-0.8125 z m -131.62497,6.78125 -3.2812,2.9375 0.6562,0.75 3.2813,-2.9375 c -0.2242,-0.24569 -0.4349,-0.50167 -0.6563,-0.75 z m 126.09377,0.0937 c -0.2264,0.25327 -0.4581,0.49949 -0.6875,0.75 l 3.1563,2.84375 0.6874,-0.75 z m -119.93747,6.1875 -2.9063,3.25 0.7188,0.6875 2.9375,-3.28125 c -0.2482,-0.22104 -0.5044,-0.43234 -0.75,-0.65625 z m 113.71867,0.0937 c -0.251,0.22809 -0.4961,0.46241 -0.75,0.6875 l 2.8438,3.15625 0.75,-0.6875 z m -106.90617,5.5 -2.5625,3.53125 0.8125,0.59375 2.5625,-3.53125 c -0.2716,-0.19534 -0.5433,-0.39528 -0.8125,-0.59375 z m 100.06247,0.0937 c -0.2696,0.19791 -0.5404,0.39898 -0.8125,0.59375 l 2.5,3.4375 0.8125,-0.59375 z m -92.65627,4.78125 -2.1874,3.78125 0.8437,0.5 2.1875,-3.8125 c -0.28,-0.15998 -0.5658,-0.30567 -0.8438,-0.46875 z m 85.24997,0.0625 c -0.2828,0.16517 -0.5588,0.33803 -0.8437,0.5 l 2.125,3.71875 0.875,-0.5 z m -77.43737,4 -1.75,3.96875 0.9062,0.40625 1.7812,-3.96875 c -0.3132,-0.13766 -0.6262,-0.26491 -0.9374,-0.40625 z m 69.62497,0.0937 c -0.3079,0.13886 -0.6278,0.27098 -0.9376,0.40625 l 1.7188,3.875 0.9375,-0.40625 z m -61.37497,3.125 -1.3438,4.15625 0.9375,0.3125 1.3437,-4.15625 c -0.3141,-0.10014 -0.625,-0.2088 -0.9374,-0.3125 z m 53.09367,0.0625 c -0.3222,0.10608 -0.6448,0.2102 -0.9687,0.3125 l 1.3437,4.09375 0.9687,-0.3125 z m -44.5937,2.25 -0.90627,4.25 0.99997,0.21875 0.9063,-4.25 c -0.3338,-0.0688 -0.6678,-0.14601 -1,-0.21875 z m 36.0624,0.0625 c -0.3265,0.0705 -0.6408,0.15204 -0.9687,0.21875 l 0.9063,4.1875 0.9687,-0.21875 z m -27.3124,1.375 -0.4688,4.34375 1,0.0937 0.4375,-4.3125 c -0.3249,-0.0321 -0.6449,-0.0892 -0.9687,-0.125 z m 18.5937,0.0313 c -0.323,0.035 -0.6447,0.0624 -0.9687,0.0937 l 0.4374,4.3125 0.9688,-0.0937 z"
             id="path5480"
             sodipodi:nodetypes="cccccccccccccccccccccccccccccccccccccccccccccccccccccccccccccccccccccccccccccccccccccccccccccccccccccccccccccccccccccccccccccccccccccccccccccccccccccccccccccccccccccccccccccccccccccccccccccccccccccccccccccccccccccccccccccccccccccccccccccccccccc" />
        </g>
        <g
           inkscape:export-ydpi="90"
           inkscape:export-xdpi="90"
           transform="translate(-283.73228,123.31062)"
           id="g5157">
          <g
             style="font-size:40px;font-style:normal;font-variant:normal;font-weight:normal;font-stretch:normal;text-align:start;line-height:125%;letter-spacing:0px;word-spacing:0px;writing-mode:lr-tb;text-anchor:start;fill:#232629;fill-opacity:0.44270833;stroke:none;filter:url(#filter5354-4);font-family:Oxygen;-inkscape-font-specification:Oxygen"
             id="text4522" />
          <g
             style="font-size:40px;font-style:normal;font-variant:normal;font-weight:normal;font-stretch:normal;text-align:start;line-height:125%;letter-spacing:0px;word-spacing:0px;writing-mode:lr-tb;text-anchor:start;fill:currentColor;fill-opacity:1;stroke:none;font-family:Oxygen;-inkscape-font-specification:Oxygen"
             class="ColorScheme-Highlight"
             id="text5149" />
          <g
             style="font-size:40px;font-style:normal;font-variant:normal;font-weight:normal;font-stretch:normal;text-align:start;line-height:125%;letter-spacing:0px;word-spacing:0px;writing-mode:lr-tb;text-anchor:start;fill:#232629;fill-opacity:0.44270833;stroke:none;filter:url(#filter5358-1);font-family:Oxygen;-inkscape-font-specification:Oxygen"
             id="text4526">
            <path
               id="path6204"
               d="m 1306.8865,370.27094 c 2.7474,2e-5 4.9479,0.72268 6.6015,2.16796 1.6667,1.43232 2.5,3.39196 2.5,5.87891 0,1.69273 -0.4362,3.28778 -1.3086,4.78516 -0.8724,1.48439 -2.2135,3.19662 -4.0234,5.13672 l -8.2617,8.80859 13.0273,0 0,3.00781 -16.4453,0 0,-3.6914 9.3945,-10.6836 c 1.2761,-1.45832 2.2331,-2.72785 2.8711,-3.80859 0.6511,-1.09373 0.9766,-2.17446 0.9766,-3.24219 0,-1.66664 -0.4753,-2.93617 -1.4258,-3.80859 -0.9505,-0.87237 -2.2851,-1.30857 -4.0039,-1.3086 -2.5521,3e-5 -4.6419,0.82034 -6.2695,2.46094 l -1.1328,-3.06641 c 1.914,-1.75778 4.414,-2.63669 7.5,-2.63671 m -14.8802,1.23046 3.4961,0 0,28.55469 -3.4961,0 0,-25.29297 c -1.6015,1.06774 -3.1966,1.95966 -4.7851,2.67578 l 0,-3.0664 c 1.25,-0.54685 2.845,-1.50388 4.7851,-2.8711"
               inkscape:connector-curvature="0" />
          </g>
          <g
             style="font-size:40px;font-style:normal;font-variant:normal;font-weight:normal;font-stretch:normal;text-align:start;line-height:125%;letter-spacing:0px;word-spacing:0px;writing-mode:lr-tb;text-anchor:start;fill:currentColor;fill-opacity:1;stroke:none;font-family:Oxygen;-inkscape-font-specification:Oxygen"
             class="ColorScheme-Highlight"
             id="text5153"
             transform="translate(0,6)">
            <path
               id="path6197"
               d="m 1306.8865,363.0712 c 2.7474,3e-5 4.9479,0.72268 6.6015,2.16797 1.6667,1.43231 2.5,3.39195 2.5,5.8789 0,1.69273 -0.4362,3.28778 -1.3086,4.78516 -0.8724,1.48439 -2.2135,3.19663 -4.0234,5.13672 l -8.2617,8.80859 13.0273,0 0,3.00781 -16.4453,0 0,-3.6914 9.3945,-10.6836 c 1.2761,-1.45831 2.2331,-2.72784 2.8711,-3.80859 0.6511,-1.09373 0.9766,-2.17446 0.9766,-3.24219 0,-1.66664 -0.4753,-2.93617 -1.4258,-3.80859 -0.9505,-0.87237 -2.2851,-1.30857 -4.0039,-1.30859 -2.5521,2e-5 -4.6419,0.82033 -6.2695,2.46093 l -1.1328,-3.0664 c 1.914,-1.75779 4.414,-2.63669 7.5,-2.63672 m -14.8802,1.23047 3.4961,0 0,28.55468 -3.4961,0 0,-25.29296 c -1.6015,1.06773 -3.1966,1.95965 -4.7851,2.67578 l 0,-3.06641 c 1.25,-0.54685 2.845,-1.50388 4.7851,-2.87109"
               inkscape:connector-curvature="0" />
          </g>
        </g>
        <rect
           inkscape:export-ydpi="90"
           inkscape:export-xdpi="90"
           y="580.17072"
           x="927.4787"
           height="2.7090182"
           width="20"
           id="rect5549"
           style="fill:#212121;fill-opacity:0.41346154;stroke:none;filter:url(#filter5590)" />
        <rect
           inkscape:export-ydpi="90"
           inkscape:export-xdpi="90"
           style="fill:currentColor;fill-opacity:1;stroke:none"
           class="ColorScheme-Highlight"
           id="rect5442"
           width="20"
           height="2.7090182"
           x="927.37054"
           y="578.95905" />
        <rect
           inkscape:export-ydpi="90"
           inkscape:export-xdpi="90"
           style="fill:#1c1c1c;fill-opacity:0.36057691;stroke:none;filter:url(#filter5574)"
           id="rect5531"
           width="20"
           height="2.7090182"
           x="1088.5787"
           y="580.17169" />
        <rect
           inkscape:export-ydpi="90"
           inkscape:export-xdpi="90"
           y="578.95905"
           x="1088.5704"
           height="2.7090182"
           width="20"
           id="rect5446"
           style="fill:currentColor;fill-opacity:1;stroke:none"
           class="ColorScheme-Highlight" />
        <rect
           inkscape:export-ydpi="90"
           inkscape:export-xdpi="90"
           y="-1323.934"
           x="349.02609"
           height="2.7090182"
           width="20"
           id="rect5571"
           style="fill:#2a2a2a;fill-opacity:0.52403846;stroke:none;filter:url(#filter5578)"
           transform="matrix(0,1,-1,0,-304.79922,303.80061)" />
        <rect
           inkscape:export-ydpi="90"
           inkscape:export-xdpi="90"
           transform="matrix(0,1,-1,0,0,0)"
           style="fill:currentColor;fill-opacity:1;stroke:none"
           class="ColorScheme-Highlight"
           id="rect5448"
           width="20"
           height="2.7090182"
           x="651.61395"
           y="-1019.2259" />
        <path
           inkscape:export-ydpi="90"
           inkscape:export-xdpi="90"
           d="m 1352.4771,382.72916 c 0,53.35374 -43.2518,96.6055 -96.6055,96.6055 -53.3538,0 -96.6055,-43.25176 -96.6055,-96.6055 0,-53.35375 43.2517,-96.60551 96.6055,-96.60551 53.3537,0 96.6055,43.25176 96.6055,96.60551 z"
           sodipodi:ry="96.605507"
           sodipodi:rx="96.605507"
           sodipodi:cy="382.72916"
           sodipodi:cx="1255.8716"
           id="path5627"
           style="fill:none;stroke:#70767a;stroke-opacity:0.67708333"
           sodipodi:type="arc"
           transform="translate(-238.40858,197.28733)" />
        <g
           id="g6073"
           transform="translate(-0.50849973,-0.41219339)">
          <path
             id="path6063"
             style="fill:currentColor;fill-opacity:1;stroke:none"
             class="ColorScheme-Highlight"
             d="m 1090.3075,537.57714 4.0274,-2.3252 1.3545,2.34607 -4.0274,2.3252 z m -149.43492,86.2763 4.0273,-2.32515 1.3545,2.34607 -4.0273,2.32515 z"
             inkscape:connector-curvature="0" />
          <path
             inkscape:connector-curvature="0"
             d="m 1059.0835,507.3447 2.3252,-4.02738 2.3461,1.35451 -2.3252,4.02738 z m -86.27632,149.43492 2.3252,-4.02729 2.3461,1.35451 -2.3252,4.02729 z"
             style="fill:currentColor;fill-opacity:1;stroke:none"
             class="ColorScheme-Highlight"
             id="path6065" />
          <path
             id="path6067"
             style="fill:currentColor;fill-opacity:1;stroke:none"
             class="ColorScheme-Highlight"
             d="m 944.89998,539.92325 -4.0274,-2.32521 1.3545,-2.34608 4.0274,2.3252 z m 149.43492,86.27629 -4.0273,-2.3252 1.3545,-2.34614 4.0273,2.32526 z"
             inkscape:connector-curvature="0" />
          <path
             inkscape:connector-curvature="0"
             d="m 975.13238,508.69925 -2.3252,-4.02739 2.3461,-1.35452 2.3252,4.02738 z m 86.27632,149.43491 -2.3251,-4.02733 2.3461,-1.35457 2.3251,4.02738 z"
             style="fill:currentColor;fill-opacity:1;stroke:none"
             class="ColorScheme-Highlight"
             id="path6069" />
        </g>
      </g>
      <g
         id="text5629"
         class="ColorScheme-Text"
         style="font-size:12px;font-style:normal;font-variant:normal;font-weight:normal;font-stretch:normal;text-align:center;line-height:125%;letter-spacing:0px;word-spacing:0px;text-anchor:middle;fill:currentColor;fill-opacity:1;stroke:none;font-family:Pristina;-inkscape-font-specification:Pristina">
        <path
           id="path4345"
           d="m 1002.1778,609.60632 c -0.1875,0.76173 -0.4043,1.34962 -0.6504,1.76368 -0.1133,0.19531 -0.2246,0.29297 -0.334,0.29296 -0.043,10e-6 -0.096,-0.01 -0.1582,-0.0293 -0.2969,-0.0898 -0.4453,-0.19726 -0.4453,-0.32227 0,-0.0625 0.041,-0.10351 0.1231,-0.12305 0.3437,-0.51561 0.5468,-1.13475 0.6093,-1.85742 -0.2148,-0.1914 -0.4179,-0.2871 -0.6093,-0.28711 -0.4063,-0.004 -0.88677,0.35353 -1.44145,1.07227 -0.51173,0.67188 -0.95509,1.46875 -1.33008,2.39062 -0.39063,0.96094 -0.57813,1.76172 -0.5625,2.40235 0.004,0.37109 0.11523,0.64844 0.33398,0.83203 0.16016,0.13281 0.3418,0.19922 0.54492,0.19922 0.11719,0 0.25195,-0.0234 0.4043,-0.0703 0.375,-0.11719 0.80859,-0.34375 1.30078,-0.67969 0.46875,-0.32031 0.85935,-0.64648 1.17185,-0.97852 0.098,-0.10546 0.1563,-0.24023 0.1758,-0.40429 0.012,-0.0859 0.051,-0.12891 0.1172,-0.12891 0.055,0 0.096,0.0352 0.123,0.10547 0.1407,0.35156 0.211,0.5957 0.211,0.73242 0,0.12891 -0.053,0.25 -0.1582,0.36328 -0.07,0.0703 -0.2364,0.20508 -0.4981,0.4043 -0.8281,0.62109 -1.53904,1.00781 -2.13278,1.16015 -0.1836,0.0469 -0.35157,0.0703 -0.50391,0.0703 -0.32031,0 -0.56445,-0.10743 -0.73242,-0.32227 -0.76172,-0.28516 -1.14258,-0.7207 -1.14258,-1.30664 0,-0.94531 0.24805,-1.96093 0.74414,-3.04687 0.42578,-0.94141 0.95117,-1.76953 1.57617,-2.48438 0.60156,-0.68359 1.08988,-1.03905 1.46488,-1.06641 0.1367,-0.0117 0.2949,0.0449 0.4746,0.16993 0.023,0.0156 0.205,0.16211 0.5449,0.43945 0.019,-0.15624 0.072,-0.23437 0.1582,-0.23438 0.094,10e-6 0.2519,0.086 0.4746,0.25782 0.1406,0.10938 0.2109,0.21485 0.2109,0.3164 0,0.0664 -0.021,0.18946 -0.064,0.36914 z"
           inkscape:connector-curvature="0" />
        <path
           id="path4347"
           d="m 1006.0743,612.6532 c -0.01,0.34766 -0.092,0.80859 -0.252,1.38281 -0.2539,0.90625 -0.6133,1.60938 -1.0781,2.10938 -0.2461,0.26562 -0.5195,0.39843 -0.8203,0.39843 -0.1172,0 -0.2676,-0.0254 -0.4512,-0.0762 -0.3672,-0.0234 -0.666,-0.13867 -0.8965,-0.3457 -0.25,-0.22656 -0.3672,-0.51758 -0.3515,-0.87305 0.016,-0.41406 0.1582,-0.99218 0.4277,-1.73437 0.2969,-0.80859 0.6055,-1.39062 0.9258,-1.7461 0.1523,-0.17187 0.2773,-0.25781 0.375,-0.25781 0.1328,0 0.3476,0.13672 0.6445,0.41016 0.082,-0.0391 0.25,-0.11133 0.5039,-0.2168 0.1289,-0.043 0.2266,-0.0644 0.293,-0.0644 0.1523,0 0.3223,0.14258 0.5098,0.42773 0.121,0.17579 0.1777,0.3711 0.1699,0.58594 z m -0.6738,0.16992 c 0.027,-0.26171 0.041,-0.42773 0.041,-0.49805 0,-0.16406 -0.051,-0.24609 -0.1524,-0.24609 -0.039,0 -0.09,0.008 -0.1523,0.0234 l -0.9082,0.36914 c -0.1055,0.043 -0.166,0.0645 -0.1817,0.0645 -0.031,0 -0.062,-0.0371 -0.094,-0.11133 -0.2266,0.27735 -0.4375,0.67774 -0.6328,1.20117 -0.1524,0.41016 -0.2578,0.77735 -0.3164,1.10157 -0.043,0.21875 -0.065,0.41797 -0.065,0.59765 0,0.60157 0.1856,0.89453 0.5567,0.87891 0.1484,-0.004 0.3085,-0.0625 0.4804,-0.17578 0.3281,-0.22266 0.6348,-0.66797 0.9199,-1.33594 0.2735,-0.6289 0.4414,-1.25195 0.504,-1.86914 z"
           inkscape:connector-curvature="0" />
        <path
           id="path4349"
           d="m 1013.5919,614.49304 c -0.254,0.37891 -0.6329,1.04688 -1.1368,2.00391 -0.047,0.0859 -0.076,0.13086 -0.088,0.13476 -0.035,0.0195 -0.1171,0.01 -0.246,-0.0293 -0.2696,-0.082 -0.4043,-0.16016 -0.4043,-0.23438 0,-0.043 0.018,-0.10547 0.053,-0.1875 0.293,-0.68359 0.5439,-1.41308 0.7529,-2.18847 0.209,-0.77539 0.3096,-1.37012 0.3018,-1.78418 0,-0.13672 -0.049,-0.20508 -0.1465,-0.20508 -0.066,0 -0.1445,0.0371 -0.2344,0.11133 -0.332,0.26953 -0.7617,0.79297 -1.289,1.57031 -0.6329,0.9375 -1.0801,1.81445 -1.3418,2.63086 -0.027,0.0937 -0.051,0.14648 -0.07,0.1582 -0.023,0.0117 -0.08,0.002 -0.1699,-0.0293 -0.1328,-0.0469 -0.2597,-0.11328 -0.3808,-0.19921 -0.059,-0.043 -0.088,-0.0879 -0.088,-0.13477 0,-0.008 0.029,-0.084 0.088,-0.22852 0.5117,-1.28124 0.7675,-2.52148 0.7675,-3.7207 0,-0.12109 -0.035,-0.18164 -0.1054,-0.18164 -0.051,0 -0.1153,0.0332 -0.1934,0.0996 -0.418,0.35157 -0.8828,0.95703 -1.3945,1.81641 -0.4922,0.82031 -0.8594,1.58984 -1.1016,2.30859 -0.062,0.18359 -0.1269,0.27539 -0.1933,0.27539 -0.078,0 -0.2383,-0.0879 -0.4805,-0.26367 -0.062,-0.0352 -0.094,-0.0723 -0.094,-0.11133 0,-0.043 0.043,-0.10937 0.129,-0.19922 0.1601,-0.33984 0.3417,-0.92578 0.5449,-1.75781 0.2304,-0.94922 0.3301,-1.63867 0.2988,-2.06836 -0.059,0.0586 -0.1582,0.15528 -0.2988,0.29004 -0.1407,0.13477 -0.2461,0.23731 -0.3164,0.30762 -0.051,0.0508 -0.096,0.0762 -0.1348,0.0762 -0.059,0 -0.088,-0.0391 -0.088,-0.11719 0,-0.0625 0.022,-0.11718 0.065,-0.16406 0.2187,-0.22656 0.4355,-0.49414 0.6504,-0.80274 0.078,-0.10937 0.1464,-0.16405 0.205,-0.16406 0.043,10e-6 0.127,0.0625 0.252,0.1875 0.098,0.0352 0.1953,0.0703 0.293,0.10547 0.082,0.0391 0.123,0.11133 0.123,0.2168 0,0.0312 0,0.0644 -0.012,0.0996 -0.098,0.75391 -0.2481,1.45703 -0.4512,2.10937 0.6914,-1.24218 1.334,-2.12499 1.9277,-2.64844 0.082,-0.0742 0.1622,-0.11132 0.2403,-0.11132 0.082,0 0.207,0.0527 0.375,0.1582 0.1601,0.0703 0.2656,0.13282 0.3164,0.1875 0.059,0.0703 0.088,0.17969 0.088,0.32812 0,0.79688 -0.092,1.50587 -0.2754,2.12696 0.7617,-1.20703 1.4551,-2.10352 2.0801,-2.68946 0.082,-0.0781 0.1679,-0.11718 0.2578,-0.11718 0.1172,0 0.2617,0.0781 0.4336,0.23437 0.3047,0.0469 0.4492,0.23243 0.4336,0.55664 -0.047,0.94141 -0.25,1.85157 -0.6094,2.73047 0.1953,-0.23047 0.3476,-0.42969 0.457,-0.59766 0.051,-0.082 0.1094,-0.12304 0.1758,-0.12304 0.059,0 0.088,0.0312 0.088,0.0937 0,0.0391 -0.018,0.0859 -0.053,0.14062 z"
           inkscape:connector-curvature="0" />
        <path
           id="path4351"
           d="m 1021.3028,614.49304 c -0.2539,0.37891 -0.6328,1.04688 -1.1367,2.00391 -0.047,0.0859 -0.076,0.13086 -0.088,0.13476 -0.035,0.0195 -0.1172,0.01 -0.2461,-0.0293 -0.2695,-0.082 -0.4043,-0.16016 -0.4043,-0.23438 0,-0.043 0.018,-0.10547 0.053,-0.1875 0.293,-0.68359 0.544,-1.41308 0.753,-2.18847 0.2089,-0.77539 0.3095,-1.37012 0.3017,-1.78418 0,-0.13672 -0.049,-0.20508 -0.1465,-0.20508 -0.066,0 -0.1445,0.0371 -0.2343,0.11133 -0.3321,0.26953 -0.7618,0.79297 -1.2891,1.57031 -0.6328,0.9375 -1.0801,1.81445 -1.3418,2.63086 -0.027,0.0937 -0.051,0.14648 -0.07,0.1582 -0.024,0.0117 -0.08,0.002 -0.1699,-0.0293 -0.1329,-0.0469 -0.2598,-0.11328 -0.3809,-0.19921 -0.059,-0.043 -0.088,-0.0879 -0.088,-0.13477 0,-0.008 0.029,-0.084 0.088,-0.22852 0.5117,-1.28124 0.7676,-2.52148 0.7676,-3.7207 0,-0.12109 -0.035,-0.18164 -0.1055,-0.18164 -0.051,0 -0.1152,0.0332 -0.1933,0.0996 -0.418,0.35157 -0.8829,0.95703 -1.3946,1.81641 -0.4922,0.82031 -0.8594,1.58984 -1.1015,2.30859 -0.062,0.18359 -0.127,0.27539 -0.1934,0.27539 -0.078,0 -0.2383,-0.0879 -0.4805,-0.26367 -0.062,-0.0352 -0.094,-0.0723 -0.094,-0.11133 0,-0.043 0.043,-0.10937 0.1289,-0.19922 0.1601,-0.33984 0.3418,-0.92578 0.5449,-1.75781 0.2305,-0.94922 0.3301,-1.63867 0.2988,-2.06836 -0.059,0.0586 -0.1582,0.15528 -0.2988,0.29004 -0.1406,0.13477 -0.2461,0.23731 -0.3164,0.30762 -0.051,0.0508 -0.096,0.0762 -0.1348,0.0762 -0.059,0 -0.088,-0.0391 -0.088,-0.11719 0,-0.0625 0.021,-0.11718 0.064,-0.16406 0.2188,-0.22656 0.4355,-0.49414 0.6504,-0.80274 0.078,-0.10937 0.1465,-0.16405 0.2051,-0.16406 0.043,10e-6 0.1269,0.0625 0.2519,0.1875 0.098,0.0352 0.1953,0.0703 0.293,0.10547 0.082,0.0391 0.123,0.11133 0.123,0.2168 0,0.0312 0,0.0644 -0.012,0.0996 -0.098,0.75391 -0.248,1.45703 -0.4512,2.10937 0.6915,-1.24218 1.334,-2.12499 1.9278,-2.64844 0.082,-0.0742 0.1621,-0.11132 0.2402,-0.11132 0.082,0 0.207,0.0527 0.375,0.1582 0.1602,0.0703 0.2656,0.13282 0.3164,0.1875 0.059,0.0703 0.088,0.17969 0.088,0.32812 0,0.79688 -0.092,1.50587 -0.2754,2.12696 0.7617,-1.20703 1.4551,-2.10352 2.0801,-2.68946 0.082,-0.0781 0.168,-0.11718 0.2578,-0.11718 0.1172,0 0.2617,0.0781 0.4336,0.23437 0.3047,0.0469 0.4492,0.23243 0.4336,0.55664 -0.047,0.94141 -0.25,1.85157 -0.6094,2.73047 0.1953,-0.23047 0.3477,-0.42969 0.4571,-0.59766 0.051,-0.082 0.1093,-0.12304 0.1757,-0.12304 0.059,0 0.088,0.0312 0.088,0.0937 0,0.0391 -0.018,0.0859 -0.053,0.14062 z"
           inkscape:connector-curvature="0" />
        <path
           id="path4353"
           d="m 1026.377,612.11414 c -0.5195,0.96484 -0.9082,2.09765 -1.166,3.39843 0.1094,-0.1914 0.2422,-0.43554 0.3984,-0.73242 0.02,-0.0547 0.051,-0.082 0.094,-0.082 0.059,0 0.088,0.0371 0.088,0.11133 0,0.0234 -0.01,0.0488 -0.018,0.0762 -0.25,0.57031 -0.4141,1.00977 -0.4922,1.31836 -0.047,0.19531 -0.1094,0.29297 -0.1875,0.29297 -0.078,0 -0.2305,-0.0762 -0.457,-0.22852 -0.1211,-0.0859 -0.1621,-0.23828 -0.1231,-0.45703 0.1641,-0.85156 0.3614,-1.59179 0.5918,-2.2207 -0.7539,1.22656 -1.3867,2.13086 -1.8984,2.71289 -0.1133,0.12891 -0.2363,0.19336 -0.3691,0.19336 -0.1094,0 -0.2383,-0.0449 -0.3868,-0.13477 -0.2695,-0.0469 -0.4043,-0.1875 -0.4043,-0.42187 0,-0.043 0,-0.0898 0.012,-0.14063 0.098,-1.11718 0.3007,-2.04492 0.6093,-2.7832 -0.066,0.0625 -0.166,0.1543 -0.2988,0.27539 -0.051,0.043 -0.09,0.0547 -0.1172,0.0352 -0.031,-0.0234 -0.025,-0.0684 0.018,-0.13477 0.2109,-0.30859 0.3359,-0.51171 0.375,-0.60937 0.1211,-0.30469 0.248,-0.54102 0.3809,-0.70899 0.07,-0.0859 0.1445,-0.1289 0.2226,-0.1289 0.1055,0 0.2598,0.0625 0.4629,0.1875 0.055,0.0352 0.082,0.0703 0.082,0.10546 0,10e-6 -0.043,0.0645 -0.1289,0.19336 -0.1953,0.29688 -0.4023,0.82032 -0.6211,1.57032 -0.2383,0.8125 -0.3593,1.47461 -0.3633,1.98632 0,0.16797 0.035,0.25196 0.1055,0.25196 0.062,0 0.1641,-0.0723 0.3047,-0.2168 0.3008,-0.32031 0.7363,-0.92578 1.3066,-1.81641 0.5039,-0.78515 0.8086,-1.29687 0.9141,-1.53515 0.1758,-0.39844 0.3184,-0.63281 0.4277,-0.70313 0.07,-0.0469 0.1329,-0.0703 0.1875,-0.0703 0.055,0 0.1602,0.041 0.3164,0.12305 0.1563,0.082 0.2344,0.14258 0.2344,0.18164 0,0.0117 -0.014,0.0274 -0.041,0.0469 -0.027,0.0195 -0.047,0.041 -0.059,0.0645 z"
           inkscape:connector-curvature="0" />
        <path
           id="path4355"
           d="m 1031.1114,614.27625 c -0.2344,0.35547 -0.5391,0.87109 -0.9141,1.54687 -0.07,0.17578 -0.1386,0.35156 -0.2051,0.52734 -0.055,0.1211 -0.1269,0.18164 -0.2167,0.18164 -0.07,0 -0.1739,-0.0293 -0.3106,-0.0879 -0.1523,-0.0625 -0.2285,-0.125 -0.2285,-0.1875 0,-0.0273 0.025,-0.0879 0.076,-0.18164 0.2539,-0.51562 0.4804,-1.1582 0.6796,-1.92773 0.2149,-0.80859 0.3067,-1.42578 0.2754,-1.85156 -0.01,-0.17187 -0.047,-0.25781 -0.1171,-0.25782 -0.051,10e-6 -0.127,0.0488 -0.2286,0.14649 -0.9843,0.96094 -1.8359,2.24609 -2.5547,3.85547 -0.09,0.19922 -0.1953,0.29883 -0.3164,0.29883 -0.086,0 -0.2285,-0.0488 -0.4277,-0.14649 -0.078,-0.0352 -0.1191,-0.0684 -0.123,-0.0996 0,-0.0156 0.021,-0.0703 0.064,-0.16406 0.2266,-0.49609 0.4512,-1.125 0.6738,-1.88672 0.2383,-0.82422 0.3731,-1.46679 0.4043,-1.92773 0.01,-0.14062 0,-0.21094 -0.012,-0.21094 0,0 -0.059,0.0527 -0.164,0.1582 -0.1055,0.10547 -0.252,0.24219 -0.4395,0.41016 -0.035,0.0352 -0.074,0.0527 -0.1172,0.0527 -0.055,10e-6 -0.082,-0.0215 -0.082,-0.0644 0,-0.0312 0.02,-0.0664 0.059,-0.10547 0.1679,-0.21484 0.3887,-0.48242 0.6621,-0.80273 0.059,-0.0664 0.1191,-0.0996 0.1816,-0.0996 0.094,0 0.1758,0.0684 0.2461,0.20507 0.3164,0.0938 0.4649,0.23829 0.4453,0.4336 -0.043,0.42969 -0.2636,1.20508 -0.6621,2.32617 0.2617,-0.5039 0.6426,-1.06738 1.1426,-1.69043 0.5,-0.62304 0.8711,-0.99121 1.1133,-1.10449 0.1211,-0.0547 0.207,-0.082 0.2578,-0.082 0.051,0 0.1328,0.043 0.2461,0.1289 0.3242,0.11329 0.4844,0.30079 0.4805,0.5625 0,0.27344 -0.066,0.7129 -0.1993,1.31836 -0.1054,0.5 -0.2031,0.88868 -0.2929,1.16602 0.1133,-0.14453 0.2578,-0.33203 0.4336,-0.5625 0.031,-0.0391 0.062,-0.0586 0.094,-0.0586 0.059,10e-6 0.088,0.0371 0.088,0.11133 0,0.0234 0,0.0469 -0.012,0.0703 z"
           inkscape:connector-curvature="0" />
        <path
           id="path4357"
           d="m 1034.1817,609.8114 c 0.062,0.0469 0.094,0.0996 0.094,0.1582 -10e-5,0.11329 -0.168,0.28907 -0.504,0.52735 -0.2226,0.15235 -0.4375,0.20704 -0.6445,0.16406 -0.1172,-0.0234 -0.2187,-0.0664 -0.3047,-0.12891 -0.027,-0.0234 -0.048,-0.0478 -0.062,-0.0732 -0.014,-0.0254 -0.017,-0.0459 -0.01,-0.0615 0.012,-0.0156 0.035,-0.0195 0.07,-0.0117 0.3594,-0.31249 0.5957,-0.5371 0.709,-0.67383 0.09,-0.10155 0.1543,-0.15233 0.1934,-0.15234 0.07,10e-6 0.2226,0.084 0.457,0.25195 z m -0.8262,2.56641 c -0.094,0.52734 -0.3379,1.4043 -0.7324,2.63086 0.1133,-0.10156 0.2695,-0.28711 0.4688,-0.55664 0.027,-0.0352 0.055,-0.0527 0.082,-0.0527 0.062,0 0.07,0.0547 0.023,0.16406 -0.02,0.043 -0.1836,0.31055 -0.4922,0.80274 -0.2343,0.375 -0.4062,0.70703 -0.5156,0.99609 -0.035,0.0899 -0.1,0.13477 -0.1933,0.13477 -0.094,0 -0.2207,-0.0449 -0.3809,-0.13477 -0.1016,-0.0547 -0.1523,-0.0957 -0.1523,-0.12304 0,-0.0234 0.021,-0.0742 0.064,-0.15235 0.2109,-0.37109 0.4453,-0.99218 0.7031,-1.86328 0.2461,-0.84375 0.3848,-1.4707 0.416,-1.88086 0.012,-0.17578 -0.01,-0.26367 -0.053,-0.26367 -0.035,0 -0.098,0.043 -0.1875,0.12891 l -0.3633,0.33984 c -0.1289,0.11719 -0.1933,0.12305 -0.1933,0.0176 0,-0.0312 0.017,-0.0703 0.053,-0.11719 0.1836,-0.25781 0.3789,-0.50195 0.5859,-0.73242 0.062,-0.0664 0.1231,-0.0996 0.1817,-0.0996 0.062,0 0.1543,0.043 0.2754,0.12891 0.1797,0.0469 0.2793,0.0762 0.2988,0.0879 0.09,0.0547 0.1348,0.15625 0.1348,0.30468 0,0.0703 -0.01,0.1504 -0.024,0.24024 z"
           inkscape:connector-curvature="0" />
        <path
           id="path4359"
           d="m 1037.293,608.88562 c 0.1094,0.0586 0.1641,0.12501 0.1641,0.19922 0,0.0508 -0.037,0.0762 -0.1113,0.0762 -0.016,1e-5 -0.04,-0.003 -0.073,-0.009 -0.033,-0.006 -0.058,-0.009 -0.073,-0.009 -0.1485,10e-6 -0.3281,0.16212 -0.5391,0.48633 -0.1875,0.28907 -0.4473,0.91798 -0.7793,1.88672 -0.031,0.0859 -0.043,0.13672 -0.035,0.15234 0.012,0.0274 0.062,0.043 0.1523,0.0469 0.2305,0.0195 0.5391,0.0117 0.9258,-0.0234 0.1328,-0.0117 0.1992,0.0449 0.1992,0.16992 0,0.0859 -0.051,0.13868 -0.1523,0.15821 -0.082,0.0117 -0.5137,0.0469 -1.295,0.10546 -0.4687,1.3711 -0.7539,2.53126 -0.8554,3.48047 0,0.0508 -0.01,0.0957 -0.01,0.13477 0,0.13281 0.033,0.19922 0.1,0.19922 0.1055,0 0.4239,-0.25586 0.9551,-0.76758 0.062,-0.0625 0.123,-0.0937 0.1816,-0.0937 0.051,0 0.082,0.0215 0.094,0.0644 0.012,0.0469 -0.01,0.10157 -0.053,0.16407 -0.3165,0.41796 -0.627,0.77343 -0.9317,1.0664 -0.1289,0.12109 -0.2363,0.18164 -0.3222,0.18164 -0.086,0 -0.2188,-0.0684 -0.3985,-0.20508 -0.2226,-0.0586 -0.334,-0.17578 -0.334,-0.35156 0,-0.0273 0,-0.0586 0.012,-0.0937 0.1446,-1.00781 0.4278,-2.24804 0.8497,-3.7207 -0.2071,-0.0273 -0.3946,-0.0547 -0.5625,-0.082 -0.074,-0.0117 -0.1114,-0.0586 -0.1114,-0.14063 0,-0.0898 0.039,-0.14452 0.1172,-0.16406 0.078,-0.0195 0.2227,-0.0625 0.4336,-0.12891 0.1289,-0.043 0.2539,-0.10155 0.375,-0.17578 0.418,-1.29296 0.7461,-2.13085 0.9844,-2.51367 0.1367,-0.21874 0.2832,-0.32812 0.4394,-0.32812 0.1485,0 0.3653,0.0781 0.6504,0.23437 z"
           inkscape:connector-curvature="0" />
        <path
           id="path4361"
           d="m 1041.0899,612.3075 c -0.543,2.5039 -1.0527,4.37695 -1.5293,5.61914 -0.9219,2.41405 -1.9805,3.62108 -3.1758,3.62109 -0.6992,-10e-6 -1.4511,-0.38086 -2.2558,-1.14258 -0.07,-0.0664 -0.1055,-0.13672 -0.1055,-0.21094 0,-0.11719 0.055,-0.17578 0.1641,-0.17578 0.055,0 0.1074,0.0215 0.1582,0.0645 0.6367,0.54296 1.205,0.81444 1.705,0.81445 0.918,-10e-6 1.752,-0.76563 2.502,-2.29688 0.5898,-1.19922 1.1035,-2.80859 1.541,-4.82812 0.027,-0.14453 0.072,-0.36523 0.1348,-0.66211 -0.4102,0.66797 -0.8692,1.32617 -1.377,1.97461 -0.4883,0.625 -0.873,1.05469 -1.1543,1.28906 -0.1562,0.12891 -0.2812,0.19336 -0.375,0.19336 -0.074,0 -0.1504,-0.041 -0.2285,-0.12305 -0.082,-0.10546 -0.166,-0.20898 -0.2519,-0.31054 -0.039,-0.0469 -0.059,-0.0899 -0.059,-0.12891 0,-0.004 0,-0.008 0,-0.0117 0.01,-0.0469 0.043,-0.0801 0.1054,-0.0996 0.1875,-0.2539 0.3633,-0.80273 0.5274,-1.64648 0.125,-0.66406 0.2109,-1.29492 0.2578,-1.89258 0.01,-0.14062 -0.01,-0.21093 -0.053,-0.21094 -0.012,10e-6 -0.1036,0.0703 -0.2754,0.21094 -0.2735,0.23047 -0.4219,0.34571 -0.4453,0.3457 -0.055,10e-6 -0.082,-0.0273 -0.082,-0.082 0,-0.0273 0.012,-0.0547 0.035,-0.082 0.066,-0.082 0.2148,-0.2871 0.4453,-0.61523 0.207,-0.29297 0.3457,-0.43945 0.416,-0.43946 0.055,10e-6 0.1289,0.0235 0.2227,0.0703 0.1992,-0.0312 0.3105,-0.0469 0.3339,-0.0469 0.1329,10e-6 0.1993,0.10157 0.1993,0.30469 0,0.33985 -0.098,1.00488 -0.293,1.99512 -0.1953,0.99023 -0.3555,1.62988 -0.4805,1.91894 0.3907,-0.30859 0.8985,-0.91406 1.5235,-1.81641 0.6093,-0.8789 0.9882,-1.54101 1.1367,-1.98632 0.01,-0.26172 0.064,-0.39258 0.1699,-0.39258 0.082,0 0.2344,0.084 0.457,0.25195 0.125,0.0938 0.1602,0.26954 0.1055,0.52735 z"
           inkscape:connector-curvature="0" />
        <path
           id="path4363"
           d="m 1013.7501,625.07507 c -0.1211,0.90626 -0.4141,1.88477 -0.8789,2.93555 -0.4219,0.95703 -0.8907,1.77637 -1.4063,2.45801 -0.5156,0.68164 -0.9297,1.02441 -1.2422,1.02832 -0.3867,0 -0.9375,-0.24024 -1.6523,-0.7207 -0.055,-0.0391 -0.082,-0.084 -0.082,-0.13477 0,-0.125 0.072,-0.1875 0.2168,-0.1875 0.039,0 0.078,0.01 0.1172,0.0293 0.293,0.18359 0.6172,0.28515 0.9727,0.30468 0.4883,0.0234 1.1133,-0.69335 1.875,-2.15039 0.7539,-1.43749 1.1914,-2.72069 1.3125,-3.84961 0.039,-0.36327 -0.1563,-0.6328 -0.586,-0.80859 -0.1054,-0.039 -0.1933,-0.0547 -0.2636,-0.0469 -0.7539,0.10547 -1.4825,0.37891 -2.1856,0.82031 -0.3672,0.875 -0.7383,1.91016 -1.1133,3.10547 -0.4101,1.30469 -0.707,2.43359 -0.8906,3.38672 -0.039,0.19531 -0.1211,0.29296 -0.2461,0.29296 -0.047,0 -0.1015,-0.0137 -0.164,-0.041 -0.2032,-0.10547 -0.336,-0.19141 -0.3985,-0.25781 -0.086,-0.0899 -0.1289,-0.21289 -0.1289,-0.36914 0,-0.32813 0.053,-0.72071 0.1582,-1.17774 0.027,-0.11328 0.068,-0.16992 0.1231,-0.16992 0.051,0 0.1855,0.0898 0.4043,0.26953 0.5312,-1.80859 1.0351,-3.35742 1.5117,-4.64648 -0.8711,0.54688 -1.543,1.07422 -2.0156,1.58203 -0.1094,0.1211 -0.1641,0.26172 -0.1641,0.42187 0,0.14454 0.047,0.3086 0.1406,0.49219 0.094,0.1836 0.1406,0.28907 0.1406,0.31641 0,0.0664 -0.045,0.0996 -0.1347,0.0996 -0.078,0 -0.1367,-0.0215 -0.1758,-0.0645 -0.4883,-0.57421 -0.7324,-0.9707 -0.7324,-1.18945 0,-0.23047 0.1562,-0.48632 0.4687,-0.76758 0.6602,-0.59765 1.6172,-1.25781 2.8711,-1.98047 0.2071,-0.48437 0.3574,-0.72655 0.4512,-0.72656 0.07,1e-5 0.2148,0.10548 0.4336,0.31641 0.2148,-0.0977 0.4297,-0.19531 0.6445,-0.29297 0.1797,-0.0781 0.3262,-0.11718 0.4395,-0.11719 0.1875,1e-5 0.4394,0.10548 0.7558,0.31641 0.016,-0.0156 0.041,-0.0234 0.076,-0.0234 0.2187,10e-6 0.5527,0.20313 1.002,0.60937 0.2421,0.22267 0.3632,0.4629 0.3632,0.72071 0,0.0625 -0.01,0.13477 -0.018,0.21679 z"
           inkscape:connector-curvature="0" />
        <path
           id="path4365"
           d="m 1016.6505,629.69226 c -0.9493,1.21484 -1.6172,1.82227 -2.004,1.82227 -0.1835,0 -0.416,-0.12696 -0.6972,-0.38086 -0.293,-0.13672 -0.4395,-0.32031 -0.4395,-0.55078 0,-0.043 0,-0.0879 0.012,-0.13477 0.07,-0.53515 0.2129,-1.12695 0.4278,-1.77539 -0.1446,-0.0742 -0.2168,-0.14453 -0.2168,-0.21094 0,-0.0547 0.041,-0.082 0.123,-0.082 0.062,0 0.127,0.0176 0.1934,0.0527 0.3476,-0.78125 0.6601,-1.33594 0.9375,-1.66407 0.1797,-0.21874 0.3418,-0.32812 0.4863,-0.32812 0.066,0 0.2305,0.0566 0.4922,0.16992 -0.019,-0.11718 0.014,-0.18554 0.1,-0.20508 0,1e-5 0.096,1e-5 0.2754,0 0.168,1e-5 0.252,0.0293 0.252,0.0879 0,0.0117 -0.01,0.0449 -0.018,0.0996 -0.012,0.0547 -0.018,0.10547 -0.018,0.15235 0,0.14062 0,0.31445 0.01,0.52148 0,0.20703 0.01,0.34571 0.01,0.41602 0,0.48437 -0.1328,0.82226 -0.3984,1.01367 -0.2422,0.17578 -0.5156,0.26367 -0.8203,0.26367 -0.1602,0 -0.4258,-0.043 -0.7969,-0.12891 -0.066,0.1211 -0.1406,0.35743 -0.2227,0.70899 -0.1093,0.44531 -0.1601,0.83984 -0.1523,1.18359 0,0.20313 0.068,0.30469 0.1934,0.30469 0.047,0 0.1074,-0.0117 0.1816,-0.0352 0.4531,-0.16015 1.084,-0.64843 1.8926,-1.46484 0.051,-0.0508 0.1015,-0.0762 0.1523,-0.0762 0.074,0 0.1113,0.0351 0.1113,0.10547 0,0.043 -0.019,0.0879 -0.058,0.13476 z m -0.6856,-2.58984 c 0,-0.15234 -0.033,-0.22851 -0.1,-0.22852 -0.043,10e-6 -0.1055,0.0313 -0.1875,0.0937 -0.3828,0.3086 -0.7188,0.84961 -1.0078,1.62305 0.078,0.0117 0.2148,0.0234 0.4101,0.0352 0.3164,0.0117 0.5528,-0.0605 0.709,-0.21679 0.1172,-0.11719 0.1817,-0.31055 0.1934,-0.58008 -0.012,0.19922 -0.018,-0.043 -0.018,-0.72656 z"
           inkscape:connector-curvature="0" />
        <path
           id="path4367"
           d="m 1019.8907,626.66882 c 0,0.17579 -0.047,0.45704 -0.1406,0.84375 -0.035,0.13282 -0.074,0.21876 -0.1172,0.25782 -0.02,0.0195 -0.086,0.0488 -0.1992,0.0879 -0.1446,0.0547 -0.2344,0.082 -0.2696,0.082 -0.059,0 -0.088,-0.0391 -0.088,-0.11719 0,-0.043 0.01,-0.0996 0.024,-0.16992 0.094,-0.38672 0.1299,-0.65527 0.1084,-0.80567 -0.021,-0.15038 0.022,-0.24511 0.1318,-0.28418 0.1914,-0.0977 0.3145,-0.14647 0.3691,-0.14648 0.1211,1e-5 0.1817,0.084 0.1817,0.25195 z m -0.9375,3.36328 c 0.012,0.46876 -0.2481,0.78907 -0.7793,0.96094 -0.066,0.16406 -0.1289,0.27735 -0.1875,0.33985 -0.09,0.0937 -0.2227,0.14843 -0.3984,0.16406 -0.1133,0.008 -0.2344,0.002 -0.3633,-0.0176 -0.2305,-0.0352 -0.5137,-0.0781 -0.8496,-0.12891 -0.094,-0.0156 -0.1504,-0.0723 -0.17,-0.16992 0.016,-0.10547 0.125,-0.16797 0.3282,-0.1875 0.2773,-0.0195 0.6875,-0.0684 1.2304,-0.14648 0.2032,-0.0469 0.3477,-0.16211 0.4336,-0.34571 0.051,-0.0937 0.076,-0.20898 0.076,-0.3457 0,-0.24609 -0.123,-0.67968 -0.3691,-1.30078 -0.2422,-0.60547 -0.3555,-1.00976 -0.3399,-1.21289 0.031,-0.48828 0.4824,-0.82812 1.3535,-1.01953 0.086,-0.0195 0.1289,0.0117 0.1289,0.0937 0,0.0469 -0.031,0.084 -0.094,0.11133 -0.4219,0.18359 -0.6328,0.41016 -0.6328,0.67968 0,0.10548 0.019,0.23731 0.059,0.39551 0.039,0.15821 0.1562,0.53809 0.3515,1.13965 0.1446,0.4336 0.2188,0.76367 0.2227,0.99023 z"
           inkscape:connector-curvature="0" />
        <path
           id="path4369"
           d="m 1022.5215,624.8114 c 0.062,0.0469 0.094,0.0996 0.094,0.1582 0,0.11329 -0.168,0.28907 -0.5039,0.52735 -0.2227,0.15235 -0.4375,0.20704 -0.6445,0.16406 -0.1172,-0.0234 -0.2188,-0.0664 -0.3047,-0.12891 -0.027,-0.0234 -0.048,-0.0478 -0.062,-0.0732 -0.014,-0.0254 -0.017,-0.0459 -0.01,-0.0615 0.012,-0.0156 0.035,-0.0195 0.07,-0.0117 0.3593,-0.31249 0.5957,-0.5371 0.709,-0.67383 0.09,-0.10155 0.1542,-0.15233 0.1933,-0.15234 0.07,10e-6 0.2227,0.084 0.457,0.25195 z m -0.8261,2.56641 c -0.094,0.52734 -0.3379,1.4043 -0.7324,2.63086 0.1132,-0.10156 0.2695,-0.28711 0.4687,-0.55664 0.027,-0.0352 0.055,-0.0527 0.082,-0.0527 0.062,0 0.07,0.0547 0.024,0.16406 -0.02,0.043 -0.1836,0.31055 -0.4922,0.80274 -0.2344,0.375 -0.4063,0.70703 -0.5156,0.99609 -0.035,0.0899 -0.1,0.13477 -0.1934,0.13477 -0.094,0 -0.2207,-0.0449 -0.3809,-0.13477 -0.1015,-0.0547 -0.1523,-0.0957 -0.1523,-0.12304 0,-0.0234 0.021,-0.0742 0.064,-0.15235 0.211,-0.37109 0.4454,-0.99218 0.7032,-1.86328 0.2461,-0.84375 0.3847,-1.4707 0.416,-1.88086 0.012,-0.17578 -0.01,-0.26367 -0.053,-0.26367 -0.035,0 -0.098,0.043 -0.1875,0.12891 l -0.3633,0.33984 c -0.1289,0.11719 -0.1934,0.12305 -0.1934,0.0176 0,-0.0312 0.018,-0.0703 0.053,-0.11719 0.1836,-0.25781 0.379,-0.50195 0.586,-0.73242 0.062,-0.0664 0.123,-0.0996 0.1816,-0.0996 0.062,0 0.1543,0.043 0.2754,0.12891 0.1797,0.0469 0.2793,0.0762 0.2988,0.0879 0.09,0.0547 0.1348,0.15625 0.1348,0.30468 0,0.0703 -0.01,0.1504 -0.023,0.24024 z"
           inkscape:connector-curvature="0" />
        <path
           id="path4371"
           d="m 1026.4356,627.2196 c -1.1992,6.22266 -2.7578,9.33203 -4.6758,9.32813 -0.6914,-10e-6 -1.4394,-0.38086 -2.2441,-1.14258 -0.074,-0.0703 -0.1113,-0.14258 -0.1113,-0.2168 0,-0.11328 0.053,-0.16992 0.1582,-0.16992 0.055,0 0.1074,0.0215 0.1582,0.0645 0.6367,0.54296 1.207,0.81444 1.7109,0.81445 1.6094,-10e-6 2.9512,-2.36328 4.0254,-7.08984 -0.6524,1.12109 -1.2207,1.92382 -1.7051,2.4082 -0.1953,0.19922 -0.3691,0.29883 -0.5215,0.29883 -0.1406,0 -0.3144,-0.0781 -0.5215,-0.23438 -0.371,-0.18359 -0.5488,-0.48437 -0.5332,-0.90234 0.024,-0.51172 0.2207,-1.14648 0.5918,-1.9043 0.3633,-0.73828 0.7422,-1.29492 1.1368,-1.66992 0.2226,-0.21093 0.4238,-0.3164 0.6035,-0.31641 0.1328,10e-6 0.2793,0.0586 0.4394,0.17578 0.024,0.0195 0.1797,0.15821 0.4688,0.41602 0.059,0.0508 0.088,0.10157 0.088,0.15234 0,0.0703 -0.047,0.10548 -0.1407,0.10547 -0.059,1e-5 -0.125,-0.0176 -0.1992,-0.0527 -0.1172,-0.0625 -0.2324,-0.0937 -0.3457,-0.0937 -0.164,0 -0.3125,0.0586 -0.4453,0.17578 -0.2852,0.25 -0.584,0.65625 -0.8965,1.21875 -0.3398,0.61719 -0.5488,1.17969 -0.6269,1.6875 -0.02,0.13672 -0.029,0.25586 -0.029,0.35742 0,0.28906 0.078,0.43359 0.2343,0.43359 0.1055,0 0.2168,-0.0527 0.334,-0.1582 0.4649,-0.39844 0.9258,-0.97461 1.3828,-1.72851 0.4258,-0.69531 0.7286,-1.33399 0.9082,-1.91602 0.067,-0.20703 0.1,-0.40429 0.1,-0.5918 0,-0.14843 0.035,-0.22265 0.1054,-0.22265 0.074,0 0.2188,0.082 0.4336,0.24609 0.1289,0.0977 0.168,0.27344 0.1172,0.52734 z"
           inkscape:connector-curvature="0" />
        <path
           id="path4373"
           d="m 1031.4278,629.27625 c -0.2344,0.35547 -0.5391,0.87109 -0.9141,1.54687 -0.07,0.17578 -0.1386,0.35156 -0.205,0.52734 -0.055,0.1211 -0.127,0.18164 -0.2168,0.18164 -0.07,0 -0.1739,-0.0293 -0.3106,-0.0879 -0.1523,-0.0625 -0.2285,-0.125 -0.2285,-0.1875 0,-0.0273 0.025,-0.0879 0.076,-0.18164 0.2539,-0.51562 0.4804,-1.1582 0.6797,-1.92773 0.2148,-0.80859 0.3066,-1.42578 0.2753,-1.85156 -0.01,-0.17187 -0.047,-0.25781 -0.1171,-0.25782 -0.051,10e-6 -0.127,0.0488 -0.2286,0.14649 -0.9843,0.96094 -1.8359,2.24609 -2.5546,3.85547 -0.09,0.19922 -0.1954,0.29883 -0.3165,0.29883 -0.086,0 -0.2285,-0.0488 -0.4277,-0.14649 -0.078,-0.0352 -0.1191,-0.0684 -0.123,-0.0996 0,-0.0156 0.022,-0.0703 0.064,-0.16406 0.2266,-0.49609 0.4512,-1.125 0.6738,-1.88672 0.2383,-0.82422 0.3731,-1.46679 0.4043,-1.92773 0.01,-0.14062 0,-0.21094 -0.012,-0.21094 0,0 -0.059,0.0527 -0.164,0.1582 -0.1055,0.10547 -0.252,0.24219 -0.4395,0.41016 -0.035,0.0352 -0.074,0.0527 -0.1172,0.0527 -0.055,10e-6 -0.082,-0.0215 -0.082,-0.0644 0,-0.0312 0.019,-0.0664 0.059,-0.10547 0.168,-0.21484 0.3887,-0.48242 0.6621,-0.80273 0.059,-0.0664 0.1191,-0.0996 0.1816,-0.0996 0.094,0 0.1758,0.0684 0.2461,0.20507 0.3164,0.0938 0.4649,0.23829 0.4453,0.4336 -0.043,0.42969 -0.2636,1.20508 -0.6621,2.32617 0.2618,-0.5039 0.6426,-1.06738 1.1426,-1.69043 0.5,-0.62304 0.8711,-0.99121 1.1133,-1.10449 0.1211,-0.0547 0.207,-0.082 0.2578,-0.082 0.051,0 0.1328,0.043 0.2461,0.1289 0.3242,0.11329 0.4844,0.30079 0.4805,0.5625 0,0.27344 -0.066,0.7129 -0.1993,1.31836 -0.1054,0.5 -0.2031,0.88868 -0.2929,1.16602 0.1133,-0.14453 0.2578,-0.33203 0.4336,-0.5625 0.031,-0.0391 0.062,-0.0586 0.094,-0.0586 0.059,10e-6 0.088,0.0371 0.088,0.11133 0,0.0234 0,0.0469 -0.012,0.0703 z"
           inkscape:connector-curvature="0" />
      </g>
    </g>
  </g>
  <g
     inkscape:transform-center-y="23.551467"
     inkscape:transform-center-x="-0.051283455"
     transform="matrix(-0.60001469,-0.79998898,0.79998898,-0.60001469,185.52507,1262.6976)"
     id="HourHand"
     inkscape:label="#g4370">
    <rect
       style="opacity:0.01000001;fill:currentColor;fill-opacity:0.60392157;stroke:none"
       class="ColorScheme-Text"
       id="rect4673"
       width="18"
       height="64.000008"
       x="33.000023"
       y="91.000023"
       transform="matrix(-0.60001469,0.79998898,-0.79998898,-0.60001469,1122.662,607.61912)" />
    <path
       inkscape:export-ydpi="90"
       inkscape:export-xdpi="90"
       sodipodi:nodetypes="cccccccc"
       inkscape:connector-curvature="0"
       id="rect5450"
       d="m 980.52302,549.88656 -5.95481,-0.74154 2.52119,5.5089 0.0361,-0.0506 34.4809,25.90467 3.4218,-4.69848 -34.48069,-25.90464 z"
       style="fill:currentColor;fill-opacity:1;stroke:none"
       class="ColorScheme-Text" />
    <path
       sodipodi:type="arc"
       style="fill:currentColor;fill-opacity:1;stroke:none"
       class="ColorScheme-Text"
       id="path5455-2"
       sodipodi:cx="1771.3964"
       sodipodi:cy="382.03223"
       sodipodi:rx="6.4994531"
       sodipodi:ry="6.4994531"
       d="m 1777.8958,382.03223 c 0,3.58955 -2.9099,6.49945 -6.4994,6.49945 -3.5896,0 -6.4995,-2.9099 -6.4995,-6.49945 0,-3.58955 2.9099,-6.49946 6.4995,-6.49946 3.5895,0 6.4994,2.90991 6.4994,6.49946 z"
       transform="translate(-753.93395,199.18469)"
       inkscape:export-xdpi="90"
       inkscape:export-ydpi="90" />
  </g>
  <g
     inkscape:label="#g6188"
     style="fill:currentColor;fill-opacity:1"
     class="ColorScheme-Text"
     transform="matrix(-0.50330119,0.86411105,-0.86411105,-0.50330119,1082.352,-486.65826)"
     inkscape:transform-center-y="36.661562"
     inkscape:transform-center-x="-0.046410759"
     id="MinuteHand">
    <rect
       style="opacity:0.01000001;fill:currentColor;fill-opacity:0.60392157;stroke:none"
       class="ColorScheme-Text"
       id="rect4675"
       width="12.000004"
       height="85"
       x="64"
       y="94"
       transform="matrix(-0.50330119,-0.86411105,0.86411105,-0.50330119,966.28244,692.06487)" />
    <path
       transform="matrix(0.8642748,-0.50301995,0.50301995,0.8642748,0,0)"
       style="fill:currentColor;stroke:none"
       class="ColorScheme-Text"
       d="m 588.1651,1012.6153 75.73595,7e-4 0,3 -75.73595,-7e-4 z"
       id="rect5459"
       inkscape:connector-curvature="0"
       sodipodi:nodetypes="ccccc" />
    <path
       transform="matrix(0.56475116,0,0,0.56475116,17.103729,365.50423)"
       d="m 1777.8958,382.03223 c 0,3.58955 -2.9099,6.49945 -6.4994,6.49945 -3.5896,0 -6.4995,-2.9099 -6.4995,-6.49945 0,-3.58955 2.9099,-6.49946 6.4995,-6.49946 3.5895,0 6.4994,2.90991 6.4994,6.49946 z"
       sodipodi:ry="6.4994531"
       sodipodi:rx="6.4994531"
       sodipodi:cy="382.03223"
       sodipodi:cx="1771.3964"
       id="path5457"
       style="fill:currentColor;fill-opacity:1;stroke:none"
       class="ColorScheme-Text"
       sodipodi:type="arc"
       inkscape:export-xdpi="90"
       inkscape:export-ydpi="90" />
  </g>
  <g
     transform="matrix(-0.50061728,0.86566872,-0.86566872,-0.50061728,1138.4953,-489.71587)"
     id="SecondHand"
     inkscape:transform-center-x="-0.014947832"
     inkscape:transform-center-y="37.602839"
     inkscape:label="#g6210">
    <rect
       style="fill:currentColor;fill-opacity:1;stroke:none"
       class="ColorScheme-Highlight"
       id="rect6212"
       width="77.735947"
       height="1.7321701"
       x="589.80505"
       y="1011.1874"
       transform="matrix(0.8660254,-0.5,0.5,0.8660254,0,0)"
       inkscape:export-xdpi="90"
       inkscape:export-ydpi="90" />
    <path
       transform="matrix(0.29783451,0,0,0.29783451,489.8134,467.44934)"
       style="fill:currentColor;fill-opacity:1;stroke:none"
       class="ColorScheme-Highlight"
       d="m 1777.8958,382.03223 c 0,3.58955 -2.9099,6.49945 -6.4994,6.49945 -3.5896,0 -6.4995,-2.9099 -6.4995,-6.49945 0,-3.58955 2.9099,-6.49946 6.4995,-6.49946 3.5895,0 6.4994,2.90991 6.4994,6.49946 z"
       id="path6214"
       inkscape:connector-curvature="0" />
    <rect
       style="opacity:0.01000001;fill:currentColor;fill-opacity:0.60392157;stroke:none"
       class="ColorScheme-Highlight"
       id="rect4677"
       width="8.0000019"
       height="6.999999"
       x="106"
       y="96"
       transform="matrix(-0.50061728,-0.86566873,0.86566873,-0.50061728,985.87226,726.54885)" />
  </g>
  <g
     inkscape:label="#g4374"
     style="opacity:0.1"
     id="HourHandShadow"
     transform="matrix(-0.60001469,-0.79998898,0.79998898,-0.60001469,199.52507,1262.6976)"
     inkscape:transform-center-x="-0.051283455"
     inkscape:transform-center-y="23.551467">
    <path
       style="fill:#232629;fill-opacity:1;stroke:none"
       d="m 980.52302,549.88656 -5.95481,-0.74154 2.52119,5.5089 0.0361,-0.0506 34.4809,25.90467 3.4218,-4.69848 -34.48069,-25.90464 z"
       id="path4376"
       inkscape:connector-curvature="0"
       sodipodi:nodetypes="cccccccc"
       inkscape:export-xdpi="90"
       inkscape:export-ydpi="90" />
    <path
       sodipodi:type="arc"
       style="fill:#232629;fill-opacity:0.00392157;stroke:none"
       id="path4378"
       sodipodi:cx="1771.3964"
       sodipodi:cy="382.03223"
       sodipodi:rx="6.4994531"
       sodipodi:ry="6.4994531"
       d="m 1777.8958,382.03223 c 0,3.58955 -2.9099,6.49945 -6.4994,6.49945 -3.5896,0 -6.4995,-2.9099 -6.4995,-6.49945 0,-3.58955 2.9099,-6.49946 6.4995,-6.49946 3.5895,0 6.4994,2.90991 6.4994,6.49946 z"
       transform="translate(-754,199.1995)"
       inkscape:export-xdpi="90"
       inkscape:export-ydpi="90" />
  </g>
  <g
     style="opacity:0.1;fill:#232629;fill-opacity:1"
     inkscape:transform-center-y="37.602839"
     inkscape:transform-center-x="-0.014947832"
     id="SecondHandShadow"
     transform="matrix(-0.50061728,0.86566872,-0.86566872,-0.50061728,1146.4953,-489.71587)"
     inkscape:label="#g4412">
    <path
       transform="matrix(0.8660254,-0.5,0.5,0.8660254,0,0)"
       style="fill:#232629;stroke:none"
       d="m 591.80505,1011.186 75.73595,0 0,1.7321 -75.73595,0 z"
       id="rect4414"
       inkscape:connector-curvature="0"
       sodipodi:nodetypes="ccccc" />
    <path
       inkscape:export-ydpi="90"
       inkscape:export-xdpi="90"
       sodipodi:type="arc"
       style="fill:#232629;fill-opacity:0.00392157;stroke:none"
       id="path4416"
       sodipodi:cx="1771.3964"
       sodipodi:cy="382.03223"
       sodipodi:rx="6.4994531"
       sodipodi:ry="6.4994531"
       d="m 1777.8958,382.03223 c 0,3.58955 -2.9099,6.49945 -6.4994,6.49945 -3.5896,0 -6.4995,-2.9099 -6.4995,-6.49945 0,-3.58955 2.9099,-6.49946 6.4995,-6.49946 3.5895,0 6.4994,2.90991 6.4994,6.49946 z"
       transform="matrix(0.29783451,0,0,0.29783451,489.8134,467.44934)" />
    <rect
       style="opacity:0.01000001;fill:#232629;fill-opacity:0.60392157;stroke:none"
       id="rect4715"
       width="5.999999"
       height="82"
       x="113"
       y="97"
       transform="matrix(-0.50061728,-0.86566873,0.86566873,-0.50061728,988.87596,731.74286)" />
  </g>
  <path
     sodipodi:type="arc"
     style="opacity:0.001;fill:#232629;fill-opacity:1;stroke:none"
     id="HandCenterScrew"
     sodipodi:cx="-50"
     sodipodi:cy="100"
     sodipodi:rx="5"
     sodipodi:ry="5"
     d="m -45,100 a 5,5 0 1 1 -10,0 5,5 0 1 1 10,0 z"
     inkscape:label="#path4580" />
  <path
     sodipodi:type="arc"
     style="opacity:0.00100002;fill:#232629;fill-opacity:1;stroke:none"
     id="Glass"
     sodipodi:cx="-195"
     sodipodi:cy="100"
     sodipodi:rx="45"
     sodipodi:ry="45"
     d="m -150,100 a 45,45 0 1 1 -90,0 45,45 0 1 1 90,0 z"
     transform="matrix(1.5739209,0,0,1.5739209,111.91458,-57.39209)"
     inkscape:label="#path4584" />
  <g
     id="MinuteHandShadow"
     inkscape:transform-center-x="-0.046410759"
     inkscape:transform-center-y="36.661562"
     transform="matrix(-0.50330119,0.86411105,-0.86411105,-0.50330119,1092.352,-486.65826)"
     style="opacity:0.1;fill:#232629;fill-opacity:1"
     inkscape:label="#g4402">
    <path
       transform="matrix(0.8642748,-0.50301995,0.50301995,0.8642748,0,0)"
       style="fill:#232629;stroke:none"
       d="m 590.1651,1012.6146 73.73595,0 0,3 -73.73595,0 z"
       id="rect4404"
       inkscape:connector-curvature="0"
       sodipodi:nodetypes="ccccc" />
    <path
       transform="matrix(0.62496371,0,0,0.62496371,-89.662081,342.47545)"
       d="m 1777.8958,382.03223 c 0,3.58955 -2.9099,6.49945 -6.4994,6.49945 -3.5896,0 -6.4995,-2.9099 -6.4995,-6.49945 0,-3.58955 2.9099,-6.49946 6.4995,-6.49946 3.5895,0 6.4994,2.90991 6.4994,6.49946 z"
       sodipodi:ry="6.4994531"
       sodipodi:rx="6.4994531"
       sodipodi:cy="382.03223"
       sodipodi:cx="1771.3964"
       id="path4406"
       style="fill:#232629;fill-opacity:0.00392157;stroke:none"
       sodipodi:type="arc"
       inkscape:export-xdpi="90"
       inkscape:export-ydpi="90" />
  </g>
</svg>
