<svg xmlns="http://www.w3.org/2000/svg" xmlns:xlink="http://www.w3.org/1999/xlink" width="208" height="208" version="1">
 <defs id="defs5">
  <linearGradient id="linearGradient4011">
   <stop offset="0" style="stop-color:#232629;stop-opacity:1"/>
   <stop offset=".9" style="stop-color:#232629;stop-opacity:0.52348995"/>
   <stop offset=".96" style="stop-color:#232629;stop-opacity:0.10738255"/>
   <stop offset="1" style="stop-color:#232629;stop-opacity:0"/>
  </linearGradient>
  <radialGradient id="radialGradient4671" cx="1255.872" cy="382.729" r="96.606" fx="1255.872" fy="382.729" gradientTransform="matrix(1.0765432,0,0,1.0765432,-1248,-308.02447)" gradientUnits="userSpaceOnUse" xlink:href="#linearGradient4011"/>
  <style id="current-color-scheme" type="text/css">
   .ColorScheme-Background {color:#2f343f; } .ColorScheme-ButtonBackground { color:#444a58; } .ColorScheme-Highlight { color:#5294e2; } .ColorScheme-Text { color:#d3dae3; } .ColorScheme-NegativeText { color:#f44336; } .ColorScheme-PositiveText { color:#4caf50; } .ColorScheme-NeutralText { color:#ff9800; }
  </style>
 </defs>
 <g id="ClockFace" transform="translate(4,4)">
  <path style="fill:url(#radialGradient4671)" transform="translate(-4,-4)" d="M 104 0 A 104 104 0 0 0 0 104 A 104 104 0 0 0 104 208 A 104 104 0 0 0 208 104 A 104 104 0 0 0 104 0 z M 104 7.3945312 A 96.606003 96.606003 0 0 1 200.60547 104 A 96.606003 96.606003 0 0 1 104 200.60547 A 96.606003 96.606003 0 0 1 7.3945312 104 A 96.606003 96.606003 0 0 1 104 7.3945312 z"/>
  <circle cx="100" cy="100" r="96.606" style="opacity:0.90;fill:currentColor" class="ColorScheme-Background"/>
  <g style="opacity:1;fill:#ffffff">
   <path style="fill:currentColor" class="ColorScheme-Text" transform="translate(-4,-4)" d="M 107.50391 16.474609 C 106.43839 16.474609 105.35241 16.861644 104.5 17.617188 L 103.8418 18.236328 C 103.64806 18.391313 103.62852 18.702752 103.82227 18.896484 C 103.97725 19.090217 104.28673 19.107803 104.48047 18.914062 L 105.13867 18.314453 C 105.81672 17.713895 106.6515 17.423828 107.50391 17.423828 C 108.45318 17.423828 109.40203 17.810863 110.08008 18.566406 C 110.68064 19.225092 110.99023 20.057593 110.99023 20.890625 C 110.99023 21.859274 110.58367 22.788901 109.82812 23.486328 L 103.49219 29.201172 C 103.29846 29.394904 103.29829 29.685338 103.47266 29.898438 C 103.55016 29.995297 103.68665 30.035156 103.82227 30.035156 L 103.90039 30.035156 L 111.45508 30.035156 C 111.70693 30.035156 111.91992 29.822167 111.91992 29.570312 C 111.91992 29.299091 111.70693 29.085937 111.45508 29.085938 L 105.04297 29.085938 L 110.4668 24.183594 C 111.43545 23.292441 111.91992 22.091754 111.91992 20.890625 C 111.91992 19.844486 111.5521 18.780146 110.75781 17.927734 C 109.88602 16.939711 108.68566 16.474609 107.50391 16.474609 z M 99.710938 16.537109 C 99.619105 16.529277 99.525225 16.546255 99.445312 16.589844 L 96.830078 18.179688 C 96.597598 18.295924 96.518687 18.566505 96.654297 18.818359 C 96.731787 18.95397 96.888141 19.050781 97.0625 19.050781 C 97.13999 19.050781 97.236807 19.011386 97.294922 18.972656 L 99.212891 17.849609 L 99.212891 29.570312 C 99.212891 29.822167 99.425886 30.035156 99.677734 30.035156 C 99.948955 30.035156 100.14258 29.822166 100.14258 29.570312 L 100.14258 17.113281 C 100.16194 16.997044 100.14211 16.879909 100.08398 16.763672 C 100.01134 16.630481 99.863991 16.550163 99.710938 16.537109 z M 61.257812 27.326172 C 61.196969 27.331923 61.137261 27.347894 61.083984 27.376953 L 58.46875 28.966797 C 58.236276 29.083034 58.159311 29.353615 58.294922 29.605469 C 58.372412 29.74108 58.526813 29.837891 58.701172 29.837891 C 58.778662 29.837891 58.875472 29.798496 58.933594 29.759766 L 60.851562 28.636719 L 60.851562 40.357422 C 60.851562 40.609276 61.064558 40.822266 61.316406 40.822266 C 61.587627 40.822266 61.78125 40.609276 61.78125 40.357422 L 61.78125 27.900391 C 61.80061 27.784154 61.782739 27.668971 61.724609 27.552734 C 61.637432 27.392905 61.440342 27.308918 61.257812 27.326172 z M 69 27.326172 C 68.939157 27.331923 68.879447 27.347894 68.826172 27.376953 L 66.210938 28.966797 C 65.978463 29.083034 65.899545 29.353615 66.035156 29.605469 C 66.112646 29.74108 66.269001 29.837891 66.443359 29.837891 C 66.520849 29.837891 66.617665 29.798496 66.675781 29.759766 L 68.59375 28.636719 L 68.59375 40.357422 C 68.59375 40.609276 68.806746 40.822266 69.058594 40.822266 C 69.329816 40.822266 69.523437 40.609276 69.523438 40.357422 L 69.523438 27.900391 C 69.542798 27.784154 69.522974 27.668971 69.464844 27.552734 C 69.377666 27.392905 69.182529 27.308918 69 27.326172 z M 145.87891 27.326172 C 145.81806 27.331923 145.75835 27.347894 145.70508 27.376953 L 143.08984 28.966797 C 142.85737 29.08303 142.78042 29.353614 142.91602 29.605469 C 142.99342 29.741082 143.14791 29.837891 143.32227 29.837891 C 143.39967 29.837891 143.49658 29.798476 143.55469 29.759766 L 145.47266 28.636719 L 145.47266 40.357422 C 145.47266 40.609276 145.68566 40.822266 145.9375 40.822266 C 146.20873 40.822266 146.40234 40.609276 146.40234 40.357422 L 146.40234 27.900391 C 146.42164 27.784157 146.40185 27.668971 146.34375 27.552734 C 146.25659 27.392906 146.06144 27.308918 145.87891 27.326172 z M 37.871094 56.849609 C 36.495613 56.849609 35.313501 57.68169 34.480469 58.882812 C 33.64743 60.142057 33.183594 61.807845 33.183594 63.628906 C 33.183594 65.449967 33.64743 67.117551 34.480469 68.357422 C 35.313501 69.577919 36.495613 70.410156 37.871094 70.410156 C 39.246575 70.410156 40.42868 69.577919 41.261719 68.357422 C 42.075383 67.117551 42.580078 65.449967 42.580078 63.628906 C 42.580078 61.807845 42.075383 60.142056 41.261719 58.882812 C 40.42868 57.681689 39.246575 56.849609 37.871094 56.849609 z M 174.05664 56.849609 C 172.99113 56.849609 171.90515 57.236644 171.05273 57.992188 L 170.39453 58.611328 C 170.20079 58.766313 170.1812 59.077752 170.375 59.271484 C 170.53 59.465216 170.83948 59.482811 171.0332 59.289062 L 171.69336 58.689453 C 172.37141 58.088895 173.20422 57.798828 174.05664 57.798828 C 175.0059 57.798828 175.95476 58.185863 176.63281 58.941406 C 177.23338 59.600092 177.54297 60.432592 177.54297 61.265625 C 177.54297 62.234273 177.13641 63.1639 176.38086 63.861328 L 170.04688 69.576172 C 169.85315 69.769904 169.85291 70.060338 170.02734 70.273438 C 170.10474 70.370307 170.23939 70.410156 170.375 70.410156 L 170.45312 70.410156 L 178.00781 70.410156 C 178.25965 70.410156 178.47266 70.197167 178.47266 69.945312 C 178.47266 69.674092 178.25965 69.460938 178.00781 69.460938 L 171.5957 69.460938 L 177.01953 64.558594 C 177.98818 63.667441 178.47266 62.466755 178.47266 61.265625 C 178.47266 60.219488 178.10484 59.155147 177.31055 58.302734 C 176.43878 57.314711 175.23839 56.849609 174.05664 56.849609 z M 29.1875 56.912109 C 29.095668 56.904277 29.001787 56.921255 28.921875 56.964844 L 26.306641 58.554688 C 26.074167 58.670924 25.997203 58.941505 26.132812 59.193359 C 26.210313 59.32897 26.36471 59.425781 26.539062 59.425781 C 26.616553 59.425781 26.713363 59.386386 26.771484 59.347656 L 28.689453 58.224609 L 28.689453 69.945312 C 28.689453 70.197166 28.90245 70.410156 29.154297 70.410156 C 29.425519 70.410156 29.619141 70.197167 29.619141 69.945312 L 29.619141 57.488281 C 29.638501 57.372044 29.62063 57.254909 29.5625 57.138672 C 29.489852 57.005481 29.340554 56.925163 29.1875 56.912109 z M 37.871094 57.798828 C 38.839743 57.798828 39.749996 58.360269 40.466797 59.425781 C 41.164219 60.471919 41.630859 61.962829 41.630859 63.628906 C 41.630859 65.294982 41.164219 66.787846 40.466797 67.833984 C 39.749996 68.860748 38.839743 69.460938 37.871094 69.460938 C 36.902445 69.460938 35.972819 68.860748 35.275391 67.833984 C 34.577964 66.787846 34.132812 65.294982 34.132812 63.628906 C 34.132812 61.962829 34.577964 60.471919 35.275391 59.425781 C 35.972819 58.360269 36.902445 57.798828 37.871094 57.798828 z M 23.474609 97.224609 C 21.014249 97.224609 19 99.21932 19 101.67969 C 19 104.1788 21.014248 106.1543 23.474609 106.1543 C 24.830716 106.1543 26.032039 105.59396 26.845703 104.66406 C 26.671345 105.63271 26.341902 106.56134 25.876953 107.375 C 25.043916 108.78923 23.804956 109.75845 21.925781 109.83594 C 21.654559 109.85534 21.460937 110.06862 21.460938 110.33984 C 21.460938 110.59169 21.674091 110.78516 21.945312 110.78516 L 21.964844 110.78516 C 24.192732 110.70766 25.78103 109.44779 26.710938 107.83984 C 27.621465 106.23188 28.007812 104.23723 28.007812 102.43555 C 28.007812 102.02871 27.98818 101.64152 27.96875 101.27344 C 27.9494 101.23466 27.951071 101.21453 27.931641 101.17578 C 27.679808 98.947894 25.799366 97.224609 23.474609 97.224609 z M 182.18164 97.224609 C 181.91043 97.224609 181.69727 97.437763 181.69727 97.708984 C 181.69727 97.980205 181.91043 98.193359 182.18164 98.193359 L 187.37305 98.193359 L 184.00195 101.66016 C 183.80823 101.85389 183.80823 102.1637 184.00195 102.35742 L 184.02148 102.35742 C 184.11838 102.47366 184.25322 102.55078 184.4082 102.55078 C 185.3381 102.55078 186.26742 102.90039 186.96484 103.61719 C 187.68163 104.31461 188.03125 105.24392 188.03125 106.17383 C 188.03125 107.10373 187.68163 108.0332 186.96484 108.75 C 186.24804 109.44743 185.31857 109.79688 184.38867 109.79688 C 183.45877 109.79688 182.54882 109.44743 181.83203 108.75 C 181.6383 108.55627 181.32866 108.55627 181.1543 108.75 C 180.96058 108.94373 180.96058 109.25534 181.1543 109.42969 C 182.04546 110.34022 183.22629 110.78516 184.38867 110.78516 C 185.57042 110.78516 186.75337 110.32085 187.64453 109.42969 C 188.55506 108.53854 189 107.35558 189 106.17383 C 189 104.99208 188.55521 103.81108 187.66406 102.91992 C 187.00537 102.26124 186.19032 101.85405 185.33789 101.67969 L 188.8457 98.076172 C 188.8843 98.037392 188.92191 97.97999 188.94141 97.921875 C 188.98021 97.863755 189 97.786477 189 97.708984 C 189 97.437763 188.78685 97.224609 188.51562 97.224609 L 182.18164 97.224609 z M 23.474609 98.173828 C 25.450655 98.173828 27.019531 99.74239 27.019531 101.67969 C 27.019531 103.65573 25.450655 105.20508 23.474609 105.20508 C 21.537318 105.20508 19.949219 103.65573 19.949219 101.67969 C 19.949219 99.74239 21.537318 98.173828 23.474609 98.173828 z M 34.322266 137.59961 C 32.753059 137.59961 31.513672 138.85842 31.513672 140.4082 C 31.513672 141.35748 31.958664 142.17027 32.636719 142.69336 C 31.048137 143.35206 29.925781 144.94065 29.925781 146.76172 C 29.925781 149.20271 31.900646 151.16016 34.322266 151.16016 C 36.763259 151.16016 38.720703 149.20271 38.720703 146.76172 C 38.720703 144.94065 37.596235 143.35206 35.988281 142.69336 C 36.685708 142.17027 37.150391 141.35748 37.150391 140.4082 C 37.150391 138.85842 35.872106 137.59961 34.322266 137.59961 z M 177.37891 137.62891 C 177.26267 137.63857 177.15163 137.6963 177.06445 137.80273 L 177.04492 137.82227 L 169.19727 147.58594 C 169.02291 147.77968 169.04278 148.08911 169.25586 148.24414 C 169.33326 148.32164 169.45001 148.3418 169.54688 148.3418 L 169.58594 148.3418 L 169.60547 148.3418 L 176.94727 148.3418 L 176.94727 150.66602 C 176.94727 150.91782 177.16025 151.13086 177.41211 151.13086 C 177.68332 151.13086 177.89648 150.91782 177.89648 150.66602 L 177.89648 148.3418 L 178.80664 148.3418 C 179.07785 148.3418 179.29102 148.12882 179.29102 147.87695 C 179.29102 147.62514 179.07785 147.41211 178.80664 147.41211 L 177.89648 147.41211 L 177.89648 138.11328 L 177.89648 138.05469 C 177.89648 138.03559 177.87695 138.01722 177.87695 137.97852 C 177.83815 137.90102 177.80026 137.80422 177.72266 137.74609 C 177.61611 137.6589 177.49514 137.61924 177.37891 137.62891 z M 34.322266 138.5293 C 35.368404 138.5293 36.220703 139.36209 36.220703 140.4082 C 36.220703 141.45438 35.368404 142.30675 34.322266 142.32617 C 33.276127 142.30707 32.443359 141.45438 32.443359 140.4082 C 32.443359 139.36209 33.276127 138.5293 34.322266 138.5293 z M 176.94727 139.46875 L 176.94727 147.41211 L 170.53516 147.41211 L 176.94727 139.46875 z M 34.322266 143.29492 C 36.259564 143.29492 37.791016 144.86317 37.791016 146.76172 C 37.791016 148.67963 36.259564 150.23047 34.322266 150.23047 C 32.404342 150.23047 30.855469 148.67963 30.855469 146.76172 C 30.855469 144.86317 32.404342 143.29492 34.322266 143.29492 z M 141.82422 167.15625 C 141.708 167.15625 141.59312 167.19406 141.51562 167.27148 C 141.39941 167.34888 141.32227 167.46613 141.32227 167.62109 L 140.66211 173.08398 C 140.66211 173.12278 140.64258 173.16019 140.64258 173.17969 C 140.64258 173.23769 140.64271 173.29719 140.66211 173.33594 C 140.66211 173.35514 140.66224 173.37533 140.68164 173.39453 L 140.68164 173.41211 C 140.70104 173.47011 140.7407 173.52953 140.79883 173.56836 C 140.97319 173.76203 141.28282 173.76203 141.47656 173.56836 C 142.19336 172.85153 143.10346 172.50195 144.05273 172.50195 C 144.98263 172.50195 145.91195 172.85143 146.60938 173.54883 C 147.30682 174.24631 147.65625 175.17572 147.65625 176.125 C 147.65625 177.05492 147.30862 177.96481 146.5918 178.68164 C 145.87501 179.39847 144.96311 179.74805 144.0332 179.74805 C 143.1033 179.74805 142.19336 179.39865 141.47656 178.70117 C 141.28282 178.50743 140.97303 178.50743 140.7793 178.70117 C 140.58556 178.87556 140.58556 179.18517 140.7793 179.37891 C 141.67044 180.27007 142.85144 180.7168 144.0332 180.7168 C 145.19556 180.7168 146.3979 180.25259 147.28906 179.38086 C 148.19959 178.48966 148.625 177.28737 148.625 176.125 C 148.625 174.92386 148.19959 173.76225 147.28906 172.87109 C 146.3979 171.96053 145.23448 171.5332 144.05273 171.5332 C 143.23908 171.5332 142.44547 171.74748 141.74805 172.1543 L 142.23242 168.125 L 148.14062 168.125 C 148.41184 168.125 148.625 167.93126 148.625 167.64062 C 148.625 167.36939 148.41184 167.15625 148.14062 167.15625 L 141.82422 167.15625 z M 67.478516 167.18945 C 67.4543 167.1916 67.428512 167.19627 67.404297 167.20117 L 60.236328 167.20117 C 59.984481 167.20117 59.771484 167.41415 59.771484 167.66602 C 59.771484 167.91788 59.984481 168.13086 60.236328 168.13086 L 66.785156 168.13086 L 61.767578 180.02539 C 61.690088 180.25791 61.806552 180.54964 62.039062 180.64648 C 62.116552 180.68528 62.154928 180.68359 62.232422 180.68359 C 62.40678 180.68359 62.580714 180.56895 62.658203 180.39453 L 67.908203 167.91797 C 67.966323 167.84057 67.986328 167.76286 67.986328 167.66602 C 67.986328 167.60802 67.966696 167.56789 67.947266 167.50977 C 67.908486 167.39355 67.811548 167.27883 67.695312 167.2207 C 67.62266 167.1916 67.551162 167.183 67.478516 167.18945 z M 105.81445 177.98438 C 103.56718 178.06178 101.99826 179.28301 101.06836 180.92969 C 100.13846 182.53767 99.769368 184.51275 99.75 186.31445 C 99.75 186.62438 99.750353 186.91451 99.789062 187.20508 C 99.866552 189.60731 101.84205 191.52539 104.26367 191.52539 C 106.76278 191.52539 108.75781 189.53049 108.75781 187.05078 C 108.75781 184.59037 106.76278 182.57617 104.26367 182.57617 C 102.92693 182.57617 101.72577 183.17561 100.91211 184.10547 C 101.10584 183.13684 101.41591 182.18884 101.88086 181.39453 C 102.73327 179.9803 103.93543 179.01107 105.83398 178.93359 C 106.08583 178.91439 106.29883 178.7009 106.29883 178.42969 C 106.27943 178.17781 106.0663 177.96502 105.81445 177.98438 z M 104.26367 183.52539 C 106.23971 183.52539 107.82813 185.11346 107.82812 187.05078 C 107.82812 188.98804 106.23971 190.57617 104.26367 190.57617 C 102.48135 190.57617 100.99029 189.23979 100.75781 187.51562 C 100.77716 187.47682 100.77734 187.4388 100.77734 187.38086 C 100.75799 187.30326 100.73828 187.22574 100.73828 187.12891 L 100.73828 187.05078 C 100.73828 185.11346 102.32638 183.52539 104.26367 183.52539 z"/>
  </g>
 </g>
 <path id="HourHand" style="fill:currentColor" class="ColorScheme-Text" d="M 103.56641 98.015625 A 6 6 0 0 0 100.40039 99.199219 A 6 6 0 0 0 99.199219 107.59961 A 6 6 0 0 0 101.0332 109.20898 L 101 150.75977 L 101 150.79102 L 104.04297 156 L 107 150.67773 L 106.9375 150.67773 L 106.9707 109.20508 A 6 6 0 0 0 107.59961 108.80078 A 6 6 0 0 0 108.80078 100.40039 A 6 6 0 0 0 103.56641 98.015625 z"/>
 <path id="MinuteHand" style="opacity:0.6;fill:currentColor" class="ColorScheme-Text" d="M 104 101 A 3 3 0 0 0 101 104 A 3 3 0 0 0 102.52539 106.60352 L 102.5 166.5 L 103.9707 169 L 105.47461 166.5 L 105.5 106.58984 A 3 3 0 0 0 107 104 A 3 3 0 0 0 104 101 z"/>
 <path id="SecondHand" style="fill:currentColor" class="ColorScheme-Highlight" d="m 104.05452,102.00069 c -0.70915,-0.0183 -1.40551,0.33052 -1.78562,0.96681 -0.55287,0.92548 -0.22566,2.10935 0.7304,2.64457 0.0352,0.0198 0.071,0.0373 0.10693,0.0547 l -0.0545,79.33223 1.78966,0.002 0.0544,-79.33418 c 0.33793,-0.16354 0.63203,-0.42146 0.83531,-0.76173 0.55289,-0.9255 0.22566,-2.10936 -0.73039,-2.64457 -0.29877,-0.16725 -0.62394,-0.25144 -0.94628,-0.25977 z"/>
 <circle style="fill:#ff0000" id="hint-hourhand-rotation-center-offset" cx="104" cy="104" r="1"/>
 <circle style="fill:#ff0000" id="hint-minutehand-rotation-center-offset" cx="104" cy="104" r="1"/>
 <circle style="fill:#ff0000" id="hint-secondhand-rotation-center-offset" cx="104" cy="104" r="1"/>
</svg>
