<svg xmlns="http://www.w3.org/2000/svg" id="svg2" width="560" height="560" version="1">
 <g id="black-notes">
  <rect id="rect4166" width="560" height="560" x="0" y="0" style="opacity:0.00100002;fill:#000000;fill-opacity:1;stroke:none;stroke-width:1;stroke-linecap:round;stroke-linejoin:round;stroke-miterlimit:4;stroke-dasharray:none;stroke-opacity:1"/>
  <g style="opacity:0.8" id="g4442">
   <path style="opacity:0.1;fill:#000000;fill-opacity:1;stroke:none;stroke-width:1;stroke-linecap:round;stroke-linejoin:round;stroke-miterlimit:4;stroke-dasharray:none;stroke-opacity:1" id="path4382" d="M 39.076172,19 C 27.953557,19 19,27.953557 19,39.076172 L 19,520.92383 C 19,532.04644 27.953557,541 39.076172,541 l 481.847658,0 C 532.04644,541 541,532.04644 541,520.92383 L 541,39.076172 C 541,27.953557 532.04644,19 520.92383,19 L 39.076172,19 Z M 40,20 520,20 c 11.08,0 20,8.92 20,20 l 0,480 c 0,11.08 -8.92,20 -20,20 L 40,540 C 28.92,540 20,531.08 20,520 L 20,40 C 20,28.92 28.92,20 40,20 Z"/>
   <path style="opacity:0.1;fill:#000000;fill-opacity:1;stroke:none;stroke-width:1;stroke-linecap:round;stroke-linejoin:round;stroke-miterlimit:4;stroke-dasharray:none;stroke-opacity:1" id="path4388" d="M 38.154297,18 C 26.989066,18 18,26.989066 18,38.154297 L 18,521.8457 C 18,533.01093 26.989066,542 38.154297,542 L 521.8457,542 C 533.01093,542 542,533.01093 542,521.8457 L 542,38.154297 C 542,26.989066 533.01093,18 521.8457,18 L 38.154297,18 Z M 40,20 520,20 c 11.08,0 20,8.92 20,20 l 0,480 c 0,11.08 -8.92,20 -20,20 L 40,540 C 28.92,540 20,531.08 20,520 L 20,40 C 20,28.92 28.92,20 40,20 Z"/>
   <path style="opacity:0.1;fill:#000000;fill-opacity:1;stroke:none;stroke-width:1;stroke-linecap:round;stroke-linejoin:round;stroke-miterlimit:4;stroke-dasharray:none;stroke-opacity:1" id="path4393" d="M 37.230469,17 C 26.022623,17 17,26.022623 17,37.230469 L 17,522.76953 C 17,533.97738 26.022623,543 37.230469,543 l 485.539061,0 C 533.97738,543 543,533.97738 543,522.76953 L 543,37.230469 C 543,26.022623 533.97738,17 522.76953,17 L 37.230469,17 Z M 40,20 520,20 c 11.08,0 20,8.92 20,20 l 0,480 c 0,11.08 -8.92,20 -20,20 L 40,540 C 28.92,540 20,531.08 20,520 L 20,40 C 20,28.92 28.92,20 40,20 Z"/>
   <path style="opacity:0.1;fill:#000000;fill-opacity:1;stroke:none;stroke-width:1;stroke-linecap:round;stroke-linejoin:round;stroke-miterlimit:4;stroke-dasharray:none;stroke-opacity:1" id="path4398" d="M 36.308594,16 C 25.058133,16 16,25.058133 16,36.308594 L 16,523.69141 C 16,534.94187 25.058133,544 36.308594,544 l 487.382816,0 C 534.94187,544 544,534.94187 544,523.69141 L 544,36.308594 C 544,25.058133 534.94187,16 523.69141,16 L 36.308594,16 Z M 40,20 520,20 c 11.08,0 20,8.92 20,20 l 0,480 c 0,11.08 -8.92,20 -20,20 L 40,540 C 28.92,540 20,531.08 20,520 L 20,40 C 20,28.92 28.92,20 40,20 Z"/>
  </g>
  <path id="rect4347" d="m 40,20.000002 480,0 c 11.08,0 20,8.92 20,20 L 540,520 c 0,11.08 -8.92,20 -20,20 L 40,540 C 28.92,540 20,531.08 20,520 L 20,40.000001 c 0,-11.08 8.92,-20 20,-20 z" style="opacity:0.95;fill:#383c4a;fill-opacity:1;stroke:none;stroke-width:1;stroke-linecap:round;stroke-linejoin:round;stroke-miterlimit:4;stroke-dasharray:none;stroke-opacity:1"/>
 </g>
 <g id="blue-notes" transform="translate(560,0)">
  <rect style="opacity:0.00100002;fill:#000000;fill-opacity:1;stroke:none;stroke-width:1;stroke-linecap:round;stroke-linejoin:round;stroke-miterlimit:4;stroke-dasharray:none;stroke-opacity:1" id="rect4482" width="560" height="560" x="0" y="0"/>
  <g id="g4484" style="opacity:0.8">
   <path id="path4486" d="M 39.076172,19 C 27.953557,19 19,27.953557 19,39.076172 L 19,520.92383 C 19,532.04644 27.953557,541 39.076172,541 l 481.847658,0 C 532.04644,541 541,532.04644 541,520.92383 L 541,39.076172 C 541,27.953557 532.04644,19 520.92383,19 L 39.076172,19 Z M 40,20 520,20 c 11.08,0 20,8.92 20,20 l 0,480 c 0,11.08 -8.92,20 -20,20 L 40,540 C 28.92,540 20,531.08 20,520 L 20,40 C 20,28.92 28.92,20 40,20 Z" style="opacity:0.1;fill:#000000;fill-opacity:1;stroke:none;stroke-width:1;stroke-linecap:round;stroke-linejoin:round;stroke-miterlimit:4;stroke-dasharray:none;stroke-opacity:1"/>
   <path id="path4488" d="M 38.154297,18 C 26.989066,18 18,26.989066 18,38.154297 L 18,521.8457 C 18,533.01093 26.989066,542 38.154297,542 L 521.8457,542 C 533.01093,542 542,533.01093 542,521.8457 L 542,38.154297 C 542,26.989066 533.01093,18 521.8457,18 L 38.154297,18 Z M 40,20 520,20 c 11.08,0 20,8.92 20,20 l 0,480 c 0,11.08 -8.92,20 -20,20 L 40,540 C 28.92,540 20,531.08 20,520 L 20,40 C 20,28.92 28.92,20 40,20 Z" style="opacity:0.1;fill:#000000;fill-opacity:1;stroke:none;stroke-width:1;stroke-linecap:round;stroke-linejoin:round;stroke-miterlimit:4;stroke-dasharray:none;stroke-opacity:1"/>
   <path id="path4490" d="M 37.230469,17 C 26.022623,17 17,26.022623 17,37.230469 L 17,522.76953 C 17,533.97738 26.022623,543 37.230469,543 l 485.539061,0 C 533.97738,543 543,533.97738 543,522.76953 L 543,37.230469 C 543,26.022623 533.97738,17 522.76953,17 L 37.230469,17 Z M 40,20 520,20 c 11.08,0 20,8.92 20,20 l 0,480 c 0,11.08 -8.92,20 -20,20 L 40,540 C 28.92,540 20,531.08 20,520 L 20,40 C 20,28.92 28.92,20 40,20 Z" style="opacity:0.1;fill:#000000;fill-opacity:1;stroke:none;stroke-width:1;stroke-linecap:round;stroke-linejoin:round;stroke-miterlimit:4;stroke-dasharray:none;stroke-opacity:1"/>
   <path id="path4492" d="M 36.308594,16 C 25.058133,16 16,25.058133 16,36.308594 L 16,523.69141 C 16,534.94187 25.058133,544 36.308594,544 l 487.382816,0 C 534.94187,544 544,534.94187 544,523.69141 L 544,36.308594 C 544,25.058133 534.94187,16 523.69141,16 L 36.308594,16 Z M 40,20 520,20 c 11.08,0 20,8.92 20,20 l 0,480 c 0,11.08 -8.92,20 -20,20 L 40,540 C 28.92,540 20,531.08 20,520 L 20,40 C 20,28.92 28.92,20 40,20 Z" style="opacity:0.1;fill:#000000;fill-opacity:1;stroke:none;stroke-width:1;stroke-linecap:round;stroke-linejoin:round;stroke-miterlimit:4;stroke-dasharray:none;stroke-opacity:1"/>
  </g>
  <path style="opacity:0.95;fill:#5294e2;fill-opacity:1;stroke:none;stroke-width:1;stroke-linecap:round;stroke-linejoin:round;stroke-miterlimit:4;stroke-dasharray:none;stroke-opacity:1" id="path4494" d="m 40,20.000002 480,0 c 11.08,0 20,8.92 20,20 L 540,520 c 0,11.08 -8.92,20 -20,20 L 40,540 C 28.92,540 20,531.08 20,520 L 20,40.000001 c 0,-11.08 8.92,-20 20,-20 z"/>
 </g>
 <g id="green-notes" transform="translate(1120,0)">
  <rect style="opacity:0.00100002;fill:#000000;fill-opacity:1;stroke:none;stroke-width:1;stroke-linecap:round;stroke-linejoin:round;stroke-miterlimit:4;stroke-dasharray:none;stroke-opacity:1" id="rect4500" width="560" height="560" x="0" y="0"/>
  <g id="g4502" style="opacity:0.8">
   <path id="path4504" d="M 39.076172,19 C 27.953557,19 19,27.953557 19,39.076172 L 19,520.92383 C 19,532.04644 27.953557,541 39.076172,541 l 481.847658,0 C 532.04644,541 541,532.04644 541,520.92383 L 541,39.076172 C 541,27.953557 532.04644,19 520.92383,19 L 39.076172,19 Z M 40,20 520,20 c 11.08,0 20,8.92 20,20 l 0,480 c 0,11.08 -8.92,20 -20,20 L 40,540 C 28.92,540 20,531.08 20,520 L 20,40 C 20,28.92 28.92,20 40,20 Z" style="opacity:0.1;fill:#000000;fill-opacity:1;stroke:none;stroke-width:1;stroke-linecap:round;stroke-linejoin:round;stroke-miterlimit:4;stroke-dasharray:none;stroke-opacity:1"/>
   <path id="path4506" d="M 38.154297,18 C 26.989066,18 18,26.989066 18,38.154297 L 18,521.8457 C 18,533.01093 26.989066,542 38.154297,542 L 521.8457,542 C 533.01093,542 542,533.01093 542,521.8457 L 542,38.154297 C 542,26.989066 533.01093,18 521.8457,18 L 38.154297,18 Z M 40,20 520,20 c 11.08,0 20,8.92 20,20 l 0,480 c 0,11.08 -8.92,20 -20,20 L 40,540 C 28.92,540 20,531.08 20,520 L 20,40 C 20,28.92 28.92,20 40,20 Z" style="opacity:0.1;fill:#000000;fill-opacity:1;stroke:none;stroke-width:1;stroke-linecap:round;stroke-linejoin:round;stroke-miterlimit:4;stroke-dasharray:none;stroke-opacity:1"/>
   <path id="path4508" d="M 37.230469,17 C 26.022623,17 17,26.022623 17,37.230469 L 17,522.76953 C 17,533.97738 26.022623,543 37.230469,543 l 485.539061,0 C 533.97738,543 543,533.97738 543,522.76953 L 543,37.230469 C 543,26.022623 533.97738,17 522.76953,17 L 37.230469,17 Z M 40,20 520,20 c 11.08,0 20,8.92 20,20 l 0,480 c 0,11.08 -8.92,20 -20,20 L 40,540 C 28.92,540 20,531.08 20,520 L 20,40 C 20,28.92 28.92,20 40,20 Z" style="opacity:0.1;fill:#000000;fill-opacity:1;stroke:none;stroke-width:1;stroke-linecap:round;stroke-linejoin:round;stroke-miterlimit:4;stroke-dasharray:none;stroke-opacity:1"/>
   <path id="path4510" d="M 36.308594,16 C 25.058133,16 16,25.058133 16,36.308594 L 16,523.69141 C 16,534.94187 25.058133,544 36.308594,544 l 487.382816,0 C 534.94187,544 544,534.94187 544,523.69141 L 544,36.308594 C 544,25.058133 534.94187,16 523.69141,16 L 36.308594,16 Z M 40,20 520,20 c 11.08,0 20,8.92 20,20 l 0,480 c 0,11.08 -8.92,20 -20,20 L 40,540 C 28.92,540 20,531.08 20,520 L 20,40 C 20,28.92 28.92,20 40,20 Z" style="opacity:0.1;fill:#000000;fill-opacity:1;stroke:none;stroke-width:1;stroke-linecap:round;stroke-linejoin:round;stroke-miterlimit:4;stroke-dasharray:none;stroke-opacity:1"/>
  </g>
  <path style="opacity:0.95;fill:#87b158;fill-opacity:1;stroke:none;stroke-width:1;stroke-linecap:round;stroke-linejoin:round;stroke-miterlimit:4;stroke-dasharray:none;stroke-opacity:1" id="path4512" d="m 40,20.000002 480,0 c 11.08,0 20,8.92 20,20 L 540,520 c 0,11.08 -8.92,20 -20,20 L 40,540 C 28.92,540 20,531.08 20,520 L 20,40.000001 c 0,-11.08 8.92,-20 20,-20 z"/>
 </g>
 <g id="yellow-notes" transform="translate(1680,0)">
  <rect id="rect4518" width="560" height="560" x="0" y="0" style="opacity:0.00100002;fill:#000000;fill-opacity:1;stroke:none;stroke-width:1;stroke-linecap:round;stroke-linejoin:round;stroke-miterlimit:4;stroke-dasharray:none;stroke-opacity:1"/>
  <g style="opacity:0.8" id="g4520">
   <path style="opacity:0.1;fill:#000000;fill-opacity:1;stroke:none;stroke-width:1;stroke-linecap:round;stroke-linejoin:round;stroke-miterlimit:4;stroke-dasharray:none;stroke-opacity:1" id="path4522" d="M 39.076172,19 C 27.953557,19 19,27.953557 19,39.076172 L 19,520.92383 C 19,532.04644 27.953557,541 39.076172,541 l 481.847658,0 C 532.04644,541 541,532.04644 541,520.92383 L 541,39.076172 C 541,27.953557 532.04644,19 520.92383,19 L 39.076172,19 Z M 40,20 520,20 c 11.08,0 20,8.92 20,20 l 0,480 c 0,11.08 -8.92,20 -20,20 L 40,540 C 28.92,540 20,531.08 20,520 L 20,40 C 20,28.92 28.92,20 40,20 Z"/>
   <path style="opacity:0.1;fill:#000000;fill-opacity:1;stroke:none;stroke-width:1;stroke-linecap:round;stroke-linejoin:round;stroke-miterlimit:4;stroke-dasharray:none;stroke-opacity:1" id="path4524" d="M 38.154297,18 C 26.989066,18 18,26.989066 18,38.154297 L 18,521.8457 C 18,533.01093 26.989066,542 38.154297,542 L 521.8457,542 C 533.01093,542 542,533.01093 542,521.8457 L 542,38.154297 C 542,26.989066 533.01093,18 521.8457,18 L 38.154297,18 Z M 40,20 520,20 c 11.08,0 20,8.92 20,20 l 0,480 c 0,11.08 -8.92,20 -20,20 L 40,540 C 28.92,540 20,531.08 20,520 L 20,40 C 20,28.92 28.92,20 40,20 Z"/>
   <path style="opacity:0.1;fill:#000000;fill-opacity:1;stroke:none;stroke-width:1;stroke-linecap:round;stroke-linejoin:round;stroke-miterlimit:4;stroke-dasharray:none;stroke-opacity:1" id="path4526" d="M 37.230469,17 C 26.022623,17 17,26.022623 17,37.230469 L 17,522.76953 C 17,533.97738 26.022623,543 37.230469,543 l 485.539061,0 C 533.97738,543 543,533.97738 543,522.76953 L 543,37.230469 C 543,26.022623 533.97738,17 522.76953,17 L 37.230469,17 Z M 40,20 520,20 c 11.08,0 20,8.92 20,20 l 0,480 c 0,11.08 -8.92,20 -20,20 L 40,540 C 28.92,540 20,531.08 20,520 L 20,40 C 20,28.92 28.92,20 40,20 Z"/>
   <path style="opacity:0.1;fill:#000000;fill-opacity:1;stroke:none;stroke-width:1;stroke-linecap:round;stroke-linejoin:round;stroke-miterlimit:4;stroke-dasharray:none;stroke-opacity:1" id="path4528" d="M 36.308594,16 C 25.058133,16 16,25.058133 16,36.308594 L 16,523.69141 C 16,534.94187 25.058133,544 36.308594,544 l 487.382816,0 C 534.94187,544 544,534.94187 544,523.69141 L 544,36.308594 C 544,25.058133 534.94187,16 523.69141,16 L 36.308594,16 Z M 40,20 520,20 c 11.08,0 20,8.92 20,20 l 0,480 c 0,11.08 -8.92,20 -20,20 L 40,540 C 28.92,540 20,531.08 20,520 L 20,40 C 20,28.92 28.92,20 40,20 Z"/>
  </g>
  <path id="path4530" d="m 40,20.000002 480,0 c 11.08,0 20,8.92 20,20 L 540,520 c 0,11.08 -8.92,20 -20,20 L 40,540 C 28.92,540 20,531.08 20,520 L 20,40.000001 c 0,-11.08 8.92,-20 20,-20 z" style="opacity:0.95;fill:#e2b322;fill-opacity:1;stroke:none;stroke-width:1;stroke-linecap:round;stroke-linejoin:round;stroke-miterlimit:4;stroke-dasharray:none;stroke-opacity:1"/>
 </g>
 <g id="orange-notes" transform="translate(2240,0)">
  <rect style="opacity:0.00100002;fill:#000000;fill-opacity:1;stroke:none;stroke-width:1;stroke-linecap:round;stroke-linejoin:round;stroke-miterlimit:4;stroke-dasharray:none;stroke-opacity:1" id="rect4536" width="560" height="560" x="0" y="0"/>
  <g id="g4538" style="opacity:0.8">
   <path id="path4540" d="M 39.076172,19 C 27.953557,19 19,27.953557 19,39.076172 L 19,520.92383 C 19,532.04644 27.953557,541 39.076172,541 l 481.847658,0 C 532.04644,541 541,532.04644 541,520.92383 L 541,39.076172 C 541,27.953557 532.04644,19 520.92383,19 L 39.076172,19 Z M 40,20 520,20 c 11.08,0 20,8.92 20,20 l 0,480 c 0,11.08 -8.92,20 -20,20 L 40,540 C 28.92,540 20,531.08 20,520 L 20,40 C 20,28.92 28.92,20 40,20 Z" style="opacity:0.1;fill:#000000;fill-opacity:1;stroke:none;stroke-width:1;stroke-linecap:round;stroke-linejoin:round;stroke-miterlimit:4;stroke-dasharray:none;stroke-opacity:1"/>
   <path id="path4542" d="M 38.154297,18 C 26.989066,18 18,26.989066 18,38.154297 L 18,521.8457 C 18,533.01093 26.989066,542 38.154297,542 L 521.8457,542 C 533.01093,542 542,533.01093 542,521.8457 L 542,38.154297 C 542,26.989066 533.01093,18 521.8457,18 L 38.154297,18 Z M 40,20 520,20 c 11.08,0 20,8.92 20,20 l 0,480 c 0,11.08 -8.92,20 -20,20 L 40,540 C 28.92,540 20,531.08 20,520 L 20,40 C 20,28.92 28.92,20 40,20 Z" style="opacity:0.1;fill:#000000;fill-opacity:1;stroke:none;stroke-width:1;stroke-linecap:round;stroke-linejoin:round;stroke-miterlimit:4;stroke-dasharray:none;stroke-opacity:1"/>
   <path id="path4544" d="M 37.230469,17 C 26.022623,17 17,26.022623 17,37.230469 L 17,522.76953 C 17,533.97738 26.022623,543 37.230469,543 l 485.539061,0 C 533.97738,543 543,533.97738 543,522.76953 L 543,37.230469 C 543,26.022623 533.97738,17 522.76953,17 L 37.230469,17 Z M 40,20 520,20 c 11.08,0 20,8.92 20,20 l 0,480 c 0,11.08 -8.92,20 -20,20 L 40,540 C 28.92,540 20,531.08 20,520 L 20,40 C 20,28.92 28.92,20 40,20 Z" style="opacity:0.1;fill:#000000;fill-opacity:1;stroke:none;stroke-width:1;stroke-linecap:round;stroke-linejoin:round;stroke-miterlimit:4;stroke-dasharray:none;stroke-opacity:1"/>
   <path id="path4546" d="M 36.308594,16 C 25.058133,16 16,25.058133 16,36.308594 L 16,523.69141 C 16,534.94187 25.058133,544 36.308594,544 l 487.382816,0 C 534.94187,544 544,534.94187 544,523.69141 L 544,36.308594 C 544,25.058133 534.94187,16 523.69141,16 L 36.308594,16 Z M 40,20 520,20 c 11.08,0 20,8.92 20,20 l 0,480 c 0,11.08 -8.92,20 -20,20 L 40,540 C 28.92,540 20,531.08 20,520 L 20,40 C 20,28.92 28.92,20 40,20 Z" style="opacity:0.1;fill:#000000;fill-opacity:1;stroke:none;stroke-width:1;stroke-linecap:round;stroke-linejoin:round;stroke-miterlimit:4;stroke-dasharray:none;stroke-opacity:1"/>
  </g>
  <path style="opacity:0.95;fill:#ee923a;fill-opacity:1;stroke:none;stroke-width:1;stroke-linecap:round;stroke-linejoin:round;stroke-miterlimit:4;stroke-dasharray:none;stroke-opacity:1" id="path4548" d="m 40,20.000002 480,0 c 11.08,0 20,8.92 20,20 L 540,520 c 0,11.08 -8.92,20 -20,20 L 40,540 C 28.92,540 20,531.08 20,520 L 20,40.000001 c 0,-11.08 8.92,-20 20,-20 z"/>
 </g>
 <g id="red-notes" transform="translate(2800,0)">
  <rect id="rect4554" width="560" height="560" x="0" y="0" style="opacity:0.00100002;fill:#000000;fill-opacity:1;stroke:none;stroke-width:1;stroke-linecap:round;stroke-linejoin:round;stroke-miterlimit:4;stroke-dasharray:none;stroke-opacity:1"/>
  <g style="opacity:0.8" id="g4556">
   <path style="opacity:0.1;fill:#000000;fill-opacity:1;stroke:none;stroke-width:1;stroke-linecap:round;stroke-linejoin:round;stroke-miterlimit:4;stroke-dasharray:none;stroke-opacity:1" id="path4558" d="M 39.076172,19 C 27.953557,19 19,27.953557 19,39.076172 L 19,520.92383 C 19,532.04644 27.953557,541 39.076172,541 l 481.847658,0 C 532.04644,541 541,532.04644 541,520.92383 L 541,39.076172 C 541,27.953557 532.04644,19 520.92383,19 L 39.076172,19 Z M 40,20 520,20 c 11.08,0 20,8.92 20,20 l 0,480 c 0,11.08 -8.92,20 -20,20 L 40,540 C 28.92,540 20,531.08 20,520 L 20,40 C 20,28.92 28.92,20 40,20 Z"/>
   <path style="opacity:0.1;fill:#000000;fill-opacity:1;stroke:none;stroke-width:1;stroke-linecap:round;stroke-linejoin:round;stroke-miterlimit:4;stroke-dasharray:none;stroke-opacity:1" id="path4560" d="M 38.154297,18 C 26.989066,18 18,26.989066 18,38.154297 L 18,521.8457 C 18,533.01093 26.989066,542 38.154297,542 L 521.8457,542 C 533.01093,542 542,533.01093 542,521.8457 L 542,38.154297 C 542,26.989066 533.01093,18 521.8457,18 L 38.154297,18 Z M 40,20 520,20 c 11.08,0 20,8.92 20,20 l 0,480 c 0,11.08 -8.92,20 -20,20 L 40,540 C 28.92,540 20,531.08 20,520 L 20,40 C 20,28.92 28.92,20 40,20 Z"/>
   <path style="opacity:0.1;fill:#000000;fill-opacity:1;stroke:none;stroke-width:1;stroke-linecap:round;stroke-linejoin:round;stroke-miterlimit:4;stroke-dasharray:none;stroke-opacity:1" id="path4562" d="M 37.230469,17 C 26.022623,17 17,26.022623 17,37.230469 L 17,522.76953 C 17,533.97738 26.022623,543 37.230469,543 l 485.539061,0 C 533.97738,543 543,533.97738 543,522.76953 L 543,37.230469 C 543,26.022623 533.97738,17 522.76953,17 L 37.230469,17 Z M 40,20 520,20 c 11.08,0 20,8.92 20,20 l 0,480 c 0,11.08 -8.92,20 -20,20 L 40,540 C 28.92,540 20,531.08 20,520 L 20,40 C 20,28.92 28.92,20 40,20 Z"/>
   <path style="opacity:0.1;fill:#000000;fill-opacity:1;stroke:none;stroke-width:1;stroke-linecap:round;stroke-linejoin:round;stroke-miterlimit:4;stroke-dasharray:none;stroke-opacity:1" id="path4564" d="M 36.308594,16 C 25.058133,16 16,25.058133 16,36.308594 L 16,523.69141 C 16,534.94187 25.058133,544 36.308594,544 l 487.382816,0 C 534.94187,544 544,534.94187 544,523.69141 L 544,36.308594 C 544,25.058133 534.94187,16 523.69141,16 L 36.308594,16 Z M 40,20 520,20 c 11.08,0 20,8.92 20,20 l 0,480 c 0,11.08 -8.92,20 -20,20 L 40,540 C 28.92,540 20,531.08 20,520 L 20,40 C 20,28.92 28.92,20 40,20 Z"/>
  </g>
  <path id="path4566" d="m 40,20.000002 480,0 c 11.08,0 20,8.92 20,20 L 540,520 c 0,11.08 -8.92,20 -20,20 L 40,540 C 28.92,540 20,531.08 20,520 L 20,40.000001 c 0,-11.08 8.92,-20 20,-20 z" style="opacity:0.95;fill:#e25252;fill-opacity:1;stroke:none;stroke-width:1;stroke-linecap:round;stroke-linejoin:round;stroke-miterlimit:4;stroke-dasharray:none;stroke-opacity:1"/>
 </g>
 <g id="white-notes" transform="translate(3360,0)">
  <rect id="rect4572" width="560" height="560" x="0" y="0" style="opacity:0.00100002;fill:#000000;fill-opacity:1;stroke:none;stroke-width:1;stroke-linecap:round;stroke-linejoin:round;stroke-miterlimit:4;stroke-dasharray:none;stroke-opacity:1"/>
  <g style="opacity:0.8" id="g4574">
   <path style="opacity:0.1;fill:#000000;fill-opacity:1;stroke:none;stroke-width:1;stroke-linecap:round;stroke-linejoin:round;stroke-miterlimit:4;stroke-dasharray:none;stroke-opacity:1" id="path4576" d="M 39.076172,19 C 27.953557,19 19,27.953557 19,39.076172 L 19,520.92383 C 19,532.04644 27.953557,541 39.076172,541 l 481.847658,0 C 532.04644,541 541,532.04644 541,520.92383 L 541,39.076172 C 541,27.953557 532.04644,19 520.92383,19 L 39.076172,19 Z M 40,20 520,20 c 11.08,0 20,8.92 20,20 l 0,480 c 0,11.08 -8.92,20 -20,20 L 40,540 C 28.92,540 20,531.08 20,520 L 20,40 C 20,28.92 28.92,20 40,20 Z"/>
   <path style="opacity:0.1;fill:#000000;fill-opacity:1;stroke:none;stroke-width:1;stroke-linecap:round;stroke-linejoin:round;stroke-miterlimit:4;stroke-dasharray:none;stroke-opacity:1" id="path4578" d="M 38.154297,18 C 26.989066,18 18,26.989066 18,38.154297 L 18,521.8457 C 18,533.01093 26.989066,542 38.154297,542 L 521.8457,542 C 533.01093,542 542,533.01093 542,521.8457 L 542,38.154297 C 542,26.989066 533.01093,18 521.8457,18 L 38.154297,18 Z M 40,20 520,20 c 11.08,0 20,8.92 20,20 l 0,480 c 0,11.08 -8.92,20 -20,20 L 40,540 C 28.92,540 20,531.08 20,520 L 20,40 C 20,28.92 28.92,20 40,20 Z"/>
   <path style="opacity:0.1;fill:#000000;fill-opacity:1;stroke:none;stroke-width:1;stroke-linecap:round;stroke-linejoin:round;stroke-miterlimit:4;stroke-dasharray:none;stroke-opacity:1" id="path4580" d="M 37.230469,17 C 26.022623,17 17,26.022623 17,37.230469 L 17,522.76953 C 17,533.97738 26.022623,543 37.230469,543 l 485.539061,0 C 533.97738,543 543,533.97738 543,522.76953 L 543,37.230469 C 543,26.022623 533.97738,17 522.76953,17 L 37.230469,17 Z M 40,20 520,20 c 11.08,0 20,8.92 20,20 l 0,480 c 0,11.08 -8.92,20 -20,20 L 40,540 C 28.92,540 20,531.08 20,520 L 20,40 C 20,28.92 28.92,20 40,20 Z"/>
   <path style="opacity:0.1;fill:#000000;fill-opacity:1;stroke:none;stroke-width:1;stroke-linecap:round;stroke-linejoin:round;stroke-miterlimit:4;stroke-dasharray:none;stroke-opacity:1" id="path4582" d="M 36.308594,16 C 25.058133,16 16,25.058133 16,36.308594 L 16,523.69141 C 16,534.94187 25.058133,544 36.308594,544 l 487.382816,0 C 534.94187,544 544,534.94187 544,523.69141 L 544,36.308594 C 544,25.058133 534.94187,16 523.69141,16 L 36.308594,16 Z M 40,20 520,20 c 11.08,0 20,8.92 20,20 l 0,480 c 0,11.08 -8.92,20 -20,20 L 40,540 C 28.92,540 20,531.08 20,520 L 20,40 C 20,28.92 28.92,20 40,20 Z"/>
  </g>
  <path id="path4584" d="m 40,20.000002 480,0 c 11.08,0 20,8.92 20,20 L 540,520 c 0,11.08 -8.92,20 -20,20 L 40,540 C 28.92,540 20,531.08 20,520 L 20,40.000001 c 0,-11.08 8.92,-20 20,-20 z" style="opacity:0.95;fill:#f5f6f7;fill-opacity:1;stroke:none;stroke-width:1;stroke-linecap:round;stroke-linejoin:round;stroke-miterlimit:4;stroke-dasharray:none;stroke-opacity:1"/>
 </g>
 <g id="pink-notes" transform="translate(3920,0)">
  <rect style="opacity:0.00100002;fill:#000000;fill-opacity:1;stroke:none;stroke-width:1;stroke-linecap:round;stroke-linejoin:round;stroke-miterlimit:4;stroke-dasharray:none;stroke-opacity:1" id="rect4590" width="560" height="560" x="0" y="0"/>
  <g id="g4592" style="opacity:0.8">
   <path id="path4594" d="M 39.076172,19 C 27.953557,19 19,27.953557 19,39.076172 L 19,520.92383 C 19,532.04644 27.953557,541 39.076172,541 l 481.847658,0 C 532.04644,541 541,532.04644 541,520.92383 L 541,39.076172 C 541,27.953557 532.04644,19 520.92383,19 L 39.076172,19 Z M 40,20 520,20 c 11.08,0 20,8.92 20,20 l 0,480 c 0,11.08 -8.92,20 -20,20 L 40,540 C 28.92,540 20,531.08 20,520 L 20,40 C 20,28.92 28.92,20 40,20 Z" style="opacity:0.1;fill:#000000;fill-opacity:1;stroke:none;stroke-width:1;stroke-linecap:round;stroke-linejoin:round;stroke-miterlimit:4;stroke-dasharray:none;stroke-opacity:1"/>
   <path id="path4596" d="M 38.154297,18 C 26.989066,18 18,26.989066 18,38.154297 L 18,521.8457 C 18,533.01093 26.989066,542 38.154297,542 L 521.8457,542 C 533.01093,542 542,533.01093 542,521.8457 L 542,38.154297 C 542,26.989066 533.01093,18 521.8457,18 L 38.154297,18 Z M 40,20 520,20 c 11.08,0 20,8.92 20,20 l 0,480 c 0,11.08 -8.92,20 -20,20 L 40,540 C 28.92,540 20,531.08 20,520 L 20,40 C 20,28.92 28.92,20 40,20 Z" style="opacity:0.1;fill:#000000;fill-opacity:1;stroke:none;stroke-width:1;stroke-linecap:round;stroke-linejoin:round;stroke-miterlimit:4;stroke-dasharray:none;stroke-opacity:1"/>
   <path id="path4598" d="M 37.230469,17 C 26.022623,17 17,26.022623 17,37.230469 L 17,522.76953 C 17,533.97738 26.022623,543 37.230469,543 l 485.539061,0 C 533.97738,543 543,533.97738 543,522.76953 L 543,37.230469 C 543,26.022623 533.97738,17 522.76953,17 L 37.230469,17 Z M 40,20 520,20 c 11.08,0 20,8.92 20,20 l 0,480 c 0,11.08 -8.92,20 -20,20 L 40,540 C 28.92,540 20,531.08 20,520 L 20,40 C 20,28.92 28.92,20 40,20 Z" style="opacity:0.1;fill:#000000;fill-opacity:1;stroke:none;stroke-width:1;stroke-linecap:round;stroke-linejoin:round;stroke-miterlimit:4;stroke-dasharray:none;stroke-opacity:1"/>
   <path id="path4600" d="M 36.308594,16 C 25.058133,16 16,25.058133 16,36.308594 L 16,523.69141 C 16,534.94187 25.058133,544 36.308594,544 l 487.382816,0 C 534.94187,544 544,534.94187 544,523.69141 L 544,36.308594 C 544,25.058133 534.94187,16 523.69141,16 L 36.308594,16 Z M 40,20 520,20 c 11.08,0 20,8.92 20,20 l 0,480 c 0,11.08 -8.92,20 -20,20 L 40,540 C 28.92,540 20,531.08 20,520 L 20,40 C 20,28.92 28.92,20 40,20 Z" style="opacity:0.1;fill:#000000;fill-opacity:1;stroke:none;stroke-width:1;stroke-linecap:round;stroke-linejoin:round;stroke-miterlimit:4;stroke-dasharray:none;stroke-opacity:1"/>
  </g>
  <path style="opacity:0.95;fill:#ca71df;fill-opacity:1;stroke:none;stroke-width:1;stroke-linecap:round;stroke-linejoin:round;stroke-miterlimit:4;stroke-dasharray:none;stroke-opacity:1" id="path4602" d="m 40,20.000002 480,0 c 11.08,0 20,8.92 20,20 L 540,520 c 0,11.08 -8.92,20 -20,20 L 40,540 C 28.92,540 20,531.08 20,520 L 20,40.000001 c 0,-11.08 8.92,-20 20,-20 z"/>
 </g>
</svg>
