<svg xmlns="http://www.w3.org/2000/svg" width="560" height="560" version="1">
 <g id="black-notes">
  <rect width="560" height="560" x="0" y="0" style="opacity:0.001"/>
  <g style="opacity:0.8">
   <path style="opacity:0.1" d="M 39.076172,19 C 27.953557,19 19,27.953557 19,39.076172 L 19,520.92383 C 19,532.04644 27.953557,541 39.076172,541 l 481.847658,0 C 532.04644,541 541,532.04644 541,520.92383 L 541,39.076172 C 541,27.953557 532.04644,19 520.92383,19 L 39.076172,19 Z M 40,20 520,20 c 11.08,0 20,8.92 20,20 l 0,480 c 0,11.08 -8.92,20 -20,20 L 40,540 C 28.92,540 20,531.08 20,520 L 20,40 C 20,28.92 28.92,20 40,20 Z"/>
   <path style="opacity:0.1" d="M 38.154297,18 C 26.989066,18 18,26.989066 18,38.154297 L 18,521.8457 C 18,533.01093 26.989066,542 38.154297,542 L 521.8457,542 C 533.01093,542 542,533.01093 542,521.8457 L 542,38.154297 C 542,26.989066 533.01093,18 521.8457,18 L 38.154297,18 Z M 40,20 520,20 c 11.08,0 20,8.92 20,20 l 0,480 c 0,11.08 -8.92,20 -20,20 L 40,540 C 28.92,540 20,531.08 20,520 L 20,40 C 20,28.92 28.92,20 40,20 Z"/>
   <path style="opacity:0.1" d="M 37.230469,17 C 26.022623,17 17,26.022623 17,37.230469 L 17,522.76953 C 17,533.97738 26.022623,543 37.230469,543 l 485.539061,0 C 533.97738,543 543,533.97738 543,522.76953 L 543,37.230469 C 543,26.022623 533.97738,17 522.76953,17 L 37.230469,17 Z M 40,20 520,20 c 11.08,0 20,8.92 20,20 l 0,480 c 0,11.08 -8.92,20 -20,20 L 40,540 C 28.92,540 20,531.08 20,520 L 20,40 C 20,28.92 28.92,20 40,20 Z"/>
   <path style="opacity:0.1" d="M 36.308594,16 C 25.058133,16 16,25.058133 16,36.308594 L 16,523.69141 C 16,534.94187 25.058133,544 36.308594,544 l 487.382816,0 C 534.94187,544 544,534.94187 544,523.69141 L 544,36.308594 C 544,25.058133 534.94187,16 523.69141,16 L 36.308594,16 Z M 40,20 520,20 c 11.08,0 20,8.92 20,20 l 0,480 c 0,11.08 -8.92,20 -20,20 L 40,540 C 28.92,540 20,531.08 20,520 L 20,40 C 20,28.92 28.92,20 40,20 Z"/>
  </g>
  <path d="m 40,20.000002 480,0 c 11.08,0 20,8.92 20,20 L 540,520 c 0,11.08 -8.92,20 -20,20 L 40,540 C 28.92,540 20,531.08 20,520 L 20,40.000001 c 0,-11.08 8.92,-20 20,-20 z" style="opacity:0.90;fill:#353945"/>
  <path d="M 40,20 C 28.92,20 20,28.92 20,40 l 0,480 c 0,11.08 8.92,20 20,20 l 480,0 c 11.08,0 20,-8.92 20,-20 L 540,40 C 540,28.92 531.08,20 520,20 L 40,20 Z m 0,1 480,0 c 10.5433,0 19,8.456703 19,19 l 0,480 c 0,10.5433 -8.4567,19 -19,19 L 40,539 C 29.456703,539 21,530.5433 21,520 L 21,40 C 21,29.456703 29.456703,21 40,21 Z" style="opacity:0.5"/>
 </g>
 <g id="blue-notes" transform="translate(560,0)">
  <rect style="opacity:0.001" width="560" height="560" x="0" y="0"/>
  <g style="opacity:0.8">
   <path d="M 39.076172,19 C 27.953557,19 19,27.953557 19,39.076172 L 19,520.92383 C 19,532.04644 27.953557,541 39.076172,541 l 481.847658,0 C 532.04644,541 541,532.04644 541,520.92383 L 541,39.076172 C 541,27.953557 532.04644,19 520.92383,19 L 39.076172,19 Z M 40,20 520,20 c 11.08,0 20,8.92 20,20 l 0,480 c 0,11.08 -8.92,20 -20,20 L 40,540 C 28.92,540 20,531.08 20,520 L 20,40 C 20,28.92 28.92,20 40,20 Z" style="opacity:0.1"/>
   <path d="M 38.154297,18 C 26.989066,18 18,26.989066 18,38.154297 L 18,521.8457 C 18,533.01093 26.989066,542 38.154297,542 L 521.8457,542 C 533.01093,542 542,533.01093 542,521.8457 L 542,38.154297 C 542,26.989066 533.01093,18 521.8457,18 L 38.154297,18 Z M 40,20 520,20 c 11.08,0 20,8.92 20,20 l 0,480 c 0,11.08 -8.92,20 -20,20 L 40,540 C 28.92,540 20,531.08 20,520 L 20,40 C 20,28.92 28.92,20 40,20 Z" style="opacity:0.1"/>
   <path d="M 37.230469,17 C 26.022623,17 17,26.022623 17,37.230469 L 17,522.76953 C 17,533.97738 26.022623,543 37.230469,543 l 485.539061,0 C 533.97738,543 543,533.97738 543,522.76953 L 543,37.230469 C 543,26.022623 533.97738,17 522.76953,17 L 37.230469,17 Z M 40,20 520,20 c 11.08,0 20,8.92 20,20 l 0,480 c 0,11.08 -8.92,20 -20,20 L 40,540 C 28.92,540 20,531.08 20,520 L 20,40 C 20,28.92 28.92,20 40,20 Z" style="opacity:0.1"/>
   <path d="M 36.308594,16 C 25.058133,16 16,25.058133 16,36.308594 L 16,523.69141 C 16,534.94187 25.058133,544 36.308594,544 l 487.382816,0 C 534.94187,544 544,534.94187 544,523.69141 L 544,36.308594 C 544,25.058133 534.94187,16 523.69141,16 L 36.308594,16 Z M 40,20 520,20 c 11.08,0 20,8.92 20,20 l 0,480 c 0,11.08 -8.92,20 -20,20 L 40,540 C 28.92,540 20,531.08 20,520 L 20,40 C 20,28.92 28.92,20 40,20 Z" style="opacity:0.1"/>
  </g>
  <path style="opacity:0.90;fill:#5294e2" d="m 40,20.000002 480,0 c 11.08,0 20,8.92 20,20 L 540,520 c 0,11.08 -8.92,20 -20,20 L 40,540 C 28.92,540 20,531.08 20,520 L 20,40.000001 c 0,-11.08 8.92,-20 20,-20 z"/>
  <path style="opacity:0.5" d="M 40,20 C 28.92,20 20,28.92 20,40 l 0,480 c 0,11.08 8.92,20 20,20 l 480,0 c 11.08,0 20,-8.92 20,-20 L 540,40 C 540,28.92 531.08,20 520,20 L 40,20 Z m 0,1 480,0 c 10.5433,0 19,8.456703 19,19 l 0,480 c 0,10.5433 -8.4567,19 -19,19 L 40,539 C 29.456703,539 21,530.5433 21,520 L 21,40 C 21,29.456703 29.456703,21 40,21 Z"/>
 </g>
 <g id="green-notes" transform="translate(1120,0)">
  <rect style="opacity:0.001" width="560" height="560" x="0" y="0"/>
  <g style="opacity:0.8">
   <path d="M 39.076172,19 C 27.953557,19 19,27.953557 19,39.076172 L 19,520.92383 C 19,532.04644 27.953557,541 39.076172,541 l 481.847658,0 C 532.04644,541 541,532.04644 541,520.92383 L 541,39.076172 C 541,27.953557 532.04644,19 520.92383,19 L 39.076172,19 Z M 40,20 520,20 c 11.08,0 20,8.92 20,20 l 0,480 c 0,11.08 -8.92,20 -20,20 L 40,540 C 28.92,540 20,531.08 20,520 L 20,40 C 20,28.92 28.92,20 40,20 Z" style="opacity:0.1"/>
   <path d="M 38.154297,18 C 26.989066,18 18,26.989066 18,38.154297 L 18,521.8457 C 18,533.01093 26.989066,542 38.154297,542 L 521.8457,542 C 533.01093,542 542,533.01093 542,521.8457 L 542,38.154297 C 542,26.989066 533.01093,18 521.8457,18 L 38.154297,18 Z M 40,20 520,20 c 11.08,0 20,8.92 20,20 l 0,480 c 0,11.08 -8.92,20 -20,20 L 40,540 C 28.92,540 20,531.08 20,520 L 20,40 C 20,28.92 28.92,20 40,20 Z" style="opacity:0.1"/>
   <path d="M 37.230469,17 C 26.022623,17 17,26.022623 17,37.230469 L 17,522.76953 C 17,533.97738 26.022623,543 37.230469,543 l 485.539061,0 C 533.97738,543 543,533.97738 543,522.76953 L 543,37.230469 C 543,26.022623 533.97738,17 522.76953,17 L 37.230469,17 Z M 40,20 520,20 c 11.08,0 20,8.92 20,20 l 0,480 c 0,11.08 -8.92,20 -20,20 L 40,540 C 28.92,540 20,531.08 20,520 L 20,40 C 20,28.92 28.92,20 40,20 Z" style="opacity:0.1"/>
   <path d="M 36.308594,16 C 25.058133,16 16,25.058133 16,36.308594 L 16,523.69141 C 16,534.94187 25.058133,544 36.308594,544 l 487.382816,0 C 534.94187,544 544,534.94187 544,523.69141 L 544,36.308594 C 544,25.058133 534.94187,16 523.69141,16 L 36.308594,16 Z M 40,20 520,20 c 11.08,0 20,8.92 20,20 l 0,480 c 0,11.08 -8.92,20 -20,20 L 40,540 C 28.92,540 20,531.08 20,520 L 20,40 C 20,28.92 28.92,20 40,20 Z" style="opacity:0.1"/>
  </g>
  <path style="opacity:0.90;fill:#87b158" d="m 40,20.000002 480,0 c 11.08,0 20,8.92 20,20 L 540,520 c 0,11.08 -8.92,20 -20,20 L 40,540 C 28.92,540 20,531.08 20,520 L 20,40.000001 c 0,-11.08 8.92,-20 20,-20 z"/>
  <path style="opacity:0.5" d="M 40,20 C 28.92,20 20,28.92 20,40 l 0,480 c 0,11.08 8.92,20 20,20 l 480,0 c 11.08,0 20,-8.92 20,-20 L 540,40 C 540,28.92 531.08,20 520,20 L 40,20 Z m 0,1 480,0 c 10.5433,0 19,8.456703 19,19 l 0,480 c 0,10.5433 -8.4567,19 -19,19 L 40,539 C 29.456703,539 21,530.5433 21,520 L 21,40 C 21,29.456703 29.456703,21 40,21 Z"/>
 </g>
 <g id="yellow-notes" transform="translate(1680,0)">
  <rect width="560" height="560" x="0" y="0" style="opacity:0.001"/>
  <g style="opacity:0.8">
   <path style="opacity:0.1" d="M 39.076172,19 C 27.953557,19 19,27.953557 19,39.076172 L 19,520.92383 C 19,532.04644 27.953557,541 39.076172,541 l 481.847658,0 C 532.04644,541 541,532.04644 541,520.92383 L 541,39.076172 C 541,27.953557 532.04644,19 520.92383,19 L 39.076172,19 Z M 40,20 520,20 c 11.08,0 20,8.92 20,20 l 0,480 c 0,11.08 -8.92,20 -20,20 L 40,540 C 28.92,540 20,531.08 20,520 L 20,40 C 20,28.92 28.92,20 40,20 Z"/>
   <path style="opacity:0.1" d="M 38.154297,18 C 26.989066,18 18,26.989066 18,38.154297 L 18,521.8457 C 18,533.01093 26.989066,542 38.154297,542 L 521.8457,542 C 533.01093,542 542,533.01093 542,521.8457 L 542,38.154297 C 542,26.989066 533.01093,18 521.8457,18 L 38.154297,18 Z M 40,20 520,20 c 11.08,0 20,8.92 20,20 l 0,480 c 0,11.08 -8.92,20 -20,20 L 40,540 C 28.92,540 20,531.08 20,520 L 20,40 C 20,28.92 28.92,20 40,20 Z"/>
   <path style="opacity:0.1" d="M 37.230469,17 C 26.022623,17 17,26.022623 17,37.230469 L 17,522.76953 C 17,533.97738 26.022623,543 37.230469,543 l 485.539061,0 C 533.97738,543 543,533.97738 543,522.76953 L 543,37.230469 C 543,26.022623 533.97738,17 522.76953,17 L 37.230469,17 Z M 40,20 520,20 c 11.08,0 20,8.92 20,20 l 0,480 c 0,11.08 -8.92,20 -20,20 L 40,540 C 28.92,540 20,531.08 20,520 L 20,40 C 20,28.92 28.92,20 40,20 Z"/>
   <path style="opacity:0.1" d="M 36.308594,16 C 25.058133,16 16,25.058133 16,36.308594 L 16,523.69141 C 16,534.94187 25.058133,544 36.308594,544 l 487.382816,0 C 534.94187,544 544,534.94187 544,523.69141 L 544,36.308594 C 544,25.058133 534.94187,16 523.69141,16 L 36.308594,16 Z M 40,20 520,20 c 11.08,0 20,8.92 20,20 l 0,480 c 0,11.08 -8.92,20 -20,20 L 40,540 C 28.92,540 20,531.08 20,520 L 20,40 C 20,28.92 28.92,20 40,20 Z"/>
  </g>
  <path d="m 40,20.000002 480,0 c 11.08,0 20,8.92 20,20 L 540,520 c 0,11.08 -8.92,20 -20,20 L 40,540 C 28.92,540 20,531.08 20,520 L 20,40.000001 c 0,-11.08 8.92,-20 20,-20 z" style="opacity:0.90;fill:#e2b322"/>
  <path d="M 40,20 C 28.92,20 20,28.92 20,40 l 0,480 c 0,11.08 8.92,20 20,20 l 480,0 c 11.08,0 20,-8.92 20,-20 L 540,40 C 540,28.92 531.08,20 520,20 L 40,20 Z m 0,1 480,0 c 10.5433,0 19,8.456703 19,19 l 0,480 c 0,10.5433 -8.4567,19 -19,19 L 40,539 C 29.456703,539 21,530.5433 21,520 L 21,40 C 21,29.456703 29.456703,21 40,21 Z" style="opacity:0.5"/>
 </g>
 <g id="orange-notes" transform="translate(2240,0)">
  <rect style="opacity:0.001" width="560" height="560" x="0" y="0"/>
  <g style="opacity:0.8">
   <path d="M 39.076172,19 C 27.953557,19 19,27.953557 19,39.076172 L 19,520.92383 C 19,532.04644 27.953557,541 39.076172,541 l 481.847658,0 C 532.04644,541 541,532.04644 541,520.92383 L 541,39.076172 C 541,27.953557 532.04644,19 520.92383,19 L 39.076172,19 Z M 40,20 520,20 c 11.08,0 20,8.92 20,20 l 0,480 c 0,11.08 -8.92,20 -20,20 L 40,540 C 28.92,540 20,531.08 20,520 L 20,40 C 20,28.92 28.92,20 40,20 Z" style="opacity:0.1"/>
   <path d="M 38.154297,18 C 26.989066,18 18,26.989066 18,38.154297 L 18,521.8457 C 18,533.01093 26.989066,542 38.154297,542 L 521.8457,542 C 533.01093,542 542,533.01093 542,521.8457 L 542,38.154297 C 542,26.989066 533.01093,18 521.8457,18 L 38.154297,18 Z M 40,20 520,20 c 11.08,0 20,8.92 20,20 l 0,480 c 0,11.08 -8.92,20 -20,20 L 40,540 C 28.92,540 20,531.08 20,520 L 20,40 C 20,28.92 28.92,20 40,20 Z" style="opacity:0.1"/>
   <path d="M 37.230469,17 C 26.022623,17 17,26.022623 17,37.230469 L 17,522.76953 C 17,533.97738 26.022623,543 37.230469,543 l 485.539061,0 C 533.97738,543 543,533.97738 543,522.76953 L 543,37.230469 C 543,26.022623 533.97738,17 522.76953,17 L 37.230469,17 Z M 40,20 520,20 c 11.08,0 20,8.92 20,20 l 0,480 c 0,11.08 -8.92,20 -20,20 L 40,540 C 28.92,540 20,531.08 20,520 L 20,40 C 20,28.92 28.92,20 40,20 Z" style="opacity:0.1"/>
   <path d="M 36.308594,16 C 25.058133,16 16,25.058133 16,36.308594 L 16,523.69141 C 16,534.94187 25.058133,544 36.308594,544 l 487.382816,0 C 534.94187,544 544,534.94187 544,523.69141 L 544,36.308594 C 544,25.058133 534.94187,16 523.69141,16 L 36.308594,16 Z M 40,20 520,20 c 11.08,0 20,8.92 20,20 l 0,480 c 0,11.08 -8.92,20 -20,20 L 40,540 C 28.92,540 20,531.08 20,520 L 20,40 C 20,28.92 28.92,20 40,20 Z" style="opacity:0.1"/>
  </g>
  <path style="opacity:0.90;fill:#ee923a" d="m 40,20.000002 480,0 c 11.08,0 20,8.92 20,20 L 540,520 c 0,11.08 -8.92,20 -20,20 L 40,540 C 28.92,540 20,531.08 20,520 L 20,40.000001 c 0,-11.08 8.92,-20 20,-20 z"/>
  <path style="opacity:0.5" d="M 40,20 C 28.92,20 20,28.92 20,40 l 0,480 c 0,11.08 8.92,20 20,20 l 480,0 c 11.08,0 20,-8.92 20,-20 L 540,40 C 540,28.92 531.08,20 520,20 L 40,20 Z m 0,1 480,0 c 10.5433,0 19,8.456703 19,19 l 0,480 c 0,10.5433 -8.4567,19 -19,19 L 40,539 C 29.456703,539 21,530.5433 21,520 L 21,40 C 21,29.456703 29.456703,21 40,21 Z"/>
 </g>
 <g id="red-notes" transform="translate(2800,0)">
  <rect width="560" height="560" x="0" y="0" style="opacity:0.001"/>
  <g style="opacity:0.8">
   <path style="opacity:0.1" d="M 39.076172,19 C 27.953557,19 19,27.953557 19,39.076172 L 19,520.92383 C 19,532.04644 27.953557,541 39.076172,541 l 481.847658,0 C 532.04644,541 541,532.04644 541,520.92383 L 541,39.076172 C 541,27.953557 532.04644,19 520.92383,19 L 39.076172,19 Z M 40,20 520,20 c 11.08,0 20,8.92 20,20 l 0,480 c 0,11.08 -8.92,20 -20,20 L 40,540 C 28.92,540 20,531.08 20,520 L 20,40 C 20,28.92 28.92,20 40,20 Z"/>
   <path style="opacity:0.1" d="M 38.154297,18 C 26.989066,18 18,26.989066 18,38.154297 L 18,521.8457 C 18,533.01093 26.989066,542 38.154297,542 L 521.8457,542 C 533.01093,542 542,533.01093 542,521.8457 L 542,38.154297 C 542,26.989066 533.01093,18 521.8457,18 L 38.154297,18 Z M 40,20 520,20 c 11.08,0 20,8.92 20,20 l 0,480 c 0,11.08 -8.92,20 -20,20 L 40,540 C 28.92,540 20,531.08 20,520 L 20,40 C 20,28.92 28.92,20 40,20 Z"/>
   <path style="opacity:0.1" d="M 37.230469,17 C 26.022623,17 17,26.022623 17,37.230469 L 17,522.76953 C 17,533.97738 26.022623,543 37.230469,543 l 485.539061,0 C 533.97738,543 543,533.97738 543,522.76953 L 543,37.230469 C 543,26.022623 533.97738,17 522.76953,17 L 37.230469,17 Z M 40,20 520,20 c 11.08,0 20,8.92 20,20 l 0,480 c 0,11.08 -8.92,20 -20,20 L 40,540 C 28.92,540 20,531.08 20,520 L 20,40 C 20,28.92 28.92,20 40,20 Z"/>
   <path style="opacity:0.1" d="M 36.308594,16 C 25.058133,16 16,25.058133 16,36.308594 L 16,523.69141 C 16,534.94187 25.058133,544 36.308594,544 l 487.382816,0 C 534.94187,544 544,534.94187 544,523.69141 L 544,36.308594 C 544,25.058133 534.94187,16 523.69141,16 L 36.308594,16 Z M 40,20 520,20 c 11.08,0 20,8.92 20,20 l 0,480 c 0,11.08 -8.92,20 -20,20 L 40,540 C 28.92,540 20,531.08 20,520 L 20,40 C 20,28.92 28.92,20 40,20 Z"/>
  </g>
  <path d="m 40,20.000002 480,0 c 11.08,0 20,8.92 20,20 L 540,520 c 0,11.08 -8.92,20 -20,20 L 40,540 C 28.92,540 20,531.08 20,520 L 20,40.000001 c 0,-11.08 8.92,-20 20,-20 z" style="opacity:0.90;fill:#e25252"/>
  <path d="M 40,20 C 28.92,20 20,28.92 20,40 l 0,480 c 0,11.08 8.92,20 20,20 l 480,0 c 11.08,0 20,-8.92 20,-20 L 540,40 C 540,28.92 531.08,20 520,20 L 40,20 Z m 0,1 480,0 c 10.5433,0 19,8.456703 19,19 l 0,480 c 0,10.5433 -8.4567,19 -19,19 L 40,539 C 29.456703,539 21,530.5433 21,520 L 21,40 C 21,29.456703 29.456703,21 40,21 Z" style="opacity:0.5"/>
 </g>
 <g id="white-notes" transform="translate(3360,0)">
  <rect width="560" height="560" x="0" y="0" style="opacity:0.001"/>
  <g style="opacity:0.8">
   <path style="opacity:0.1" d="M 39.076172,19 C 27.953557,19 19,27.953557 19,39.076172 L 19,520.92383 C 19,532.04644 27.953557,541 39.076172,541 l 481.847658,0 C 532.04644,541 541,532.04644 541,520.92383 L 541,39.076172 C 541,27.953557 532.04644,19 520.92383,19 L 39.076172,19 Z M 40,20 520,20 c 11.08,0 20,8.92 20,20 l 0,480 c 0,11.08 -8.92,20 -20,20 L 40,540 C 28.92,540 20,531.08 20,520 L 20,40 C 20,28.92 28.92,20 40,20 Z"/>
   <path style="opacity:0.1" d="M 38.154297,18 C 26.989066,18 18,26.989066 18,38.154297 L 18,521.8457 C 18,533.01093 26.989066,542 38.154297,542 L 521.8457,542 C 533.01093,542 542,533.01093 542,521.8457 L 542,38.154297 C 542,26.989066 533.01093,18 521.8457,18 L 38.154297,18 Z M 40,20 520,20 c 11.08,0 20,8.92 20,20 l 0,480 c 0,11.08 -8.92,20 -20,20 L 40,540 C 28.92,540 20,531.08 20,520 L 20,40 C 20,28.92 28.92,20 40,20 Z"/>
   <path style="opacity:0.1" d="M 37.230469,17 C 26.022623,17 17,26.022623 17,37.230469 L 17,522.76953 C 17,533.97738 26.022623,543 37.230469,543 l 485.539061,0 C 533.97738,543 543,533.97738 543,522.76953 L 543,37.230469 C 543,26.022623 533.97738,17 522.76953,17 L 37.230469,17 Z M 40,20 520,20 c 11.08,0 20,8.92 20,20 l 0,480 c 0,11.08 -8.92,20 -20,20 L 40,540 C 28.92,540 20,531.08 20,520 L 20,40 C 20,28.92 28.92,20 40,20 Z"/>
   <path style="opacity:0.1" d="M 36.308594,16 C 25.058133,16 16,25.058133 16,36.308594 L 16,523.69141 C 16,534.94187 25.058133,544 36.308594,544 l 487.382816,0 C 534.94187,544 544,534.94187 544,523.69141 L 544,36.308594 C 544,25.058133 534.94187,16 523.69141,16 L 36.308594,16 Z M 40,20 520,20 c 11.08,0 20,8.92 20,20 l 0,480 c 0,11.08 -8.92,20 -20,20 L 40,540 C 28.92,540 20,531.08 20,520 L 20,40 C 20,28.92 28.92,20 40,20 Z"/>
  </g>
  <path d="m 40,20.000002 480,0 c 11.08,0 20,8.92 20,20 L 540,520 c 0,11.08 -8.92,20 -20,20 L 40,540 C 28.92,540 20,531.08 20,520 L 20,40.000001 c 0,-11.08 8.92,-20 20,-20 z" style="opacity:0.90;fill:#f5f6f7"/>
  <path d="M 40,20 C 28.92,20 20,28.92 20,40 l 0,480 c 0,11.08 8.92,20 20,20 l 480,0 c 11.08,0 20,-8.92 20,-20 L 540,40 C 540,28.92 531.08,20 520,20 L 40,20 Z m 0,1 480,0 c 10.5433,0 19,8.456703 19,19 l 0,480 c 0,10.5433 -8.4567,19 -19,19 L 40,539 C 29.456703,539 21,530.5433 21,520 L 21,40 C 21,29.456703 29.456703,21 40,21 Z" style="opacity:0.5"/>
 </g>
 <g id="pink-notes" transform="translate(3920,0)">
  <rect style="opacity:0.001" width="560" height="560" x="0" y="0"/>
  <g style="opacity:0.8">
   <path d="M 39.076172,19 C 27.953557,19 19,27.953557 19,39.076172 L 19,520.92383 C 19,532.04644 27.953557,541 39.076172,541 l 481.847658,0 C 532.04644,541 541,532.04644 541,520.92383 L 541,39.076172 C 541,27.953557 532.04644,19 520.92383,19 L 39.076172,19 Z M 40,20 520,20 c 11.08,0 20,8.92 20,20 l 0,480 c 0,11.08 -8.92,20 -20,20 L 40,540 C 28.92,540 20,531.08 20,520 L 20,40 C 20,28.92 28.92,20 40,20 Z" style="opacity:0.1"/>
   <path d="M 38.154297,18 C 26.989066,18 18,26.989066 18,38.154297 L 18,521.8457 C 18,533.01093 26.989066,542 38.154297,542 L 521.8457,542 C 533.01093,542 542,533.01093 542,521.8457 L 542,38.154297 C 542,26.989066 533.01093,18 521.8457,18 L 38.154297,18 Z M 40,20 520,20 c 11.08,0 20,8.92 20,20 l 0,480 c 0,11.08 -8.92,20 -20,20 L 40,540 C 28.92,540 20,531.08 20,520 L 20,40 C 20,28.92 28.92,20 40,20 Z" style="opacity:0.1"/>
   <path d="M 37.230469,17 C 26.022623,17 17,26.022623 17,37.230469 L 17,522.76953 C 17,533.97738 26.022623,543 37.230469,543 l 485.539061,0 C 533.97738,543 543,533.97738 543,522.76953 L 543,37.230469 C 543,26.022623 533.97738,17 522.76953,17 L 37.230469,17 Z M 40,20 520,20 c 11.08,0 20,8.92 20,20 l 0,480 c 0,11.08 -8.92,20 -20,20 L 40,540 C 28.92,540 20,531.08 20,520 L 20,40 C 20,28.92 28.92,20 40,20 Z" style="opacity:0.1"/>
   <path d="M 36.308594,16 C 25.058133,16 16,25.058133 16,36.308594 L 16,523.69141 C 16,534.94187 25.058133,544 36.308594,544 l 487.382816,0 C 534.94187,544 544,534.94187 544,523.69141 L 544,36.308594 C 544,25.058133 534.94187,16 523.69141,16 L 36.308594,16 Z M 40,20 520,20 c 11.08,0 20,8.92 20,20 l 0,480 c 0,11.08 -8.92,20 -20,20 L 40,540 C 28.92,540 20,531.08 20,520 L 20,40 C 20,28.92 28.92,20 40,20 Z" style="opacity:0.1"/>
  </g>
  <path style="opacity:0.90;fill:#ca71df" d="m 40,20.000002 480,0 c 11.08,0 20,8.92 20,20 L 540,520 c 0,11.08 -8.92,20 -20,20 L 40,540 C 28.92,540 20,531.08 20,520 L 20,40.000001 c 0,-11.08 8.92,-20 20,-20 z"/>
  <path style="opacity:0.5" d="M 40,20 C 28.92,20 20,28.92 20,40 l 0,480 c 0,11.08 8.92,20 20,20 l 480,0 c 11.08,0 20,-8.92 20,-20 L 540,40 C 540,28.92 531.08,20 520,20 L 40,20 Z m 0,1 480,0 c 10.5433,0 19,8.456703 19,19 l 0,480 c 0,10.5433 -8.4567,19 -19,19 L 40,539 C 29.456703,539 21,530.5433 21,520 L 21,40 C 21,29.456703 29.456703,21 40,21 Z"/>
 </g>
</svg>
