<svg xmlns="http://www.w3.org/2000/svg" width="129" height="109" version="1">
<defs>
  <style id="current-color-scheme" type="text/css">
   .ColorScheme-Background {color:#2f343f; } .ColorScheme-ButtonBackground { color:#444a58; } .ColorScheme-Highlight { color:#5294e2; } .ColorScheme-Text { color:#d3dae3; } .ColorScheme-NegativeText { color:#f44336; } .ColorScheme-PositiveText { color:#4caf50; } .ColorScheme-NeutralText { color:#ff9800; }
  </style>
 </defs>
 <rect id="footer-center" style="fill:currentColor" class="ColorScheme-Background" width="50" height="50" x="72" y="-102" transform="scale(1,-1)"/>
 <g id="footer-left" transform="matrix(1,0,0,-1,55,119.00007)">
  <path style="fill:currentColor" class="ColorScheme-Background" d="m 10.000015,16.999925 v 50 l 7,10e-6 v -50 z"/>
  <path style="opacity:0.2" d="m 10,17 v 50 h 1 V 17 Z"/>
 </g>
 <g id="footer-right" transform="matrix(1,0,0,-1,55,119.00007)">
  <path style="fill:currentColor" class="ColorScheme-Background" d="m 73.999995,16.999935 v 50 l -7,1e-5 v -50 z"/>
  <path style="opacity:0.2" d="m 73,17 v 50 h 1 V 17 Z"/>
 </g>
 <g id="footer-top" transform="matrix(1,0,0,-1,65,153.939)">
  <path style="fill:currentColor" class="ColorScheme-Background" d="m 6.999975,107.939 h 50.00002 v -6 H 6.999985 Z"/>
  <path style="opacity:0.2" d="m 7,107.93893 v 1 h 50 v -1 z"/>
 </g>
 <g id="footer-bottom" transform="matrix(1,0,0,-1,55,119.00007)">
  <path style="fill:currentColor" class="ColorScheme-Background" d="m 16.999975,9.999935 h 50.00002 v 7 h -50.00001 z"/>
  <path style="opacity:0.2" d="m 17,10 v 1 h 50 v -1 z"/>
 </g>
 <g id="footer-bottomright" transform="matrix(1,0,0,-1,55,119.00007)">
  <path style="fill:currentColor" class="ColorScheme-Background" d="m 66.999995,9.999935 v 7 h 7 v -2 c 0,-2.77 -2.23,-5 -5,-5 z"/>
  <path style="opacity:0.2" d="m 67,10 v 1 h 2 c 2.233297,0 4,1.766703 4,4 v 2 h 1 v -2 c 0,-2.77 -2.23,-5 -5,-5 z"/>
 </g>
 <g id="footer-bottomleft" transform="matrix(1,0,0,-1,55,119.00007)">
  <path style="fill:currentColor" class="ColorScheme-Background" d="m 17.000005,9.999935 v 7 h -7 v -2 c 0,-2.77 2.23,-5 5,-5 z"/>
  <path style="opacity:0.2" d="m 15,10 c -2.77,0 -5,2.23 -5,5 v 2 h 1 v -2 c 0,-2.233297 1.766703,-4 4,-4 h 2 v -1 z"/>
 </g>
 <g id="footer-topleft" transform="matrix(1,0,0,-1,65,153.939)">
  <rect style="fill:currentColor" class="ColorScheme-Background" width="7" height="6" x="0" y="101.94"/>
  <rect style="opacity:0.2" width="7" height="1" x="0" y="107.94"/>
  <rect style="opacity:0.2" width="1" height="6" x="0" y="101.94"/>
 </g>
 <g id="footer-topright" transform="rotate(180,64.5,76.969008)">
  <rect style="fill:currentColor" class="ColorScheme-Background" width="7" height="6" x="0" y="101.94"/>
  <rect style="opacity:0.2" width="7" height="1" x="0" y="107.94"/>
  <rect style="opacity:0.2" width="1" height="6" x="0" y="101.94"/>
 </g>
 <rect id="header-center" style="fill:currentColor" class="ColorScheme-Background" width="50" height="50" x="7" y="52"/>
 <g id="header-left" transform="translate(-10,34.998925)">
  <path style="fill:currentColor" class="ColorScheme-Background" d="m 10.000015,16.999925 v 50 l 7,10e-6 v -50 z"/>
  <path style="opacity:0.2" d="m 10,17 v 50 h 1 V 17 Z"/>
 </g>
 <g id="header-right" transform="translate(-10,34.998925)">
  <path style="fill:currentColor" class="ColorScheme-Background" d="m 73.999995,16.999935 v 50 l -7,1e-5 v -50 z"/>
  <path style="opacity:0.2" d="m 73,17 v 50 h 1 V 17 Z"/>
 </g>
 <g id="header-bottom" transform="translate(0,0.05999464)">
  <path style="fill:currentColor" class="ColorScheme-Background" d="m 6.999975,107.939 h 50.00002 v -6 H 6.999985 Z"/>
  <path style="opacity:0.2" d="m 7,107.93893 v 1 h 50 v -1 z"/>
 </g>
 <g id="header-top" transform="translate(-10,34.998925)">
  <path style="fill:currentColor" class="ColorScheme-Background" d="m 16.999975,9.999935 h 50.00002 v 7 h -50.00001 z"/>
  <path style="opacity:0.2" d="m 17,10 v 1 h 50 v -1 z"/>
 </g>
 <g id="header-topright" transform="translate(-10,34.998925)">
  <path style="fill:currentColor" class="ColorScheme-Background" d="m 66.999995,9.999935 v 7 h 7 v -2 c 0,-2.77 -2.23,-5 -5,-5 z"/>
  <path style="opacity:0.2" d="m 67,10 v 1 h 2 c 2.233297,0 4,1.766703 4,4 v 2 h 1 v -2 c 0,-2.77 -2.23,-5 -5,-5 z"/>
 </g>
 <g id="header-topleft" transform="translate(-10,34.998925)">
  <path style="fill:currentColor" class="ColorScheme-Background" d="m 17.000005,9.999935 v 7 h -7 v -2 c 0,-2.77 2.23,-5 5,-5 z"/>
  <path style="opacity:0.2" d="m 15,10 c -2.77,0 -5,2.23 -5,5 v 2 h 1 v -2 c 0,-2.233297 1.766703,-4 4,-4 h 2 v -1 z"/>
 </g>
 <rect id="hint-top-margin" style="fill:#ff0000" width="4" height="7" x="29" y="52"/>
 <rect id="hint-bottom-margin" style="fill:#ff0000" width="4" height="7" x="29" y="95"/>
 <rect id="hint-left-margin" style="fill:#ff0000" width="7" height="4" x="7" y="74"/>
 <rect id="hint-right-margin" style="fill:#ff0000" width="7" height="4" x="50" y="74"/>
 <rect id="hint-tile-center" style="fill:#ff0000" width="5" height="5" x="0" y="0"/>
 <g id="header-bottomleft" transform="translate(0,0.05999464)">
  <rect style="fill:currentColor" class="ColorScheme-Background" width="7" height="6" x="0" y="101.94"/>
  <rect style="opacity:0.2" width="7" height="1" x="0" y="107.94"/>
  <rect style="opacity:0.2" width="1" height="6" x="0" y="101.94"/>
 </g>
 <g id="header-bottomright" transform="matrix(-1,0,0,1,64,0.06099464)">
  <rect style="fill:currentColor" class="ColorScheme-Background" width="7" height="6" x="0" y="101.94"/>
  <rect style="opacity:0.2" width="7" height="1" x="0" y="107.94"/>
  <rect style="opacity:0.2" width="1" height="6" x="0" y="101.94"/>
 </g>
</svg>
