<?xml version="1.0" encoding="UTF-8" standalone="no"?>
<!-- Created with Inkscape (http://www.inkscape.org/) -->

<svg
   xmlns:dc="http://purl.org/dc/elements/1.1/"
   xmlns:cc="http://creativecommons.org/ns#"
   xmlns:rdf="http://www.w3.org/1999/02/22-rdf-syntax-ns#"
   xmlns:svg="http://www.w3.org/2000/svg"
   xmlns="http://www.w3.org/2000/svg"
   xmlns:sodipodi="http://sodipodi.sourceforge.net/DTD/sodipodi-0.dtd"
   xmlns:inkscape="http://www.inkscape.org/namespaces/inkscape"
   width="48"
   height="98"
   id="svg3642"
   sodipodi:version="0.32"
   inkscape:version="0.91 r13725"
   sodipodi:docname="scrollbar.svg"
   inkscape:output_extension="org.inkscape.output.svgz.inkscape"
   version="1.0">
  <sodipodi:namedview
     id="base"
     pagecolor="#eff0f1"
     bordercolor="#666666"
     borderopacity="1.0"
     inkscape:pageopacity="1"
     inkscape:pageshadow="2"
     inkscape:zoom="15.46356"
     inkscape:cx="47.841764"
     inkscape:cy="62.549229"
     inkscape:current-layer="layer1"
     showgrid="true"
     inkscape:grid-bbox="true"
     inkscape:document-units="px"
     inkscape:window-width="1600"
     inkscape:window-height="843"
     inkscape:window-x="0"
     inkscape:window-y="0"
     width="48px"
     height="48px"
     showguides="true"
     inkscape:guide-bbox="true"
     objecttolerance="9"
     gridtolerance="13"
     inkscape:window-maximized="1">
    <inkscape:grid
       visible="true"
       enabled="true"
       id="grid2555"
       type="xygrid"
       empspacing="5"
       snapvisiblegridlinesonly="true"
       color="#0000ff"
       opacity="0.01960784"
       empcolor="#0000ff"
       empopacity="0.03921569" />
  </sodipodi:namedview>
  <defs
     id="defs3644">
    <style
       id="current-color-scheme"
       type="text/css">
      .ColorScheme-Text {
        color:#d3dae3;
        stop-color:#d3dae3;
      }
      .ColorScheme-Highlight {
        color:#5294e2;
        stop-color:#5294e2;
      }
      </style>
  </defs>
  <metadata
     id="metadata3647">
    <rdf:RDF>
      <cc:Work
         rdf:about="">
        <dc:format>image/svg+xml</dc:format>
        <dc:type
           rdf:resource="http://purl.org/dc/dcmitype/StillImage" />
      </cc:Work>
      <cc:Work
         rdf:about="">
        <dc:format>image/svg+xml</dc:format>
        <dc:type
           rdf:resource="http://purl.org/dc/dcmitype/StillImage" />
      </cc:Work>
    </rdf:RDF>
  </metadata>
  <g
     inkscape:groupmode="layer"
     inkscape:label="Layer 1"
     id="layer1">
    <rect
       style="fill:currentColor;fill-opacity:1;fill-rule:evenodd;stroke:none;opacity:0.2"
       id="slider-center"
       width="1"
       height="10"
       x="24"
       y="20"
       class="ColorScheme-Text" />
    <g
       id="slider-right"
       transform="matrix(0.75,0,0,1,19.25,13)">
      <path
         id="rect3838"
         d="M 9,7 9,17 13,17 13,7 9,7 z"
         style="fill:currentColor;fill-opacity:1;fill-rule:evenodd;stroke:none;opacity:0.2"
         inkscape:connector-curvature="0"
         class="ColorScheme-Text" />
      <rect
         style="opacity:0.01000001;fill:#e4e6e8;fill-opacity:1;stroke:none"
         id="rect3856"
         width="1"
         height="10"
         x="29"
         y="20"
         transform="matrix(1.3333333,0,0,1,-25.666667,-13)" />
    </g>
    <g
       id="slider-topright"
       transform="matrix(0.75,0,0,0.75,19.25,13.75)">
      <rect
         style="opacity:0.01000001;fill:#e4e6e8;fill-opacity:1;stroke:none"
         id="rect3852"
         width="4"
         height="4"
         x="26"
         y="15"
         transform="matrix(1.3333333,0,0,1.3333333,-25.666667,-18.333333)" />
      <path
         id="rect3840"
         d="m 9,3 0,4 4,0 C 13,4.784 11.216,3 9,3 z"
         style="fill:currentColor;fill-opacity:1;fill-rule:evenodd;stroke:none;opacity:0.2"
         inkscape:connector-curvature="0"
         class="ColorScheme-Text" />
    </g>
    <g
       id="slider-bottomright"
       transform="matrix(0.75,0,0,0.75,19.25,18.25)">
      <rect
         style="opacity:0.01000001;fill:#e4e6e8;fill-opacity:1;stroke:none"
         id="rect3862"
         width="4"
         height="4"
         x="26"
         y="31"
         transform="matrix(1.3333333,0,0,1.3333333,-25.666667,-24.333333)" />
      <path
         inkscape:connector-curvature="0"
         style="opacity:0.2;fill:currentColor;fill-opacity:1;fill-rule:evenodd;stroke:none"
         d="m 9,21 0,-4 4,0 c 0,2.216 -1.784,4 -4,4 z"
         id="path3871"
         class="ColorScheme-Text" />
    </g>
    <g
       id="slider-left"
       transform="matrix(-0.75,0,0,1,29.75,13)">
      <path
         style="fill:currentColor;fill-opacity:1;fill-rule:evenodd;stroke:none;opacity:0.2"
         d="M 9,7 9,17 13,17 13,7 9,7 z"
         id="path3891"
         inkscape:connector-curvature="0"
         class="ColorScheme-Text" />
      <rect
         style="opacity:0.01000001;fill:#e4e6e8;fill-opacity:1;stroke:none"
         id="rect3854"
         width="1"
         height="10"
         x="19"
         y="20"
         transform="matrix(-1.3333333,0,0,1,39.666667,-13)" />
    </g>
    <g
       id="slider-topleft"
       transform="matrix(-0.75,0,0,0.75,29.75,13.75)">
      <rect
         style="fill:#e4e6e8;fill-opacity:1;stroke:none;opacity:0.01"
         id="rect3848"
         width="4"
         height="4"
         x="19"
         y="15"
         transform="matrix(-1.3333333,0,0,1.3333333,39.666667,-18.333333)" />
      <path
         style="fill:currentColor;fill-opacity:1;fill-rule:evenodd;stroke:none;opacity:0.2"
         d="m 9,3 0,4 4,0 C 13,4.784 11.216,3 9,3 z"
         id="path3895"
         inkscape:connector-curvature="0"
         class="ColorScheme-Text" />
    </g>
    <g
       id="slider-bottomleft"
       transform="matrix(-0.75,0,0,0.75,29.75,18.25)">
      <rect
         style="opacity:0.01000001;fill:#e4e6e8;fill-opacity:1;stroke:none"
         id="rect3858"
         width="4"
         height="4"
         x="19"
         y="31"
         transform="matrix(-1.3333333,0,0,1.3333333,39.666667,-24.333333)" />
      <path
         id="path3901"
         d="m 9,21 0,-4 4,0 c 0,2.216 -1.784,4 -4,4 z"
         style="fill:currentColor;fill-opacity:1;fill-rule:evenodd;stroke:none;opacity:0.2"
         inkscape:connector-curvature="0"
         class="ColorScheme-Text" />
    </g>
    <g
       transform="matrix(0,-0.75,-0.1,0,25.7,25.75)"
       id="slider-top">
      <rect
         style="opacity:0.01000001;fill:#e4e6e8;fill-opacity:1;stroke:none"
         id="rect3850"
         width="1"
         height="4"
         x="24"
         y="15"
         transform="matrix(0,-10,-1.3333333,0,34.333333,257)" />
      <path
         inkscape:connector-curvature="0"
         id="path3909"
         d="M 9,7 9,17 13,17 13,7 9,7 z"
         style="fill:currentColor;fill-opacity:1;fill-rule:evenodd;stroke:none;opacity:0.2"
         class="ColorScheme-Text" />
    </g>
    <g
       id="slider-bottom"
       transform="matrix(0,0.75,-0.1,0,25.7,24.25)">
      <rect
         style="opacity:0.01000001;fill:#e4e6e8;fill-opacity:1;stroke:none"
         id="rect3860"
         width="1"
         height="4"
         x="24"
         y="31"
         transform="matrix(0,-10,1.3333333,0,-32.333333,257)" />
      <path
         style="fill:currentColor;fill-opacity:1;fill-rule:evenodd;stroke:none;opacity:0.2"
         d="M 9,7 9,17 13,17 13,7 9,7 z"
         id="path3915"
         inkscape:connector-curvature="0"
         class="ColorScheme-Text" />
    </g>
    <rect
       ry="8"
       rx="0"
       y="25"
       x="4"
       height="8"
       width="8"
       id="hint-scrollbar-size"
       style="fill:#4e9a06;fill-opacity:1;fill-rule:nonzero;stroke:none" />
    <rect
       style="fill:#4e9a06;fill-opacity:1;fill-rule:nonzero;stroke:none"
       id="hint-tile-center"
       width="2.0329318"
       height="2.077126"
       x="7.2599602"
       y="11.659418"
       rx="0"
       ry="2.077126" />
    <g
       id="background-vertical-right"
       transform="matrix(0.75,0,0,1,33.25,13)"
       inkscape:label="#slider-right-1">
      <path
         id="rect3838-1"
         d="M 9,7 9,17 13,17 13,7 9,7 z"
         style="fill:currentColor;fill-opacity:1;fill-rule:evenodd;stroke:none;opacity:0"
         inkscape:connector-curvature="0"
         class="ColorScheme-Text" />
      <rect
         style="opacity:0.01000001;fill:#e4e6e8;fill-opacity:1;stroke:none"
         id="rect3872"
         width="1"
         height="10"
         x="43"
         y="20"
         transform="matrix(1.3333333,0,0,1,-44.333333,-13)" />
      <path
         class="ColorScheme-Text"
         inkscape:connector-curvature="0"
         style="opacity:0.1;fill:currentColor;fill-opacity:1;fill-rule:evenodd;stroke:none"
         d="M 9,7 9,17 13,17 13,7 9,7 Z"
         id="path4264" />
    </g>
    <g
       id="background-vertical-topright"
       transform="matrix(0.75,0,0,0.75,33.25,13.75)"
       inkscape:label="#slider-topright-5">
      <rect
         style="opacity:0.01000001;fill:#e4e6e8;fill-opacity:1;stroke:none"
         id="rect3868"
         width="4"
         height="4"
         x="40"
         y="15"
         transform="matrix(1.3333333,0,0,1.3333333,-44.333333,-18.333333)" />
      <path
         id="rect3840-1"
         d="m 9,3 0,4 4,0 C 13,4.784 11.216,3 9,3 z"
         style="fill:currentColor;fill-opacity:1;fill-rule:evenodd;stroke:none;opacity:0"
         inkscape:connector-curvature="0"
         class="ColorScheme-Text" />
      <path
         class="ColorScheme-Text"
         inkscape:connector-curvature="0"
         style="opacity:0.1;fill:currentColor;fill-opacity:1;fill-rule:evenodd;stroke:none"
         d="m 9,3 0,4 4,0 C 13,4.784 11.216,3 9,3 Z"
         id="path4278" />
    </g>
    <g
       id="background-vertical-bottomright"
       transform="matrix(0.75,0,0,0.75,33.25,18.25)"
       inkscape:label="#slider-bottomright-2">
      <rect
         style="opacity:0.01000001;fill:#e4e6e8;fill-opacity:1;stroke:none"
         id="rect3878"
         width="4"
         height="4"
         x="40"
         y="31"
         transform="matrix(1.3333333,0,0,1.3333333,-44.333333,-24.333333)" />
      <path
         inkscape:connector-curvature="0"
         style="fill:currentColor;fill-opacity:1;fill-rule:evenodd;stroke:none;opacity:0"
         d="m 9,21 0,-4 4,0 c 0,2.216 -1.784,4 -4,4 z"
         id="path3871-2"
         class="ColorScheme-Text" />
      <path
         class="ColorScheme-Text"
         id="path4284"
         d="m 9,21 0,-4 4,0 c 0,2.216 -1.784,4 -4,4 z"
         style="opacity:0.1;fill:currentColor;fill-opacity:1;fill-rule:evenodd;stroke:none"
         inkscape:connector-curvature="0" />
    </g>
    <g
       id="background-vertical-left"
       transform="matrix(-0.75,0,0,1,43.75,13)"
       inkscape:label="#slider-left-4">
      <path
         style="opacity:0;fill:currentColor;fill-opacity:1;fill-rule:evenodd;stroke:none"
         d="M 9,7 9,17 13,17 13,7 9,7 z"
         id="path3891-2"
         inkscape:connector-curvature="0"
         class="ColorScheme-Text" />
      <rect
         style="opacity:0.01000001;fill:#e4e6e8;fill-opacity:1;stroke:none"
         id="rect3870"
         width="1"
         height="10"
         x="33"
         y="20"
         transform="matrix(-1.3333333,0,0,1,58.333333,-13)" />
      <path
         class="ColorScheme-Text"
         inkscape:connector-curvature="0"
         id="path4262"
         d="M 9,7 9,17 13,17 13,7 9,7 Z"
         style="opacity:0.1;fill:currentColor;fill-opacity:1;fill-rule:evenodd;stroke:none" />
    </g>
    <g
       id="background-vertical-topleft"
       transform="matrix(-0.75,0,0,0.75,43.75,13.75)"
       inkscape:label="#slider-topleft-8">
      <rect
         style="opacity:0.01000001;fill:#e4e6e8;fill-opacity:1;stroke:none"
         id="rect3864"
         width="4"
         height="4"
         x="33"
         y="15"
         transform="matrix(-1.3333333,0,0,1.3333333,58.333333,-18.333333)" />
      <path
         style="fill:currentColor;fill-opacity:1;fill-rule:evenodd;stroke:none;opacity:0"
         d="m 9,3 0,4 4,0 C 13,4.784 11.216,3 9,3 z"
         id="path3895-9"
         inkscape:connector-curvature="0"
         class="ColorScheme-Text" />
      <path
         class="ColorScheme-Text"
         inkscape:connector-curvature="0"
         id="path4274"
         d="m 9,3 0,4 4,0 C 13,4.784 11.216,3 9,3 Z"
         style="opacity:0.1;fill:currentColor;fill-opacity:1;fill-rule:evenodd;stroke:none" />
    </g>
    <g
       id="background-vertical-bottomleft"
       transform="matrix(-0.75,0,0,0.75,43.75,18.25)"
       inkscape:label="#slider-bottomleft-2">
      <rect
         style="opacity:0.01000001;fill:#e4e6e8;fill-opacity:1;stroke:none"
         id="rect3874"
         width="4"
         height="4"
         x="33"
         y="31"
         transform="matrix(-1.3333333,0,0,1.3333333,58.333333,-24.333333)" />
      <path
         id="path3901-7"
         d="m 9,21 0,-4 4,0 c 0,2.216 -1.784,4 -4,4 z"
         style="fill:currentColor;fill-opacity:1;fill-rule:evenodd;stroke:none;opacity:0"
         inkscape:connector-curvature="0"
         class="ColorScheme-Text" />
      <path
         class="ColorScheme-Text"
         inkscape:connector-curvature="0"
         style="opacity:0.1;fill:currentColor;fill-opacity:1;fill-rule:evenodd;stroke:none"
         d="m 9,21 0,-4 4,0 c 0,2.216 -1.784,4 -4,4 z"
         id="path4280" />
    </g>
    <g
       transform="matrix(0,-0.75,-0.1,0,39.7,25.75)"
       id="background-vertical-top"
       inkscape:label="#slider-top-0">
      <rect
         style="opacity:0.01000001;fill:#e4e6e8;fill-opacity:1;stroke:none"
         id="rect3866"
         width="1"
         height="4"
         x="38"
         y="15"
         transform="matrix(0,-10,-1.3333333,0,34.333333,397)" />
      <path
         inkscape:connector-curvature="0"
         id="path3909-8"
         d="M 9,7 9,17 13,17 13,7 9,7 z"
         style="fill:currentColor;fill-opacity:1;fill-rule:evenodd;stroke:none;opacity:0"
         class="ColorScheme-Text" />
      <path
         class="ColorScheme-Text"
         style="opacity:0.1;fill:currentColor;fill-opacity:1;fill-rule:evenodd;stroke:none"
         d="M 9,7 9,17 13,17 13,7 9,7 Z"
         id="path4276"
         inkscape:connector-curvature="0" />
    </g>
    <g
       id="background-vertical-bottom"
       transform="matrix(0,0.75,-0.1,0,39.7,24.25)"
       inkscape:label="#slider-bottom-2">
      <rect
         style="opacity:0.01000001;fill:#e4e6e8;fill-opacity:1;stroke:none"
         id="rect3876"
         width="1"
         height="4"
         x="38"
         y="31"
         transform="matrix(0,-10,1.3333333,0,-32.333333,397)" />
      <path
         style="fill:currentColor;fill-opacity:1;fill-rule:evenodd;stroke:none;opacity:0"
         d="M 9,7 9,17 13,17 13,7 9,7 z"
         id="path3915-5"
         inkscape:connector-curvature="0"
         class="ColorScheme-Text" />
      <path
         class="ColorScheme-Text"
         inkscape:connector-curvature="0"
         id="path4282"
         d="M 9,7 9,17 13,17 13,7 9,7 Z"
         style="opacity:0.1;fill:currentColor;fill-opacity:1;fill-rule:evenodd;stroke:none" />
    </g>
    <rect
       style="fill:currentColor;fill-rule:evenodd;stroke:none;fill-opacity:1"
       id="sunken-slider-center"
       width="1"
       height="10"
       x="24"
       y="64"
       class="ColorScheme-Highlight"
       inkscape:label="#slider-center-6" />
    <g
       id="sunken-slider-right"
       transform="matrix(0.75,0,0,1,19.25,57)"
       inkscape:label="#slider-right-9">
      <path
         id="rect3838-4-8"
         d="M 9,7 9,17 13,17 13,7 9,7 z"
         style="fill:currentColor;fill-rule:evenodd;stroke:none;fill-opacity:1"
         inkscape:connector-curvature="0"
         class="ColorScheme-Highlight" />
      <rect
         style="opacity:0.01000001;fill:#e4e6e8;fill-opacity:1;stroke:none"
         id="rect3924"
         width="1"
         height="10"
         x="29"
         y="64"
         transform="matrix(1.3333333,0,0,1,-25.666667,-57)" />
    </g>
    <g
       id="sunken-slider-topright"
       transform="matrix(0.75,0,0,0.75,19.25,57.75)"
       inkscape:label="#slider-topright-4">
      <rect
         style="opacity:0.01000001;fill:#e4e6e8;fill-opacity:1;stroke:none"
         id="rect3920"
         width="4"
         height="4"
         x="26"
         y="59"
         transform="matrix(1.3333333,0,0,1.3333333,-25.666667,-77)" />
      <path
         id="rect3840-2-9"
         d="m 9,3 0,4 4,0 C 13,4.784 11.216,3 9,3 z"
         style="fill:currentColor;fill-rule:evenodd;stroke:none;fill-opacity:1"
         inkscape:connector-curvature="0"
         class="ColorScheme-Highlight" />
    </g>
    <g
       id="sunken-slider-bottomright"
       transform="matrix(0.75,0,0,0.75,19.25,62.25)"
       inkscape:label="#slider-bottomright-7">
      <rect
         style="opacity:0.01000001;fill:#e4e6e8;fill-opacity:1;stroke:none"
         id="rect3930"
         width="4"
         height="4"
         x="26"
         y="75"
         transform="matrix(1.3333333,0,0,1.3333333,-25.666667,-83)" />
      <path
         inkscape:connector-curvature="0"
         style="fill:currentColor;fill-rule:evenodd;stroke:none;fill-opacity:1"
         d="m 9,21 0,-4 4,0 c 0,2.216 -1.784,4 -4,4 z"
         id="path3871-1-7"
         class="ColorScheme-Highlight" />
    </g>
    <g
       id="sunken-slider-left"
       transform="matrix(-0.75,0,0,1,29.75,57)"
       inkscape:label="#slider-left-5">
      <path
         style="fill:currentColor;fill-rule:evenodd;stroke:none;fill-opacity:1"
         d="M 9,7 9,17 13,17 13,7 9,7 z"
         id="path3891-9-4"
         inkscape:connector-curvature="0"
         class="ColorScheme-Highlight" />
      <rect
         style="opacity:0.01000001;fill:#e4e6e8;fill-opacity:1;stroke:none"
         id="rect3922"
         width="1"
         height="10"
         x="19"
         y="64"
         transform="matrix(-1.3333333,0,0,1,39.666667,-57)" />
    </g>
    <g
       id="sunken-slider-topleft"
       transform="matrix(-0.75,0,0,0.75,29.75,57.75)"
       inkscape:label="#slider-topleft-2">
      <rect
         style="opacity:0.01000001;fill:#e4e6e8;fill-opacity:1;stroke:none"
         id="rect3916"
         width="4"
         height="4"
         x="19"
         y="59"
         transform="matrix(-1.3333333,0,0,1.3333333,39.666667,-77)" />
      <path
         style="fill:currentColor;fill-rule:evenodd;stroke:none;fill-opacity:1"
         d="m 9,3 0,4 4,0 C 13,4.784 11.216,3 9,3 z"
         id="path3895-2-1"
         inkscape:connector-curvature="0"
         class="ColorScheme-Highlight" />
    </g>
    <g
       id="sunken-slider-bottomleft"
       transform="matrix(-0.75,0,0,0.75,29.75,62.25)"
       inkscape:label="#slider-bottomleft-5">
      <rect
         style="opacity:0.01000001;fill:#e4e6e8;fill-opacity:1;stroke:none"
         id="rect3926"
         width="4"
         height="4"
         x="19"
         y="75"
         transform="matrix(-1.3333333,0,0,1.3333333,39.666667,-83)" />
      <path
         id="path3901-9-9"
         d="m 9,21 0,-4 4,0 c 0,2.216 -1.784,4 -4,4 z"
         style="fill:currentColor;fill-rule:evenodd;stroke:none;fill-opacity:1"
         inkscape:connector-curvature="0"
         class="ColorScheme-Highlight" />
    </g>
    <g
       transform="matrix(0,-0.75,-0.1,0,25.7,69.75)"
       id="sunken-slider-top"
       inkscape:label="#slider-top-5">
      <rect
         style="opacity:0.01000001;fill:#e4e6e8;fill-opacity:1;stroke:none"
         id="rect3918"
         width="1"
         height="4"
         x="24"
         y="59"
         transform="matrix(0,-10,-1.3333333,0,93,257)" />
      <path
         inkscape:connector-curvature="0"
         id="path3909-6-1"
         d="M 9,7 9,17 13,17 13,7 9,7 z"
         style="fill:currentColor;fill-rule:evenodd;stroke:none;fill-opacity:1"
         class="ColorScheme-Highlight" />
    </g>
    <g
       id="sunken-slider-bottom"
       transform="matrix(0,0.75,-0.1,0,25.7,68.25)"
       inkscape:label="#slider-bottom-0">
      <rect
         style="opacity:0.01000001;fill:#e4e6e8;fill-opacity:1;stroke:none"
         id="rect3928"
         width="1"
         height="4"
         x="24"
         y="75"
         transform="matrix(0,-10,1.3333333,0,-91,257)" />
      <path
         style="fill:currentColor;fill-rule:evenodd;stroke:none;fill-opacity:1"
         d="M 9,7 9,17 13,17 13,7 9,7 z"
         id="path3915-6-3"
         inkscape:connector-curvature="0"
         class="ColorScheme-Highlight" />
    </g>
    <rect
       inkscape:label="#slider-center-6"
       class="ColorScheme-Highlight"
       y="42"
       x="24"
       height="10"
       width="1"
       id="mouseover-slider-center"
       style="fill:currentColor;fill-opacity:1;fill-rule:evenodd;stroke:none;opacity:1" />
    <g
       inkscape:label="#slider-right-9"
       transform="matrix(0.75,0,0,1,19.250001,35)"
       id="mouseover-slider-right">
      <path
         class="ColorScheme-Highlight"
         inkscape:connector-curvature="0"
         style="fill:currentColor;fill-opacity:1;fill-rule:evenodd;stroke:none;opacity:1"
         d="M 9,7 9,17 13,17 13,7 9,7 z"
         id="path3963" />
      <rect
         transform="matrix(1.3333333,0,0,1,-25.666667,-57)"
         y="64"
         x="29"
         height="10"
         width="1"
         id="rect3965"
         style="opacity:0.01000001;fill:#e4e6e8;fill-opacity:1;stroke:none" />
    </g>
    <g
       inkscape:label="#slider-topright-4"
       transform="matrix(0.75,0,0,0.75,19.250001,35.75)"
       id="mouseover-slider-topright">
      <rect
         transform="matrix(1.3333333,0,0,1.3333333,-25.666667,-77)"
         y="59"
         x="26"
         height="4"
         width="4"
         id="rect3969"
         style="opacity:0.01000001;fill:#e4e6e8;fill-opacity:1;stroke:none" />
      <path
         class="ColorScheme-Highlight"
         inkscape:connector-curvature="0"
         style="fill:currentColor;fill-opacity:1;fill-rule:evenodd;stroke:none;opacity:1"
         d="m 9,3 0,4 4,0 C 13,4.784 11.216,3 9,3 z"
         id="path3971" />
    </g>
    <g
       inkscape:label="#slider-bottomright-7"
       transform="matrix(0.75,0,0,0.75,19.250001,40.25)"
       id="mouseover-slider-bottomright">
      <rect
         transform="matrix(1.3333333,0,0,1.3333333,-25.666667,-83)"
         y="75"
         x="26"
         height="4"
         width="4"
         id="rect3975"
         style="opacity:0.01000001;fill:#e4e6e8;fill-opacity:1;stroke:none" />
      <path
         class="ColorScheme-Highlight"
         id="path3977"
         d="m 9,21 0,-4 4,0 c 0,2.216 -1.784,4 -4,4 z"
         style="fill:currentColor;fill-opacity:1;fill-rule:evenodd;stroke:none;opacity:1"
         inkscape:connector-curvature="0" />
    </g>
    <g
       inkscape:label="#slider-left-5"
       transform="matrix(-0.75,0,0,1,29.750001,35)"
       id="mouseover-slider-left">
      <path
         class="ColorScheme-Highlight"
         inkscape:connector-curvature="0"
         id="path3981"
         d="M 9,7 9,17 13,17 13,7 9,7 z"
         style="fill:currentColor;fill-opacity:1;fill-rule:evenodd;stroke:none;opacity:1" />
      <rect
         transform="matrix(-1.3333333,0,0,1,39.666667,-57)"
         y="64"
         x="19"
         height="10"
         width="1"
         id="rect3983"
         style="opacity:0.01000001;fill:#e4e6e8;fill-opacity:1;stroke:none" />
    </g>
    <g
       inkscape:label="#slider-topleft-2"
       transform="matrix(-0.75,0,0,0.75,29.750001,35.75)"
       id="mouseover-slider-topleft">
      <rect
         transform="matrix(-1.3333333,0,0,1.3333333,39.666667,-77)"
         y="59"
         x="19"
         height="4"
         width="4"
         id="rect3987"
         style="opacity:0.01000001;fill:#e4e6e8;fill-opacity:1;stroke:none" />
      <path
         class="ColorScheme-Highlight"
         inkscape:connector-curvature="0"
         id="path3989"
         d="m 9,3 0,4 4,0 C 13,4.784 11.216,3 9,3 z"
         style="fill:currentColor;fill-opacity:1;fill-rule:evenodd;stroke:none;opacity:1" />
    </g>
    <g
       inkscape:label="#slider-bottomleft-5"
       transform="matrix(-0.75,0,0,0.75,29.750001,40.25)"
       id="mouseover-slider-bottomleft">
      <rect
         transform="matrix(-1.3333333,0,0,1.3333333,39.666667,-83)"
         y="75"
         x="19"
         height="4"
         width="4"
         id="rect3993"
         style="opacity:0.01000001;fill:#e4e6e8;fill-opacity:1;stroke:none" />
      <path
         class="ColorScheme-Highlight"
         inkscape:connector-curvature="0"
         style="fill:currentColor;fill-opacity:1;fill-rule:evenodd;stroke:none;opacity:1"
         d="m 9,21 0,-4 4,0 c 0,2.216 -1.784,4 -4,4 z"
         id="path3995" />
    </g>
    <g
       inkscape:label="#slider-top-5"
       id="mouseover-slider-top"
       transform="matrix(0,-0.75,-0.1,0,25.700001,47.75)">
      <rect
         transform="matrix(0,-10,-1.3333333,0,93,257)"
         y="59"
         x="24"
         height="4"
         width="1"
         id="rect3999"
         style="opacity:0.01000001;fill:#e4e6e8;fill-opacity:1;stroke:none" />
      <path
         class="ColorScheme-Highlight"
         style="fill:currentColor;fill-opacity:1;fill-rule:evenodd;stroke:none;opacity:1"
         d="M 9,7 9,17 13,17 13,7 9,7 z"
         id="path4001"
         inkscape:connector-curvature="0" />
    </g>
    <g
       inkscape:label="#slider-bottom-0"
       transform="matrix(0,0.75,-0.1,0,25.700001,46.25)"
       id="mouseover-slider-bottom">
      <rect
         transform="matrix(0,-10,1.3333333,0,-91,257)"
         y="75"
         x="24"
         height="4"
         width="1"
         id="rect4005"
         style="opacity:0.01000001;fill:#e4e6e8;fill-opacity:1;stroke:none" />
      <path
         class="ColorScheme-Highlight"
         inkscape:connector-curvature="0"
         id="path4007"
         d="M 9,7 9,17 13,17 13,7 9,7 z"
         style="fill:currentColor;fill-opacity:1;fill-rule:evenodd;stroke:none;opacity:1" />
    </g>
    <g
       id="background-vertical-center">
      <rect
         inkscape:label="#slider-center-1"
         class="ColorScheme-Text"
         y="20"
         x="38"
         height="10"
         width="1"
         id="rect4272"
         style="opacity:0;fill:currentColor;fill-opacity:1;fill-rule:evenodd;stroke:none" />
      <rect
         style="opacity:0.1;fill:currentColor;fill-opacity:1;fill-rule:evenodd;stroke:none"
         id="rect4266"
         width="1"
         height="10"
         x="38"
         y="20"
         class="ColorScheme-Text"
         inkscape:label="#slider-center-1" />
    </g>
    <g
       inkscape:label="#slider-right-1"
       transform="matrix(0.75,0,0,1,33.250001,35.000001)"
       id="background-horizontal-right">
      <path
         class="ColorScheme-Text"
         inkscape:connector-curvature="0"
         style="opacity:0;fill:currentColor;fill-opacity:1;fill-rule:evenodd;stroke:none"
         d="M 9,7 9,17 13,17 13,7 9,7 Z"
         id="path4288" />
      <rect
         transform="matrix(1.3333333,0,0,1,-44.333333,-13)"
         y="20"
         x="43"
         height="10"
         width="1"
         id="rect4290"
         style="opacity:0.01000001;fill:#e4e6e8;fill-opacity:1;stroke:none" />
      <path
         id="path4292"
         d="M 9,7 9,17 13,17 13,7 9,7 Z"
         style="opacity:0.1;fill:currentColor;fill-opacity:1;fill-rule:evenodd;stroke:none"
         inkscape:connector-curvature="0"
         class="ColorScheme-Text" />
    </g>
    <g
       inkscape:label="#slider-topright-5"
       transform="matrix(0.75,0,0,0.75,33.250001,35.750001)"
       id="background-horizontal-topright">
      <rect
         transform="matrix(1.3333333,0,0,1.3333333,-44.333333,-18.333333)"
         y="15"
         x="40"
         height="4"
         width="4"
         id="rect4296"
         style="opacity:0.01000001;fill:#e4e6e8;fill-opacity:1;stroke:none" />
      <path
         class="ColorScheme-Text"
         inkscape:connector-curvature="0"
         style="opacity:0;fill:currentColor;fill-opacity:1;fill-rule:evenodd;stroke:none"
         d="m 9,3 0,4 4,0 C 13,4.784 11.216,3 9,3 Z"
         id="path4298" />
      <path
         id="path4300"
         d="m 9,3 0,4 4,0 C 13,4.784 11.216,3 9,3 Z"
         style="opacity:0.1;fill:currentColor;fill-opacity:1;fill-rule:evenodd;stroke:none"
         inkscape:connector-curvature="0"
         class="ColorScheme-Text" />
    </g>
    <g
       inkscape:label="#slider-bottomright-2"
       transform="matrix(0.75,0,0,0.75,33.250001,40.250001)"
       id="background-horizontal-bottomright">
      <rect
         transform="matrix(1.3333333,0,0,1.3333333,-44.333333,-24.333333)"
         y="31"
         x="40"
         height="4"
         width="4"
         id="rect4304"
         style="opacity:0.01000001;fill:#e4e6e8;fill-opacity:1;stroke:none" />
      <path
         class="ColorScheme-Text"
         id="path4306"
         d="m 9,21 0,-4 4,0 c 0,2.216 -1.784,4 -4,4 z"
         style="opacity:0;fill:currentColor;fill-opacity:1;fill-rule:evenodd;stroke:none"
         inkscape:connector-curvature="0" />
      <path
         inkscape:connector-curvature="0"
         style="opacity:0.1;fill:currentColor;fill-opacity:1;fill-rule:evenodd;stroke:none"
         d="m 9,21 0,-4 4,0 c 0,2.216 -1.784,4 -4,4 z"
         id="path4308"
         class="ColorScheme-Text" />
    </g>
    <g
       transform="matrix(-0.75,0,0,1,43.750001,35.000001)"
       id="background-horizontal-left">
      <path
         class="ColorScheme-Text"
         inkscape:connector-curvature="0"
         id="path4312"
         d="M 9,7 9,17 13,17 13,7 9,7 Z"
         style="opacity:0;fill:currentColor;fill-opacity:1;fill-rule:evenodd;stroke:none" />
      <rect
         transform="matrix(-1.3333333,0,0,1,58.333333,-13)"
         y="20"
         x="33"
         height="10"
         width="1"
         id="rect4314"
         style="opacity:0.01000001;fill:#e4e6e8;fill-opacity:1;stroke:none" />
      <path
         style="opacity:0.1;fill:currentColor;fill-opacity:1;fill-rule:evenodd;stroke:none"
         d="M 9,7 9,17 13,17 13,7 9,7 Z"
         id="path4316"
         inkscape:connector-curvature="0"
         class="ColorScheme-Text" />
    </g>
    <g
       inkscape:label="#slider-topleft-8"
       transform="matrix(-0.75,0,0,0.75,43.750001,35.750001)"
       id="background-horizontal-topleft">
      <rect
         transform="matrix(-1.3333333,0,0,1.3333333,58.333333,-18.333333)"
         y="15"
         x="33"
         height="4"
         width="4"
         id="rect4320"
         style="opacity:0.01000001;fill:#e4e6e8;fill-opacity:1;stroke:none" />
      <path
         class="ColorScheme-Text"
         inkscape:connector-curvature="0"
         id="path4322"
         d="m 9,3 0,4 4,0 C 13,4.784 11.216,3 9,3 Z"
         style="opacity:0;fill:currentColor;fill-opacity:1;fill-rule:evenodd;stroke:none" />
      <path
         style="opacity:0.1;fill:currentColor;fill-opacity:1;fill-rule:evenodd;stroke:none"
         d="m 9,3 0,4 4,0 C 13,4.784 11.216,3 9,3 Z"
         id="path4324"
         inkscape:connector-curvature="0"
         class="ColorScheme-Text" />
    </g>
    <g
       inkscape:label="#slider-bottomleft-2"
       transform="matrix(-0.75,0,0,0.75,43.750001,40.250001)"
       id="background-horizontal-bottomleft">
      <rect
         transform="matrix(-1.3333333,0,0,1.3333333,58.333333,-24.333333)"
         y="31"
         x="33"
         height="4"
         width="4"
         id="rect4328"
         style="opacity:0.01000001;fill:#e4e6e8;fill-opacity:1;stroke:none" />
      <path
         class="ColorScheme-Text"
         inkscape:connector-curvature="0"
         style="opacity:0;fill:currentColor;fill-opacity:1;fill-rule:evenodd;stroke:none"
         d="m 9,21 0,-4 4,0 c 0,2.216 -1.784,4 -4,4 z"
         id="path4330" />
      <path
         id="path4332"
         d="m 9,21 0,-4 4,0 c 0,2.216 -1.784,4 -4,4 z"
         style="opacity:0.1;fill:currentColor;fill-opacity:1;fill-rule:evenodd;stroke:none"
         inkscape:connector-curvature="0"
         class="ColorScheme-Text" />
    </g>
    <g
       inkscape:label="#slider-top-0"
       id="background-horizontal-top"
       transform="matrix(0,-0.75,-0.1,0,39.700001,47.750001)">
      <rect
         transform="matrix(0,-10,-1.3333333,0,34.333333,397)"
         y="15"
         x="38"
         height="4"
         width="1"
         id="rect4336"
         style="opacity:0.01000001;fill:#e4e6e8;fill-opacity:1;stroke:none" />
      <path
         class="ColorScheme-Text"
         style="opacity:0;fill:currentColor;fill-opacity:1;fill-rule:evenodd;stroke:none"
         d="M 9,7 9,17 13,17 13,7 9,7 Z"
         id="path4338"
         inkscape:connector-curvature="0" />
      <path
         inkscape:connector-curvature="0"
         id="path4340"
         d="M 9,7 9,17 13,17 13,7 9,7 Z"
         style="opacity:0.1;fill:currentColor;fill-opacity:1;fill-rule:evenodd;stroke:none"
         class="ColorScheme-Text" />
    </g>
    <g
       inkscape:label="#slider-bottom-2"
       transform="matrix(0,0.75,-0.1,0,39.700001,46.250001)"
       id="background-horizontal-bottom">
      <rect
         transform="matrix(0,-10,1.3333333,0,-32.333333,397)"
         y="31"
         x="38"
         height="4"
         width="1"
         id="rect4344"
         style="opacity:0.01000001;fill:#e4e6e8;fill-opacity:1;stroke:none" />
      <path
         class="ColorScheme-Text"
         inkscape:connector-curvature="0"
         id="path4346"
         d="M 9,7 9,17 13,17 13,7 9,7 Z"
         style="opacity:0;fill:currentColor;fill-opacity:1;fill-rule:evenodd;stroke:none" />
      <path
         style="opacity:0.1;fill:currentColor;fill-opacity:1;fill-rule:evenodd;stroke:none"
         d="M 9,7 9,17 13,17 13,7 9,7 Z"
         id="path4348"
         inkscape:connector-curvature="0"
         class="ColorScheme-Text" />
    </g>
    <g
       id="background-horizontal-center"
       transform="translate(9.35e-7,22.000001)">
      <rect
         style="opacity:0;fill:currentColor;fill-opacity:1;fill-rule:evenodd;stroke:none"
         id="rect4352"
         width="1"
         height="10"
         x="38"
         y="20"
         class="ColorScheme-Text"
         inkscape:label="#slider-center-1" />
      <rect
         inkscape:label="#slider-center-1"
         class="ColorScheme-Text"
         y="20"
         x="38"
         height="10"
         width="1"
         id="rect4354"
         style="opacity:0.1;fill:currentColor;fill-opacity:1;fill-rule:evenodd;stroke:none" />
    </g>
  </g>
</svg>
