<svg xmlns="http://www.w3.org/2000/svg" width="29" height="43" version="1">
<defs>
  <style id="current-color-scheme" type="text/css">
   .ColorScheme-Background {color:#2f343f; } .ColorScheme-ButtonBackground { color:#444a58; } .ColorScheme-Highlight { color:#5294e2; } .ColorScheme-Text { color:#d3dae3; } .ColorScheme-NegativeText { color:#f44336; } .ColorScheme-PositiveText { color:#4caf50; } .ColorScheme-NeutralText { color:#ff9800; }
  </style>
 </defs>
 <rect id="hint-scrollbar-size" style="fill:#4e9a06" width="7" height="7" x="0" y="4" rx="0" ry="7"/>
 <rect id="hint-tile-center" style="fill:#4e9a06" width="2" height="2" x="10" y="4" rx="0" ry="2"/>
 <rect id="background-vertical-top" style="opacity:0.001" width="1" height="6" x="6" y="15"/>
 <rect id="background-vertical-center" style="opacity:0.001" width="1" height="1" x="6" y="21"/>
 <rect id="background-vertical-bottom" style="opacity:0.001" width="1" height="6" x="6" y="22"/>
 <g id="background-vertical-topleft" transform="translate(-42,15)">
  <rect style="opacity:0.001" width="6" height="6" x="42" y="0"/>
 </g>
 <g id="background-vertical-bottomleft" transform="translate(-42,15)">
  <rect style="opacity:0.001" width="6" height="6" x="42" y="7"/>
 </g>
 <g id="background-vertical-left" transform="translate(-42,15)">
  <rect style="opacity:0.001" width="6" height="1" x="42" y="6"/>
 </g>
 <g id="background-vertical-topright" transform="translate(-42,15)">
  <rect style="opacity:0.001" width="6" height="6" x="49" y="0"/>
 </g>
 <g id="background-vertical-bottomright" transform="translate(-42,15)">
  <rect style="opacity:0.001" width="6" height="6" x="49" y="7"/>
 </g>
 <g id="background-vertical-right" transform="translate(-42,15)">
  <rect style="opacity:0.001" width="6" height="1" x="49" y="6"/>
 </g>
 <rect id="background-horizontal-right" style="opacity:0.001" width="1" height="6" x="36" y="-13" transform="rotate(90)"/>
 <rect id="background-horizontal-center" style="opacity:0.001" width="1" height="1" x="36" y="-7" transform="rotate(90)"/>
 <rect id="background-horizontal-left" style="opacity:0.001" width="1" height="6" x="36" y="-6" transform="rotate(90)"/>
 <g id="background-horizontal-topright" transform="rotate(90,12.5,0.5)">
  <rect style="opacity:0.001" width="6" height="6" x="42" y="0"/>
 </g>
 <g id="background-horizontal-topleft" transform="rotate(90,12.5,0.5)">
  <rect style="opacity:0.001" width="6" height="6" x="42" y="7"/>
 </g>
 <g id="background-horizontal-top" transform="rotate(90,12.5,0.5)">
  <rect style="opacity:0.001" width="6" height="1" x="42" y="6"/>
 </g>
 <g id="background-horizontal-bottomright" transform="rotate(90,12.5,0.5)">
  <rect style="opacity:0.001" width="6" height="6" x="49" y="0"/>
 </g>
 <g id="background-horizontal-bottomleft" transform="rotate(90,12.5,0.5)">
  <rect style="opacity:0.001" width="6" height="6" x="49" y="7"/>
 </g>
 <g id="background-horizontal-bottom" transform="rotate(90,12.5,0.5)">
  <rect style="opacity:0.001" width="6" height="1" x="49" y="6"/>
 </g>
 <rect id="slider-center" style="opacity:0.3;fill:currentColor" class="ColorScheme-Text" width="1" height="1" x="22" y="6"/>
 <g id="slider-topleft" transform="translate(-42)">
  <rect style="opacity:0.001" width="6" height="6" x="58" y="0"/>
  <path style="opacity:0.3;fill:currentColor" class="ColorScheme-Text" d="M 64,4 V 6 H 62 C 62,4.892 62.892,4 64,4 Z"/>
 </g>
 <g id="slider-top" transform="translate(-42)">
  <rect style="opacity:0.001" width="1" height="6" x="64" y="0"/>
  <path style="opacity:0.3;fill:currentColor" class="ColorScheme-Text" d="M 65,6 H 64 V 4 h 1 z"/>
 </g>
 <g id="slider-topright" transform="translate(-42)">
  <rect style="opacity:0.001" width="6" height="6" x="65" y="0"/>
  <path style="opacity:0.3;fill:currentColor" class="ColorScheme-Text" d="m 65,4 v 2 h 2 C 67,4.892 66.108,4 65,4 Z"/>
 </g>
 <g id="slider-bottomleft" transform="translate(-42)">
  <rect style="opacity:0.001" width="6" height="6" x="58" y="7"/>
  <path style="opacity:0.3;fill:currentColor" class="ColorScheme-Text" d="M 64,9 V 7 h -2 c 0,1.108 0.892,2 2,2 z"/>
 </g>
 <g id="slider-bottom" transform="translate(-42)">
  <rect style="opacity:0.001" width="1" height="6" x="64" y="7"/>
  <path style="opacity:0.3;fill:currentColor" class="ColorScheme-Text" d="m 65,7 h -1 v 2 h 1 z"/>
 </g>
 <g id="slider-bottomright" transform="translate(-42)">
  <rect style="opacity:0.001" width="6" height="6" x="65" y="7"/>
  <path style="opacity:0.3;fill:currentColor" class="ColorScheme-Text" d="M 65,9 V 7 h 2 c 0,1.108 -0.892,2 -2,2 z"/>
 </g>
 <g id="slider-left" transform="translate(-42)">
  <rect style="opacity:0.001" width="6" height="1" x="58" y="6"/>
  <path style="opacity:0.3;fill:currentColor" class="ColorScheme-Text" d="M 64,7 V 6 h -2 v 1 z"/>
 </g>
 <g id="slider-right" transform="translate(-42)">
  <rect style="opacity:0.001" width="6" height="1" x="65" y="6"/>
  <path style="opacity:0.3;fill:currentColor" class="ColorScheme-Text" d="M 67,7 V 6 h -2 v 1 z"/>
 </g>
 <rect id="mouseover-slider-center" style="opacity:0.4;fill:currentColor" class="ColorScheme-Text" width="1" height="1" x="22" y="21"/>
 <g id="mouseover-slider-topleft" transform="translate(-42,15)">
  <rect style="opacity:0.001" width="6" height="6" x="58" y="0"/>
  <path style="opacity:0.4;fill:currentColor" class="ColorScheme-Text" d="M 64,3 V 6 H 61 C 61,4.338 62.338,3 64,3 Z"/>
 </g>
 <g id="mouseover-slider-top" transform="translate(-42,15)">
  <rect style="opacity:0.001" width="1" height="6" x="64" y="0"/>
  <path style="opacity:0.4;fill:currentColor" class="ColorScheme-Text" d="M 65,6 H 64 V 3 h 1 z"/>
 </g>
 <g id="mouseover-slider-topright" transform="translate(-42,15)">
  <rect style="opacity:0.001" width="6" height="6" x="65" y="0"/>
  <path style="opacity:0.4;fill:currentColor" class="ColorScheme-Text" d="m 65,3 v 3 h 3 C 68,4.338 66.662,3 65,3 Z"/>
 </g>
 <g id="mouseover-slider-bottomleft" transform="translate(-42,15)">
  <rect style="opacity:0.001" width="6" height="6" x="58" y="7"/>
  <path style="opacity:0.4;fill:currentColor" class="ColorScheme-Text" d="M 64,10 V 7 h -3 c 0,1.662 1.338,3 3,3 z"/>
 </g>
 <g id="mouseover-slider-bottom" transform="translate(-42,15)">
  <rect style="opacity:0.001" width="1" height="6" x="64" y="7"/>
  <path style="opacity:0.4;fill:currentColor" class="ColorScheme-Text" d="m 65,7 h -1 v 3 h 1 z"/>
 </g>
 <g id="mouseover-slider-bottomright" transform="translate(-42,15)">
  <rect style="opacity:0.001" width="6" height="6" x="65" y="7"/>
  <path style="opacity:0.4;fill:currentColor" class="ColorScheme-Text" d="M 65,10 V 7 h 3 c 0,1.662 -1.338,3 -3,3 z"/>
 </g>
 <g id="mouseover-slider-left" transform="translate(-42,15)">
  <rect style="opacity:0.001" width="6" height="1" x="58" y="6"/>
  <path style="opacity:0.4;fill:currentColor" class="ColorScheme-Text" d="M 64,7 V 6 h -3 v 1 z"/>
 </g>
 <g id="mouseover-slider-right" transform="translate(-42,15)">
  <rect style="opacity:0.001" width="6" height="1" x="65" y="6"/>
  <path style="opacity:0.4;fill:currentColor" class="ColorScheme-Text" d="M 68,7 V 6 h -3 v 1 z"/>
 </g>
 <rect id="sunken-slider-center" style="fill:currentColor" class="ColorScheme-Highlight" width="1" height="1" x="22" y="36"/>
 <g id="sunken-slider-topleft" transform="translate(-42,30)">
  <rect style="opacity:0.001" width="6" height="6" x="58" y="0"/>
  <path style="fill:currentColor" class="ColorScheme-Highlight" d="M 64,3 V 6 H 61 C 61,4.338 62.338,3 64,3 Z"/>
 </g>
 <g id="sunken-slider-top" transform="translate(-42,30)">
  <rect style="opacity:0.001" width="1" height="6" x="64" y="0"/>
  <path style="fill:currentColor" class="ColorScheme-Highlight" d="M 65,6 H 64 V 3 h 1 z"/>
 </g>
 <g id="sunken-slider-topright" transform="translate(-42,30)">
  <rect style="opacity:0.001" width="6" height="6" x="65" y="0"/>
  <path style="fill:currentColor" class="ColorScheme-Highlight" d="m 65,3 v 3 h 3 C 68,4.338 66.662,3 65,3 Z"/>
 </g>
 <g id="sunken-slider-bottomleft" transform="translate(-42,30)">
  <rect style="opacity:0.001" width="6" height="6" x="58" y="7"/>
  <path style="fill:currentColor" class="ColorScheme-Highlight" d="M 64,10 V 7 h -3 c 0,1.662 1.338,3 3,3 z"/>
 </g>
 <g id="sunken-slider-bottom" transform="translate(-42,30)">
  <rect style="opacity:0.001" width="1" height="6" x="64" y="7"/>
  <path style="fill:currentColor" class="ColorScheme-Highlight" d="m 65,7 h -1 v 3 h 1 z"/>
 </g>
 <g id="sunken-slider-bottomright" transform="translate(-42,30)">
  <rect style="opacity:0.001" width="6" height="6" x="65" y="7"/>
  <path style="fill:currentColor" class="ColorScheme-Highlight" d="M 65,10 V 7 h 3 c 0,1.662 -1.338,3 -3,3 z"/>
 </g>
 <g id="sunken-slider-left" transform="translate(-42,30)">
  <rect style="opacity:0.001" width="6" height="1" x="58" y="6"/>
  <path style="fill:currentColor" class="ColorScheme-Highlight" d="M 64,7 V 6 h -3 v 1 z"/>
 </g>
 <g id="sunken-slider-right" transform="translate(-42,30)">
  <rect style="opacity:0.001" width="6" height="1" x="65" y="6"/>
  <path style="fill:currentColor" class="ColorScheme-Highlight" d="M 68,7 V 6 h -3 v 1 z"/>
 </g>
</svg>
