<svg xmlns="http://www.w3.org/2000/svg" width="128" height="128" version="1">
<defs>
  <style id="current-color-scheme" type="text/css">
   .ColorScheme-Background {color:#2f343f; } .ColorScheme-ButtonBackground { color:#444a58; } .ColorScheme-Highlight { color:#5294e2; } .ColorScheme-Text { color:#d3dae3; } .ColorScheme-NegativeText { color:#f44336; } .ColorScheme-PositiveText { color:#4caf50; } .ColorScheme-NeutralText { color:#ff9800; }
  </style>
 </defs>
 <path id="groove-top" d="m 10,7 0,3 3,0 0,-3 -3,0 z" style="opacity:0.2"/>
 <path id="groove-topleft" d="M 9,7 C 7.31784,7 6,8.31784 6,10 l 3,0 z" style="opacity:0.2"/>
 <rect id="hint-tile-center" width="2.033" height="2.077" x="2.26" y="4.66" rx="0" ry="2.077" style="fill:#4e9a06"/>
 <path id="groove-topright" d="M 17,10 C 17,8.31784 15.68216,7 14,7 l 0,3 z" style="opacity:0.2"/>
 <path id="groove-bottom" d="m 10,18 0,-3 3,0 0,3 -3,0 z" style="opacity:0.2"/>
 <path id="groove-bottomleft" d="M 9,18 C 7.31784,18 6,16.68216 6,15 l 3,0 z" style="opacity:0.2"/>
 <path id="groove-bottomright" d="m 17,15 c 0,1.68216 -1.31784,3 -3,3 l 0,-3 z" style="opacity:0.2"/>
 <path id="groove-center" d="m 10,11 0,3 3,0 0,-3 -3,0 z" style="opacity:0.2"/>
 <path id="groove-left" d="m 6,11 0,3 3,0 0,-3 -3,0 z" style="opacity:0.2"/>
 <path id="groove-right" d="m 14,11 0,3 3,0 0,-3 -3,0 z" style="opacity:0.2"/>
 <path id="groove-highlight-top" d="m 28,7 0,3 3,0 0,-3 -3,0 z" style="fill:currentColor" class="ColorScheme-Highlight"/>
 <path id="groove-highlight-topleft" d="m 27,7 c -1.68216,0 -3,1.31784 -3,3 l 3,0 z" style="fill:currentColor" class="ColorScheme-Highlight"/>
 <path id="groove-highlight-topright" d="M 35,10 C 35,8.31784 33.68216,7 32,7 l 0,3 z" style="fill:currentColor" class="ColorScheme-Highlight"/>
 <path id="groove-highlight-bottom" d="m 28,18 0,-3 3,0 0,3 -3,0 z" style="fill:currentColor" class="ColorScheme-Highlight"/>
 <path id="groove-highlight-bottomleft" d="m 27,18 c -1.68216,0 -3,-1.31784 -3,-3 l 3,0 z" style="fill:currentColor" class="ColorScheme-Highlight"/>
 <path id="groove-highlight-bottomright" d="m 35,15 c 0,1.68216 -1.31784,3 -3,3 l 0,-3 z" style="fill:currentColor" class="ColorScheme-Highlight"/>
 <path id="groove-highlight-center" d="m 28,11 0,3 3,0 0,-3 -3,0 z" style="fill:currentColor" class="ColorScheme-Highlight"/>
 <path id="groove-highlight-left" d="m 24,11 0,3 3,0 0,-3 -3,0 z" style="fill:currentColor" class="ColorScheme-Highlight"/>
 <path id="groove-highlight-right" d="m 32,11 0,3 3,0 0,-3 -3,0 z" style="fill:currentColor" class="ColorScheme-Highlight"/>
 <g id="horizontal-slider-handle" transform="matrix(1.2,0,0,1.2,-2.2,63.2)">
  <rect width="24" height="24" x="14" y="42" transform="matrix(0.83333333,0,0,0.83333333,-5.6666667,-6)" style="opacity:0.001"/>
  <path transform="matrix(2.0833333,0,0,2.0833333,-13.166666,-44.333332)" d="m 18,40 a 4,4 0 0 1 -4,4 4,4 0 0 1 -4,-4 4,4 0 0 1 4,-4 4,4 0 0 1 4,4 z" style="opacity:0.2"/>
  <path transform="matrix(1.875,0,0,1.875,-10.25,-36)" d="m 18,40 a 4,4 0 0 1 -4,4 4,4 0 0 1 -4,-4 4,4 0 0 1 4,-4 4,4 0 0 1 4,4 z" style="fill:currentColor" class="ColorScheme-ButtonBackground"/>
 </g>
 <g id="vertical-slider-handle" transform="matrix(1.2,0,0,1.2,-2.2,27.2)">
  <rect width="24" height="24" x="14" y="42" transform="matrix(0.83333333,0,0,0.83333333,-5.6666667,-6)" style="opacity:0.001"/>
  <path transform="matrix(2.0833333,0,0,2.0833333,-13.166666,-44.333332)" d="m 18,40 a 4,4 0 0 1 -4,4 4,4 0 0 1 -4,-4 4,4 0 0 1 4,-4 4,4 0 0 1 4,4 z" style="opacity:0.2"/>
  <path transform="matrix(1.875,0,0,1.875,-10.25,-36)" d="m 18,40 a 4,4 0 0 1 -4,4 4,4 0 0 1 -4,-4 4,4 0 0 1 4,-4 4,4 0 0 1 4,4 z" style="fill:currentColor" class="ColorScheme-ButtonBackground"/>
 </g>
 <g id="horizontal-slider-shadow" style="opacity:0.01">
  <rect width="24" height="24" x="96" y="98" style="opacity:0.001"/>
 </g>
 <g id="vertical-slider-shadow" transform="translate(3,-36)" style="opacity:0.01">
  <rect width="24" height="24" x="96" y="98" style="opacity:0.001"/>
 </g>
 <g id="horizontal-slider-hover" transform="matrix(1.2,0,0,1.2,27.8,63.2)">
  <rect width="24" height="24" x="14" y="42" transform="matrix(0.83333333,0,0,0.83333333,-5.6666667,-6)" style="opacity:0.001"/>
  <circle cx="14" cy="40" r="4" transform="matrix(2.0833333,0,0,2.0833333,-13.166666,-44.333332)" style="opacity:0.2"/>
  <circle cx="14" cy="40" r="4" transform="matrix(1.875,0,0,1.875,-10.25,-36)" style="fill:currentColor" class="ColorScheme-ButtonBackground"/>
 </g>
 <g id="vertical-slider-hover" transform="matrix(1.2,0,0,1.2,27.8,27.2)">
  <rect width="24" height="24" x="14" y="42" transform="matrix(0.83333333,0,0,0.83333333,-5.6666667,-6)" style="opacity:0.001"/>
  <circle cx="14" cy="40" r="4" transform="matrix(2.0833333,0,0,2.0833333,-13.166666,-44.333332)" style="opacity:0.2"/>
  <circle cx="14" cy="40" r="4" transform="matrix(1.875,0,0,1.875,-10.25,-36)" style="fill:currentColor" class="ColorScheme-ButtonBackground"/>
 </g>
 <g id="horizontal-slider-focus" transform="matrix(1.2,0,0,1.2,57.8,63.2)">
  <rect width="24" height="24" x="14" y="42" transform="matrix(0.83333333,0,0,0.83333333,-5.6666667,-6)" style="opacity:0.001"/>
  <circle cx="14" cy="40" r="4" transform="matrix(2.0833333,0,0,2.0833333,-13.166666,-44.333332)" style="fill:currentColor" class="ColorScheme-Highlight"/>
 </g>
 <g id="vertical-slider-focus" transform="matrix(1.2,0,0,1.2,57.8,27.2)">
  <rect width="24" height="24" x="14" y="42" transform="matrix(0.83333333,0,0,0.83333333,-5.6666667,-6)" style="opacity:0.001"/>
  <circle cx="14" cy="40" r="4" transform="matrix(2.0833333,0,0,2.0833333,-13.166666,-44.333332)" style="fill:currentColor" class="ColorScheme-Highlight"/>
 </g>
</svg>
