<svg xmlns="http://www.w3.org/2000/svg" id="svg2" width="128" height="128" version="1">
 <defs id="defs7386">
  <style id="current-color-scheme" type="text/css">
   .ColorScheme-Text { color:#d3dae3; } .ColorScheme-Highlight { color:#5294e2; } .ColorScheme-ButtonBackground { color:#5c616c; }
  </style>
 </defs>
 <g id="layer1">
  <path id="groove-top" style="opacity:0.1;fill:#000;fill-opacity:1" class="ColorScheme-Text" d="m 10,7 0,3 3,0 0,-3 -3,0 z"/>
  <path id="groove-topleft" style="opacity:0.1;fill:#000;fill-opacity:1" class="ColorScheme-Text" d="M 9,7 C 7.31784,7 6,8.31784 6,10 l 3,0 z"/>
  <rect id="hint-tile-center" style="fill:#4e9a06;fill-opacity:1;fill-rule:nonzero;stroke:none" width="2.033" height="2.077" x="2.26" y="4.66" rx="0" ry="2.077"/>
  <path id="groove-topright" style="opacity:0.1;fill:#000;fill-opacity:1" class="ColorScheme-Text" d="M 17,10 C 17,8.31784 15.68216,7 14,7 l 0,3 z"/>
  <path id="groove-bottom" style="opacity:0.1;fill:#000;fill-opacity:1" class="ColorScheme-Text" d="m 10,18 0,-3 3,0 0,3 -3,0 z"/>
  <path id="groove-bottomleft" style="opacity:0.1;fill:#000;fill-opacity:1" class="ColorScheme-Text" d="M 9,18 C 7.31784,18 6,16.68216 6,15 l 3,0 z"/>
  <path id="groove-bottomright" style="opacity:0.1;fill:#000;fill-opacity:1" class="ColorScheme-Text" d="m 17,15 c 0,1.68216 -1.31784,3 -3,3 l 0,-3 z"/>
  <path id="groove-center" style="opacity:0.1;fill:#000;fill-opacity:1" class="ColorScheme-Text" d="m 10,11 0,3 3,0 0,-3 -3,0 z"/>
  <path id="groove-left" style="opacity:0.1;fill:#000;fill-opacity:1" class="ColorScheme-Text" d="m 6,11 0,3 3,0 0,-3 -3,0 z"/>
  <path id="groove-right" style="opacity:0.1;fill:#000;fill-opacity:1" class="ColorScheme-Text" d="m 14,11 0,3 3,0 0,-3 -3,0 z"/>
  <path id="groove-highlight-top" style="opacity:1;fill:currentColor" class="ColorScheme-Highlight" d="m 28,7 0,3 3,0 0,-3 -3,0 z"/>
  <path id="groove-highlight-topleft" style="opacity:1;fill:currentColor" class="ColorScheme-Highlight" d="m 27,7 c -1.68216,0 -3,1.31784 -3,3 l 3,0 z"/>
  <path id="groove-highlight-topright" style="opacity:1;fill:currentColor" class="ColorScheme-Highlight" d="M 35,10 C 35,8.31784 33.68216,7 32,7 l 0,3 z"/>
  <path id="groove-highlight-bottom" style="opacity:1;fill:currentColor" class="ColorScheme-Highlight" d="m 28,18 0,-3 3,0 0,3 -3,0 z"/>
  <path id="groove-highlight-bottomleft" style="opacity:1;fill:currentColor" class="ColorScheme-Highlight" d="m 27,18 c -1.68216,0 -3,-1.31784 -3,-3 l 3,0 z"/>
  <path id="groove-highlight-bottomright" style="opacity:1;fill:currentColor" class="ColorScheme-Highlight" d="m 35,15 c 0,1.68216 -1.31784,3 -3,3 l 0,-3 z"/>
  <path id="groove-highlight-center" style="opacity:1;fill:currentColor" class="ColorScheme-Highlight" d="m 28,11 0,3 3,0 0,-3 -3,0 z"/>
  <path id="groove-highlight-left" style="opacity:1;fill:currentColor" class="ColorScheme-Highlight" d="m 24,11 0,3 3,0 0,-3 -3,0 z"/>
  <path id="groove-highlight-right" style="opacity:1;fill:currentColor" class="ColorScheme-Highlight" d="m 32,11 0,3 3,0 0,-3 -3,0 z"/>
  <g id="horizontal-slider-handle" transform="matrix(1.2,0,0,1.2,-2.2,63.2)">
   <rect id="rect3785-4" style="opacity:0.00100002;fill:#000000;fill-opacity:0.00392157;stroke:none" width="24" height="24" x="14" y="42" transform="matrix(0.83333333,0,0,0.83333333,-5.6666667,-6)"/>
   <path id="path3921-2" style="opacity:0.1;fill:#000;fill-opacity:1" class="ColorScheme-ButtonText" d="m 18,40 a 4,4 0 0 1 -4,4 4,4 0 0 1 -4,-4 4,4 0 0 1 4,-4 4,4 0 0 1 4,4 z" transform="matrix(2.0833333,0,0,2.0833333,-13.166666,-44.333332)"/>
   <path id="path3923-4" style="fill:currentColor;fill-opacity:1;opacity:1" class="ColorScheme-ButtonBackground" d="m 18,40 a 4,4 0 0 1 -4,4 4,4 0 0 1 -4,-4 4,4 0 0 1 4,-4 4,4 0 0 1 4,4 z" transform="matrix(1.875,0,0,1.875,-10.25,-36)"/>
  </g>
  <g id="vertical-slider-handle" transform="matrix(1.2,0,0,1.2,-2.2,27.2)">
   <rect id="rect3922" style="opacity:0.00100002;fill:#000000;fill-opacity:0.00392157;stroke:none" width="24" height="24" x="14" y="42" transform="matrix(0.83333333,0,0,0.83333333,-5.6666667,-6)"/>
   <path id="path3924" style="opacity:0.1;fill:#000;fill-opacity:1" class="ColorScheme-ButtonText" d="m 18,40 a 4,4 0 0 1 -4,4 4,4 0 0 1 -4,-4 4,4 0 0 1 4,-4 4,4 0 0 1 4,4 z" transform="matrix(2.0833333,0,0,2.0833333,-13.166666,-44.333332)"/>
   <path id="path3926" style="fill:currentColor;fill-opacity:1;opacity:1" class="ColorScheme-ButtonBackground" d="m 18,40 a 4,4 0 0 1 -4,4 4,4 0 0 1 -4,-4 4,4 0 0 1 4,-4 4,4 0 0 1 4,4 z" transform="matrix(1.875,0,0,1.875,-10.25,-36)"/>
  </g>
  <g id="horizontal-slider-shadow" style="opacity:0.01">
   <rect id="rect3114" style="opacity:0.00100002;fill:#000000;fill-opacity:0.00392157;stroke:none" width="24" height="24" x="96" y="98"/>
   <path id="path3118" style="opacity:0.05;color:#3daee9;fill:#000000;fill-opacity:1" d="m 108,99 c -6.07513,0 -11,4.92487 -11,11 0,6.07513 4.92487,11 11,11 6.07513,0 11,-4.92487 11,-11 0,-6.07513 -4.92487,-11 -11,-11 z m 0,1 c 5.52285,0 10,4.47715 10,10 0,5.52285 -4.47715,10 -10,10 -5.52285,0 -10,-4.47715 -10,-10 0,-5.52285 4.47715,-10 10,-10 z"/>
   <path id="path3037" style="opacity:0.15;color:#3daee9;fill:#000000;fill-opacity:1" d="M 115.71875,103.625 C 117.14531,105.35359 118,107.58375 118,110 c 0,2.76963 -1.14961,5.2516 -2.96875,7.0625 C 113.2229,118.86267 110.75322,120 108,120 c -2.76143,0 -5.25285,-1.12786 -7.0625,-2.9375 1.83415,2.22247 4.61215,3.625 7.71875,3.625 5.52285,0 10,-4.47715 10,-10 0,-2.76143 -1.12786,-5.25286 -2.9375,-7.0625 z"/>
  </g>
  <g id="vertical-slider-shadow" style="opacity:0.01" transform="translate(3,-36)">
   <rect id="rect3824" style="opacity:0.00100002;fill:#000000;fill-opacity:0.00392157;stroke:none" width="24" height="24" x="96" y="98"/>
   <path id="path3826" style="opacity:0.05;color:#3daee9;fill:#000000;fill-opacity:1" d="m 108,99 c -6.07513,0 -11,4.92487 -11,11 0,6.07513 4.92487,11 11,11 6.07513,0 11,-4.92487 11,-11 0,-6.07513 -4.92487,-11 -11,-11 z m 0,1 c 5.52285,0 10,4.47715 10,10 0,5.52285 -4.47715,10 -10,10 -5.52285,0 -10,-4.47715 -10,-10 0,-5.52285 4.47715,-10 10,-10 z"/>
   <path id="path3828" style="opacity:0.15;color:#3daee9;fill:#000000;fill-opacity:1" d="M 115.71875,103.625 C 117.14531,105.35359 118,107.58375 118,110 c 0,2.76963 -1.14961,5.2516 -2.96875,7.0625 C 113.2229,118.86267 110.75322,120 108,120 c -2.76143,0 -5.25285,-1.12786 -7.0625,-2.9375 1.83415,2.22247 4.61215,3.625 7.71875,3.625 5.52285,0 10,-4.47715 10,-10 0,-2.76143 -1.12786,-5.25286 -2.9375,-7.0625 z"/>
  </g>
  <g id="horizontal-slider-hover" transform="matrix(1.2,0,0,1.2,27.8,63.2)">
   <rect id="rect4204" style="opacity:0.00100002;fill:#000000;fill-opacity:0.00392157;stroke:none" width="24" height="24" x="14" y="42" transform="matrix(0.83333333,0,0,0.83333333,-5.6666667,-6)"/>
   <circle id="path4206" style="color:#31363b;opacity:0.2;fill:#000000;fill-opacity:1" class="ColorScheme-ButtonText" cx="14" cy="40" r="4" transform="matrix(2.0833333,0,0,2.0833333,-13.166666,-44.333332)"/>
   <circle id="path4208" style="fill:currentColor;fill-opacity:1" class="ColorScheme-ButtonBackground" cx="14" cy="40" r="4" transform="matrix(1.875,0,0,1.875,-10.25,-36)"/>
  </g>
  <g id="vertical-slider-hover" transform="matrix(1.2,0,0,1.2,27.8,27.2)">
   <rect id="rect4212" style="opacity:0.00100002;fill:#000000;fill-opacity:0.00392157;stroke:none" width="24" height="24" x="14" y="42" transform="matrix(0.83333333,0,0,0.83333333,-5.6666667,-6)"/>
   <circle id="path4214" style="color:#31363b;opacity:0.2;fill:#000000;fill-opacity:1" class="ColorScheme-ButtonText" cx="14" cy="40" r="4" transform="matrix(2.0833333,0,0,2.0833333,-13.166666,-44.333332)"/>
   <circle id="path4216" style="fill:currentColor;fill-opacity:1" class="ColorScheme-ButtonBackground" cx="14" cy="40" r="4" transform="matrix(1.875,0,0,1.875,-10.25,-36)"/>
  </g>
  <g id="horizontal-slider-focus" transform="matrix(1.2,0,0,1.2,57.8,63.2)">
   <rect id="rect4220" style="opacity:0.00100002;fill:#000000;fill-opacity:0.00392157;stroke:none" width="24" height="24" x="14" y="42" transform="matrix(0.83333333,0,0,0.83333333,-5.6666667,-6)"/>
   <circle id="circle4222" style="fill:currentColor;fill-opacity:1" class="ColorScheme-Highlight" cx="14" cy="40" r="4" transform="matrix(2.0833333,0,0,2.0833333,-13.166666,-44.333332)"/>
   <circle id="circle4224" style="opacity:1;fill:currentColor;fill-opacity:1" class="ColorScheme-Highlight" cx="14" cy="40" r="4" transform="matrix(1.875,0,0,1.875,-10.25,-36)"/>
  </g>
  <g id="vertical-slider-focus" transform="matrix(1.2,0,0,1.2,57.8,27.2)">
   <rect id="rect4228" style="opacity:0.00100002;fill:#000000;fill-opacity:0.00392157;stroke:none" width="24" height="24" x="14" y="42" transform="matrix(0.83333333,0,0,0.83333333,-5.6666667,-6)"/>
   <circle id="circle4230" style="fill:currentColor;fill-opacity:1" class="ColorScheme-Highlight" cx="14" cy="40" r="4" transform="matrix(2.0833333,0,0,2.0833333,-13.166666,-44.333332)"/>
   <circle id="circle4232" style="opacity:1;fill:currentColor;fill-opacity:1" class="ColorScheme-Highlight" cx="14" cy="40" r="4" transform="matrix(1.875,0,0,1.875,-10.25,-36)"/>
  </g>
 </g>
</svg>
