<svg xmlns="http://www.w3.org/2000/svg" xmlns:xlink="http://www.w3.org/1999/xlink" id="svg2" width="173" height="56" version="1.1" viewBox="0 0 173 56">
 <defs id="defs4">
  <style id="current-color-scheme" type="text/css">
   .ColorScheme-Background { color:#383c4a; }
  </style>
  <radialGradient id="radialGradient4944" cx="54.25" cy="945.112" r="6" fx="54.25" fy="945.112" gradientTransform="matrix(2.1665502e-7,1.0000002,-0.99998986,2.166522e-7,1058.1027,-6.2502157)" gradientUnits="userSpaceOnUse" xlink:href="#linearGradient4270"/>
  <radialGradient id="radialGradient4938" cx="7.643" cy="950.362" r="6" fx="7.643" fy="950.362" gradientTransform="matrix(-0.99999977,-1.5530616e-6,1.5530619e-6,-1.0000003,80.641384,998.36216)" gradientUnits="userSpaceOnUse" xlink:href="#linearGradient4270"/>
  <radialGradient id="radialGradient4930" cx="53.893" cy="911.762" r="6" fx="53.893" fy="911.762" gradientTransform="matrix(1.0000002,4.4078421e-7,-3.4750754e-7,1.0000036,59.107455,-903.76554)" gradientUnits="userSpaceOnUse" xlink:href="#linearGradient4270"/>
  <radialGradient id="radialGradient4924" cx="22.2" cy="913.969" r="6" fx="22.2" fy="913.969" gradientTransform="matrix(-1.2274083e-7,-0.99999983,1.0000073,-1.2274096e-7,-840.97593,30.200088)" gradientUnits="userSpaceOnUse" xlink:href="#linearGradient4270"/>
  <linearGradient id="linearGradient4950" x1="55" x2="61" y1="932.362" y2="932.362" gradientUnits="userSpaceOnUse" xlink:href="#linearGradient4270"/>
  <linearGradient id="linearGradient4270">
   <stop id="stop4272" style="stop-color:#000000;stop-opacity:0.66663194" offset="0"/>
   <stop id="stop4274" style="stop-color:#000000;stop-opacity:0;" offset="1"/>
  </linearGradient>
  <linearGradient id="linearGradient4948" x1="-15" x2="-9" y1="932.362" y2="932.362" gradientUnits="userSpaceOnUse" xlink:href="#linearGradient4270"/>
  <linearGradient id="linearGradient4942" x1="51" x2="51" y1="48" y2="54" gradientTransform="translate(58,0)" gradientUnits="userSpaceOnUse" xlink:href="#linearGradient4270"/>
  <linearGradient id="linearGradient4946" x1="55" x2="61" y1="44" y2="44" gradientUnits="userSpaceOnUse" xlink:href="#linearGradient4270"/>
  <linearGradient id="linearGradient4936" x1="19" x2="19" y1="48" y2="54" gradientTransform="translate(58,0)" gradientUnits="userSpaceOnUse" xlink:href="#linearGradient4270"/>
  <linearGradient id="linearGradient4940" x1="15" x2="9" y1="44" y2="44" gradientUnits="userSpaceOnUse" xlink:href="#linearGradient4270"/>
  <linearGradient id="linearGradient4934" x1="952.362" x2="958.362" y1="-35" y2="-35" gradientUnits="userSpaceOnUse" xlink:href="#linearGradient4270"/>
  <linearGradient id="linearGradient4928" x1="55" x2="61" y1="12" y2="12" gradientUnits="userSpaceOnUse" xlink:href="#linearGradient4270"/>
  <linearGradient id="linearGradient4932" x1="51" x2="51" y1="8" y2="2" gradientTransform="translate(58,0)" gradientUnits="userSpaceOnUse" xlink:href="#linearGradient4270"/>
  <linearGradient id="linearGradient4922" x1="15" x2="9" y1="12" y2="12" gradientUnits="userSpaceOnUse" xlink:href="#linearGradient4270"/>
  <linearGradient id="linearGradient4926" x1="19" x2="19" y1="8" y2="2" gradientTransform="translate(58,0)" gradientUnits="userSpaceOnUse" xlink:href="#linearGradient4270"/>
  <linearGradient id="linearGradient4920" x1="-912.362" x2="-906.362" y1="-35" y2="-35" gradientUnits="userSpaceOnUse" xlink:href="#linearGradient4270"/>
 </defs>
 <g id="layer1" transform="translate(0,-904.36218)">
  <rect id="hint-tile-center" style="opacity:1;fill:#ff6600;fill-opacity:1;stroke:none" width="5" height="5" x="0" y="904.36"/>
  <g id="top">
   <rect id="rect4152" style="opacity:1;fill:currentColor;fill-opacity:1;stroke:none" class="ColorScheme-Background" width="6" height="32" x="-916.36" y="-51" transform="matrix(0,-1,-1,0,0,0)"/>
  </g>
  <g id="topleft">
   <path id="rect4159" style="opacity:1;fill:currentColor;fill-opacity:1" class="ColorScheme-Background" d="m 14,6 c -0.553986,0 -1,0.4460137 -1,1 l 0,4 0,1 4,0 1,0 1,0 0,-1 0,-4 0,-1 -1,0 -1,0 -3,0 z" transform="translate(0,904.36218)"/>
  </g>
  <g id="topright">
   <path id="rect4177" style="opacity:1;fill:currentColor;fill-opacity:1" class="ColorScheme-Background" d="m 51,6 0,1 0,4 0,1 1,0 1,0 3,0 1,0 0,-1 0,-4 C 57,6.4460137 56.553986,6 56,6 l -3,0 -1,0 -1,0 z" transform="translate(0,904.36218)"/>
  </g>
  <g id="bottom">
   <rect id="rect4148" style="opacity:1;fill:currentColor;fill-opacity:1;stroke:none" class="ColorScheme-Background" width="6" height="32" x="948.36" y="-51" transform="matrix(0,1,-1,0,0,0)"/>
  </g>
  <g id="bottomleft">
   <path id="path5048" style="opacity:1;fill:currentColor;fill-opacity:1" class="ColorScheme-Background" d="m 19,954.36218 0,-1 0,-4 0,-1 -1,0 -1,0 -3,0 -1,0 0,1 0,4 c 0,0.55399 0.446014,1 1,1 l 3,0 1,0 1,0 z"/>
  </g>
  <g id="bottomright">
   <path id="rect4177-6" style="opacity:1;fill:currentColor;fill-opacity:1" class="ColorScheme-Background" d="m 51,954.36218 0,-1 0,-4 0,-1 1,0 1,0 3,0 1,0 0,1 0,4 c 0,0.55399 -0.446014,1 -1,1 l -3,0 -1,0 -1,0 z"/>
  </g>
  <g id="left">
   <rect id="rect4144" style="opacity:1;fill:currentColor;fill-opacity:1;stroke:none" class="ColorScheme-Background" width="6" height="32" x="-19" y="916.36" transform="scale(-1,1)"/>
  </g>
  <g id="right">
   <rect id="rect4140" style="opacity:1;fill:currentColor;fill-opacity:1;stroke:none" class="ColorScheme-Background" width="6" height="32" x="51" y="916.36"/>
  </g>
  <g id="center">
   <rect id="rect4401" style="opacity:1;fill:none;fill-opacity:1;stroke:none" width="32" height="32" x="19" y="916.36"/>
   <rect id="rect4138" style="opacity:1;fill:currentColor;fill-opacity:1;stroke:none" class="ColorScheme-Background" width="32" height="32" x="19" y="916.36"/>
  </g>
  <rect id="hint-top-margin" style="fill:#ff00ff;fill-opacity:1;stroke:none" width="4" height="2" x="33" y="910.36"/>
  <rect id="hint-bottom-margin" style="fill:#ff00ff;fill-opacity:1;stroke:none" width="4" height="2" x="33" y="952.36"/>
  <rect id="hint-right-margin" style="fill:#ff00ff;fill-opacity:1;stroke:none" width="4" height="2" x="930.36" y="-57" transform="matrix(0,1,-1,0,0,0)"/>
  <rect id="hint-left-margin" style="fill:#ff00ff;fill-opacity:1;stroke:none" width="4" height="2" x="930.36" y="-15" transform="matrix(0,1,-1,0,0,0)"/>
  <g id="mask-top" transform="translate(116,0)">
   <rect id="rect4265" style="opacity:17000002;fill:#000000;fill-opacity:1;stroke:none" width="5" height="32" x="-915.36" y="-51" transform="matrix(0,-1,-1,0,0,0)"/>
  </g>
  <g id="mask-topleft" transform="translate(116,0)">
   <path id="path4277" style="opacity:17000002;fill:#000000;fill-opacity:1" d="M 130 6 C 129.44601 6 129 6.4460137 129 7 L 129 11 L 134 11 L 134 6 L 133 6 L 130 6 z" transform="translate(-116,904.36218)"/>
  </g>
  <g id="mask-topright" transform="translate(116,0)">
   <path id="path4287" style="opacity:17000002;fill:#000000;fill-opacity:1" d="M 168 6 L 168 11 L 173 11 L 173 7 C 173 6.4460137 172.55399 6 172 6 L 169 6 L 168 6 z" transform="translate(-116,904.36218)"/>
  </g>
  <g id="mask-bottom" transform="translate(116,0)">
   <rect id="rect4291" style="opacity:17000002;fill:#000000;fill-opacity:1;stroke:none" width="5" height="32" x="949.36" y="-51" transform="matrix(0,1,-1,0,0,0)"/>
  </g>
  <g id="mask-bottomleft" transform="translate(116,0)">
   <path id="path4303" style="opacity:17000002;fill:#000000;fill-opacity:1" d="M 129 45 L 129 49 C 129 49.55399 129.44601 50 130 50 L 133 50 L 134 50 L 134 45 L 129 45 z" transform="translate(-116,904.36218)"/>
  </g>
  <g id="mask-bottomright" transform="translate(116,0)">
   <path id="path4313" style="opacity:17000002;fill:#000000;fill-opacity:1" d="M 168 45 L 168 50 L 169 50 L 172 50 C 172.55399 50 173 49.55399 173 49 L 173 45 L 168 45 z" transform="translate(-116,904.36218)"/>
  </g>
  <g id="mask-left" transform="translate(116,0)">
   <rect id="rect4317" style="opacity:17000002;fill:#000000;fill-opacity:1;stroke:none" width="5" height="32" x="-18" y="916.36" transform="scale(-1,1)"/>
  </g>
  <g id="mask-right" transform="translate(116,0)">
   <rect id="rect4323" style="opacity:17000002;fill:#000000;fill-opacity:1;stroke:none" width="5" height="32" x="52" y="916.36"/>
  </g>
  <g id="mask-center" transform="translate(116,0)">
   <rect id="rect4329" style="opacity:1;fill:none;fill-opacity:1;stroke:none" width="32" height="32" x="19" y="916.36"/>
   <rect id="rect4331" style="opacity:17000002;fill:#000000;fill-opacity:1;stroke:none" width="32" height="32" x="19" y="916.36"/>
  </g>
  <g id="shadow-top" transform="translate(58,-1.8530272e-7)">
   <rect id="rect4820" style="opacity:1;fill:none;fill-opacity:1;stroke:none" width="6" height="32" x="-916.36" y="-51" transform="matrix(0,-1,-1,0,0,0)"/>
   <rect id="rect4822" style="opacity:1;fill:url(#linearGradient4920);fill-opacity:1;stroke:none" width="6" height="32" x="-910.36" y="-51" transform="matrix(0,-1,-1,0,0,0)"/>
   <rect id="rect4824" style="opacity:1;fill:none;fill-opacity:1;stroke:none" width="1" height="32" x="-911.36" y="-51" transform="matrix(0,-1,-1,0,0,0)"/>
  </g>
  <g id="shadow-topleft" transform="translate(58,-1.8530272e-7)">
   <path id="path4828" style="opacity:1;fill:url(#linearGradient4922);fill-opacity:1;fill-rule:evenodd;stroke:none;stroke-width:1px;stroke-linecap:butt;stroke-linejoin:miter;stroke-opacity:1" d="m 7,7 0,1 0,4 6,0 0,-4 0,-1 -6,0 z" transform="translate(0,904.36218)"/>
   <path id="path4830" style="opacity:1;fill:url(#radialGradient4924);fill-opacity:1;fill-rule:evenodd;stroke:none;stroke-width:1px;stroke-linecap:butt;stroke-linejoin:miter;stroke-opacity:1" d="m 65,0 0,7 6,0 c 0,-1 1,-1 1,-1 l 0,-6 -7,0 z" transform="translate(-58,904.36218)"/>
   <path id="path4832" style="opacity:1;fill:url(#linearGradient4926);fill-opacity:1;fill-rule:evenodd;stroke:none;stroke-width:1px;stroke-linecap:butt;stroke-linejoin:miter;stroke-opacity:1" d="m 72,0 0,6 1,0 4,0 0,-6 -4,0 -1,0 z" transform="translate(-58,904.36218)"/>
   <rect id="rect4834" style="fill:none;fill-opacity:1" width="6" height="6" x="-19" y="910.36" ry="1" transform="scale(-1,1)"/>
   <rect id="rect4836" style="fill:none;fill-opacity:1" width="2" height="6" x="-19" y="910.36" ry="0" transform="scale(-1,1)"/>
   <rect id="rect4838" style="fill:none;fill-opacity:1" width="5" height="2" x="-18" y="914.36" transform="scale(-1,1)"/>
  </g>
  <g id="shadow-topright" transform="translate(58,-1.8530272e-7)">
   <path id="path4842" style="opacity:1;fill:url(#linearGradient4928);fill-opacity:1;fill-rule:evenodd;stroke:none;stroke-width:1px;stroke-linecap:butt;stroke-linejoin:miter;stroke-opacity:1" d="m 57,7 0,1 0,4 6,0 0,-4 0,-1 -6,0 z" transform="translate(0,904.36218)"/>
   <path id="path4844" style="opacity:1;fill:url(#radialGradient4930);fill-opacity:1;fill-rule:evenodd;stroke:none;stroke-width:1px;stroke-linecap:butt;stroke-linejoin:miter;stroke-opacity:1" d="m 114,0 0,6 c 0,0 1,0 1,1 l 6,0 0,-7 -7,0 z" transform="translate(-58,904.36218)"/>
   <path id="path4846" style="opacity:1;fill:url(#linearGradient4932);fill-opacity:1;fill-rule:evenodd;stroke:none;stroke-width:1px;stroke-linecap:butt;stroke-linejoin:miter;stroke-opacity:1" d="m 109,0 0,6 4,0 1,0 0,-6 -1,0 -4,0 z" transform="translate(-58,904.36218)"/>
   <rect id="rect4848" style="fill:none;fill-opacity:1" width="6" height="6" x="51" y="910.36" ry="1"/>
   <rect id="rect4850" style="fill:none;fill-opacity:1" width="2" height="6" x="51" y="910.36" ry="0"/>
   <rect id="rect4852" style="fill:none;fill-opacity:1" width="5" height="2" x="52" y="914.36"/>
  </g>
  <g id="shadow-bottom" transform="translate(58,-1.8530272e-7)">
   <rect id="rect4856" style="opacity:1;fill:none;fill-opacity:1;stroke:none" width="6" height="32" x="948.36" y="-51" transform="matrix(0,1,-1,0,0,0)"/>
   <rect id="rect4858" style="opacity:1;fill:url(#linearGradient4934);fill-opacity:1;stroke:none" width="6" height="32" x="954.36" y="-51" transform="matrix(0,1,-1,0,0,0)"/>
   <rect id="rect4860" style="opacity:1;fill:none;fill-opacity:1;stroke:none" width="1" height="32" x="953.36" y="-51" transform="matrix(0,1,-1,0,0,0)"/>
  </g>
  <g id="shadow-bottomleft" transform="translate(58,-1.8530272e-7)">
   <path id="path4864" style="opacity:1;fill:url(#linearGradient4936);fill-opacity:1;fill-rule:evenodd;stroke:none;stroke-width:1px;stroke-linecap:butt;stroke-linejoin:miter;stroke-opacity:1" d="m 72,50 0,6 1,0 4,0 0,-6 -4,0 -1,0 z" transform="translate(-58,904.36218)"/>
   <path id="path4866" style="opacity:1;fill:url(#radialGradient4938);fill-opacity:1;fill-rule:evenodd;stroke:none;stroke-width:1px;stroke-linecap:butt;stroke-linejoin:miter;stroke-opacity:1" d="m 65,49 0,7 7,0 0,-6 c -1,0 -1,-1 -1,-1 l -6,0 z" transform="translate(-58,904.36218)"/>
   <path id="path4868" style="opacity:1;fill:url(#linearGradient4940);fill-opacity:1;fill-rule:evenodd;stroke:none;stroke-width:1px;stroke-linecap:butt;stroke-linejoin:miter;stroke-opacity:1" d="m 7,44 0,4 0,1 6,0 0,-1 0,-4 -6,0 z" transform="translate(0,904.36218)"/>
   <rect id="rect4870" style="fill:none;fill-opacity:1" width="6" height="6" x="-19" y="-954.36" ry="1" transform="scale(-1,-1)"/>
   <rect id="rect4872" style="fill:none;fill-opacity:1" width="2" height="6" x="-19" y="-954.36" ry="0" transform="scale(-1,-1)"/>
   <rect id="rect4874" style="fill:none;fill-opacity:1" width="5" height="2" x="-18" y="-950.36" transform="scale(-1,-1)"/>
  </g>
  <g id="shadow-bottomright" transform="translate(58,-1.8530272e-7)">
   <path id="path4878" style="opacity:1;fill:url(#linearGradient4942);fill-opacity:1;fill-rule:evenodd;stroke:none;stroke-width:1px;stroke-linecap:butt;stroke-linejoin:miter;stroke-opacity:1" d="m 109,50 0,6 4,0 1,0 0,-6 -1,0 -4,0 z" transform="translate(-58,904.36218)"/>
   <path id="path4880" style="opacity:1;fill:url(#radialGradient4944);fill-opacity:1;fill-rule:evenodd;stroke:none;stroke-width:1px;stroke-linecap:butt;stroke-linejoin:miter;stroke-opacity:1" d="m 115,49 c 0,0 0,1 -1,1 l 0,6 7,0 0,-7 -6,0 z" transform="translate(-58,904.36218)"/>
   <path id="path4882" style="opacity:1;fill:url(#linearGradient4946);fill-opacity:1;fill-rule:evenodd;stroke:none;stroke-width:1px;stroke-linecap:butt;stroke-linejoin:miter;stroke-opacity:1" d="m 57,44 0,4 0,1 6,0 0,-1 0,-4 -6,0 z" transform="translate(0,904.36218)"/>
   <rect id="rect4884" style="fill:none;fill-opacity:1" width="6" height="6" x="51" y="-954.36" ry="1" transform="scale(1,-1)"/>
   <rect id="rect4886" style="fill:none;fill-opacity:1" width="2" height="6" x="51" y="-954.36" ry="0" transform="scale(1,-1)"/>
   <rect id="rect4888" style="fill:none;fill-opacity:1" width="5" height="2" x="52" y="-950.36" transform="scale(1,-1)"/>
  </g>
  <g id="shadow-left" transform="translate(58,-1.8530272e-7)">
   <rect id="rect4892" style="opacity:1;fill:none;fill-opacity:1;stroke:none" width="6" height="32" x="-19" y="916.36" transform="scale(-1,1)"/>
   <rect id="rect4894" style="opacity:1;fill:url(#linearGradient4948);fill-opacity:1;stroke:none" width="6" height="32" x="-13" y="916.36" transform="scale(-1,1)"/>
   <rect id="rect4896" style="opacity:1;fill:none;fill-opacity:1;stroke:none" width="1" height="32" x="-14" y="916.36" transform="scale(-1,1)"/>
  </g>
  <g id="shadow-right" transform="translate(58,-1.8530272e-7)">
   <rect id="rect4900" style="opacity:1;fill:none;fill-opacity:1;stroke:none" width="6" height="32" x="51" y="916.36"/>
   <rect id="rect4902" style="opacity:1;fill:url(#linearGradient4950);fill-opacity:1;stroke:none" width="6" height="32" x="57" y="916.36"/>
   <rect id="rect4904" style="opacity:1;fill:none;fill-opacity:1;stroke:none" width="1" height="32" x="56" y="916.36"/>
  </g>
  <g id="shadow-center" transform="translate(58,-1.8530272e-7)">
   <rect id="rect4908" style="opacity:1;fill:none;fill-opacity:1;stroke:none" width="32" height="32" x="19" y="916.36"/>
   <rect id="rect4910" style="opacity:1;fill:none;fill-opacity:1;stroke:none" width="32" height="32" x="19" y="916.36"/>
  </g>
  <rect id="shadow-hint-top-margin" style="fill:#ff00ff;fill-opacity:1;stroke:none" width="4" height="6" x="91" y="904.36"/>
  <rect id="shadow-hint-bottom-margin" style="fill:#ff00ff;fill-opacity:1;stroke:none" width="4" height="6" x="91" y="954.36"/>
  <rect id="shadow-hint-right-margin" style="fill:#ff00ff;fill-opacity:1;stroke:none" width="4" height="6" x="930.36" y="-121" transform="matrix(0,1,-1,0,0,0)"/>
  <rect id="shadow-hint-left-margin" style="fill:#ff00ff;fill-opacity:1;stroke:none" width="4" height="6" x="930.36" y="-71" transform="matrix(0,1,-1,0,0,0)"/>
 </g>
</svg>
