<svg xmlns="http://www.w3.org/2000/svg" xmlns:xlink="http://www.w3.org/1999/xlink" id="svg4379" width="128" height="128" version="1.1" viewBox="0 0 128 128">
 <defs id="defs4381">
  <radialGradient id="radialGradient4275" cx="984" cy="905.362" r="8.5" fx="984" fy="905.362" gradientTransform="matrix(-2.7363906e-5,-2.3865408,2.3865763,-2.7364313e-5,-2138.9507,3294.4812)" gradientUnits="userSpaceOnUse" xlink:href="#linearGradient4465"/>
  <linearGradient id="linearGradient4465">
   <stop id="stop4467" style="stop-color:#000000;stop-opacity:0.50980395" offset="0"/>
   <stop id="stop4469" style="stop-color:#000000;stop-opacity:0;" offset="1"/>
  </linearGradient>
  <linearGradient id="linearGradient4385" x1="83.6" x2="83.6" y1="-969.362" y2="-957.362" gradientTransform="matrix(0.71428571,0,0,1,-317.71429,1250.3622)" gradientUnits="userSpaceOnUse" xlink:href="#linearGradient4465"/>
  <radialGradient id="radialGradient3382" cx="984" cy="905.362" r="8.5" fx="984" fy="905.362" gradientTransform="matrix(1.322922e-5,2.3865653,-2.3865582,1.322918e-5,2266.9483,-1317.7681)" gradientUnits="userSpaceOnUse" xlink:href="#linearGradient4465"/>
  <linearGradient id="linearGradient4452" x1="-260" x2="-260" y1="281" y2="293" gradientUnits="userSpaceOnUse" xlink:href="#linearGradient4465"/>
  <radialGradient id="radialGradient4255" cx="982.909" cy="906.453" r="8.5" fx="982.909" fy="906.453" gradientTransform="matrix(2.3865428,9.3662607e-6,-9.3662578e-6,2.3865421,-2239.4843,-1217.1975)" gradientUnits="userSpaceOnUse" xlink:href="#linearGradient4465"/>
  <radialGradient id="radialGradient4263" cx="984" cy="905.362" r="8.5" fx="984" fy="905.362" gradientTransform="matrix(-2.3865585,-1.6735243e-5,1.6735181e-5,-2.3865497,2370.0966,3191.3325)" gradientUnits="userSpaceOnUse" xlink:href="#linearGradient4465"/>
  <linearGradient id="linearGradient5162" x1="83.6" x2="83.6" y1="-969.362" y2="-957.362" gradientTransform="matrix(0.71428571,0,0,1,-317.71429,1250.3622)" gradientUnits="userSpaceOnUse" xlink:href="#linearGradient4465"/>
  <linearGradient id="linearGradient5164" x1="83.6" x2="83.6" y1="-969.362" y2="-957.362" gradientTransform="matrix(0.71428571,0,0,1,-317.71429,1250.3622)" gradientUnits="userSpaceOnUse" xlink:href="#linearGradient4465"/>
  <filter id="filter5226" style="color-interpolation-filters:sRGB" width="1.049" height="1.047" x="-.03" y="-.02">
   <feGaussianBlur id="feGaussianBlur5228" stdDeviation=".82"/>
  </filter>
 </defs>
 <g id="layer1" transform="translate(0,-924.36216)">
  <path id="shadow-topleft" style="opacity:1;fill:url(#radialGradient4275);fill-opacity:1;stroke:none" d="m -6.9999998,946.10026 16.904762,0 0,-3.38095 c 0,-4.68262 3.7697618,-8.45238 8.4523808,-8.45238 l 3.380953,0 0,-16.90477 -28.7380958,0 z"/>
  <g id="shadow-left" transform="matrix(-1.6904762,0,0,1.6904762,496.76191,511.64788)">
   <rect id="rect4267" style="opacity:1;fill:url(#linearGradient5162);fill-opacity:1;stroke:none" width="50" height="10" x="-307" y="288" transform="matrix(0,-1,1,0,0,0)"/>
   <rect id="rect4269" style="fill:#3498db;fill-opacity:0" width="7" height="1" x="278" y="257" transform="translate(3,2)"/>
  </g>
  <path id="shadow-bottomright" style="opacity:1;fill:url(#radialGradient3382);fill-opacity:1;stroke:none" d="m 135,1030.6241 -16.90476,0 0,3.3809 c 0,4.6826 -3.76976,8.4524 -8.45238,8.4524 l -3.38095,0 0,16.9048 28.73809,0 z"/>
  <g id="shadow-bottom" transform="matrix(0,1.6904762,-1.6904762,0,540.71429,555.60026)">
   <rect id="rect3389" style="opacity:1;fill:url(#linearGradient5164);fill-opacity:1;stroke:none" width="50" height="10" x="-307" y="288" transform="matrix(0,-1,1,0,0,0)"/>
   <rect id="rect4241" style="fill:#3498db;fill-opacity:0" width="7" height="1" x="278" y="257" transform="translate(3,2)"/>
  </g>
  <g id="shadow-right" transform="matrix(1.6904762,0,0,1.6904762,-368.76191,511.64788)">
   <rect id="rect4251" style="opacity:1;fill:url(#linearGradient4452);fill-opacity:1;stroke:none" width="50" height="10" x="-307" y="288" transform="matrix(0,-1,1,0,0,0)"/>
   <rect id="rect4253" style="fill:#3498db;fill-opacity:0" width="7" height="1" x="278" y="257" transform="translate(3,2)"/>
  </g>
  <g id="shadow-top" transform="matrix(0,-1.6904762,-1.6904762,0,540.71429,1421.1241)">
   <rect id="rect4279" style="opacity:1;fill:url(#linearGradient4385);fill-opacity:1;stroke:none" width="50" height="10" x="-307" y="288" transform="matrix(0,-1,1,0,0,0)"/>
   <rect id="rect4281" style="fill:#3498db;fill-opacity:0" width="7" height="1" x="278" y="257" transform="translate(3,2)"/>
  </g>
  <path id="shadow-topright" style="opacity:1;fill:url(#radialGradient4255);fill-opacity:1;stroke:none" d="m 106.26191,917.36216 0,16.90477 3.38095,0 c 4.68262,0 8.45238,3.76976 8.45238,8.45238 l 0,3.38095 16.90476,0 0,-28.7381 z"/>
  <path id="shadow-bottomleft" style="opacity:1;fill:url(#radialGradient4263);fill-opacity:1;stroke:none" d="m 21.738096,1059.3622 0,-16.9048 -3.380953,0 c -4.682619,0 -8.4523808,-3.7698 -8.4523808,-8.4524 l 0,-3.3809 -16.904762,0 0,28.7381 z"/>
  <path id="center" style="opacity:0.95;fill:#252a35;fill-opacity:1;stroke:none" d="m 17.594432,932.36216 c -4.760897,0 -8.5944327,3.83354 -8.5944327,8.59444 l 0,3.43737 0,85.93643 0,3.4373 c 0,4.7609 3.8335357,8.5945 8.5944327,8.5945 l 3.437375,0 85.936383,0 3.43738,0 c 4.76089,0 8.59442,-3.8336 8.59442,-8.5945 l 0,-3.4373 0,-85.93643 0,-3.43737 c 0,-4.7609 -3.83353,-8.59444 -8.59442,-8.59444 l -3.43738,0 -85.936383,0 -3.437375,0 z"/>
  <rect id="rect5188" style="opacity:0" width="96" height="96" x="129.65" y="945.68"/>
  <path id="path5220" style="fill:#000000;fill-opacity:1;filter:url(#filter5226);opacity:0.2" d="m 71.996107,948.36198 -16,2.42187 0,57.87505 16,-4.2969 0,-22.35941 16,26.35941 15.999993,-6 -19.999993,-24.00003 20.007803,-25.99219 -15.523423,-4.00781 -16.48438,26.23438 z m -32.57812,15.6953 c -0.37837,0 -0.75675,0.14737 -1.04688,0.4375 l -6.28906,6.28907 c -0.58027,0.58026 -0.44058,1.40922 0,2.10156 l 6.50781,10.21875 c -0.48217,1.00088 -0.89969,2.03164 -1.25,3.08593 -0.0154,0.0454 -0.0396,0.0874 -0.0547,0.1328 l -11.80469,2.625 c -0.80109,0.17806 -1.48438,0.66377 -1.48438,1.48439 l 0,3.92969 0,3.92969 c 0,0.82062 0.68329,1.30636 1.48438,1.48437 l 11.80468,2.62507 c 0.0258,0.078 0.0671,0.1492 0.0937,0.2265 0.34098,1.0242 0.74541,2.0261 1.21094,3 l -6.50781,10.211 c -0.44058,0.6923 -0.58027,1.5213 0,2.1016 l 6.28906,6.289 c 0.58027,0.5803 1.51347,0.5803 2.09375,0 l 10.20313,-6.5 c 1.00303,0.4878 2.03642,0.9106 3.09375,1.2657 0.0694,0.024 0.13356,0.062 0.20312,0.086 l 2.61718,11.7969 c 0,0.8206 0.66376,1.4843 1.48438,1.4843 l 8.88281,0 c 0.82062,0 1.30636,-0.6833 1.48437,-1.4843 l 2.61719,-12.1563 c 1.20242,-0.452 2.36967,-0.9926 3.49219,-1.6172 l 9.96094,7.125 c 0.58027,0.5803 1.51348,0.5803 2.09375,0 l 6.28906,-6.289 c 0.58027,-0.5803 0.44057,-1.4093 0,-2.1016 l -3.78906,-5.75 -0.39844,0.1484 c -0.90101,0.3384 -1.9153,-0.013 -2.41406,-0.8359 l -3.98436,-6.5625 c -3.31975,7.9408 -11.15973,13.5235 -20.30469,13.5235 -12.15026,0 -22,-9.8498 -22,-22.00012 0,-9.32368 5.8112,-17.2734 14,-20.47656 l 0,-4.38282 -0.0312,0.14064 c -0.0883,0.03 -0.1698,0.0783 -0.2578,0.10936 -1.0433,0.34648 -2.06358,0.75876 -3.05469,1.23438 l -10.18756,-6.49219 c -0.29014,-0.29013 -0.66851,-0.4375 -1.04687,-0.4375 z"/>
  <path id="path5196" style="fill:#d3dae3;fill-opacity:1" d="m 71.996107,946.36212 -16,2.42187 0,57.87501 16,-4.2969 0,-22.35937 16,26.35937 15.999993,-6 -19.999993,-23.99999 20.007803,-25.99219 -15.523423,-4.00781 -16.48438,26.23438 z m -32.57812,15.6953 c -0.37837,0 -0.75675,0.14737 -1.04688,0.4375 l -6.28906,6.28907 c -0.58027,0.58026 -0.44058,1.40922 0,2.10156 l 6.50781,10.21875 c -0.48217,1.00088 -0.89969,2.03164 -1.25,3.08593 -0.0154,0.0454 -0.0396,0.0874 -0.0547,0.1328 l -11.80469,2.625 c -0.80109,0.17806 -1.48438,0.66377 -1.48438,1.48439 l 0,3.92969 0,3.92969 c 0,0.82062 0.68329,1.30636 1.48438,1.48437 l 11.80468,2.62503 c 0.0258,0.078 0.0671,0.1492 0.0937,0.2265 0.34098,1.0242 0.74541,2.0261 1.21094,3 l -6.50781,10.211 c -0.44058,0.6923 -0.58027,1.5213 0,2.1016 l 6.28906,6.289 c 0.58027,0.5803 1.51347,0.5803 2.09375,0 l 10.20313,-6.5 c 1.00303,0.4878 2.03642,0.9106 3.09375,1.2657 0.0694,0.024 0.13356,0.062 0.20312,0.086 l 2.61718,11.7969 c 0,0.8206 0.66376,1.4843 1.48438,1.4843 l 8.88281,0 c 0.82062,0 1.30636,-0.6833 1.48437,-1.4843 l 2.61719,-12.1563 c 1.20242,-0.452 2.36967,-0.9926 3.49219,-1.6172 l 9.96094,7.125 c 0.58027,0.5803 1.51348,0.5803 2.09375,0 l 6.28906,-6.289 c 0.58027,-0.5803 0.44057,-1.4093 0,-2.1016 l -3.78906,-5.75 -0.39844,0.1484 c -0.90101,0.3384 -1.9153,-0.013 -2.41406,-0.8359 l -3.98436,-6.5625 c -3.31975,7.9408 -11.15973,13.5235 -20.30469,13.5235 -12.15026,0 -22,-9.8498 -22,-22.00008 0,-9.32368 5.8112,-17.2734 14,-20.47656 l 0,-4.38282 -0.0312,0.14064 c -0.0883,0.03 -0.1698,0.0783 -0.2578,0.10936 -1.0433,0.34648 -2.06358,0.75876 -3.05469,1.23438 l -10.18756,-6.49219 c -0.29014,-0.29013 -0.66851,-0.4375 -1.04687,-0.4375 z"/>
  <path id="path4256" style="color:#000000;font-style:normal;font-variant:normal;font-weight:normal;font-stretch:normal;font-size:medium;line-height:normal;font-family:sans-serif;text-indent:0;text-align:start;text-decoration:none;text-decoration-line:none;text-decoration-style:solid;text-decoration-color:#000000;letter-spacing:normal;word-spacing:normal;text-transform:none;direction:ltr;block-progression:tb;writing-mode:lr-tb;baseline-shift:baseline;text-anchor:start;white-space:normal;clip-rule:nonzero;display:inline;overflow:visible;visibility:visible;opacity:0.2;isolation:auto;mix-blend-mode:normal;color-interpolation:sRGB;color-interpolation-filters:linearRGB;solid-color:#000000;solid-opacity:1;fill:#000000;fill-opacity:1;fill-rule:nonzero;stroke:none;stroke-width:2;stroke-linecap:butt;stroke-linejoin:miter;stroke-miterlimit:4;stroke-dasharray:none;stroke-dashoffset:0;stroke-opacity:1;color-rendering:auto;image-rendering:auto;shape-rendering:auto;text-rendering:auto;enable-background:accumulate" d="M 17.59375 8 C 12.832853 8 9 11.83285 9 16.59375 L 9 20.03125 L 9 105.96875 L 9 109.40625 C 9 114.16715 12.832853 118 17.59375 118 L 21.03125 118 L 106.96875 118 L 110.40625 118 C 115.16714 118 119 114.16715 119 109.40625 L 119 105.96875 L 119 20.03125 L 119 16.59375 C 119 11.83285 115.16714 8 110.40625 8 L 106.96875 8 L 21.03125 8 L 17.59375 8 z M 17.59375 9 L 21.03125 9 L 106.96875 9 L 110.40625 9 C 114.63033 9 118 12.371613 118 16.595703 L 118 20.033203 L 118 105.96875 L 118 109.40625 C 118 113.63035 114.63032 117 110.40625 117 L 106.96875 117 L 21.03125 117 L 17.59375 117 C 13.369671 117 10 113.63035 10 109.40625 L 10 105.96875 L 10 20.033203 L 10 16.595703 C 10 12.371613 13.369662 9 17.59375 9 z" transform="translate(0,924.36216)"/>
 </g>
</svg>
