<svg xmlns="http://www.w3.org/2000/svg" width="68" height="128" version="1">
 <g id="focus" transform="matrix(1.6,0,0,1.6,67.344238,99.056)">
  <rect width="20" height="20" x="-42.09" y="-1.91" style="opacity:0.001"/>
  <path style="fill:#5294e2" transform="matrix(0.625,0,0,0.625,-42.090149,-61.91)" d="M 16 98 C 8.2842912 98 2 104.28429 2 112 C 2 119.71571 8.2842912 126 16 126 C 23.715709 126 30 119.71571 30 112 C 30 104.28429 23.715709 98 16 98 z"/>
 </g>
 <g id="hover" transform="matrix(1.6,0,0,1.6,67.344238,65.056)">
  <rect width="20" height="20" x="-42.09" y="-1.91" style="opacity:0.001"/>
  <path d="m -32.090149,-0.65999994 c -4.822318,0 -8.75,3.92768194 -8.75,8.75000014 0,4.8223178 3.927682,8.7499998 8.75,8.7499998 4.822318,0 8.75,-3.927682 8.75,-8.7499998 0,-4.8223182 -3.927682,-8.75000014 -8.75,-8.75000014 z m 0,0.67307693 c 4.460761,0 8.076923,3.46548801 8.076923,7.74038471 0,4.0077153 -3.183773,7.3019323 -7.25661,7.6983173 -0.02086,0.0023 -0.04219,-0.0022 -0.0631,0 -0.251251,0.02257 -0.499804,0.04206 -0.757212,0.04206 -0.257408,0 -0.505961,-0.0195 -0.757212,-0.04206 -0.02091,-0.0022 -0.04225,0.0023 -0.0631,0 -4.072838,-0.396385 -7.256611,-3.690602 -7.256611,-7.6983173 0,-4.2748967 3.616162,-7.74038471 8.076922,-7.74038471 z" style="opacity:0.2"/>
  <circle cx="-32" cy="8" r="8" transform="matrix(1.015625,0,0,1.015625,0.4098513,-0.0349999)" style="fill:#444a58"/>
 </g>
 <g id="22-22-focus" transform="matrix(1.1,0,0,1.1,92.29917,104.101)">
  <rect width="20" height="20" x="-42.09" y="-1.91" style="opacity:0.001"/>
  <path style="fill:#5294e2" transform="matrix(0.90909091,0,0,0.90909091,-83.908336,-94.637273)" d="M 57 103 C 51.488779 103 47 107.48878 47 113 C 47 118.51122 51.488779 123 57 123 C 62.511219 123 67 118.51122 67 113 C 67 107.48878 62.511219 103 57 103 z"/>
 </g>
 <g id="22-22-hover" transform="matrix(1.1,0,0,1.1,92.29917,71.101)">
  <rect width="20" height="20" x="-42.09" y="-1.91" style="opacity:0.001"/>
  <path d="m -32.090154,-1.0009092 c -5.010201,0 -9.09091,4.0807082 -9.09091,9.0909093 0,5.0102009 4.080709,9.0909089 9.09091,9.0909089 5.010199,0 9.090908,-4.080708 9.090908,-9.0909089 0,-5.0102011 -4.080709,-9.0909093 -9.090908,-9.0909093 z m 0,1.01010101 c 4.462906,0 8.080807,3.39178199 8.080807,7.57575779 0,3.9224774 -3.185304,7.1562374 -7.260101,7.5441914 -0.03125,0.0036 -0.06332,-0.0032 -0.0947,0 -0.241157,0.0203 -0.479215,0.03157 -0.72601,0.03157 -0.246795,0 -0.484853,-0.01127 -0.726011,-0.03157 -0.03138,-0.0032 -0.06344,0.0036 -0.0947,0 -4.074796,-0.387954 -7.260101,-3.621714 -7.260101,-7.5441914 0,-4.1839758 3.617901,-7.57575779 8.080809,-7.57575779 z" style="opacity:0.2"/>
  <circle cx="-32" cy="8" r="8" transform="matrix(1.0227273,0,0,1.0227273,0.63711821,-0.0918182)" style="fill:#444a58"/>
 </g>
 <g id="normal" transform="matrix(1.6,0,0,1.6,67.344238,3.0559999)">
  <rect width="20" height="20" x="-42.09" y="-1.91" style="opacity:0.001"/>
  <path d="m -32.090149,-0.65999994 c -4.822318,0 -8.75,3.92768194 -8.75,8.75000014 0,4.8223178 3.927682,8.7499998 8.75,8.7499998 4.822318,0 8.75,-3.927682 8.75,-8.7499998 0,-4.8223182 -3.927682,-8.75000014 -8.75,-8.75000014 z m 0,0.67307693 c 4.460761,0 8.076923,3.46548801 8.076923,7.74038471 0,4.0077153 -3.183773,7.3019323 -7.25661,7.6983173 -0.02086,0.0023 -0.04219,-0.0022 -0.0631,0 -0.251251,0.02257 -0.499804,0.04206 -0.757212,0.04206 -0.257408,0 -0.505961,-0.0195 -0.757212,-0.04206 -0.02091,-0.0022 -0.04225,0.0023 -0.0631,0 -4.072838,-0.396385 -7.256611,-3.690602 -7.256611,-7.6983173 0,-4.2748967 3.616162,-7.74038471 8.076922,-7.74038471 z" style="opacity:0.2"/>
  <circle cx="-32" cy="8" r="8" transform="matrix(1.015625,0,0,1.015625,0.4098513,-0.0349999)" style="fill:#444a58"/>
 </g>
 <g id="pressed" transform="translate(-11)">
  <path style="fill:#5294e2" transform="translate(11)" d="M 16 33 C 8.28429 33 2 39.284292 2 47 C 2 54.715709 8.28429 61 16 61 C 23.715708 61 30 54.715709 30 47 C 30 39.284292 23.715708 33 16 33 z"/>
  <path d="M 11,31 H 43 V 63 H 11 Z" style="opacity:0.001"/>
 </g>
 <g id="22-22-normal" transform="matrix(1.1,0,0,1.1,92.29917,13.101)">
  <rect width="20" height="20" x="-42.09" y="-1.91" style="opacity:0.001"/>
  <path d="m -32.090154,-1.0009092 c -5.010201,0 -9.09091,4.0807082 -9.09091,9.0909093 0,5.0102009 4.080709,9.0909089 9.09091,9.0909089 5.010199,0 9.090908,-4.080708 9.090908,-9.0909089 0,-5.0102011 -4.080709,-9.0909093 -9.090908,-9.0909093 z m 0,1.01010101 c 4.462906,0 8.080807,3.39178199 8.080807,7.57575779 0,3.9224774 -3.185304,7.1562374 -7.260101,7.5441914 -0.03125,0.0036 -0.06332,-0.0032 -0.0947,0 -0.241157,0.0203 -0.479215,0.03157 -0.72601,0.03157 -0.246795,0 -0.484853,-0.01127 -0.726011,-0.03157 -0.03138,-0.0032 -0.06344,0.0036 -0.0947,0 -4.074796,-0.387954 -7.260101,-3.621714 -7.260101,-7.5441914 0,-4.1839758 3.617901,-7.57575779 8.080809,-7.57575779 z" style="opacity:0.2"/>
  <path transform="matrix(1.0227273,0,0,1.0227273,0.63711821,-0.0918182)" d="m -24,8 a 8,8 0 0 1 -8,8 8,8 0 0 1 -8,-8 8,8 0 0 1 8,-8 8,8 0 0 1 8,8 z" style="fill:#444a58"/>
 </g>
 <g id="22-22-pressed" transform="translate(-11)">
  <path style="fill:#5294e2" transform="translate(11)" d="M 57 42 C 51.488779 42 47 46.488779 47 52 C 47 57.51122 51.488779 62 57 62 C 62.51122 62 67 57.51122 67 52 C 67 46.488779 62.51122 42 57 42 z"/>
  <rect width="22" height="22" x="57" y="41" style="opacity:0.001"/>
 </g>
</svg>
