<svg xmlns="http://www.w3.org/2000/svg" xmlns:xlink="http://www.w3.org/1999/xlink" id="svg3642" width="205" height="210.939" version="1">
 <defs id="defs3644">
  <linearGradient id="linearGradient4465">
   <stop id="stop4467" style="stop-color:#000000;stop-opacity:0.50980395" offset="0"/>
   <stop id="stop4469" style="stop-color:#000000;stop-opacity:0;" offset="1"/>
  </linearGradient>
  <radialGradient id="radialGradient3382" cx="984" cy="905.362" r="8.5" fx="984" fy="905.362" gradientTransform="matrix(7.8257357e-6,1.411771,-1.4117668,7.8257123e-6,1649.1525,-1082.1898)" gradientUnits="userSpaceOnUse" xlink:href="#linearGradient4465"/>
  <radialGradient id="radialGradient4255" cx="982.909" cy="906.453" r="8.5" fx="982.909" fy="906.453" gradientTransform="matrix(1.4117577,5.5406049e-6,-5.5406032e-6,1.4117573,-1016.6245,-1022.6973)" gradientUnits="userSpaceOnUse" xlink:href="#linearGradient4465"/>
  <linearGradient id="linearGradient4259" x1="83.6" x2="83.6" y1="-969.362" y2="-957.362" gradientTransform="matrix(0.71428571,0,0,1,-317.71429,1250.3622)" gradientUnits="userSpaceOnUse" xlink:href="#linearGradient4465"/>
  <radialGradient id="radialGradient4263" cx="984" cy="905.362" r="8.5" fx="984" fy="905.362" gradientTransform="matrix(-1.411767,-9.899721e-6,9.8996845e-6,-1.4117618,1710.1698,1585.1655)" gradientUnits="userSpaceOnUse" xlink:href="#linearGradient4465"/>
  <linearGradient id="linearGradient4271" x1="83.6" x2="83.6" y1="-969.362" y2="-957.362" gradientTransform="matrix(0.71428571,0,0,1,-317.71429,1250.3622)" gradientUnits="userSpaceOnUse" xlink:href="#linearGradient4465"/>
  <radialGradient id="radialGradient4275" cx="984" cy="905.362" r="8.5" fx="984" fy="905.362" gradientTransform="matrix(-1.6187099e-5,-1.4117565,1.4117775,-1.618734e-5,-957.15389,1646.183)" gradientUnits="userSpaceOnUse" xlink:href="#linearGradient4465"/>
  <linearGradient id="linearGradient4283" x1="83.6" x2="83.6" y1="-969.362" y2="-957.362" gradientTransform="matrix(0.71428571,0,0,1,-317.71429,1250.3622)" gradientUnits="userSpaceOnUse" xlink:href="#linearGradient4465"/>
  <linearGradient id="linearGradient4452" x1="-260" x2="-260" y1="281" y2="293" gradientUnits="userSpaceOnUse" xlink:href="#linearGradient4465"/>
  <linearGradient id="linearGradient4326" x1="83.6" x2="83.6" y1="-969.362" y2="-957.362" gradientTransform="matrix(0.7142856,0,0,1,189.28578,712.3622)" gradientUnits="userSpaceOnUse" xlink:href="#linearGradient4465"/>
  <radialGradient id="radialGradient4328" cx="984" cy="905.362" r="8.5" fx="984" fy="905.362" gradientTransform="matrix(-1.845693e-5,1.4117731,-1.411746,-1.8456574e-5,1528.1598,-1082.1681)" gradientUnits="userSpaceOnUse" xlink:href="#linearGradient4465"/>
  <linearGradient id="linearGradient4330" x1="83.6" x2="83.6" y1="-969.362" y2="-957.362" gradientTransform="matrix(0.71428571,0,0,1,189.28573,1276.3622)" gradientUnits="userSpaceOnUse" xlink:href="#linearGradient4465"/>
  <radialGradient id="radialGradient4332" cx="982.909" cy="906.453" r="8.5" fx="982.909" fy="906.453" gradientTransform="matrix(1.4117614,2.0244477e-6,-2.0244433e-6,1.4117574,-1137.6313,-1022.6939)" gradientUnits="userSpaceOnUse" xlink:href="#linearGradient4465"/>
  <linearGradient id="linearGradient4334" x1="-260" x2="-260" y1="281" y2="293" gradientTransform="translate(0,-30.999907)" gradientUnits="userSpaceOnUse" xlink:href="#linearGradient4465"/>
  <radialGradient id="radialGradient4336" cx="984" cy="905.362" r="8.5" fx="984" fy="905.362" gradientTransform="matrix(-1.411789,7.7476025e-6,-7.7474229e-6,-1.4117563,1589.2075,1585.1432)" gradientUnits="userSpaceOnUse" xlink:href="#linearGradient4465"/>
  <linearGradient id="linearGradient4338" x1="83.6" x2="83.6" y1="-969.362" y2="-957.362" gradientTransform="matrix(0.71428571,0,0,0.99999985,-317.71429,769.36199)" gradientUnits="userSpaceOnUse" xlink:href="#linearGradient4465"/>
  <radialGradient id="radialGradient4340" cx="984" cy="905.362" r="8.5" fx="984" fy="905.362" gradientTransform="matrix(-2.0538847e-5,-1.4117565,1.4117782,-2.0539163e-5,-1078.1502,1646.1869)" gradientUnits="userSpaceOnUse" xlink:href="#linearGradient4465"/>
 </defs>
 <g id="layer1" transform="translate(-183,-207.06091)">
  <path id="shadow-topleft" style="opacity:1;fill:url(#radialGradient4275);fill-opacity:1;stroke:none" d="m 304,257 10,0 0,-2 c 0,-2.77 2.23,-5 5,-5 l 2,0 0,-10 -17,0 z"/>
  <g id="shadow-left" transform="matrix(-1,0,0,1,602,-2.0802014e-7)">
   <rect id="rect4267" style="opacity:1;fill:url(#linearGradient4271);fill-opacity:1.0;stroke:none" width="50" height="10" x="-307" y="288" transform="matrix(0,-1,1,0,0,0)"/>
   <rect id="rect4269" style="fill:#3498db;fill-opacity:0" width="7" height="1" x="278" y="257" transform="translate(3,2)"/>
  </g>
  <path id="shadow-bottomright" style="opacity:1;fill:url(#radialGradient3382);fill-opacity:1;stroke:none" d="m 388,307 -10,0 0,2 c 0,2.77 -2.23,5 -5,5 l -2,0 0,10 17,0 z"/>
  <g id="shadow-bottom" transform="matrix(0,1,-1,0,628,26)">
   <rect id="rect3389" style="opacity:1;fill:url(#linearGradient4259);fill-opacity:1.0;stroke:none" width="50" height="10" x="-307" y="288" transform="matrix(0,-1,1,0,0,0)"/>
   <rect id="rect4241" style="fill:#3498db;fill-opacity:0" width="7" height="1" x="278" y="257" transform="translate(3,2)"/>
  </g>
  <g id="shadow-right" transform="translate(90,0)">
   <rect id="rect4251" style="opacity:1;fill:url(#linearGradient4452);fill-opacity:1.0;stroke:none" width="50" height="10" x="-307" y="288" transform="matrix(0,-1,1,0,0,0)"/>
   <rect id="rect4253" style="fill:#3498db;fill-opacity:0" width="7" height="1" x="278" y="257" transform="translate(3,2)"/>
  </g>
  <g id="shadow-top" transform="matrix(0,-1,-1,0,628,538)">
   <rect id="rect4279" style="opacity:1;fill:url(#linearGradient4283);fill-opacity:1.0;stroke:none" width="50" height="10" x="-307" y="288" transform="matrix(0,-1,1,0,0,0)"/>
   <rect id="rect4281" style="fill:#3498db;fill-opacity:0" width="7" height="1" x="278" y="257" transform="translate(3,2)"/>
  </g>
  <path id="shadow-topright" style="opacity:1;fill:url(#radialGradient4255);fill-opacity:1;stroke:none" d="m 371,240 0,10 2,0 c 2.77,0 5,2.23 5,5 l 0,2 10,0 0,-17 z"/>
  <rect id="center" style="opacity:0.95;fill:#353945;fill-opacity:1;stroke:none" width="50" height="50" x="200" y="257"/>
  <g id="topleft">
   <path id="path4324" style="opacity:1;fill:url(#radialGradient4340);fill-opacity:1;stroke:none" d="m 183.00006,257 10,0 0,-2 c 0,-2.77 2.23,-5 5,-5 l 2,0 0,-10 -17,0 z"/>
   <path id="path4428" style="opacity:0.95;fill:#353945;fill-opacity:1;stroke:none" d="m 200.00001,249.99982 0,7 -7,0 0,-2 c 0,-2.77 2.23,-5 5,-5 z"/>
   <path id="path4497" style="opacity:0.2;fill:#000000;fill-opacity:1;stroke:none" d="m 198,249.99988 c -2.77,0 -5,2.23 -5,5 l 0,2 1,0 0,-1 c 0,-3 2,-5 5,-5 l 1,0 0,-1 z"/>
  </g>
  <g id="left">
   <rect id="rect4320" style="opacity:1;fill:url(#linearGradient4338);fill-opacity:1;stroke:none" width="50" height="10" x="-307" y="-193" transform="matrix(0,-1,-1,0,0,0)"/>
   <path id="path4418" style="opacity:0.95;fill:#353945;fill-opacity:1;stroke:none" d="m 193.00002,256.99981 0,50 7,10e-6 0,-50 z"/>
   <path id="path4502" style="opacity:0.2;fill:#000000;fill-opacity:1;stroke:none" d="m 193,256.99988 0,50 1,0 0,-50 -1,0 z"/>
  </g>
  <g id="right">
   <rect id="rect4312" style="opacity:1;fill:url(#linearGradient4334);fill-opacity:1;stroke:none" width="50" height="10" x="-307" y="257" transform="matrix(0,-1,1,0,0,0)"/>
   <path id="path4396" style="opacity:0.95;fill:#353945;fill-opacity:1;stroke:none" d="m 257,256.99982 0,50 -7,10e-6 0,-50 z"/>
   <path id="path4507" style="opacity:0.2;fill:#000000;fill-opacity:1;stroke:none" d="m 256,306.99988 1,0 0,-50 -1,0 0,50 z"/>
  </g>
  <g id="bottomleft">
   <path id="path4316" style="opacity:1;fill:url(#radialGradient4336);fill-opacity:1;stroke:none" d="m 200.00006,324 0,-10 -2,0 c -2.77,0 -5,-2.23 -5,-5 l 0,-2 -10,0 0,17 z"/>
   <path id="path4414" style="opacity:0.95;fill:#353945;fill-opacity:1;stroke:none" d="m 200.00001,313.99991 0,-7 -7,0 0,2 c 0,2.77 2.23,5 5,5 z"/>
   <path id="path4509" style="opacity:0.2;fill:#000000;fill-opacity:1;stroke:none" d="m 193,308.99988 c 0,2.77 2.23,5 5,5 l 2,0 0,-1 -1,0 c -3,0 -5,-2 -5,-5 l 0,-1 -1,0 z"/>
  </g>
  <g id="bottom">
   <rect id="rect4304" style="opacity:1;fill:url(#linearGradient4330);fill-opacity:1;stroke:none" width="50" height="10" x="200" y="314"/>
   <path id="path4404" style="opacity:0.95;fill:#353945;fill-opacity:1;stroke:none" d="m 199.99998,313.99995 50.00002,0 0,-7 -50.00001,0 z"/>
   <path id="path4511" style="opacity:0.2;fill:#000000;fill-opacity:1;stroke:none" d="m 200,313.99988 50,0 0,-1 -50,0 0,1 z"/>
  </g>
  <g id="bottomright">
   <path id="path4300" style="opacity:1;fill:url(#radialGradient4328);fill-opacity:1;stroke:none" d="m 267.00005,307 -10,0 0,2 c 0,2.77 -2.23,5 -5,5 l -2,0 0,10 17,0 z"/>
   <path id="path4392" style="opacity:0.95;fill:#353945;fill-opacity:1;stroke:none" d="m 250,313.99991 0,-7 7,0 0,2 c 0,2.77 -2.23,5 -5,5 z"/>
   <path id="path4513" style="opacity:0.2;fill:#000000;fill-opacity:1;stroke:none" d="m 257,308.99988 c 0,2.77 -2.23,5 -5,5 l -2,0 0,-1 1,0 c 3,0 5,-2 5,-5 l 0,-1 1,0 z"/>
  </g>
  <g id="shadow-center" style="fill:#000000;fill-opacity:0" transform="matrix(0.31570315,0,0,0.31570315,-68.271864,212.33682)">
   <path id="path3642" style="fill:#000000;fill-opacity:0;stroke:none" d="m -6.0000004,-7.998957 0,62 62.0000004,0 0,-62 -62.0000004,0 z"/>
  </g>
  <path id="shadow-bottomleft" style="opacity:1;fill:url(#radialGradient4263);fill-opacity:1;stroke:none" d="m 321,324 0,-10 -2,0 c -2.77,0 -5,-2.23 -5,-5 l 0,-2 -10,0 0,17 z"/>
  <g id="top">
   <path id="path4382" style="opacity:0.95;fill:#353945;fill-opacity:1;stroke:none" d="m 199.99998,249.99982 50.00002,0 0,7 -50.00001,0 z"/>
   <path id="path4492" style="opacity:0.2;fill:#000000;fill-opacity:1;stroke:none" d="m 200,249.99988 0,1 50,0 0,-1 -50,0 z"/>
   <rect id="rect4288" style="opacity:1;fill:url(#linearGradient4326);fill-opacity:1;stroke:none" width="50" height="10" x="200" y="-250" transform="scale(1,-1)"/>
  </g>
  <g id="topright">
   <path id="path4378" style="opacity:0.95;fill:#353945;fill-opacity:1;stroke:none" d="m 250,249.99982 0,7 7,0 0,-2 c 0,-2.77 -2.23,-5 -5,-5 z"/>
   <path id="path4515" style="opacity:0.2;fill:#000000;fill-opacity:1;stroke:none" d="m 252,249.99988 c 2.77,0 5,2.23 5,5 l 0,2 -1,0 0,-1 c 0,-3 -2,-5 -5,-5 l -1,0 0,-1 z"/>
   <path id="path4308" style="opacity:1;fill:url(#radialGradient4332);fill-opacity:1;stroke:none" d="m 250.00005,240 0,10 2,0 c 2.77,0 5,2.23 5,5 l 0,2 10,0 0,-17 z"/>
  </g>
  <rect id="hint-tile-center" style="opacity:1;fill:#ff6600;fill-opacity:1;stroke:none" width="5" height="5" x="183" y="207"/>
  <rect id="hint-top-margin" style="fill:#ff00ff;fill-opacity:1;stroke:none" width="4" height="17" x="222" y="240"/>
  <rect id="hint-bottom-margin" style="fill:#ff00ff;fill-opacity:1;stroke:none" width="4" height="17" x="222" y="307"/>
  <rect id="hint-right-margin" style="fill:#ff00ff;fill-opacity:1;stroke:none" width="4" height="17" x="279" y="-267" transform="matrix(0,1,-1,0,0,0)"/>
  <rect id="hint-left-margin" style="fill:#ff00ff;fill-opacity:1;stroke:none" width="4" height="17" x="279" y="-200" transform="matrix(0,1,-1,0,0,0)"/>
  <rect id="shadow-hint-top-margin" style="fill:#ff00ff;fill-opacity:1;stroke:none" width="4" height="17" x="344" y="240"/>
  <rect id="shadow-hint-bottom-margin" style="fill:#ff00ff;fill-opacity:1;stroke:none" width="4" height="17" x="344" y="307"/>
  <rect id="shadow-hint-right-margin" style="fill:#ff00ff;fill-opacity:1;stroke:none" width="4" height="17" x="279" y="-388" transform="matrix(0,1,-1,0,0,0)"/>
  <rect id="shadow-hint-left-margin" style="fill:#ff00ff;fill-opacity:1;stroke:none" width="4" height="17" x="279" y="-321" transform="matrix(0,1,-1,0,0,0)"/>
 </g>
</svg>
