<svg xmlns="http://www.w3.org/2000/svg" width="30" height="30" version="1.1">
 <rect id="hint-tile-center" width="4" height="4" x="0" y="0" style="fill:#ff2a2a"/>
 <rect id="hint-bar-size" width="6" height="6" x="6" y="0" style="fill:#ff2a2a"/>
 <path id="bar-inactive-bottomright" d="m 17,15 v 3 c 1.661989,0 3,-1.338011 3,-3 z" style="opacity:0.2"/>
 <path id="bar-inactive-right" d="m 17,12 v 2 h 3 v -2 z" style="opacity:0.2"/>
 <path id="bar-inactive-topright" d="m 17,8 v 3 h 3 C 20,9.3380111 18.661989,8 17,8 Z" style="opacity:0.2"/>
 <path id="bar-inactive-bottomleft" d="m 10,15 c 0,1.661989 1.338011,3 3,3 v -3 z" style="opacity:0.2"/>
 <path id="bar-inactive-left" d="m 10,12 v 2 h 3 v -2 z" style="opacity:0.2"/>
 <path id="bar-inactive-topleft" d="m 13,8 c -1.661989,0 -3,1.3380111 -3,3 h 3 z" style="opacity:0.2"/>
 <path id="bar-inactive-bottom" d="m 14,15 v 3 h 2 v -3 z" style="opacity:0.2"/>
 <path id="bar-inactive-center" d="m 16,12 h -2 v 2 h 2 z" style="opacity:0.2"/>
 <path id="bar-inactive-top" d="m 14,8 v 3 h 2 V 8 Z" style="opacity:0.2"/>
 <path id="bar-active-bottomright" d="m 17,27 v 3 c 1.661989,0 3,-1.33801 3,-3 z" style="fill:#5294e2"/>
 <path id="bar-active-right" d="m 17,24 v 2 h 3 v -2 z" style="fill:#5294e2"/>
 <path id="bar-active-topright" d="m 17,20 v 3 h 3 c 0,-1.66199 -1.338011,-3 -3,-3 z" style="fill:#5294e2"/>
 <path id="bar-active-bottomleft" d="m 10,27 c 0,1.66199 1.338011,3 3,3 v -3 z" style="fill:#5294e2"/>
 <path id="bar-active-left" d="m 10,24 v 2 h 3 v -2 z" style="fill:#5294e2"/>
 <path id="bar-active-topleft" d="m 13,20 c -1.661989,0 -3,1.33801 -3,3 h 3 z" style="fill:#5294e2"/>
 <path id="bar-active-bottom" d="m 14,27 v 3 h 2 v -3 z" style="fill:#5294e2"/>
 <path id="bar-active-center" d="m 16,24 h -2 v 2 h 2 z" style="fill:#5294e2"/>
 <path id="bar-active-top" d="m 14,20 v 3 h 2 v -3 z" style="fill:#5294e2"/>
 <rect id="hint-stretch-borders" width="3" height="3" x="0" y="6" style="fill:#ff2a2a"/>
 <rect id="hint-bar-stretch" width="3" height="3" x="0" y="11" style="fill:#ff2a2a"/>
</svg>
