<svg xmlns="http://www.w3.org/2000/svg" id="svg2" width="30" height="30" version="1.1" viewBox="0 0 30 30">
 <g id="layer1" transform="translate(0,-904.36218)">
  <rect id="hint-tile-center" width="4" height="4" x="0" y="904.36" style="opacity:1;fill:#ff2a2a;fill-opacity:1;stroke:none"/>
  <rect id="hint-bar-size" width="6" height="6" x="6" y="904.36" style="opacity:1;fill:#ff2a2a;fill-opacity:1;stroke:none"/>
  <path id="bar-inactive-bottomright" d="m 17,15 0,3 c 1.661989,0 3,-1.338011 3,-3 l -3,0 z" transform="translate(0,904.36218)" style="opacity:0.2;fill:#000000;fill-opacity:1;stroke:none"/>
  <path id="bar-inactive-right" d="m 17,12 0,2 3,0 0,-2 -3,0 z" transform="translate(0,904.36218)" style="opacity:0.2;fill:#000000;fill-opacity:1;stroke:none"/>
  <path id="bar-inactive-topright" d="m 17,8 0,3 3,0 C 20,9.3380111 18.661989,8 17,8 Z" transform="translate(0,904.36218)" style="opacity:0.2;fill:#000000;fill-opacity:1;stroke:none"/>
  <path id="bar-inactive-bottomleft" d="m 10,15 c 0,1.661989 1.338011,3 3,3 l 0,-3 -3,0 z" transform="translate(0,904.36218)" style="opacity:0.2;fill:#000000;fill-opacity:1;stroke:none"/>
  <path id="bar-inactive-left" d="m 10,12 0,2 3,0 0,-2 -3,0 z" transform="translate(0,904.36218)" style="opacity:0.2;fill:#000000;fill-opacity:1;stroke:none"/>
  <path id="bar-inactive-topleft" d="m 13,8 c -1.661989,0 -3,1.3380111 -3,3 l 3,0 0,-3 z" transform="translate(0,904.36218)" style="opacity:0.2;fill:#000000;fill-opacity:1;stroke:none"/>
  <path id="bar-inactive-bottom" d="m 14,15 0,3 2,0 0,-3 -2,0 z" transform="translate(0,904.36218)" style="opacity:0.2;fill:#000000;fill-opacity:1;stroke:none"/>
  <path id="bar-inactive-center" d="m 16,12 -2,0 0,2 2,0 0,-2 z" transform="translate(0,904.36218)" style="opacity:0.2;fill:#000000;fill-opacity:1;stroke:none"/>
  <path id="bar-inactive-top" d="m 14,8 0,3 2,0 0,-3 -2,0 z" transform="translate(0,904.36218)" style="opacity:0.2;fill:#000000;fill-opacity:1;stroke:none"/>
  <path id="bar-active-bottomright" d="m 17,931.36218 0,3 c 1.661989,0 3,-1.33801 3,-3 l -3,0 z" style="opacity:1;fill:#5294e2;fill-opacity:1;stroke:none"/>
  <path id="bar-active-right" d="m 17,928.36218 0,2 3,0 0,-2 -3,0 z" style="opacity:1;fill:#5294e2;fill-opacity:1;stroke:none"/>
  <path id="bar-active-topright" d="m 17,924.36218 0,3 3,0 c 0,-1.66199 -1.338011,-3 -3,-3 z" style="opacity:1;fill:#5294e2;fill-opacity:1;stroke:none"/>
  <path id="bar-active-bottomleft" d="m 10,931.36218 c 0,1.66199 1.338011,3 3,3 l 0,-3 -3,0 z" style="opacity:1;fill:#5294e2;fill-opacity:1;stroke:none"/>
  <path id="bar-active-left" d="m 10,928.36218 0,2 3,0 0,-2 -3,0 z" style="opacity:1;fill:#5294e2;fill-opacity:1;stroke:none"/>
  <path id="bar-active-topleft" d="m 13,924.36218 c -1.661989,0 -3,1.33801 -3,3 l 3,0 0,-3 z" style="opacity:1;fill:#5294e2;fill-opacity:1;stroke:none"/>
  <path id="bar-active-bottom" d="m 14,931.36218 0,3 2,0 0,-3 -2,0 z" style="opacity:1;fill:#5294e2;fill-opacity:1;stroke:none"/>
  <path id="bar-active-center" d="m 16,928.36218 -2,0 0,2 2,0 0,-2 z" style="opacity:1;fill:#5294e2;fill-opacity:1;stroke:none"/>
  <path id="bar-active-top" d="m 14,924.36218 0,3 2,0 0,-3 -2,0 z" style="opacity:1;fill:#5294e2;fill-opacity:1;stroke:none"/>
  <rect id="hint-stretch-borders" width="3" height="3" x="0" y="910.36" style="opacity:1;fill:#ff2a2a;fill-opacity:1;stroke:none"/>
  <rect id="hint-bar-stretch" width="3" height="3" x="0" y="915.36" style="opacity:1;fill:#ff2a2a;fill-opacity:1;stroke:none"/>
 </g>
</svg>
