<svg xmlns="http://www.w3.org/2000/svg" id="svg5048" width="48" height="48" version="1.1">
 <defs id="defs5050">
  <style id="current-color-scheme" type="text/css">
   .ColorScheme-Text { color:#31363b; } .ColorScheme-Background{ color:#eff0f1; } .ColorScheme-ViewText { color:#31363b; } .ColorScheme-ViewBackground{ color:#fcfcfc; } .ColorScheme-ViewHover { color:#3daee9; } .ColorScheme-ViewFocus{ color:#3daee9; } .ColorScheme-ButtonText { color:#31363b; } .ColorScheme-ButtonBackground{ color:#eff0f1; } .ColorScheme-ButtonHover { color:#3daee9; } .ColorScheme-ButtonFocus{ color:#3daee9; }
  </style>
  <style id="current-color-scheme-5" type="text/css">
   .ColorScheme-Text { color:#31363b; } .ColorScheme-Background{ color:#eff0f1; } .ColorScheme-ViewText { color:#31363b; } .ColorScheme-ViewBackground{ color:#fcfcfc; } .ColorScheme-ViewHover { color:#3daee9; } .ColorScheme-ViewFocus{ color:#3daee9; } .ColorScheme-ButtonText { color:#31363b; } .ColorScheme-ButtonBackground{ color:#eff0f1; } .ColorScheme-ButtonHover { color:#3daee9; } .ColorScheme-ButtonFocus{ color:#3daee9; }
  </style>
  <style id="current-color-scheme-7" type="text/css">
   .ColorScheme-Text { color:#31363b; } .ColorScheme-Background{ color:#eff0f1; } .ColorScheme-ViewText { color:#31363b; } .ColorScheme-ViewBackground{ color:#fcfcfc; } .ColorScheme-ViewHover { color:#3daee9; } .ColorScheme-ViewFocus{ color:#3daee9; } .ColorScheme-ButtonText { color:#31363b; } .ColorScheme-ButtonBackground{ color:#eff0f1; } .ColorScheme-ButtonHover { color:#3daee9; } .ColorScheme-ButtonFocus{ color:#3daee9; }
  </style>
 </defs>
 <rect id="rect3024" style="fill-opacity:0" width="20" height="60" x="864" y="-409.04" ry="10"/>
 <rect id="rect3861" style="opacity:0" width="48" height="48" x="0" y="0"/>
 <g id="g4162" transform="translate(0,-2.4414063e-5)">
  <rect id="rect4203" style="fill:#2c9bff;fill-opacity:1" width="40" height="40" x="-44" y="-44" rx="2" ry="2" transform="matrix(0,-1,-1,0,0,0)"/>
  <path id="rect4592" style="opacity:0.2;fill:#ffffff" d="M 6,4 C 4.892,4 4,4.892 4,6 L 4,7 C 4,5.892 4.892,5 6,5 l 36,0 c 1.108,0 2,0.892 2,2 L 44,6 C 44,4.892 43.108,4 42,4 L 6,4 Z"/>
  <path id="path4597" style="opacity:0.3" d="M 6,44 C 4.892,44 4,43.108 4,42 l 0,-1 c 0,1.108 0.892,2 2,2 l 36,0 c 1.108,0 2,-0.892 2,-2 l 0,1 c 0,1.108 -0.892,2 -2,2 L 6,44 Z"/>
  <rect id="rect3861-5" style="opacity:0" width="48" height="48" x="0" y="0"/>
  <path id="path4219" style="color:#31363b;opacity:0.2;fill:#000000;fill-opacity:1" d="M 26.0285,8.0003667 21,8.4973433 21,29.779268 26,29 26,20 33,30 38.943,28 31,19 39,10 33,8 26,18 26,8 Z"/>
  <path id="path4221" style="color:#31363b;opacity:0.2;fill:#000000;fill-opacity:1" d="m 14.701172,14.001953 c -0.0615,0.0075 -0.127328,0.02186 -0.173828,0.06836 l -2.132813,2.119141 c -0.08948,0.08925 -0.09898,0.224031 -0.0332,0.332031 l 2.267578,3.720704 c -0.533337,0.866118 -0.944597,1.813143 -1.222656,2.816406 l -4.1855499,0.86328 C 9.0933531,23.947375 9,24.069469 9,24.199219 l 0,2.992187 c 0,0.12675 0.097403,0.234422 0.2207031,0.263672 l 4.0585939,0.978516 c 0.255309,1.128765 0.686861,2.188674 1.259765,3.15625 l -2.365234,3.576172 c -0.0717,0.10875 -0.05731,0.253452 0.03516,0.345703 l 2.13086,2.117187 c 0.09,0.08925 0.22989,0.100406 0.33789,0.03516 l 3.69336,-2.226562 c 0.9117,0.544943 1.907095,0.960985 2.964844,1.224609 l 0.861328,4.119141 C 22.223516,40.908 22.332391,41 22.462891,41 l 3.013671,0 c 0.126001,0 0.235626,-0.08478 0.265626,-0.207031 l 1.023437,-4.144531 c 1.066083,-0.276179 2.059808,-0.723029 2.974609,-1.285157 l 3.708985,2.414063 c 0.1095,0.0705 0.252703,0.05755 0.345703,-0.0332 l 2.121094,-2.117188 c 0.09,-0.08925 0.11092,-0.226734 0.04492,-0.333984 l -1.447266,-2.371094 -0.47461,0.150391 c -0.069,0.021 -0.145046,-0.01106 -0.185546,-0.07031 0,0 -0.449601,-0.608265 -0.806641,-1.091797 -0.166547,-0.253443 -0.973684,-1.438758 -1.806641,-2.52539 C 29.926747,32.197683 27.104471,33.996722 24,34 c -4.418278,0 -8,-3.581722 -8,-8 0.0029,-3.033662 1.420522,-5.729598 4,-7.080294 l 0,-3.234159 c -0.557871,0.207373 -0.924649,0.462811 -1.435547,0.753906 l -3.691406,-2.400391 c -0.05475,-0.036 -0.11113,-0.04311 -0.171875,-0.03711 z"/>
  <path id="path4204" style="color:#31363b;fill:#ffffff;fill-opacity:1" d="M 26.0285,7.0003667 21,7.4973433 21,28.779268 26,28 26,19 33,29 38.943,27 31,18 39,9 33,7 26,17 26,7 Z"/>
  <path id="path4143-6" style="color:#31363b;fill:#ffffff;fill-opacity:1" d="m 14.701172,13.001953 c -0.0615,0.0075 -0.127328,0.02186 -0.173828,0.06836 l -2.132813,2.119141 c -0.08948,0.08925 -0.09898,0.224031 -0.0332,0.332031 l 2.267578,3.720704 c -0.533337,0.866118 -0.944597,1.813143 -1.222656,2.816406 l -4.1855499,0.86328 C 9.0933531,22.947375 9,23.069469 9,23.199219 l 0,2.992187 c 0,0.12675 0.097403,0.234422 0.2207031,0.263672 l 4.0585939,0.978516 c 0.255309,1.128765 0.686861,2.188674 1.259765,3.15625 l -2.365234,3.576172 c -0.0717,0.10875 -0.05731,0.253452 0.03516,0.345703 l 2.13086,2.117187 c 0.09,0.08925 0.22989,0.100406 0.33789,0.03516 l 3.69336,-2.226562 c 0.9117,0.544943 1.907095,0.960985 2.964844,1.224609 l 0.861328,4.119141 C 22.223516,39.908 22.332391,40 22.462891,40 l 3.013671,0 c 0.126001,0 0.235626,-0.08478 0.265626,-0.207031 l 1.023437,-4.144531 c 1.066083,-0.276179 2.059808,-0.723029 2.974609,-1.285157 l 3.708985,2.414063 c 0.1095,0.0705 0.252703,0.05755 0.345703,-0.0332 l 2.121094,-2.117188 c 0.09,-0.08925 0.11092,-0.226734 0.04492,-0.333984 l -1.447266,-2.371094 -0.47461,0.150391 c -0.069,0.021 -0.145046,-0.01106 -0.185546,-0.07031 0,0 -0.449601,-0.608265 -0.806641,-1.091797 -0.166547,-0.253443 -0.973684,-1.438758 -1.806641,-2.52539 C 29.926747,31.197683 27.104471,32.996722 24,33 c -4.418278,0 -8,-3.581722 -8,-8 0.0029,-3.033662 1.420522,-5.729598 4,-7.080294 l 0,-3.234159 c -0.557871,0.207373 -0.924649,0.462811 -1.435547,0.753906 l -3.691406,-2.400391 c -0.05475,-0.036 -0.11113,-0.04311 -0.171875,-0.03711 z"/>
 </g>
</svg>
