<svg xmlns="http://www.w3.org/2000/svg" width="32" height="32" version="1.1">
 <rect id="hint-rotation-angle" width="32" height="32" x="0" y="32" style="fill:#0000ff"/>
 <g id="stopped">
  <rect style="opacity:0.001" width="32" height="32" x="32.01" y=".01"/>
  <path style="fill:#282f39" d="M 48,0 C 39.175297,0 32,7.1752975 32,16 32,24.824703 39.175297,32 48,32 56.824703,32 64,24.824703 64,16 64,7.1752975 56.824703,0 48,0 Z m 0,2 C 55.743823,2 62,8.2561766 62,16 62,23.743823 55.743823,30 48,30 40.256177,30 34,23.743823 34,16 34,8.2561766 40.256177,2 48,2 Z m 0,2 c -6.615566,-6e-7 -12.000001,5.384434 -12,12 -10e-7,6.615566 5.384434,12.000001 12,12 6.615566,1e-6 12.000001,-5.384434 12,-12 10e-7,-6.615566 -5.384434,-12.0000006 -12,-12 z m 0,2 c 5.534687,-5e-7 10.000001,4.465313 10,10 10e-7,5.534687 -4.465313,10.000001 -10,10 -5.534687,1e-6 -10.000001,-4.465313 -10,-10 -10e-7,-5.534687 4.465313,-10.0000005 10,-10 z"/>
  <path style="fill:#5294e2" d="M 48,1 A 15,15 0 0 0 33,16 15,15 0 0 0 48,31 15,15 0 0 0 63,16 15,15 0 0 0 48,1 Z m 0,4 A 10.999999,10.999999 0 0 1 59,16 10.999999,10.999999 0 0 1 48,27 10.999999,10.999999 0 0 1 37,16 10.999999,10.999999 0 0 1 48,5 Z"/>
 </g>
 <g id="busywidget">
  <rect style="opacity:0.001" width="32" height="32" x="-.03" y="-.03"/>
  <path style="fill:#282f39" d="M 16 0 C 14.354992 0 13 1.354992 13 3 L 13 8 C 13 9.645008 14.354992 11 16 11 C 17.645008 11 19 9.645008 19 8 L 19 3 C 19 1.354992 17.645008 0 16 0 z M 6.8710938 3.8066406 C 6.6941702 3.8028421 6.5155408 3.8155714 6.3378906 3.84375 L 6.3359375 3.84375 C 5.7109963 3.94279 5.1332276 4.2383554 4.6855469 4.6855469 C 3.5207341 5.8490002 3.5207341 7.7662342 4.6855469 8.9296875 L 8.2226562 12.464844 C 9.3858053 13.627744 11.301695 13.627744 12.464844 12.464844 C 13.627744 11.301695 13.627744 9.3858053 12.464844 8.2226562 L 8.9296875 4.6855469 C 8.378364 4.1344848 7.6377625 3.8231008 6.8710938 3.8066406 z M 25.255859 3.8066406 C 25.078936 3.8028421 24.900306 3.8155713 24.722656 3.84375 L 24.720703 3.84375 C 24.095762 3.942791 23.517993 4.2383556 23.070312 4.6855469 L 19.535156 8.2226562 C 18.372256 9.3858053 18.372256 11.301695 19.535156 12.464844 C 20.698305 13.627743 22.614195 13.627743 23.777344 12.464844 L 27.314453 8.9296875 C 28.479266 7.7662342 28.479266 5.8490002 27.314453 4.6855469 C 26.76313 4.1344847 26.022528 3.8231008 25.255859 3.8066406 z M 3 13 C 1.354992 13 0 14.354992 0 16 C 0 17.645008 1.354992 19 3 19 L 8 19 C 9.645008 19 11 17.645008 11 16 C 11 14.354992 9.645008 13 8 13 L 3 13 z M 24 13 C 22.354992 13 21 14.354992 21 16 C 21 17.645008 22.354992 19 24 19 L 29 19 C 30.645008 19 32 17.645008 32 16 C 32 14.354992 30.645008 13 29 13 L 24 13 z M 10.230469 18.658203 C 10.112131 18.662652 9.9933933 18.674603 9.875 18.693359 C 9.2493835 18.792129 8.6707573 19.087545 8.2226562 19.535156 L 4.6855469 23.070312 C 3.5207342 24.233767 3.5207342 26.151 4.6855469 27.314453 C 5.8490002 28.479266 7.7662342 28.479266 8.9296875 27.314453 L 12.464844 23.777344 C 13.627743 22.614195 13.627743 20.698305 12.464844 19.535156 C 11.871266 18.942084 11.058835 18.627058 10.230469 18.658203 z M 21.542969 18.658203 C 21.424631 18.662652 21.305893 18.674603 21.1875 18.693359 C 20.561884 18.792129 19.983257 19.087545 19.535156 19.535156 C 18.372257 20.698305 18.372257 22.614195 19.535156 23.777344 L 23.070312 27.314453 C 24.233767 28.479266 26.151 28.479266 27.314453 27.314453 C 28.479266 26.151 28.479266 24.233766 27.314453 23.070312 L 23.777344 19.535156 C 23.183766 18.942084 22.371335 18.627058 21.542969 18.658203 z M 16 21 C 14.354992 21 13 22.354992 13 24 L 13 29 C 13 30.645008 14.354992 32 16 32 C 17.645008 32 19 30.645008 19 29 L 19 24 C 19 22.354992 17.645008 21 16 21 z"/>
  <path style="fill:#5294e2" d="M 16 1 A 2 2 0 0 0 14 3 L 14 8 A 2 2 0 0 0 16 10 A 2 2 0 0 0 18 8 L 18 3 A 2 2 0 0 0 16 1 z M 6.4941406 4.8320312 A 2 2 0 0 0 5.3925781 5.3925781 A 2 2 0 0 0 5.3925781 8.2226562 L 8.9296875 11.757812 A 2 2 0 0 0 11.757812 11.757812 A 2 2 0 0 0 11.757812 8.9296875 L 8.2226562 5.3925781 A 2 2 0 0 0 6.4941406 4.8320312 z M 24.878906 4.8320312 A 2 2 0 0 0 23.777344 5.3925781 L 20.242188 8.9296875 A 2 2 0 0 0 20.242188 11.757812 A 2 2 0 0 0 23.070312 11.757812 L 26.607422 8.2226562 A 2 2 0 0 0 26.607422 5.3925781 A 2 2 0 0 0 24.878906 4.8320312 z M 3 14 A 2 2 0 0 0 1 16 A 2 2 0 0 0 3 18 L 8 18 A 2 2 0 0 0 10 16 A 2 2 0 0 0 8 14 L 3 14 z M 24 14 A 2 2 0 0 0 22 16 A 2 2 0 0 0 24 18 L 29 18 A 2 2 0 0 0 31 16 A 2 2 0 0 0 29 14 L 24 14 z M 10.03125 19.681641 A 2 2 0 0 0 8.9296875 20.242188 L 5.3925781 23.777344 A 2 2 0 0 0 5.3925781 26.607422 A 2 2 0 0 0 8.2226562 26.607422 L 11.757812 23.070312 A 2 2 0 0 0 11.757812 20.242188 A 2 2 0 0 0 10.03125 19.681641 z M 21.34375 19.681641 A 2 2 0 0 0 20.242188 20.242188 A 2 2 0 0 0 20.242188 23.070312 L 23.777344 26.607422 A 2 2 0 0 0 26.607422 26.607422 A 2 2 0 0 0 26.607422 23.777344 L 23.070312 20.242188 A 2 2 0 0 0 21.34375 19.681641 z M 16 22 A 2 2 0 0 0 14 24 L 14 29 A 2 2 0 0 0 16 31 A 2 2 0 0 0 18 29 L 18 24 A 2 2 0 0 0 16 22 z"/>
 </g>
</svg>
