<svg xmlns="http://www.w3.org/2000/svg" id="svg2" width="136" height="40" version="1.1" viewBox="0 0 35.98 10.58">
 <rect id="hint-rotation-angle" width="3.704" height="3.704" x="0" y="10.59" style="fill:#0000ff;fill-opacity:1;fill-rule:nonzero;stroke:none;stroke-width:0.26458335"/>
 <g id="22-22-busywidget">
  <rect id="rect3007" width="5.82" height="5.82" x="6.61" y="4.76" style="opacity:0.001;fill:#000000;fill-opacity:1;stroke:none"/>
  <path id="path4148" d="M 36 18 A 2 2.0000001 0 0 0 34 20 A 2 2.0000001 0 0 0 36 22 A 2 2.0000001 0 0 0 38 20 A 2 2.0000001 0 0 0 36 18 z M 29.607422 20.636719 A 2.0000001 2 0 0 0 28.222656 21.222656 A 2.0000001 2 0 0 0 28.222656 24.050781 A 2.0000001 2 0 0 0 31.050781 24.050781 A 2.0000001 2 0 0 0 31.050781 21.222656 A 2.0000001 2 0 0 0 29.607422 20.636719 z M 42.333984 20.636719 A 1.9999999 2.0000002 0 0 0 40.949219 21.222656 A 1.9999999 2.0000002 0 0 0 40.949219 24.050781 A 1.9999999 2.0000002 0 0 0 43.777344 24.050781 A 1.9999999 2.0000002 0 0 0 43.777344 21.222656 A 1.9999999 2.0000002 0 0 0 42.333984 20.636719 z M 27 27 A 2.0000001 2 0 0 0 25 29 A 2.0000001 2 0 0 0 27 31 A 2.0000001 2 0 0 0 29 29 A 2.0000001 2 0 0 0 27 27 z M 45 27 A 2.0000001 2 0 0 0 43 29 A 2.0000001 2 0 0 0 45 31 A 2.0000001 2 0 0 0 47 29 A 2.0000001 2 0 0 0 45 27 z M 29.607422 33.363281 A 1.9999999 2.0000002 0 0 0 28.222656 33.949219 A 1.9999999 2.0000002 0 0 0 28.222656 36.777344 A 1.9999999 2.0000002 0 0 0 31.050781 36.777344 A 1.9999999 2.0000002 0 0 0 31.050781 33.949219 A 1.9999999 2.0000002 0 0 0 29.607422 33.363281 z M 42.333984 33.363281 A 2.0000001 2 0 0 0 40.949219 33.949219 A 2.0000001 2 0 0 0 40.949219 36.777344 A 2.0000001 2 0 0 0 43.777344 36.777344 A 2.0000001 2 0 0 0 43.777344 33.949219 A 2.0000001 2 0 0 0 42.333984 33.363281 z M 36 36 A 2 2.0000001 0 0 0 34 38 A 2 2.0000001 0 0 0 36 40 A 2 2.0000001 0 0 0 38 38 A 2 2.0000001 0 0 0 36 36 z" transform="matrix(0.26455883,0,0,0.26455881,0,-0.00117624)" style="opacity:1;fill:#d3dae3;fill-opacity:1;fill-rule:nonzero;stroke:none;stroke-width:2;stroke-linecap:round;stroke-linejoin:round;stroke-miterlimit:4;stroke-dasharray:none;stroke-opacity:1"/>
 </g>
 <g id="16-16-busywidget">
  <rect id="rect4173" width="4.233" height="4.233" x="0" y="6.35" style="opacity:0.001;fill:#000000;fill-opacity:1;stroke:none"/>
  <path id="path4166" d="M 2.1164706,6.3482352 A 0.39683825,0.39683821 0 0 0 1.7196324,6.7450734 0.39683825,0.39683821 0 0 0 2.1164706,7.1419116 0.39683825,0.39683821 0 0 0 2.5133089,6.7450734 0.39683825,0.39683821 0 0 0 2.1164706,6.3482352 Z M 0.89495292,6.8520337 a 0.39683825,0.39683821 0 0 0 -0.27489316,0.1162612 0.39683825,0.39683821 0 0 0 0,0.5611541 0.39683825,0.39683821 0 0 0 0.56115414,0 0.39683825,0.39683821 0 0 0 0,-0.5611541 0.39683825,0.39683821 0 0 0 -0.28626098,-0.1162612 z m 2.43166778,0 a 0.39683825,0.39683821 0 0 0 -0.2748933,0.1162612 0.39683825,0.39683821 0 0 0 0,0.5611541 0.39683825,0.39683821 0 0 0 0.5611541,0 0.39683825,0.39683821 0 0 0 0,-0.5611541 A 0.39683825,0.39683821 0 0 0 3.3266207,6.8520337 Z M 0.39683825,8.0678675 A 0.39683825,0.39683821 0 0 0 0,8.4647057 0.39683825,0.39683821 0 0 0 0.39683825,8.8615439 0.39683825,0.39683821 0 0 0 0.79367649,8.4647057 0.39683825,0.39683821 0 0 0 0.39683825,8.0678675 Z m 3.43926475,0 A 0.39683825,0.39683821 0 0 0 3.4392648,8.4647057 0.39683825,0.39683821 0 0 0 3.836103,8.8615439 0.39683825,0.39683821 0 0 0 4.2329413,8.4647057 0.39683825,0.39683821 0 0 0 3.836103,8.0678675 Z M 0.89495292,9.2837012 a 0.39683825,0.39683821 0 0 0 -0.27489316,0.1162611 0.39683825,0.39683821 0 0 0 0,0.5611541 0.39683825,0.39683821 0 0 0 0.56115414,0 0.39683825,0.39683821 0 0 0 0,-0.5611541 0.39683825,0.39683821 0 0 0 -0.28626098,-0.1162611 z m 2.43166778,0 a 0.39683825,0.39683821 0 0 0 -0.2748933,0.1162611 0.39683825,0.39683821 0 0 0 0,0.5611541 0.39683825,0.39683821 0 0 0 0.5611541,0 0.39683825,0.39683821 0 0 0 0,-0.5611541 A 0.39683825,0.39683821 0 0 0 3.3266207,9.2837012 Z M 2.1164706,9.7874997 A 0.39683825,0.39683821 0 0 0 1.7196324,10.184338 0.39683825,0.39683821 0 0 0 2.1164706,10.581176 0.39683825,0.39683821 0 0 0 2.5133089,10.184338 0.39683825,0.39683821 0 0 0 2.1164706,9.7874997 Z" style="opacity:1;fill:#d3dae3;fill-opacity:1;fill-rule:nonzero;stroke:none;stroke-width:2;stroke-linecap:round;stroke-linejoin:round;stroke-miterlimit:4;stroke-dasharray:none;stroke-opacity:1"/>
 </g>
 <g id="busywidget" transform="matrix(1.9999723,0,0,1.9999723,13.227941,-10.580883)">
  <rect id="rect4190" width="4.233" height="4.233" x="0" y="6.35" style="opacity:0.001;fill:#000000;fill-opacity:1;stroke:none"/>
  <path id="path4192" d="M 2.1164706,6.3482352 A 0.39683825,0.39683821 0 0 0 1.7196324,6.7450734 0.39683825,0.39683821 0 0 0 2.1164706,7.1419116 0.39683825,0.39683821 0 0 0 2.5133089,6.7450734 0.39683825,0.39683821 0 0 0 2.1164706,6.3482352 Z M 0.89495292,6.8520337 a 0.39683825,0.39683821 0 0 0 -0.27489316,0.1162612 0.39683825,0.39683821 0 0 0 0,0.5611541 0.39683825,0.39683821 0 0 0 0.56115414,0 0.39683825,0.39683821 0 0 0 0,-0.5611541 0.39683825,0.39683821 0 0 0 -0.28626098,-0.1162612 z m 2.43166778,0 a 0.39683825,0.39683821 0 0 0 -0.2748933,0.1162612 0.39683825,0.39683821 0 0 0 0,0.5611541 0.39683825,0.39683821 0 0 0 0.5611541,0 0.39683825,0.39683821 0 0 0 0,-0.5611541 A 0.39683825,0.39683821 0 0 0 3.3266207,6.8520337 Z M 0.39683825,8.0678675 A 0.39683825,0.39683821 0 0 0 0,8.4647057 0.39683825,0.39683821 0 0 0 0.39683825,8.8615439 0.39683825,0.39683821 0 0 0 0.79367649,8.4647057 0.39683825,0.39683821 0 0 0 0.39683825,8.0678675 Z m 3.43926475,0 A 0.39683825,0.39683821 0 0 0 3.4392648,8.4647057 0.39683825,0.39683821 0 0 0 3.836103,8.8615439 0.39683825,0.39683821 0 0 0 4.2329413,8.4647057 0.39683825,0.39683821 0 0 0 3.836103,8.0678675 Z M 0.89495292,9.2837012 a 0.39683825,0.39683821 0 0 0 -0.27489316,0.1162611 0.39683825,0.39683821 0 0 0 0,0.5611541 0.39683825,0.39683821 0 0 0 0.56115414,0 0.39683825,0.39683821 0 0 0 0,-0.5611541 0.39683825,0.39683821 0 0 0 -0.28626098,-0.1162611 z m 2.43166778,0 a 0.39683825,0.39683821 0 0 0 -0.2748933,0.1162611 0.39683825,0.39683821 0 0 0 0,0.5611541 0.39683825,0.39683821 0 0 0 0.5611541,0 0.39683825,0.39683821 0 0 0 0,-0.5611541 A 0.39683825,0.39683821 0 0 0 3.3266207,9.2837012 Z M 2.1164706,9.7874997 A 0.39683825,0.39683821 0 0 0 1.7196324,10.184338 0.39683825,0.39683821 0 0 0 2.1164706,10.581176 0.39683825,0.39683821 0 0 0 2.5133089,10.184338 0.39683825,0.39683821 0 0 0 2.1164706,9.7874997 Z" style="opacity:1;fill:#d3dae3;fill-opacity:1;fill-rule:nonzero;stroke:none;stroke-width:2;stroke-linecap:round;stroke-linejoin:round;stroke-miterlimit:4;stroke-dasharray:none;stroke-opacity:1"/>
 </g>
 <g id="stopped">
  <rect id="rect4143" width="8.466" height="8.466" x="24.34" y="2.12" style="opacity:0.001;fill:#000000;fill-opacity:1;fill-rule:nonzero;stroke:none;stroke-width:2;stroke-linecap:round;stroke-linejoin:round;stroke-miterlimit:4;stroke-dasharray:none;stroke-opacity:1"/>
  <path id="path4145" d="m 28.572354,2.1152942 a 4.2329413,4.2329412 0 0 0 -4.232942,4.232941 4.2329413,4.2329412 0 0 0 4.232942,4.2329408 4.2329413,4.2329412 0 0 0 4.232941,-4.2329408 4.2329413,4.2329412 0 0 0 -4.232941,-4.232941 z m 0,1.5873529 a 2.6455882,2.6455881 0 0 1 2.645588,2.6455881 2.6455882,2.6455881 0 0 1 -2.645588,2.6455881 2.6455882,2.6455881 0 0 1 -2.645589,-2.6455881 2.6455882,2.6455881 0 0 1 2.645589,-2.6455881 z" style="opacity:1;fill:#d3dae3;fill-opacity:1;fill-rule:nonzero;stroke:none;stroke-width:2;stroke-linecap:round;stroke-linejoin:round;stroke-miterlimit:4;stroke-dasharray:none;stroke-opacity:1"/>
 </g>
</svg>
