<svg xmlns="http://www.w3.org/2000/svg" id="svg2" width="136" height="136" version="1.1" viewBox="0 0 35.98 35.98">
 <g id="layer1" transform="translate(0.52916664,-249.37498)">
  <g id="stopped">
   <rect id="rect4234" style="opacity:1;fill:none;fill-opacity:1;stroke:none;stroke-width:0.02645833;stroke-linecap:square;stroke-linejoin:miter;stroke-miterlimit:4;stroke-dasharray:none;stroke-dashoffset:0;stroke-opacity:1" width="35.983" height="35.983" x="-42.86" y="249.38"/>
   <ellipse id="ellipse4238" style="opacity:1;fill:#5294e2;fill-opacity:1;stroke:none;stroke-width:0.01322917;stroke-linecap:square;stroke-linejoin:miter;stroke-miterlimit:4;stroke-dasharray:none;stroke-dashoffset:0;stroke-opacity:1" cx="267.367" cy="38.365" rx="1.323" ry="1.323" transform="rotate(90)"/>
   <ellipse id="ellipse4261" style="opacity:1;fill:#5294e2;fill-opacity:1;stroke:none;stroke-width:0.01058334;stroke-linecap:square;stroke-linejoin:miter;stroke-miterlimit:4;stroke-dasharray:none;stroke-dashoffset:0;stroke-opacity:1" cx="267.367" cy="11.377" rx="1.058" ry="1.058" transform="rotate(90)"/>
   <ellipse id="ellipse4263" style="opacity:1;fill:#5294e2;fill-opacity:1;stroke:none;stroke-width:0.02116666;stroke-linecap:square;stroke-linejoin:miter;stroke-miterlimit:4;stroke-dasharray:none;stroke-dashoffset:0;stroke-opacity:1" cx="267.367" cy="24.871" rx="2.117" ry="2.117" transform="rotate(90)"/>
  </g>
  <rect id="hint-rotation-angle" style="fill:#0000ff;fill-opacity:1;fill-rule:nonzero;stroke:none;stroke-width:0.26458335" width="3.704" height="3.704" x="-.53" y="285.36"/>
  <g id="busywidget" transform="translate(-36.777084,0)">
   <rect id="rect3016" style="fill:none;stroke:none" width="35.983" height="35.983" x="36.25" y="249.38"/>
   <path id="path3018" style="fill:#5294e2;fill-opacity:1;stroke:none;opacity:1"  d="m 207,7 a 60.999998,61.000013 0 0 0 -61,61 60.999998,61.000013 0 0 0 52.5,60.34375 60.999998,61.000013 0 0 0 0.0625,0 60.999998,61.000013 0 0 0 0.125,0.0313 60.999998,61.000013 0 0 0 3.46875,0.40625 60.999998,61.000013 0 0 0 1.34375,0.0937 60.999998,61.000013 0 0 0 0.0313,0 c 0.15685,0.009 0.31182,0.0232 0.46875,0.0313 A 60.999998,61.000013 0 0 0 207,129 c 0.15564,-7.2e-4 0.31314,-0.0292 0.46875,-0.0313 a 60.999998,61.000013 0 0 0 4.1875,-0.21875 c 0.20839,-0.0188 0.41684,-0.0101 0.625,-0.0313 12.83843,-1.3057 25.21151,-7.11778 34.34375,-16.25 10.43684,-10.43683 16.49999,-25.115076 16.5,-39.875 0,-5.534972 -0.85031,-11.052726 -2.46875,-16.34375 A 54.99999,55.000005 0 0 1 262,68 54.99999,55.000005 0 0 1 207,123 54.99999,55.000002 0 0 1 152,68 54.99999,55.000002 0 0 1 154.46875,51.75 54.99999,55.000002 0 0 1 207,13 l 1,0 c 1.10799,0 2,-0.892032 2,-2 l 0,-2 c 0,-1.1079685 -0.89201,-2 -2,-2 l -1,0 z" transform="matrix(0.26458334,0,0,0.26458334,-0.52916714,249.37498)"/>
  </g>
  <g id="22-22-busywidget">
   <rect id="rect3007" style="fill:none;stroke:none" width="5.821" height="5.821" x="51.33" y="279.54"/>
   <path id="path3009" style="fill:#5294e2;fill-opacity:1;stroke:none;opacity:1"  d="m 206.90625,115 c -5.68285,0 -9.90626,4.76331 -9.90625,10 0,5.11064 3.86041,9.24196 8.53125,9.90625 0.007,0.001 0.0245,-0.001 0.0313,0 0.1869,0.0265 0.37435,0.0459 0.5625,0.0625 0.0726,0.008 0.11478,-0.004 0.1875,0 l 0.0313,0 c 0.0253,0.002 0.0371,0 0.0625,0 0.16207,0.008 0.3377,0.0313 0.5,0.0313 0.0253,-1.1e-4 0.0373,0 0.0625,0 0.22673,-0.003 0.46154,-0.0123 0.6875,-0.0313 0.0336,-0.003 0.06,0.002 0.0937,0 2.08268,-0.2143 4.08105,-1.19024 5.5625,-2.6875 2.29078,-2.85585 2.42433,-5.2927 1.42433,-9.29269 1.22819,5.24703 -2.45297,9.87167 -7.86188,10.0102 -4.24948,0 -7.87455,-3.58819 -7.87457,-7.99871 0.0682,-4.85133 3.99957,-7.98861 7.93707,-8.00652 l 0.15625,0 c 0.16789,0 0.31534,-0.15426 0.3125,-0.32394 -0.006,-0.3677 -0.0216,-0.97956 -0.0313,-1.32579 C 207.36994,115.1624 207.24222,115 207.0625,115 z" transform="matrix(0.26458334,0,0,0.26458334,-0.52916714,249.37498)"/>
  </g>
  <g id="16-16-busywidget">
   <rect id="rect3792" style="fill:none;stroke:none" width="4.233" height="4.233" x="58.47" y="281.13"/>
   <path id="path3794" style="fill:#5294e2;fill-opacity:1;stroke:none;opacity:1"  d="m 60.57642,281.3808 c -1.05492,0 -1.838921,0.88423 -1.838919,1.85633 0,0.9487 0.716617,1.71561 1.583674,1.83892 0.0013,1.8e-4 0.0045,-1.8e-4 0.0058,0 0.03469,0.005 0.06949,0.008 0.104418,0.0115 0.01348,9.5e-4 0.02132,-7.1e-4 0.03481,0 l 0.0058,0 c 0.0047,3.7e-4 0.0068,0 0.0116,0 0.03009,9.5e-4 0.06269,0.006 0.09281,0.006 0.0047,-10e-6 0.007,0 0.01161,0 0.04209,-5.5e-4 0.08568,-0.002 0.127622,-0.006 0.0062,-5.5e-4 0.01115,3.7e-4 0.01739,0 0.386612,-0.0397 0.757573,-0.22096 1.032578,-0.49889 0.425244,-0.53014 0.450034,-0.98249 0.264402,-1.72502 0.227992,0.97402 -0.455349,1.8325 -1.459418,1.85821 -0.788838,0 -1.461768,-0.66608 -1.461773,-1.48481 0.01267,-0.90056 0.74245,-1.48294 1.473376,-1.48626 l 0.029,0 c 0.03117,0 0.05855,-0.0288 0.05801,-0.0601 -0.0011,-0.0683 -0.0039,-0.18183 -0.0058,-0.2461 -9.11e-4,-0.0337 -0.02464,-0.0638 -0.058,-0.0638 z"/>
  </g>
 </g>
</svg>
