<svg xmlns="http://www.w3.org/2000/svg" id="svg3383" width="1039.243" height="393.324" version="1">
 <g id="layer1" transform="translate(484.66288,12.38055)">
  <rect id="weekDayHeader" width="178" height="12" x="97.34" y="116.94" style="opacity:1;fill:#404552;fill-opacity:1;stroke:none;stroke-width:2.30939913;stroke-linecap:butt;stroke-linejoin:round;stroke-miterlimit:4;stroke-dasharray:none;stroke-dashoffset:1.08779998;stroke-opacity:1"/>
  <rect id="weeksColumn" width="18" height="106" x="73.34" y="148.94" style="opacity:1;fill:#404552;fill-opacity:1;stroke:none;stroke-width:2.30939913;stroke-linecap:butt;stroke-linejoin:round;stroke-miterlimit:4;stroke-dasharray:none;stroke-dashoffset:1.08779998;stroke-opacity:1"/>
  <g id="red">
   <rect id="rect3816" width="21" height="21" x="663" y="207.32" transform="translate(-484.66288,-12.38055)" style="opacity:0;fill:#ffffff;fill-opacity:1;stroke:none"/>
   <path id="path3822" d="m 180.55289,195.94522 c -0.69382,0.0727 -1.2195,0.65947 -1.21577,1.35699 l 0,16.28397 c 5e-5,0.74942 0.60764,1.35693 1.35714,1.357 l 16.2857,0 c 0.74947,-7e-5 1.35707,-0.60758 1.35714,-1.357 l 0,-16.28397 c -1e-4,-0.74941 -0.60765,-1.35692 -1.35714,-1.35699 l -16.2857,0 c -0.0471,-0.003 -0.0943,-0.003 -0.14137,0 z m 0.78423,1.99796 15,0 0,15 -15,0 z" style="fill:#e74c3c;fill-opacity:1;stroke:none"/>
  </g>
  <g id="today">
   <rect id="rect3808" width="21" height="21" x="152.34" y="194.94" style="opacity:0;fill:#ffffff;fill-opacity:1;stroke:none"/>
   <path id="path3814" d="m 154.55289,195.94522 c -0.69382,0.0727 -1.2195,0.65947 -1.21577,1.35699 l 0,16.28397 c 5e-5,0.74942 0.60764,1.35693 1.35714,1.357 l 16.2857,0 c 0.74947,-7e-5 1.35707,-0.60758 1.35714,-1.357 l 0,-16.28397 c -1e-4,-0.74941 -0.60765,-1.35692 -1.35714,-1.35699 l -16.2857,0 c -0.0471,-0.003 -0.0943,-0.003 -0.14137,0 z m 0.78423,1.99796 15,0 0,15 -15,0 z" style="opacity:0.5;fill:#ffffff;fill-opacity:1;stroke:none"/>
  </g>
  <g id="green" transform="matrix(1.05,0,0,1,-6.416856,0)">
   <rect id="rect3800" width="20" height="21" x="613" y="207.32" transform="translate(-484.66288,-12.38055)" style="opacity:0;fill:#ffffff;fill-opacity:1;stroke:none"/>
   <path id="path3806" d="m 130.68087,195.94543 c -0.76686,0.0804 -1.34787,0.72888 -1.34375,1.49982 l 2e-5,15.99811 c 6e-5,0.82829 0.67161,1.49974 1.5,1.49982 l 14.99998,-1.8e-4 c 0.82837,-8e-5 1.54754,-0.67153 1.54762,-1.49982 l -2e-5,-15.99811 c -1.1e-4,-0.82829 -0.71923,-1.49974 -1.54762,-1.49982 l -14.99998,1.8e-4 c -0.0521,-0.003 -0.1042,-0.003 -0.15625,0 z m 0.51339,1.99775 14.28572,0 0,15 -14.28572,0 z" style="fill:#48b92c;fill-opacity:1;stroke:none"/>
  </g>
  <rect id="active" width="18" height="18" x="169.34" y="148.94" style="opacity:0.2;fill:#404552;fill-opacity:1;stroke:none;stroke-width:2.30939913;stroke-linecap:butt;stroke-linejoin:round;stroke-miterlimit:4;stroke-dasharray:none;stroke-dashoffset:1.08779998;stroke-opacity:1"/>
  <rect id="inactive" width="18" height="18" x="121.34" y="146.94" style="opacity:0.1;fill:#404552;fill-opacity:1;stroke:none;stroke-width:2.30939913;stroke-linecap:butt;stroke-linejoin:round;stroke-miterlimit:4;stroke-dasharray:none;stroke-dashoffset:1.08779998;stroke-opacity:1"/>
  <g id="selected">
   <rect id="rect3824" width="21" height="21" x="687" y="207.32" transform="translate(-484.66288,-12.38055)" style="opacity:0;fill:#ffffff;fill-opacity:1;stroke:none"/>
   <path id="path3830" d="m 204.55289,195.94522 c -0.69382,0.0727 -1.2195,0.65947 -1.21577,1.35699 l 0,16.28397 c 5e-5,0.74942 0.60764,1.35693 1.35714,1.357 l 16.2857,0 c 0.74947,-7e-5 1.35707,-0.60758 1.35714,-1.357 l 0,-16.28397 c -1e-4,-0.74941 -0.60765,-1.35692 -1.35714,-1.35699 l -16.2857,0 c -0.0471,-0.003 -0.0943,-0.003 -0.14137,0 z m 0.78423,1.99796 15,0 0,15 -15,0 z" style="fill:#ffffff;fill-opacity:1;stroke:none;opacity:0.2"/>
  </g>
  <rect id="hoverHighlight" width="18" height="18" x="212.37" y="148.94" style="opacity:0.4;fill:#404552;fill-opacity:1;stroke:none;stroke-width:2.30939913;stroke-linecap:butt;stroke-linejoin:round;stroke-miterlimit:4;stroke-dasharray:none;stroke-dashoffset:1.08779998;stroke-opacity:1"/>
  <path id="event" d="m 258.33712,199.94318 -16,16 16,0 z" style="opacity:1;fill:#5294e2;fill-opacity:1;stroke:none"/>
 </g>
</svg>
