<svg xmlns="http://www.w3.org/2000/svg" id="svg2" width="16" height="16" version="1">
 <g id="layer1" transform="translate(0,-64)">
  <g id="checkbox" transform="translate(18,0)">
   <rect id="rect3706" width="16" height="16" x="0" y="64" rx="16.456" ry="0" style="opacity:0.001;fill:#000000;fill-opacity:1;fill-rule:nonzero;stroke:none"/>
   <path id="rect2910" d="m 13.437245,67.5625 c -0.352513,0.009 -0.723,0.1605 -1,0.4375 l -6.0000005,6 -2,-2 c -0.5540004,-0.554 -1.4110446,-0.588955 -1.9375,-0.0625 l -0.125,0.125 C 1.8482891,72.588955 1.8832441,73.446 2.4372445,74 l 2.78125,2.75 c 0.048695,0.07525 0.090443,0.121693 0.15625,0.1875 l 0.0625,0.0625 0.0625,0.0625 c 0.050079,0.04454 0.1022254,0.08849 0.15625,0.125 0.013297,0.0093 0.01768,0.02247 0.03125,0.03125 0.067063,0.04258 0.1474867,0.06325 0.21875,0.09375 0.062373,0.02626 0.1221939,0.04626 0.1875,0.0625 0.022546,0.0061 0.039786,0.02628 0.0625,0.03125 0.172757,0.03346 0.3555774,0.03464 0.53125,0 0.033039,-0.0056 0.061222,-0.02316 0.09375,-0.03125 0.237331,-0.0643 0.4665238,-0.185274 0.65625,-0.375 l 0.0625,-0.0625 c 0.065807,-0.06581 0.107555,-0.11225 0.15625,-0.1875 L 14.437245,70 c 0.554,-0.554 0.588955,-1.411045 0.0625,-1.9375 l -0.125,-0.125 c -0.263228,-0.263228 -0.584987,-0.383987 -0.9375,-0.375 z" style="fill:#d3dae3;fill-opacity:1;fill-rule:nonzero;stroke:none;opacity:1"/>
  </g>
  <g id="radiobutton">
   <rect id="rect3736" width="16" height="16" x="0" y="64" rx="87.767" ry="0" style="opacity:0.001;fill:#000000;fill-opacity:1;fill-rule:nonzero;stroke:none"/>
   <path id="path3716" d="M 11,8 A 2.5,2 0 0 1 8.5,10 2.5,2 0 0 1 6,8 2.5,2 0 0 1 8.5,6 2.5,2 0 0 1 11,8 Z" transform="matrix(1.6,0,0,2,-5.6,56)" style="fill:#d3dae3;fill-opacity:1;fill-rule:nonzero;stroke:none;opacity:1"/>
  </g>
 </g>
</svg>
