<svg xmlns="http://www.w3.org/2000/svg" id="svg7229" width="200" height="100" version="1">
 <g id="layer1" transform="translate(-214.53572,-326.50504)">
  <rect id="rect3115" width="16" height="16" x="414.54" y="347.5" style="opacity:0;fill:#000000;fill-opacity:0.49803922;fill-rule:nonzero;stroke:none"/>
  <rect id="rect3880" width="16" height="16" x="427.04" y="346.5" style="opacity:0;fill:#ffffff;fill-opacity:0.78431373;stroke:none"/>
  <g id="return-to-source" transform="matrix(3.7795277,0,0,3.7795277,256.53572,-596.01445)">
   <rect id="rect4406" width="4.233" height="4.233" x="18.52" y="254.14" style="opacity:1;fill:#ca5c5c;fill-opacity:0"/>
   <path id="rect4560" d="M 74.890625,19 C 73.843696,19 73,19.843696 73,20.890625 l 0,10.21875 C 73,32.156304 73.843696,33 74.890625,33 l 10.21875,0 C 86.156304,33 87,32.156304 87,31.109375 l 0,-10.21875 C 87,19.843696 86.156304,19 85.109375,19 l -10.21875,0 z M 77,20 l 6,0 c 0,-0.04158 -3,4 -3,4 l -3,-4 z m -3,5 12,0 0,2 -12,0 0,-2 z m 6,3 c 0,0 3,4.041575 3,4 l -6,0 3,-4 z" transform="matrix(0.26458333,0,0,0.26458333,-0.52916771,249.37493)" style="opacity:1;fill:#d3dae3;fill-opacity:1"/>
  </g>
  <g id="add" transform="matrix(3.7795277,0,0,3.7795277,256.53572,-596.01445)">
   <rect id="rect4488" width="4.233" height="4.233" x="9" y="258.9" style="opacity:1;fill:none;fill-opacity:1;stroke:none"/>
   <rect id="rect4490" width="3.175" height="3.175" x="9.53" y="259.43" style="opacity:1;fill:none;fill-opacity:1;stroke:none"/>
   <path id="rect4498" d="m 43,38 0,5 -5,0 0,2 5,0 0,5 2,0 0,-5 5,0 0,-2 -5,0 0,-5 -2,0 z" transform="matrix(0.26458333,0,0,0.26458333,-0.52916771,249.37493)" style="color:#31363b;opacity:1;fill:#d3dae3;fill-opacity:1;stroke:none"/>
  </g>
  <g id="remove" transform="matrix(3.7795277,0,0,3.7795277,256.53574,-596.01445)">
   <rect id="rect4502" width="4.233" height="4.233" x="13.76" y="258.9" style="opacity:1;fill:none;fill-opacity:1;stroke:none"/>
   <rect id="rect4504" width="3.175" height="3.175" x="14.29" y="259.43" style="opacity:1;fill:none;fill-opacity:1;stroke:none"/>
   <rect id="rect4508" width=".529" height="3.175" x="260.75" y="-17.46" transform="matrix(0,1,-1,0,0,0)" style="color:#31363b;opacity:1;fill:#d3dae3;fill-opacity:1;stroke:none"/>
  </g>
  <g id="filter" transform="matrix(3.7795277,0,0,3.7795277,256.53574,-596.01445)">
   <rect id="rect4527" width="4.233" height="4.233" x="18.52" y="258.9" style="opacity:1;fill:none;fill-opacity:1;stroke:none"/>
   <rect id="rect4529" width="3.175" height="3.175" x="19.05" y="259.43" style="opacity:1;fill:none;fill-opacity:1;stroke:none"/>
   <path id="path4720" d="m 76.304688,57.787109 -1,1 0,1 3,5.259766 0,2.740234 0,0.002 3,1.996094 0,0.002 1,0 0,-0.539062 0,-4.201172 3,-5.259766 0,-1 -1,-1 -8,0 z m 1,2 3,0 -1,1 0,1 -2,-2 z" transform="matrix(0.26458333,0,0,0.26458333,-0.60971093,244.13962)" style="color:#31363b;opacity:1;fill:#d3dae3;fill-opacity:1;fill-rule:evenodd;stroke:none;stroke-width:0.26458335px;stroke-linecap:butt;stroke-linejoin:miter;stroke-opacity:1"/>
  </g>
  <g id="menu" transform="matrix(3.7795277,0,0,3.7795277,256.53572,-596.01445)">
   <rect id="rect4248" width="4.233" height="4.233" x="-.53" y="249.38" style="opacity:1;fill:#ca5c5c;fill-opacity:0"/>
   <g id="g4241" transform="matrix(0.26458333,0,0,0.26458333,-0.52900367,249.37493)" style="enable-background:new">
    <g id="layer12" transform="translate(-265.00082,19.003342)" style="display:inline">
     <path id="rect10753" d="m 266.00082,-18.003342 0,2 14,0 0,-2 z M 266.0002,-14 l 0,2 14,0 0,-2 z m 0,4 0,2 14,0 0,-2 z m 6.2e-4,3.996658 0,2 14,0 0,-2 z" style="opacity:1;fill:#d3dae3;fill-opacity:1;stroke:none"/>
    </g>
   </g>
  </g>
  <g id="configure" transform="matrix(3.7795277,0,0,3.7795277,256.53572,-596.01445)">
   <rect id="rect4250" width="4.233" height="4.233" x="4.23" y="249.38" style="opacity:1;fill:#ca5c5c;fill-opacity:0"/>
   <g id="layer2" transform="matrix(0.26458333,0,0,0.26458333,-107.96654,136.13326)" style="display:inline">
    <path id="path10500-6" d="m 430.25,429 -0.1543,1.84375 a 5.5,5.5 0 0 0 -1.60742,0.92969 l -1.67578,-0.78906 -1.75,3.03124 1.52148,1.05665 a 5.5,5.5 0 0 0 -0.084,0.92773 5.5,5.5 0 0 0 0.0801,0.93164 l -1.51758,1.05274 1.75,3.03124 1.67188,-0.7871 a 5.5,5.5 0 0 0 1.61132,0.92382 L 430.25,443 l 3.5,0 0.1543,-1.84375 a 5.5,5.5 0 0 0 1.60742,-0.92969 l 1.67578,0.78906 1.75,-3.03124 -1.52148,-1.05665 a 5.5,5.5 0 0 0 0.084,-0.92773 5.5,5.5 0 0 0 -0.0801,-0.93164 l 1.51758,-1.05274 -1.75,-3.03124 -1.67188,0.7871 a 5.5,5.5 0 0 0 -1.61132,-0.92382 L 433.75,429 l -3.5,0 z m 1.75,5 a 2,2 0 0 1 2,2 2,2 0 0 1 -2,2 2,2 0 0 1 -2,-2 2,2 0 0 1 2,-2 z" style="display:inline;opacity:1;fill:#d3dae3;fill-opacity:1;stroke:none;stroke-opacity:1;enable-background:new"/>
   </g>
  </g>
  <g id="rotate" transform="matrix(3.7795277,0,0,3.7795277,256.53572,-596.01445)">
   <rect id="rect4302" width="4.233" height="4.233" x="9" y="249.38" style="opacity:1;fill:#ca5c5c;fill-opacity:0"/>
   <g id="g4328" transform="matrix(0.26458333,0,0,0.26458333,8.9964326,249.37058)" style="enable-background:new">
    <g id="layer12-4" transform="translate(-425.00247,99.016457)" style="display:inline">
     <path id="path5865" d="m 433.0002,-98 c -3.86599,0 -7,3.13401 -7,7 0,3.86599 3.13401,7 7,7 3.17482,0 5.86154,-2.10317 6.71875,-5 l -2.15625,0 c -0.77427,1.75952 -2.51681,3 -4.5625,3 -2.76142,0 -5,-2.23858 -5,-5 0,-2.76142 2.23858,-5 5,-5 1.38155,0 2.61548,0.575049 3.51562,1.484375 L 434.0002,-92 l 6,0 0,-6 -2.05273,2.052734 C 436.67897,-97.212023 434.93408,-98 433.0002,-98 Z" style="opacity:1;fill:#d3dae3;fill-opacity:1;stroke:none"/>
    </g>
   </g>
  </g>
  <g id="size-vertical" transform="matrix(3.7795277,0,0,3.7795277,256.53572,-596.01445)">
   <rect id="rect4306" width="4.233" height="4.233" x="18.52" y="249.38" style="opacity:1;fill:#ca5c5c;fill-opacity:0"/>
   <path id="path3807-1-1-4-7-2-1" d="m 80,1 -3,4 6,0 C 83,5.041575 80,1 80,1 Z m 0,5 a 2,2 0 0 0 -2,2 2,2 0 0 0 2,2 2,2 0 0 0 2,-2 2,2 0 0 0 -2,-2 z m -3,5 3,4 c 0,0 3,-4.041575 3,-4 l -6,0 z" transform="matrix(0.26458333,0,0,0.26458333,-0.52916771,249.37493)" style="opacity:1;fill:#d3dae3;fill-opacity:1;stroke:none"/>
  </g>
  <g id="size-horizontal" transform="matrix(3.7795277,0,0,3.7795277,256.53572,-596.01445)">
   <rect id="rect4309" width="4.233" height="4.233" x="23.28" y="249.38" style="opacity:1;fill:#ca5c5c;fill-opacity:0"/>
   <path id="path4380" d="m 27.252082,251.4916 -1.058333,-0.79375 0,1.5875 c -0.011,0 1.058333,-0.79375 1.058333,-0.79375 z m -1.322917,0 a 0.52916666,0.52916666 0 0 0 -0.529166,-0.52917 0.52916666,0.52916666 0 0 0 -0.529167,0.52917 0.52916666,0.52916666 0 0 0 0.529167,0.52916 0.52916666,0.52916666 0 0 0 0.529166,-0.52916 z m -1.322916,-0.79375 -1.058334,0.79375 c 0,0 1.069334,0.79375 1.058334,0.79375 l 0,-1.5875 z" style="opacity:1;fill:#d3dae3;fill-opacity:1;stroke:none"/>
  </g>
  <g id="move" transform="matrix(3.7795277,0,0,3.7795277,256.53572,-596.01445)">
   <rect id="rect4304" width="4.233" height="4.233" x="13.76" y="249.38" style="opacity:1;fill:#ca5c5c;fill-opacity:0"/>
   <path id="path4382" d="m 62,1 -3,4 6,0 C 65,5.041575 62,1 62,1 Z m 3,4 0,6 c -0.04157,0 4,-3 4,-3 L 65,5 Z m 0,6 -6,0 3,4 c 0,0 3,-4.041575 3,-4 z m -6,0 0,-6 -4,3 c 0,0 4.041575,3 4,3 z m 3,-5 a 2,2 0 0 0 -2,2 2,2 0 0 0 2,2 2,2 0 0 0 2,-2 2,2 0 0 0 -2,-2 z" transform="matrix(0.26458333,0,0,0.26458333,-0.52916771,249.37493)" style="opacity:1;fill:#d3dae3;fill-opacity:1;stroke:none"/>
  </g>
  <g id="size-diagonal-tl2br" transform="matrix(3.7795277,0,0,3.7795277,256.53572,-596.01445)">
   <rect id="rect4389" width="4.233" height="4.233" x="-.53" y="254.14" style="opacity:1;fill:#ca5c5c;fill-opacity:0"/>
   <g id="g4424" transform="matrix(0.26458333,0,0,0.26458333,-0.52906453,254.13655)" style="enable-background:new">
    <g id="layer12-0" transform="translate(-265.00059,79.003339)" style="display:inline">
     <path id="path10424" d="m 2,20 c -1.00000002,0 -1,1 -1,1 l 0,4 2,0 0,-1.542969 3.2421875,3.242188 L 7.65625,25.285156 4.3710938,22 6,22 6,20 2,20 Z m 8,0 0,2 3,0 0,3 2,0 0,-4 c 0,-1 -1,-1 -1,-1 l -4,0 z m -9,7 0,4 c 0,1 1,1 1,1 l 4,0 0,-2 -3,0 0,-3 -2,0 z m 12,0 0,3 -3,0 0,2 4,0 c 0,0 1,0 1,-1 l 0,-4 -2,0 z" transform="translate(265.0002,-97.000013)" style="color:#bebebe;opacity:1;fill:#d3dae3;fill-opacity:1;stroke:none"/>
    </g>
   </g>
  </g>
  <g id="maximize" transform="matrix(3.7795277,0,0,3.7795277,256.53572,-596.01445)">
   <rect id="rect4412" width="4.233" height="4.233" x="4.23" y="254.14" style="opacity:1;fill:#ca5c5c;fill-opacity:0"/>
   <g id="g4434" transform="matrix(-0.26458333,0,0,0.26458333,8.4665622,254.13655)" style="enable-background:new">
    <g id="g4436" transform="translate(-265.00059,79.003339)" style="display:inline">
     <path id="path4438" d="m 20,20 c -1,0 -1,1 -1,1 l 0,4 2,0 0,-1.542969 3.242188,3.242188 L 25.65625,25.285156 22.371094,22 24,22 l 0,-2 -4,0 z m 8,0 0,2 3,0 0,3 2,0 0,-4 c 0,-1 -1,-1 -1,-1 l -4,0 z m -9,7 0,4 c 0,1 1,1 1,1 l 4,0 0,-2 -3,0 0,-3 -2,0 z m 12,0 0,3 -3,0 0,2 4,0 c 0,0 1,0 1,-1 l 0,-4 -2,0 z" transform="translate(247.0002,-97.000013)" style="color:#bebebe;opacity:1;fill:#d3dae3;fill-opacity:1;stroke:none"/>
    </g>
   </g>
  </g>
  <g id="unmaximize" transform="matrix(3.7795277,0,0,3.7795277,256.53572,-596.01445)">
   <rect id="rect4410" width="4.233" height="4.233" x="9" y="254.14" style="opacity:1;fill:#ca5c5c;fill-opacity:0"/>
   <path id="path4762" d="m 9.5249988,254.6666 c 0,0 -0.2645833,0 -0.2645833,0.26458 l 0,1.05833 0.5291667,0 0,-0.79375 0.7937498,0 0,-0.52916 -1.0583332,0 z" style="color:#bebebe;opacity:1;fill:#d3dae3;fill-opacity:1;stroke:none"/>
   <path id="path4760" d="m 12.234911,254.74618 -0.857829,0.85783 0,-0.40825 -0.529167,0 0,1.05833 c 0,0 10e-7,0.26459 0.264584,0.26459 l 1.058333,0 0,-0.52917 -0.430981,0 0.869197,-0.8692 -0.374137,-0.37413 z" style="color:#bebebe;opacity:1;fill:#d3dae3;fill-opacity:1;stroke:none"/>
   <path id="path4758" d="m 9.2604155,256.51868 0,1.05833 c 0,0.26458 0.2645833,0.26459 0.2645833,0.26459 l 1.0583332,0 0,-0.52917 -0.7937498,0 0,-0.79375 -0.5291667,0 z" style="color:#bebebe;opacity:1;fill:#d3dae3;fill-opacity:1;stroke:none"/>
   <path id="path4478" d="m 12.435415,256.51868 0,0.79375 -0.79375,0 0,0.52917 1.058334,0 c 0,0 0.264583,-1e-5 0.264583,-0.26459 l 0,-1.05833 -0.529167,0 z" style="color:#bebebe;opacity:1;fill:#d3dae3;fill-opacity:1;stroke:none"/>
  </g>
  <g id="size-diagonal-tr2bl" transform="matrix(3.7795277,0,0,3.7795277,256.53572,-596.01445)">
   <rect id="rect4311" width="4.233" height="4.233" x="28.05" y="249.38" style="opacity:1;fill:#ca5c5c;fill-opacity:0"/>
   <g id="g4489" transform="matrix(-0.26458333,0,0,0.26458333,32.279062,249.37405)" style="enable-background:new">
    <g id="g4491" transform="translate(-265.00059,79.003339)" style="display:inline">
     <path id="path4501" d="m 110,2 c 0,0 -1,0 -1,1 l 0,4 2,0 0,-3 3,0 0,-2 -4,0 z m 8,0 0,2 1.62891,0 -3.28516,3.2851562 1.41406,1.4140626 L 121,5.4570312 121,7 l 2,0 0,-4 c 0,0 0,-1 -1,-1 l -4,0 z M 114.24219,7.3007812 111,10.542969 111,9 l -2,0 0,4 c 0,0 0,1 1,1 l 4,0 0,-2 -1.62891,0 3.28516,-3.2851562 -1.41406,-1.4140626 z M 121,9 l 0,3 -3,0 0,2 4,0 c 0,0 1,0 1,-1 l 0,-4 -2,0 z" transform="matrix(-0.99999998,0,0,0.99999998,389.0002,-79.000013)" style="color:#bebebe;opacity:1;fill:#d3dae3;fill-opacity:1;stroke:none"/>
    </g>
   </g>
  </g>
  <g id="status" transform="matrix(3.7795277,0,0,3.7795277,256.53572,-596.01445)">
   <rect id="rect4408" width="4.233" height="4.233" x="13.76" y="254.14" style="opacity:1;fill:#ca5c5c;fill-opacity:0"/>
   <g id="g4532" transform="matrix(0.26458333,0,0,0.26458333,13.750344,254.00514)" style="enable-background:new">
    <g id="layer12-1" transform="translate(-345.00021,-61)" style="display:inline">
     <path id="path8741" d="m 357.84395,64.03125 c -0.21888,0.0473 -0.42059,0.17053 -0.5625,0.34375 l -6.28125,7.1875 -2.25,-2.25 c -0.37633,-0.37638 -1.06119,-0.3764 -1.43755,-5e-5 -0.37635,0.37636 -0.37633,1.06122 5e-5,1.43755 l 3,3 0.78125,0.75 0.6875,-0.8125 7,-8 c 0.56742,-0.61773 -0.11583,-1.8248 -0.9375,-1.65625 z" style="color:#000000;font-style:normal;font-variant:normal;font-weight:normal;font-stretch:normal;font-size:medium;line-height:normal;font-family:Sans;-inkscape-font-specification:Sans;text-indent:0;text-align:start;text-decoration:none;text-decoration-line:none;letter-spacing:normal;word-spacing:normal;text-transform:none;direction:ltr;block-progression:tb;writing-mode:lr-tb;baseline-shift:baseline;text-anchor:start;display:inline;overflow:visible;visibility:visible;opacity:1;fill:#d3dae3;fill-opacity:1;stroke:none;stroke-width:2;marker:none;enable-background:accumulate"/>
    </g>
   </g>
  </g>
  <g id="collapse" transform="matrix(3.7795277,0,0,3.7795277,256.53572,-596.01445)">
   <rect id="rect4404" width="4.233" height="4.233" x="23.28" y="254.14" style="opacity:1;fill:#ca5c5c;fill-opacity:0"/>
   <path id="path4542" d="m 95,19 3,4 c 0,0 3,-4.041575 3,-4 l -6,0 z m -4,6 0,2 14,0 0,-2 -14,0 z m 7,4 -3,4 6,0 c 0,0.04158 -3,-4 -3,-4 z" transform="matrix(0.26458333,0,0,0.26458333,-0.52916771,249.37493)" style="opacity:1;fill:#d3dae3;fill-opacity:1;stroke:none"/>
  </g>
  <g id="restore" transform="matrix(3.7795277,0,0,3.7795277,256.53572,-596.01445)">
   <rect id="rect4401" width="4.233" height="4.233" x="28.05" y="254.14" style="opacity:1;fill:#ca5c5c;fill-opacity:0"/>
   <path id="path4546" d="m 116,19 -3,4 6,0 c 0,0.04158 -3,-4 -3,-4 z m -7,6 0,2 14,0 0,-2 -14,0 z m 4,4 3,4 c 0,0 3,-4.041575 3,-4 l -6,0 z" transform="matrix(0.26458333,0,0,0.26458333,-0.52916771,249.37493)" style="opacity:1;fill:#d3dae3;fill-opacity:1;stroke:none"/>
  </g>
  <g id="help" transform="matrix(3.7795277,0,0,3.7795277,256.53572,-596.01445)">
   <rect id="rect4581" width="4.233" height="4.233" x="-.53" y="258.9" style="opacity:1;fill:#ca5c5c;fill-opacity:0"/>
   <g id="layer2-9" transform="matrix(0.26458333,0,0,0.26458333,-118.00412,149.89071)" style="display:inline">
    <path id="path4-7-8" d="m 452.99983,427.00336 -2,0 0,-2 2,0 z m 2.07,-7.75 -0.9,0.92 c -0.72,0.73 -1.17,1.33 -1.17,2.83 l -2,0 0,-0.5 c 0,-1.1 0.45,-2.1 1.17,-2.83 l 1.24,-1.26 c 0.37,-0.36 0.59,-0.86 0.59,-1.41 0,-1.1 -0.9,-2 -2,-2 -1.1,0 -2,0.9 -2,2 l -2,0 c 0,-2.21 1.79,-4 4,-4 2.21,0 4,1.79 4,4 0,0.88 -0.36,1.68 -0.93,2.25 z" style="display:inline;opacity:1;fill:#d3dae3;fill-opacity:1;stroke:none;enable-background:new"/>
   </g>
  </g>
  <g id="delete" transform="matrix(3.7795277,0,0,3.7795277,256.53572,-596.01445)">
   <rect id="rect4579" width="4.233" height="4.233" x="4.23" y="258.9" style="opacity:1;fill:#ca5c5c;fill-opacity:0"/>
   <g id="g4697" transform="matrix(0.26458333,0,0,0.26458333,4.233393,258.90089)" style="enable-background:new">
    <g id="layer12-2" transform="translate(-385.00043,78.996356)" style="display:inline">
     <path id="path8476-3" d="m 387.0002,-74 0,9 c 5e-5,0.52358 0.47642,0.99995 1,1 l 8,0 1,0 c 0.52358,-5e-5 0.99995,-0.47642 1,-1 l 0,-9 z" style="color:#000000;font-style:normal;font-variant:normal;font-weight:normal;font-stretch:normal;font-size:medium;line-height:normal;font-family:Sans;-inkscape-font-specification:Sans;text-indent:0;text-align:start;text-decoration:none;text-decoration-line:none;letter-spacing:normal;word-spacing:normal;text-transform:none;direction:ltr;block-progression:tb;writing-mode:lr-tb;baseline-shift:baseline;text-anchor:start;display:inline;overflow:visible;visibility:visible;opacity:1;fill:#d3dae3;fill-opacity:1;stroke:none;stroke-width:2;marker:none;enable-background:accumulate"/>
     <path id="path8478-1" d="m 386.0002,-76 0,1 13.0002,-0.0034 -2e-4,-0.99664 c 0,-1 -0.9998,-1.00336 -0.9998,-1.00336 l -3,0 c 0,0 0,-1 -1,-1 l -3,0 c -1,0 -1,1 -1,1 l -3,0 c 0,0 -1.0002,0.003 -1.0002,1.00336 z" style="color:#000000;font-style:normal;font-variant:normal;font-weight:normal;font-stretch:normal;font-size:medium;line-height:normal;font-family:Sans;-inkscape-font-specification:Sans;text-indent:0;text-align:start;text-decoration:none;text-decoration-line:none;letter-spacing:normal;word-spacing:normal;text-transform:none;direction:ltr;block-progression:tb;writing-mode:lr-tb;baseline-shift:baseline;text-anchor:start;display:inline;overflow:visible;visibility:visible;opacity:1;fill:#d3dae3;fill-opacity:1;stroke:none;stroke-width:2;marker:none;enable-background:accumulate"/>
    </g>
   </g>
  </g>
  <g id="close" transform="translate(-41.999981,35.99995)">
   <rect id="rect3925" width="16" height="16" x="386.54" y="346.5" style="opacity:0;fill:#ffffff;fill-opacity:0.78431373;stroke:none"/>
   <g id="g3907" transform="translate(-25,-20.5)">
    <path id="rect3129" d="m 412.53572,369.50504 5,5 -5,5 2,2 5,-5 5,5 2,-2 -5,-5 5,-5 -2,-2 -5,5 -5,-5 z" style="color:#31363b;opacity:1;fill:#d3dae3;fill-opacity:1;stroke:none"/>
   </g>
  </g>
 </g>
</svg>
