<svg xmlns="http://www.w3.org/2000/svg" xmlns:xlink="http://www.w3.org/1999/xlink" width="36" height="41" version="1">
 <defs id="defs5">
  <linearGradient id="linearGradient3771">
   <stop offset="0" style="stop-color:#5294e2;stop-opacity:0.58823532"/>
   <stop offset="1" style="stop-color:#5294e2;stop-opacity:0"/>
  </linearGradient>
  <radialGradient id="radialGradient3777" cx="37.919" cy="13.191" r="6" fx="37.919" fy="13.191" gradientTransform="matrix(2,0,0,2,-51.837204,-9.38105)" gradientUnits="userSpaceOnUse" xlink:href="#linearGradient3771"/>
  <radialGradient id="radialGradient3785" cx="37.919" cy="13.191" r="6" fx="37.919" fy="13.191" gradientTransform="matrix(2,0,0,2,-92.8372,-14.38105)" gradientUnits="userSpaceOnUse" xlink:href="#linearGradient3771"/>
  <linearGradient id="linearGradient3795" x1="62" x2="62" y1="20" y2="8" gradientTransform="translate(-42,-3)" gradientUnits="userSpaceOnUse" xlink:href="#linearGradient3771"/>
  <linearGradient id="linearGradient3799" x1="62" x2="62" y1="20" y2="8" gradientTransform="translate(-37,-44)" gradientUnits="userSpaceOnUse" xlink:href="#linearGradient3771"/>
  <radialGradient id="radialGradient3803" cx="37.919" cy="13.191" r="6" fx="37.919" fy="13.191" gradientTransform="matrix(2,0,0,2,-51.837204,-55.38105)" gradientUnits="userSpaceOnUse" xlink:href="#linearGradient3771"/>
  <linearGradient id="linearGradient3807" x1="62" x2="62" y1="20" y2="8" gradientTransform="translate(-78,-49)" gradientUnits="userSpaceOnUse" xlink:href="#linearGradient3771"/>
  <linearGradient id="linearGradient3811" x1="62" x2="62" y1="20" y2="8" gradientTransform="translate(-37,-8)" gradientUnits="userSpaceOnUse" xlink:href="#linearGradient3771"/>
  <radialGradient id="radialGradient3815" cx="37.919" cy="13.191" r="6" fx="37.919" fy="13.191" gradientTransform="matrix(2,0,0,2,-46.8372,-14.38105)" gradientUnits="userSpaceOnUse" xlink:href="#linearGradient3771"/>
 </defs>
 <rect id="hint-glow-radius" width="5" height="5" x="5" y="0" style="fill:#ff0000"/>
 <rect id="hint-stretch-borders" width="5" height="5" x="0" y="0" style="fill:#008000"/>
 <rect id="center" width="12.01" height="12.01" x="12" y="17" style="fill:none"/>
 <rect id="topright" width="12" height="12" x="24" y="5" style="fill:url(#radialGradient3777)"/>
 <rect id="topleft" width="12" height="12" x="-17" y="0" transform="rotate(-90)" style="fill:url(#radialGradient3785)"/>
 <rect id="top" width="12" height="12" x="12" y="5" style="fill:url(#linearGradient3795)"/>
 <rect id="right" width="12" height="12" x="17" y="-36" transform="rotate(90)" style="fill:url(#linearGradient3799)"/>
 <rect id="bottomright" width="12" height="12" x="24" y="-41" transform="scale(1,-1)" style="fill:url(#radialGradient3803)"/>
 <rect id="bottom" width="12" height="12" x="-24" y="-41" transform="scale(-1)" style="fill:url(#linearGradient3807)"/>
 <rect id="left" width="12" height="12" x="17" y="0" transform="matrix(0,1,1,0,0,0)" style="fill:url(#linearGradient3811)"/>
 <rect id="bottomleft" width="12" height="12" x="29" y="0" transform="matrix(0,1,1,0,0,0)" style="fill:url(#radialGradient3815)"/>
</svg>
