<svg xmlns="http://www.w3.org/2000/svg" width="109" height="143" version="1">
 <g id="base-topleft" transform="translate(721.81,-777.58402)">
  <path d="m -719.80709,777.58403 c -1.10457,0 -2,0.89543 -2,2 h 1 c 0,-0.55228 0.44772,-1 1,-1 z" style="opacity:0.2"/>
  <path transform="matrix(-0.5,0,0,-0.5,-639.80709,700.08403)" d="m 162,-159 a 2,2 0 0 1 -2,2 v -2 z" style="opacity:0.17;fill:#8f9eb7"/>
 </g>
 <g id="base-bottomleft" transform="translate(721.81,-773.58403)">
  <path d="m -719.80709,812.58403 c -1.10457,0 -2,-0.89543 -2,-2 h 1 c 0,0.55228 0.44772,1 1,1 z" style="opacity:0.2"/>
  <path transform="matrix(-0.5,0,0,0.5,-639.80709,890.08403)" d="m 162,-159 a 2,2 0 0 1 -2,2 v -2 z" style="opacity:0.17;fill:#8f9eb7"/>
 </g>
 <g id="base-left" transform="matrix(1,0,0,1.666664,721.81,-1313.9712)">
  <rect width="1" height="21" x="-721.81" y="789.58" style="opacity:0.2"/>
  <rect width="1" height="21" x="-720.81" y="789.58" style="opacity:0.17;fill:#8f9eb7"/>
 </g>
 <g id="base-top" transform="matrix(1.9090909,0,0,1,1376.1802,-777.58402)">
  <rect width="55" height="1" x="-719.81" y="777.58" style="opacity:0.2"/>
  <rect width="55" height="1" x="-719.81" y="778.58" style="opacity:0.17;fill:#8f9eb7"/>
 </g>
 <g id="base-bottom" transform="matrix(1.9090909,0,0,1,1376.1802,-773.58403)">
  <rect width="55" height="1" x="-719.81" y="811.58" style="opacity:0.2"/>
  <rect width="55" height="1" x="-719.81" y="810.58" style="opacity:0.17;fill:#8f9eb7"/>
 </g>
 <g id="base-topright" transform="translate(771.80997,-777.58402)">
  <path transform="matrix(0.5,0,0,-0.5,-744.80709,700.08403)" d="m 162,-159 a 2,2 0 0 1 -2,2 v -2 z" style="opacity:0.17;fill:#8f9eb7"/>
  <path d="m -664.80709,777.58403 c 1.10457,0 2,0.89543 2,2 h -1 c 0,-0.55228 -0.44772,-1 -1,-1 z" style="opacity:0.2"/>
 </g>
 <g id="base-bottomright" transform="translate(771.80997,-773.58403)">
  <path d="m -664.80709,812.58403 c 1.10457,0 2,-0.89543 2,-2 h -1 c 0,0.55228 -0.44772,1 -1,1 z" style="opacity:0.2"/>
  <path transform="matrix(0.5,0,0,0.5,-744.80709,890.08403)" d="m 162,-159 a 2,2 0 0 1 -2,2 v -2 z" style="opacity:0.17;fill:#8f9eb7"/>
 </g>
 <g id="base-right" transform="matrix(1,0,0,1.666664,771.80997,-1313.9712)">
  <rect width="1" height="21" x="662.81" y="789.58" transform="scale(-1,1)" style="opacity:0.2"/>
  <rect width="1" height="21" x="-664.81" y="789.58" style="opacity:0.17;fill:#8f9eb7"/>
 </g>
 <g id="base-center" transform="translate(-107.99716,49.99996)">
  <rect width="105" height="35" x="110" y="-48" style="opacity:0.17;fill:#8f9eb7"/>
 </g>
 <g id="hover-topleft" transform="translate(721.81,-721.58402)">
  <path d="m -719.80709,777.58403 c -1.10457,0 -2,0.89543 -2,2 h 1 c 0,-0.55228 0.44772,-1 1,-1 z" style="opacity:0.001"/>
  <path transform="matrix(-0.5,0,0,-0.5,-639.80709,700.08403)" d="m 162,-159 a 2,2 0 0 1 -2,2 v -2 z" style="opacity:0.001"/>
 </g>
 <g id="hover-bottomleft" transform="translate(721.81,-717.58403)">
  <path d="m -719.80709,812.58403 c -1.10457,0 -2,-0.89543 -2,-2 h 1 c 0,0.55228 0.44772,1 1,1 z" style="opacity:0.001"/>
  <path transform="matrix(-0.5,0,0,0.5,-639.80709,890.08403)" d="m 162,-159 a 2,2 0 0 1 -2,2 v -2 z" style="opacity:0.001"/>
 </g>
 <g id="hover-left" transform="matrix(1,0,0,1.666664,721.81,-1257.9712)">
  <rect width="1" height="21" x="-721.81" y="789.58" style="opacity:0.001"/>
  <rect width="1" height="21" x="-720.81" y="789.58" style="opacity:0.001"/>
 </g>
 <g id="hover-top" transform="matrix(1.9090909,0,0,1,1376.1802,-721.58402)">
  <rect width="55" height="1" x="-719.81" y="777.58" style="opacity:0.001"/>
  <rect width="55" height="1" x="-719.81" y="778.58" style="opacity:0.001"/>
 </g>
 <g id="hover-bottom" transform="matrix(1.9090909,0,0,1,1376.1802,-717.58403)">
  <rect width="55" height="1" x="-719.81" y="811.58" style="opacity:0.001"/>
  <rect width="55" height="1" x="-719.81" y="810.58" style="opacity:0.001"/>
 </g>
 <g id="hover-topright" transform="translate(771.80997,-721.58402)">
  <path d="m -664.80709,777.58403 c 1.10457,0 2,0.89543 2,2 h -1 c 0,-0.55228 -0.44772,-1 -1,-1 z" style="opacity:0.001"/>
  <path transform="matrix(0.5,0,0,-0.5,-744.80709,700.08403)" d="m 162,-159 a 2,2 0 0 1 -2,2 v -2 z" style="opacity:0.001"/>
 </g>
 <g id="hover-bottomright" transform="translate(771.80997,-717.58403)">
  <path d="m -664.80709,812.58403 c 1.10457,0 2,-0.89543 2,-2 h -1 c 0,0.55228 -0.44772,1 -1,1 z" style="opacity:0.001"/>
  <path transform="matrix(0.5,0,0,0.5,-744.80709,890.08403)" d="m 162,-159 a 2,2 0 0 1 -2,2 v -2 z" style="opacity:0.001"/>
 </g>
 <g id="hover-right" transform="matrix(1,0,0,1.666664,771.80997,-1257.9712)">
  <rect width="1" height="21" x="662.81" y="789.58" transform="scale(-1,1)" style="opacity:0.001"/>
  <rect width="1" height="21" x="-664.81" y="789.58" style="opacity:0.001"/>
 </g>
 <rect id="hover-center" width="105" height="35" x="2" y="58" style="opacity:0.001"/>
 <g id="focus-topleft" transform="translate(721.81,-673.58402)">
  <path d="m -719.80709,777.58403 c -1.10457,0 -2,0.89543 -2,2 h 1 c 0,-0.55228 0.44772,-1 1,-1 z" style="opacity:0.2"/>
  <path transform="matrix(-0.5,0,0,-0.5,-639.80709,700.08403)" d="m 162,-159 a 2,2 0 0 1 -2,2 v -2 z" style="fill:#5294e2"/>
 </g>
 <g id="focus-bottomleft" transform="translate(721.81,-669.58403)">
  <path d="m -719.80709,812.58403 c -1.10457,0 -2,-0.89543 -2,-2 h 1 c 0,0.55228 0.44772,1 1,1 z" style="opacity:0.2"/>
  <path transform="matrix(-0.5,0,0,0.5,-639.80709,890.08403)" d="m 162,-159 a 2,2 0 0 1 -2,2 v -2 z" style="fill:#5294e2"/>
 </g>
 <g id="focus-left" transform="matrix(1,0,0,1.666664,721.81,-1209.9712)">
  <rect width="1" height="21" x="-721.81" y="789.58" style="opacity:0.2"/>
  <rect width="1" height="21" x="-720.81" y="789.58" style="fill:#5294e2"/>
 </g>
 <g id="focus-top" transform="matrix(1.9090909,0,0,1,1376.1802,-673.58402)">
  <rect width="55" height="1" x="-719.81" y="777.58" style="opacity:0.2"/>
  <rect width="55" height="1" x="-719.81" y="778.58" style="fill:#5294e2"/>
 </g>
 <g id="focus-bottom" transform="matrix(1.9090909,0,0,1,1376.1802,-669.58403)">
  <rect width="55" height="1" x="-719.81" y="811.58" style="opacity:0.2"/>
  <rect width="55" height="1" x="-719.81" y="810.58" style="fill:#5294e2"/>
 </g>
 <g id="focus-topright" transform="translate(771.80997,-673.58402)">
  <path d="m -664.80709,777.58403 c 1.10457,0 2,0.89543 2,2 h -1 c 0,-0.55228 -0.44772,-1 -1,-1 z" style="opacity:0.2"/>
  <path transform="matrix(0.5,0,0,-0.5,-744.80709,700.08403)" d="m 162,-159 a 2,2 0 0 1 -2,2 v -2 z" style="fill:#5294e2"/>
 </g>
 <g id="focus-bottomright" transform="translate(771.80997,-669.58403)">
  <path d="m -664.80709,812.58403 c 1.10457,0 2,-0.89543 2,-2 h -1 c 0,0.55228 -0.44772,1 -1,1 z" style="opacity:0.2"/>
  <path transform="matrix(0.5,0,0,0.5,-744.80709,890.08403)" d="m 162,-159 a 2,2 0 0 1 -2,2 v -2 z" style="fill:#5294e2"/>
 </g>
 <g id="focus-right" transform="matrix(1,0,0,1.666664,771.80997,-1209.9712)">
  <rect width="1" height="21" x="662.81" y="789.58" transform="scale(-1,1)" style="opacity:0.2"/>
  <rect width="1" height="21" x="-664.81" y="789.58" style="fill:#5294e2"/>
 </g>
 <rect id="focus-center" width="105" height="35" x="2" y="106" style="opacity:0.001"/>
 <rect id="hover-hint-bottom-margin" width="2" height=".2" x="53.5" y="94" style="fill:#4e9a06"/>
 <rect id="hover-hint-top-margin" width="2" height=".2" x="53.5" y="56.8" style="fill:#4e9a06"/>
 <rect id="hover-hint-left-margin" width="2" height=".2" x="-76" y=".8" transform="rotate(-90)" style="fill:#4e9a06"/>
 <rect id="hover-hint-right-margin" width="2" height=".2" x="-76" y="108" transform="rotate(-90)" style="fill:#4e9a06"/>
 <rect id="focus-hint-bottom-margin" width="2" height="1" x="53.5" y="142" style="fill:#4e9a06"/>
 <rect id="focus-hint-top-margin" width="2" height="1" x="53.5" y="104" style="fill:#4e9a06"/>
 <rect id="focus-hint-left-margin" width="2" height="1" x="-123.9" y="0" transform="rotate(-90)" style="fill:#4e9a06"/>
 <rect id="focus-hint-right-margin" width="2" height="1" x="-123.9" y="108" transform="rotate(-90)" style="fill:#4e9a06"/>
 <rect id="base-hint-top-margin" width="2" height="6" x="53.5" y="0" style="fill:#4e9a06"/>
 <rect id="base-hint-right-margin" width="2" height="6" x="-20" y="103" transform="rotate(-90)" style="fill:#4e9a06"/>
 <rect id="base-hint-left-margin" width="2" height="6" x="-20" y="0" transform="rotate(-90)" style="fill:#4e9a06"/>
 <rect id="base-hint-bottom-margin" width="2" height="6" x="53.5" y="33" style="fill:#4e9a06"/>
</svg>
