<svg xmlns="http://www.w3.org/2000/svg" width="128" height="115" version="1">
 <rect id="hint-tile-center" width="2.033" height="2.077" x="0" y="2" rx="0" ry="2.077" style="fill:#ff0000"/>
 <rect id="pressed-hint-top-margin" width="2" height="4" x="34" y="18" style="fill:#ff0000"/>
 <rect id="pressed-hint-bottom-margin" width="2" height="4" x="35" y="33" style="fill:#ff0000"/>
 <rect id="pressed-hint-left-margin" width="4" height="2" x="26" y="28" style="fill:#ff0000"/>
 <rect id="pressed-hint-right-margin" width="4" height="2" x="41" y="27" style="fill:#ff0000"/>
 <rect id="normal-hint-left-margin" width="4" height="2" x="30" y="70" style="fill:#ff0000"/>
 <rect id="normal-hint-top-margin" width="2" height="4" x="39" y="61" style="fill:#ff0000"/>
 <rect id="normal-hint-bottom-margin" width="2" height="4" x="39" y="76" style="fill:#ff0000"/>
 <rect id="normal-hint-right-margin" width="4" height="2" x="45" y="70" style="fill:#ff0000"/>
 <path id="normal-center" d="m 34,65.00034 0,11.00001 10.999999,0 0,-11.00001 -10.999999,0 z" style="opacity:0.001"/>
 <path id="normal-right" d="m 45,65.00034 0,11.00001 2,0 c 6.68e-4,-0.0184 0,-0.0344 0,-0.0529 l 0,-10.89424 c 0,-0.0185 6.68e-4,-0.0345 0,-0.0529 l -2,0 z" style="opacity:0.001"/>
 <path id="normal-top" d="m 34,63.0003 0,2.00004 10.999999,0 0,-2.00004 c -0.0041,-6.7e-4 0.0042,0 10e-7,0 l -10.98814,0 c -0.004,0 -0.008,-6.7e-4 -0.0119,0 z" style="opacity:0.001"/>
 <path id="normal-left" d="m 32.0003,65.00034 c -6.7e-4,0.0183 0,0.0344 0,0.0529 l 0,10.89423 c 0,0.0185 -6.7e-4,0.0345 0,0.0529 l 2,0 0,-11 -2,0 z" style="opacity:0.001"/>
 <path id="normal-bottom" d="m 34,76 0,2 11,0 0,-1.99966 z" style="opacity:0.001"/>
 <path id="normal-topleft" d="m 31.999967,63.0003 0,2.00004 1.999771,0 0,-2.00004 c -7.46e-4,-6.7e-4 7.63e-4,0 0,0 l -1.997614,0 c -7.28e-4,0 -0.0015,-6.7e-4 -0.0022,0 z" style="opacity:0.001"/>
 <path id="normal-topright" d="m 45.000007,63.00064 0,1.9997 1.999771,0 0,-1.9997 c -7.46e-4,-6.7e-4 7.63e-4,0 0,0 l -1.997614,0 c -7.28e-4,0 -0.0015,-6.7e-4 -0.0022,0 z" style="opacity:0.001"/>
 <path id="normal-bottomright" d="m 45.000007,76.0003 0,1.9997 1.999771,0 0,-1.9997 c -7.46e-4,-6.7e-4 7.63e-4,0 0,0 l -1.997614,0 c -7.28e-4,0 -0.0015,-6.7e-4 -0.0022,0 z" style="opacity:0.001"/>
 <path id="normal-bottomleft" d="m 32.000007,76.0003 0,1.9997 1.999771,0 0,-1.9997 c -7.46e-4,-6.7e-4 7.63e-4,0 0,0 l -1.997614,0 c -7.28e-4,0 -0.0015,-6.7e-4 -0.0022,0 z" style="opacity:0.001"/>
 <path id="pressed-center" d="m 29.9997,22.00001 0,11.00001 10.999999,0 0,-11.00001 -10.999999,0 z" style="opacity:0.001"/>
 <path id="pressed-right" d="m 40.9997,22.00001 0,11.00001 2,0 c 6.68e-4,-0.0183 0,-0.0344 0,-0.0529 l 0,-10.89423 c 0,-0.0185 6.68e-4,-0.0345 0,-0.0529 l -2,0 z" style="opacity:0.001"/>
 <path id="pressed-top" d="m 29.9997,19.99997 0,2.00004 10.999999,0 0,-2.00004 c -0.0041,-6.7e-4 0.0045,0 3.01e-4,0 l -10.98844,0 c -0.004,0 -0.008,-6.7e-4 -0.0119,0 z" style="opacity:0.001"/>
 <path id="pressed-left" d="m 28,22.00001 c -6.7e-4,0.0183 0,0.0344 0,0.0529 l 0,10.89423 c 0,0.0185 -6.7e-4,0.0345 0,0.0529 l 2,0 0,-11 -2,0 z" style="opacity:0.001"/>
 <path id="pressed-bottom" d="m 30,33 0,2 11,0 0,-2 -11,0 z" style="opacity:0.001"/>
 <path id="pressed-topleft" d="m 27.999667,19.99997 0,2.00004 1.999722,0 0,-2.00004 c -7.45e-4,-6.7e-4 8.18e-4,0 5.5e-5,0 l -1.997621,0 c -7.27e-4,0 -0.0015,-6.7e-4 -0.0022,0 z" style="opacity:0.001"/>
 <path id="pressed-topright" d="m 41.000044,19.99997 0,2.00004 1.999722,0 0,-2.00004 c -7.45e-4,-6.7e-4 8.18e-4,0 5.5e-5,0 l -1.997621,0 c -7.27e-4,0 -0.0015,-6.7e-4 -0.0022,0 z" style="opacity:0.001"/>
 <path id="pressed-bottomright" d="m 41.000044,32.99995 0,2.00005 1.999722,0 0,-2.00005 c -7.45e-4,-6.7e-4 8.18e-4,0 5.5e-5,0 l -1.997621,0 c -7.27e-4,0 -0.0015,-6.7e-4 -0.0022,0 z" style="opacity:0.001"/>
 <path id="pressed-bottomleft" d="m 28.000044,32.99995 0,2.00005 1.999722,0 0,-2.00005 c -7.45e-4,-6.7e-4 8.18e-4,0 5.5e-5,0 l -1.997621,0 c -7.27e-4,0 -0.0015,-6.7e-4 -0.0022,0 z" style="opacity:0.001"/>
 <path id="hover-center" d="m 69.9997,19.38416 0,11 10.999999,0 0,-11 -10.999999,0 z" style="opacity:0.001"/>
 <path id="hover-right" d="m 80.9997,19.38416 0,11 2,0 c 6.68e-4,-0.0183 0,-0.0344 0,-0.0529 l 0,-10.89423 c 0,-0.0185 6.68e-4,-0.0345 0,-0.0529 l -2,0 z" style="opacity:0.001"/>
 <path id="hover-top" d="m 69.9997,17.38411 0,2.00005 10.999999,0 0,-2.00005 c -0.0041,-6.7e-4 0.0045,0 3.01e-4,0 l -10.98844,0 c -0.004,0 -0.008,-6.7e-4 -0.0119,0 z" style="opacity:0.001"/>
 <path id="hover-left" d="m 68,19.38416 c -6.7e-4,0.0183 0,0.0344 0,0.0529 l 0,10.89423 c 0,0.0185 -6.7e-4,0.0345 0,0.0529 l 2,0 0,-11.00001 -2,0 z" style="opacity:0.001"/>
 <path id="hover-bottom" d="m 70,30.38414 0,2 11,0 0,-2 -11,0 z" style="opacity:0.001"/>
 <path id="hover-topleft" d="m 67.999667,17.38411 0,2.00005 1.999722,0 0,-2.00005 c -7.45e-4,-6.7e-4 8.18e-4,0 5.5e-5,0 l -1.997621,0 c -7.27e-4,0 -0.0015,-6.7e-4 -0.0022,0 z" style="opacity:0.001"/>
 <path id="hover-topright" d="m 81.000044,17.38411 0,2.00005 1.999722,0 0,-2.00005 c -7.45e-4,-6.7e-4 8.18e-4,0 5.5e-5,0 l -1.997621,0 c -7.27e-4,0 -0.0015,-6.7e-4 -0.0022,0 z" style="opacity:0.001"/>
 <path id="hover-bottomright" d="m 81.000044,30.3841 0,2.00004 1.999722,0 0,-2.00004 c -7.45e-4,-6.7e-4 8.18e-4,0 5.5e-5,0 l -1.997621,0 c -7.27e-4,0 -0.0015,-6.7e-4 -0.0022,0 z" style="opacity:0.001"/>
 <path id="hover-bottomleft" d="m 68.000044,30.3841 0,2.00004 1.999722,0 0,-2.00004 c -7.45e-4,-6.7e-4 8.18e-4,0 5.5e-5,0 l -1.997621,0 c -7.27e-4,0 -0.0015,-6.7e-4 -0.0022,0 z" style="opacity:0.001"/>
 <rect id="section-center" width="50" height="50" x="67" y="52" style="opacity:0.5;fill:#252a35"/>
 <g id="section-topleft" transform="translate(-123,-206.99988)">
  <path d="m 190.00001,251.99982 0,7 -7,0 0,-2 c 0,-2.77 2.23,-5 5,-5 z" style="opacity:0.5;fill:#252a35"/>
  <path d="m 188,251.99988 c -2.77,0 -5,2.23 -5,5 l 0,2 1,0 0,-1 c 0,-3 2,-5 5,-5 l 1,0 0,-1 z" style="opacity:0.2"/>
 </g>
 <g id="section-left" transform="translate(-123,-206.99988)">
  <path d="m 183.00002,258.99981 0,50 7,10e-6 0,-50 z" style="opacity:0.5;fill:#252a35"/>
  <path d="m 183,258.99988 0,50 1,0 0,-50 -1,0 z" style="opacity:0.2"/>
 </g>
 <g id="section-right" transform="translate(-123,-206.99988)">
  <path d="m 247,258.99982 0,50 -7,10e-6 0,-50 z" style="opacity:0.5;fill:#252a35"/>
  <path d="m 246,308.99988 1,0 0,-50 -1,0 0,50 z" style="opacity:0.2"/>
 </g>
 <g id="section-bottomleft" transform="translate(-123,-206.99988)">
  <path d="m 190.00001,315.99991 0,-7 -7,0 0,2 c 0,2.77 2.23,5 5,5 z" style="opacity:0.5;fill:#252a35"/>
  <path d="m 183,310.99988 c 0,2.77 2.23,5 5,5 l 2,0 0,-1 -1,0 c -3,0 -5,-2 -5,-5 l 0,-1 -1,0 z" style="opacity:0.2"/>
 </g>
 <g id="section-bottom" transform="translate(-123,-206.99988)">
  <path d="m 189.99998,315.99995 50.00002,0 0,-7 -50.00001,0 z" style="opacity:0.5;fill:#252a35"/>
  <path d="m 190,315.99988 50,0 0,-1 -50,0 0,1 z" style="opacity:0.2"/>
 </g>
 <g id="section-bottomright" transform="translate(-123,-206.99988)">
  <path d="m 240,315.99991 0,-7 7,0 0,2 c 0,2.77 -2.23,5 -5,5 z" style="opacity:0.5;fill:#252a35"/>
  <path d="m 247,310.99988 c 0,2.77 -2.23,5 -5,5 l -2,0 0,-1 1,0 c 3,0 5,-2 5,-5 l 0,-1 1,0 z" style="opacity:0.2"/>
 </g>
 <g id="section-topright" transform="translate(-123,-206.99988)">
  <path d="m 240,251.99982 0,7 7,0 0,-2 c 0,-2.77 -2.23,-5 -5,-5 z" style="opacity:0.5;fill:#252a35"/>
  <path d="m 242,251.99988 c 2.77,0 5,2.23 5,5 l 0,2 -1,0 0,-1 c 0,-3 -2,-5 -5,-5 l -1,0 0,-1 z" style="opacity:0.2"/>
 </g>
 <g id="section-top" transform="translate(-123,-206.99988)">
  <path d="m 189.99998,251.99982 50.00002,0 0,7 -50.00001,0 z" style="opacity:0.5;fill:#252a35"/>
  <path d="m 190,251.99988 0,1 50,0 0,-1 -50,0 z" style="opacity:0.2"/>
 </g>
 <rect id="section-hint-bottom-margin" width="2" height="7" x="91" y="102" style="fill:#ff0000"/>
 <rect id="section-hint-left-margin" width="7" height="2" x="60" y="78" style="fill:#ff0000"/>
 <rect id="section-hint-top-margin" width="2" height="7" x="91" y="45" style="fill:#ff0000"/>
 <rect id="section-hint-right-margin" width="7" height="2" x="117" y="79" style="fill:#ff0000"/>
</svg>
