<svg xmlns="http://www.w3.org/2000/svg" width="15.344" height="23" version="1">
 <path id="normal-left" d="m 9.5e-6,1 0,4.999999 1,0 0,-4.999999 -1,0 z" style="fill:#4b5165"/>
 <path id="normal-right" d="m 13.000009,1 0,4.999999 -1,0 0,-4.999999 1,0 z" style="fill:#4b5165"/>
 <rect id="normal-bottom" width="11" height="1" x="1" y="6" style="fill:#4b5165"/>
 <path id="normal-top" d="m 1.0000095,0 0,1 10.9999735,0 0,-1 -10.9999735,0 z" style="fill:#4b5165"/>
 <path id="hover-left" d="m 9.5e-6,9.000001 0,4.999999 1,0 0,-4.999999 -1,0 z" style="fill:#5294e2"/>
 <path id="hover-right" d="m 13.000009,9.000001 0,4.999999 -1,0 0,-4.999999 1,0 z" style="fill:#5294e2"/>
 <path id="hover-top" d="m 1.0000095,8 0,0.998752 10.9999785,0 0,-0.998752 -10.9999785,0 z" style="fill:#5294e2"/>
 <path id="active-left" d="m 0,17 0,4.999999 1,0 L 1,17 0,17 z" style="fill:#5294e2"/>
 <path id="active-right" d="m 12.999999,17 0,4.999999 -1,0 0,-4.999999 1,0 z" style="fill:#5294e2"/>
 <rect id="active-bottom" width="11" height="1.001" x="1" y="22" style="fill:#5294e2"/>
 <path id="active-top" d="m 1,16 0,1 10.999977,0 0,-1 L 1,16 z" style="fill:#5294e2"/>
 <rect id="normal-center" width="11" height="5" x="1" y="-6" transform="scale(1,-1)" style="fill:#4b5165"/>
 <rect id="active-center" width="11" height="5" x="1" y="-22" transform="scale(1,-1)" style="fill:#5294e2"/>
 <rect id="hover-center" width="11" height="5" x="1" y="-14" transform="scale(1,-1)" style="fill:#5294e2"/>
 <g id="hover-bottom" transform="matrix(2.1999957,0,0,0.99875155,-1.1999862,-2.446941)">
  <rect width="5" height="1.001" x="1" y="16.47" style="fill:#5294e2"/>
 </g>
 <path id="hover-bottomleft" d="m 9.5e-6,14 c 0,0.552285 0.4477153,1 1,1 l 0,-1 -1,0 z" style="fill:#5294e2"/>
 <path id="hover-topleft" d="m 9.5e-6,9 c 0,-0.552285 0.4477153,-1 1,-1 l 0,1 -1,0 z" style="fill:#5294e2"/>
 <path id="hover-topright" d="m 13.000009,9 c 0,-0.552285 -0.447715,-1 -1,-1 l 0,1 1,0 z" style="fill:#5294e2"/>
 <path id="hover-bottomright" d="m 13.000009,14 c 0,0.552285 -0.447715,1 -1,1 l 0,-1 1,0 z" style="fill:#5294e2"/>
 <path id="normal-bottomleft" d="m 9.5e-6,6 c 0,0.552285 0.4477153,1 1,1 l 0,-1 -1,0 z" style="fill:#4b5165"/>
 <path id="normal-topleft" d="m 9.5e-6,1 c 0,-0.552285 0.4477153,-1 1,-1 l 0,1 -1,0 z" style="fill:#4b5165"/>
 <path id="normal-topright" d="m 13.000009,1 c 0,-0.552285 -0.447715,-1 -1,-1 l 0,1 1,0 z" style="fill:#4b5165"/>
 <path id="normal-bottomright" d="m 13.000009,6 c 0,0.552285 -0.447715,1 -1,1 l 0,-1 1,0 z" style="fill:#4b5165"/>
 <path id="active-bottomleft" d="m 9.5e-6,22 c 0,0.552285 0.4477153,1 1,1 l 0,-1 -1,0 z" style="fill:#5294e2"/>
 <path id="active-topleft" d="m 9.5e-6,17 c 0,-0.552285 0.4477153,-1 1,-1 l 0,1 -1,0 z" style="fill:#5294e2"/>
 <path id="active-topright" d="m 13.000009,17 c 0,-0.552285 -0.447715,-1 -1,-1 l 0,1 1,0 z" style="fill:#5294e2"/>
 <path id="active-bottomright" d="m 13.000009,22 c 0,0.552285 -0.447715,1 -1,1 l 0,-1 1,0 z" style="fill:#5294e2"/>
</svg>
