<svg xmlns="http://www.w3.org/2000/svg" xmlns:xlink="http://www.w3.org/1999/xlink" id="svg3642" width="205" height="210.939" version="1">
 <defs id="defs3644">
  <radialGradient id="radialGradient4263" cx="984" cy="905.362" r="8.5" fx="984" fy="905.362" gradientTransform="matrix(-1.411767,-9.899721e-6,9.8996845e-6,-1.4117618,1527.1698,1378.1046)" gradientUnits="userSpaceOnUse" xlink:href="#linearGradient4465"/>
  <linearGradient id="linearGradient4465">
   <stop id="stop4467" style="stop-color:#000000;stop-opacity:0.50980395" offset="0"/>
   <stop id="stop4469" style="stop-color:#000000;stop-opacity:0" offset="1"/>
  </linearGradient>
  <linearGradient id="linearGradient4259" x1="83.6" x2="83.6" y1="-969.362" y2="-957.362" gradientTransform="matrix(0.71428571,0,0,1,-317.71429,1250.3622)" gradientUnits="userSpaceOnUse" xlink:href="#linearGradient4465"/>
  <radialGradient id="radialGradient3382" cx="984" cy="905.362" r="8.5" fx="984" fy="905.362" gradientTransform="matrix(7.8257357e-6,1.411771,-1.4117668,7.8257123e-6,1466.1525,-1289.2507)" gradientUnits="userSpaceOnUse" xlink:href="#linearGradient4465"/>
  <linearGradient id="linearGradient4452" x1="-260" x2="-260" y1="281" y2="293" gradientUnits="userSpaceOnUse" xlink:href="#linearGradient4465"/>
  <radialGradient id="radialGradient4255" cx="982.909" cy="906.453" r="8.5" fx="982.909" fy="906.453" gradientTransform="matrix(1.4117577,5.5406049e-6,-5.5406032e-6,1.4117573,-1199.6245,-1229.7582)" gradientUnits="userSpaceOnUse" xlink:href="#linearGradient4465"/>
  <radialGradient id="radialGradient4275" cx="984" cy="905.362" r="8.5" fx="984" fy="905.362" gradientTransform="matrix(-1.6187099e-5,-1.4117565,1.4117775,-1.618734e-5,-1140.1539,1439.1221)" gradientUnits="userSpaceOnUse" xlink:href="#linearGradient4465"/>
  <linearGradient id="linearGradient4385" x1="83.6" x2="83.6" y1="-969.362" y2="-957.362" gradientTransform="matrix(0.71428571,0,0,1,-317.71429,1250.3622)" gradientUnits="userSpaceOnUse" xlink:href="#linearGradient4465"/>
  <linearGradient id="linearGradient4387" x1="83.6" x2="83.6" y1="-969.362" y2="-957.362" gradientTransform="matrix(0.71428571,0,0,1,-317.71429,1250.3622)" gradientUnits="userSpaceOnUse" xlink:href="#linearGradient4465"/>
 </defs>
 <rect id="center" style="opacity:0.95;fill:#252a35;fill-opacity:1;stroke:none" width="50" height="50" x="7" y="51.94"/>
 <g id="bottomleft" transform="translate(-10,34.93893)">
  <path id="path87" style="color:#383c4a;opacity:0.95;fill:#252a35;fill-opacity:1;stroke:none" d="m 17.000005,74.000025 0,-7 -7,0 0,2 c 0,2.77 2.23,5 5,5 z"/>
  <path id="path4447" style="color:#000000;font-style:normal;font-variant:normal;font-weight:normal;font-stretch:normal;font-size:medium;line-height:normal;font-family:sans-serif;text-indent:0;text-align:start;text-decoration:none;text-decoration-line:none;text-decoration-style:solid;text-decoration-color:#000000;letter-spacing:normal;word-spacing:normal;text-transform:none;direction:ltr;block-progression:tb;writing-mode:lr-tb;baseline-shift:baseline;text-anchor:start;white-space:normal;clip-rule:nonzero;display:inline;overflow:visible;visibility:visible;opacity:0.2;isolation:auto;mix-blend-mode:normal;color-interpolation:sRGB;color-interpolation-filters:linearRGB;solid-color:#000000;solid-opacity:1;fill:#000000;fill-opacity:1;fill-rule:nonzero;stroke:none;stroke-width:2;stroke-linecap:butt;stroke-linejoin:miter;stroke-miterlimit:4;stroke-dasharray:none;stroke-dashoffset:0;stroke-opacity:1;color-rendering:auto;image-rendering:auto;shape-rendering:auto;text-rendering:auto;enable-background:accumulate" d="m 10,67 0,2 c 0,2.77 2.23,5 5,5 l 2,0 0,-1 -2,0 c -2.233297,0 -4,-1.766703 -4,-4 l 0,-2 -1,0 z"/>
 </g>
 <g id="left" transform="translate(-10,34.93893)">
  <g id="shadow-left-3" transform="matrix(-1,0,0,1,298,-240)">
   <rect id="rect33" style="fill:#3498db;fill-opacity:0" width="7" height="1" x="278" y="257" transform="translate(3,2)"/>
  </g>
  <path id="path71" style="color:#383c4a;opacity:0.95;fill:#252a35;fill-opacity:1;stroke:none" d="m 10.000015,16.999925 0,50 7,10e-6 0,-50 z"/>
  <path id="path4438" style="color:#000000;font-style:normal;font-variant:normal;font-weight:normal;font-stretch:normal;font-size:medium;line-height:normal;font-family:sans-serif;text-indent:0;text-align:start;text-decoration:none;text-decoration-line:none;text-decoration-style:solid;text-decoration-color:#000000;letter-spacing:normal;word-spacing:normal;text-transform:none;direction:ltr;block-progression:tb;writing-mode:lr-tb;baseline-shift:baseline;text-anchor:start;white-space:normal;clip-rule:nonzero;display:inline;overflow:visible;visibility:visible;opacity:0.2;isolation:auto;mix-blend-mode:normal;color-interpolation:sRGB;color-interpolation-filters:linearRGB;solid-color:#000000;solid-opacity:1;fill:#000000;fill-opacity:1;fill-rule:nonzero;stroke:none;stroke-width:2;stroke-linecap:butt;stroke-linejoin:miter;stroke-miterlimit:4;stroke-dasharray:none;stroke-dashoffset:0;stroke-opacity:1;color-rendering:auto;image-rendering:auto;shape-rendering:auto;text-rendering:auto;enable-background:accumulate" d="m 10,17 0,50 1,0 0,-50 -1,0 z"/>
 </g>
 <g id="right" transform="translate(-10,34.93893)">
  <g id="shadow-right-2" transform="translate(-214,-240)">
   <rect id="rect47" style="fill:#3498db;fill-opacity:0" width="7" height="1" x="278" y="257" transform="translate(3,2)"/>
  </g>
  <path id="path79" style="color:#383c4a;opacity:0.95;fill:#252a35;fill-opacity:1;stroke:none" d="m 73.999995,16.999935 0,50 -7,1e-5 0,-50 z"/>
  <path id="path4440" style="color:#000000;font-style:normal;font-variant:normal;font-weight:normal;font-stretch:normal;font-size:medium;line-height:normal;font-family:sans-serif;text-indent:0;text-align:start;text-decoration:none;text-decoration-line:none;text-decoration-style:solid;text-decoration-color:#000000;letter-spacing:normal;word-spacing:normal;text-transform:none;direction:ltr;block-progression:tb;writing-mode:lr-tb;baseline-shift:baseline;text-anchor:start;white-space:normal;clip-rule:nonzero;display:inline;overflow:visible;visibility:visible;opacity:0.2;isolation:auto;mix-blend-mode:normal;color-interpolation:sRGB;color-interpolation-filters:linearRGB;solid-color:#000000;solid-opacity:1;fill:#000000;fill-opacity:1;fill-rule:nonzero;stroke:none;stroke-width:2;stroke-linecap:butt;stroke-linejoin:miter;stroke-miterlimit:4;stroke-dasharray:none;stroke-dashoffset:0;stroke-opacity:1;color-rendering:auto;image-rendering:auto;shape-rendering:auto;text-rendering:auto;enable-background:accumulate" d="m 73,17 0,50 1,0 0,-50 -1,0 z"/>
 </g>
 <g id="bottom" transform="translate(-10,34.93893)">
  <g id="shadow-bottom-9" transform="matrix(0,1,-1,0,324,-214)">
   <rect id="rect41" style="fill:#3498db;fill-opacity:0" width="7" height="1" x="278" y="257" transform="translate(3,2)"/>
  </g>
  <path id="path95" style="color:#383c4a;opacity:0.95;fill:#252a35;fill-opacity:1;stroke:none" d="m 16.999975,74.000065 50.00002,0 0,-7 -50.00001,0 z"/>
  <path id="path4436" style="color:#000000;font-style:normal;font-variant:normal;font-weight:normal;font-stretch:normal;font-size:medium;line-height:normal;font-family:sans-serif;text-indent:0;text-align:start;text-decoration:none;text-decoration-line:none;text-decoration-style:solid;text-decoration-color:#000000;letter-spacing:normal;word-spacing:normal;text-transform:none;direction:ltr;block-progression:tb;writing-mode:lr-tb;baseline-shift:baseline;text-anchor:start;white-space:normal;clip-rule:nonzero;display:inline;overflow:visible;visibility:visible;opacity:0.2;isolation:auto;mix-blend-mode:normal;color-interpolation:sRGB;color-interpolation-filters:linearRGB;solid-color:#000000;solid-opacity:1;fill:#000000;fill-opacity:1;fill-rule:nonzero;stroke:none;stroke-width:2;stroke-linecap:butt;stroke-linejoin:miter;stroke-miterlimit:4;stroke-dasharray:none;stroke-dashoffset:0;stroke-opacity:1;color-rendering:auto;image-rendering:auto;shape-rendering:auto;text-rendering:auto;enable-background:accumulate" d="m 17,73 0,1 50,0 0,-1 -50,0 z"/>
 </g>
 <g id="bottomright" transform="translate(-10,34.93893)">
  <path id="path103" style="color:#383c4a;opacity:0.95;fill:#252a35;fill-opacity:1;stroke:none" d="m 66.999995,74.000025 0,-7 7,0 0,2 c 0,2.77 -2.23,5 -5,5 z"/>
  <path id="path4449" style="color:#000000;font-style:normal;font-variant:normal;font-weight:normal;font-stretch:normal;font-size:medium;line-height:normal;font-family:sans-serif;text-indent:0;text-align:start;text-decoration:none;text-decoration-line:none;text-decoration-style:solid;text-decoration-color:#000000;letter-spacing:normal;word-spacing:normal;text-transform:none;direction:ltr;block-progression:tb;writing-mode:lr-tb;baseline-shift:baseline;text-anchor:start;white-space:normal;clip-rule:nonzero;display:inline;overflow:visible;visibility:visible;opacity:0.2;isolation:auto;mix-blend-mode:normal;color-interpolation:sRGB;color-interpolation-filters:linearRGB;solid-color:#000000;solid-opacity:1;fill:#000000;fill-opacity:1;fill-rule:nonzero;stroke:none;stroke-width:2;stroke-linecap:butt;stroke-linejoin:miter;stroke-miterlimit:4;stroke-dasharray:none;stroke-dashoffset:0;stroke-opacity:1;color-rendering:auto;image-rendering:auto;shape-rendering:auto;text-rendering:auto;enable-background:accumulate" d="m 73,67 0,2 c 0,2.233297 -1.766703,4 -4,4 l -2,0 0,1 2,0 c 2.77,0 5,-2.23 5,-5 l 0,-2 -1,0 z"/>
 </g>
 <g id="top" transform="translate(-10,34.93893)">
  <g id="shadow-top-6" transform="matrix(0,-1,-1,0,324,298)">
   <rect id="rect53" style="fill:#3498db;fill-opacity:0" width="7" height="1" x="278" y="257" transform="translate(3,2)"/>
  </g>
  <path id="path111" style="color:#383c4a;opacity:0.95;fill:#252a35;fill-opacity:1;stroke:none" d="m 16.999975,9.999935 50.00002,0 0,7 -50.00001,0 z"/>
  <path id="path4433" style="color:#000000;font-style:normal;font-variant:normal;font-weight:normal;font-stretch:normal;font-size:medium;line-height:normal;font-family:sans-serif;text-indent:0;text-align:start;text-decoration:none;text-decoration-line:none;text-decoration-style:solid;text-decoration-color:#000000;letter-spacing:normal;word-spacing:normal;text-transform:none;direction:ltr;block-progression:tb;writing-mode:lr-tb;baseline-shift:baseline;text-anchor:start;white-space:normal;clip-rule:nonzero;display:inline;overflow:visible;visibility:visible;opacity:0.2;isolation:auto;mix-blend-mode:normal;color-interpolation:sRGB;color-interpolation-filters:linearRGB;solid-color:#000000;solid-opacity:1;fill:#000000;fill-opacity:1;fill-rule:nonzero;stroke:none;stroke-width:2;stroke-linecap:butt;stroke-linejoin:miter;stroke-miterlimit:4;stroke-dasharray:none;stroke-dashoffset:0;stroke-opacity:1;color-rendering:auto;image-rendering:auto;shape-rendering:auto;text-rendering:auto;enable-background:accumulate" d="m 17,10 0,1 50,0 0,-1 -50,0 z"/>
 </g>
 <g id="topright" transform="translate(-10,34.93893)">
  <path id="path119" style="color:#383c4a;opacity:0.95;fill:#252a35;fill-opacity:1;stroke:none" d="m 66.999995,9.999935 0,7 7,0 0,-2 c 0,-2.77 -2.23,-5 -5,-5 z"/>
  <path id="path4445" style="color:#000000;font-style:normal;font-variant:normal;font-weight:normal;font-stretch:normal;font-size:medium;line-height:normal;font-family:sans-serif;text-indent:0;text-align:start;text-decoration:none;text-decoration-line:none;text-decoration-style:solid;text-decoration-color:#000000;letter-spacing:normal;word-spacing:normal;text-transform:none;direction:ltr;block-progression:tb;writing-mode:lr-tb;baseline-shift:baseline;text-anchor:start;white-space:normal;clip-rule:nonzero;display:inline;overflow:visible;visibility:visible;opacity:0.2;isolation:auto;mix-blend-mode:normal;color-interpolation:sRGB;color-interpolation-filters:linearRGB;solid-color:#000000;solid-opacity:1;fill:#000000;fill-opacity:1;fill-rule:nonzero;stroke:none;stroke-width:2;stroke-linecap:butt;stroke-linejoin:miter;stroke-miterlimit:4;stroke-dasharray:none;stroke-dashoffset:0;stroke-opacity:1;color-rendering:auto;image-rendering:auto;shape-rendering:auto;text-rendering:auto;enable-background:accumulate" d="m 67,10 0,1 2,0 c 2.233297,0 4,1.766703 4,4 l 0,2 1,0 0,-2 c 0,-2.77 -2.23,-5 -5,-5 l -2,0 z"/>
 </g>
 <g id="topleft" transform="translate(-10,34.93893)">
  <path id="path63" style="color:#383c4a;opacity:0.95;fill:#252a35;fill-opacity:1;stroke:none" d="m 17.000005,9.999935 0,7 -7,0 0,-2 c 0,-2.77 2.23,-5 5,-5 z"/>
  <path id="rect4410" style="color:#000000;font-style:normal;font-variant:normal;font-weight:normal;font-stretch:normal;font-size:medium;line-height:normal;font-family:sans-serif;text-indent:0;text-align:start;text-decoration:none;text-decoration-line:none;text-decoration-style:solid;text-decoration-color:#000000;letter-spacing:normal;word-spacing:normal;text-transform:none;direction:ltr;block-progression:tb;writing-mode:lr-tb;baseline-shift:baseline;text-anchor:start;white-space:normal;clip-rule:nonzero;display:inline;overflow:visible;visibility:visible;opacity:0.2;isolation:auto;mix-blend-mode:normal;color-interpolation:sRGB;color-interpolation-filters:linearRGB;solid-color:#000000;solid-opacity:1;fill:#000000;fill-opacity:1;fill-rule:nonzero;stroke:none;stroke-width:2;stroke-linecap:butt;stroke-linejoin:miter;stroke-miterlimit:4;stroke-dasharray:none;stroke-dashoffset:0;stroke-opacity:1;color-rendering:auto;image-rendering:auto;shape-rendering:auto;text-rendering:auto;enable-background:accumulate" d="m 15,10 c -2.77,0 -5,2.23 -5,5 l 0,2 1,0 0,-2 c 0,-2.233297 1.766703,-4 4,-4 l 2,0 0,-1 -2,0 z"/>
 </g>
 <path id="shadow-topleft" style="opacity:1;fill:url(#radialGradient4275);fill-opacity:1;stroke:none" d="m 121,49.93904 10,0 0,-2 c 0,-2.77 2.23,-5 5,-5 l 2,0 0,-10 -17,0 z"/>
 <g id="shadow-left" transform="matrix(-1,0,0,1,419,-207.06096)">
  <rect id="rect4267" style="opacity:1;fill:url(#linearGradient4385);fill-opacity:1;stroke:none" width="50" height="10" x="-307" y="288" transform="matrix(0,-1,1,0,0,0)"/>
  <rect id="rect4269" style="fill:#3498db;fill-opacity:0" width="7" height="1" x="278" y="257" transform="translate(3,2)"/>
 </g>
 <path id="shadow-bottomright" style="opacity:1;fill:url(#radialGradient3382);fill-opacity:1;stroke:none" d="m 205,99.93904 -10,0 0,2 c 0,2.77 -2.23,5 -5,5 l -2,0 0,10 17,0 z"/>
 <g id="shadow-bottom" transform="matrix(0,1,-1,0,445,-181.06096)">
  <rect id="rect3389" style="opacity:1;fill:url(#linearGradient4387);fill-opacity:1;stroke:none" width="50" height="10" x="-307" y="288" transform="matrix(0,-1,1,0,0,0)"/>
  <rect id="rect4241" style="fill:#3498db;fill-opacity:0" width="7" height="1" x="278" y="257" transform="translate(3,2)"/>
 </g>
 <g id="shadow-right" transform="translate(-93,-207.06096)">
  <rect id="rect4251" style="opacity:1;fill:url(#linearGradient4452);fill-opacity:1;stroke:none" width="50" height="10" x="-307" y="288" transform="matrix(0,-1,1,0,0,0)"/>
  <rect id="rect4253" style="fill:#3498db;fill-opacity:0" width="7" height="1" x="278" y="257" transform="translate(3,2)"/>
 </g>
 <g id="shadow-top" transform="matrix(0,-1,-1,0,445,330.93904)">
  <rect id="rect4279" style="opacity:1;fill:url(#linearGradient4259);fill-opacity:1;stroke:none" width="50" height="10" x="-307" y="288" transform="matrix(0,-1,1,0,0,0)"/>
  <rect id="rect4281" style="fill:#3498db;fill-opacity:0" width="7" height="1" x="278" y="257" transform="translate(3,2)"/>
 </g>
 <path id="shadow-topright" style="opacity:1;fill:url(#radialGradient4255);fill-opacity:1;stroke:none" d="m 188,32.93904 0,10 2,0 c 2.77,0 5,2.23 5,5 l 0,2 10,0 0,-17 z"/>
 <path id="shadow-bottomleft" style="opacity:1;fill:url(#radialGradient4263);fill-opacity:1;stroke:none" d="m 138,116.93904 0,-10 -2,0 c -2.77,0 -5,-2.23 -5,-5 l 0,-2 -10,0 0,17 z"/>
 <g id="shadow-center" style="fill:#000000;fill-opacity:0" transform="matrix(0.31570315,0,0,0.31570315,1.894219,193.8907)">
  <path id="path3642" style="fill:#000000;fill-opacity:0;stroke:none" d="m -6.0000004,-7.998957 0,62 62.0000004,0 0,-62 -62.0000004,0 z"/>
 </g>
 <rect id="shadow-hint-right-margin" style="opacity:1;fill:#ff00ff;fill-opacity:1;stroke:none" width="10" height="4" x="195" y="72.94"/>
 <rect id="shadow-hint-bottom-margin" style="opacity:1;fill:#ff00ff;fill-opacity:1;stroke:none" width="4" height="10" x="161" y="106.94"/>
 <rect id="shadow-hint-left-margin" style="opacity:1;fill:#ff00ff;fill-opacity:1;stroke:none" width="10" height="4" x="121" y="72.94"/>
 <rect id="shadow-hint-top-margin" style="opacity:1;fill:#ff00ff;fill-opacity:1;stroke:none" width="4" height="10" x="162" y="32.94"/>
 <rect id="hint-top-margin" style="opacity:1;fill:#ff00ff;fill-opacity:1;stroke:none" width="4" height="2" x="29" y="44.94"/>
 <rect id="hint-bottom-margin" style="opacity:1;fill:#ff00ff;fill-opacity:1;stroke:none" width="4" height="2" x="29" y="106.94"/>
 <rect id="hint-left-margin" style="opacity:1;fill:#ff00ff;fill-opacity:1;stroke:none" width="2" height="4" x="0" y="72.94"/>
 <rect id="hint-right-margin" style="opacity:1;fill:#ff00ff;fill-opacity:1;stroke:none" width="2" height="4" x="62" y="72.94"/>
 <rect id="hint-tile-center" style="opacity:1;fill:#ff6600;fill-opacity:1;stroke:none" width="5" height="5" x="0" y="-.06"/>
 <rect id="mask-center" style="fill:#000000" width="50" height="50" x="70" y="144.94"/>
 <path id="mask-topleft" style="fill:#000000" d="m 70,137.93887 v 7 h -7 v -2 c 0,-2.77 2.23,-5 5,-5 z"/>
 <path id="mask-left" style="fill:#000000" d="m 63.00001,144.93886 v 50 l 7,1e-5 v -50 z"/>
 <path id="mask-right" style="fill:#000000" d="m 126.99999,144.93887 v 50 l -7,1e-5 v -50 z"/>
 <path id="mask-bottomleft" style="fill:#000000" d="m 70,201.93896 v -7 h -7 v 2 c 0,2.77 2.23,5 5,5 z"/>
 <path id="mask-bottom" style="fill:#000000" d="m 69.99997,201.939 h 50.00002 v -7 H 69.99998 Z"/>
 <path id="mask-bottomright" style="fill:#000000" d="m 119.99999,201.93896 v -7 h 7 v 2 c 0,2.77 -2.23,5 -5,5 z"/>
 <path id="mask-topright" style="fill:#000000" d="m 119.99999,137.93887 v 7 h 7 v -2 c 0,-2.77 -2.23,-5 -5,-5 z"/>
 <path id="mask-top" style="fill:#000000" d="m 69.99997,137.93887 h 50.00002 v 7 H 69.99998 Z"/>
</svg>
