<svg xmlns="http://www.w3.org/2000/svg" width="40" height="67" version="1">
 <rect id="slider-center" width="1" height="10" x="20" y="8" style="fill:#767b87"/>
 <g id="slider-right" transform="matrix(0.75,0,0,1,15.25,1.000002)">
  <path d="m 9,7 v 10 h 4 V 7 Z" style="fill:#767b87"/>
  <rect width="1" height="10" x="29" y="20" transform="matrix(1.3333333,0,0,1,-25.666667,-13)" style="opacity:0.001"/>
 </g>
 <g id="slider-topright" transform="matrix(0.75,0,0,0.75,15.25,1.750002)">
  <rect width="4" height="4" x="26" y="15" transform="matrix(1.3333333,0,0,1.3333333,-25.666667,-18.333333)" style="opacity:0.001"/>
  <path d="m 9,3 v 4 h 4 C 13,4.784 11.216,3 9,3 Z" style="fill:#767b87"/>
 </g>
 <g id="slider-bottomright" transform="matrix(0.75,0,0,0.75,15.25,6.250002)">
  <rect width="4" height="4" x="26" y="31" transform="matrix(1.3333333,0,0,1.3333333,-25.666667,-24.333333)" style="opacity:0.001"/>
  <path d="m 9,21 v -4 h 4 c 0,2.216 -1.784,4 -4,4 z" style="fill:#767b87"/>
 </g>
 <g id="slider-left" transform="matrix(-0.75,0,0,1,25.75,1.000002)">
  <path d="m 9,7 v 10 h 4 V 7 Z" style="fill:#767b87"/>
  <rect width="1" height="10" x="19" y="20" transform="matrix(-1.3333333,0,0,1,39.666667,-13)" style="opacity:0.001"/>
 </g>
 <g id="slider-topleft" transform="matrix(-0.75,0,0,0.75,25.75,1.750002)">
  <rect width="4" height="4" x="19" y="15" transform="matrix(-1.3333333,0,0,1.3333333,39.666667,-18.333333)" style="opacity:0.001"/>
  <path d="m 9,3 v 4 h 4 C 13,4.784 11.216,3 9,3 Z" style="fill:#767b87"/>
 </g>
 <g id="slider-bottomleft" transform="matrix(-0.75,0,0,0.75,25.75,6.250002)">
  <rect width="4" height="4" x="19" y="31" transform="matrix(-1.3333333,0,0,1.3333333,39.666667,-24.333333)" style="opacity:0.001"/>
  <path d="m 9,21 v -4 h 4 c 0,2.216 -1.784,4 -4,4 z" style="fill:#767b87"/>
 </g>
 <g id="slider-top" transform="matrix(0,-0.75,-0.1,0,21.7,13.750002)">
  <rect width="1" height="4" x="24" y="15" transform="matrix(0,-10,-1.3333333,0,34.333333,257)" style="opacity:0.001"/>
  <path d="m 9,7 v 10 h 4 V 7 Z" style="fill:#767b87"/>
 </g>
 <g id="slider-bottom" transform="matrix(0,0.75,-0.1,0,21.7,12.250002)">
  <rect width="1" height="4" x="24" y="31" transform="matrix(0,-10,1.3333333,0,-32.333333,257)" style="opacity:0.001"/>
  <path d="m 9,7 v 10 h 4 V 7 Z" style="fill:#767b87"/>
 </g>
 <rect id="hint-scrollbar-size" width="8" height="8" x="0" y="13" rx="0" ry="8" style="fill:#4e9a06"/>
 <rect id="hint-tile-center" width="2" height="2" x="3" y="0" rx="0" ry="2" style="fill:#4e9a06"/>
 <rect id="background-vertical-center" width="1" height="10" x="34" y="8" style="fill:#3e434f"/>
 <g id="background-vertical-right" transform="matrix(0.75,0,0,1,29.25,1.000002)">
  <path d="m 9,7 v 10 h 4 V 7 Z" style="fill:#3e434f"/>
  <rect width="1" height="10" x="43" y="20" transform="matrix(1.3333333,0,0,1,-44.333333,-13)" style="opacity:0.001"/>
 </g>
 <g id="background-vertical-topright" transform="matrix(0.75,0,0,0.75,29.25,1.750002)">
  <rect width="4" height="4" x="40" y="15" transform="matrix(1.3333333,0,0,1.3333333,-44.333333,-18.333333)" style="opacity:0.001"/>
  <path d="m 9,3 v 4 h 4 C 13,4.784 11.216,3 9,3 Z" style="fill:#3e434f"/>
 </g>
 <g id="background-vertical-bottomright" transform="matrix(0.75,0,0,0.75,29.25,6.250002)">
  <rect width="4" height="4" x="40" y="31" transform="matrix(1.3333333,0,0,1.3333333,-44.333333,-24.333333)" style="opacity:0.001"/>
  <path d="m 9,21 v -4 h 4 c 0,2.216 -1.784,4 -4,4 z" style="fill:#3e434f"/>
 </g>
 <g id="background-vertical-left" transform="matrix(-0.75,0,0,1,39.75,1.000002)">
  <path d="m 9,7 v 10 h 4 V 7 Z" style="fill:#3e434f"/>
  <rect width="1" height="10" x="33" y="20" transform="matrix(-1.3333333,0,0,1,58.333333,-13)" style="opacity:0.001"/>
 </g>
 <g id="background-vertical-topleft" transform="matrix(-0.75,0,0,0.75,39.75,1.750002)">
  <rect width="4" height="4" x="33" y="15" transform="matrix(-1.3333333,0,0,1.3333333,58.333333,-18.333333)" style="opacity:0.001"/>
  <path d="m 9,3 v 4 h 4 C 13,4.784 11.216,3 9,3 Z" style="fill:#3e434f"/>
 </g>
 <g id="background-vertical-bottomleft" transform="matrix(-0.75,0,0,0.75,39.75,6.250002)">
  <rect width="4" height="4" x="33" y="31" transform="matrix(-1.3333333,0,0,1.3333333,58.333333,-24.333333)" style="opacity:0.001"/>
  <path d="m 9,21 v -4 h 4 c 0,2.216 -1.784,4 -4,4 z" style="fill:#3e434f"/>
 </g>
 <g id="background-vertical-top" transform="matrix(0,-0.75,-0.1,0,35.7,13.750002)">
  <rect width="1" height="4" x="38" y="15" transform="matrix(0,-10,-1.3333333,0,34.333333,397)" style="opacity:0.001"/>
  <path d="m 9,7 v 10 h 4 V 7 Z" style="fill:#3e434f"/>
 </g>
 <g id="background-vertical-bottom" transform="matrix(0,0.75,-0.1,0,35.7,12.250002)">
  <rect width="1" height="4" x="38" y="31" transform="matrix(0,-10,1.3333333,0,-32.333333,397)" style="opacity:0.001"/>
  <path d="m 9,7 v 10 h 4 V 7 Z" style="fill:#3e434f"/>
 </g>
 <rect id="mouseover-slider-center" width="1" height="10" x="20" y="30" style="fill:#8f939d"/>
 <g id="mouseover-slider-right" transform="matrix(0.75,0,0,1,15.25,23.000002)">
  <path d="m 9,7 v 10 h 4 V 7 Z" style="fill:#8f939d"/>
  <rect width="1" height="10" x="29" y="42" transform="matrix(1.3333333,0,0,1,-25.666667,-35)" style="opacity:0.001"/>
 </g>
 <g id="mouseover-slider-topright" transform="matrix(0.75,0,0,0.75,15.25,23.750002)">
  <rect width="4" height="4" x="26" y="37" transform="matrix(1.3333333,0,0,1.3333333,-25.666667,-47.666667)" style="opacity:0.001"/>
  <path d="m 9,3 v 4 h 4 C 13,4.784 11.216,3 9,3 Z" style="fill:#8f939d"/>
 </g>
 <g id="mouseover-slider-bottomright" transform="matrix(0.75,0,0,0.75,15.25,28.250002)" style="fill:#939393;fill-opacity:1">
  <path d="m 9,21 v -4 h 4 c 0,2.216 -1.784,4 -4,4 z" style="fill:#8f939d"/>
  <rect width="4" height="4" x="26" y="53" transform="matrix(1.3333333,0,0,1.3333333,-25.666667,-53.666667)" style="opacity:0.001"/>
 </g>
 <g id="mouseover-slider-left" transform="matrix(-0.75,0,0,1,25.75,23.000002)">
  <path d="m 9,7 v 10 h 4 V 7 Z" style="fill:#8f939d"/>
  <rect width="1" height="10" x="19" y="42" transform="matrix(-1.3333333,0,0,1,39.666667,-35)" style="opacity:0.001"/>
 </g>
 <g id="mouseover-slider-topleft" transform="matrix(-0.75,0,0,0.75,25.75,23.750002)">
  <rect width="4" height="4" x="19" y="37" transform="matrix(-1.3333333,0,0,1.3333333,39.666667,-47.666667)" style="opacity:0.001"/>
  <path d="m 9,3 v 4 h 4 C 13,4.784 11.216,3 9,3 Z" style="fill:#8f939d"/>
 </g>
 <g id="mouseover-slider-bottomleft" transform="matrix(-0.75,0,0,0.75,25.75,28.250002)">
  <rect width="4" height="4" x="19" y="53" transform="matrix(-1.3333333,0,0,1.3333333,39.666667,-53.666667)" style="opacity:0.001"/>
  <path d="m 9,21 v -4 h 4 c 0,2.216 -1.784,4 -4,4 z" style="fill:#8f939d"/>
 </g>
 <g id="mouseover-slider-top" transform="matrix(0,-0.75,-0.1,0,21.7,35.750002)">
  <rect width="1" height="4" x="24" y="37" transform="matrix(0,-10,-1.3333333,0,63.666667,257)" style="opacity:0.001"/>
  <path d="m 9,7 v 10 h 4 V 7 Z" style="fill:#8f939d"/>
 </g>
 <g id="mouseover-slider-bottom" transform="matrix(0,0.75,-0.1,0,21.7,34.250002)">
  <rect width="1" height="4" x="24" y="53" transform="matrix(0,-10,1.3333333,0,-61.666667,257)" style="opacity:0.001"/>
  <path d="m 9,7 v 10 h 4 V 7 Z" style="fill:#8f939d"/>
 </g>
 <rect id="sunken-slider-center" width="1" height="10" x="20" y="52" style="fill:#5294e2"/>
 <g id="sunken-slider-right" transform="matrix(0.75,0,0,1,15.25,45.000002)">
  <path d="m 9,7 v 10 h 4 V 7 Z" style="fill:#5294e2"/>
  <rect width="1" height="10" x="29" y="64" transform="matrix(1.3333333,0,0,1,-25.666667,-57)" style="opacity:0.001"/>
 </g>
 <g id="sunken-slider-topright" transform="matrix(0.75,0,0,0.75,15.25,45.750002)">
  <rect width="4" height="4" x="26" y="59" transform="matrix(1.3333333,0,0,1.3333333,-25.666667,-77)" style="opacity:0.001"/>
  <path d="m 9,3 v 4 h 4 C 13,4.784 11.216,3 9,3 Z" style="fill:#5294e2"/>
 </g>
 <g id="sunken-slider-bottomright" transform="matrix(0.75,0,0,0.75,15.25,50.250002)">
  <rect width="4" height="4" x="26" y="75" transform="matrix(1.3333333,0,0,1.3333333,-25.666667,-83)" style="opacity:0.001"/>
  <path d="m 9,21 v -4 h 4 c 0,2.216 -1.784,4 -4,4 z" style="fill:#5294e2"/>
 </g>
 <g id="sunken-slider-left" transform="matrix(-0.75,0,0,1,25.75,45.000002)">
  <path d="m 9,7 v 10 h 4 V 7 Z" style="fill:#5294e2"/>
  <rect width="1" height="10" x="19" y="64" transform="matrix(-1.3333333,0,0,1,39.666667,-57)" style="opacity:0.001"/>
 </g>
 <g id="sunken-slider-topleft" transform="matrix(-0.75,0,0,0.75,25.75,45.750002)">
  <rect width="4" height="4" x="19" y="59" transform="matrix(-1.3333333,0,0,1.3333333,39.666667,-77)" style="opacity:0.001"/>
  <path d="m 9,3 v 4 h 4 C 13,4.784 11.216,3 9,3 Z" style="fill:#5294e2"/>
 </g>
 <g id="sunken-slider-bottomleft" transform="matrix(-0.75,0,0,0.75,25.75,50.250002)">
  <rect width="4" height="4" x="19" y="75" transform="matrix(-1.3333333,0,0,1.3333333,39.666667,-83)" style="opacity:0.001"/>
  <path d="m 9,21 v -4 h 4 c 0,2.216 -1.784,4 -4,4 z" style="fill:#5294e2"/>
 </g>
 <g id="sunken-slider-top" transform="matrix(0,-0.75,-0.1,0,21.7,57.750002)">
  <rect width="1" height="4" x="24" y="59" transform="matrix(0,-10,-1.3333333,0,93,257)" style="opacity:0.001"/>
  <path d="m 9,7 v 10 h 4 V 7 Z" style="fill:#5294e2"/>
 </g>
 <g id="sunken-slider-bottom" transform="matrix(0,0.75,-0.1,0,21.7,56.250002)">
  <rect width="1" height="4" x="24" y="75" transform="matrix(0,-10,1.3333333,0,-91,257)" style="opacity:0.001"/>
  <path d="m 9,7 v 10 h 4 V 7 Z" style="fill:#5294e2"/>
 </g>
 <rect id="background-horizontal-center" width="1" height="10" x="34" y="30" style="fill:#3e434f"/>
 <g id="background-horizontal-right" transform="matrix(0.75,0,0,1,29.25,23.000002)">
  <path d="m 9,7 v 10 h 4 V 7 Z" style="fill:#3e434f"/>
  <rect width="1" height="10" x="43" y="42" transform="matrix(1.3333333,0,0,1,-44.333333,-35)" style="opacity:0.001"/>
 </g>
 <g id="background-horizontal-topright" transform="matrix(0.75,0,0,0.75,29.25,23.750002)">
  <rect width="4" height="4" x="40" y="37" transform="matrix(1.3333333,0,0,1.3333333,-44.333333,-47.666667)" style="opacity:0.001"/>
  <path d="m 9,3 v 4 h 4 C 13,4.784 11.216,3 9,3 Z" style="fill:#3e434f"/>
 </g>
 <g id="background-horizontal-bottomright" transform="matrix(0.75,0,0,0.75,29.25,28.250002)">
  <rect width="4" height="4" x="40" y="53" transform="matrix(1.3333333,0,0,1.3333333,-44.333333,-53.666667)" style="opacity:0.001"/>
  <path d="m 9,21 v -4 h 4 c 0,2.216 -1.784,4 -4,4 z" style="fill:#3e434f"/>
 </g>
 <g id="background-horizontal-left" transform="matrix(-0.75,0,0,1,39.75,23.000002)">
  <path d="m 9,7 v 10 h 4 V 7 Z" style="fill:#3e434f"/>
  <rect width="1" height="10" x="33" y="42" transform="matrix(-1.3333333,0,0,1,58.333333,-35)" style="opacity:0.001"/>
 </g>
 <g id="background-horizontal-topleft" transform="matrix(-0.75,0,0,0.75,39.75,23.750002)">
  <rect width="4" height="4" x="33" y="37" transform="matrix(-1.3333333,0,0,1.3333333,58.333333,-47.666667)" style="opacity:0.001"/>
  <path d="m 9,3 v 4 h 4 C 13,4.784 11.216,3 9,3 Z" style="fill:#3e434f"/>
 </g>
 <g id="background-horizontal-bottomleft" transform="matrix(-0.75,0,0,0.75,39.75,28.250002)">
  <rect width="4" height="4" x="33" y="53" transform="matrix(-1.3333333,0,0,1.3333333,58.333333,-53.666667)" style="opacity:0.001"/>
  <path d="m 9,21 v -4 h 4 c 0,2.216 -1.784,4 -4,4 z" style="fill:#3e434f"/>
 </g>
 <g id="background-horizontal-top" transform="matrix(0,-0.75,-0.1,0,35.7,35.750002)">
  <rect width="1" height="4" x="38" y="37" transform="matrix(0,-10,-1.3333333,0,63.666667,397)" style="opacity:0.001"/>
  <path d="m 9,7 v 10 h 4 V 7 Z" style="fill:#3e434f"/>
 </g>
 <g id="background-horizontal-bottom" transform="matrix(0,0.75,-0.1,0,35.7,34.250002)">
  <rect width="1" height="4" x="38" y="53" transform="matrix(0,-10,1.3333333,0,-61.666667,397)" style="opacity:0.001"/>
  <path d="m 9,7 v 10 h 4 V 7 Z" style="fill:#3e434f"/>
 </g>
</svg>
