<svg xmlns="http://www.w3.org/2000/svg" width="128" height="128" version="1">
 <path id="groove-top" style="opacity:0.2" d="m 10,7 0,3 3,0 0,-3 -3,0 z"/>
 <rect id="hint-tile-center" style="fill:#4e9a06" width="2.033" height="2.077" x="2.26" y="4.66" rx="0" ry="2.077"/>
 <path id="groove-bottom" style="opacity:0.2" d="m 10,18 0,-3 3,0 0,3 -3,0 z"/>
 <path id="groove-center" style="opacity:0.2" d="m 10,11 0,3 3,0 0,-3 -3,0 z"/>
 <path id="groove-highlight-top" style="fill:#5294e2" d="m 28,7 0,3 3,0 0,-3 -3,0 z"/>
 <path id="groove-highlight-bottom" style="fill:#5294e2" d="m 28,18 0,-3 3,0 0,3 -3,0 z"/>
 <path id="groove-highlight-center" style="fill:#5294e2" d="m 28,11 0,3 3,0 0,-3 -3,0 z"/>
 <g id="horizontal-slider-handle" transform="matrix(1.2,0,0,1.2,-2.2,63.2)">
  <path style="opacity:0.001" transform="matrix(0.83333333,0,0,0.83333333,-5.6666667,-6)" d="M 16,44 H 36 V 64 H 16 Z"/>
  <path style="fill:#272a33" transform="matrix(2.0833333,0,0,2.0833333,-13.166666,-44.333332)" d="m 18,40 a 4,4 0 0 1 -4,4 4,4 0 0 1 -4,-4 4,4 0 0 1 4,-4 4,4 0 0 1 4,4 z"/>
  <path style="fill:#444a58" transform="matrix(1.875,0,0,1.875,-10.25,-36)" d="m 18,40 a 4,4 0 0 1 -4,4 4,4 0 0 1 -4,-4 4,4 0 0 1 4,-4 4,4 0 0 1 4,4 z"/>
 </g>
 <g id="vertical-slider-handle" transform="matrix(1.2,0,0,1.2,-2.2,27.2)">
  <path style="opacity:0.001" transform="matrix(0.83333333,0,0,0.83333333,-5.6666667,-6)" d="M 16,44 H 36 V 64 H 16 Z"/>
  <path style="fill:#272a33" transform="matrix(2.0833333,0,0,2.0833333,-13.166666,-44.333332)" d="m 18,40 a 4,4 0 0 1 -4,4 4,4 0 0 1 -4,-4 4,4 0 0 1 4,-4 4,4 0 0 1 4,4 z"/>
  <path style="fill:#444a58" transform="matrix(1.875,0,0,1.875,-10.25,-36)" d="m 18,40 a 4,4 0 0 1 -4,4 4,4 0 0 1 -4,-4 4,4 0 0 1 4,-4 4,4 0 0 1 4,4 z"/>
 </g>
 <g id="horizontal-slider-shadow" style="opacity:0.01">
  <path style="opacity:0.001" d="m 98,100 h 20 v 20 H 98 Z"/>
 </g>
 <g id="vertical-slider-shadow" style="opacity:0.01" transform="translate(3,-36)">
  <path style="opacity:0.001" d="m 98,100 h 20 v 20 H 98 Z"/>
 </g>
 <g id="horizontal-slider-hover" transform="matrix(1.2,0,0,1.2,27.8,63.2)">
  <path style="opacity:0.001" transform="matrix(0.83333333,0,0,0.83333333,-5.6666667,-6)" d="M 16,44 H 36 V 64 H 16 Z"/>
  <circle style="fill:#272a33" cx="14" cy="40" r="4" transform="matrix(2.0833333,0,0,2.0833333,-13.166666,-44.333332)"/>
  <circle style="fill:#414857" cx="14" cy="40" r="4" transform="matrix(1.875,0,0,1.875,-10.25,-36)"/>
 </g>
 <g id="vertical-slider-hover" transform="matrix(1.2,0,0,1.2,27.8,27.2)">
  <path style="opacity:0.001" transform="matrix(0.83333333,0,0,0.83333333,-5.6666667,-6)" d="M 16,44 H 36 V 64 H 16 Z"/>
  <circle style="fill:#272a33" cx="14" cy="40" r="4" transform="matrix(2.0833333,0,0,2.0833333,-13.166666,-44.333332)"/>
  <circle style="fill:#414857" cx="14" cy="40" r="4" transform="matrix(1.875,0,0,1.875,-10.25,-36)"/>
 </g>
 <g id="horizontal-slider-focus" transform="matrix(1.2,0,0,1.2,57.8,63.2)">
  <path style="opacity:0.001" transform="matrix(0.83333333,0,0,0.83333333,-5.6666667,-6)" d="M 16,44 H 36 V 64 H 16 Z"/>
  <circle style="fill:#5294e2" cx="14" cy="40" r="4" transform="matrix(2.0833333,0,0,2.0833333,-13.166666,-44.333332)"/>
 </g>
 <g id="vertical-slider-focus" transform="matrix(1.2,0,0,1.2,57.8,27.2)">
  <path style="opacity:0.001" transform="matrix(0.83333333,0,0,0.83333333,-5.6666667,-6)" d="M 16,44 H 36 V 64 H 16 Z"/>
  <circle style="fill:#5294e2" cx="14" cy="40" r="4" transform="matrix(2.0833333,0,0,2.0833333,-13.166666,-44.333332)"/>
 </g>
 <circle id="hint-size" style="fill:#ff0000" cx="87" cy="16" r="10"/>
 <g id="groove-topleft" transform="translate(0,14)">
  <path style="opacity:0.2" d="M 9,-7 C 7.31784,-7 6,-5.68216 6,-4 H 9 Z"/>
 </g>
 <g id="groove-left" transform="translate(0,14)">
  <path style="opacity:0.2" d="M 6,-3 V 0 H 9 V -3 Z"/>
 </g>
 <g id="groove-bottomleft" transform="translate(0,14)">
  <path style="opacity:0.2" d="M 9,4 C 7.31784,4 6,2.68216 6,1 h 3 z"/>
 </g>
 <g id="groove-topright" transform="translate(0,14)">
  <path style="opacity:0.2" d="m 17,-4 c 0,-1.68216 -1.31784,-3 -3,-3 v 3 z"/>
 </g>
 <g id="groove-right" transform="translate(0,14)">
  <path style="opacity:0.2" d="m 14,-3 v 3 h 3 v -3 z"/>
 </g>
 <g id="groove-bottomright" transform="translate(0,14)">
  <path style="opacity:0.2" d="m 17,1 c 0,1.68216 -1.31784,3 -3,3 V 1 Z"/>
 </g>
 <g id="groove-highlight-topleft" transform="translate(0,14)">
  <path style="fill:#5294e2" d="m 27,-7 c -1.68216,0 -3,1.31784 -3,3 h 3 z"/>
 </g>
 <g id="groove-highlight-left" transform="translate(0,14)">
  <path style="fill:#5294e2" d="m 24,-3 v 3 h 3 v -3 z"/>
 </g>
 <g id="groove-highlight-bottomleft" transform="translate(0,14)">
  <path style="fill:#5294e2" d="M 27,4 C 25.31784,4 24,2.68216 24,1 h 3 z"/>
 </g>
 <g id="groove-highlight-topright" transform="translate(0,14)">
  <path style="fill:#5294e2" d="m 35,-4 c 0,-1.68216 -1.31784,-3 -3,-3 v 3 z"/>
 </g>
 <g id="groove-highlight-right" transform="translate(0,14)">
  <path style="fill:#5294e2" d="m 32,-3 v 3 h 3 v -3 z"/>
 </g>
 <g id="groove-highlight-bottomright" transform="translate(0,14)">
  <path style="fill:#5294e2" d="m 35,1 c 0,1.68216 -1.31784,3 -3,3 V 1 Z"/>
 </g>
</svg>
