<svg xmlns="http://www.w3.org/2000/svg"  width="280" height="240" version="1.1">
 <g id="south-active-tab-top" transform="rotate(-90,148.00109,141.0011)">
  <rect style="opacity:0.001"  width="4" height="80" x="65" y="69"/>
  <path d="m 68,69 v 80 H 65 V 69 Z" style="fill:#5294e2" />
 </g>
 <g id="east-active-tab-left" transform="matrix(-1,0,0,1,273.00021,-2.997811)">
  <rect style="opacity:0.001"  width="4" height="80" x="65" y="69"/>
  <path d="m 68,69 v 80 H 65 V 69 Z" style="fill:#5294e2" />
 </g>
 <g id="north-active-tab-bottom" transform="rotate(90,139.99888,92.001105)">
  <rect style="opacity:0.001"  width="4" height="80" x="65" y="69"/>
  <path d="m 68,69 v 80 H 65 V 69 Z" style="fill:#5294e2" />
 </g>
 <g id="west-active-tab-right" transform="translate(-47.99779,-2.9978)">
  <rect style="opacity:0.001"  width="4" height="80" x="65" y="69"/>
  <path d="m 68,69 v 80 H 65 V 69 Z" style="fill:#5294e2" />
 </g>
 <rect id="hint-tile-center" width="40" height="40" x="240" y="200" style="fill:#008000"/>
 <g id="south-active-tab-topleft" transform="translate(36.00001,-138.36)">
  <path  style="opacity:0.00100002" d="m 30,358.36 h 10 v 3.99999 H 30 Z"/>
  <path d="m 39.999989,359.36221 v 2.99998 c -5.999999,10e-6 -6.999999,10e-6 -7,-1.49999 10e-7,-1.5 1.000001,-1.5 7,-1.49999 z" style="fill:#5294e2" />
 </g>
 <g id="south-active-tab-topright" transform="translate(36.00001,-138.36)">
  <path  style="opacity:0.00100002" d="m 120,358.36 h 10 v 3.99999 h -10 z"/>
  <path d="m 119.99999,359.36221 c 6,-1e-5 7,-1e-5 7,1.49999 0,1.5 -1,1.5 -7,1.49999 z" style="fill:#5294e2" />
 </g>
 <rect id="south-active-tab-left" width="10" height="12" x="66" y="224" style="opacity:0.001"/>
 <rect id="south-active-tab-center" width="80" height="12" x="76" y="224" style="opacity:0.001"/>
 <rect id="south-active-tab-right" width="10" height="12" x="156" y="224" style="opacity:0.001"/>
 <rect id="south-active-tab-bottomright" width="10" height="4" x="156" y="236" style="opacity:0.001"/>
 <rect id="south-active-tab-bottom" width="80" height="4" x="76" y="236" style="opacity:0.001"/>
 <rect id="south-active-tab-bottomleft" width="10" height="4" x="66" y="236" style="opacity:0.001"/>
 <rect id="south-active-tab-hint-left-margin" width="6" height="5" x="66" y="227" style="fill:#4e9a06"/>
 <rect id="south-active-tab-hint-right-margin" width="6" height="5" x="160" y="227" style="fill:#4e9a06"/>
 <rect id="south-active-tab-hint-top-margin" width="5" height="8" x="114" y="221" style="fill:#4e9a06"/>
 <rect id="south-active-tab-hint-bottom-margin" width="5" height="4" x="114" y="236" style="fill:#4e9a06"/>
 <rect id="east-active-tab-bottom" width="10" height="12" x="-155.7" y="209" transform="rotate(-90)" style="opacity:0.001"/>
 <rect id="east-active-tab-center" width="80" height="12" x="-145.7" y="209" transform="rotate(-90)" style="opacity:0.001"/>
 <rect id="east-active-tab-top" width="10" height="12" x="-65.7" y="209" transform="rotate(-90)" style="opacity:0.001"/>
 <rect id="east-active-tab-topright" width="10" height="4" x="-65.7" y="221" transform="rotate(-90)" style="opacity:0.001"/>
 <rect id="east-active-tab-right" width="80" height="4" x="-145.7" y="221" transform="rotate(-90)" style="opacity:0.001"/>
 <rect id="east-active-tab-bottomright" width="10" height="4" x="-155.7" y="221" transform="rotate(-90)" style="opacity:0.001"/>
 <rect id="east-active-tab-hint-bottom-margin" width="6" height="5" x="-156" y="212" transform="rotate(-90)" style="fill:#4e9a06"/>
 <rect id="east-active-tab-hint-top-margin" width="6" height="5" x="-62" y="212" transform="rotate(-90)" style="fill:#4e9a06"/>
 <rect id="east-active-tab-hint-left-margin" width="5" height="8" x="-102" y="205" transform="rotate(-90)" style="fill:#4e9a06"/>
 <rect id="east-active-tab-hint-right-margin" width="5" height="4" x="-102" y="221" transform="rotate(-90)" style="fill:#4e9a06"/>
 <rect id="west-active-tab-top" width="10" height="12" x="56" y="-16" transform="rotate(90)" style="opacity:0.001"/>
 <rect id="west-active-tab-center" width="80" height="12" x="66" y="-16" transform="rotate(90)" style="opacity:0.001"/>
 <rect id="west-active-tab-bottom" width="10" height="12" x="146" y="-16" transform="rotate(90)" style="opacity:0.001"/>
 <rect id="west-active-tab-bottomleft" width="10" height="4" x="146" y="-4" transform="rotate(90)" style="opacity:0.001"/>
 <rect id="west-active-tab-left" width="80" height="4" x="66" y="-4" transform="rotate(90)" style="opacity:0.001"/>
 <rect id="west-active-tab-topleft" width="10" height="4" x="56" y="-4" transform="rotate(90)" style="opacity:0.001"/>
 <rect id="west-active-tab-hint-top-margin" width="6" height="5" x="56" y="-13" transform="rotate(90)" style="fill:#4e9a06"/>
 <rect id="west-active-tab-hint-bottom-margin" width="6" height="5" x="150" y="-13" transform="rotate(90)" style="fill:#4e9a06"/>
 <g id="west-active-tab-topright" transform="rotate(90,176.68,202.6822)">
  <path  style="opacity:0.00100002" d="m 30,358.3622 h 10 v 3.99779 H 30 Z"/>
  <path d="m 39.999989,359.36221 v 2.99998 c -5.999986,0 -6.999986,0 -7,-1.5 1.4e-5,-1.5 1.000014,-1.5 7,-1.49998 z" style="fill:#5294e2" />
 </g>
 <g id="west-active-tab-bottomright" transform="rotate(90,176.68,202.6822)">
  <path  style="opacity:0.00100002" d="m 120,358.3622 h 10 v 3.99779 h -10 z"/>
  <path d="m 119.99999,359.36221 c 6.00001,-2e-5 7.00001,-2e-5 7,1.49998 1e-5,1.5 -0.99999,1.5 -7,1.5 z" style="fill:#5294e2" />
 </g>
 <rect id="west-active-tab-hint-right-margin" width="5" height="8" x="97" y="-20" transform="rotate(90)" style="fill:#4e9a06"/>
 <rect id="west-active-tab-hint-left-margin" width="5" height="4" x="97" y="-4" transform="rotate(90)" style="fill:#4e9a06"/>
 <rect id="north-active-tab-right" width="10" height="12" x="-173" y="-16" transform="scale(-1)" style="opacity:0.001"/>
 <rect id="north-active-tab-center" width="80" height="12" x="-163" y="-16" transform="scale(-1)" style="opacity:0.001"/>
 <rect id="north-active-tab-left" width="10" height="12" x="-83" y="-16" transform="scale(-1)" style="opacity:0.001"/>
 <rect id="north-active-tab-topleft" width="10" height="4" x="-83" y="-4" transform="scale(-1)" style="opacity:0.001"/>
 <rect id="north-active-tab-top" width="80" height="4" x="-163" y="-4" transform="scale(-1)" style="opacity:0.001"/>
 <rect id="north-active-tab-topright" width="10" height="4" x="-173" y="-4" transform="scale(-1)" style="opacity:0.001"/>
 <rect id="north-focus-hint-right-margin" width="6" height="5" x="-173" y="-13" transform="scale(-1)" style="fill:#4e9a06"/>
 <rect id="north-focus-hint-left-margin" width="6" height="5" x="-79" y="-13" transform="scale(-1)" style="fill:#4e9a06"/>
 <rect id="north-focus-hint-bottom-margin" width="5" height="8" x="-119" y="-20" transform="scale(-1)" style="fill:#4e9a06"/>
 <rect id="north-focus-hint-top-margin" width="5" height="4" x="-119" y="-4" transform="scale(-1)" style="fill:#4e9a06"/>
 <g id="north-active-tab-bottomleft" transform="translate(43,-342.35999)">
  <path  style="opacity:0.00100002" d="m 30,359.35999 h 10 v 3.99999 H 30 Z"/>
  <path d="m 39.999989,359.36221 v 2.99998 c -5.999989,0 -6.999989,0 -7,-1.5 1.1e-5,-1.5 1.000011,-1.5 7,-1.49998 z" style="fill:#5294e2" />
 </g>
 <g id="north-active-tab-bottomright" transform="translate(-200,-210.35998)">
  <rect width="10" height="3" x="363" y="227.36" style="opacity:0.001" />
  <path  style="opacity:0.00100002" d="m 363,227.36 h 10 v 3.99999 h -10 z"/>
  <path d="m 363,227.36221 c 6,-3e-5 7,-3e-5 7,1.49997 0,1.5 -1,1.5 -7,1.50001 z" style="fill:#5294e2" />
 </g>
 <g id="east-active-tab-topleft" transform="rotate(90,270.68011,296.68231)">
  <path  style="opacity:0.00100002" d="m 30,359.35999 h 10 v 4.00243 H 30 Z"/>
  <path d="m 39.999989,359.36221 v 2.99998 c -6.001305,0.004 -6.984937,-0.0268 -7,-1.585 0.01508,-1.37656 1.030139,-1.42762 7,-1.41498 z" style="fill:#5294e2" />
 </g>
 <g id="east-active-tab-bottomleft" transform="rotate(90,270.68011,296.68231)">
  <path  style="opacity:0.00100002" d="m 120,359.35999 h 10 v 4.00243 h -10 z"/>
  <path d="m 119.99999,359.36221 c 6.02053,0.003 7,0.0106 7,1.41498 -0.004,1.56832 -1.00957,1.56994 -7,1.585 z" style="fill:#5294e2" />
 </g>
</svg>
