<svg xmlns="http://www.w3.org/2000/svg" id="svg2" width="144" height="126" version="1" viewBox="0 0 144 126">
 <defs id="null">
  <filter id="filter7986-7-9-7-4-0" width="1" height="1" x="0" y="0" style="color-interpolation-filters:sRGB">
   <feTurbulence id="feTurbulence7988-54-9-1-4-1" baseFrequency=".03" numOctaves="5" result="result1" seed="0" type="fractalNoise"/>
   <feDisplacementMap id="feDisplacementMap7990-3-05-6-7-0" in="SourceGraphic" in2="result1" result="result3" scale="7" xChannelSelector="R" yChannelSelector="G"/>
   <feComposite id="feComposite7992-2-08-7-23-6" in="result3" in2="result1" operator="in" result="result4"/>
   <feGaussianBlur id="feGaussianBlur7994-4-0-9-1-96" in="result4" result="result8" stdDeviation=".7"/>
   <feConvolveMatrix id="feConvolveMatrix7996-8-8-2-4-6" bias="0" divisor="1" in="result8" kernelMatrix="1 1 1 1 -8 1 1 1 1" order="3 3" preserveAlpha="true" result="result0" targetX="1" targetY="1"/>
   <feColorMatrix id="feColorMatrix7998-9-71-3-3-3" in="result0" result="result1" type="luminanceToAlpha" values="1"/>
   <feComposite id="feComposite8000-2-2-2-4-88" in2="result1" k1="0" k2="5" k3="0" k4="0" operator="arithmetic" result="result11"/>
   <feGaussianBlur id="feGaussianBlur8002-70-11-4-0-82" in="result11" result="result7" stdDeviation=".5"/>
   <feColorMatrix id="feColorMatrix8004-7-4-2-5-1" result="result9" values="1 0 0 0 0 0 1 0 0 0 0 0 1 0 0 0 0 0 3 0"/>
   <feFlood id="feFlood8006-4-9-1-7-8" flood-color="#9D5728" flood-opacity="1" in="result9" result="result10"/>
   <feComposite id="feComposite8008-1-2-8-6-95" in="result10" in2="result9" operator="in" result="result12"/>
   <feComposite id="feComposite8010-6-2-1-8-17" in2="SourceGraphic" operator="in"/>
  </filter>
  <filter id="filter7986-7-9-7-4-1-5" width="1" height="1" x="0" y="0" style="color-interpolation-filters:sRGB">
   <feTurbulence id="feTurbulence7988-54-9-1-4-6-0" baseFrequency=".03" numOctaves="5" result="result1" seed="0" type="fractalNoise"/>
   <feDisplacementMap id="feDisplacementMap7990-3-05-6-7-3-0" in="SourceGraphic" in2="result1" result="result3" scale="7" xChannelSelector="R" yChannelSelector="G"/>
   <feComposite id="feComposite7992-2-08-7-23-0-6" in="result3" in2="result1" operator="in" result="result4"/>
   <feGaussianBlur id="feGaussianBlur7994-4-0-9-1-87-8" in="result4" result="result8" stdDeviation=".7"/>
   <feConvolveMatrix id="feConvolveMatrix7996-8-8-2-4-4-7" bias="0" divisor="1" in="result8" kernelMatrix="1 1 1 1 -8 1 1 1 1" order="3 3" preserveAlpha="true" result="result0" targetX="1" targetY="1"/>
   <feColorMatrix id="feColorMatrix7998-9-71-3-3-40-3" in="result0" result="result1" type="luminanceToAlpha" values="1"/>
   <feComposite id="feComposite8000-2-2-2-4-52-1" in2="result1" k1="0" k2="5" k3="0" k4="0" operator="arithmetic" result="result11"/>
   <feGaussianBlur id="feGaussianBlur8002-70-11-4-0-07-2" in="result11" result="result7" stdDeviation=".5"/>
   <feColorMatrix id="feColorMatrix8004-7-4-2-5-7-2" result="result9" values="1 0 0 0 0 0 1 0 0 0 0 0 1 0 0 0 0 0 3 0"/>
   <feFlood id="feFlood8006-4-9-1-7-9-1" flood-color="#9D5728" flood-opacity="1" in="result9" result="result10"/>
   <feComposite id="feComposite8008-1-2-8-6-7-3" in="result10" in2="result9" operator="in" result="result12"/>
   <feComposite id="feComposite8010-6-2-1-8-4-6" in2="SourceGraphic" operator="in"/>
  </filter>
  <filter id="filter7986-7-9-7-4-2-6" width="1" height="1" x="0" y="0" style="color-interpolation-filters:sRGB">
   <feTurbulence id="feTurbulence7988-54-9-1-4-9-4" baseFrequency=".03" numOctaves="5" result="result1" seed="0" type="fractalNoise"/>
   <feDisplacementMap id="feDisplacementMap7990-3-05-6-7-78-0" in="SourceGraphic" in2="result1" result="result3" scale="7" xChannelSelector="R" yChannelSelector="G"/>
   <feComposite id="feComposite7992-2-08-7-23-23-1" in="result3" in2="result1" operator="in" result="result4"/>
   <feGaussianBlur id="feGaussianBlur7994-4-0-9-1-9-2" in="result4" result="result8" stdDeviation=".7"/>
   <feConvolveMatrix id="feConvolveMatrix7996-8-8-2-4-0-0" bias="0" divisor="1" in="result8" kernelMatrix="1 1 1 1 -8 1 1 1 1" order="3 3" preserveAlpha="true" result="result0" targetX="1" targetY="1"/>
   <feColorMatrix id="feColorMatrix7998-9-71-3-3-53-5" in="result0" result="result1" type="luminanceToAlpha" values="1"/>
   <feComposite id="feComposite8000-2-2-2-4-75-4" in2="result1" k1="0" k2="5" k3="0" k4="0" operator="arithmetic" result="result11"/>
   <feGaussianBlur id="feGaussianBlur8002-70-11-4-0-0-2" in="result11" result="result7" stdDeviation=".5"/>
   <feColorMatrix id="feColorMatrix8004-7-4-2-5-55-8" result="result9" values="1 0 0 0 0 0 1 0 0 0 0 0 1 0 0 0 0 0 3 0"/>
   <feFlood id="feFlood8006-4-9-1-7-4-7" flood-color="#9D5728" flood-opacity="1" in="result9" result="result10"/>
   <feComposite id="feComposite8008-1-2-8-6-1-2" in="result10" in2="result9" operator="in" result="result12"/>
   <feComposite id="feComposite8010-6-2-1-8-5-2" in2="SourceGraphic" operator="in"/>
  </filter>
  <filter id="filter7986-7-9-7-4-5-5" width="1" height="1" x="0" y="0" style="color-interpolation-filters:sRGB">
   <feTurbulence id="feTurbulence7988-54-9-1-4-03-1" baseFrequency=".03" numOctaves="5" result="result1" seed="0" type="fractalNoise"/>
   <feDisplacementMap id="feDisplacementMap7990-3-05-6-7-79-5" in="SourceGraphic" in2="result1" result="result3" scale="7" xChannelSelector="R" yChannelSelector="G"/>
   <feComposite id="feComposite7992-2-08-7-23-7-9" in="result3" in2="result1" operator="in" result="result4"/>
   <feGaussianBlur id="feGaussianBlur7994-4-0-9-1-8-1" in="result4" result="result8" stdDeviation=".7"/>
   <feConvolveMatrix id="feConvolveMatrix7996-8-8-2-4-82-2" bias="0" divisor="1" in="result8" kernelMatrix="1 1 1 1 -8 1 1 1 1" order="3 3" preserveAlpha="true" result="result0" targetX="1" targetY="1"/>
   <feColorMatrix id="feColorMatrix7998-9-71-3-3-4-9" in="result0" result="result1" type="luminanceToAlpha" values="1"/>
   <feComposite id="feComposite8000-2-2-2-4-8-1" in2="result1" k1="0" k2="5" k3="0" k4="0" operator="arithmetic" result="result11"/>
   <feGaussianBlur id="feGaussianBlur8002-70-11-4-0-97-0" in="result11" result="result7" stdDeviation=".5"/>
   <feColorMatrix id="feColorMatrix8004-7-4-2-5-5-9" result="result9" values="1 0 0 0 0 0 1 0 0 0 0 0 1 0 0 0 0 0 3 0"/>
   <feFlood id="feFlood8006-4-9-1-7-38-0" flood-color="#9D5728" flood-opacity="1" in="result9" result="result10"/>
   <feComposite id="feComposite8008-1-2-8-6-85-5" in="result10" in2="result9" operator="in" result="result12"/>
   <feComposite id="feComposite8010-6-2-1-8-29-05" in2="SourceGraphic" operator="in"/>
  </filter>
 </defs>
 <g id="layer2" transform="translate(0,8)">
  <g id="focus-left" transform="matrix(-1,0,0,-1,36,42)">
   <rect id="rect4945-9-2-4" width="2" height="13" x="31" y="12" style="opacity:0.07;fill:#ffffff;fill-opacity:1;stroke:none"/>
   <rect id="rect4949-9-2-9" width="1" height="13" x="33" y="12" style="opacity:0.07;fill:#ffffff;fill-opacity:1;stroke:none"/>
   <rect id="rect4951-3-2-7" width="1" height="13" x="34" y="12" style="opacity:1;fill:none;fill-opacity:1;stroke:none"/>
  </g>
  <g id="focus-right" transform="translate(0,5)">
   <rect id="rect4945-8-1" width="2" height="13" x="31" y="12" style="opacity:0.07;fill:#ffffff;fill-opacity:1;stroke:none"/>
   <rect id="rect4949-5-5" width="1" height="13" x="33" y="12" style="opacity:0.07;fill:#ffffff;fill-opacity:1;stroke:none"/>
   <rect id="rect4951-5-3" width="1" height="13" x="34" y="12" style="opacity:1;fill:none;fill-opacity:1;stroke:none"/>
  </g>
  <g id="focus-center" transform="matrix(0.96296296,0,0,1,0.1851852,12.9)">
   <rect id="rect4957-0-5" width="27" height="13" x="5" y="4.1" style="color:#3daee9;opacity:0.07;fill:#ffffff;fill-opacity:1;stroke:none"/>
  </g>
  <g id="focus-top" transform="matrix(1,0,0,-1,0,43)">
   <rect id="rect4997-3-9" width="26" height="2" x="5" y="-28" transform="scale(1,-1)" style="opacity:0.07;fill:#ffffff;fill-opacity:1;stroke:none"/>
   <rect id="rect4999-2-9" width="26" height="1" x="5" y="-29" transform="scale(1,-1)" style="opacity:0.07;fill:#ffffff;fill-opacity:1;stroke:none"/>
  </g>
  <g id="focus-topleft" transform="matrix(0,-1,-1,0,23,48)">
   <rect id="rect4369-7-5-09-7-4" width="3" height="1" x="31" y="21" style="opacity:1;fill:none;fill-opacity:1;stroke:none"/>
   <rect id="rect5003-5-7-5" width="2" height="2" x="31" y="18" style="opacity:0.07;fill:#ffffff;fill-opacity:1;stroke:none"/>
   <path id="rect5015-0-5-7" d="m 31,21 0,-1 2,0 0,-2 1,0 0,2 c 0,1 -1,1 -1,1 l -2,0 z" style="opacity:0.07;fill:#ffffff;fill-opacity:1;stroke:none"/>
  </g>
  <g id="focus-topright" transform="matrix(1,0,0,-1,0,35)">
   <rect id="rect4369-7-5-0-18-3" width="1" height="3" x="34" y="-21" transform="scale(1,-1)" style="opacity:1;fill:none;fill-opacity:1;stroke:none"/>
   <rect id="rect5003-7-6" width="2" height="2" x="31" y="18" style="opacity:0.07;fill:#ffffff;fill-opacity:1;stroke:none"/>
   <path id="rect5015-1-3" d="m 31,21 0,-1 2,0 0,-2 1,0 0,2 c 0,1 -1,1 -1,1 l -2,0 z" style="opacity:0.07;fill:#ffffff;fill-opacity:1;stroke:none"/>
  </g>
  <g id="hover-left" transform="matrix(-1,0,0,-1,36,84)">
   <rect id="rect4945-9-2-49" width="2" height="13" x="31" y="12" style="opacity:0.07;fill:#ffffff;fill-opacity:1;stroke:none"/>
   <rect id="rect4949-9-2-7" width="1" height="13" x="33" y="12" style="opacity:0.07;fill:#ffffff;fill-opacity:1;stroke:none"/>
   <rect id="rect4951-3-2-72" width="1" height="13" x="34" y="12" style="opacity:1;fill:none;fill-opacity:1;stroke:none"/>
  </g>
  <g id="hover-right" transform="translate(0,47)">
   <rect id="rect4945-8-19" width="2" height="13" x="31" y="12" style="opacity:0.07;fill:#ffffff;fill-opacity:1;stroke:none"/>
   <rect id="rect4949-5-50" width="1" height="13" x="33" y="12" style="opacity:0.07;fill:#ffffff;fill-opacity:1;stroke:none"/>
   <rect id="rect4951-5-6" width="1" height="13" x="34" y="12" style="opacity:1;fill:none;fill-opacity:1;stroke:none"/>
  </g>
  <g id="hover-center" transform="matrix(0.96296296,0,0,1,0.1851852,54.9)">
   <rect id="rect4957-0-0" width="27" height="13" x="5" y="4.1" style="color:#3daee9;opacity:0.07;fill:#ffffff;fill-opacity:1;stroke:none"/>
  </g>
  <g id="hover-top" transform="matrix(1,0,0,-1,0,85)">
   <rect id="rect4997-3-95" width="26" height="2" x="5" y="-28" transform="scale(1,-1)" style="opacity:0.07;fill:#ffffff;fill-opacity:1;stroke:none"/>
   <rect id="rect4999-2-4" width="26" height="1" x="5" y="-29" transform="scale(1,-1)" style="opacity:0.07;fill:#ffffff;fill-opacity:1;stroke:none"/>
  </g>
  <g id="hover-topleft" transform="matrix(0,-1,-1,0,23,90)">
   <rect id="rect4369-7-5-09-7-47" width="3" height="1" x="31" y="21" style="opacity:1;fill:none;fill-opacity:1;stroke:none"/>
   <rect id="rect5003-5-7-4" width="2" height="2" x="31" y="18" style="opacity:0.07;fill:#ffffff;fill-opacity:1;stroke:none"/>
   <path id="rect5015-0-5-20" d="m 31,21 0,-1 2,0 0,-2 1,0 0,2 c 0,1 -1,1 -1,1 l -2,0 z" style="opacity:0.07;fill:#ffffff;fill-opacity:1;stroke:none"/>
  </g>
  <g id="hover-topright" transform="matrix(1,0,0,-1,0,77)">
   <rect id="rect4369-7-5-0-18-1" width="1" height="3" x="34" y="-21" transform="scale(1,-1)" style="opacity:1;fill:none;fill-opacity:1;stroke:none"/>
   <rect id="rect5003-7-7" width="2" height="2" x="31" y="18" style="opacity:0.07;fill:#ffffff;fill-opacity:1;stroke:none"/>
   <path id="rect5015-1-1" d="m 31,21 0,-1 2,0 0,-2 1,0 0,2 c 0,1 -1,1 -1,1 l -2,0 z" style="opacity:0.07;fill:#ffffff;fill-opacity:1;stroke:none"/>
  </g>
  <g id="attention-left" transform="matrix(-1,0,0,-1,36,105)">
   <rect id="rect4945-9-2-6" width="2" height="13" x="31" y="12" style="fill:#4877B1;fill-opacity:1;stroke:none;opacity:1"/>
   <rect id="rect4949-9-2-3" width="1" height="13" x="33" y="12" style="fill:#4877B1;fill-opacity:1;stroke:none"/>
   <rect id="rect4951-3-2-4" width="1" height="13" x="34" y="12" style="opacity:1;fill:none;fill-opacity:1;stroke:none"/>
  </g>
  <g id="attention-right" transform="translate(0,68)">
   <rect id="rect4945-8-0" width="2" height="13" x="31" y="12" style="fill:#4877B1;fill-opacity:1;stroke:none;opacity:1"/>
   <rect id="rect4949-5-3" width="1" height="13" x="33" y="12" style="fill:#4877B1;fill-opacity:1;stroke:none"/>
   <rect id="rect4951-5-0" width="1" height="13" x="34" y="12" style="opacity:1;fill:none;fill-opacity:1;stroke:none"/>
  </g>
  <g id="attention-center" transform="matrix(0.96296296,0,0,1,0.1851852,75.9)">
   <rect id="rect4957-0-9" width="27" height="13" x="5" y="4.1" style="opacity:1;fill:#4877B1;fill-opacity:1;stroke:none"/>
  </g>
  <g id="attention-top" transform="matrix(1,0,0,-1,0,106)">
   <rect id="rect4997-3-90" width="26" height="2" x="5" y="-28" transform="scale(1,-1)" style="fill:#4877B1;fill-opacity:1;stroke:none;opacity:1"/>
   <rect id="rect4999-2-8" width="26" height="1" x="5" y="-29" transform="scale(1,-1)" style="fill:#4877B1;fill-opacity:1;stroke:none"/>
  </g>
  <g id="attention-topleft" transform="matrix(0,-1,-1,0,23,111)">
   <rect id="rect4369-7-5-09-7-1" width="3" height="1" x="31" y="21" style="opacity:1;fill:none;fill-opacity:1;stroke:none"/>
   <rect id="rect5003-5-7-25" width="2" height="2" x="31" y="18" style="fill:#4877B1;fill-opacity:1;stroke:none;opacity:1"/>
   <path id="rect5015-0-5-4" d="m 31,21 0,-1 2,0 0,-2 1,0 0,2 c 0,1 -1,1 -1,1 l -2,0 z" style="fill:#4877B1;fill-opacity:1;stroke:none"/>
  </g>
  <g id="attention-topright" transform="matrix(1,0,0,-1,0,98)">
   <rect id="rect4369-7-5-0-18-9" width="1" height="3" x="34" y="-21" transform="scale(1,-1)" style="opacity:1;fill:none;fill-opacity:1;stroke:none"/>
   <rect id="rect5003-7-0" width="2" height="2" x="31" y="18" style="fill:#4877B1;fill-opacity:1;stroke:none;opacity:1"/>
   <path id="rect5015-1-2" d="m 31,21 0,-1 2,0 0,-2 1,0 0,2 c 0,1 -1,1 -1,1 l -2,0 z" style="fill:#4877B1;fill-opacity:1;stroke:none"/>
  </g>
  <g id="progress-left" transform="matrix(-1,0,0,-1,36,20.999999)">
   <rect id="rect4945-9-2-4-9" width="2" height="13" x="31" y="12" style="color:#3daee9;opacity:0;fill:#4877B1;fill-opacity:1;stroke:none"/>
   <rect id="rect4949-9-2-9-4" width="1" height="13" x="33" y="12" style="color:#3daee9;opacity:0;fill:#4877B1;fill-opacity:1;stroke:none"/>
   <rect id="rect4951-3-2-7-3" width="1" height="13" x="34" y="12" style="opacity:1;fill:none;fill-opacity:1;stroke:none"/>
  </g>
  <g id="progress-right" transform="translate(1e-7,-16.000001)">
   <rect id="rect4945-8-1-34" width="2" height="13" x="31" y="12" style="color:#3daee9;opacity:0;fill:#4877B1;fill-opacity:1;stroke:none"/>
   <rect id="rect4949-5-5-3" width="1" height="13" x="33" y="12" style="color:#3daee9;opacity:0;fill:#4877B1;fill-opacity:1;stroke:none"/>
   <rect id="rect4951-5-3-8" width="1" height="13" x="34" y="12" style="opacity:1;fill:none;fill-opacity:1;stroke:none"/>
  </g>
  <g id="progress-center" transform="matrix(0.96296296,0,0,1,0.1851852,-8.1)">
   <rect id="rect4957-0-5-1" width="27" height="13" x="5" y="4.1" style="color:#3daee9;opacity:0;fill:#4877B1;fill-opacity:1;stroke:none"/>
  </g>
  <g id="progress-top" transform="matrix(1,0,0,-1,1e-7,21.999999)">
   <rect id="rect4997-3-9-3" width="26" height="2" x="5" y="-28" transform="scale(1,-1)" style="color:#3daee9;opacity:0;fill:#4877B1;fill-opacity:1;stroke:none"/>
   <rect id="rect4999-2-9-8" width="26" height="1" x="5" y="-29" transform="scale(1,-1)" style="color:#3daee9;opacity:0;fill:#4877B1;fill-opacity:1;stroke:none"/>
  </g>
  <g id="progress-topleft" transform="matrix(0,-1,-1,0,23,27)">
   <rect id="rect4369-7-5-09-7-4-82" width="3" height="1" x="31" y="21" style="opacity:1;fill:none;fill-opacity:1;stroke:none"/>
   <rect id="rect5003-5-7-5-7" width="2" height="2" x="31" y="18" style="color:#3daee9;opacity:0;fill:#4877B1;fill-opacity:1;stroke:none"/>
   <path id="rect5015-0-5-7-0" d="m 31,21 0,-1 2,0 0,-2 1,0 0,2 c 0,1 -1,1 -1,1 l -2,0 z" style="color:#3daee9;opacity:0;fill:#4877B1;fill-opacity:1;stroke:none"/>
  </g>
  <g id="progress-topright" transform="matrix(1,0,0,-1,1e-7,13.999999)">
   <rect id="rect4369-7-5-0-18-3-4" width="1" height="3" x="34" y="-21" transform="scale(1,-1)" style="opacity:1;fill:none;fill-opacity:1;stroke:none"/>
   <rect id="rect5003-7-6-1" width="2" height="2" x="31" y="18" style="color:#3daee9;opacity:0;fill:#4877B1;fill-opacity:1;stroke:none"/>
   <path id="rect5015-1-3-6" d="m 31,21 0,-1 2,0 0,-2 1,0 0,2 c 0,1 -1,1 -1,1 l -2,0 z" style="color:#3daee9;opacity:0;fill:#4877B1;fill-opacity:1;stroke:none"/>
  </g>
  <g id="normal-left" transform="matrix(-1,0,0,-1,36,63)">
   <rect id="rect4921" width="2" height="13" x="31" y="12" style="color:#3daee9;opacity:0.07;fill:#ffffff;fill-opacity:1;stroke:none"/>
   <rect id="rect4923" width="1" height="13" x="33" y="12" style="color:#3daee9;opacity:0.07;fill:#ffffff;fill-opacity:1;stroke:none"/>
   <rect id="rect4925" width="1" height="13" x="34" y="12" style="opacity:1;fill:none;fill-opacity:1;stroke:none"/>
  </g>
  <g id="normal-right" transform="translate(0,26)">
   <rect id="rect4929" width="2" height="13" x="31" y="12" style="color:#3daee9;opacity:0.07;fill:#ffffff;fill-opacity:1;stroke:none"/>
   <rect id="rect4931" width="1" height="13" x="33" y="12" style="color:#3daee9;opacity:0.07;fill:#ffffff;fill-opacity:1;stroke:none"/>
   <rect id="rect4933" width="1" height="13" x="34" y="12" style="opacity:1;fill:none;fill-opacity:1;stroke:none"/>
  </g>
  <g id="normal-center" transform="matrix(0.96296296,0,0,1,0.1851852,33.9)">
   <rect id="rect4937" width="27" height="13" x="5" y="4.1" style="color:#3daee9;opacity:0.07;fill:#ffffff;fill-opacity:1;stroke:none"/>
  </g>
  <g id="normal-top" transform="matrix(1,0,0,-1,0,64)">
   <rect id="rect4941" width="26" height="2" x="5" y="-28" transform="scale(1,-1)" style="color:#3daee9;opacity:0.07;fill:#ffffff;fill-opacity:1;stroke:none"/>
   <rect id="rect4943" width="26" height="1" x="5" y="-29" transform="scale(1,-1)" style="color:#3daee9;opacity:0.07;fill:#ffffff;fill-opacity:1;stroke:none"/>
  </g>
  <g id="normal-topleft" transform="matrix(0,-1,-1,0,23,69)">
   <rect id="rect4947" width="3" height="1" x="31" y="21" style="opacity:1;fill:none;fill-opacity:1;stroke:none"/>
   <rect id="rect4949" width="2" height="2" x="31" y="18" style="color:#3daee9;opacity:0.07;fill:#ffffff;fill-opacity:1;stroke:none"/>
   <path id="path4951" d="m 31,21 0,-1 2,0 0,-2 1,0 0,2 c 0,1 -1,1 -1,1 l -2,0 z" style="color:#3daee9;opacity:0.07;fill:#ffffff;fill-opacity:1;stroke:none"/>
  </g>
  <g id="normal-topright" transform="matrix(1,0,0,-1,0,56)">
   <rect id="rect4955" width="1" height="3" x="34" y="-21" transform="scale(1,-1)" style="opacity:1;fill:none;fill-opacity:1;stroke:none"/>
   <rect id="rect4957" width="2" height="2" x="31" y="18" style="color:#3daee9;opacity:0.07;fill:#ffffff;fill-opacity:1;stroke:none"/>
   <path id="path4959" d="m 31,21 0,-1 2,0 0,-2 1,0 0,2 c 0,1 -1,1 -1,1 l -2,0 z" style="color:#3daee9;opacity:0.07;fill:#ffffff;fill-opacity:1;stroke:none"/>
  </g>
  <g id="minimized-left" transform="matrix(-1,0,0,-1.0000002,36,126)">
   <rect id="rect5177" width="2" height="13" x="31" y="12" style="color:#3daee9;opacity:0.03;fill:#ffffff;fill-opacity:1;stroke:none"/>
   <rect id="rect5179" width="1" height="13" x="33" y="12" style="color:#3daee9;opacity:0.03;fill:#ffffff;fill-opacity:1;stroke:none"/>
   <rect id="rect5181" width="1" height="13" x="34" y="12" style="opacity:1;fill:none;fill-opacity:1;stroke:none"/>
  </g>
  <g id="minimized-right" transform="translate(0,88.999988)">
   <rect id="rect5185" width="2" height="13" x="31" y="12" style="color:#3daee9;opacity:0.03;fill:#ffffff;fill-opacity:1;stroke:none"/>
   <rect id="rect5187" width="1" height="13" x="33" y="12" style="color:#3daee9;opacity:0.03;fill:#ffffff;fill-opacity:1;stroke:none"/>
   <rect id="rect5189" width="1" height="13" x="34" y="12" style="opacity:1;fill:none;fill-opacity:1;stroke:none"/>
  </g>
  <g id="minimized-center" transform="matrix(0.96296296,0,0,1.0000002,0.1851852,96.899991)">
   <rect id="rect5193" width="27" height="13" x="5" y="4.1" style="color:#3daee9;opacity:0.03;fill:#ffffff;fill-opacity:1;stroke:none"/>
  </g>
  <g id="minimized-top" transform="matrix(1,0,0,-1.0000002,0,127.00001)">
   <rect id="rect5197" width="26" height="2" x="5" y="-28" transform="scale(1,-1)" style="color:#3daee9;opacity:0.03;fill:#ffffff;fill-opacity:1;stroke:none"/>
   <rect id="rect5199" width="26" height="1" x="5" y="-29" transform="scale(1,-1)" style="color:#3daee9;opacity:0.03;fill:#ffffff;fill-opacity:1;stroke:none"/>
  </g>
  <g id="minimized-topleft" transform="matrix(0,-1.0000002,-1,0,23,132.00002)">
   <rect id="rect5203" width="3" height="1" x="31" y="21" style="opacity:1;fill:none;fill-opacity:1;stroke:none"/>
   <rect id="rect5205" width="2" height="2" x="31" y="18" style="color:#3daee9;opacity:0.03;fill:#ffffff;fill-opacity:1;stroke:none"/>
   <path id="path5207" d="m 31,21 0,-1 2,0 0,-2 1,0 0,2 c 0,1 -1,1 -1,1 l -2,0 z" style="color:#3daee9;opacity:0.03;fill:#ffffff;fill-opacity:1;stroke:none"/>
  </g>
  <g id="minimized-topright" transform="matrix(1,0,0,-1.0000002,0,119)">
   <rect id="rect5211" width="1" height="3" x="34" y="-21" transform="scale(1,-1)" style="opacity:1;fill:none;fill-opacity:1;stroke:none"/>
   <rect id="rect5213" width="2" height="2" x="31" y="18" style="color:#3daee9;opacity:0.03;fill:#ffffff;fill-opacity:1;stroke:none"/>
   <path id="path5215" d="m 31,21 0,-1 2,0 0,-2 1,0 0,2 c 0,1 -1,1 -1,1 l -2,0 z" style="color:#3daee9;opacity:0.03;fill:#ffffff;fill-opacity:1;stroke:none"/>
  </g>
  <g id="progress-bottom" transform="translate(1e-7,-17)">
   <rect id="rect4922" width="26" height="2" x="5" y="-28" transform="scale(1,-1)" style="color:#3daee9;opacity:1;fill:#4877b1;fill-opacity:1;stroke:none"/>
   <rect id="rect4924" width="26" height="1" x="5" y="-29" transform="scale(1,-1)" style="color:#3daee9;opacity:1;fill:#4877b1;fill-opacity:1;stroke:none"/>
  </g>
  <g id="progress-bottomleft" transform="matrix(0,1,-1,0,23,-22.000001)">
   <rect id="rect4928" width="3" height="1" x="31" y="21" style="opacity:1;fill:none;fill-opacity:1;stroke:none"/>
   <rect id="rect4930" width="2" height="2" x="31" y="18" style="color:#3daee9;opacity:1;fill:#4877b1;fill-opacity:1;stroke:none"/>
   <path id="path4932" d="m 31,21 0,-1 2,0 0,-2 1,0 0,2 c 0,1 -1,1 -1,1 l -2,0 z" style="color:#3daee9;opacity:1;fill:#4877b1;fill-opacity:1;stroke:none"/>
  </g>
  <g id="progress-bottomright" transform="translate(1e-7,-9)">
   <rect id="rect4936" width="1" height="3" x="34" y="-21" transform="scale(1,-1)" style="opacity:1;fill:none;fill-opacity:1;stroke:none"/>
   <rect id="rect4938" width="2" height="2" x="31" y="18" style="color:#3daee9;opacity:1;fill:#4877b1;fill-opacity:1;stroke:none"/>
   <path id="path4940" d="m 31,21 0,-1 2,0 0,-2 1,0 0,2 c 0,1 -1,1 -1,1 l -2,0 z" style="color:#3daee9;opacity:1;fill:#4877b1;fill-opacity:1;stroke:none"/>
  </g>
  <g id="focus-bottom" transform="translate(0,4)">
   <rect id="rect4944" width="26" height="2" x="5" y="-28" transform="scale(1,-1)" style="color:#3daee9;opacity:1;fill:#5294e2;fill-opacity:1;stroke:none"/>
   <rect id="rect4946" width="26" height="1" x="5" y="-29" transform="scale(1,-1)" style="color:#3daee9;opacity:1;fill:#5294e2;fill-opacity:1;stroke:none"/>
  </g>
  <g id="focus-bottomleft" transform="matrix(0,1,-1,0,23,-1)">
   <rect id="rect4950" width="3" height="1" x="31" y="21" style="opacity:1;fill:none;fill-opacity:1;stroke:none"/>
   <rect id="rect4952" width="2" height="2" x="31" y="18" style="color:#3daee9;opacity:1;fill:#5294e2;fill-opacity:1;stroke:none"/>
   <path id="path4955" d="m 31,21 0,-1 2,0 0,-2 1,0 0,2 c 0,1 -1,1 -1,1 l -2,0 z" style="color:#3daee9;opacity:1;fill:#5294e2;fill-opacity:1;stroke:none"/>
  </g>
  <g id="focus-bottomright" transform="translate(0,12)">
   <rect id="rect4959" width="1" height="3" x="34" y="-21" transform="scale(1,-1)" style="opacity:1;fill:none;fill-opacity:1;stroke:none"/>
   <rect id="rect4961" width="2" height="2" x="31" y="18" style="color:#3daee9;opacity:1;fill:#5294e2;fill-opacity:1;stroke:none"/>
   <path id="path4963" d="m 31,21 0,-1 2,0 0,-2 1,0 0,2 c 0,1 -1,1 -1,1 l -2,0 z" style="color:#3daee9;opacity:1;fill:#5294e2;fill-opacity:1;stroke:none"/>
  </g>
  <g id="normal-bottom" transform="translate(0,25)">
   <rect id="rect4967" width="26" height="2" x="5" y="-28" transform="scale(1,-1)" style="color:#3daee9;opacity:0.07;fill:#ffffff;fill-opacity:1;stroke:none"/>
   <rect id="rect4969" width="26" height="1" x="5" y="-29" transform="scale(1,-1)" style="color:#3daee9;opacity:0.07;fill:#ffffff;fill-opacity:1;stroke:none"/>
  </g>
  <g id="normal-bottomleft" transform="matrix(0,1,-1,0,23,20)">
   <rect id="rect4973" width="3" height="1" x="31" y="21" style="opacity:1;fill:none;fill-opacity:1;stroke:none"/>
   <rect id="rect4975" width="2" height="2" x="31" y="18" style="color:#3daee9;opacity:0.07;fill:#ffffff;fill-opacity:1;stroke:none"/>
   <path id="path4977" d="m 31,21 0,-1 2,0 0,-2 1,0 0,2 c 0,1 -1,1 -1,1 l -2,0 z" style="color:#3daee9;opacity:0.07;fill:#ffffff;fill-opacity:1;stroke:none"/>
  </g>
  <g id="normal-bottomright" transform="translate(0,33)">
   <rect id="rect4981" width="1" height="3" x="34" y="-21" transform="scale(1,-1)" style="opacity:1;fill:none;fill-opacity:1;stroke:none"/>
   <rect id="rect4983" width="2" height="2" x="31" y="18" style="color:#3daee9;opacity:0.07;fill:#ffffff;fill-opacity:1;stroke:none"/>
   <path id="path4985" d="m 31,21 0,-1 2,0 0,-2 1,0 0,2 c 0,1 -1,1 -1,1 l -2,0 z" style="color:#3daee9;opacity:0.07;fill:#ffffff;fill-opacity:1;stroke:none"/>
  </g>
  <g id="hover-bottom" transform="translate(0,46)">
   <rect id="rect4989" width="26" height="2" x="5" y="-28" transform="scale(1,-1)" style="color:#3daee9;opacity:1;fill:#5294e2;fill-opacity:1;stroke:none"/>
   <rect id="rect4991" width="26" height="1" x="5" y="-29" transform="scale(1,-1)" style="color:#3daee9;opacity:1;fill:#5294e2;fill-opacity:1;stroke:none"/>
  </g>
  <g id="hover-bottomleft" transform="matrix(0,1,-1,0,23,41)">
   <rect id="rect4995" width="3" height="1" x="31" y="21" style="opacity:1;fill:none;fill-opacity:1;stroke:none"/>
   <rect id="rect4997" width="2" height="2" x="31" y="18" style="color:#3daee9;opacity:1;fill:#5294e2;fill-opacity:1;stroke:none"/>
   <path id="path4999" d="m 31,21 0,-1 2,0 0,-2 1,0 0,2 c 0,1 -1,1 -1,1 l -2,0 z" style="color:#3daee9;opacity:1;fill:#5294e2;fill-opacity:1;stroke:none"/>
  </g>
  <g id="hover-bottomright" transform="translate(0,54)">
   <rect id="rect5003" width="1" height="3" x="34" y="-21" transform="scale(1,-1)" style="opacity:1;fill:none;fill-opacity:1;stroke:none"/>
   <rect id="rect5005" width="2" height="2" x="31" y="18" style="color:#3daee9;opacity:1;fill:#5294e2;fill-opacity:1;stroke:none"/>
   <path id="path5007" d="m 31,21 0,-1 2,0 0,-2 1,0 0,2 c 0,1 -1,1 -1,1 l -2,0 z" style="color:#3daee9;opacity:1;fill:#5294e2;fill-opacity:1;stroke:none"/>
  </g>
  <g id="attention-bottom" transform="translate(0,67)">
   <rect id="rect5011" width="26" height="2" x="5" y="-28" transform="scale(1,-1)" style="opacity:1;fill:#4877b1;fill-opacity:1;stroke:none"/>
   <rect id="rect5013" width="26" height="1" x="5" y="-29" transform="scale(1,-1)" style="fill:#4877b1;fill-opacity:1;stroke:none"/>
  </g>
  <g id="attention-bottomleft" transform="matrix(0,1,-1,0,23,62)">
   <rect id="rect5017" width="3" height="1" x="31" y="21" style="opacity:1;fill:none;fill-opacity:1;stroke:none"/>
   <rect id="rect5019" width="2" height="2" x="31" y="18" style="opacity:1;fill:#4877b1;fill-opacity:1;stroke:none"/>
   <path id="path5021" d="m 31,21 0,-1 2,0 0,-2 1,0 0,2 c 0,1 -1,1 -1,1 l -2,0 z" style="fill:#4877b1;fill-opacity:1;stroke:none"/>
  </g>
  <g id="attention-bottomright" transform="translate(0,75)">
   <rect id="rect5025" width="1" height="3" x="34" y="-21" transform="scale(1,-1)" style="opacity:1;fill:none;fill-opacity:1;stroke:none"/>
   <rect id="rect5027" width="2" height="2" x="31" y="18" style="opacity:1;fill:#4877b1;fill-opacity:1;stroke:none"/>
   <path id="path5029" d="m 31,21 0,-1 2,0 0,-2 1,0 0,2 c 0,1 -1,1 -1,1 l -2,0 z" style="fill:#4877b1;fill-opacity:1;stroke:none"/>
  </g>
  <g id="minimized-bottom" transform="translate(0,87.99999)">
   <rect id="rect5033" width="26" height="2" x="5" y="-28" transform="scale(1,-1)" style="color:#3daee9;opacity:0.03;fill:#ffffff;fill-opacity:1;stroke:none"/>
   <rect id="rect5035" width="26" height="1" x="5" y="-29" transform="scale(1,-1)" style="color:#3daee9;opacity:0.03;fill:#ffffff;fill-opacity:1;stroke:none"/>
  </g>
  <g id="minimized-bottomleft" transform="matrix(0,1.0000002,-1,0,23,82.99998)">
   <rect id="rect5039" width="3" height="1" x="31" y="21" style="opacity:1;fill:none;fill-opacity:1;stroke:none"/>
   <rect id="rect5041" width="2" height="2" x="31" y="18" style="color:#3daee9;opacity:0.03;fill:#ffffff;fill-opacity:1;stroke:none"/>
   <path id="path5043" d="m 31,21 0,-1 2,0 0,-2 1,0 0,2 c 0,1 -1,1 -1,1 l -2,0 z" style="color:#3daee9;opacity:0.03;fill:#ffffff;fill-opacity:1;stroke:none"/>
  </g>
  <g id="minimized-bottomright" transform="translate(0,96)">
   <rect id="rect5047" width="1" height="3" x="34" y="-21" transform="scale(1,-1)" style="opacity:1;fill:none;fill-opacity:1;stroke:none"/>
   <rect id="rect5049" width="2" height="2" x="31" y="18" style="color:#3daee9;opacity:0.03;fill:#ffffff;fill-opacity:1;stroke:none"/>
   <path id="path5051" d="m 31,21 0,-1 2,0 0,-2 1,0 0,2 c 0,1 -1,1 -1,1 l -2,0 z" style="color:#3daee9;opacity:0.03;fill:#ffffff;fill-opacity:1;stroke:none"/>
  </g>
  <g id="group-expander-left" transform="translate(60,-20)">
   <path id="rect2993-2-5-3-7-0-0-1-3" d="M 12,46 19,41.996831 12,38 Z" style="color:#000000;display:inline;overflow:visible;visibility:visible;fill:#5294e2;fill-opacity:1;fill-rule:nonzero;stroke:none;stroke-width:1.5;marker:none;enable-background:accumulate"/>
   <path id="center-3-2-8-5-6-8" d="m -24.984217,27.981458 0,10 10,0 0,-10 -10,0 z" mask="none" transform="matrix(1,0,0,-1.2,36.984217,81.57775)" style="opacity:0.27000002;fill:none;stroke:none;filter:url(#filter7986-7-9-7-4-5-5)"/>
  </g>
  <g id="group-expander-bottom" transform="translate(37,1)">
   <path id="rect2993-2-5-3-7-0-0-11-1" d="M 25,47 29.003169,40 33,47 Z" style="color:#000000;display:inline;overflow:visible;visibility:visible;fill:#5294e2;fill-opacity:1;fill-rule:nonzero;stroke:none;stroke-width:1.5;marker:none;enable-background:accumulate"/>
   <path id="center-3-2-8-5-9-9" d="m -24.984217,27.981458 0,10 10,0 0,-10 -10,0 z" mask="none" transform="matrix(0,-1,1.2,0,-10.57775,22.015783)" style="opacity:0.27000002;fill:none;stroke:none;filter:url(#filter7986-7-9-7-4-2-6)"/>
  </g>
  <g id="group-expander-top" transform="translate(38,1)">
   <path id="rect2993-2-5-3-7-0-0-16-39" d="M 47,37 42.996831,44 39,37 Z" style="color:#000000;display:inline;overflow:visible;visibility:visible;fill:#5294e2;fill-opacity:1;fill-rule:nonzero;stroke:none;stroke-width:1.5;marker:none;enable-background:accumulate"/>
   <path id="center-3-2-8-5-3-3" d="m -24.984217,27.981458 0,10 10,0 0,-10 -10,0 z" mask="none" transform="matrix(0,1,-1.2,0,82.57775,61.984217)" style="opacity:0.27000002;fill:none;stroke:none;filter:url(#filter7986-7-9-7-4-1-5)"/>
  </g>
  <g id="group-expander-right" transform="translate(60,-20)">
   <path id="center-3-2-8-5-1" d="m -24.984217,27.981458 0,10 10,0 0,-10 -10,0 z" mask="none" transform="matrix(-1,0,0,-1.2,-14.984217,81.57775)" style="opacity:0.27000002;fill:none;stroke:none;filter:url(#filter7986-7-9-7-4-0)"/>
   <path id="rect2993-2-5-3-7-0-0-0" d="M 10,46 3,41.996831 10,38 Z" style="color:#000000;display:inline;overflow:visible;visibility:visible;fill:#5294e2;fill-opacity:1;fill-rule:nonzero;stroke:none;stroke-width:1.5;marker:none;enable-background:accumulate"/>
  </g>
 </g>
</svg>
