<svg xmlns="http://www.w3.org/2000/svg" xmlns:xlink="http://www.w3.org/1999/xlink" id="svg2" width="744.094" height="1052.362" version="1.1">
 <defs id="defs4">
  <linearGradient id="linearGradient3152">
   <stop id="stop3154" offset="0" style="stop-color:#dcdcdc;stop-opacity:0.0627451"/>
   <stop id="stop3176" offset=".5" style="stop-color:#ffffff;stop-opacity:0.0627451"/>
   <stop id="stop3156" offset="1" style="stop-color:#dcdcdc;stop-opacity:0.0627451"/>
  </linearGradient>
  <linearGradient id="linearGradient3158" x1="233.054" x2="233.054" y1="489.505" y2="326.648" gradientTransform="translate(11.232143,-1.727455)" gradientUnits="userSpaceOnUse" xlink:href="#linearGradient3152"/>
  <linearGradient id="linearGradient3214" x1="233.054" x2="233.054" y1="489.505" y2="326.648" gradientTransform="translate(191.77613,0.1206541)" gradientUnits="userSpaceOnUse" xlink:href="#linearGradient3152"/>
  <linearGradient id="linearGradient3226" x1="233.054" x2="233.054" y1="489.505" y2="326.648" gradientTransform="translate(362.78499,-2.0717684)" gradientUnits="userSpaceOnUse" xlink:href="#linearGradient3152"/>
  <linearGradient id="linearGradient3238" x1="233.054" x2="233.054" y1="489.505" y2="326.648" gradientTransform="translate(16.382439,230.32488)" gradientUnits="userSpaceOnUse" xlink:href="#linearGradient3152"/>
  <linearGradient id="linearGradient3250" x1="233.054" x2="233.054" y1="489.505" y2="326.648" gradientTransform="translate(196.16098,232.5173)" gradientUnits="userSpaceOnUse" xlink:href="#linearGradient3152"/>
  <linearGradient id="linearGradient3262" x1="233.054" x2="233.054" y1="489.505" y2="326.648" gradientTransform="translate(373.7471,250.05667)" gradientUnits="userSpaceOnUse" xlink:href="#linearGradient3152"/>
  <linearGradient id="linearGradient3274" x1="233.054" x2="233.054" y1="489.505" y2="326.648" gradientTransform="translate(25.152128,480.2609)" gradientUnits="userSpaceOnUse" xlink:href="#linearGradient3152"/>
  <linearGradient id="linearGradient3286" x1="233.054" x2="233.054" y1="489.505" y2="326.648" gradientTransform="translate(389.58407,504.64574)" gradientUnits="userSpaceOnUse" xlink:href="#linearGradient3152"/>
  <linearGradient id="linearGradient3310" x1="233.054" x2="233.054" y1="489.505" y2="326.648" gradientTransform="translate(17.910142,696.57593)" gradientUnits="userSpaceOnUse" xlink:href="#linearGradient3152"/>
  <linearGradient id="linearGradient2366" x1="233.054" x2="233.054" y1="489.505" y2="326.648" gradientTransform="translate(212.16068,484.69246)" gradientUnits="userSpaceOnUse" xlink:href="#linearGradient3152"/>
  <linearGradient id="linearGradient2484" x1="233.054" x2="233.054" y1="489.505" y2="326.648" gradientTransform="translate(11.232143,-1.727455)" gradientUnits="userSpaceOnUse" xlink:href="#linearGradient3152"/>
  <linearGradient id="linearGradient2488" x1="233.054" x2="233.054" y1="489.505" y2="326.648" gradientTransform="translate(191.77613,0.1206541)" gradientUnits="userSpaceOnUse" xlink:href="#linearGradient3152"/>
  <linearGradient id="linearGradient2492" x1="233.054" x2="233.054" y1="489.505" y2="326.648" gradientTransform="translate(362.78499,-2.0717684)" gradientUnits="userSpaceOnUse" xlink:href="#linearGradient3152"/>
  <linearGradient id="linearGradient2496" x1="233.054" x2="233.054" y1="489.505" y2="326.648" gradientTransform="translate(16.382439,230.32488)" gradientUnits="userSpaceOnUse" xlink:href="#linearGradient3152"/>
  <linearGradient id="linearGradient2500" x1="233.054" x2="233.054" y1="489.505" y2="326.648" gradientTransform="translate(196.16098,232.5173)" gradientUnits="userSpaceOnUse" xlink:href="#linearGradient3152"/>
  <linearGradient id="linearGradient2504" x1="233.054" x2="233.054" y1="489.505" y2="326.648" gradientTransform="translate(373.7471,250.05667)" gradientUnits="userSpaceOnUse" xlink:href="#linearGradient3152"/>
  <linearGradient id="linearGradient2508" x1="233.054" x2="233.054" y1="489.505" y2="326.648" gradientTransform="translate(25.152128,480.2609)" gradientUnits="userSpaceOnUse" xlink:href="#linearGradient3152"/>
  <linearGradient id="linearGradient2512" x1="233.054" x2="233.054" y1="489.505" y2="326.648" gradientTransform="translate(389.58407,504.64574)" gradientUnits="userSpaceOnUse" xlink:href="#linearGradient3152"/>
  <linearGradient id="linearGradient2516" x1="233.054" x2="233.054" y1="489.505" y2="326.648" gradientTransform="translate(17.910142,696.57593)" gradientUnits="userSpaceOnUse" xlink:href="#linearGradient3152"/>
  <linearGradient id="linearGradient2520" x1="233.054" x2="233.054" y1="489.505" y2="326.648" gradientTransform="translate(212.16068,484.69246)" gradientUnits="userSpaceOnUse" xlink:href="#linearGradient3152"/>
 </defs>
 <g id="layer1">
  <g id="0">
   <rect id="rect2162" width="88.571" height="162.857" x="200" y="324.92" style="fill:url(#linearGradient3158);fill-opacity:1;opacity:0"/>
   <path id="text3148" d="M 243.55382,363.056 C 236.24128,363.0561 230.73347,366.66547 227.03038,373.88412 C 223.3741,381.05608 221.54598,391.86075 221.54601,406.29819 C 221.54598,420.68885 223.3741,431.49353 227.03038,438.71225 C 230.73347,445.88414 236.24128,449.47007 243.55382,449.47006 C 250.91314,449.47007 256.42095,445.88414 260.07726,438.71225 C 263.78031,431.49353 265.63187,420.68885 265.63194,406.29819 C 265.63187,391.86075 263.78031,381.05608 260.07726,373.88412 C 256.42095,366.66547 250.91314,363.0561 243.55382,363.056 M 243.55382,351.806 C 255.31939,351.80611 264.29594,356.47016 270.48351,365.79819 C 276.7178,375.07952 279.83499,388.57951 279.83507,406.29819 C 279.83499,423.9701 276.7178,437.47008 270.48351,446.79819 C 264.29594,456.07944 255.31939,460.72006 243.55382,460.72006 C 231.78816,460.72006 222.78817,456.07944 216.55382,446.79819 C 210.36631,437.47008 207.27256,423.9701 207.27257,406.29819 C 207.27256,388.57951 210.36631,375.07952 216.55382,365.79819 C 222.78817,356.47016 231.78816,351.80611 243.55382,351.806" style="font-size:144px;font-style:normal;font-weight:normal;fill:#d3dae3;fill-opacity:1;stroke:none;stroke-width:1px;stroke-linecap:butt;stroke-linejoin:miter;stroke-opacity:1;font-family:Bitstream Vera Sans;opacity:1"/>
   <rect id="rect3160" width="88.571" height="162.857" x="200.5" y="324.51" style="fill:none;fill-opacity:0;stroke:none;stroke-opacity:1"/>
  </g>
  <g id="1">
   <rect id="rect3206" width="88.571" height="162.857" x="380.54" y="326.77" style="fill:url(#linearGradient3214);fill-opacity:1;opacity:0"/>
   <path id="text3208" d="M 396.18375,448.57602 L 419.38687,448.57602 L 419.38687,368.49008 L 394.14468,373.55258 L 394.14468,360.61508 L 419.24625,355.55258 L 433.44937,355.55258 L 433.44937,448.57602 L 456.6525,448.57602 L 456.6525,460.52914 L 396.18375,460.52914 L 396.18375,448.57602" style="font-size:144px;font-style:normal;font-weight:normal;fill:#d3dae3;fill-opacity:1;stroke:none;stroke-width:1px;stroke-linecap:butt;stroke-linejoin:miter;stroke-opacity:1;font-family:Bitstream Vera Sans;opacity:1"/>
   <rect id="rect3212" width="88.571" height="162.857" x="381.04" y="326.36" style="fill:none;fill-opacity:0;stroke:none;stroke-opacity:1"/>
  </g>
  <g id="2">
   <rect id="rect3218" width="88.571" height="162.857" x="551.55" y="324.58" style="fill:url(#linearGradient3226);fill-opacity:1;opacity:0"/>
   <path id="text3220" d="M 576.96606,446.38358 L 626.53638,446.38358 L 626.53638,458.3367 L 559.88013,458.3367 L 559.88013,446.38358 C 565.27074,440.80547 572.60667,433.32891 581.88794,423.95389 C 591.21602,414.53206 597.07539,408.46175 599.46606,405.74295 C 604.01288,400.63363 607.17694,396.32114 608.95825,392.80545 C 610.78632,389.24302 611.70038,385.75084 611.70044,382.32889 C 611.70038,376.75084 609.73163,372.20397 605.79419,368.68826 C 601.90351,365.17273 596.81758,363.41492 590.53638,363.41483 C 586.08322,363.41492 581.37228,364.18836 576.40356,365.73514 C 571.48167,367.2821 566.20824,369.62585 560.58325,372.76639 L 560.58325,358.42264 C 566.30198,356.12587 571.64573,354.39149 576.6145,353.21951 C 581.58322,352.04774 586.13009,351.46181 590.25513,351.4617 C 601.13008,351.46181 609.80194,354.18055 616.27075,359.61795 C 622.73943,365.05554 625.9738,372.32116 625.97388,381.41483 C 625.9738,385.7274 625.15349,389.82896 623.51294,393.71951 C 621.91912,397.56332 618.98943,402.11019 614.72388,407.36014 C 613.55194,408.71956 609.82538,412.65706 603.54419,419.17264 C 597.26289,425.64142 588.40353,434.71172 576.96606,446.38358" style="font-size:144px;font-style:normal;font-weight:normal;fill:#d3dae3;fill-opacity:1;stroke:none;stroke-width:1px;stroke-linecap:butt;stroke-linejoin:miter;stroke-opacity:1;font-family:Bitstream Vera Sans;opacity:1"/>
   <rect id="rect3224" width="88.571" height="162.857" x="552.05" y="324.17" style="fill:none;fill-opacity:0;stroke:none;stroke-opacity:1"/>
  </g>
  <g id="3" transform="translate(2.1924215,13.154527)">
   <rect id="rect3230" width="88.571" height="162.857" x="205.15" y="556.97" style="fill:url(#linearGradient3238);fill-opacity:1;opacity:0"/>
   <path id="text3232" d="M 261.36034,634.13177 C 268.15715,635.58496 273.45402,638.60839 277.25096,643.20209 C 281.09463,647.79588 283.01651,653.46775 283.01659,660.21771 C 283.01651,670.57711 279.45401,678.59272 272.32909,684.26459 C 265.20402,689.93646 255.07903,692.7724 241.95409,692.7724 C 237.5478,692.7724 233.00093,692.32709 228.31346,691.43646 C 223.67282,690.59271 218.86813,689.30365 213.8994,687.56927 L 213.8994,673.85834 C 217.83688,676.15523 222.14938,677.8896 226.8369,679.06146 C 231.52437,680.23335 236.4228,680.81928 241.53221,680.81927 C 250.43841,680.81928 257.21184,679.06147 261.85252,675.54584 C 266.53996,672.03023 268.88371,666.92086 268.88377,660.21771 C 268.88371,654.03025 266.70402,649.20213 262.34471,645.73334 C 258.03216,642.21776 252.00872,640.45995 244.2744,640.4599 L 232.04002,640.4599 L 232.04002,628.78802 L 244.8369,628.78802 C 251.82122,628.78809 257.16497,627.40528 260.86815,624.63959 C 264.57121,621.82716 266.42277,617.79591 266.42284,612.54584 C 266.42277,607.1553 264.5009,603.0303 260.65721,600.17084 C 256.86028,597.26468 251.39935,595.81156 244.2744,595.81146 C 240.38374,595.81156 236.21187,596.23343 231.75877,597.07709 C 227.30562,597.92093 222.40719,599.23343 217.06346,601.01459 L 217.06346,588.35834 C 222.45407,586.85844 227.49312,585.73344 232.18065,584.98334 C 236.91499,584.23344 241.36811,583.85844 245.54002,583.85834 C 256.32122,583.85844 264.85246,586.31938 271.13377,591.24115 C 277.41495,596.11624 280.55557,602.72561 280.55565,611.06927 C 280.55557,616.88185 278.89151,621.80372 275.56346,625.8349 C 272.23527,629.81934 267.5009,632.58496 261.36034,634.13177" style="font-size:144px;font-style:normal;font-weight:normal;fill:#d3dae3;fill-opacity:1;stroke:none;stroke-width:1px;stroke-linecap:butt;stroke-linejoin:miter;stroke-opacity:1;font-family:Bitstream Vera Sans;opacity:1"/>
   <rect id="rect3236" width="88.571" height="162.857" x="205.65" y="556.57" style="fill:none;fill-opacity:0;stroke:none;stroke-opacity:1"/>
  </g>
  <g id="4">
   <rect id="rect3242" width="88.571" height="162.857" x="384.93" y="559.16" style="fill:url(#linearGradient3250);fill-opacity:1;stroke:none;opacity:0"/>
   <path id="text3244" d="M 437.1311,600.32416 L 401.27173,656.36322 L 437.1311,656.36322 L 437.1311,600.32416 M 433.40454,587.94916 L 451.26392,587.94916 L 451.26392,656.36322 L 466.24048,656.36322 L 466.24048,668.17572 L 451.26392,668.17572 L 451.26392,692.92572 L 437.1311,692.92572 L 437.1311,668.17572 L 389.74048,668.17572 L 389.74048,654.46478 L 433.40454,587.94916" style="font-size:144px;font-style:normal;font-weight:normal;fill:#d3dae3;fill-opacity:1;stroke:none;stroke-width:1px;stroke-linecap:butt;stroke-linejoin:miter;stroke-opacity:1;font-family:Bitstream Vera Sans;opacity:1"/>
   <rect id="rect3248" width="88.571" height="162.857" x="385.43" y="558.76" style="fill:none;fill-opacity:0;stroke:none;stroke-opacity:1"/>
  </g>
  <g id="5">
   <rect id="rect3254" width="88.571" height="162.857" x="562.51" y="576.71" style="fill:url(#linearGradient3262);fill-opacity:1;stroke:none;opacity:0"/>
   <path id="text3256" d="M 575.83441,605.48859 L 631.59222,605.48859 L 631.59222,617.44171 L 588.84222,617.44171 L 588.84222,643.17609 C 590.90469,642.47303 592.96719,641.9574 595.02972,641.62921 C 597.09219,641.25428 599.15469,641.06678 601.21722,641.06671 C 612.93592,641.06678 622.21716,644.27772 629.06097,650.69952 C 635.90465,657.12145 639.32652,665.81676 639.3266,676.78546 C 639.32652,688.08236 635.8109,696.87141 628.77972,703.15265 C 621.74841,709.38703 611.83436,712.50421 599.03754,712.50421 C 594.63125,712.50421 590.13126,712.12921 585.53754,711.37921 C 580.99064,710.62921 576.27971,709.50421 571.40472,708.00421 L 571.40472,693.73077 C 575.62346,696.02766 579.98283,697.7386 584.48285,698.86359 C 588.98282,699.9886 593.74063,700.5511 598.75629,700.55109 C 606.86562,700.5511 613.28748,698.41829 618.02191,694.15265 C 622.75622,689.88704 625.12341,684.09799 625.12347,676.78546 C 625.12341,669.473 622.75622,663.68395 618.02191,659.41827 C 613.28748,655.1527 606.86562,653.01989 598.75629,653.01984 C 594.95938,653.01989 591.16251,653.44177 587.36566,654.28546 C 583.61564,655.12927 579.77189,656.44177 575.83441,658.22296 L 575.83441,605.48859" style="font-size:144px;font-style:normal;font-weight:normal;fill:#d3dae3;fill-opacity:1;stroke:none;stroke-width:1px;stroke-linecap:butt;stroke-linejoin:miter;stroke-opacity:1;font-family:Bitstream Vera Sans;opacity:1"/>
   <rect id="rect3260" width="88.571" height="162.857" x="563.01" y="576.3" style="fill:none;fill-opacity:0;stroke:none;stroke-opacity:1"/>
  </g>
  <g id="6">
   <rect id="rect3266" width="88.571" height="162.857" x="213.92" y="806.91" style="fill:url(#linearGradient3274);fill-opacity:1;stroke:none;opacity:0"/>
   <path id="text3268" d="M 259.23163,882.52094 C 252.85659,882.52099 247.79409,884.70068 244.04413,889.06 C 240.34097,893.41942 238.48941,899.39598 238.48944,906.98969 C 238.48941,914.53659 240.34097,920.51314 244.04413,924.91937 C 247.79409,929.27876 252.85659,931.45844 259.23163,931.45844 C 265.60657,931.45844 270.64563,929.27876 274.34882,924.91937 C 278.09875,920.51314 279.97375,914.53659 279.97382,906.98969 C 279.97375,899.39598 278.09875,893.41942 274.34882,889.06 C 270.64563,884.70068 265.60657,882.52099 259.23163,882.52094 M 287.42694,838.01312 L 287.42694,850.95062 C 283.86437,849.26321 280.255,847.97415 276.59882,847.08344 C 272.98938,846.1929 269.40345,845.74759 265.841,845.7475 C 256.46596,845.74759 249.29409,848.91165 244.32538,855.23969 C 239.40348,861.56789 236.59098,871.13038 235.88788,883.92719 C 238.65348,879.84912 242.12222,876.73194 246.29413,874.57562 C 250.46596,872.37257 255.05971,871.271 260.07538,871.27094 C 270.62219,871.271 278.9425,874.48194 285.03632,880.90375 C 291.17686,887.2788 294.24717,895.9741 294.24725,906.98969 C 294.24717,917.77096 291.05967,926.41939 284.68475,932.935 C 278.30969,939.45062 269.82532,942.70843 259.23163,942.70844 C 247.09097,942.70843 237.80973,938.06781 231.38788,928.78656 C 224.96599,919.45846 221.75506,905.95847 221.75507,888.28656 C 221.75506,871.69288 225.69255,858.47414 233.56757,848.63031 C 241.44254,838.73979 252.01284,833.79448 265.2785,833.79437 C 268.84095,833.79448 272.42688,834.14604 276.03632,834.84906 C 279.6925,835.55229 283.48937,836.60698 287.42694,838.01312" style="font-size:144px;font-style:normal;font-weight:normal;fill:#d3dae3;fill-opacity:1;stroke:none;stroke-width:1px;stroke-linecap:butt;stroke-linejoin:miter;stroke-opacity:1;font-family:Bitstream Vera Sans;opacity:1"/>
   <rect id="rect3272" width="88.571" height="162.857" x="214.42" y="806.5" style="fill:none;fill-opacity:0;stroke:none;stroke-opacity:1"/>
  </g>
  <g id="8">
   <rect id="rect3278" width="88.571" height="162.857" x="578.35" y="831.29" style="fill:url(#linearGradient3286);fill-opacity:1;opacity:0"/>
   <path id="text3280" d="M 621.90576,915.2027 C 615.15572,915.20275 609.83542,917.00743 605.94482,920.61676 C 602.10105,924.22618 600.17918,929.19492 600.1792,935.52301 C 600.17918,941.85116 602.10105,946.8199 605.94482,950.42926 C 609.83542,954.03865 615.15572,955.84333 621.90576,955.84332 C 628.65571,955.84333 633.97602,954.03865 637.8667,950.42926 C 641.75726,946.77303 643.70257,941.80428 643.70264,935.52301 C 643.70257,929.19492 641.75726,924.22618 637.8667,920.61676 C 634.02289,917.00743 628.70258,915.20275 621.90576,915.2027 M 607.70264,909.15582 C 601.60886,907.65588 596.85105,904.81995 593.4292,900.64801 C 590.05419,896.4762 588.36669,891.39027 588.3667,885.3902 C 588.36669,876.99966 591.34325,870.36685 597.29639,865.49176 C 603.29636,860.61686 611.49948,858.17937 621.90576,858.17926 C 632.35883,858.17937 640.56195,860.61686 646.51514,865.49176 C 652.46819,870.36685 655.44474,876.99966 655.44482,885.3902 C 655.44474,891.39027 653.73381,896.4762 650.31201,900.64801 C 646.93694,904.81995 642.22601,907.65588 636.1792,909.15582 C 643.02288,910.74963 648.34319,913.86681 652.14014,918.50739 C 655.98381,923.14805 657.90568,928.81992 657.90576,935.52301 C 657.90568,945.6949 654.7885,953.49958 648.5542,958.93707 C 642.36663,964.37457 633.48383,967.09332 621.90576,967.09332 C 610.3276,967.09332 601.42136,964.37457 595.18701,958.93707 C 588.9995,953.49958 585.90575,945.6949 585.90576,935.52301 C 585.90575,928.81992 587.82763,923.14805 591.67139,918.50739 C 595.51512,913.86681 600.85886,910.74963 607.70264,909.15582 M 602.49951,886.72614 C 602.49949,892.16371 604.18698,896.40589 607.56201,899.4527 C 610.98385,902.49964 615.7651,904.02307 621.90576,904.02301 C 627.99946,904.02307 632.75727,902.49964 636.1792,899.4527 C 639.64789,896.40589 641.38226,892.16371 641.38232,886.72614 C 641.38226,881.28872 639.64789,877.04654 636.1792,873.99957 C 632.75727,870.95279 627.99946,869.42936 621.90576,869.42926 C 615.7651,869.42936 610.98385,870.95279 607.56201,873.99957 C 604.18698,877.04654 602.49949,881.28872 602.49951,886.72614" style="font-size:144px;font-style:normal;font-weight:normal;fill:#d3dae3;fill-opacity:1;stroke:none;stroke-width:1px;stroke-linecap:butt;stroke-linejoin:miter;stroke-opacity:1;font-family:Bitstream Vera Sans;opacity:1"/>
   <rect id="rect3284" width="88.571" height="162.857" x="578.85" y="830.89" style="fill:none;fill-opacity:0;stroke:none;stroke-opacity:1"/>
  </g>
  <g id="9">
   <rect id="rect3302" width="88.571" height="162.857" x="206.68" y="1023.22" style="fill:url(#linearGradient3310);fill-opacity:1;opacity:0"/>
   <path id="text3304" d="M 220.27869,1154.8047 L 220.27869,1141.8672 C 223.84117,1143.5547 227.45054,1144.8438 231.10681,1145.7344 C 234.76303,1146.625 238.34897,1147.0703 241.86462,1147.0703 C 251.23958,1147.0703 258.38801,1143.9297 263.30994,1137.6484 C 268.27862,1131.3203 271.11456,1121.7344 271.81775,1108.8906 C 269.09893,1112.9219 265.65363,1116.0157 261.48181,1118.1719 C 257.30988,1120.3282 252.6927,1121.4063 247.63025,1121.4062 C 237.13022,1121.4063 228.80991,1118.2422 222.66931,1111.9141 C 216.57555,1105.5391 213.52868,1096.8438 213.52869,1085.8281 C 213.52868,1075.047 216.71617,1066.3985 223.09119,1059.8828 C 229.46616,1053.3673 237.95053,1050.1095 248.54431,1050.1094 C 260.68488,1050.1095 269.94268,1054.7735 276.31775,1064.1016 C 282.73955,1073.3829 285.95048,1086.8829 285.95056,1104.6016 C 285.95048,1121.1485 282.01298,1134.3672 274.13806,1144.2578 C 266.30987,1154.1016 255.76301,1159.0234 242.49744,1159.0234 C 238.9349,1159.0234 235.32553,1158.6719 231.66931,1157.9688 C 228.01304,1157.2656 224.21617,1156.2109 220.27869,1154.8047 M 248.54431,1110.2969 C 254.91926,1110.2969 259.95832,1108.1172 263.6615,1103.7578 C 267.41144,1099.3985 269.28643,1093.4219 269.2865,1085.8281 C 269.28643,1078.2813 267.41144,1072.3282 263.6615,1067.9688 C 259.95832,1063.5626 254.91926,1061.3595 248.54431,1061.3594 C 242.16927,1061.3595 237.10678,1063.5626 233.35681,1067.9688 C 229.65366,1072.3282 227.8021,1078.2813 227.80212,1085.8281 C 227.8021,1093.4219 229.65366,1099.3985 233.35681,1103.7578 C 237.10678,1108.1172 242.16927,1110.2969 248.54431,1110.2969" style="font-size:144px;font-style:normal;font-weight:normal;fill:#d3dae3;fill-opacity:1;stroke:none;stroke-width:1px;stroke-linecap:butt;stroke-linejoin:miter;stroke-opacity:1;font-family:Bitstream Vera Sans;opacity:1"/>
   <rect id="rect3308" width="88.571" height="162.857" x="207.18" y="1022.82" style="fill:none;fill-opacity:0;stroke:none;stroke-opacity:1"/>
  </g>
  <g id="7">
   <rect id="rect2358" width="88.571" height="162.857" x="400.93" y="811.34" style="fill:url(#linearGradient2366);fill-opacity:1;opacity:0"/>
   <path id="text2360" d="M 410.52145,840.12445 L 478.02145,840.12445 L 478.02145,846.17133 L 439.91208,945.10101 L 425.07614,945.10101 L 460.93552,852.07758 L 410.52145,852.07758 L 410.52145,840.12445" style="font-size:144px;font-style:normal;font-weight:normal;fill:#d3dae3;fill-opacity:1;stroke:none;stroke-width:1px;stroke-linecap:butt;stroke-linejoin:miter;stroke-opacity:1;font-family:Bitstream Vera Sans;opacity:1"/>
   <rect id="rect2364" width="88.571" height="162.857" x="401.43" y="810.93" style="fill:none;fill-opacity:0;stroke:none;stroke-opacity:1"/>
  </g>
  <g id="separator" transform="translate(-200.66191,4.3848424)">
   <rect id="rect2559" width="45" height="163.082" x="200" y="324.28" style="opacity:1;fill:none;fill-opacity:1;stroke:none;stroke-opacity:1"/>
   <path id="text2242" d="M 215.89905,424.22943 L 230.73499,424.22943 L 230.73499,442.08881 L 215.89905,442.08881 L 215.89905,424.22943 M 215.89905,367.62787 L 230.73499,367.62787 L 230.73499,385.48724 L 215.89905,385.48724 L 215.89905,367.62787" style="font-size:144px;font-style:normal;font-weight:normal;fill:#d3dae3;fill-opacity:1;stroke:none;stroke-width:1px;stroke-linecap:butt;stroke-linejoin:miter;stroke-opacity:1;font-family:Bitstream Vera Sans;opacity:1"/>
  </g>
  <g id="0_1" transform="translate(607.43839,-18.268221)">
   <rect id="rect2386" width="88.571" height="162.857" x="200" y="324.92" style="fill:url(#linearGradient2484);fill-opacity:1;opacity:0"/>
   <path id="text2388" d="M 243.55382,363.056 C 236.24128,363.0561 230.73347,366.66547 227.03038,373.88412 C 223.3741,381.05608 221.54598,391.86075 221.54601,406.29819 C 221.54598,420.68885 223.3741,431.49353 227.03038,438.71225 C 230.73347,445.88414 236.24128,449.47007 243.55382,449.47006 C 250.91314,449.47007 256.42095,445.88414 260.07726,438.71225 C 263.78031,431.49353 265.63187,420.68885 265.63194,406.29819 C 265.63187,391.86075 263.78031,381.05608 260.07726,373.88412 C 256.42095,366.66547 250.91314,363.0561 243.55382,363.056 M 243.55382,351.806 C 255.31939,351.80611 264.29594,356.47016 270.48351,365.79819 C 276.7178,375.07952 279.83499,388.57951 279.83507,406.29819 C 279.83499,423.9701 276.7178,437.47008 270.48351,446.79819 C 264.29594,456.07944 255.31939,460.72006 243.55382,460.72006 C 231.78816,460.72006 222.78817,456.07944 216.55382,446.79819 C 210.36631,437.47008 207.27256,423.9701 207.27257,406.29819 C 207.27256,388.57951 210.36631,375.07952 216.55382,365.79819 C 222.78817,356.47016 231.78816,351.80611 243.55382,351.806" style="font-size:144px;font-style:normal;font-weight:normal;fill:#e74c3c;fill-opacity:1;stroke:none;stroke-width:1px;stroke-linecap:butt;stroke-linejoin:miter;stroke-opacity:1;font-family:Bitstream Vera Sans"/>
   <rect id="rect2392" width="88.571" height="162.857" x="200.5" y="324.51" style="fill:none;fill-opacity:0;stroke:none;stroke-opacity:1"/>
  </g>
  <g id="1_1" transform="translate(607.43839,-18.268221)">
   <rect id="rect2396" width="88.571" height="162.857" x="380.54" y="326.77" style="fill:url(#linearGradient2488);fill-opacity:1;opacity:0"/>
   <path id="text2398" d="M 396.18375,448.57602 L 419.38687,448.57602 L 419.38687,368.49008 L 394.14468,373.55258 L 394.14468,360.61508 L 419.24625,355.55258 L 433.44937,355.55258 L 433.44937,448.57602 L 456.6525,448.57602 L 456.6525,460.52914 L 396.18375,460.52914 L 396.18375,448.57602" style="font-size:144px;font-style:normal;font-weight:normal;fill:#e74c3c;fill-opacity:1;stroke:none;stroke-width:1px;stroke-linecap:butt;stroke-linejoin:miter;stroke-opacity:1;font-family:Bitstream Vera Sans"/>
   <rect id="rect2402" width="88.571" height="162.857" x="381.04" y="326.36" style="fill:none;fill-opacity:0;stroke:none;stroke-opacity:1"/>
  </g>
  <g id="2_1" transform="translate(607.43839,-18.268221)">
   <rect id="rect2406" width="88.571" height="162.857" x="551.55" y="324.58" style="fill:url(#linearGradient2492);fill-opacity:1;opacity:0"/>
   <path id="text2408" d="M 576.96606,446.38358 L 626.53638,446.38358 L 626.53638,458.3367 L 559.88013,458.3367 L 559.88013,446.38358 C 565.27074,440.80547 572.60667,433.32891 581.88794,423.95389 C 591.21602,414.53206 597.07539,408.46175 599.46606,405.74295 C 604.01288,400.63363 607.17694,396.32114 608.95825,392.80545 C 610.78632,389.24302 611.70038,385.75084 611.70044,382.32889 C 611.70038,376.75084 609.73163,372.20397 605.79419,368.68826 C 601.90351,365.17273 596.81758,363.41492 590.53638,363.41483 C 586.08322,363.41492 581.37228,364.18836 576.40356,365.73514 C 571.48167,367.2821 566.20824,369.62585 560.58325,372.76639 L 560.58325,358.42264 C 566.30198,356.12587 571.64573,354.39149 576.6145,353.21951 C 581.58322,352.04774 586.13009,351.46181 590.25513,351.4617 C 601.13008,351.46181 609.80194,354.18055 616.27075,359.61795 C 622.73943,365.05554 625.9738,372.32116 625.97388,381.41483 C 625.9738,385.7274 625.15349,389.82896 623.51294,393.71951 C 621.91912,397.56332 618.98943,402.11019 614.72388,407.36014 C 613.55194,408.71956 609.82538,412.65706 603.54419,419.17264 C 597.26289,425.64142 588.40353,434.71172 576.96606,446.38358" style="font-size:144px;font-style:normal;font-weight:normal;fill:#e74c3c;fill-opacity:1;stroke:none;stroke-width:1px;stroke-linecap:butt;stroke-linejoin:miter;stroke-opacity:1;font-family:Bitstream Vera Sans"/>
   <rect id="rect2412" width="88.571" height="162.857" x="552.05" y="324.17" style="fill:none;fill-opacity:0;stroke:none;stroke-opacity:1"/>
  </g>
  <g id="3_1" transform="translate(607.43839,-18.268221)">
   <rect id="rect2416" width="88.571" height="162.857" x="205.15" y="556.97" style="fill:url(#linearGradient2496);fill-opacity:1;opacity:0"/>
   <path id="text2418" d="M 261.36034,634.13177 C 268.15715,635.58496 273.45402,638.60839 277.25096,643.20209 C 281.09463,647.79588 283.01651,653.46775 283.01659,660.21771 C 283.01651,670.57711 279.45401,678.59272 272.32909,684.26459 C 265.20402,689.93646 255.07903,692.7724 241.95409,692.7724 C 237.5478,692.7724 233.00093,692.32709 228.31346,691.43646 C 223.67282,690.59271 218.86813,689.30365 213.8994,687.56927 L 213.8994,673.85834 C 217.83688,676.15523 222.14938,677.8896 226.8369,679.06146 C 231.52437,680.23335 236.4228,680.81928 241.53221,680.81927 C 250.43841,680.81928 257.21184,679.06147 261.85252,675.54584 C 266.53996,672.03023 268.88371,666.92086 268.88377,660.21771 C 268.88371,654.03025 266.70402,649.20213 262.34471,645.73334 C 258.03216,642.21776 252.00872,640.45995 244.2744,640.4599 L 232.04002,640.4599 L 232.04002,628.78802 L 244.8369,628.78802 C 251.82122,628.78809 257.16497,627.40528 260.86815,624.63959 C 264.57121,621.82716 266.42277,617.79591 266.42284,612.54584 C 266.42277,607.1553 264.5009,603.0303 260.65721,600.17084 C 256.86028,597.26468 251.39935,595.81156 244.2744,595.81146 C 240.38374,595.81156 236.21187,596.23343 231.75877,597.07709 C 227.30562,597.92093 222.40719,599.23343 217.06346,601.01459 L 217.06346,588.35834 C 222.45407,586.85844 227.49312,585.73344 232.18065,584.98334 C 236.91499,584.23344 241.36811,583.85844 245.54002,583.85834 C 256.32122,583.85844 264.85246,586.31938 271.13377,591.24115 C 277.41495,596.11624 280.55557,602.72561 280.55565,611.06927 C 280.55557,616.88185 278.89151,621.80372 275.56346,625.8349 C 272.23527,629.81934 267.5009,632.58496 261.36034,634.13177" style="font-size:144px;font-style:normal;font-weight:normal;fill:#e74c3c;fill-opacity:1;stroke:none;stroke-width:1px;stroke-linecap:butt;stroke-linejoin:miter;stroke-opacity:1;font-family:Bitstream Vera Sans"/>
   <rect id="rect2422" width="88.571" height="162.857" x="205.65" y="556.57" style="fill:none;fill-opacity:0;stroke:none;stroke-opacity:1"/>
  </g>
  <g id="4_1" transform="translate(607.43839,-18.268221)">
   <rect id="rect2426" width="88.571" height="162.857" x="384.93" y="559.16" style="fill:url(#linearGradient2500);fill-opacity:1;opacity:0"/>
   <path id="text2428" d="M 437.1311,600.32416 L 401.27173,656.36322 L 437.1311,656.36322 L 437.1311,600.32416 M 433.40454,587.94916 L 451.26392,587.94916 L 451.26392,656.36322 L 466.24048,656.36322 L 466.24048,668.17572 L 451.26392,668.17572 L 451.26392,692.92572 L 437.1311,692.92572 L 437.1311,668.17572 L 389.74048,668.17572 L 389.74048,654.46478 L 433.40454,587.94916" style="font-size:144px;font-style:normal;font-weight:normal;fill:#e74c3c;fill-opacity:1;stroke:none;stroke-width:1px;stroke-linecap:butt;stroke-linejoin:miter;stroke-opacity:1;font-family:Bitstream Vera Sans"/>
   <rect id="rect2432" width="88.571" height="162.857" x="385.43" y="558.76" style="fill:none;fill-opacity:0;stroke:none;stroke-opacity:1"/>
  </g>
  <g id="5_1" transform="translate(607.43839,-18.268221)">
   <rect id="rect2436" width="88.571" height="162.857" x="562.51" y="576.71" style="fill:url(#linearGradient2504);fill-opacity:1;stroke:none;opacity:0"/>
   <path id="text2438" d="M 575.83441,605.48859 L 631.59222,605.48859 L 631.59222,617.44171 L 588.84222,617.44171 L 588.84222,643.17609 C 590.90469,642.47303 592.96719,641.9574 595.02972,641.62921 C 597.09219,641.25428 599.15469,641.06678 601.21722,641.06671 C 612.93592,641.06678 622.21716,644.27772 629.06097,650.69952 C 635.90465,657.12145 639.32652,665.81676 639.3266,676.78546 C 639.32652,688.08236 635.8109,696.87141 628.77972,703.15265 C 621.74841,709.38703 611.83436,712.50421 599.03754,712.50421 C 594.63125,712.50421 590.13126,712.12921 585.53754,711.37921 C 580.99064,710.62921 576.27971,709.50421 571.40472,708.00421 L 571.40472,693.73077 C 575.62346,696.02766 579.98283,697.7386 584.48285,698.86359 C 588.98282,699.9886 593.74063,700.5511 598.75629,700.55109 C 606.86562,700.5511 613.28748,698.41829 618.02191,694.15265 C 622.75622,689.88704 625.12341,684.09799 625.12347,676.78546 C 625.12341,669.473 622.75622,663.68395 618.02191,659.41827 C 613.28748,655.1527 606.86562,653.01989 598.75629,653.01984 C 594.95938,653.01989 591.16251,653.44177 587.36566,654.28546 C 583.61564,655.12927 579.77189,656.44177 575.83441,658.22296 L 575.83441,605.48859" style="font-size:144px;font-style:normal;font-weight:normal;fill:#e74c3c;fill-opacity:1;stroke:none;stroke-width:1px;stroke-linecap:butt;stroke-linejoin:miter;stroke-opacity:1;font-family:Bitstream Vera Sans"/>
   <rect id="rect2442" width="88.571" height="162.857" x="563.01" y="576.3" style="fill:none;fill-opacity:0;stroke:none;stroke-opacity:1"/>
  </g>
  <g id="6_1" transform="translate(607.43839,-18.268221)">
   <rect id="rect2446" width="88.571" height="162.857" x="213.92" y="806.91" style="fill:url(#linearGradient2508);fill-opacity:1;opacity:0"/>
   <path id="text2448" d="M 259.23163,882.52094 C 252.85659,882.52099 247.79409,884.70068 244.04413,889.06 C 240.34097,893.41942 238.48941,899.39598 238.48944,906.98969 C 238.48941,914.53659 240.34097,920.51314 244.04413,924.91937 C 247.79409,929.27876 252.85659,931.45844 259.23163,931.45844 C 265.60657,931.45844 270.64563,929.27876 274.34882,924.91937 C 278.09875,920.51314 279.97375,914.53659 279.97382,906.98969 C 279.97375,899.39598 278.09875,893.41942 274.34882,889.06 C 270.64563,884.70068 265.60657,882.52099 259.23163,882.52094 M 287.42694,838.01312 L 287.42694,850.95062 C 283.86437,849.26321 280.255,847.97415 276.59882,847.08344 C 272.98938,846.1929 269.40345,845.74759 265.841,845.7475 C 256.46596,845.74759 249.29409,848.91165 244.32538,855.23969 C 239.40348,861.56789 236.59098,871.13038 235.88788,883.92719 C 238.65348,879.84912 242.12222,876.73194 246.29413,874.57562 C 250.46596,872.37257 255.05971,871.271 260.07538,871.27094 C 270.62219,871.271 278.9425,874.48194 285.03632,880.90375 C 291.17686,887.2788 294.24717,895.9741 294.24725,906.98969 C 294.24717,917.77096 291.05967,926.41939 284.68475,932.935 C 278.30969,939.45062 269.82532,942.70843 259.23163,942.70844 C 247.09097,942.70843 237.80973,938.06781 231.38788,928.78656 C 224.96599,919.45846 221.75506,905.95847 221.75507,888.28656 C 221.75506,871.69288 225.69255,858.47414 233.56757,848.63031 C 241.44254,838.73979 252.01284,833.79448 265.2785,833.79437 C 268.84095,833.79448 272.42688,834.14604 276.03632,834.84906 C 279.6925,835.55229 283.48937,836.60698 287.42694,838.01312" style="font-size:144px;font-style:normal;font-weight:normal;fill:#e74c3c;fill-opacity:1;stroke:none;stroke-width:1px;stroke-linecap:butt;stroke-linejoin:miter;stroke-opacity:1;font-family:Bitstream Vera Sans"/>
   <rect id="rect2452" width="88.571" height="162.857" x="214.42" y="806.5" style="fill:none;fill-opacity:0;stroke:none;stroke-opacity:1"/>
  </g>
  <g id="8_1" transform="translate(607.43839,-18.268221)">
   <rect id="rect2456" width="88.571" height="162.857" x="578.35" y="831.29" style="fill:url(#linearGradient2512);fill-opacity:1;opacity:0"/>
   <path id="text2458" d="M 621.90576,915.2027 C 615.15572,915.20275 609.83542,917.00743 605.94482,920.61676 C 602.10105,924.22618 600.17918,929.19492 600.1792,935.52301 C 600.17918,941.85116 602.10105,946.8199 605.94482,950.42926 C 609.83542,954.03865 615.15572,955.84333 621.90576,955.84332 C 628.65571,955.84333 633.97602,954.03865 637.8667,950.42926 C 641.75726,946.77303 643.70257,941.80428 643.70264,935.52301 C 643.70257,929.19492 641.75726,924.22618 637.8667,920.61676 C 634.02289,917.00743 628.70258,915.20275 621.90576,915.2027 M 607.70264,909.15582 C 601.60886,907.65588 596.85105,904.81995 593.4292,900.64801 C 590.05419,896.4762 588.36669,891.39027 588.3667,885.3902 C 588.36669,876.99966 591.34325,870.36685 597.29639,865.49176 C 603.29636,860.61686 611.49948,858.17937 621.90576,858.17926 C 632.35883,858.17937 640.56195,860.61686 646.51514,865.49176 C 652.46819,870.36685 655.44474,876.99966 655.44482,885.3902 C 655.44474,891.39027 653.73381,896.4762 650.31201,900.64801 C 646.93694,904.81995 642.22601,907.65588 636.1792,909.15582 C 643.02288,910.74963 648.34319,913.86681 652.14014,918.50739 C 655.98381,923.14805 657.90568,928.81992 657.90576,935.52301 C 657.90568,945.6949 654.7885,953.49958 648.5542,958.93707 C 642.36663,964.37457 633.48383,967.09332 621.90576,967.09332 C 610.3276,967.09332 601.42136,964.37457 595.18701,958.93707 C 588.9995,953.49958 585.90575,945.6949 585.90576,935.52301 C 585.90575,928.81992 587.82763,923.14805 591.67139,918.50739 C 595.51512,913.86681 600.85886,910.74963 607.70264,909.15582 M 602.49951,886.72614 C 602.49949,892.16371 604.18698,896.40589 607.56201,899.4527 C 610.98385,902.49964 615.7651,904.02307 621.90576,904.02301 C 627.99946,904.02307 632.75727,902.49964 636.1792,899.4527 C 639.64789,896.40589 641.38226,892.16371 641.38232,886.72614 C 641.38226,881.28872 639.64789,877.04654 636.1792,873.99957 C 632.75727,870.95279 627.99946,869.42936 621.90576,869.42926 C 615.7651,869.42936 610.98385,870.95279 607.56201,873.99957 C 604.18698,877.04654 602.49949,881.28872 602.49951,886.72614" style="font-size:144px;font-style:normal;font-weight:normal;fill:#e74c3c;fill-opacity:1;stroke:none;stroke-width:1px;stroke-linecap:butt;stroke-linejoin:miter;stroke-opacity:1;font-family:Bitstream Vera Sans"/>
   <rect id="rect2462" width="88.571" height="162.857" x="578.85" y="830.89" style="fill:none;fill-opacity:0;stroke:none;stroke-opacity:1"/>
  </g>
  <g id="9_1" transform="translate(607.43839,-18.268221)">
   <rect id="rect2466" width="88.571" height="162.857" x="206.68" y="1023.22" style="fill:url(#linearGradient2516);fill-opacity:1;stroke:none;opacity:0"/>
   <path id="text2468" d="M 220.27869,1154.8047 L 220.27869,1141.8672 C 223.84117,1143.5547 227.45054,1144.8438 231.10681,1145.7344 C 234.76303,1146.625 238.34897,1147.0703 241.86462,1147.0703 C 251.23958,1147.0703 258.38801,1143.9297 263.30994,1137.6484 C 268.27862,1131.3203 271.11456,1121.7344 271.81775,1108.8906 C 269.09893,1112.9219 265.65363,1116.0157 261.48181,1118.1719 C 257.30988,1120.3282 252.6927,1121.4063 247.63025,1121.4062 C 237.13022,1121.4063 228.80991,1118.2422 222.66931,1111.9141 C 216.57555,1105.5391 213.52868,1096.8438 213.52869,1085.8281 C 213.52868,1075.047 216.71617,1066.3985 223.09119,1059.8828 C 229.46616,1053.3673 237.95053,1050.1095 248.54431,1050.1094 C 260.68488,1050.1095 269.94268,1054.7735 276.31775,1064.1016 C 282.73955,1073.3829 285.95048,1086.8829 285.95056,1104.6016 C 285.95048,1121.1485 282.01298,1134.3672 274.13806,1144.2578 C 266.30987,1154.1016 255.76301,1159.0234 242.49744,1159.0234 C 238.9349,1159.0234 235.32553,1158.6719 231.66931,1157.9688 C 228.01304,1157.2656 224.21617,1156.2109 220.27869,1154.8047 M 248.54431,1110.2969 C 254.91926,1110.2969 259.95832,1108.1172 263.6615,1103.7578 C 267.41144,1099.3985 269.28643,1093.4219 269.2865,1085.8281 C 269.28643,1078.2813 267.41144,1072.3282 263.6615,1067.9688 C 259.95832,1063.5626 254.91926,1061.3595 248.54431,1061.3594 C 242.16927,1061.3595 237.10678,1063.5626 233.35681,1067.9688 C 229.65366,1072.3282 227.8021,1078.2813 227.80212,1085.8281 C 227.8021,1093.4219 229.65366,1099.3985 233.35681,1103.7578 C 237.10678,1108.1172 242.16927,1110.2969 248.54431,1110.2969" style="font-size:144px;font-style:normal;font-weight:normal;fill:#e74c3c;fill-opacity:1;font-family:Bitstream Vera Sans"/>
   <rect id="rect2472" width="88.571" height="162.857" x="207.18" y="1022.82" style="fill:none;fill-opacity:0;stroke:none;stroke-opacity:1"/>
  </g>
  <g id="7_1" transform="translate(607.43839,-18.268221)">
   <rect id="rect2476" width="88.571" height="162.857" x="400.93" y="811.34" style="fill:url(#linearGradient2520);fill-opacity:1;opacity:0"/>
   <path id="text2478" d="M 410.52145,840.12445 L 478.02145,840.12445 L 478.02145,846.17133 L 439.91208,945.10101 L 425.07614,945.10101 L 460.93552,852.07758 L 410.52145,852.07758 L 410.52145,840.12445" style="font-size:144px;font-style:normal;font-weight:normal;fill:#e74c3c;fill-opacity:1;stroke:none;stroke-width:1px;stroke-linecap:butt;stroke-linejoin:miter;stroke-opacity:1;font-family:Bitstream Vera Sans"/>
   <rect id="rect2482" width="88.571" height="162.857" x="401.43" y="810.93" style="fill:none;fill-opacity:0;stroke:none;stroke-opacity:1"/>
  </g>
  <g id="separator_1" transform="translate(-134.80315,-0.2231981)">
   <rect id="rect2320" width="45" height="163.082" x="200" y="324.28" style="opacity:1;fill:none;fill-opacity:1;stroke:none;stroke-opacity:1"/>
   <text id="text2322" x="199.02" y="442.09" xml:space="preserve" style="font-size:144px;font-style:normal;font-weight:normal;fill:#e74c3c;fill-opacity:1;stroke:none;stroke-width:1px;stroke-linecap:butt;stroke-linejoin:miter;stroke-opacity:1;font-family:Bitstream Vera Sans">
    <tspan id="tspan2324" x="199.02" y="442.09">:</tspan>
   </text>
  </g>
  <g id="separatorB_1" transform="translate(-134.80315,175.1705)">
   <rect id="rect2561" width="45" height="163.082" x="200" y="324.28" style="opacity:1;fill:none;fill-opacity:1;stroke:none;stroke-opacity:1"/>
   <path id="text2563" d="M 214.42249,424.22943 L 229.25842,424.22943 L 229.25842,442.08881 L 214.42249,442.08881 L 214.42249,424.22943" style="font-size:144px;font-style:normal;font-weight:normal;fill:#e74c3c;fill-opacity:1;stroke:none;stroke-width:1px;stroke-linecap:butt;stroke-linejoin:miter;stroke-opacity:1;font-family:Bitstream Vera Sans"/>
  </g>
  <g id="separatorB" transform="translate(-196.19095,181.74775)">
   <rect id="rect2569" width="45" height="163.082" x="200" y="324.28" style="opacity:1;fill:none;fill-opacity:1;stroke:none;stroke-opacity:1"/>
   <path id="text2571" d="M 214.42249,424.22943 L 229.25842,424.22943 L 229.25842,442.08881 L 214.42249,442.08881 L 214.42249,424.22943" style="font-size:144px;font-style:normal;font-weight:normal;fill:#d3dae3;fill-opacity:1;stroke:none;stroke-width:1px;stroke-linecap:butt;stroke-linejoin:miter;stroke-opacity:1;font-family:Bitstream Vera Sans;opacity:1"/>
  </g>
  <g id="separatorC" transform="translate(-193.99853,354.94902)">
   <rect id="rect2577" width="45" height="163.082" x="200" y="324.28" style="opacity:1;fill:none;fill-opacity:1;stroke:none;stroke-opacity:1"/>
  </g>
  <g id="separatorC_1" transform="translate(-134.80314,350.56418)">
   <rect id="rect2585" width="45" height="163.082" x="200" y="324.28" style="opacity:1;fill:none;fill-opacity:1;stroke:none;stroke-opacity:1"/>
  </g>
 </g>
</svg>
