<svg xmlns="http://www.w3.org/2000/svg" xmlns:xlink="http://www.w3.org/1999/xlink" id="svg3642" width="300" height="148" version="1">
 <defs id="defs3644">
  <linearGradient id="linearGradient3348-8">
   <stop id="stop3350-8" style="stop-color:#000000;stop-opacity:1;" offset="0"/>
   <stop id="stop3356-7" style="stop-color:#000000;stop-opacity:0.61206895;" offset=".92"/>
   <stop id="stop3384-4" style="stop-color:#000000;stop-opacity:0.19827586;" offset=".96"/>
   <stop id="stop3352-8" style="stop-color:#000000;stop-opacity:0;" offset="1"/>
  </linearGradient>
  <radialGradient id="radialGradient4432" cx="230" cy="61" r="11" fx="230" fy="61" gradientTransform="matrix(0,-2,-2,0,367.00001,593.00001)" gradientUnits="userSpaceOnUse" xlink:href="#linearGradient3348-8"/>
  <radialGradient id="radialGradient4438" cx="230" cy="61" r="11" fx="230" fy="61" gradientTransform="matrix(0,2,-2,0,367.00001,-417.00001)" gradientUnits="userSpaceOnUse" xlink:href="#linearGradient3348-8"/>
  <radialGradient id="radialGradient4443" cx="230" cy="61" r="11" fx="230" fy="61" gradientTransform="matrix(2,0,0,-2,-260,210)" gradientUnits="userSpaceOnUse" xlink:href="#linearGradient3348-8"/>
  <radialGradient id="radialGradient4448" cx="230" cy="61" r="11" fx="230" fy="61" gradientTransform="matrix(-2,0,0,-2,750.00002,210)" gradientUnits="userSpaceOnUse" xlink:href="#linearGradient3348-8"/>
 </defs>
 <g id="layer1">
  <rect id="hint-stretch-borders" style="opacity:0.875;fill:#008000;fill-opacity:1;stroke:none;stroke-width:0;stroke-miterlimit:4;stroke-dasharray:none;stroke-opacity:1" width="5" height="4.375" x="1" y="1"/>
  <path id="center" style="opacity:0.95;fill:#383C4A;fill-opacity:1;stroke:none" d="m 9.813744,88.17583 0,44.99989 75,0 0,-44.99989 -75,0 z"/>
  <g id="bottomleft" style="opacity:1">
   <path id="path4844" style="fill:#383C4A;fill-opacity:1;stroke:none;opacity:0.95" d="m 2.311789,133.17658 0,0.0705 c 0,4.11945 2.710373,7.42965 6.070313,7.42965 l 1.429687,0 0,-7.5 -7.5,0 z"/>
   <path id="path5730-6-14-5-6-0-9" style="fill:#000000;fill-opacity:0.2;fill-rule:evenodd;stroke:none;stroke-width:1;marker:none;visibility:visible;display:inline;overflow:visible;enable-background:accumulate" d="m 2.593039,133.17651 c 0,3.99918 3.219563,7.21875 7.21875,7.21875 l 0,1.03125 c -4.5705,0 -8.25,-3.6795 -8.25,-8.25 l 1.03125,0 z"/>
  </g>
  <g id="bottomright" style="opacity:1">
   <path id="path4848" style="fill:#383C4A;fill-opacity:1;stroke:none;opacity:0.95" d="m 84.814721,133.17651 0,7.5 1.429687,0 c 3.359941,0 6.070313,-3.3102 6.070313,-7.42965 l 0,-0.0705 -7.5,0 z"/>
   <path id="path5730-6-6-9-4-8-1-6" style="fill:#000000;fill-opacity:0.2;fill-rule:evenodd;stroke:none;stroke-width:1;marker:none;visibility:visible;display:inline;overflow:visible;enable-background:accumulate" d="m 84.814721,140.39526 c 3.999187,0 7.21875,-3.21957 7.21875,-7.21875 l 1.03125,0 c 0,4.5705 -3.6795,8.25 -8.25,8.25 l 0,-1.03125 z"/>
  </g>
  <g id="topright" style="opacity:1">
   <path id="path4846" style="fill:#383C4A;fill-opacity:1;stroke:none;opacity:0.95" d="m 84.813744,80.67537 0,7.5 7.5,0 0,-0.07027 c 0,-4.119435 -2.710373,-7.429687 -6.070313,-7.429687 l -1.429687,0 z"/>
   <path id="path5730-9-1-8-3-1-6" style="fill:#000000;fill-opacity:0.2;fill-rule:evenodd;stroke:none;stroke-width:1;marker:none;visibility:visible;display:inline;overflow:visible;enable-background:accumulate" d="m 92.032494,88.175518 c 0,-3.999188 -3.219563,-7.21875 -7.21875,-7.21875 l 0,-1.03125 c 4.5705,0 8.25,3.679499 8.25,8.25 l -1.03125,0 z"/>
  </g>
  <g id="left" style="opacity:1">
   <path id="path4854" style="fill:#383C4A;fill-opacity:1;stroke:none;opacity:0.95" d="m 2.313744,88.175593 0,44.999947 7.5,0 0,-44.999948 -7.5,0 z"/>
   <path id="path5711-9-9-8-3-2" style="fill:#000000;fill-opacity:0.2;fill-rule:evenodd;stroke:none;stroke-width:1;marker:none;visibility:visible;display:inline;overflow:visible" d="m 2.613744,133.17569 0,-45.000003 -1.05,0 0,45.000003 1.05,0 z"/>
  </g>
  <g id="right" style="opacity:1">
   <path id="rect1921-1-3-6-5-3-5" style="fill:#383C4A;fill-opacity:1;stroke:none;opacity:0.95" d="m 84.813744,88.175605 0,44.999925 7.5,0 0,-44.999925 -7.5,0 z"/>
   <path id="path5711-8-63-1-3-6-0" style="fill:#000000;fill-opacity:0.2;fill-rule:evenodd;stroke:none;stroke-width:1;marker:none;visibility:visible;display:inline;overflow:visible" d="m 93.063744,133.17568 0,-45.000002 -1.05,0 0,45.000002 1.05,0 z"/>
  </g>
  <g id="top" style="opacity:1">
   <path id="path4850" style="fill:#383C4A;fill-opacity:1;stroke:none;opacity:0.95" d="m 9.813744,80.67575 0,7.5 75,0 0,-7.5 -75,0 z"/>
   <path id="rect5025-5-5-9-8-0" style="fill:#000000;fill-opacity:0.2;fill-rule:evenodd;stroke:none;stroke-width:1;marker:none;visibility:visible;display:inline;overflow:visible;enable-background:accumulate" d="m 84.813729,80.975897 -74.999985,0 0,-1.049999 74.999985,0 0,1.049999 z"/>
  </g>
  <g id="bottom" style="opacity:1">
   <path id="path4852" style="fill:#383C4A;fill-opacity:1;stroke:none;opacity:0.95" d="m 9.814721,133.1759 0,7.5 75,0 0,-7.5 -75,0 z"/>
   <path id="rect5025-3-7-7-6-1-1" style="fill:#000000;fill-opacity:0.2;fill-rule:evenodd;stroke:none;stroke-width:1;marker:none;visibility:visible;display:inline;overflow:visible;enable-background:accumulate" d="m 84.814706,141.4259 -74.999985,0 0,-1.05 74.999985,0 0,1.05 z"/>
  </g>
  <g id="topleft" style="opacity:1">
   <path id="path4842" style="fill:#383C4A;fill-opacity:1;stroke:none;opacity:0.95" d="m 8.384056,80.675375 c -3.35994,0 -6.070312,3.310253 -6.070312,7.429688 l 0,0.07027 7.5,0 0,-7.5 -1.429688,0 z"/>
   <path id="path5730-6-14-1-1-4-0-7" style="fill:#000000;fill-opacity:0.2;fill-rule:evenodd;stroke:none;stroke-width:1;marker:none;visibility:visible;display:inline;overflow:visible;enable-background:accumulate" d="m 9.813744,80.956757 c -3.999188,0 -7.21875,3.219563 -7.21875,7.21875 l -1.03125,0 c 0,-4.5705 3.6795,-8.25 8.25,-8.25 l 0,1.03125 z"/>
  </g>
  <g id="desktop-northeast" style="opacity:1">
   <path id="path3577" style="fill:#383C4A;fill-opacity:1;stroke:none;opacity:0.95" d="M 87.500001,58 A 22.5,22.5 0 0 1 65,35.499999 L 87.5,35.5 z" transform="matrix(0.9777775,0,0,0.9777777,91.44446,26.288897)"/>
   <path id="path3579" style="fill:#000000;fill-opacity:0.2;stroke:none" d="m 155,61.000005 c 0,12.143998 9.856,22 22,22 l 0,-1 c -11.891,10e-7 -21,-9.109001 -21,-21 l -1,0 z"/>
  </g>
  <g id="desktop-northwest" style="opacity:1">
   <path id="path3473" style="fill:#383C4A;fill-opacity:1;stroke:none;opacity:0.95" d="M 87.500001,58 A 22.5,22.5 0 0 1 65,35.499999 L 87.5,35.5 z" transform="matrix(-0.9777775,0,0,0.9777777,191.55554,26.288892)"/>
   <path id="path3475" style="fill:#000000;fill-opacity:0.2;stroke:none" d="m 128,61 c 0,12.143998 -9.856,22 -22,22 l 0,-1 c 11.891,10e-7 21,-9.109001 21,-21 l 1,0 z"/>
  </g>
  <g id="desktop-southwest" style="opacity:1">
   <path id="path3591" style="fill:#383C4A;fill-opacity:1;stroke:none;opacity:0.95" d="M 87.500001,58 A 22.5,22.5 0 0 1 65,35.499999 L 87.5,35.5 z" transform="matrix(-0.9777775,0,0,-0.9777777,191.55554,167.71111)"/>
   <path id="path3593" style="fill:#000000;fill-opacity:0.2;stroke:none" d="m 128,133 c 0,-12.144 -9.856,-22 -22,-22 l 0,1 c 11.891,0 21,9.109 21,21 l 1,0 z"/>
  </g>
  <g id="desktop-southeast" style="opacity:1">
   <path id="path3599" style="fill:#383C4A;fill-opacity:1;stroke:none;opacity:0.95" d="M 87.500001,58 A 22.5,22.5 0 0 1 65,35.499999 L 87.5,35.5 z" transform="matrix(0.9777775,0,0,-0.9777777,91.44446,167.7111)"/>
   <path id="path3601" style="fill:#000000;fill-opacity:0.2;stroke:none" d="m 155,132.99999 c 0,-12.144 9.856,-22 22,-22 l 0,1 c -11.891,0 -21,9.109 -21,21 l -1,0 z"/>
  </g>
  <g id="panel-east" style="opacity:1">
   <path id="path3500" style="opacity:0.41791047;fill:url(#radialGradient4448);fill-opacity:1;stroke:none" d="m 290.00002,66 c -12.144,0 -22,9.856002 -22,22 0,12.144 9.856,22 22,22 l 0,-2 c -11.04001,0 -20,-8.960001 -20,-20 -1e-5,-11.039999 8.96,-20 20,-20 l 0,-2 z"/>
   <path id="path3485" style="fill:#383C4A;fill-opacity:1;stroke:none;opacity:0.95" d="m 235,73 a 20,22.5 0 1 1 0,-45 l 0,22.5 z" transform="matrix(1,0,0,0.8888888,55.000014,43.111126)"/>
   <path id="path3487" style="fill:#000000;fill-opacity:0.2;stroke:none" d="m 290.00001,68.000009 c -11.04,0 -20,8.96 -20,20 0,11.039999 8.96,20.000001 20,20.000001 l 0,-1 c -10.488,0 -19,-8.512002 -19,-19.000001 0,-10.488 8.512,-19 19,-19 l 0,-1 z"/>
  </g>
  <g id="panel-west" style="opacity:1">
   <path id="path3555" style="opacity:0.41791047;fill:url(#radialGradient4443);fill-opacity:1;stroke:none" d="m 200,66 c 12.144,0 22,9.856002 22,22 0,12.144 -9.856,22 -22,22 l 0,-2 c 11.04001,0 20,-8.960001 20,-20 1e-5,-11.039999 -8.96,-20 -20,-20 l 0,-2 z"/>
   <path id="path3557" style="fill:#383C4A;fill-opacity:1;stroke:none;opacity:0.95" d="m 235,73 a 20,22.5 0 1 1 0,-45 l 0,22.5 z" transform="matrix(-1,0,0,0.8888888,435.00001,43.111126)"/>
   <path id="path3559" style="fill:#000000;fill-opacity:0.2;stroke:none" d="m 200.00001,68.000009 c 11.04,0 20,8.96 20,20 0,11.039999 -8.96,20.000001 -20,20.000001 l 0,-1 c 10.488,0 19,-8.512002 19,-19.000001 0,-10.488 -8.512,-19 -19,-19 l 0,-1 z"/>
  </g>
  <g id="panel-north" style="opacity:1">
   <path id="path3666" style="opacity:0.41791047;fill:url(#radialGradient4438);fill-opacity:1;stroke:none" d="m 223.00001,42.99999 c 0,12.144 9.856,22 22,22 12.144,0 22,-9.856 22,-22 l -2,0 c 0,11.04001 -8.96,20 -20,20 -11.04,1e-5 -20,-8.96 -20,-20 l -2,0 z"/>
   <path id="path3668" style="fill:#383C4A;fill-opacity:1;stroke:none;opacity:0.95" d="m 235,73 a 20,22.5 0 1 1 0,-45 l 0,22.5 z" transform="matrix(0,-1,0.8888888,0,200.11114,278)"/>
   <path id="path3670" style="fill:#000000;fill-opacity:0.2;stroke:none" d="m 225.00002,43 c 0,11.04 8.96,20 20,20 11.04,0 20,-8.96 20,-20 l -1,0 c 0,10.488 -8.512,19 -19,19 -10.488,0 -19,-8.512 -19,-19 l -1,0 z"/>
  </g>
  <g id="panel-south" style="opacity:1">
   <path id="path3674" style="opacity:0.41791047;fill:url(#radialGradient4432);fill-opacity:1;stroke:none" d="m 223.00001,133.00001 c 0,-12.144 9.856,-22 22,-22 12.144,0 22,9.856 22,22 l -2,0 c 0,-11.04001 -8.96,-20 -20,-20 -11.04,-1e-5 -20,8.96 -20,20 l -2,0 z"/>
   <path id="path3676" style="fill:#383C4A;fill-opacity:1;stroke:none;opacity:0.95" d="m 235,73 a 20,22.5 0 1 1 0,-45 l 0,22.5 z" transform="matrix(0,1,0.8888888,0,200.11114,-102)"/>
   <path id="path3678" style="fill:#000000;fill-opacity:0.2;stroke:none" d="m 225.00002,133 c 0,-11.04 8.96,-20 20,-20 11.04,0 20,8.96 20,20 l -1,0 c 0,-10.488 -8.512,-19 -19,-19 -10.488,0 -19,8.512 -19,19 l -1,0 z"/>
  </g>
 </g>
</svg>
