<svg xmlns="http://www.w3.org/2000/svg"  width="16" height="16" version="1.1">
 <g id="active-center">
  <rect style="opacity:0.001" width="16" height="16" x="0" y="0"/>
  <path style="fill:#cc575d" d="m 8.00001,1.00002 a 7,7 0 0 0 -7,7 7,7 0 0 0 7,7 7,7 0 0 0 7,-7 7,7 0 0 0 -7,-7 z m -3,3.921875 h 0.75 c 0.008,-9e-5 0.0156,-3.45e-4 0.0234,0 0.19121,0.0084 0.3824,0.09643 0.51562,0.234375 L 8.00001,6.867208 9.73439,5.15627 c 0.19921,-0.172875 0.335,-0.229125 0.51562,-0.234375 h 0.75 v 0.75 c 0,0.214853 -0.0258,0.412987 -0.1875,0.5625 l -1.71094,1.710937 1.6875,1.6875 C 10.93021,9.77396 11,9.97292 11.00001,10.171895 v 0.75 h -0.75 c -0.19898,-8e-6 -0.39794,-0.06982 -0.53906,-0.210937 L 8.00001,9.00002 6.28907,10.710958 C 6.14795,10.8521 5.94898,10.921895 5.75001,10.921895 h -0.75 v -0.75 c 0,-0.198967 0.0698,-0.397935 0.21094,-0.539063 L 6.92189,7.945332 5.21095,6.234395 C 5.05289,6.088423 4.98358,5.882458 5.00001,5.671895 Z"/>
 </g>
 <g id="hover-center">
  <rect style="opacity:0.001" width="16" height="16" x="18" y="0"/>
  <path style="fill:#d7787d" d="m 26,1.00002 a 7,7 0 0 0 -7,7 7,7 0 0 0 7,7 7,7 0 0 0 7,-7 7,7 0 0 0 -7,-7 z m -3,3.921875 h 0.75 c 0.008,-9e-5 0.0156,-3.45e-4 0.0234,0 0.19121,0.0084 0.3824,0.09643 0.51562,0.234375 L 26,6.867208 27.73438,5.15627 C 27.93359,4.983395 28.06938,4.927145 28.25,4.921895 H 29 v 0.75 c 0,0.214853 -0.0258,0.412987 -0.1875,0.5625 l -1.71094,1.710937 1.6875,1.687498 C 28.9302,9.77396 28.99999,9.97292 29,10.1719 v 0.75 h -0.75 c -0.19898,-1e-5 -0.39794,-0.0698 -0.53906,-0.21094 L 26,9.00002 24.28906,10.71096 C 24.14794,10.8521 23.94897,10.9219 23.75,10.9219 H 23 v -0.75 C 23,9.97293 23.0698,9.77396 23.21094,9.63283 L 24.92188,7.945332 23.21094,6.234395 C 23.05288,6.088423 22.98357,5.882458 23,5.671895 Z"/>
 </g>
 <g id="pressed-center">
  <rect style="opacity:0.001" width="16" height="16" x="36" y="0"/>
  <path style="fill:#be3841" d="m 44.00001,1.00001 a 7,7 0 0 0 -7,7 7,7 0 0 0 7,7 7,7 0 0 0 7,-7 7,7 0 0 0 -7,-7 z m -3,3.92188 h 0.75 c 0.008,-1e-4 0.0156,-3.5e-4 0.0234,0 0.19121,0.008 0.3824,0.0964 0.51562,0.23437 l 1.71094,1.71094 1.73438,-1.71094 c 0.19921,-0.17287 0.335,-0.22913 0.51562,-0.23437 h 0.75 v 0.75 c 0,0.21485 -0.0258,0.41298 -0.1875,0.5625 l -1.71094,1.71093 1.6875,1.6875 c 0.14114,0.14113 0.21093,0.34009 0.21094,0.53907 v 0.75 h -0.75 c -0.19898,-10e-6 -0.39794,-0.0698 -0.53906,-0.21094 l -1.7109,-1.71094 -1.71094,1.71094 c -0.14112,0.14114 -0.34009,0.21094 -0.53906,0.21094 h -0.75 v -0.75 c 0,-0.19897 0.0698,-0.39794 0.21094,-0.53907 L 42.92189,7.94532 41.21095,6.23439 C 41.05289,6.08841 40.98358,5.88245 41.00001,5.67189 Z"/>
 </g>
 <g id="inactive-center">
  <rect style="opacity:0.001" width="16" height="16" x="54" y="0"/>
  <path style="opacity:0.4;fill:#b9bcc2" d="m 62.00001,1.00002 a 7,7 0 0 0 -7,7 7,7 0 0 0 7,7 7,7 0 0 0 7,-7 7,7 0 0 0 -7,-7 z m -3,3.921875 h 0.75 c 0.008,-9e-5 0.0156,-3.45e-4 0.0234,0 0.19121,0.0084 0.3824,0.09643 0.51562,0.234375 l 1.71098,1.710938 1.73438,-1.710938 c 0.19921,-0.172875 0.335,-0.229125 0.51562,-0.234375 h 0.75 v 0.75 c 0,0.214853 -0.0258,0.412987 -0.1875,0.5625 l -1.71094,1.710937 1.6875,1.6875 C 64.93021,9.77396 65,9.97292 65.00001,10.171895 v 0.75 h -0.75 c -0.19898,-8e-6 -0.39794,-0.06982 -0.53906,-0.210937 L 62.00001,9.00002 60.28907,10.710958 c -0.14112,0.141142 -0.34009,0.210937 -0.53906,0.210937 h -0.75 v -0.75 c 0,-0.198967 0.0698,-0.397935 0.21094,-0.539063 l 1.71094,-1.6875 -1.71094,-1.710937 C 59.05289,6.088423 58.98358,5.882458 59.00001,5.671895 Z"/>
 </g>
 <g id="deactivated-center">
  <rect  style="opacity:0.001" width="16" height="16" x="72" y="0"/>
  <path  style="opacity:0.4;fill:#b9bcc2" d="m 80.00001,1.00002 a 7,7 0 0 0 -7,7 7,7 0 0 0 7,7 7,7 0 0 0 7,-7 7,7 0 0 0 -7,-7 z m -3,3.921875 h 0.75 c 0.008,-9e-5 0.0156,-3.45e-4 0.0234,0 0.19121,0.0084 0.3824,0.09643 0.51562,0.234375 l 1.71098,1.710938 1.73438,-1.710938 c 0.19921,-0.172875 0.335,-0.229125 0.51562,-0.234375 h 0.75 v 0.75 c 0,0.214853 -0.0258,0.412987 -0.1875,0.5625 l -1.71094,1.710937 1.6875,1.6875 C 82.93021,9.77396 83,9.97292 83.00001,10.171895 v 0.75 h -0.75 c -0.19898,-8e-6 -0.39794,-0.06982 -0.53906,-0.210937 L 80.00001,9.00002 78.28907,10.710958 c -0.14112,0.141142 -0.34009,0.210937 -0.53906,0.210937 h -0.75 v -0.75 c 0,-0.198967 0.0698,-0.397935 0.21094,-0.539063 l 1.71094,-1.6875 -1.71094,-1.710937 C 77.05289,6.088423 76.98358,5.882458 77.00001,5.671895 Z"/>
 </g>
</svg>
