<svg xmlns="http://www.w3.org/2000/svg"  width="16" height="16" version="1.1">
 <g id="active-center">
  <rect style="opacity:0.001" width="16" height="16" x="0" y="0"/>
  <path style="opacity:0.7;fill:#b9bcc2" d="m 6.7995,5 h 3.3818 C 10.6316,5 10.9975,5.36847 11,5.8188 v 3.3817 z m 2.4074,6.00692 h -3.395 c -0.4504,0 -0.8188,-0.36842 -0.8188,-0.81875 V 6.79308 l 4.2138,4.21384"/>
 </g>
 <g id="hover-center">
  <rect style="opacity:0.001" width="16" height="16" x="18" y="0"/>
  <circle style="opacity:0.45;fill:#5f697f" cx="26" cy="8" r="6"/>
  <path style="opacity:0.37;fill:#15171c" d="m 26,1 a 7,7 0 0 0 -7,7 7,7 0 0 0 7,7 7,7 0 0 0 7,-7 7,7 0 0 0 -7,-7 z m 0,1 a 6,6 0 0 1 6,6 6,6 0 0 1 -6,6 6,6 0 0 1 -6,-6 6,6 0 0 1 6,-6 z"/>
  <path style="fill:#c4c7cc" d="m 24.799505,5 h 3.381737 C 28.631539,5 28.997469,5.36847 29,5.8188 v 3.3817 z m 2.407413,6.00692 H 23.81184 c -0.450346,0 -0.818758,-0.36842 -0.818758,-0.81875 V 6.79308 l 4.213836,4.21384"/>
 </g>
 <g id="pressed-center">
  <rect style="opacity:0.001" width="16" height="16" x="36" y="0"/>
  <circle style="fill:#5294e2" cx="44" cy="8" r="7"/>
  <path style="fill:#ffffff" d="m 42.799505,5 h 3.381737 C 46.631539,5 46.997469,5.36847 47,5.8188 v 3.3817 z m 2.407413,6.00692 H 41.81184 c -0.450346,0 -0.818758,-0.36842 -0.818758,-0.81875 V 6.79308 l 4.213836,4.21384"/>
 </g>
 <g id="inactive-center">
  <rect style="opacity:0.001" width="16" height="16" x="54" y="0"/>
  <path style="opacity:0.4;fill:#b9bcc2" d="m 60.7995,5 h 3.3818 C 64.6316,5 64.9975,5.36847 65,5.8188 v 3.3817 z m 2.4074,6.00692 h -3.395 c -0.4504,0 -0.8188,-0.36842 -0.8188,-0.81875 V 6.79308 l 4.2138,4.21384"/>
 </g>
 <g id="deactivated-center">
  <rect  style="opacity:0.001" width="16" height="16" x="72" y="0"/>
  <path  style="opacity:0.4;fill:#b9bcc2" d="m 78.7995,5 h 3.3818 C 82.6316,5 82.9975,5.36847 83,5.8188 v 3.3817 z m 2.4074,6.00692 h -3.395 c -0.4504,0 -0.8188,-0.36842 -0.8188,-0.81875 V 6.79308 l 4.2138,4.21384"/>
 </g>
</svg>
