<svg xmlns="http://www.w3.org/2000/svg" width="32" height="32" version="1.1">
 <g id="22-22-accessories-dictionary" transform="translate(-5.0000005,-27)">
  <rect style="opacity:0.001" width="22" height="22" x="5" y="5"/>
  <g transform="translate(8,-9)">
   <path style="opacity:0.3;fill:#d3dae3" d="m 0.94,30.75 v -2.19 l 4.22,-1.13 2.34,0.6 2.39,-0.67 3.74,1 v 2.45 z"/>
   <path style="fill:#d3dae3" d="m 10.03,17.15 c -0.15,0 -0.3,0.01 -0.46,0.03 C 9,17.26 8.32,17.53 7.55,17.94 6.01,17.09 4.81,17.04 3.81,17.3 2.74,17.57 1.87,18.02 0.52,17.98 L 0,17.96 V 32 H 15 V 17.98 L 14.48,18 c -1.51,0.05 -2.27,-0.39 -3.25,-0.68 -0.36,-0.11 -0.76,-0.18 -1.2,-0.17 z m -5.29,0.99 c 0.62,-0.07 1.3,0.08 2.26,0.6 v 8.64 C 5.9,26.75 4.79,26.7 3.82,26.94 3.16,27.1 2.57,27.28 2,27.43 v -8.64 c 0.8,-0.14 1.47,-0.37 2.05,-0.52 0.24,-0.06 0.46,-0.11 0.69,-0.13 z m 5.6,0 c 0.2,0.02 0.4,0.07 0.61,0.14 0.53,0.15 1.19,0.4 2.05,0.55 v 8.6 C 12.43,27.28 11.84,27.09 11.19,26.93 10.21,26.69 9.1,26.75 8,27.41 V 18.8 c 0.7,-0.38 1.25,-0.59 1.68,-0.66 0.24,-0.03 0.45,-0.03 0.66,0 z M 9.8,27.75 c 0.37,-0.01 0.75,0.05 1.15,0.15 0.64,0.16 1.32,0.43 2.05,0.63 V 30 H 2 v -1.46 c 0.72,-0.2 1.41,-0.47 2.05,-0.63 1.08,-0.27 2,-0.3 3.15,0.74 l 0.34,0.3 0.33,-0.31 C 8.57,28 9.18,27.77 9.8,27.75 Z"/>
  </g>
 </g>
 <g id="22-22-accessories-calculator" transform="translate(0,-32)">
  <rect style="opacity:0.001" width="22" height="22" x="32" y="10"/>
  <path style="fill:#d3dae3" d="m 38,13 c 0,0 -2,0 -2,2 v 11 c 0,0 0,2 2,2 h 11 c 0,0 2,0 2,-2 V 15 c 0,-2 -2,-2 -2,-2 z m 0,2 H 38.84 43 v 5 H 38 V 16.41 16 Z m 6,0 h 5 v 5 h -5 z m 1.44,1 c -0.34,0.08 -0.54,0.58 -0.28,0.84 l 0.65,0.66 -0.65,0.66 c -0.26,0.15 -0.31,0.56 -0.1,0.78 0.22,0.21 0.63,0.16 0.78,-0.1 l 0.66,-0.65 0.66,0.65 c 0.15,0.26 0.56,0.31 0.78,0.1 0.21,-0.22 0.16,-0.63 -0.1,-0.78 l -0.65,-0.66 0.65,-0.66 c 0.26,-0.23 0.15,-0.73 -0.18,-0.84 -0.02,0 -0.05,0 -0.07,0 -0.16,-0.02 -0.32,0.04 -0.43,0.16 L 46.5,16.81 45.84,16.16 C 45.78,16.08 45.69,16.03 45.59,16 45.54,15.99 45.49,15.99 45.44,16 Z M 39,17 v 1 h 1 1 1 v -1 h -1 -1 z m -1,4 h 5 v 5 H 38.84 38 v -1 z m 6,0 h 5 v 4 1 h -5 z m -4,1 v 1 h -1 v 1 h 1 v 1 h 1 v -1 h 1 v -1 h -1 v -1 z m 5,0 v 1 h 3 v -1 z m 0,2 v 1 h 3 v -1 z"/>
 </g>
 <g id="accessories-dictionary">
  <rect style="opacity:0.001" width="32" height="32" x="0" y="0"/>
  <path style="opacity:0.3;fill:#d3dae3" d="m 19.345454,21.001442 c 0.538182,-0.01332 1.090909,0.06663 1.672728,0.199904 0.930909,0.213231 1.92,0.573058 2.981818,0.839596 V 24 H 8 v -1.945731 c 1.0472727,-0.266538 2.050909,-0.626365 2.981818,-0.839596 1.570909,-0.359826 2.909091,-0.399808 4.581818,0.986193 l 0.494546,0.399807 0.48,-0.413134 c 1.018181,-0.852924 1.905454,-1.159443 2.807272,-1.186097 z"/>
  <path style="fill:#d3dae3" d="m 19.710938,5.0019531 c -0.22,0 -0.441115,0.013341 -0.675782,0.042969 -0.836,0.1185106 -1.831603,0.5195844 -2.960937,1.1269531 C 13.815553,4.912696 12.054558,4.8374957 10.587891,5.2226562 9.0185572,5.6226307 7.7417188,6.0592553 5.7617188,6 L 5,5.9707031 V 27 H 27 V 6 l -0.761719,0.029297 C 24.023614,6.1033659 22.908036,5.6835086 21.470703,5.2539062 20.942703,5.0909537 20.356271,4.9871393 19.710938,5.0019531 Z M 12.507812,7.0120784 C 13.204751,7.0677875 13.992,7.3413848 15,7.928094 V 20.924188 C 13.46,19.976427 11.906828,19.90298 10.548828,20.264032 9.6248282,20.504734 8.7979999,20.774703 8,21.00036 V 8.0023127 c 1.12,-0.2106136 2.057141,-0.5555927 2.869141,-0.78125 0.336,-0.090263 0.644796,-0.167178 0.966797,-0.1972656 0.216999,-0.026327 0.439562,-0.030289 0.671874,-0.011719 z m 6.984376,0 c 0.232312,-0.01857 0.454875,-0.014608 0.671874,0.011719 0.322,0.030088 0.630797,0.1070026 0.966797,0.1972656 C 21.942859,7.44672 22.88,7.7916991 24,8.0023127 V 21.00036 C 23.202,20.774703 22.375172,20.504734 21.451172,20.264032 20.093172,19.90298 18.54,19.976427 17,20.924188 V 7.928094 C 18.008,7.3413848 18.79525,7.0677875 19.492188,7.0120784 Z M 19.345703,21.502313 c 0.538182,-0.01332 1.090056,0.06594 1.671875,0.199219 0.930909,0.213231 1.920604,0.573306 2.982422,0.839844 V 24 H 8 v -1.444952 c 1.0472727,-0.266539 2.051513,-0.626613 2.982422,-0.839844 1.570909,-0.359826 2.909304,-0.399673 4.582031,0.986328 l 0.494141,0.40039 0.480468,-0.414062 c 1.018181,-0.852924 1.904823,-1.158893 2.806641,-1.185547 z"/>
 </g>
 <g id="accessories-calculator" transform="translate(32,-1.4073486e-6)">
  <rect style="opacity:0.001" width="32" height="32" x="0" y="0"/>
  <path style="fill:#d3dae3" d="M 7.9335938,5 C 7.9335938,5 5,5.0002603 5,7.9335938 V 24.066406 C 5,24.066406 5.0002604,27 7.9335938,27 H 24.066406 C 24.066406,27 27,26.999739 27,24.066406 V 7.9335938 C 27,5.0002603 24.066406,5 24.066406,5 Z M 8,8 H 9.1757812 15 v 7 H 8 V 9.9746094 9.4003906 Z m 9,0 h 7 v 7 h -7 z m 1.494141,0.9941406 a 0.50005,0.50005 0 0 0 -0.347657,0.859375 L 19.792969,11.5 18.146484,13.146484 a 0.50005,0.50005 0 1 0 0.707032,0.707032 L 20.5,12.207031 l 1.646484,1.646485 a 0.50005,0.50005 0 1 0 0.707032,-0.707032 L 21.207031,11.5 22.853516,9.8535156 A 0.50005,0.50005 0 0 0 22.490234,8.9960938 0.50005,0.50005 0 0 0 22.146484,9.1464844 L 20.5,10.792969 18.853516,9.1464844 A 0.50005,0.50005 0 0 0 18.494141,8.9941406 Z M 9,11 v 1 H 10.666016 12.333984 14 v -1 h -1.666016 -1.667968 z m -1,6 h 7 v 7 H 9.1757812 8 v -1.400391 z m 9,0 h 7 V 22.599609 24 h -7 z m -6,1 V 19.666016 20 H 10.666016 9 v 1 H 10.666016 11 V 21.333984 23 h 1 V 21.333984 21 H 12.333984 14 V 20 H 12.333984 12 V 19.666016 18 Z m 7,1 v 1 H 19.666016 21.333984 23 v -1 h -1.666016 -1.667968 z m 0,2 v 1 H 19.666016 21.333984 23 v -1 h -1.666016 -1.667968 z"/>
 </g>
</svg>
