<svg xmlns="http://www.w3.org/2000/svg" id="svg" width="100%" height="100%" version="1.1" viewBox="0 0 22 22">
 <rect width="22" height="22" x="0" y="0" rx="0" ry="0" style="opacity:0.01000001;fill:#eff0f1;fill-opacity:0.00392157"/>
 <g id="accessories-calculator">
  <rect width="22" height="22" x="0" y="0" style="opacity:0.00100002"/>
  <g transform="matrix(0.99995,0,0,1,-0.99925001,-1029.4)">
   <path style="fill:#d3dae3" d="M 7,4 A 2.0002,2.0002 0 0 0 5.0117,5.7793 l -1,8.9997 A 2.0002,2.0002 0 0 0 6,17 h 12 a 2.0002,2.0002 0 0 0 1.988,-2.221 l -1,-8.9997 A 2.0002,2.0002 0 0 0 17,4 Z m 6,2 v 2 5 h 2 v 2 H 9 v -2 h 2 V 8.5 L 9,9 V 7 Z" transform="translate(0,1028.4)"/>
   <path style="fill:#d3dae3" d="M 4,17.203 V 17.75 C 4,18.962 5.0381,20 6.25,20 h 11.5 C 18.962,20 20,18.962 20,17.75 V 17.203 C 19.468,17.688 18.775,18 18,18 H 6 C 5.2254,18 4.5316,17.688 4,17.203 Z" transform="translate(0,1028.4)"/>
  </g>
 </g>
</svg>
