<svg xmlns="http://www.w3.org/2000/svg" xmlns:osb="http://www.openswatchbook.org/uri/2009/osb" id="svg7384" style="enable-background:new" width="22" height="22" version="1.1">
 <defs id="defs7386">
  <linearGradient id="linearGradient5606" osb:paint="solid">
   <stop id="stop5608" style="stop-color:#000000;stop-opacity:1;" offset="0"/>
  </linearGradient>
 </defs>
 <g id="akonadi" transform="translate(-424,-422)">
  <path id="path4157" style="opacity:0;fill:#00000f;fill-opacity:1;stroke:none;stroke-opacity:1" d="m 424,422 22,0 0,22 -22,0 z"/>
  <g id="g4159" style="opacity:1" transform="matrix(0.44736842,0,0,0.43887189,261.10233,237.18515)">
   <path id="path4161" style="color:#000000;display:inline;overflow:visible;visibility:visible;fill:#d3dae3;fill-opacity:1;fill-rule:nonzero;stroke:none;stroke-width:2;marker:none;enable-background:accumulate" d="m -42.667969,-0.05078125 c -5.974612,3.44944685 -9.344452,9.65568615 -9.476562,16.08398425 -0.388995,0.418492 -0.737654,0.869343 -1.025391,1.373047 0,10.49341 8.50659,19 19,19 10.49341,0 19,-8.50659 19,-19 -0.613365,-0.239796 -1.298669,-0.487255 -2.027344,-0.740234 A 17,17 0 0 0 -34.169922,0.40625 17,17 0 0 0 -38.708984,1.0253906 c -1.252487,-0.69201978 -2.572361,-1.08254304 -3.958985,-1.07617185 z" transform="translate(424,428)"/>
  </g>
 </g>
</svg>
