<svg xmlns="http://www.w3.org/2000/svg" width="22" height="22" version="1.1">
 <g id="akonadi">
  <path d="m 0,2.5e-7 22,0 L 22,22 0,22 Z" style="opacity:0;fill:#00000f"/>
  <path d="M 8.0019531,3.0000197 C 5.795054,4.2739273 4.4304903,6.4317721 4.0898438,8.7636916 4.3312286,8.6491667 4.580506,8.5468498 4.8359375,8.4648635 5.9378894,8.1111678 7.1671312,8.0051375 8.453125,8.0000197 10.233741,7.9929334 12.135218,8.2250209 13.919922,8.5664259 12.530826,5.568254 10.524073,2.988368 8.0019531,3.0000197 Z m 4.2402349,1.1171875 c 1.042747,1.1188808 1.891926,2.5313686 2.585937,4.0292969 l 0.318359,0.6875 C 16.1095,9.0535555 17.033238,9.2902692 17.837891,9.5429885 17.245192,6.76718 15.034948,4.6240535 12.242188,4.1172072 Z M 8.4570312,9.0000197 C 5.9988955,9.0098023 3.8923126,9.4379938 3,11.00002 c 0,4.418 3.5817,8 8,8 4.418,0 8,-3.582 8,-8 C 16.659086,10.084629 12.159712,8.9852842 8.4570312,9.0000197 Z" style="fill:#d3dae3"/>
 </g>
</svg>
