<svg xmlns="http://www.w3.org/2000/svg" width="22" height="22" version="1.1" viewBox="0 0 22 22">
 <g id="akregator">
  <rect width="22" height="22" x="0" y="0" style="fill:#d3dae3;fill-opacity:0"/>
  <path style="fill:#d3dae3" d="m 5.0000005,2.9999997 c -1.108,0 -2,0.8920001 -2,2.0000001 l 0,12.0000002 c 0,1.108 0.892,2 2,2 L 17,19 c 1.108,0 2,-0.892 2,-2 C 19,3 9,3 5.0000005,2.9999997 Z m 0,2.0000001 c 6.2222215,0 9.4609935,2.2049917 10.8847655,4.9101562 C 17.308536,12.61532 17,15.611111 17,17 l -2,0 C 15,15.388889 15.191463,12.884678 14.115234,10.839844 13.039005,8.7950078 10.777778,6.9999998 5.0000005,6.9999998 Z m 0,4 c 3.910823,0 6.1296825,1.1321932 7.1582015,2.8632812 C 13.186721,13.594369 12.999999,15.5516 12.999999,17 l -2,0 c 0,-1.5516 0.04484,-3.094371 -0.560547,-4.113282 C 9.8340715,11.867807 8.5535725,11 5.0000005,11 Z m 2.001953,3.9999992 c 1.104335,0 1.997387,0.896324 1.998046,2.000001 0,1.104994 -0.893711,2 -1.998046,2 -1.106972,0 -2.001953,-0.895006 -2.001953,-2 0,-1.103677 0.894981,-2.000001 2.001953,-2.000001 z"/>
 </g>
</svg>
