<?xml version="1.0" encoding="UTF-8" standalone="no"?>
<svg
   xmlns:dc="http://purl.org/dc/elements/1.1/"
   xmlns:cc="http://creativecommons.org/ns#"
   xmlns:rdf="http://www.w3.org/1999/02/22-rdf-syntax-ns#"
   xmlns:svg="http://www.w3.org/2000/svg"
   xmlns="http://www.w3.org/2000/svg"
   version="1.1"
   id="svg4157"
   viewBox="0 0 22 22"
   height="22"
   width="22">
  <defs
     id="defs10" />
  <metadata
     id="metadata4162">
    <rdf:RDF>
      <cc:Work
         rdf:about="">
        <dc:format>
                    image/svg+xml
                </dc:format>
        <dc:type
           rdf:resource="http://purl.org/dc/dcmitype/StillImage" />
        <dc:title></dc:title>
      </cc:Work>
    </rdf:RDF>
  </metadata>
  <g
     id="akregator"
     transform="translate(0,-2)">
    <rect
       style="fill:#d3dae3;fill-opacity:0;stroke:none"
       id="rect4153"
       width="22"
       height="22"
       x="0"
       y="2" />
    <path
       id="path4155"
       style="color:#7b7c7e;opacity:1;fill:#d3dae3;fill-opacity:1;fill-rule:nonzero;stroke:none"
       d="M 5.3896175,16.2186 C 4.0700125,16.2186 3,17.29 3,18.610301 3,19.9279 4.0700125,21 5.3896175,21 c 1.319586,0 2.389598,-1.0721 2.389598,-2.389699 0,-1.320301 -1.070012,-2.391701 -2.389598,-2.391701 z M 3,9.9848001 3,12.48 c 4.7055745,0 8.5197,3.8141 8.5197,8.52 l 2.492562,0 C 14.012262,14.917901 9.0818743,9.9848001 3,9.9848001 Z M 3,5 3,7.4920001 C 10.458804,7.4920001 16.507437,13.5389 16.507437,21 L 19,21 C 19,12.1619 11.835755,5 3,5"
       class="ColorScheme-Text" />
  </g>
</svg>
