<svg xmlns="http://www.w3.org/2000/svg" width="22" height="22" version="1.1" viewBox="0 0 22 22">
 <g id="amarok" transform="translate(0,-2)">
  <rect width="22" height="22" x="0" y="2" style="fill:#d3dae3;fill-opacity:0"/>
  <path d="m 16.852404,5.0000003 c -0.406142,0 -1.19455,0.931817 -1.490089,1.078966 -0.295539,0.147174 -2.635183,1.81506 -2.856829,2.109411 -0.221648,0.294296 -0.517014,0.416796 -0.837148,0.392276 -0.320132,-0.02449 -1.332803,-0.0342 -1.6775839,0.16201 -0.344838,0.196243 -1.918385,1.8005017 -2.312436,1.9967447 -0.394025,0.196161 -0.908277,0.296182 -1.154573,0.320729 -0.246241,0.02449 -1.062034,0.929447 -1.283682,1.10117 -0.221646,0.171723 -1.973241,0.926939 -2.21951,1.074032 -0.246296,0.147176 1.796508,2.208428 2.092047,2.25744 0.295539,0.04912 -0.765874,0.699055 -0.772182,1.165316 -0.0063,0.465155 0.50835,1.850887 3.492501,3.481146 2.5798449,1.40936 5.3052549,0.730306 6.3337059,0.443264 0.408074,-0.113894 0.258355,-1.422257 0.333872,-2.117635 0.0493,-0.441471 0.221443,-4.144861 0.861818,-5.125911 0.640294,-0.980996 2.470585,-2.158661 3.110933,-2.281289 0.640376,-0.122628 0.517255,-0.368117 0.517255,-0.588826 0,-0.220708 -0.09895,-0.7109647 -0.271374,-0.7845527 -0.172377,-0.07356 -0.844934,0.3679077 -1.066582,0.4169477 -0.221647,0.04904 -1.280604,0.122721 -1.428414,-0.1225347 -0.147756,-0.24531 1.194333,-2.746848 1.366738,-3.041171 0.172432,-0.294351 0.246176,-0.686741 -0.07402,-1.103637 -0.320046,-0.417034 -0.541316,-0.833896 -0.664451,-0.833896 z m -5.184066,4.634948 c 0.09859,0.005 0.158713,0.01398 0.158713,0.01398 0.110764,0.249168 -0.405919,1.0321527 -0.885666,1.1389997 -0.47964,0.106767 -1.5864599,1.673497 -1.6233099,1.317457 -0.03701,-0.356041 0.442331,-1.530955 0.9958599,-2.065003 0.415128,-0.4005547 1.058661,-0.4204567 1.354403,-0.4054347 z" style="fill:#d3dae3"/>
 </g>
</svg>
