<svg xmlns="http://www.w3.org/2000/svg" width="32" height="32" version="1">
 <g id="antimicro">
  <rect style="opacity:0.001" width="32" height="32" x="0" y="0"/>
  <path style="fill:#d3dae3" d="M 15.958984 4 C 7.5870955 3.9999998 6.6128187 4.1309405 4.9316406 5.4765625 C 3.1321457 6.9168859 2.9343647 7.670873 2.3710938 15.302734 C 2.0934137 19.065059 1.9369193 22.506854 2.0234375 22.953125 C 2.2189968 23.961842 3.2904405 25.22412 4.3203125 25.658203 C 6.3171088 26.499841 8.0852303 25.802081 9.953125 23.4375 L 11.109375 21.974609 L 15.578125 21.974609 C 18.840929 21.98013 20.704818 22.099048 20.972656 22.310547 C 21.182392 22.476168 21.919342 23.165958 22.609375 23.964844 C 23.29941 24.76373 24.214023 25.572892 24.642578 25.761719 C 25.095408 25.961247 25.690149 26.031531 26.298828 25.988281 C 27.691365 25.876992 29.013427 25.116223 29.648438 23.736328 C 30.111593 22.718249 30.112206 22.522696 29.679688 16.667969 C 29.531923 14.667777 29.399904 13.040613 29.308594 12.041016 C 29.364748 10.999172 29.307039 10.259991 29.146484 9.3691406 C 28.766401 7.2812708 28.224206 6.5135866 27.111328 5.5917969 C 25.342949 4.1270605 24.460213 4 15.958984 4 z M 8.75 7 L 10.25 7 C 10.6655 7 11 7.3345 11 7.75 L 11 10 L 13.25 10 C 13.6655 10 14 10.3345 14 10.75 L 14 12.25 C 14 12.6655 13.6655 13 13.25 13 L 11 13 L 11 15.25 C 11 15.6655 10.6655 16 10.25 16 L 8.75 16 C 8.3345 16 8 15.6655 8 15.25 L 8 13 L 5.75 13 C 5.3345 13 5 12.6655 5 12.25 L 5 10.75 C 5 10.3345 5.3345 10 5.75 10 L 8 10 L 8 7.75 C 8 7.3345 8.3345 7 8.75 7 z M 22.5 7 A 1.5 1.5 0 0 1 24 8.5 A 1.5 1.5 0 0 1 22.5 10 A 1.5 1.5 0 0 1 21 8.5 A 1.5 1.5 0 0 1 22.5 7 z M 19.5 10 A 1.5 1.5 0 0 1 21 11.5 A 1.5 1.5 0 0 1 19.5 13 A 1.5 1.5 0 0 1 18 11.5 A 1.5 1.5 0 0 1 19.5 10 z M 25.5 10 A 1.5 1.5 0 0 1 27 11.5 A 1.5 1.5 0 0 1 25.5 13 A 1.5 1.5 0 0 1 24 11.5 A 1.5 1.5 0 0 1 25.5 10 z M 22.5 13 A 1.5 1.5 0 0 1 24 14.5 A 1.5 1.5 0 0 1 22.5 16 A 1.5 1.5 0 0 1 21 14.5 A 1.5 1.5 0 0 1 22.5 13 z"/>
 </g>
 <g id="22-22-antimicro" transform="translate(27,5)">
  <rect style="opacity:0.001" width="22" height="22" x="5" y="5"/>
  <path style="fill:#d3dae3" d="m 11.02499,9.0004268 v 0.002 c -2.4887079,0 -4.3597989,2.0010682 -4.4906099,4.4804682 l -0.498089,8.460613 c -0.315026,1.85 1.482765,3.017141 2.994391,0.994141 0.942579,-1.279 2.9689979,-3.9375 2.9689979,-3.9375 l 8.00067,0.04102 2.988531,4.021484 c 1.499025,2.012 3.186861,0.357874 2.996345,-1.003906 L 25.48909,13.58441 c 7.84e-4,-0.03462 0.0098,-0.06675 0.0098,-0.101562 -3e-5,-2.4824 -2.002332,-4.4824212 -4.490641,-4.4824212 z M 9.9995131,11.000426 H 11.99968 v 2 h 2.000168 v 2 H 11.99968 v 2 H 9.9995131 v -2 h -2.000167 v -2 h 2.000167 z m 11.0009209,0 c 0.552331,0 1.000083,0.447715 1.000083,1 0,0.552284 -0.447752,1 -1.000083,1 -0.552331,0 -1.000084,-0.447715 -1.000084,-1 0,-0.552285 0.447753,-1 1.000084,-1 z m -2.000168,2 c 0.552331,0 1.000084,0.447715 1.000084,1 0,0.552285 -0.447753,1 -1.000084,1 -0.552331,0 -1.000083,-0.447716 -1.000083,-1 0,-0.552285 0.447752,-1 1.000083,-1 z m 4.000335,0 c 0.552331,0 1.000084,0.447715 1.000084,1 0,0.552285 -0.447753,1 -1.000084,1 -0.552331,0 -1.000084,-0.447715 -1.000084,-1 0,-0.552285 0.447753,-1 1.000084,-1 z m -2.000167,2 c 0.552331,1e-6 1.000083,0.447716 1.000083,1 0,0.552284 -0.447752,1 -1.000083,1 -0.552331,0 -1.000084,-0.447715 -1.000084,-1 0,-0.552285 0.447753,-1 1.000084,-1 z"/>
 </g>
</svg>
