<svg xmlns="http://www.w3.org/2000/svg" width="32" height="32" version="1.1" viewBox="0 0 32 32">
 <g id="applications-other">
  <rect width="32" height="32" x="0" y="0" style="opacity:0.001;fill-rule:evenodd"/>
  <g>
   <circle style="opacity:0.2" cx="16" cy="17" r="14"/>
   <circle cx="16" cy="16" r="14" style="fill:#325f78"/>
   <path d="m 11,8 a 4,4 0 0 0 -4,4 4,4 0 0 0 4,4 4,4 0 0 0 4,-4 4,4 0 0 0 -4,-4 z m 10,0 a 4,4 0 0 0 -4,4 4,4 0 0 0 4,4 4,4 0 0 0 4,-4 4,4 0 0 0 -4,-4 z M 11,18 a 4,4 0 0 0 -4,4 4,4 0 0 0 4,4 4,4 0 0 0 4,-4 4,4 0 0 0 -4,-4 z m 10,0 a 4,4 0 0 0 -4,4 4,4 0 0 0 4,4 4,4 0 0 0 4,-4 4,4 0 0 0 -4,-4 z" style="opacity:0.2;fill-rule:evenodd"/>
   <path style="fill:#ffffff;fill-rule:evenodd" d="M 11 7 A 4 4 0 0 0 7 11 A 4 4 0 0 0 11 15 A 4 4 0 0 0 15 11 A 4 4 0 0 0 11 7 z M 21 7 A 4 4 0 0 0 17 11 A 4 4 0 0 0 21 15 A 4 4 0 0 0 25 11 A 4 4 0 0 0 21 7 z M 11 17 A 4 4 0 0 0 7 21 A 4 4 0 0 0 11 25 A 4 4 0 0 0 15 21 A 4 4 0 0 0 11 17 z M 21 17 A 4 4 0 0 0 17 21 A 4 4 0 0 0 21 25 A 4 4 0 0 0 25 21 A 4 4 0 0 0 21 17 z"/>
   <path style="fill:#ffffff;opacity:0.1" d="M 16 2 A 14 14 0 0 0 2 16 A 14 14 0 0 0 2.0214844 16.585938 A 14 14 0 0 1 16 3 A 14 14 0 0 1 29.978516 16.414062 A 14 14 0 0 0 30 16 A 14 14 0 0 0 16 2 z"/>
  </g>
 </g>
</svg>
