<svg xmlns="http://www.w3.org/2000/svg" width="32" height="32" version="1.1">
 <g id="22-22-apport" transform="translate(32)">
  <rect style="opacity:0.001" width="22" height="22" x="0" y="10"/>
  <path style="fill:#f44336" d="M 3.125,13 C 2,13 2,14.142578 2,14.142578 V 25.875 c 0,1.143176 1.125,1.142578 1.125,1.142578 H 7.5507812 C 7.2610936,27.089594 6.9815288,27.300445 7,27.861328 V 29 h 8 v -1.138672 c 0,-0.561433 -0.253862,-0.7719 -0.511719,-0.84375 H 18.875 C 20,27.017578 20,25.875 20,25.875 V 14.142578 C 20,14.142578 20,13 18.875,13 Z M 4,15 h 14 v 9.986328 l -14,0.02734 z m 5,2 v 2 h 1 v -2 z m 3,0 v 2 h 1 v -2 z m -4,4 v 1 h 6 v -1 z m 6,1 v 1 h 1 V 22 Z M 8,22 H 7 v 1 h 1 z"/>
 </g>
 <g id="apport">
  <rect style="opacity:0.001" width="32" height="32" x="0" y="0"/>
  <path style="fill:#f44336" d="M 4.625 5 C 3 5 3 6.6425781 3 6.6425781 L 3 23.373047 C 3 25.016363 4.625 25 4.625 25 L 11.017578 25 C 10.599141 25.103522 9.973319 25.422246 10 26.228516 L 10 28 L 22 28 L 22 26.228516 C 22 25.421456 21.411523 25.103284 21.039062 25 L 27.375 25 C 29.000001 25 29 23.373048 29 23.373047 L 29 6.6425781 C 29 6.6425781 29.000001 5 27.375 5 L 4.625 5 z M 6 8 L 26 8 L 26 21.960938 L 6 22 L 6 8 z M 13 10 L 13 13 L 15 13 L 15 10 L 13 10 z M 17 10 L 17 13 L 19 13 L 19 10 L 17 10 z M 12 16 L 12 18 L 20 18 L 20 16 L 12 16 z M 20 18 L 20 20 L 22 20 L 22 18 L 20 18 z M 12 18 L 10 18 L 10 20 L 12 20 L 12 18 z"/>
 </g>
</svg>
