<svg xmlns="http://www.w3.org/2000/svg" width="32" height="32" version="1.1">
 <g id="22-22-audio-volume-low" transform="translate(-293.0004,397)">
  <path style="opacity:0.001" d="m 325.0004,-419 h 22 c 0,0 0,0 0,0 v 22 c 0,0 0,0 0,0 h -22 c 0,0 0,0 0,0 v -22 c 0,0 0,0 0,0 z"/>
  <path style="fill:#d3dae3" d="m 335.0004,-416 -5,5 h -3 v 6 h 3 l 5,5 z"/>
  <path style="opacity:0.3;fill:#d3dae3" transform="translate(293.0004,-397)" d="M 44 -19 L 44 -17 C 46.86838 -16.15429 49 -13.93714 49 -11 C 49 -8.06286 46.86837 -5.84571 44 -5 L 44 -3 C 47.89455 -3.89143 51 -7.11429 51 -11 C 51 -14.88571 47.89455 -18.10857 44 -19 z M 44 -15 L 44 -12.732422 A 2 2 0 0 1 45 -11 A 2 2 0 0 1 44 -9.2675781 L 44 -7 C 44 -7 47.0002 -8 47 -11 C 46.9998 -14 44 -15 44 -15 z"/>
 </g>
 <g id="22-22-audio-volume-medium" transform="translate(-261.0004,397)">
  <path style="opacity:0.001" d="m 325.0004,-419 h 22 c 0,0 0,0 0,0 v 22 c 0,0 0,0 0,0 h -22 c 0,0 0,0 0,0 v -22 c 0,0 0,0 0,0 z"/>
  <path style="fill:#d3dae3" transform="translate(261.0004,-397)" d="M 74 -19 L 69 -14 L 66 -14 L 66 -8 L 69 -8 L 74 -3 L 74 -19 z M 76 -15 L 76 -12.732422 A 2 2 0 0 1 77 -11 A 2 2 0 0 1 76 -9.2675781 L 76 -7 C 76 -7 79.0002 -8 79 -11 C 78.9998 -14 76 -15 76 -15 z"/>
  <path style="opacity:0.3;fill:#d3dae3" d="m 337.0004,-416 v 2 c 2.86838,0.84571 5,3.06286 5,6 0,2.93714 -2.13163,5.15429 -5,6 v 2 c 3.89455,-0.89143 7,-4.11429 7,-8 0,-3.88571 -3.10545,-7.10857 -7,-8 z"/>
 </g>
 <g id="22-22-audio-volume-high" transform="translate(-229.0004,397)">
  <path style="opacity:0.001" d="m 325.0004,-419 h 22 c 0,0 0,0 0,0 v 22 c 0,0 0,0 0,0 h -22 c 0,0 0,0 0,0 v -22 c 0,0 0,0 0,0 z"/>
  <path style="fill:#d3dae3" transform="translate(229.0004,-397)" d="M 106 -19 L 101 -14 L 98 -14 L 98 -8 L 101 -8 L 106 -3 L 106 -19 z M 108 -19 L 108 -17 C 110.86838 -16.15429 113 -13.93714 113 -11 C 113 -8.06286 110.86837 -5.84571 108 -5 L 108 -3 C 111.89455 -3.89143 115 -7.11429 115 -11 C 115 -14.88571 111.89455 -18.10857 108 -19 z M 108 -15 L 108 -12.732422 A 2 2 0 0 1 109 -11 A 2 2 0 0 1 108 -9.2675781 L 108 -7 C 108 -7 111.0002 -8 111 -11 C 110.9998 -14 108 -15 108 -15 z"/>
 </g>
 <g id="audio-volume-muted">
  <path style="opacity:0.001" d="M -6.8179997e-7,-4.5e-6 H 32 c 0,0 0,0 0,0 V 31.999996 c 0,0 0,0 0,0 H -6.8179997e-7 c 0,0 0,0 0,0 V -4.5e-6 c 0,0 0,0 0,0 z"/>
  <path style="opacity:0.3;fill:#d3dae3" d="M 5.1601562 2.0390625 L 3.0390625 4.1601562 L 8.7304688 9.8515625 L 7.5 11 L 3 11 L 3 21 L 7.5 21 L 15 28 L 15 16.121094 L 18 19.121094 L 18 21.914062 A 6 6 0 0 0 20.039062 21.160156 L 22.197266 23.318359 A 9 9 0 0 1 18 24.933594 L 18 27.949219 A 12 12 0 0 0 24.339844 25.460938 L 26.839844 27.960938 L 28.960938 25.839844 L 26.466797 23.345703 L 24.326172 21.205078 L 22.164062 19.042969 L 18 14.878906 L 15 11.878906 L 10.923828 7.8027344 L 5.1601562 2.0390625 z M 15 4 L 13.119141 5.7558594 L 15 7.6367188 L 15 4 z M 18 4.046875 L 18 7.0605469 A 9 9 0 0 1 26 16 A 9 9 0 0 1 25.683594 18.320312 L 28.039062 20.675781 A 12 12 0 0 0 29 16 A 12 12 0 0 0 18 4.046875 z M 18 10.089844 L 18 10.636719 L 22.980469 15.617188 A 6 6 0 0 0 18 10.089844 z"/>
 </g>
 <g id="audio-volume-low" transform="translate(32.000001)">
  <path style="opacity:0.001" d="M -6.8179997e-7,-4.5e-6 H 32 c 0,0 0,0 0,0 V 31.999996 c 0,0 0,0 0,0 H -6.8179997e-7 c 0,0 0,0 0,0 V -4.5e-6 c 0,0 0,0 0,0 z"/>
  <path style="fill:#d3dae3" d="M 15,4 7.5,11 H 3 v 10 h 4.5 l 7.5,7 z"/>
  <path style="opacity:0.3;fill:#d3dae3" transform="translate(-32.000001)" d="M 50 4.046875 L 50 7.0605469 A 9 9 0 0 1 58 16 A 9 9 0 0 1 50 24.933594 L 50 27.949219 A 12 12 0 0 0 61 16 A 12 12 0 0 0 50 4.046875 z M 50 10.089844 L 50 13.171875 C 51.164879 13.583881 52 14.694005 52 16 C 52 17.305995 51.164879 18.416119 50 18.828125 L 50 21.914062 A 6 6 0 0 0 55 16 A 6 6 0 0 0 50 10.089844 z"/>
 </g>
 <g id="audio-volume-medium" transform="translate(64.000002)">
  <path style="opacity:0.001" d="M -6.8179997e-7,-4.5e-6 H 32 c 0,0 0,0 0,0 V 31.999996 c 0,0 0,0 0,0 H -6.8179997e-7 c 0,0 0,0 0,0 V -4.5e-6 c 0,0 0,0 0,0 z"/>
  <path style="fill:#d3dae3" transform="translate(-64.000002)" d="M 79 4 L 71.5 11 L 67 11 L 67 21 L 71.5 21 L 79 28 L 79 4 z M 82 10.089844 L 82 13.171875 C 83.164879 13.583881 84 14.694005 84 16 C 84 17.305995 83.164879 18.416119 82 18.828125 L 82 21.914062 A 6 6 0 0 0 87 16 A 6 6 0 0 0 82 10.089844 z"/>
  <path style="opacity:0.3;fill:#d3dae3" d="M 18,4.046875 V 7.0605469 A 9,9 0 0 1 26,16 9,9 0 0 1 18,24.933594 v 3.015625 A 12,12 0 0 0 29,16 12,12 0 0 0 18,4.046875 Z"/>
 </g>
 <g id="audio-volume-high" transform="translate(96.000003)">
  <path style="opacity:0.001" d="M -6.8179997e-7,-4.5e-6 H 32 c 0,0 0,0 0,0 V 31.999996 c 0,0 0,0 0,0 H -6.8179997e-7 c 0,0 0,0 0,0 V -4.5e-6 c 0,0 0,0 0,0 z"/>
  <path style="fill:#d3dae3" transform="translate(-96.000003)" d="M 111 4 L 103.5 11 L 99 11 L 99 21 L 103.5 21 L 111 28 L 111 4 z M 114 4.046875 L 114 7.0605469 A 9 9 0 0 1 122 16 A 9 9 0 0 1 114 24.933594 L 114 27.949219 A 12 12 0 0 0 125 16 A 12 12 0 0 0 114 4.046875 z M 114 10.089844 L 114 13.171875 C 115.16488 13.583881 116 14.694005 116 16 C 116 17.305995 115.16488 18.416119 114 18.828125 L 114 21.914062 A 6 6 0 0 0 119 16 A 6 6 0 0 0 114 10.089844 z"/>
 </g>
 <g id="22-22-audio-radio-symbolic" transform="translate(-5.0000007,58.999996)">
  <rect style="opacity:0.001" width="22" height="22" x="5" y="5"/>
  <path style="fill:#d3dae3" d="M 11.984375,6.9921855 C 11.432083,7.0007855 10.991355,7.4555205 11,8.0078105 v 3.0000005 h -1 c -1.108,0 -2,0.892 -2,2 V 22 c 0,1.108 0.892,2 2,2 h 12 c 1.108,0 2,-0.892 2,-2 v -8.992189 c 0,-1.108 -0.898672,-2.121413 -2,-2 H 13 V 8.0078105 c 0.0088,-0.56453 -0.45109,-1.024455 -1.015625,-1.015625 z M 10,13.007811 H 22 V 22 H 10 Z m 3.5,1.992188 A 2.5,2.5 0 0 0 11,17.5 2.5,2.5 0 0 0 13.5,20 2.5,2.5 0 0 0 16,17.5 2.5,2.5 0 0 0 13.5,14.999999 Z m 4,0 a 0.50005,0.50005 0 1 0 0,1 h 3 a 0.50005,0.50005 0 1 0 0,-1 z M 17.5,17 a 0.50005,0.50005 0 1 0 0,1 h 3 a 0.50005,0.50005 0 1 0 0,-1 z m 0,2 a 0.50005,0.50005 0 1 0 0,1 h 3 a 0.50005,0.50005 0 1 0 0,-1 z"/>
 </g>
 <g id="audio-radio-symbolic" transform="translate(-1.8179997e-7,31.999996)">
  <rect style="opacity:0.001" width="32" height="32" x="0" y="0"/>
  <path style="fill:#d3dae3" d="M 9.4765625,2.9785156 A 1.50015,1.50015 0 0 0 8,4.5 V 10 H 7 c -1.662,0 -3,1.338 -3,3 v 12 c 0,1.662 1.338,3 3,3 h 18 c 1.662,0 3,-1.338 3,-3 V 13 c 0,-1.662 -1.338,-3 -3,-3 H 11 V 4.5 A 1.50015,1.50015 0 0 0 9.4765625,2.9785156 Z M 7,13 H 25 V 25 H 7 Z m 5,2 a 4,4 0 0 0 -4,4 4,4 0 0 0 4,4 4,4 0 0 0 4,-4 4,4 0 0 0 -4,-4 z m 6,0 a 1.0001,1.0001 0 1 0 0,2 h 4 a 1.0001,1.0001 0 1 0 0,-2 z m 0,3 a 1.0001,1.0001 0 1 0 0,2 h 4 a 1.0001,1.0001 0 1 0 0,-2 z m 0,3 a 1.0001,1.0001 0 1 0 0,2 h 4 a 1.0001,1.0001 0 1 0 0,-2 z"/>
 </g>
 <g id="22-22-audio-volume-muted" transform="translate(-5.0000007,-27.000005)">
  <path style="opacity:0.001" d="m 5,5 h 22 c 0,0 0,0 0,0 v 22 c 0,0 0,0 0,0 H 5 c 0,0 0,0 0,0 V 5 c 0,0 0,0 0,0 z"/>
  <path style="opacity:0.3;fill:#dfdfdf" class="ColorScheme-Text" d="M 8.40625,7 7,8.40625 10.792969,12.207032 10,13 H 7 v 6 h 3 l 5,5 v -7.585938 l 2,2 V 20 c 0,0 0.472551,-0.167669 1.039062,-0.546875 l 1.361329,1.361328 C 18.697036,21.326563 17.892734,21.736786 17,22 v 2 c 1.40323,-0.321188 2.696638,-0.951413 3.785156,-1.800781 L 23.59375,25 25,23.59375 22.222656,20.808594 20.839844,19.425781 19.439453,18.025391 17,15.585938 l -2,-2 -2.792969,-2.792969 z M 15,8 13.621094,9.378907 15,10.757813 Z m 2,0 v 2 c 2.86838,0.84571 5,3.06286 5,6 0,0.538481 -0.09381,1.04323 -0.228516,1.529297 L 23.3125,19.070312 C 23.749051,18.122442 24,17.088615 24,16 24,12.11429 20.89455,8.89143 17,8 Z m 0,4 v 0.757813 l 2.984375,2.984375 C 19.815427,12.946973 17,12 17,12 Z"/>
 </g>
</svg>
