<svg xmlns="http://www.w3.org/2000/svg" xmlns:osb="http://www.openswatchbook.org/uri/2009/osb" width="22" height="22" version="1.1" style="enable-background:new">
 <defs>
  <linearGradient id="linearGradient5606" osb:paint="solid">
   <stop id="stop5608" offset="0" style="stop-color:#000000"/>
  </linearGradient>
 </defs>
 <g id="22-22-audio-volume-muted" transform="translate(-325.0004,419)">
  <path d="m 325.0004,-419 22,0 c 0,0 0,0 0,0 l 0,22 c 0,0 0,0 0,0 l -22,0 c 0,0 0,0 0,0 l 0,-22 c 0,0 0,0 0,0 z" style="opacity:0;fill:#ff0000"/>
  <path d="m 335.0004,-416 -5,5 -3,0 0,6 3,0 5,5 z m 2,0 0,2 c 2.86838,0.84571 5,3.06286 5,6 0,2.93714 -2.13163,5.15429 -5,6 l 0,2 c 3.89455,-0.89143 7,-4.11429 7,-8 0,-3.88571 -3.10545,-7.10857 -7,-8 z m 0,4 0,8 c 0,0 3.0002,-1 3,-4 -2e-4,-3 -3,-4 -3,-4 z" style="opacity:0.3;fill:#d3dae3"/>
 </g>
 <g id="22-22-audio-volume-low" transform="translate(-300.0004,419)">
  <path d="m 325.0004,-419 22,0 c 0,0 0,0 0,0 l 0,22 c 0,0 0,0 0,0 l -22,0 c 0,0 0,0 0,0 l 0,-22 c 0,0 0,0 0,0 z" style="opacity:0;fill:#ff0000"/>
  <path d="m 335.0004,-416 -5,5 -3,0 0,6 3,0 5,5 z" style="fill:#d3dae3"/>
  <path d="m 337.0004,-416 0,2 c 2.86838,0.84571 5,3.06286 5,6 0,2.93714 -2.13163,5.15429 -5,6 l 0,2 c 3.89455,-0.89143 7,-4.11429 7,-8 0,-3.88571 -3.10545,-7.10857 -7,-8 z" style="opacity:0.3;fill:#d3dae3"/>
  <path d="m 337.0004,-412 0,8 c 0,0 3.0002,-1 3,-4 -2e-4,-3 -3,-4 -3,-4 z" style="opacity:0.3;fill:#d3dae3"/>
 </g>
 <g id="22-22-audio-volume-medium" transform="translate(-275.0004,419)">
  <path d="m 325.0004,-419 22,0 c 0,0 0,0 0,0 l 0,22 c 0,0 0,0 0,0 l -22,0 c 0,0 0,0 0,0 l 0,-22 c 0,0 0,0 0,0 z" style="opacity:0;fill:#ff0000"/>
  <path d="m 335.0004,-416 -5,5 -3,0 0,6 3,0 5,5 z" style="fill:#d3dae3"/>
  <path d="m 337.0004,-416 0,2 c 2.86838,0.84571 5,3.06286 5,6 0,2.93714 -2.13163,5.15429 -5,6 l 0,2 c 3.89455,-0.89143 7,-4.11429 7,-8 0,-3.88571 -3.10545,-7.10857 -7,-8 z" style="opacity:0.3;fill:#d3dae3"/>
  <path d="m 337.0004,-412 0,8 c 0,0 3.0002,-1 3,-4 -2e-4,-3 -3,-4 -3,-4 z" style="fill:#d3dae3"/>
 </g>
 <g id="22-22-audio-volume-high" transform="translate(-250.0004,419)">
  <path d="m 325.0004,-419 22,0 c 0,0 0,0 0,0 l 0,22 c 0,0 0,0 0,0 l -22,0 c 0,0 0,0 0,0 l 0,-22 c 0,0 0,0 0,0 z" style="opacity:0;fill:#ff0000"/>
  <path d="m 335.0004,-416 -5,5 -3,0 0,6 3,0 5,5 z" style="fill:#d3dae3"/>
  <path d="m 337.0004,-416 0,2 c 2.86838,0.84571 5,3.06286 5,6 0,2.93714 -2.13163,5.15429 -5,6 l 0,2 c 3.89455,-0.89143 7,-4.11429 7,-8 0,-3.88571 -3.10545,-7.10857 -7,-8 z" style="fill:#d3dae3"/>
  <path d="m 337.0004,-412 0,8 c 0,0 3.0002,-1 3,-4 -2e-4,-3 -3,-4 -3,-4 z" style="fill:#d3dae3"/>
 </g>
 <g id="audio-volume-low" transform="translate(32,0)">
  <rect width="32" height="32" x="0" y="-32" style="opacity:0.001"/>
  <g transform="translate(1,-32)" style="enable-background:new">
   <path d="M 14.999,2 7,10.002 l -6,0 0,12 6,0 7.999,7.998 z" style="fill:#c4c4c4"/>
   <path d="m 18.999,2 0,3 c 4.64,1.48 8,5.86 8,11 0,5.14 -3.36,9.52 -8,11 l 0,3 c 6.3,-1.56 11,-7.2 11,-14 0,-6.8 -4.7,-12.44 -11,-14 z" style="opacity:0.2;fill:#c4c4c4"/>
   <path d="m 18.999,10 0,12 c 2.12,-1.16 3.582,-3.4 3.582,-6 0,-2.6 -1.442,-4.84 -3.582,-6 z" style="opacity:0.2;fill:#c4c4c4"/>
   <path d="M 14.998,2 7,10.002 l -6,0 0,1 6,0 7.998,-8.002 0,-1 z" style="opacity:0.2;fill:#d3dae3"/>
   <path d="m 1,22.002 0,1 6,0 7.998,7.998 0,-1 L 7,22.002 l -6,0 z" style="opacity:0.2"/>
  </g>
 </g>
 <g id="audio-volume-muted">
  <rect width="32" height="32" x="0" y="-32" style="opacity:0.001"/>
  <g transform="translate(1,-32)" style="enable-background:new">
   <path d="M 14.999,2 7,10.002 l -6,0 0,12 6,0 7.999,7.998 z" style="fill:#c4c4c4"/>
   <path d="M 14.998,2 7,10.002 l -6,0 0,1 6,0 7.998,-8.002 0,-1 z" style="opacity:0.2;fill:#d3dae3"/>
   <path d="m 1,22.002 0,1 6,0 7.998,7.998 0,-1 L 7,22.002 l -6,0 z" style="opacity:0.2"/>
   <circle cx="18" cy="24" r="7" style="fill:#db3c30"/>
   <path d="M 24.977,24.459 A 7,7 0 0 1 18,31 7,7 0 0 1 11.023,24.541 7,7 0 0 0 11,25 a 7,7 0 0 0 7,7 7,7 0 0 0 7,-7 7,7 0 0 0 -0.02344,-0.54102 z" style="opacity:0.2"/>
   <g transform="matrix(0.70711,-0.70711,0.70711,0.70711,-15.941,24)" style="fill:#d3dae3">
    <rect width="8" height="2" x="20" y="23" style="fill:#ffffff"/>
    <rect width="8" height="2" x="20" y="-25" transform="matrix(0,1,-1,0,0,0)" style="fill:#ffffff"/>
   </g>
  </g>
 </g>
 <g id="audio-volume-medium" transform="translate(64,0)">
  <rect width="32" height="32" x="0" y="-32" style="opacity:0.001"/>
  <g transform="translate(1,-32)" style="enable-background:new">
   <path d="M 14.999,2 7,10.002 l -6,0 0,12 6,0 7.999,7.998 z" style="fill:#c4c4c4"/>
   <path d="m 18.999,2 0,3 c 4.64,1.48 8,5.86 8,11 0,5.14 -3.36,9.52 -8,11 l 0,3 c 6.3,-1.56 11,-7.2 11,-14 0,-6.8 -4.7,-12.44 -11,-14 z" style="opacity:0.2;fill:#c4c4c4"/>
   <path d="m 18.999,10 0,12 c 2.12,-1.16 3.582,-3.4 3.582,-6 0,-2.6 -1.442,-4.84 -3.582,-6 z" style="fill:#c4c4c4"/>
   <path d="M 14.998,2 7,10.002 l -6,0 0,1 6,0 7.998,-8.002 0,-1 z" style="opacity:0.2;fill:#d3dae3"/>
   <path d="m 18.998,10 0,1 c 2,1.084 3.374,3.117 3.547,5.5 0.012,-0.167 0.035,-0.33 0.035,-0.5 0,-2.6 -1.442,-4.84 -3.582,-6 z" style="opacity:0.2;fill:#d3dae3"/>
   <path d="m 1,22.002 0,1 6,0 7.998,7.998 0,-1 L 7,22.002 l -6,0 z" style="opacity:0.2"/>
   <path d="m 22.545,16.5 c -0.17529,2.3834 -1.5653,4.4158 -3.5469,5.5 l 0,1 c 2.12,-1.16 3.582,-3.4 3.582,-6 0,-0.16981 -0.02306,-0.33346 -0.03516,-0.5 z" style="opacity:0.2"/>
  </g>
 </g>
 <g id="audio-volume-high" transform="translate(96,0)">
  <rect width="32" height="32" x="0" y="-32" style="opacity:0.001"/>
  <g transform="translate(1,-32)" style="enable-background:new">
   <path d="M 14.999,2 7,10.002 l -6,0 0,12 6,0 7.999,7.998 z" style="fill:#c4c4c4"/>
   <path d="m 18.999,2 0,3 c 4.64,1.48 8,5.86 8,11 0,5.14 -3.36,9.52 -8,11 l 0,3 c 6.3,-1.56 11,-7.2 11,-14 0,-6.8 -4.7,-12.44 -11,-14 z" style="fill:#c4c4c4"/>
   <path d="m 18.999,10 0,12 c 2.12,-1.16 3.582,-3.4 3.582,-6 0,-2.6 -1.442,-4.84 -3.582,-6 z" style="fill:#c4c4c4"/>
   <path d="M 14.998,2 7,10.002 l -6,0 0,1 6,0 7.998,-8.002 0,-1 z" style="opacity:0.2;fill:#d3dae3"/>
   <path d="m 18.998,2 0,1 c 6.144,1.5213 10.753,6.9266 10.979,13.5 0.005,-0.167 0.021,-0.331 0.021,-0.5 0,-6.8 -4.7,-12.44 -11,-14 z m 7.981,14.5 c -0.211,4.922 -3.493,9.068 -7.981,10.5 l 0,1 c 4.64,-1.48 8,-5.86 8,-11 0,-0.168 -0.012,-0.334 -0.019,-0.5 z" style="opacity:0.2;fill:#d3dae3"/>
   <path d="m 18.998,10 0,1 c 2,1.084 3.374,3.117 3.547,5.5 0.012,-0.167 0.035,-0.33 0.035,-0.5 0,-2.6 -1.442,-4.84 -3.582,-6 z" style="opacity:0.2;fill:#d3dae3"/>
   <path d="m 1,22.002 0,1 6,0 7.998,7.998 0,-1 L 7,22.002 l -6,0 z" style="opacity:0.2"/>
   <path d="m 18.998,5 0,1 c 4.4882,1.4316 7.77,5.5785 7.9805,10.5 0.0071,-0.16646 0.01953,-0.33183 0.01953,-0.5 0,-5.14 -3.36,-9.52 -8,-11 z M 29.977,16.5 C 29.751,23.073 25.142,28.479 18.998,30 l 0,1 c 6.3,-1.56 11,-7.2 11,-14 0,-0.16868 -0.01575,-0.33279 -0.02148,-0.5 z" style="opacity:0.2"/>
   <path d="m 22.545,16.5 c -0.17529,2.3834 -1.5653,4.4158 -3.5469,5.5 l 0,1 c 2.12,-1.16 3.582,-3.4 3.582,-6 0,-0.16981 -0.02306,-0.33346 -0.03516,-0.5 z" style="opacity:0.2"/>
  </g>
 </g>
</svg>
