<?xml version="1.0" encoding="UTF-8" standalone="no"?>
<svg
   xmlns:osb="http://www.openswatchbook.org/uri/2009/osb"
   xmlns:dc="http://purl.org/dc/elements/1.1/"
   xmlns:cc="http://creativecommons.org/ns#"
   xmlns:rdf="http://www.w3.org/1999/02/22-rdf-syntax-ns#"
   xmlns:svg="http://www.w3.org/2000/svg"
   xmlns="http://www.w3.org/2000/svg"
   width="32"
   version="1.1"
   style="enable-background:new"
   id="svg7384"
   height="32">
  <metadata
     id="metadata90">
    <rdf:RDF>
      <cc:Work
         rdf:about="">
        <dc:format>
                    image/svg+xml
                </dc:format>
        <dc:type
           rdf:resource="http://purl.org/dc/dcmitype/StillImage" />
        <dc:title>
        Paper Symbolic Icon Theme
    </dc:title>
      </cc:Work>
    </rdf:RDF>
  </metadata>
  <title
     id="title8473">
        Paper Symbolic Icon Theme
    </title>
  <defs
     id="defs7386">
    <linearGradient
       osb:paint="solid"
       id="linearGradient5606">
      <stop
         style="stop-color:#000000;stop-opacity:1;"
         offset="0"
         id="stop5608" />
    </linearGradient>
  </defs>
  <g
     id="bookmarks">
    <rect
       y="3.0664062e-06"
       x="-3.2714843e-06"
       height="32"
       width="32"
       id="rect4148"
       style="opacity:0.00100002;fill:#000000;fill-opacity:1;stroke:none;stroke-opacity:1" />
    <path
       style="fill:#000000;fill-opacity:1;opacity:0.2"
       id="path4818"
       d="m 21.621944,2.9998853 c -2.304403,0 -4.379608,1.1910773 -5.832646,3.000039 -1.453413,-1.8089617 -3.528556,-3.000039 -5.8330205,-3.000039 -4.3941046,0 -7.9562774,4.1156654 -7.9562774,9.1927447 0,1.364118 0.2085765,2.676855 0.5738667,3.930417 0,0 0.3312356,1.131076 0.6246674,1.753719 3.3536588,7.960976 12.5902018,13.123231 12.5902018,13.123231 0,0 9.236605,-5.162393 12.590201,-13.123231 3.353596,-7.9608387 0.432712,-1.060728 0.624667,-1.753719 0.348794,-1.259355 0.573867,-2.566299 0.573867,-3.930417 0,-5.0770793 -3.562173,-9.1927447 -7.956277,-9.1927447 z" />
    <path
       d="m 21.621944,1.9999453 c -2.304403,0 -4.379608,1.1910773 -5.832646,3.000039 -1.453413,-1.8089617 -3.528556,-3.000039 -5.8330205,-3.000039 -4.3941046,0 -7.9562774,4.1156654 -7.9562774,9.1927447 0,1.364118 0.2085765,2.676855 0.5738667,3.930417 0,0 0.3312356,1.131076 0.6246674,1.753719 3.3536588,7.960976 12.5902018,13.123231 12.5902018,13.123231 0,0 9.236605,-5.162393 12.590201,-13.123231 3.353596,-7.9608387 0.432712,-1.060728 0.624667,-1.753719 0.348794,-1.259355 0.573867,-2.566299 0.573867,-3.930417 0,-5.0770793 -3.562173,-9.1927447 -7.956277,-9.1927447 z"
       id="path4351"
       style="fill:#c2352a" />
    <path
       id="path4824"
       d="M 9.9570312,2 C 5.5629266,2 2,6.1162801 2,11.193359 2,11.371763 2.012512,11.546028 2.019531,11.722656 2.2326084,6.8654104 5.70023,3 9.9570312,3 12.261496,3 14.33565,4.1910383 15.789062,6 17.2421,4.1910383 19.316691,3 21.621094,3 c 4.253364,0 7.717378,3.8592203 7.935547,8.710938 0.0072,-0.172622 0.02148,-0.343107 0.02148,-0.517579 C 29.578125,6.1162801 26.015198,2 21.621094,2 19.316691,2 17.2421,3.1910383 15.789062,5 14.33565,3.1910383 12.261496,2 9.9570312,2 Z M 29.876953,13.275391 c -0.120086,0.269142 -0.311868,0.702348 -0.484375,1.083984 -0.0083,0.05052 -0.02051,0.100028 -0.0293,0.150391 0.04173,-0.105988 0.612053,-1.454871 0.513672,-1.234375 z"
       style="fill:#d3dae3;fill-opacity:1;opacity:0.2" />
  </g>
</svg>
