<svg xmlns="http://www.w3.org/2000/svg" xmlns:osb="http://www.openswatchbook.org/uri/2009/osb" width="32" height="32" version="1.1" style="enable-background:new">
 <defs>
  <linearGradient id="linearGradient5606" osb:paint="solid">
   <stop id="stop5608" offset="0" style="stop-color:#000000"/>
  </linearGradient>
 </defs>
 <g id="bookmarks">
  <path d="M 9.9570312,3 C 5.5629266,3 2,7.1162801 2,12.193359 c 0,1.364118 0.2089286,2.676126 0.5742188,3.929688 0,0 0.3315681,1.131263 0.625,1.753906 C 6.5528776,25.837929 16,31 16,31 c 0,0 9.447122,-5.162071 12.800781,-13.123047 0.293432,-0.622643 0.625,-1.753906 0.625,-1.753906 C 29.791071,14.869485 30,13.557477 30,12.193359 30,7.1162801 26.437073,3 22.042969,3 19.738504,3 17.453413,4.1910383 16,6 14.546587,4.1910383 12.261496,3 9.9570312,3 Z" style="opacity:0.2"/>
  <rect width="32" height="32" x="0" y="0" style="opacity:0.00100002"/>
  <path d="M 9.9570312 2 C 5.5629266 2 2 6.1162801 2 11.193359 C 2 12.557477 2.2089286 13.869485 2.5742188 15.123047 C 2.5742188 15.123047 2.9057869 16.25431 3.1992188 16.876953 C 6.5528776 24.837929 16 30 16 30 C 16 30 25.447122 24.837929 28.800781 16.876953 C 29.094213 16.25431 29.425781 15.123047 29.425781 15.123047 C 29.791071 13.869485 30 12.557477 30 11.193359 C 30 6.1162801 26.437073 2 22.042969 2 C 19.738504 2 17.453413 3.1910383 16 5 C 14.546587 3.1910383 12.261496 2 9.9570312 2 z" style="fill:#c2352a"/>
  <path d="M 9.9570312 2 C 5.5629267 2 2 6.1162805 2 11.193359 C 2 11.372076 2.0124773 11.547696 2.0195312 11.724609 C 2.2322298 6.8668695 5.699945 3 9.9570312 3 C 12.261496 3 14.546587 4.1910383 16 6 C 17.453413 4.1910383 19.738504 3 22.042969 3 C 26.300054 3 29.76777 6.8668695 29.980469 11.724609 C 29.987523 11.547696 30 11.372076 30 11.193359 C 30 6.1162805 26.437073 2 22.042969 2 C 19.738504 2 17.453413 3.1910383 16 5 C 14.546587 3.1910383 12.261496 2 9.9570312 2 z" style="fill:#ffffff;opacity:0.2"/>
 </g>
</svg>
