<svg xmlns="http://www.w3.org/2000/svg" width="22" height="22" version="1">
 <g id="cantata">
  <rect width="22" height="22" x="0" y="0" rx=".582" ry=".688" style="opacity:0.001"/>
  <path d="M 10.810547,2.9806386 A 8,8 0 0 0 2.9999995,11.023608 8.0000005,8.0000005 0 0 0 19,11.023608 8,8 0 0 0 10.810547,2.9806386 Z M 11,4.9786856 c 3.308423,0 6,2.6915771 6,6.0000004 0,3.308422 -2.691577,5.999998 -6,5.999998 -3.3084235,0 -6.0000005,-2.691576 -6.0000005,-5.999998 0,-3.3084233 2.691577,-6.0000004 6.0000005,-6.0000004 z m 0.400391,0.9999999 C 11.000391,5.9786855 11,6.3966543 11,6.3966543 l 0,4.7890627 c -0.384502,-0.136042 -0.670523,-0.206361 -1.0996095,-0.207031 -1.546397,0 -2.900391,0.89543 -2.900391,1.999998 0,1.10457 1.453603,2 3,2 1.5463985,0 3.0000015,-0.89543 3.0000015,-2 l 0,-4.9999985 c 0,0 2.26729,1.1586675 1.324218,2.0234385 -0.259008,0.14857 -0.344328,0.378196 -0.298828,0.578125 0.06909,0.303608 0.439979,0.538683 0.953125,0.320312 C 15.749531,10.498572 16,9.7779042 16,9.1779043 c 0,-1.8 -2.999608,-3.1992188 -4.599609,-3.1992188 z" style="fill:#d3dae3"/>
 </g>
</svg>
