<svg xmlns="http://www.w3.org/2000/svg" width="22" height="22" version="1.1" viewBox="0 0 22 22">
 <g id="choqok">
  <rect width="22" height="22" x="0" y="0" style="opacity:0.001"/>
  <path d="M 11,3 10.238281,4 9.400391,3.5 8.833984,4.7265625 C 7.079166,5.0876625 5.8381164,5.9347906 4.8105469,7.275391 3.0132402,9.620291 3,13.667425 3,15.953125 3,18.238825 7.190476,19 11,19 c 3.809524,0 8,-0.761175 8,-3.046875 0,-2.2857 -0.01325,-6.332834 -1.810547,-8.677734 C 16.161883,5.9347906 14.920835,5.0876625 13.166016,4.7265625 L 12.599609,3.5 11.761719,4 11,3 Z m 3.5,7 A 1.5,1.5 0 0 1 16,11.5 1.5,1.5 0 0 1 14.5,13 1.5,1.5 0 0 1 13,11.5 1.5,1.5 0 0 1 14.5,10 Z m -7,1 A 1.5,1.5 0 0 1 9,12.5 1.5,1.5 0 0 1 8.912109,13 1.5,1.5 0 0 0 7.5,12 1.5,1.5 0 0 0 6.0878906,13 1.5,1.5 0 0 1 6,12.5 1.5,1.5 0 0 1 7.5,11 Z m 6.5,0 0,1 1,0 0,-1 -1,0 z m -3,2 c 0.07658,10e-4 0.15085,0.03466 0.205078,0.09766 l 1.701172,1.738278 C 13.088291,15.046036 12.991911,15.9999 12.734375,16 L 11,16 9.265625,16 C 9.008086,15.9999 8.911709,15.046036 9.09375,14.835938 l 1.701172,-1.738282 C 10.849149,13.034656 10.923415,13.0001 11,13 Z" style="fill:#d3dae3"/>
 </g>
</svg>
