<?xml version="1.0" encoding="UTF-8" standalone="no"?>
<svg xmlns:osb="http://www.openswatchbook.org/uri/2009/osb" xmlns:dc="http://purl.org/dc/elements/1.1/" xmlns:cc="http://creativecommons.org/ns#" xmlns:rdf="http://www.w3.org/1999/02/22-rdf-syntax-ns#" xmlns:svg="http://www.w3.org/2000/svg" xmlns="http://www.w3.org/2000/svg" id="svg2" width="22" height="22" version="1.0">
    <metadata id="metadata7">
        <rdf:RDF>
            <cc:Work rdf:about="">
                <dc:format>
                    image/svg+xml
                </dc:format>
                <dc:type rdf:resource="http://purl.org/dc/dcmitype/StillImage"/>
                <dc:title/>
            </cc:Work>
        </rdf:RDF>
    </metadata>
    <defs id="defs5">
        <style id="current-color-scheme" type="text/css">
            .ColorScheme-Text { color:#31363b; } .ColorScheme-Background{ color:#E9E8E8; } .ColorScheme-ViewText { color:#000000; } .ColorScheme-ViewBackground{ color:#d3dae3; } .ColorScheme-ViewHover { color:#000000; } .ColorScheme-ViewFocus{ color:#5a5a5a; } .ColorScheme-ButtonText { color:#000000; } .ColorScheme-ButtonBackground{ color:#E9E8E8; } .ColorScheme-ButtonHover { color:#1489ff; } .ColorScheme-ButtonFocus{ color:#2B74C7; }
        </style>
        <linearGradient osb:paint="solid" id="linearGradient5606">
            <stop style="stop-color:#000000;stop-opacity:1;" offset="0" id="stop5608"/>
        </linearGradient>
    </defs>
    <g id="22-22-computer-laptop" transform="translate(66,0)">
        <rect y="3.1325511e-05" x="-30" height="21.999968" width="22" id="rect4289" style="opacity:0;fill:#31363b;fill-opacity:1;stroke:none"/>
        <g id="g4314">
            <path style="opacity:1;fill:#d3dae3;fill-opacity:1;fill-rule:nonzero;stroke:none;stroke-width:1;stroke-linecap:round;stroke-linejoin:round;stroke-miterlimit:4;stroke-dasharray:none;stroke-dashoffset:0;stroke-opacity:1" d="M 39.857422 2 C 38.274565 2 37 3.2495814 37 4.8007812 L 37 13.199219 C 37 14.750419 38.274565 16 39.857422 16 L 38.75 16 C 37.226506 16 36 16.892 36 18 C 36 19.108 37.226506 20 38.75 20 L 55.25 20 C 56.773494 20 58 19.108 58 18 C 58 16.892 56.773494 16 55.25 16 L 54.142578 16 C 55.725435 16 57 14.750419 57 13.199219 L 57 4.8007812 C 57 3.2495814 55.725435 2 54.142578 2 L 39.857422 2 z M 41.285156 5 L 52.714844 5 C 53.506273 5 54 5.4236187 54 6.1992188 L 54 11.800781 C 54 12.57638 53.506273 13.199219 52.714844 13.199219 L 41.285156 13.199219 C 40.493727 13.199219 40 12.57638 40 11.800781 L 40 6.1992188 C 40 5.4236187 40.493727 5 41.285156 5 z " transform="translate(-66,0)" id="path4293"/>
        </g>
    </g>
    <g id="16-16-computer">
        <rect style="opacity:0;fill:#00000f;fill-opacity:1;stroke:none" id="rect3034" width="15.988703" height="15.988683" x="-1.2044092e-06" y="26.011318"/>
        <path style="opacity:1;fill:#d3dae3;fill-opacity:1;fill-rule:nonzero;stroke:none;stroke-width:1;stroke-linecap:round;stroke-linejoin:round;stroke-miterlimit:4;stroke-dasharray:none;stroke-dashoffset:0;stroke-opacity:1" d="M 3 28 C 1.892 28 1 28.892 1 30 L 1 36 C 1 37.108 1.892 38 3 38 L 5 38 L 5 40 L 3 40 L 3 41 L 13 41 L 13 40 L 11 40 L 11 38 L 13 38 C 14.108 38 15 37.108 15 36 L 15 30 C 15 28.892 14.108 28 13 28 L 3 28 z M 4 30 L 12 30 C 12.554 30 13 30.446 13 31 L 13 35 C 13 35.554 12.554 36 12 36 L 4 36 C 3.446 36 3 35.554 3 35 L 3 31 C 3 30.446 3.446 30 4 30 z " id="rect4219"/>
    </g>
    <g id="16-16-computer-laptop">
        <rect style="opacity:0;fill:#31363b;fill-opacity:1;stroke:none" id="rect3042" width="16.000059" height="16.000036" x="36" y="25.99996"/>
        <g transform="translate(53,50)" id="g4242">
            <path style="opacity:1;fill:#d3dae3;fill-opacity:1;fill-rule:nonzero;stroke:none;stroke-width:1;stroke-linecap:round;stroke-linejoin:round;stroke-miterlimit:4;stroke-dasharray:none;stroke-dashoffset:0;stroke-opacity:1" d="M 39 28 C 37.892 28 37 28.892 37 30 L 37 36 C 37 37.108 37.892 38 39 38 L 38 38 C 36.892 38 36 38.669 36 39.5 C 36 40.331 36.892 41 38 41 L 50 41 C 51.108 41 52 40.331 52 39.5 C 52 38.669 51.108 38 50 38 L 49 38 C 50.108 38 51 37.108 51 36 L 51 30 C 51 28.892 50.108 28 49 28 L 39 28 z M 40 30 L 48 30 C 48.554 30 49 30.446 49 31 L 49 35 C 49 35.554 48.554 36 48 36 L 40 36 C 39.446 36 39 35.554 39 35 L 39 31 C 39 30.446 39.446 30 40 30 z " transform="translate(-53,-50)" id="path4233"/>
        </g>
    </g>
    <g id="22-22-computer" transform="translate(33,-1.5113048e-5)">
        <rect style="opacity:0;fill:#31363b;fill-opacity:1;stroke:none" id="rect4332" width="22" height="21.999968" x="-33" y="3.1325511e-05"/>
        <path style="opacity:1;fill:#d3dae3;fill-opacity:1;fill-rule:nonzero;stroke:none;stroke-width:1;stroke-linecap:round;stroke-linejoin:round;stroke-miterlimit:4;stroke-dasharray:none;stroke-dashoffset:0;stroke-opacity:1" d="M 3.8574219 2 C 2.2745649 2 1 3.2495813 1 4.8007812 L 1 13.199219 C 1 14.750419 2.2745649 16 3.8574219 16 L 7 16 L 7 19 L 4 19 L 4 20 L 18 20 L 18 19 L 15 19 L 15 16 L 18.142578 16 C 19.725435 16 21 14.750419 21 13.199219 L 21 4.8007812 C 21 3.2495813 19.725435 2 18.142578 2 L 3.8574219 2 z M 5.2851562 5 L 16.714844 5 C 17.506273 5 18 5.4236187 18 6.1992188 L 18 11.800781 C 18 12.57638 17.506273 13.199219 16.714844 13.199219 L 5.2851562 13.199219 C 4.4937272 13.199219 4 12.57638 4 11.800781 L 4 6.1992188 C 4 5.4236186 4.4937272 5 5.2851562 5 z " transform="translate(-33,1.5113048e-5)" id="path4336"/>
    </g>
    <g id="computer">
        <rect y="-34" x="0" height="32" width="32.000046" id="rect4419" style="opacity:0.001;fill:#000000;fill-opacity:1;stroke:none"/>
        <g transform="translate(2e-4,-35)" id="g4385">
            <rect style="fill:#7e7e7e" id="rect4777" transform="matrix(0,-1,-1,0,0,0)" rx="1.3125" ry="1.3333" height="16" width="21" y="-24" x="-28"/>
            <rect style="fill:#757575" id="rect4203-7" ry="1.3" rx="1.25" transform="matrix(0,-1,-1,0,0,0)" height="26" width="20" y="-29" x="-25"/>
            <rect style="fill:#4d4d4d" id="rect3282" transform="matrix(0,-1,-1,0,0,0)" rx="0" ry="0" height="22" width="16" y="-27" x="-23"/>
            <path style="opacity:0.1;fill:#d3dae3" id="rect4498" d="M 4.3008,5 C 3.5806,5 3,5.5575 3,6.25 l 0,1 C 3,6.5575 3.5806,6 4.3008,6 l 23.398,0 c 0.72,0 1.301,0.5575 1.301,1.25 l 0,-1 C 28.9998,5.5575 28.4188,5 27.6988,5 L 4.3008,5 Z"/>
            <path style="opacity:0.2" id="rect4505" d="m 8,26.688 0,1 C 8,28.415 8.5953,29 9.334,29 l 13.332,0 C 23.405,29 24,28.415 24,27.688 l 0,-1 C 24,27.415 23.405,28 22.666,28 L 9.334,28 C 8.5953,28 8,27.415 8,26.688 Z"/>
            <path style="opacity:0.2" id="rect4448" d="m 3,23.75 0,1 C 3,25.442 3.5806,26 4.3008,26 l 23.398,0 c 0.72,0 1.301,-0.558 1.301,-1.25 l 0,-1 c 0,0.692 -0.581,1.25 -1.301,1.25 l -23.398,0 c -0.7204,0 -1.301,-0.558 -1.301,-1.25 z"/>
        </g>
    </g>
    <g id="computer-laptop">
        <rect style="opacity:0.001;fill:#000000;fill-opacity:1;stroke:none" id="rect4393" width="32.000046" height="32" x="36" y="-34"/>
        <g transform="translate(36,-35)" id="g5042">
            <rect style="fill:#7e7e7e" id="rect4777-4" transform="matrix(0,-1,-1,0,0,0)" rx="1" ry="1" height="30" width="3" y="-31" x="-27"/>
            <path style="fill:#757575" id="rect4203-7-6" d="M 29,22.75 29,7.25 C 29,6.5575 28.42,6 27.7,6 L 4.3,6 C 3.5798,6 3,6.5575 3,7.25 l 0,15.5 C 3,23.442 3.5798,24 4.3,24 l 23.4,0 c 0.7202,0 1.3,-0.5575 1.3,-1.25 z"/>
            <path style="fill:#4d4d4d" id="rect3282-9" d="M 27,22 27,8 5,8 5,22 Z"/>
            <path style="opacity:0.1;fill:#d3dae3" id="rect4498-2" d="M 4.3008,6 C 3.5806,6 3,6.5575 3,7.25 l 0,1 C 3,7.5575 3.5806,7 4.3008,7 l 23.398,0 c 0.72,0 1.301,0.5575 1.301,1.25 l 0,-1 C 28.9998,6.5575 28.4188,6 27.6988,6 Z"/>
            <path style="opacity:0.2" id="rect4448-2" d="m 3,22.75 0,1 C 3,24.442 3.5806,25 4.3008,25 l 23.398,0 c 0.72,0 1.301,-0.558 1.301,-1.25 l 0,-1 c 0,0.692 -0.581,1.25 -1.301,1.25 l -23.398,0 c -0.7204,0 -1.301,-0.558 -1.301,-1.25 z"/>
            <path style="opacity:0.2" id="rect4352" d="m 1,26 0,1 c 0,0.554 0.446,1 1,1 l 28,0 c 0.554,0 1,-0.446 1,-1 l 0,-1 c 0,0.554 -0.446,1 -1,1 L 2,27 C 1.446,27 1,26.554 1,26 Z"/>
        </g>
    </g>
</svg>
