<svg xmlns="http://www.w3.org/2000/svg" width="32" height="32" version="1.1">
 <g id="22-22-disk-quota" transform="translate(-5.0000005,-27)">
  <rect style="opacity:0.001" width="22" height="22" x="5" y="5"/>
  <g transform="translate(8,8.0002)">
   <path style="fill:#d3dae3" transform="translate(-2.9760473,23.980925)" d="m 5.9765625,-23.980469 c -1,0 -1,1.142578 -1,1.142578 v 13.7148441 c 0,0 0,1.1425781 1,1.1425781 h 6.9999995 v -5.0000002 c 0,-0.248628 0.07186,-0.464156 0.173829,-0.65039 -0.62663,0.40747 -1.370718,0.65039 -2.173829,0.65039 H 6.9765625 v -4 c 0,-2.2091 1.7909,-4 3.9999995,-4 2.209,0 4,1.7909 4,4 0,0.974222 -0.362523,1.855007 -0.941406,2.548828 0.160758,-0.08044 0.327472,-0.146266 0.503906,-0.205078 0.687658,-0.229219 1.519,-0.34375 2.4375,-0.34375 v -7.857422 c 0,-10e-5 0,-1.142578 -1,-1.142578 z m 4.9999995,5 c -1.1045995,0 -1.9999995,0.8954 -1.9999995,2 0,1.1046 0.8954,2 1.9999995,2 1.104601,0 2,-0.8954 2,-2 0,-1.1046 -0.895399,-2 -2,-2 z m 6,5 a 3,1 0 0 0 -3,1 v 5.0000002 a 3,1 0 0 0 3,1 3,1 0 0 0 3,-1 v -5.0000002 a 3,1 0 0 0 -3,-1 z m -0.0918,1 a 3,1 0 0 1 0.0918,0 3,1 0 0 1 2,0.257813 v 0.486328 a 3,1 0 0 1 -2,0.255859 3,1 0 0 1 -2,-0.257812 v -0.486328 a 3,1 0 0 1 1.908204,-0.25586 z m -1.908204,1.744141 a 3,1 0 0 0 2,0.255859 3,1 0 0 0 2,-0.255859 v 1 a 3,1 0 0 1 -2,0.2558592 3,1 0 0 1 -2,-0.2578122 z m 0,1.9999999 a 3,1 0 0 0 2,0.2558593 3,1 0 0 0 2,-0.2558593 v 1 a 3,1 0 0 1 -2,0.2558593 3,1 0 0 1 -2,-0.2578124 z"/>
  </g>
 </g>
 <g id="22-22-disk-quota-low" transform="translate(27,-27)">
  <rect style="opacity:0.001" width="22" height="22" x="5" y="5"/>
  <g transform="translate(8,8.0002)">
   <path style="fill:#d3dae3" transform="translate(-34.976047,23.980925)" d="m 37.976562,-23.980469 c -1,0 -1,1.142578 -1,1.142578 v 13.7148441 c 0,0 0,1.1425781 1,1.1425781 h 7 v -5.0000002 c 0,-0.248628 0.07186,-0.464156 0.173829,-0.65039 -0.62663,0.40747 -1.370718,0.65039 -2.173829,0.65039 h -4 v -4 c 0,-2.2091 1.7909,-4 4,-4 2.209,0 4,1.7909 4,4 0,0.974222 -0.362523,1.855007 -0.941406,2.548828 0.160758,-0.08044 0.327472,-0.146266 0.503906,-0.205078 0.687658,-0.229219 1.519001,-0.34375 2.4375,-0.34375 v -7.857422 c 0,-10e-5 0,-1.142578 -1,-1.142578 z m 5,5 c -1.104599,0 -2,0.8954 -2,2 0,1.1046 0.8954,2 2,2 1.1046,0 2.000001,-0.8954 2,-2 0,-1.1046 -0.895399,-2 -2,-2 z m 6,5 c -1.656854,0 -3,0.447715 -3,1 v 5.0000002 c 0,0.5522851 1.343146,1 3,1 1.656855,0 3.000001,-0.4477149 3,-1 v -5.0000002 c 0,-0.552285 -1.343145,-1 -3,-1 z m 0,1 c 0.739186,8.7e-4 1.451386,0.09268 2,0.257813 v 0.486328 c -0.549483,0.164426 -1.261586,0.255525 -2,0.255859 -0.739185,-8.7e-4 -1.451385,-0.09268 -2,-0.257812 v -0.486328 c 0.549484,-0.164426 1.261587,-0.255526 2,-0.25586 z m -2,1.744141 c 0.549484,0.164426 1.261587,0.255525 2,0.255859 0.738414,-3.34e-4 1.450517,-0.09143 2,-0.255859 v 1 c -0.549483,0.164426 -1.261586,0.2555253 -2,0.2558592 -0.739185,-8.699e-4 -1.451385,-0.09268 -2,-0.2578122 z"/>
  </g>
 </g>
 <g id="22-22-disk-quota-high" transform="translate(59,-27)">
  <rect style="opacity:0.001" width="22" height="22" x="5" y="5"/>
  <g transform="translate(8,8.0002)">
   <path style="fill:#d3dae3" transform="translate(-8,-8.0002)" d="M 11,8 C 10,8 10,9.1425781 10,9.1425781 V 22.857422 C 10,22.857422 10,24 11,24 h 7 v -5 c 0,-0.248628 0.07186,-0.464157 0.173828,-0.650391 C 17.547198,18.757079 16.80311,19 16,19 h -4 v -4 c 0,-2.2091 1.7909,-4 4,-4 2.209,0 4,1.7909 4,4 0,0.974222 -0.362523,1.855007 -0.941406,2.548828 0.160758,-0.08044 0.327471,-0.146266 0.503906,-0.205078 C 20.250157,17.114531 21.0815,17 22,17 V 9.1425781 C 22,9.1424781 22,8 21,8 Z m 5,5 c -1.1046,0 -2,0.8954 -2,2 0,1.1046 0.8954,2 2,2 1.1046,0 2,-0.8954 2,-2 0,-1.1046 -0.8954,-2 -2,-2 z"/>
  </g>
  <path style="fill:#ff9800" d="m 22,18 c -1.656854,0 -3,0.447715 -3,1 v 5 c 0,0.552285 1.343146,1 3,1 1.656854,0 3,-0.447715 3,-1 v -5 c 0,-0.552285 -1.343146,-1 -3,-1 z m 0,1 c 0.739186,8.7e-4 1.451386,0.09268 2,0.257812 v 0.486329 C 23.450517,19.908567 22.738413,19.999666 22,20 21.260814,19.99913 20.548614,19.907323 20,19.742188 V 19.255859 C 20.549483,19.091433 21.261587,19.000334 22,19 Z"/>
 </g>
 <g id="22-22-disk-quota-critical" transform="translate(91,-27)">
  <rect style="opacity:0.001" width="22" height="22" x="5" y="5"/>
  <g transform="translate(8,8.0002)">
   <path style="fill:#f44336" transform="translate(-98.976047,23.980925)" d="m 101.97656,-23.980469 c -1,0 -1,1.142578 -1,1.142578 v 13.7148441 c 0,0 0,1.1425781 1,1.1425781 h 7 v -5.0000002 c 0,-0.248628 0.0719,-0.464156 0.17383,-0.65039 -0.62663,0.40747 -1.37072,0.65039 -2.17383,0.65039 h -4 v -4 c 0,-2.2091 1.7909,-4 4,-4 2.209,0 4,1.7909 4,4 0,0.974222 -0.36252,1.855007 -0.9414,2.548828 0.16075,-0.08044 0.32747,-0.146266 0.5039,-0.205078 0.68766,-0.229219 1.519,-0.34375 2.4375,-0.34375 v -7.857422 c 0,-10e-5 0,-1.142578 -1,-1.142578 z m 5,5 c -1.1046,0 -2,0.8954 -2,2 0,1.1046 0.8954,2 2,2 1.1046,0 2,-0.8954 2,-2 0,-1.1046 -0.8954,-2 -2,-2 z m 6,5 c -1.65685,0 -3,0.447715 -3,1 v 5.0000002 c 0,0.5522851 1.34315,1 3,1 1.65686,0 3,-0.4477149 3,-1 v -5.0000002 c 0,-0.552285 -1.34314,-1 -3,-1 z m 0,1 c 0.73919,8.7e-4 1.45139,0.09268 2,0.257813 v 0.486328 c -0.54948,0.164426 -1.26158,0.255525 -2,0.255859 -0.73918,-8.7e-4 -1.45138,-0.09268 -2,-0.257812 v -0.486328 c 0.54949,-0.164426 1.26159,-0.255526 2,-0.25586 z"/>
  </g>
 </g>
 <g id="22-22-disk-quota-missing" transform="translate(123,-27)">
  <rect style="opacity:0.001" width="22" height="22" x="5" y="5"/>
  <g transform="translate(8,8.0002)">
   <path style="opacity:0.3;fill:#d3dae3" transform="translate(-130.97605,23.980925)" d="m 133.97656,-23.980469 c -1,0 -1,1.142578 -1,1.142578 v 13.7148441 c 0,0 0,1.1425781 1,1.1425781 h 7 v -5.0000002 c 0,-0.248628 0.0719,-0.464156 0.17383,-0.65039 -0.62663,0.40747 -1.37072,0.65039 -2.17383,0.65039 h -4 v -4 c 0,-2.2091 1.7909,-4 4,-4 2.209,0 4,1.7909 4,4 0,0.974222 -0.36252,1.855007 -0.9414,2.548828 0.16075,-0.08044 0.32747,-0.146266 0.5039,-0.205078 0.68766,-0.229219 1.519,-0.34375 2.4375,-0.34375 v -7.857422 c 0,-10e-5 0,-1.142578 -1,-1.142578 z m 5,5 c -1.1046,0 -2,0.8954 -2,2 0,1.1046 0.8954,2 2,2 1.1046,0 2,-0.8954 2,-2 0,-1.1046 -0.8954,-2 -2,-2 z m 6,5 a 3,1 0 0 0 -3,1 v 5.0000002 a 3,1 0 0 0 3,1 3,1 0 0 0 3,-1 v -5.0000002 a 3,1 0 0 0 -3,-1 z m -0.0918,1 a 3,1 0 0 1 0.0918,0 3,1 0 0 1 2,0.257813 v 0.486328 a 3,1 0 0 1 -2,0.255859 3,1 0 0 1 -2,-0.257812 v -0.486328 a 3,1 0 0 1 1.90821,-0.25586 z m -1.90821,1.744141 a 3,1 0 0 0 2,0.255859 3,1 0 0 0 2,-0.255859 v 1 a 3,1 0 0 1 -2,0.2558592 3,1 0 0 1 -2,-0.2578122 z m 0,1.9999999 a 3,1 0 0 0 2,0.2558593 3,1 0 0 0 2,-0.2558593 v 1 a 3,1 0 0 1 -2,0.2558593 3,1 0 0 1 -2,-0.2578124 z"/>
  </g>
 </g>
 <g id="disk-quota">
  <rect style="opacity:0.001" width="32" height="32" x="0" y="0"/>
  <g transform="matrix(1.5,0,0,1.5,4,4.0003)">
   <path style="fill:#d3dae3" transform="matrix(0.66666667,0,0,0.66666667,-2.6666667,-2.6668667)" d="M 8.5 4 C 7 4 7 5.7128906 7 5.7128906 L 7 17.5 L 7 26.287109 C 7 26.287109 7 28 8.5 28 L 13 28 L 18.058594 28 C 18.033497 27.861047 18.000253 27.726943 18 27.576172 L 18 27.574219 L 18 20.425781 L 18 20.423828 C 18.000499 20.11994 18.068767 19.850052 18.160156 19.595703 A 6 6 0 0 1 16 20 L 10 20 L 10 14 A 6 6 0 0 1 16 8 A 6 6 0 0 1 22 14 A 6 6 0 0 1 20.939453 17.404297 C 21.859869 17.134812 22.881709 17 24 17 C 24.342522 17 24.674885 17.013056 25 17.037109 L 25 5.7128906 C 25 5.7127406 25 4 23.5 4 L 8.5 4 z M 16 11 A 3 3 0 0 0 13 14 A 3 3 0 0 0 16 17 A 3 3 0 0 0 19 14 A 3 3 0 0 0 16 11 z M 24 19 A 3.9999996 1.4285714 0 0 0 20 20.427734 L 20 27.572266 A 3.9999996 1.4285714 0 0 0 24 29 A 3.9999996 1.4285714 0 0 0 28 27.572266 L 28 20.427734 A 3.9999996 1.4285714 0 0 0 24 19 z M 23.863281 20.029297 A 4.5000008 1.4285714 0 0 1 24 20.029297 A 4.5000008 1.4285714 0 0 1 27 20.396484 L 27 21.091797 A 4.5000008 1.4285714 0 0 1 24 21.457031 A 4.5000008 1.4285714 0 0 1 21 21.087891 L 21 20.394531 A 4.5000008 1.4285714 0 0 1 23.863281 20.029297 z M 21 23.005859 A 4.5000008 1.4285714 0 0 0 24 23.371094 A 4.5000008 1.4285714 0 0 0 27 23.005859 L 27 24.433594 A 4.5000008 1.4285714 0 0 1 24 24.800781 A 4.5000008 1.4285714 0 0 1 21 24.431641 L 21 23.005859 z M 21 26.205078 A 4.5000008 1.4285714 0 0 0 24 26.572266 A 4.5000008 1.4285714 0 0 0 27 26.205078 L 27 27.634766 A 4.5000008 1.4285714 0 0 1 24 28 A 4.5000008 1.4285714 0 0 1 21 27.630859 L 21 26.205078 z"/>
  </g>
 </g>
 <g id="disk-quota-low" transform="translate(32)">
  <rect style="opacity:0.001" width="32" height="32" x="0" y="0"/>
  <g transform="matrix(1.5,0,0,1.5,4,4.0003)">
   <path style="fill:#d3dae3" transform="matrix(0.66666667,0,0,0.66666667,-24,-2.6668667)" d="M 40.5 4 C 39 4 39 5.7128906 39 5.7128906 L 39 17.5 L 39 26.287109 C 39 26.287109 39 28 40.5 28 L 45 28 L 50.058594 28 C 50.033497 27.861047 50.000253 27.726943 50 27.576172 L 50 27.574219 L 50 20.425781 L 50 20.423828 C 50.000499 20.11994 50.06877 19.850052 50.160156 19.595703 A 6 6 0 0 1 48 20 L 42 20 L 42 14 A 6 6 0 0 1 48 8 A 6 6 0 0 1 54 14 A 6 6 0 0 1 52.939453 17.404297 C 53.859869 17.134812 54.881709 17 56 17 C 56.342522 17 56.674885 17.013059 57 17.037109 L 57 5.7128906 C 57 5.7127406 57 4 55.5 4 L 40.5 4 z M 48 11 A 3 3 0 0 0 45 14 A 3 3 0 0 0 48 17 A 3 3 0 0 0 51 14 A 3 3 0 0 0 48 11 z M 56 19 C 53.791776 19 52.001294 19.639083 52 20.427734 L 52 27.572266 C 52.001294 28.360917 53.791776 29 56 29 C 58.208224 29 59.998706 28.360917 60 27.572266 L 60 20.427734 C 59.998706 19.639083 58.208224 19 56 19 z M 55.863281 20.029297 C 55.908851 20.029077 55.954431 20.029077 56 20.029297 C 57.108315 20.030234 58.176557 20.160982 59 20.396484 L 59 21.091797 C 58.175646 21.32659 57.107503 21.45663 56 21.457031 C 54.890872 21.455531 53.822529 21.324102 53 21.087891 L 53 20.394531 C 53.789 20.169459 54.803088 20.040105 55.863281 20.029297 z M 53 23.005859 C 53.824354 23.240652 54.892496 23.370693 56 23.371094 C 57.107504 23.370693 58.175646 23.240652 59 23.005859 L 59 24.433594 C 58.176557 24.669096 57.108315 24.799844 56 24.800781 C 54.890872 24.799281 53.822529 24.667852 53 24.431641 L 53 23.005859 z"/>
  </g>
 </g>
 <g id="disk-quota-high" transform="translate(64)">
  <rect style="opacity:0.001" width="32" height="32" x="0" y="0"/>
  <g transform="matrix(1.5,0,0,1.5,4,4.0003)">
   <path style="fill:#d3dae3" transform="matrix(0.66666667,0,0,0.66666667,-2.6666667,-2.6668667)" d="M 8.5,4 C 7,4 7,5.7128906 7,5.7128906 V 17.5 26.287109 C 7,26.287109 7,28 8.5,28 H 13 18.058594 C 18.033497,27.861047 18.000253,27.726943 18,27.576172 v -0.002 -7.148438 -0.002 c 4.99e-4,-0.303888 0.06877,-0.573776 0.160156,-0.828125 A 6,6 0 0 1 16,20 h -6 v -6 a 6,6 0 0 1 6,-6 6,6 0 0 1 6,6 6,6 0 0 1 -1.060547,3.404297 C 21.859869,17.134812 22.881709,17 24,17 c 0.342522,0 0.674885,0.01306 1,0.03711 V 5.7128906 C 25,5.7127406 25,4 23.5,4 Z m 7.5,7 a 3,3 0 0 0 -3,3 3,3 0 0 0 3,3 3,3 0 0 0 3,-3 3,3 0 0 0 -3,-3 z"/>
  </g>
  <path style="fill:#ff9800" d="m 24,19 c -2.208224,0 -3.998706,0.639083 -4,1.427734 v 7.144532 C 20.001294,28.360917 21.791776,29 24,29 c 2.208224,0 3.998706,-0.639083 4,-1.427734 V 20.427734 C 27.998706,19.639083 26.208224,19 24,19 Z m -0.136719,1.029297 c 0.04557,-2.2e-4 0.09115,-2.2e-4 0.136719,0 1.108315,9.37e-4 2.176557,0.131685 3,0.367187 v 0.695313 c -0.824354,0.234793 -1.892497,0.364833 -3,0.365234 -1.109128,-0.0015 -2.177471,-0.132929 -3,-0.36914 v -0.69336 c 0.789,-0.225072 1.803088,-0.354426 2.863281,-0.365234 z"/>
 </g>
 <g id="disk-quota-critical" transform="translate(96)">
  <rect style="opacity:0.001" width="32" height="32" x="0" y="0"/>
  <g transform="matrix(1.5,0,0,1.5,4,4.0003)">
   <path style="fill:#f44336" transform="matrix(0.66666667,0,0,0.66666667,-66.666667,-2.6668667)" d="M 104.5 4 C 103 4 103 5.7128906 103 5.7128906 L 103 17.5 L 103 26.287109 C 103 26.287109 103 28 104.5 28 L 109 28 L 114.05859 28 C 114.0335 27.861047 114.00025 27.726943 114 27.576172 L 114 27.574219 L 114 20.425781 L 114 20.423828 C 114.0005 20.11994 114.06877 19.850052 114.16016 19.595703 A 6 6 0 0 1 112 20 L 106 20 L 106 14 A 6 6 0 0 1 112 8 A 6 6 0 0 1 118 14 A 6 6 0 0 1 116.93945 17.404297 C 117.85987 17.134812 118.88171 17 120 17 C 120.34252 17 120.67488 17.013059 121 17.037109 L 121 5.7128906 C 121 5.7127406 121 4 119.5 4 L 104.5 4 z M 112 11 A 3 3 0 0 0 109 14 A 3 3 0 0 0 112 17 A 3 3 0 0 0 115 14 A 3 3 0 0 0 112 11 z M 120 19 C 117.79178 19 116.00129 19.639083 116 20.427734 L 116 27.572266 C 116.00129 28.360917 117.79178 29 120 29 C 122.20822 29 123.99871 28.360917 124 27.572266 L 124 20.427734 C 123.99871 19.639083 122.20822 19 120 19 z M 119.86328 20.029297 C 119.90885 20.029077 119.95443 20.029077 120 20.029297 C 121.10832 20.030234 122.17656 20.160982 123 20.396484 L 123 21.091797 C 122.17565 21.32659 121.1075 21.45663 120 21.457031 C 118.89087 21.455531 117.82253 21.324102 117 21.087891 L 117 20.394531 C 117.789 20.169459 118.80309 20.040105 119.86328 20.029297 z"/>
  </g>
 </g>
 <g id="disk-quota-missing" transform="translate(128)">
  <rect style="opacity:0.001" width="32" height="32" x="0" y="0"/>
  <g transform="matrix(1.5,0,0,1.5,4,4.0003)">
   <path style="opacity:0.3;fill:#d3dae3" transform="matrix(0.66666667,0,0,0.66666667,-88,-2.6668667)" d="M 136.5 4 C 135 4 135 5.7128906 135 5.7128906 L 135 17.5 L 135 26.287109 C 135 26.287109 135 28 136.5 28 L 141 28 L 146.05859 28 C 146.0335 27.861047 146.00025 27.726943 146 27.576172 L 146 27.574219 L 146 20.425781 L 146 20.423828 C 146.0005 20.11994 146.06877 19.850052 146.16016 19.595703 A 6 6 0 0 1 144 20 L 138 20 L 138 14 A 6 6 0 0 1 144 8 A 6 6 0 0 1 150 14 A 6 6 0 0 1 148.93945 17.404297 C 149.85987 17.134812 150.88171 17 152 17 C 152.34252 17 152.67488 17.013059 153 17.037109 L 153 5.7128906 C 153 5.7127406 153 4 151.5 4 L 136.5 4 z M 144 11 A 3 3 0 0 0 141 14 A 3 3 0 0 0 144 17 A 3 3 0 0 0 147 14 A 3 3 0 0 0 144 11 z M 152 19 A 3.9999996 1.4285714 0 0 0 148 20.427734 L 148 27.572266 A 3.9999996 1.4285714 0 0 0 152 29 A 3.9999996 1.4285714 0 0 0 156 27.572266 L 156 20.427734 A 3.9999996 1.4285714 0 0 0 152 19 z M 151.86328 20.029297 A 4.5000008 1.4285714 0 0 1 152 20.029297 A 4.5000008 1.4285714 0 0 1 155 20.396484 L 155 21.091797 A 4.5000008 1.4285714 0 0 1 152 21.457031 A 4.5000008 1.4285714 0 0 1 149 21.087891 L 149 20.394531 A 4.5000008 1.4285714 0 0 1 151.86328 20.029297 z M 149 23.005859 A 4.5000008 1.4285714 0 0 0 152 23.371094 A 4.5000008 1.4285714 0 0 0 155 23.005859 L 155 24.433594 A 4.5000008 1.4285714 0 0 1 152 24.800781 A 4.5000008 1.4285714 0 0 1 149 24.431641 L 149 23.005859 z M 149 26.205078 A 4.5000008 1.4285714 0 0 0 152 26.572266 A 4.5000008 1.4285714 0 0 0 155 26.205078 L 155 27.634766 A 4.5000008 1.4285714 0 0 1 152 28 A 4.5000008 1.4285714 0 0 1 149 27.630859 L 149 26.205078 z"/>
  </g>
 </g>
</svg>
