<svg xmlns="http://www.w3.org/2000/svg" width="32" height="32" version="1.1">
 <g id="22-22-edit-delete" transform="translate(-3.8146973e-6,-32)">
  <rect style="opacity:0.001" width="22" height="22" x="32" y="42"/>
  <path style="fill:#d3dae3" d="m 42,46.000004 c -1,0 -1,1 -1,1 h -3 c 0,0 -1,0 -1,1 v 1 h 13 v -1 c 0,-1 -1,-1 -1,-1 h -3 c 0,0 0,-1 -1,-1 z m -4,4 v 9 c 0,0.52 0.48,1 1,1 h 9 c 0.52,0 1,-0.48 1,-1 v -9 z m 2,2 h 0.90625 c 0.283364,0 0.535646,0.09445 0.681641,0.222656 L 43.5,53.890629 45.412109,52.22266 c 0.145996,-0.128203 0.398276,-0.222656 0.681641,-0.222656 H 47 v 0.736328 c 0,0.201239 -0.08178,0.384741 -0.228516,0.513672 l -2.001953,1.75 2.001953,1.75 c 0.127119,0.111628 0.191946,0.29569 0.228516,0.5625 v 0.6875 h -0.90625 c -0.283365,0 -0.535645,-0.09445 -0.681641,-0.222656 L 43.5,56.099613 41.587891,57.777348 c -0.145995,0.128207 -0.398277,0.222656 -0.681641,0.222656 H 40 v -0.736328 c 0,-0.201239 0.08192,-0.384938 0.228516,-0.513672 l 2.001953,-1.75 -2.001953,-1.75 C 40.081486,53.120676 40,52.937571 40,52.736332 Z"/>
 </g>
 <g id="edit-delete" transform="translate(0,-32)">
  <rect style="opacity:0.001" width="32" height="32" x="0" y="32"/>
  <path style="fill:#d3dae3" d="M 13.460938,36 C 11.76863,36 12,38 12,38 H 6.6914062 C 6.6914062,38 5,37.966149 5,39.632812 V 41 H 27 V 39.632812 C 27,37.966147 25.308594,38 25.308594,38 H 20 c 0,0 0.231369,-2 -1.460938,-2 z M 7,43 V 58.300781 C 7,59.184781 7.7858102,60 8.6367188,60 H 23.363281 C 24.214189,60 25,59.184781 25,58.300781 V 43 Z m 3,3 h 1.552734 c 0.485766,0 0.919645,0.17316 1.169922,0.408203 L 16,49.466797 19.277344,46.408203 C 19.527623,46.173165 19.961497,46 20.447266,46 H 22 v 1.349609 c 0,0.368938 -0.14103,0.705035 -0.392578,0.941407 L 18.175781,51.5 21.607422,54.708984 C 21.82534,54.913635 21.937309,55.251082 22,55.740234 V 57 h -1.552734 c -0.485769,0 -0.919643,-0.17316 -1.169922,-0.408203 L 16,53.515625 12.722656,56.591797 C 12.472379,56.826842 12.0385,57 11.552734,57 H 10 v -1.349609 c 0,-0.368938 0.14127,-0.705395 0.392578,-0.941407 L 13.824219,51.5 10.392578,48.291016 C 10.140526,48.053916 10,47.718547 10,47.349609 Z"/>
 </g>
</svg>
