<?xml version="1.0" encoding="UTF-8" standalone="no"?>
<svg
   xmlns:osb="http://www.openswatchbook.org/uri/2009/osb"
   xmlns:dc="http://purl.org/dc/elements/1.1/"
   xmlns:cc="http://creativecommons.org/ns#"
   xmlns:rdf="http://www.w3.org/1999/02/22-rdf-syntax-ns#"
   xmlns:svg="http://www.w3.org/2000/svg"
   xmlns="http://www.w3.org/2000/svg"
   width="22"
   version="1.1"
   style="enable-background:new"
   id="svg7384"
   height="22">
  <metadata
     id="metadata90">
    <rdf:RDF>
      <cc:Work
         rdf:about="">
        <dc:format>
                    image/svg+xml
                </dc:format>
        <dc:type
           rdf:resource="http://purl.org/dc/dcmitype/StillImage" />
        <dc:title>
        Paper Symbolic Icon Theme
    </dc:title>
      </cc:Work>
    </rdf:RDF>
  </metadata>
  <title
     id="title8473">
        Paper Symbolic Icon Theme
    </title>
  <defs
     id="defs7386">
    <linearGradient
       osb:paint="solid"
       id="linearGradient5606">
      <stop
         style="stop-color:#000000;stop-opacity:1;"
         offset="0"
         id="stop5608" />
    </linearGradient>
  </defs>
  <g
     transform="translate(-465.0004,105.00336)"
     id="go-home">
    <path
       id="rect4138"
       d="m 465.0004,-105.00336 22,0 0,22.000003 -22,0 z"
       style="opacity:0;fill:#000000;fill-opacity:0.3254902;fill-rule:nonzero;stroke:none;stroke-width:1;stroke-linecap:round;stroke-linejoin:round;stroke-miterlimit:4;stroke-dasharray:none;stroke-dashoffset:0;stroke-opacity:1" />
    <path
       style="opacity:1;fill:#d3dae3;fill-opacity:1;stroke:none"
       id="path16259-2"
       d="m 468.0004,-94.00336 2,0 0,8 5,0 0,-4 2,0 0,4 5,0 0,-8 2,0 -8,-8 z" />
  </g>
  <g
     transform="translate(-465.0004,105.00336)"
     id="go-up">
    <path
       id="path4198"
       d="m 489.0004,-105.00336 0,22 22,0 0,-22 z"
       style="opacity:0;fill:#000000;fill-opacity:0.3254902;fill-rule:nonzero;stroke:none;stroke-width:1;stroke-linecap:round;stroke-linejoin:round;stroke-miterlimit:4;stroke-dasharray:none;stroke-dashoffset:0;stroke-opacity:1" />
    <path
       id="rect4216"
       d="m 491.5004,-93.976987 2.11644,2.123305 4.36736,-4.379438 0,10.229758 2.99342,0 0,-10.264919 4.40439,4.414599 2.11839,-2.123305 -8,-8.026373 z"
       style="opacity:1;fill:#d3dae3;fill-opacity:1;stroke:none;stroke-opacity:1" />
  </g>
  <g
     id="go-down"
     transform="matrix(1,0,0,-1,-441.0004,-83.00336)">
    <path
       style="opacity:0;fill:#000000;fill-opacity:0.3254902;fill-rule:nonzero;stroke:none;stroke-width:1;stroke-linecap:round;stroke-linejoin:round;stroke-miterlimit:4;stroke-dasharray:none;stroke-dashoffset:0;stroke-opacity:1"
       d="m 489.0004,-105.00336 0,22 22,0 0,-22 z"
       id="path4233" />
    <path
       style="opacity:1;fill:#d3dae3;fill-opacity:1;stroke:none;stroke-opacity:1"
       d="m 491.5004,-93.976987 2.11644,2.123305 4.36736,-4.379438 0,10.229758 2.99342,0 0,-10.264919 4.40439,4.414599 2.11839,-2.123305 -8,-8.026373 z"
       id="path4235" />
  </g>
  <g
     transform="translate(-465.0004,105.00336)"
     id="go-previous">
    <path
       id="path4239"
       d="m 537.0004,-105.00336 22,0 0,22 -22,0 z"
       style="opacity:0;fill:#000000;fill-opacity:0.3254902;fill-rule:nonzero;stroke:none;stroke-width:1;stroke-linecap:round;stroke-linejoin:round;stroke-miterlimit:4;stroke-dasharray:none;stroke-dashoffset:0;stroke-opacity:1" />
    <path
       id="path4241"
       d="m 548.02677,-102.50336 2.12331,2.11644 -4.37944,4.36736 10.22976,0 0,2.99342 -10.26492,0 4.4146,4.40439 -2.12331,2.11839 -8.02637,-8 z"
       style="opacity:1;fill:#d3dae3;fill-opacity:1;stroke:none;stroke-opacity:1" />
  </g>
  <g
     id="go-next"
     transform="matrix(-1,0,0,1,655.0004,105.00336)">
    <path
       style="opacity:0;fill:#000000;fill-opacity:0.3254902;fill-rule:nonzero;stroke:none;stroke-width:1;stroke-linecap:round;stroke-linejoin:round;stroke-miterlimit:4;stroke-dasharray:none;stroke-dashoffset:0;stroke-opacity:1"
       d="m 537.0004,-105.00336 22,0 0,22 -22,0 z"
       id="path4253" />
    <path
       style="opacity:1;fill:#d3dae3;fill-opacity:1;stroke:none;stroke-opacity:1"
       d="m 548.02677,-102.50336 2.12331,2.11644 -4.37944,4.36736 10.22976,0 0,2.99342 -10.26492,0 4.4146,4.40439 -2.12331,2.11839 -8.02637,-8 z"
       id="path4255" />
  </g>
</svg>
