<svg xmlns="http://www.w3.org/2000/svg" width="32" height="32" version="1.1">
 <g id="22-22-input-mouse-battery" transform="translate(224,-22)">
  <rect style="opacity:0.001" width="22" height="22" x="0" y="0"/>
  <path style="fill:#d3dae3" d="M 10,3 C 7.1891901,3.2515385 5,5.6018325 5,8.484375 v 0.5 h 5 z m 1,0 v 5.984375 h 5 v -0.5 C 16,5.6018325 13.81081,3.2515385 11,3 Z M 5,9.9863281 V 13.492188 C 5,16.543658 7.4530001,19 10.5,19 13.547,19 16,16.543658 16,13.492188 V 9.9863281 H 11 10 Z M 11,11 v 3 h 2 l -3,4 V 15 H 8 Z"/>
 </g>
 <g id="22-22-input-keyboard-battery" transform="translate(160,-22)">
  <rect style="opacity:0.001" width="22" height="22" x="0" y="0"/>
  <path style="fill:#d3dae3" d="m 5,4.9999998 c -1.108,0 -2,0.892 -2,2.0000001 V 15 c 0,1.108 0.892,2 2,2 h 12 c 1.108,0 2,-0.892 2,-2 V 6.9999999 C 19,5.8919998 18.108,4.9999998 17,4.9999998 Z M 4,6.9999999 h 2 v 2 H 4 Z m 3,0 h 2 v 2 H 7 Z m 3,0 h 2 v 2 h -2 z m 3,0 h 2 v 2 h -2 z m 3,0 h 2 v 2 H 16 V 12 h 2 l -3,4 v -3 h -2 l 3,-4.0000001 z m -12,3 H 6 V 12 H 4 Z m 3,0 H 9 V 12 H 7 Z m 3,0 h 2 V 12 H 10 Z M 5,13 h 7 v 2 H 5 Z"/>
 </g>
 <g id="22-22-input-keyboard-brightness" transform="translate(95.999992,-22)">
  <rect style="opacity:0.001" width="22" height="22" x="0" y="0"/>
  <path style="fill:#d3dae3" d="M 5,5 C 3.892,5 3,5.892 3,7 v 8 c 0,1.108 0.892,2 2,2 h 12 c 1.108,0 2,-0.892 2,-2 V 7 C 19,5.892 18.108,5 17,5 Z M 4,7 H 6 V 9 H 4 Z M 7,7 H 9 V 9 H 7 Z m 3,0 h 2 v 2 h -2 z m 3,0 h 2 v 2 h -2 z m 3,0 h 2 V 9 H 16 Z M 4,10 h 2 v 2 H 4 Z m 3,0 h 2 v 2 H 7 Z m 3,0 h 2 v 2 h -2 z m 5.5,0 C 16.880712,10 18,11.119288 18,12.5 18,13.880712 16.880712,15 15.5,15 14.119288,15 13,13.880712 13,12.5 13,11.119288 14.119288,10 15.5,10 Z M 15,11 v 3 c 0.828427,0 2,0 2,-1.5 C 17,11 15.828427,11 15,11 Z M 5,13 h 7 v 2 H 5 Z"/>
 </g>
 <g id="22-22-input-keyboard" transform="translate(-12,2)">
  <rect style="opacity:0.001" width="22" height="22" x="12" y="-24"/>
  <path style="fill:#d3dae3" d="m 17,-19 c -1.108,0 -2,0.892 -2,2 v 8 c 0,1.108 0.892,2 2,2 h 12 c 1.108,0 2,-0.892 2,-2 v -8 c 0,-1.108 -0.892,-2 -2,-2 z m -1,2 h 2 v 2 h -2 z m 3,0 h 2 v 2 h -2 z m 3,0 h 2 v 2 h -2 z m 3,0 h 2 v 2 h -2 z m 3,0 h 2 v 2 h -2 z m -12,3 h 2 v 2 h -2 z m 3,0 h 2 v 2 h -2 z m 3,0 h 2 v 2 h -2 z m 3,0 h 2 v 2 h -2 z m 3,0 h 2 v 2 h -2 z m -11,3 h 6 1 5 v 2 h -5 -1 -6 z"/>
 </g>
 <g id="22-22-input-caps-on" transform="translate(-16.000001,30)">
  <rect style="opacity:0.001" width="22" height="22" x="48" y="-52"/>
  <path style="fill:#d3dae3" d="m 53,-47 c -1.108,0 -2,0.892 -2,2 v 8 c 0,1.108 0.892,2 2,2 h 12 c 1.108,0 2,-0.892 2,-2 v -8 c 0,-1.108 -0.892,-2 -2,-2 z m -1,2 h 2 v 2 h -2 z m 3,0 h 2 v 2 h -2 z m 3,0 h 2 v 2 h -2 z m 3,0 h 2 v 2 h -2 z m 3,0 h 2 v 2 h -2 z m -12,3 h 2 v 2 h -2 z m 3,0 h 2 v 2 h -2 z m 3,0 h 2 v 2 h -2 z m 4,0 h 3 v 1 h -2 v 3 h 2 v 1 h -3 z m -9,3 h 7 v 2 h -7 z"/>
 </g>
 <g id="22-22-input-touchpad-on" transform="translate(-169.0002,143.00336)">
  <path style="opacity:0.001" d="m 425.0002,-165.00336 h 22 c 0,0 0,0 0,0 v 22 c 0,0 0,0 0,0 h -22 c 0,0 0,0 0,0 v -22 c 0,0 0,0 0,0 z"/>
  <path style="fill:#d3dae3" d="m 428.19942,-162.00336 c -1.2,0 -1.19922,1.23047 -1.19922,1.23047 v 13.53906 c 0,0 -7.8e-4,1.23047 1.19922,1.23047 h 15.60156 c 0,0 1.19922,3e-4 1.19922,-1.23047 v -13.53906 c 0,-1.23077 -1.19922,-1.23047 -1.19922,-1.23047 z m 12.80078,2 h 2 v 1 h -2 z m 0,2 h 2 v 1 h -2 z m 0,2 h 2 v 1 h -2 z m 0,2 h 2 v 1 h -2 z m -12,3 h 6 v 3 h -6 z m 8,0 h 6 v 3 h -6 z"/>
 </g>
 <g id="22-22-input-touchpad-off" transform="translate(-159.0002,143.00336)">
  <path style="opacity:0.001" d="m 447.0002,-165.00336 h 22 c 0,0 0,0 0,0 v 22 c 0,0 0,0 0,0 h -22 c 0,0 0,0 0,0 v -22 c 0,0 0,0 0,0 z"/>
  <path style="opacity:0.3;fill:#d3dae3" d="m 450.19942,-162.00336 c -1.2,0 -1.19922,1.23047 -1.19922,1.23047 v 13.53906 c 0,0 -7.8e-4,1.23047 1.19922,1.23047 h 15.60156 c 0,0 1.19922,3e-4 1.19922,-1.23047 v -13.53906 c 0,-1.23077 -1.19922,-1.23047 -1.19922,-1.23047 z m 12.80078,2 h 2 v 1 h -2 z m 0,2 h 2 v 1 h -2 z m 0,2 h 2 v 1 h -2 z m 0,2 h 2 v 1 h -2 z m -12,3 h 6 v 3 h -6 z m 8,0 h 6 v 3 h -6 z"/>
 </g>
 <g id="22-22-input-num-on" transform="translate(31.999998,-32)">
  <rect style="opacity:0.001" width="22" height="22" x="32" y="10"/>
  <path style="fill:#d3dae3" d="m 37,15 c -1.108,0 -2,0.892 -2,2 v 8 c 0,1.108 0.892,2 2,2 h 12 c 1.108,0 2,-0.892 2,-2 v -8 c 0,-1.108 -0.892,-2 -2,-2 z m -1,2 h 2 v 2 h -2 z m 3,0 h 2 v 2 h -2 z m 3,0 h 2 v 2 h -2 z m 3,0 h 2 v 2 h -2 z m 3,0 h 2 v 2 h -2 z m -12,3 h 2 v 2 h -2 z m 3,0 h 2 v 2 h -2 z m 3,0 h 2 v 2 h -2 z m 5,0 h 1 v 4 h 1 v 1 h -1 -1 -1 v -1 h 1 v -2 h -1 v -1 h 1 z m -10,3 h 7 v 2 h -7 z"/>
 </g>
 <g id="22-22-input-keyboard-virtual-on">
  <rect style="opacity:0.001" width="22" height="22" x="128" y="-22"/>
  <path style="fill:#d3dae3" d="m 133,-17 c -1.108,0 -2,0.892 -2,2 v 8 c 0,1.108 0.892,2 2,2 h 8.77148 c -0.18402,-0.2205141 -0.36641,-0.4364742 -0.5625,-0.6933594 -0.31598,-0.3746643 -0.57904,-0.6734087 -0.79296,-0.9746094 C 140.34544,-6.7673366 140.27166,-6.8796791 140.20312,-7 H 140 h -1 -6 v -2 h 6 1 1 v 0.037109 c 0.21075,-0.042375 0.38695,-0.041868 0.52539,-0.025391 0.36179,0.043061 0.63174,0.1432842 0.74805,0.1757812 0.36644,0.1023848 0.50078,0.2933156 0.72851,0.46875 -0.001,-0.1244683 -0.001,-0.129352 -0.002,-0.2734375 -0.004,-0.6039956 -5.5e-4,-0.919825 0,-1.3828127 h -2 v -2 h 2 v 0.900391 c 0,-0.2 -0.0323,-0.505166 0.12109,-0.935547 0.0767,-0.215191 0.22556,-0.480258 0.48633,-0.677735 C 143.8682,-12.91037 144.20814,-13 144.5,-13 H 144 v -2 h 2 v 2 h -1.5 c 0.29186,0 0.63182,0.08962 0.89258,0.287109 0.26077,0.19748 0.40963,0.462546 0.48633,0.677735 0.15334,0.430377 0.11914,0.735547 0.11914,0.935547 9.5e-4,0.05051 -3.1e-4,0.187935 0,0.259765 0.13451,0.04671 0.27783,0.04005 0.39257,0.126953 0.2608,0.197477 0.40963,0.462544 0.48633,0.677735 0.0265,0.075487 0.005,0.096152 0.0215,0.1640622 0.0338,0.00924 0.0675,0.016449 0.10156,0.023438 V -15 c 0,-1.108 -0.892,-2 -2,-2 z m -1,2 h 2 v 2 h -2 z m 3,0 h 2 v 2 h -2 z m 3,0 h 2 v 2 h -2 z m 3,0 h 2 v 2 h -2 z m -9,3 h 2 v 2 h -2 z m 3,0 h 2 v 2 h -2 z m 3,0 h 2 v 2 h -2 z m 6.5,0 c -0.49921,0 -0.5,0.500391 -0.5,0.900391 -0.006,0.353102 -0.007,1.3892961 0,2.4765621 0.0106,1.738042 0.0208,1.9858019 0,2.0605469 -0.887,-0.201593 -1.23378,-1.0741184 -1.99609,-1.2871094 -0.32069,-0.0896 -0.9374,-0.3096352 -0.99805,0.027344 -0.0548,0.304659 0.32409,0.7224285 0.99805,1.5234375 1.05975,1.388365 1.97658,2.2235766 2.1582,2.2753906 0.11105,0.03173 2.98851,0.03163 3.10351,0 0.0522,-0.01437 0.12574,-0.061689 0.17969,-0.1152344 0.0756,-0.07504 0.10339,-0.1290718 0.16211,-0.3105469 0.16811,-0.5195749 0.3392,-1.1117052 0.38672,-1.5507812 0.0117,-0.287465 0.003,-0.5282775 0,-0.7890625 0,-0.515182 0.004,-0.1206719 0,-0.3105469 0,-0.4 -8e-4,-0.9003906 -0.5,-0.9003906 -0.49921,0 -0.49805,0.5003906 -0.49805,0.9003906 8.6e-4,-0.404087 0.003,-0.855117 0,-1 0,-0.4 -8e-4,-0.9003906 -0.5,-0.9003906 -0.4992,0 -0.49804,0.5003906 -0.49804,0.9003906 8.6e-4,-0.404085 0.003,-0.855117 0,-1 0,-0.4 -7.9e-4,-0.9003906 -0.5,-0.9003906 -0.4992,0 -0.5,0.5003906 -0.5,0.9003906 0.001,-0.219947 0,-0.2746231 0,-0.6894531 0,-0.5151817 0.004,-1.1206717 0,-1.3105467 0,-0.4 0.001,-0.900391 -0.49805,-0.900391 z"/>
 </g>
 <g id="22-22-input-keyboard-virtual-off" transform="translate(31.999999)">
  <rect style="opacity:0.001" width="22" height="22" x="160" y="-22"/>
  <path style="opacity:0.3;fill:#d3dae3" d="m 165,-17 c -1.108,0 -2,0.892 -2,2 v 8 c 0,1.108 0.892,2 2,2 h 7.00781 a 5,5 0 0 1 -0.90234,-2 H 171 165 v -2 h 6 0.10156 a 5,5 0 0 1 0.31836,-1 H 170 v -2 h 2 v 1.009766 a 5,5 0 0 1 1,-1.001954 V -12 h 0.01 a 5,5 0 0 1 2.99,-1 v -2 h 2 v 2 h -2 a 5,5 0 0 1 3,1.007812 V -15 c 0,-1.108 -0.892,-2 -2,-2 z m -1,2 h 2 v 2 h -2 z m 3,0 h 2 v 2 h -2 z m 3,0 h 2 v 2 h -2 z m 3,0 h 2 v 2 h -2 z m -9,3 h 2 v 2 h -2 z m 3,0 h 2 v 2 h -2 z"/>
  <path style="fill:#d3dae3" d="m 176,-12 c -2.2091,0 -4,1.7909 -4,4 0,2.2091 1.7909,4 4,4 2.2091,0 4,-1.7909 4,-4 0,-2.2091 -1.7909,-4 -4,-4 z m -1.64258,1.632812 -0.004,0.01367 1.64648,1.6464848 1.64648,-1.6464848 0.70704,0.7070316 L 176.70703,-8 l 1.64649,1.6464844 -0.70704,0.7070312 -1.64257,-1.6601562 -1.64649,1.6464844 -0.70703,-0.7070313 1.64649,-1.6464844 -1.64649,-1.6464843 z"/>
 </g>
 <g id="input-caps-on" transform="translate(32)">
  <rect style="opacity:0.001" width="32" height="32" x="0" y="0"/>
  <path style="fill:#d3dae3" d="M 7,7 C 5.3379999,7 4,8.3380004 4,10 v 12 c 0,1.662001 1.3379999,3 3,3 h 18 c 1.662,0 3,-1.337999 3,-3 V 10 C 28,8.3380005 26.662,7 25,7 Z m 0,2 h 3 v 3 H 7 Z m 5,0 h 3 v 3 h -3 z m 5,0 h 3 v 3 h -3 z m 5,0 h 3 v 3 H 22 Z M 7,14 h 3 v 3 H 7 Z m 5,0 h 3 v 3 h -3 z m 6,0 h 2 4 v 2 h -4 v 4 h 4 v 2 H 18 V 20 16 Z M 7,19 h 8 v 3 H 7 Z"/>
 </g>
 <g id="input-keyboard" transform="translate(1.4e-6)">
  <rect style="opacity:0.001" width="32" height="32" x="0" y="0"/>
  <path style="fill:#d3dae3" d="M 7,7 C 5.3379999,7 4,8.3380004 4,10 v 12 c 0,1.662001 1.3379999,3 3,3 h 18 c 1.662,0 3,-1.337999 3,-3 V 10 C 28,8.3380005 26.662,7 25,7 Z m 0,2 h 3 v 3 H 7 Z m 5,0 h 3 v 3 h -3 z m 5,0 h 3 v 3 h -3 z m 5,0 h 3 v 3 H 22 Z M 7,14 h 3 v 3 H 7 Z m 5,0 h 3 v 3 h -3 z m 5,0 h 3 v 3 h -3 z m 5,0 h 3 v 3 H 22 Z M 7,19 h 9 1.5 7.5 v 3 H 17.5 16 7 Z"/>
 </g>
 <g id="input-num-on" transform="translate(63.999999)">
  <rect style="opacity:0.001" width="32" height="32" x="0" y="0"/>
  <path style="fill:#d3dae3" d="M 7,7 C 5.3379999,7 4,8.3380004 4,10 v 12 c 0,1.662001 1.3379999,3 3,3 h 18 c 1.662,0 3,-1.337999 3,-3 V 10 C 28,8.3380005 26.662,7 25,7 Z m 0,2 h 3 v 3 H 7 Z m 5,0 h 3 v 3 h -3 z m 5,0 h 3 v 3 h -3 z m 5,0 h 3 v 3 H 22 Z M 7,14 h 3 v 3 H 7 Z m 5,0 h 3 v 3 h -3 z m 8,0 h 2 v 6 h 2 v 2 h -2 -2 -2 v -2 h 2 v -3 h -2 v -2 h 2 z M 7,19 h 8 v 3 H 7 Z"/>
 </g>
 <g id="input-keyboard-brightness" transform="translate(96.000002)">
  <rect style="opacity:0.001" width="32" height="32" x="0" y="0"/>
  <path style="fill:#d3dae3" d="M 7,7 C 5.3379999,7 4,8.3380004 4,10 v 12 c 0,1.662001 1.3379999,3 3,3 h 18 c 1.662,0 3,-1.337999 3,-3 V 10 C 28,8.3380005 26.662,7 25,7 Z m 0,2 h 3 v 3 H 7 Z m 5,0 h 3 v 3 h -3 z m 5,0 h 3 v 3 h -3 z m 5,0 h 3 v 3 H 22 Z M 7,14 h 3 v 3 H 7 Z m 5,0 h 3 v 3 h -3 z m 9,0 a 4,4 0 0 1 4,4 4,4 0 0 1 -4,4 4,4 0 0 1 -4,-4 4,4 0 0 1 4,-4 z m 0,2 v 4 a 2,2 0 0 0 2,-2 2,2 0 0 0 -2,-2 z M 7,19 h 8 v 3 H 7 Z"/>
 </g>
 <g id="input-keyboard-virtual-on" transform="translate(128)">
  <rect style="opacity:0.001" width="32" height="32" x="0" y="0"/>
  <path style="fill:#d3dae3" d="M 7,7 C 5.3379999,7 4,8.3380004 4,10 v 12 c 0,1.662001 1.3379999,3 3,3 H 19.267578 C 18.925092,24.64378 18.580004,24.286016 18.212891,23.865234 17.680382,23.31335 17.232253,22.867949 16.84375,22.388672 16.750298,22.273384 16.642252,22.143065 16.537109,22 H 16 7 v -3 h 9 0.501953 c 0.342172,-0.430756 0.792268,-0.772056 1.148438,-0.882812 0.57347,-0.178333 0.942269,-0.134303 1.255859,-0.101563 0.627179,0.06548 1.093767,0.217885 1.289062,0.265625 0.344876,0.0843 0.574471,0.243807 0.847657,0.378906 -0.0081,-1.410223 -0.01003,-2.765958 0,-3.310547 0,-0.523088 0.04311,-1.178013 0.492187,-1.927734 C 21.984231,12.672154 23.087758,12 24.099609,12 H 22 V 9 h 3 v 3 h -0.900391 c 1.011905,0 2.191766,0.767372 2.585938,1.554688 0.394097,0.787395 0.367187,1.386535 0.367187,1.794921 0.0039,0.185396 -2.4e-5,0.623731 0,0.978516 C 27.437276,16.493114 27.72581,16.69784 28,16.960938 V 10 C 28,8.3380005 26.662,7 25,7 Z m 0,2 h 3 v 3 H 7 Z m 5,0 h 3 v 3 h -3 z m 5,0 h 3 v 3 H 17 Z M 7,14 h 3 v 3 H 7 Z m 5,0 h 3 v 3 h -3 z m 5,0 h 3 v 3 h -3 z m 7.099609,0 c -0.855858,0 -1.05664,0.749632 -1.05664,1.349609 -0.01026,0.529631 -0.012,2.08401 0,3.714844 0.01817,2.606957 0.03566,2.979684 0,3.091797 -1.520692,-0.302377 -2.015345,-1.612167 -3.322266,-1.931641 -0.549799,-0.134394 -1.606956,-0.464432 -1.710937,0.04102 -0.09395,0.45697 0.555485,1.083691 1.710937,2.285156 1.816859,2.082464 3.387846,3.336346 3.699219,3.414063 0.190386,0.04759 5.123153,0.04745 5.320312,0 0.0895,-0.02155 0.216102,-0.09352 0.308594,-0.173828 0.129611,-0.112556 0.176672,-0.192643 0.277344,-0.464844 0.288211,-0.779331 0.582593,-1.667584 0.664062,-2.326172 0.02006,-0.43118 0.0051,-0.792432 0,-1.183594 0,-0.772743 0.0069,-0.181996 0,-0.466797 C 29.990234,20.749629 29.988622,20 29.132812,20 29.076415,20 29.043343,20.011318 29,20.017578 V 20 c 0,-0.554 -0.446,-1 -1,-1 -0.554,0 -1,0.446 -1,1 0.0015,-0.606104 -0.02615,-0.433074 -0.03125,-0.650391 C 26.96875,18.749634 26.865678,18 26.009766,18 c -0.85584,0 -0.957032,0.749634 -0.957032,1.349609 0.0017,-0.329906 0,-0.410982 0,-1.033203 0,-0.772741 0.0069,-2.681995 0,-2.966797 C 25.052734,14.749633 24.955179,14 24.099609,14 Z"/>
 </g>
 <g id="input-keyboard-virtual-off" transform="translate(192)">
  <rect style="opacity:0.001" width="32" height="32" x="0" y="0"/>
  <path style="opacity:0.3;fill:#d3dae3" d="M 7,7 C 5.3379999,7 4,8.3380004 4,10 v 12 c 0,1.662001 1.3379999,3 3,3 H 17.080078 C 16.556243,24.096044 16.203731,23.083249 16.068359,22 H 16 7 v -3 h 9 0.261719 c 0.183158,-0.71002 0.459499,-1.380733 0.818359,-2 H 17 v -3 h 3 v 0.08008 C 21.177882,13.397505 22.540705,13 24,13 c 1.459295,0 2.822118,0.397505 4,1.080078 V 10 C 28,8.3380005 26.662,7 25,7 Z m 0,2 h 3 v 3 H 7 Z m 5,0 h 3 v 3 h -3 z m 5,0 h 3 v 3 h -3 z m 5,0 h 3 v 3 H 22 Z M 7,14 h 3 v 3 H 7 Z m 5,0 h 3 v 3 h -3 z"/>
  <path style="fill:#d3dae3" d="m 24,15 c -3.31365,0 -6,2.68635 -6,6 0,3.31365 2.68635,6 6,6 3.31365,0 6,-2.68635 6,-6 0,-3.31365 -2.68635,-6 -6,-6 z m -2.464844,2.449219 -0.0059,0.01953 L 24,19.939453 26.46875,17.46875 27.529297,18.529297 25.060547,21 l 2.470703,2.46875 -1.0625,1.060547 -2.462891,-2.490235 -2.470703,2.470704 -1.060547,-1.060547 2.470703,-2.470703 -2.470703,-2.46875 z"/>
 </g>
 <g id="input-keyboard-battery" transform="translate(160)">
  <rect style="opacity:0.001" width="32" height="32" x="0" y="0"/>
  <path style="fill:#d3dae3" d="M 7,7 C 5.3379999,7 4,8.3380004 4,10 v 12 c 0,1.662001 1.3379999,3 3,3 h 18 c 1.662,0 3,-1.337999 3,-3 V 10 C 28,8.3380005 26.662,7 25,7 Z m 0,2 h 3 v 3 H 7 Z m 5,0 h 3 v 3 h -3 z m 5,0 h 3 v 3 h -3 z m 5,0 h 3 v 3 h -3 z m 0,4 v 4 h 3 l -4,6 V 19 H 18 Z M 7,14 h 3 v 3 H 7 Z m 5,0 h 3 v 3 h -3 z m -5,5 h 8 v 3 H 7 Z"/>
 </g>
 <g id="input-mouse-battery" transform="translate(224)">
  <rect style="opacity:0.001" width="32" height="32" x="0" y="0"/>
  <path style="fill:#d3dae3" d="M 15,4.0390625 C 11.044534,4.5452568 8,8.0000837 8,12.226562 V 12.599609 12.976562 13 h 7 z m 2,0 V 13 h 7 V 12.97656 12.599607 12.22656 C 24,8.0000876 20.955467,4.5452568 17,4.0390625 Z M 8,15 v 4.738281 C 8,24.315486 11.568,28 16,28 c 4.432,0 8,-3.684514 8,-8.261719 V 15 Z m 9,1 v 4 h 3 l -4,6 v -4 h -3 z"/>
 </g>
 <g id="input-touchpad-on" transform="translate(256,4.77288e-6)">
  <path style="opacity:0.001" d="M -1.5909e-6,-4.77288e-6 H 31.999999 c 0,0 0,0 0,0 V 31.999996 c 0,0 0,0 0,0 H -1.5909e-6 c 0,0 0,0 0,0 V -4.77288e-6 c 0,0 0,0 0,0 z"/>
  <path style="fill:#d3dae3" d="M 4.7324219,4 C 2.9990886,4 3,5.7695312 3,5.7695312 V 25.230469 C 3,25.230469 2.9990952,27 4.7324219,27 H 27.267578 C 27.267578,27 29,26.999701 29,25.230469 V 5.7695312 C 29,4.0002996 27.267578,4 27.267578,4 Z M 23,7 h 3 v 1 h -3 z m 0,3 h 3 v 1 h -3 z m 0,3 h 3 v 1 h -3 z m 0,3 h 3 v 1 H 23 Z M 6,20 h 9 v 4 H 6 Z m 11,0 h 9 v 4 h -9 z"/>
 </g>
 <g id="input-touchpad-off" transform="translate(288,4.77288e-6)">
  <path style="opacity:0.001" d="M -1.5909e-6,-4.77288e-6 H 31.999999 c 0,0 0,0 0,0 V 31.999996 c 0,0 0,0 0,0 H -1.5909e-6 c 0,0 0,0 0,0 V -4.77288e-6 c 0,0 0,0 0,0 z"/>
  <path style="opacity:0.3;fill:#d3dae3" d="M 4.7324219,4 C 2.9990886,4 3,5.7695312 3,5.7695312 V 25.230469 C 3,25.230469 2.9990952,27 4.7324219,27 H 27.267578 C 27.267578,27 29,26.999701 29,25.230469 V 5.7695312 C 29,4.0002996 27.267578,4 27.267578,4 Z M 23,7 h 3 v 1 h -3 z m 0,3 h 3 v 1 h -3 z m 0,3 h 3 v 1 h -3 z m 0,3 h 3 v 1 H 23 Z M 6,20 h 9 v 4 H 6 Z m 11,0 h 9 v 4 h -9 z"/>
 </g>
</svg>
