<svg xmlns="http://www.w3.org/2000/svg" width="32" height="32" version="1">
 <g id="22-22-internet-web-browser" transform="translate(27,5.0000005)">
  <rect style="opacity:0.001" width="22" height="22" x="5" y="5"/>
  <path style="fill:#d3dae3" d="m 16,8 c -4.42,0 -8,3.58 -8,8 0,4.42 3.58,8 8,8 4.42,0 8,-3.58 8,-8 0,-4.42 -3.58,-8 -8,-8 z m 4.86,3.14 -3.25,6.47 -6.47,3.25 3.25,-6.47 z m -4.86,4 c -0.47,0 -0.86,0.39 -0.86,0.86 0,0.47 0.39,0.86 0.86,0.86 0.47,0 0.86,-0.39 0.86,-0.86 0,-0.47 -0.39,-0.86 -0.86,-0.86 z"/>
 </g>
 <g id="internet-web-browser">
  <rect style="opacity:0.001" width="32" height="32" x="0" y="0"/>
  <path style="fill:#d3dae3" d="M 16 4 C 9.37 4 4 9.37 4 16 C 4 22.63 9.37 28 16 28 C 22.63 28 28 22.63 28 16 C 28 9.37 22.63 4 16 4 z M 23 9 L 18.318359 18.318359 L 9 23 L 13.681641 13.681641 L 23 9 z M 16 15 C 15.453488 15 15 15.453488 15 16 C 15 16.546512 15.453488 17 16 17 C 16.546512 17 17 16.546512 17 16 C 17 15.453488 16.546512 15 16 15 z"/>
 </g>
</svg>
