<svg xmlns="http://www.w3.org/2000/svg" width="32" height="32" version="1">
 <g id="22-22-juk" transform="translate(27,5)">
  <rect style="opacity:0.001" width="22" height="22" x="5" y="5"/>
  <path style="fill:#d3dae3" d="m 14.191406,8 c -0.0089,-9.76e-5 -0.01649,0.0011 -0.02539,0.00195 -0.1641,0.013032 -0.275283,0.171679 -0.230469,0.3300781 0.917986,3.2447639 2.69527,9.4768659 2.806641,9.8671879 A 3.5,3 0 0 0 15.5,18 3.5,3 0 0 0 12,21 3.5,3 0 0 0 15.5,24 3.5,3 0 0 0 19,21 3.5,3 0 0 0 18.96875,20.619141 c -0.0011,-0.02355 0.01005,-0.04325 0.002,-0.06836 0,0 -1.245195,-4.880804 -2.167969,-7.972656 0.65389,0.274369 1.106603,0.424401 1.751954,0.712891 0.82956,0.370839 1.479019,0.834923 2,2.558593 0.08717,0.281979 0.50139,0.22472 0.509765,-0.07031 6.87e-4,-0.03324 -0.01205,-0.04732 -0.01172,-0.08008 0,0 0,-0.002 0,-0.002 0.01794,-1.877543 -0.37648,-2.818425 -1.1875,-3.527344 -0.825536,-0.72156 -1.893319,-1.050683 -2.941406,-1.564453 C 15.951335,10.128756 15.149694,9.1009524 14.394531,8.1035156 14.346711,8.0399476 14.270926,8.002148 14.191406,8 Z"/>
 </g>
 <g id="juk">
  <rect style="opacity:0.001" width="32" height="32" x="0" y="0"/>
  <path style="fill:#d3dae3" d="M 11.466797 2 C 11.451147 1.9998296 11.435502 2.0005189 11.419922 2.0019531 C 11.132747 2.0247651 10.939153 2.3048329 11.017578 2.5820312 C 12.674008 8.4369337 17.052734 20.386719 17.052734 20.386719 C 17.05515 20.394056 17.061675 20.399061 17.064453 20.40625 A 6.5 5 0 0 0 14.5 20 A 6.5 5 0 0 0 8 25 A 6.5 5 0 0 0 14.5 30 A 6.5 5 0 0 0 21 25 A 6.5 5 0 0 0 20.558594 23.1875 A 6.5 5 0 0 0 20.556641 23.183594 C 20.120207 22.008768 17.522578 14.995485 16.035156 10.011719 C 17.179464 10.491865 18.472198 10.754908 19.601562 11.259766 C 21.053296 11.908735 22.189848 12.719905 23.101562 15.736328 C 23.254105 16.229792 23.979484 16.131536 23.994141 15.615234 C 23.995341 15.557064 23.972086 15.531943 23.972656 15.474609 L 23.974609 15.474609 C 23.974108 15.473109 23.973156 15.472403 23.972656 15.470703 C 24.004056 12.185003 23.315768 10.539437 21.896484 9.2988281 C 20.4518 8.0361221 18.0822 7.457692 16.248047 6.5585938 C 14.546185 5.7243448 13.141848 3.9271551 11.820312 2.1816406 C 11.73662 2.0703924 11.605957 2.0037587 11.466797 2 z"/>
 </g>
</svg>
