<svg xmlns="http://www.w3.org/2000/svg" width="32" height="32" version="1.1">
 <g id="22-22-kaffeine" transform="translate(10e-7,2)">
  <path style="opacity:0.001" d="m 32,8.0000001 h 22 c 0,0 0,0 0,0 V 30 c 0,0 0,0 0,0 H 32 c 0,0 0,0 0,0 V 8.0000001 c 0,0 0,0 0,0 z"/>
  <path style="fill:#d3dae3" d="m 35.199219,11 c -0.0089,0 -0.01466,0.0038 -0.02344,0.0039 L 37.171875,13 H 40 L 38,11 Z M 40,13 38,15 h -2.828125 l 2,-2 H 34.34375 L 34,12.65625 V 25.769531 C 34,25.769531 33.999219,27 35.199219,27 H 50.800781 C 50.800781,27 52,27.000301 52,25.769531 V 13 h -0.685547 l -2,2 h -2.828125 l 2,-2 h 2.828125 L 49.3125,11 H 46.486328 L 48.433594,12.947266 48.380859,13 H 45.65625 l -2,2 h -2.828125 l 2,-2 h 2.828125 l -2,-2 H 40.828125 L 42.820312,12.992188 42.8125,13 Z m -5.125,-1.960938 c -0.180583,0.04094 -0.324002,0.115833 -0.4375,0.208985 0.114021,-0.09345 0.256541,-0.167617 0.4375,-0.208985 z m -0.4375,0.208985 c 0,0 -0.002,0 -0.002,0 -0.05685,0.04681 -0.105532,0.09812 -0.148438,0.152344 0.04308,-0.05377 0.09338,-0.105619 0.150391,-0.152344 z M 40.773438,16 a 0.80778854,0.87104999 0 0 1 0.46289,0.132812 l 2.691406,1.814454 2.69336,1.814453 a 0.80778854,0.87104999 0 0 1 0,1.476562 l -2.69336,1.814453 -2.691406,1.814454 A 0.80778854,0.87104999 0 0 1 40,24.128906 V 20.5 16.871094 A 0.80778854,0.87104999 0 0 1 40.773438,16 Z"/>
 </g>
 <g id="kaffeine">
  <path style="opacity:0.001" d="m 0,-8.5454545e-7 h 32.000001 c 0,0 0,0 0,0 V 32 c 0,0 0,0 0,0 H 0 c 0,0 0,0 0,0 V -8.5454545e-7 c 0,0 0,0 0,0 z"/>
  <path style="fill:#d3dae3" d="m 4.7324219,4 c -0.012855,0 -0.020521,0.00572 -0.033203,0.00586 l 2.8574218,2.96875 H 3.4960938 L 3,6.4804688 V 25.230469 C 3,25.230469 2.9990867,27 4.7324219,27 H 27.267578 C 27.267578,27 29,26.999701 29,25.230469 V 6.9746094 H 28.009766 L 25.121094,10 h -4.085938 l 2.888672,-3.0253906 h 4.085938 L 25.117188,4 h -4.082032 l 2.8125,2.8984375 -0.07617,0.076172 H 19.835938 L 16.947266,10 h -4.083985 l 2.888672,-3.0253906 h 4.083985 L 16.947266,4 h -4.083985 l 2.876953,2.9628906 -0.01172,0.011719 h -4.0625 L 11.654297,6.9882812 8.7773438,4 Z M 7.5703125,6.9882812 7.5820312,7 H 11.642578 L 8.7773438,10 H 4.6933594 Z m 5.5351565,5.0136718 c 0.232727,-0.0103 0.462865,0.05643 0.660156,0.191406 l 3.845703,2.621094 3.847656,2.619141 c 0.722243,0.492899 0.722243,1.639913 0,2.132812 L 17.611328,22.1875 13.765625,24.808594 C 12.997184,25.332318 12.00029,24.730211 12,23.742188 V 18.5 13.259766 c -4.05e-4,-0.67459 0.487271,-1.229472 1.105469,-1.257813 z"/>
  <path style="fill:#d3dae3" d="M 4.2638889,4.056152 C 4.0030468,4.1150032 3.795886,4.2226619 3.6319445,4.3565679 3.7966415,4.2222336 4.0025037,4.1156186 4.2638889,4.056152 Z"/>
  <path style="fill:#d3dae3" d="m 3.6319445,4.3565679 c 0,0 -0.00289,0 -0.00289,0 C 3.5469379,4.423857 3.4766196,4.4976155 3.4146442,4.5755624 3.476871,4.498268 3.5495264,4.4237352 3.6318757,4.3565679 Z"/>
 </g>
</svg>
