<svg xmlns="http://www.w3.org/2000/svg" id="svg2" width="22" height="22" version="1.1" viewBox="0 0 22 22" style="enable-background:new">
 <g id="kalarm">
  <rect id="rect4166" width="22" height="22" x="0" y="0" style="opacity:0.001;fill:#000000;fill-opacity:1;stroke:none;stroke-width:1;stroke-linecap:butt;stroke-linejoin:miter;stroke-miterlimit:4;stroke-dasharray:2, 1;stroke-dashoffset:0;stroke-opacity:1"/>
  <path id="circle6" d="M 5 1.9882812 L 5 2 A 3 3 0 0 0 2 5 A 3 3 0 0 0 2.8886719 7.1289062 C 3.7771019 5.2768062 5.2769063 3.7772719 7.1289062 2.8886719 A 3 3 0 0 0 5 1.9882812 z M 17 2 A 3 3 0 0 0 14.871094 2.8886719 C 16.723094 3.7772719 18.222928 5.2768063 19.111328 7.1289062 A 3 3 0 0 0 20 5.0292969 A 3 3 0 0 0 17 2.0292969 L 17 2 z M 11 4 C 7.1458514 4 4 7.1458514 4 11 C 4 14.854149 7.1458514 18 11 18 C 14.854149 18 18 14.854149 18 11 C 18 7.1458514 14.854149 4 11 4 z M 11 6 C 13.773268 6 16 8.2267316 16 11 C 16 13.773268 13.773268 16 11 16 C 8.2267316 16 6 13.773268 6 11 C 6 8.2267316 8.2267316 6 11 6 z M 8.75 7.9433594 A 0.750075 0.750075 0 0 0 8.2148438 9.2246094 L 10.466797 11.525391 A 0.75064889 0.75064889 0 0 0 11.673828 11.337891 L 12.78125 10.230469 A 0.750075 0.750075 0 0 0 12.234375 8.9433594 A 0.750075 0.750075 0 0 0 11.71875 9.1699219 L 10.982422 9.90625 L 9.2851562 8.1757812 A 0.750075 0.750075 0 0 0 8.75 7.9433594 z M 16.701172 16.603516 A 8 8 0 0 1 14.236328 18.304688 A 1.5 1.5 0 0 0 15.5 19 A 1.5 1.5 0 0 0 17 17.5 A 1.5 1.5 0 0 0 16.701172 16.603516 z M 5.296875 16.607422 A 1.5 1.5 0 0 0 5 17.5 A 1.5 1.5 0 0 0 6.5 19 A 1.5 1.5 0 0 0 7.7617188 18.310547 A 8 8 0 0 1 5.296875 16.607422 z" style="color:#000000;font-style:normal;font-variant:normal;font-weight:normal;font-stretch:normal;font-size:medium;line-height:normal;font-family:sans-serif;text-indent:0;text-align:start;text-decoration:none;text-decoration-line:none;text-decoration-style:solid;text-decoration-color:#000000;letter-spacing:normal;word-spacing:normal;text-transform:none;direction:ltr;block-progression:tb;writing-mode:lr-tb;baseline-shift:baseline;text-anchor:start;white-space:normal;clip-rule:nonzero;display:inline;overflow:visible;visibility:visible;opacity:1;isolation:auto;mix-blend-mode:normal;color-interpolation:sRGB;color-interpolation-filters:linearRGB;solid-color:#000000;solid-opacity:1;fill:#d3dae3;fill-opacity:1;fill-rule:nonzero;stroke:none;stroke-width:2;stroke-linecap:round;stroke-linejoin:round;stroke-miterlimit:4;stroke-dasharray:none;stroke-dashoffset:0;stroke-opacity:1;color-rendering:auto;image-rendering:auto;shape-rendering:auto;text-rendering:auto;enable-background:accumulate"/>
 </g>
</svg>
