<svg xmlns="http://www.w3.org/2000/svg" xmlns:osb="http://www.openswatchbook.org/uri/2009/osb" id="svg" width="100%" height="100%" version="1.1" viewBox="0 0 22 22">
 <defs>
  <linearGradient id="linearGradient5606" osb:paint="solid">
   <stop id="stop5608" offset="0" style="stop-color:#000000"/>
  </linearGradient>
 </defs>
 <g id="22-22-kdeconnect">
  <rect width="22" height="22" x="0" y="0" rx="0" ry="0" style="opacity:0;fill:#111213"/>
  <path d="M 7 3 C 6 3 6 4 6 4 L 6 18 C 6 18 6 19 7 19 L 15 19 C 16 19 16 18 16 18 L 16 4 C 16 4 16 3 15 3 L 7 3 z M 14 6 L 14 15 L 8 15 L 8 6.0019531 L 14 6 z M 11 16 A 1 1 0 0 1 12 17 A 1 1 0 0 1 11 18 A 1 1 0 0 1 10 17 A 1 1 0 0 1 11 16 z" style="fill:#d3dae3;filter:url(#filter7554)"/>
 </g>
 <g id="kdeconnect">
  <rect width="32" height="32" x="0" y="-34" rx="0" ry="0" style="opacity:0;fill:#6b727a"/>
  <path d="M 10.400391 -30 C 9.0003907 -30 9 -28.5 9 -28.5 L 9 -7.5 C 9 -7.5 9.0003907 -6 10.400391 -6 L 21.599609 -6 C 22.999609 -6 23 -7.5 23 -7.5 L 23 -28.5 C 23 -28.5 22.999609 -30 21.599609 -30 L 10.400391 -30 z M 12 -26 L 20 -26 L 20 -12 L 12 -12 L 12 -26 z M 16 -11 A 2 2 0 0 1 18 -9 A 2 2 0 0 1 16 -7 A 2 2 0 0 1 14 -9 A 2 2 0 0 1 16 -11 z" style="fill:#d3dae3;filter:url(#filter7554)"/>
 </g>
 <g id="16-16-kdeconnect">
  <rect width="16" height="16" x="0" y="26" rx="0" ry="0" style="opacity:0;fill:#5f666d;fill-opacity:0.80740739"/>
  <path d="M 4.798828,28 C 3.998828,28 4,28.75 4,28.75 l 0,10.5 C 4,39.25 3.9988,40 4.798828,40 l 6.400391,0 C 11.999219,40 12,39.25 12,39.25 l 0,-10.5 C 12,28.75 11.999158,28 11.199219,28 Z M 6,30 l 2,0 2,0 0,6 -4,0 z m 2,7 c 0.552285,0 1,0.447715 1,1 0,0.552285 -0.447715,1 -1,1 -0.552285,0 -1,-0.447715 -1,-1 0,-0.552285 0.447715,-1 1,-1 z" style="fill:#d3dae3;filter:url(#filter7554)"/>
 </g>
</svg>
