<svg xmlns="http://www.w3.org/2000/svg" xmlns:osb="http://www.openswatchbook.org/uri/2009/osb" width="22" height="22" version="1.1" style="enable-background:new">
 <defs>
  <linearGradient id="linearGradient5606" osb:paint="solid">
   <stop id="stop5608" offset="0" style="stop-color:#000000"/>
  </linearGradient>
 </defs>
 <g id="keyboard-layout" transform="translate(-484.00043,-175.99664)">
  <rect width="22" height="22" x="484" y="176" style="opacity:0;fill:#d3dae3"/>
  <path d="m 495.00043,178.99664 c -4.41827,0 -8,3.58173 -8,8 0,4.41827 3.58173,8 8,8 4.41828,0 8,-3.58173 8,-8 0,-4.41827 -3.58172,-8 -8,-8 z m -0.57143,2.21429 c 0.0765,-0.008 0.17286,0.005 0.25,0 0.009,0.0366 -0.0556,0.1667 -0.14285,0.35714 -0.55527,1.21298 -0.58677,2.63355 -0.0714,3.39286 0.0933,0.13766 0.17857,0.26868 0.17857,0.28571 0,0.017 -0.10057,0.0357 -0.21429,0.0357 -0.26694,0 -0.51956,-0.1627 -1.03571,-0.57142 -0.22929,-0.18157 -0.52737,-0.33407 -0.64286,-0.35715 -0.18135,-0.0362 -0.22969,-0.0204 -0.46429,0.21428 -0.21828,0.21824 -0.28571,0.33592 -0.28571,0.53572 0,0.75764 0.89952,1.35993 2.57143,1.71428 2.27052,0.48122 2.83023,0.91328 2.89286,2.10714 0.0786,1.49712 -0.7184,2.62603 -2.46429,3.5 -0.20837,0.10435 -0.34114,0.14486 -0.42857,0.17858 -0.0387,-0.003 -0.0685,0.003 -0.10708,0 -0.0149,-0.0463 -0.0357,-0.15367 -0.0357,-0.35715 0,-0.79517 -0.31342,-1.61365 -0.7857,-2.07143 -0.12678,-0.12288 -0.48175,-0.38325 -0.78573,-0.57142 -0.30397,-0.18816 -0.61023,-0.40675 -0.67857,-0.5 -0.11326,-0.15476 -0.12268,-0.24983 -0.0357,-0.53572 0.15858,-0.52214 0.34733,-0.81295 0.71428,-1.14286 0.19237,-0.17296 0.38595,-0.318 0.42857,-0.32142 0.0426,-0.003 -0.24589,-0.0901 -0.67857,-0.17858 -0.43267,-0.0887 -1.06557,-0.27442 -1.39285,-0.39285 -0.59838,-0.21652 -1.40626,-0.67104 -1.7143,-1 -0.013,-0.0139 -0.0243,-0.0233 -0.0356,-0.0357 0.44129,-1.75778 1.67969,-3.19847 3.32141,-3.89286 0.34351,-0.14529 0.69763,-0.24497 1.07143,-0.32143 0.1862,-0.038 0.37918,-0.0519 0.57143,-0.0714 z m 5.35715,2.67857 c 0.13423,0.083 0.64104,1.17948 0.78571,1.71428 0.18679,0.69051 0.17327,1.88543 0,2.57143 -0.0659,0.26108 -0.15046,0.50532 -0.17857,0.53572 -0.0281,0.0304 -0.13007,-0.14461 -0.25,-0.35715 -0.11994,-0.2125 -0.50304,-0.66405 -0.82143,-1 -0.91902,-0.96975 -1.06353,-1.47609 -0.67857,-2.25 0.19414,-0.39027 1.03897,-1.2784 1.14286,-1.21428 z" style="fill:#d3dae3"/>
 </g>
</svg>
