<?xml version="1.0" encoding="UTF-8" standalone="no"?>
<svg
   xmlns:osb="http://www.openswatchbook.org/uri/2009/osb"
   xmlns:dc="http://purl.org/dc/elements/1.1/"
   xmlns:cc="http://creativecommons.org/ns#"
   xmlns:rdf="http://www.w3.org/1999/02/22-rdf-syntax-ns#"
   xmlns:svg="http://www.w3.org/2000/svg"
   xmlns="http://www.w3.org/2000/svg"
   width="22"
   version="1.1"
   style="enable-background:new"
   id="svg7384"
   height="22">
  <metadata
     id="metadata90">
    <rdf:RDF>
      <cc:Work
         rdf:about="">
        <dc:format>
                    image/svg+xml
                </dc:format>
        <dc:type
           rdf:resource="http://purl.org/dc/dcmitype/StillImage" />
        <dc:title>
        Paper Symbolic Icon Theme
    </dc:title>
      </cc:Work>
    </rdf:RDF>
  </metadata>
  <title
     id="title8473">
        Paper Symbolic Icon Theme
    </title>
  <defs
     id="defs7386">
    <linearGradient
       osb:paint="solid"
       id="linearGradient5606">
      <stop
         style="stop-color:#000000;stop-opacity:1;"
         offset="0"
         id="stop5608" />
    </linearGradient>
  </defs>
  <g
     transform="translate(-305.00291,86.019038)"
     id="kget">
    <path
       id="rect4139"
       d="m 305.25291,-86.019038 21.5,0 c 0.1385,0 0.25,0.111499 0.25,0.250001 l 0,21.499999 c 0,0.1385 -0.11151,0.25 -0.25,0.25 l -21.5,0 c -0.1385,0 -0.25,-0.111499 -0.25,-0.25 l 0,-21.499999 c 0,-0.138501 0.11151,-0.250001 0.25,-0.250001 z"
       style="opacity:0;fill:#00000f;fill-opacity:1;stroke:none;stroke-opacity:1" />
    <path
       id="path5972"
       d="m 314.00291,-83.019038 0,7 -3,0 4.99999,6 5.00001,-6 -3,0 0,-7 z m -6,16 16,0 0,-2 -15.99926,0 z"
       style="opacity:1;fill:#d3dae3;fill-opacity:1;fill-rule:nonzero;stroke:none" />
  </g>
</svg>
