<svg xmlns="http://www.w3.org/2000/svg" width="32" height="32" version="1.1">
 <g id="22-22-klipper" transform="translate(27,5)">
  <rect style="opacity:0.001" width="22" height="22" x="5" y="5"/>
  <path style="fill:#d3dae3" d="m 16,8.000001 c -1.104569,0 -2,0.89543 -2,2 0,1.070179 -1,1 -1,1 v 1.433594 c -0.0018,0.01653 -9.1e-5,0.03249 0,0.04883 v 0.517578 H 13.626953 16 18.373047 19 v -0.51758 c 9.1e-5,-0.01633 0.0018,-0.0323 0,-0.04883 v -1.433594 c 0,0 -1,0.07018 -1,-1 0,-1.10457 -0.89543,-2 -2,-2 z m 0,1 c 0.552285,0 1,0.447715 1,1 0,0.552285 -0.447715,1 -1,1 -0.552285,0 -1,-0.447715 -1,-1 0,-0.552285 0.447715,-1 1,-1 z M 11.199219,12 C 10.534418,12 10,12.534419 10,13.199219 v 9.601563 c 0,0.6648 0.534419,1.199219 1.199219,1.199219 h 9.601562 C 21.465581,24.000001 22,23.465582 22,22.800782 V 13.199219 C 22,12.534418 21.465581,12 20.800781,12 H 20 v 2 3.000001 5 h -8 v -5 V 14 12 Z M 13,15.000001 v 1 h 3 v -1 z m 0,2 v 1 h 4 v -1 z m 0,2 v 1 h 6 v -1 z"/>
 </g>
 <g id="klipper">
  <rect style="opacity:0.001" width="32" height="32" x="0" y="0"/>
  <path style="fill:#d3dae3" d="M 16 4 C 14.343147 4 13 5.3431451 13 7 C 12.795696 8.2694919 12.126818 8.5275444 11 8.5 L 11 11 L 12 11 L 20 11 L 21 11 L 21 8.5 C 19.812973 8.6331738 19.02039 7.9489358 19 7 C 19 5.3431452 17.656855 4 16 4 z M 16 6 C 16.552286 6 17 6.447715 17 7 C 17 7.5522849 16.552286 8 16 8 C 15.447715 8 15 7.5522849 15 7 C 15 6.447715 15.447715 6 16 6 z M 8.7988281 10 C 7.8016267 10 7 10.801628 7 11.798828 L 7 26.201172 C 7 27.198372 7.8016283 28 8.7988281 28 L 23.201172 28 C 24.198372 28 25 27.198372 25 26.201172 L 25 11.798828 C 25 10.801626 24.198372 10 23.201172 10 L 22 10 L 22 13 L 22 17.5 L 22 25 L 10 25 L 10 17.5 L 10 13 L 10 10 L 8.7988281 10 z M 12 14 L 12 16 L 16 16 L 16 14 L 12 14 z M 12 17 L 12 19 L 17 19 L 17 17 L 12 17 z M 12 20 L 12 22 L 20 22 L 20 20 L 12 20 z"/>
 </g>
</svg>
