<?xml version="1.0" encoding="UTF-8" standalone="no"?>
<svg
   xmlns:osb="http://www.openswatchbook.org/uri/2009/osb"
   xmlns:dc="http://purl.org/dc/elements/1.1/"
   xmlns:cc="http://creativecommons.org/ns#"
   xmlns:rdf="http://www.w3.org/1999/02/22-rdf-syntax-ns#"
   xmlns:svg="http://www.w3.org/2000/svg"
   xmlns="http://www.w3.org/2000/svg"
   width="22"
   version="1.1"
   style="enable-background:new"
   id="svg7384"
   height="22">
  <metadata
     id="metadata90">
    <rdf:RDF>
      <cc:Work
         rdf:about="">
        <dc:format>
                    image/svg+xml
                </dc:format>
        <dc:type
           rdf:resource="http://purl.org/dc/dcmitype/StillImage" />
        <dc:title>
        Paper Symbolic Icon Theme
    </dc:title>
      </cc:Work>
    </rdf:RDF>
  </metadata>
  <title
     id="title8473">
        Paper Symbolic Icon Theme
    </title>
  <defs
     id="defs7386">
    <linearGradient
       osb:paint="solid"
       id="linearGradient5606">
      <stop
         style="stop-color:#000000;stop-opacity:1;"
         offset="0"
         id="stop5608" />
    </linearGradient>
  </defs>
  <g
     transform="translate(-467.00009,-135)"
     id="kmail">
    <path
       style="opacity:1;fill:#d3dae3;fill-opacity:1;stroke:none;stroke-width:2;stroke-miterlimit:4;stroke-dasharray:none;stroke-opacity:1"
       id="rect5719"
       d="m 472.00009,140 c -1.108,0 -2,0.892 -2,2 l 0,8 c 0,1.108 0.892,2 2,2 l 12,0 c 1.108,0 2,-0.892 2,-2 l 0,-8 c 0,-1.108 -0.892,-2 -2,-2 l -12,0 z m 0,2 6,3 6,-3 0,2 -6,3 -6,-3 0,-2 z" />
    <path
       id="rect4138"
       d="m 467.0002,135 22,0 0,22 -22,0 z"
       style="opacity:0;fill:#2b0000;fill-opacity:0.40392157;fill-rule:nonzero;stroke:none;stroke-width:1;stroke-linecap:round;stroke-linejoin:round;stroke-miterlimit:4;stroke-dasharray:none;stroke-dashoffset:0;stroke-opacity:1" />
  </g>
  <g
     id="mail-unread-new"
     transform="translate(-467.00009,-157)">
    <path
       d="m 472.00009,140 c -1.108,0 -2,0.892 -2,2 l 0,8 c 0,1.108 0.892,2 2,2 l 12,0 c 1.108,0 2,-0.892 2,-2 l 0,-8 c 0,-1.108 -0.892,-2 -2,-2 l -12,0 z m 0,2 6,3 6,-3 0,2 -6,3 -6,-3 0,-2 z"
       id="path4142"
       style="opacity:1;fill:#d3dae3;fill-opacity:1;stroke:none;stroke-width:2;stroke-miterlimit:4;stroke-dasharray:none;stroke-opacity:1" />
    <path
       style="opacity:0;fill:#2b0000;fill-opacity:0.40392157;fill-rule:nonzero;stroke:none;stroke-width:1;stroke-linecap:round;stroke-linejoin:round;stroke-miterlimit:4;stroke-dasharray:none;stroke-dashoffset:0;stroke-opacity:1"
       d="m 467.0002,135 22,0 0,22 -22,0 z"
       id="path4144" />
  </g>
  <g
     transform="translate(-467.00009,-179)"
     id="mail-mark-unread-new">
    <path
       style="opacity:1;fill:#d3dae3;fill-opacity:1;stroke:none;stroke-width:2;stroke-miterlimit:4;stroke-dasharray:none;stroke-opacity:1"
       id="path4145"
       d="m 472.00009,140 c -1.108,0 -2,0.892 -2,2 l 0,8 c 0,1.108 0.892,2 2,2 l 12,0 c 1.108,0 2,-0.892 2,-2 l 0,-8 c 0,-1.108 -0.892,-2 -2,-2 l -12,0 z m 0,2 6,3 6,-3 0,2 -6,3 -6,-3 0,-2 z" />
    <path
       id="path4147"
       d="m 467.0002,135 22,0 0,22 -22,0 z"
       style="opacity:0;fill:#2b0000;fill-opacity:0.40392157;fill-rule:nonzero;stroke:none;stroke-width:1;stroke-linecap:round;stroke-linejoin:round;stroke-miterlimit:4;stroke-dasharray:none;stroke-dashoffset:0;stroke-opacity:1" />
  </g>
</svg>
