<svg xmlns="http://www.w3.org/2000/svg" id="svg" width="100%" height="100%" version="1.1" viewBox="0 0 22 22">
 <g id="konv_message">
  <rect width="22" height="22" x="0" y="0" style="opacity:0.001"/>
  <path d="M 11.017578,3 C 7.1248216,3 3.8883398,5.5954035 3.1835938,9.0273438 3.0634423,9.545177 3.0016182,10.07352 3,10.603516 c 0.0025,1.892347 0.7736439,3.69109 2.1171875,5.0625 A 3,3 0 0 1 7,15 a 3,3 0 0 1 3,3 3,3 0 0 1 -0.00195,0.03711 c 0.326073,0.03968 0.65412,0.06614 0.984375,0.06641 3.834528,-0.0024 7.123954,-2.56687 7.835937,-6.107422 C 18.935165,11.490386 19,10.965932 19,10.427734 19,6.3250493 15.425632,3 11.017578,3 Z" style="fill:#d3dae3"/>
  <circle cx="7" cy="18" r="2" style="fill:#5294e2"/>
 </g>
</svg>
