<?xml version="1.0" encoding="UTF-8" standalone="no"?>
<svg
   xmlns:dc="http://purl.org/dc/elements/1.1/"
   xmlns:cc="http://creativecommons.org/ns#"
   xmlns:rdf="http://www.w3.org/1999/02/22-rdf-syntax-ns#"
   xmlns:svg="http://www.w3.org/2000/svg"
   xmlns="http://www.w3.org/2000/svg"
   height="100%"
   width="100%"
   version="1.1"
   id="svg"
   viewBox="0 0 22 22">
  <defs
     id="defs81">
    <style
       type="text/css"
       id="current-color-scheme">
            .ColorScheme-Text { color:#7B7C7E; } .ColorScheme-Background{ color:#EFF0F1; } .ColorScheme-Highlight{ color:#3DAEE6; } .ColorScheme-ViewText { color:#7B7C7E; } .ColorScheme-ViewBackground{ color:#FCFCFC; } .ColorScheme-ViewHover { color:#3DAEE6; } .ColorScheme-ViewFocus{ color:#1E92FF; } .ColorScheme-ButtonText { color:#7B7C7E; } .ColorScheme-ButtonBackground{ color:#EFF0F1; } .ColorScheme-ButtonHover { color:#3DAEE6; } .ColorScheme-ButtonFocus{ color:#1E92FF; }
        </style>
  </defs>
  <metadata
     id="metadata34">
    <rdf:RDF>
      <cc:Work
         rdf:about="">
        <dc:format>
                    image/svg+xml
                </dc:format>
        <dc:type
           rdf:resource="http://purl.org/dc/dcmitype/StillImage" />
        <dc:title></dc:title>
      </cc:Work>
    </rdf:RDF>
  </metadata>
  <g
     id="konv_message">
    <rect
       y="0"
       x="0"
       height="22"
       width="22"
       id="rect3009"
       style="fill:#000000;fill-opacity:1;stroke:none;opacity:0.001" />
    <path
       id="path4178"
       d="M 11.017578,3 C 7.1248216,3 3.8883398,5.5954035 3.1835938,9.0273438 3.0634423,9.545177 3.0016182,10.07352 3,10.603516 c 0.0025,1.892347 0.7736439,3.69109 2.1171875,5.0625 A 3,3 0 0 1 7,15 a 3,3 0 0 1 3,3 3,3 0 0 1 -0.00195,0.03711 c 0.326073,0.03968 0.65412,0.06614 0.984375,0.06641 3.834528,-0.0024 7.123954,-2.56687 7.835937,-6.107422 C 18.935165,11.490386 19,10.965932 19,10.427734 19,6.3250493 15.425632,3 11.017578,3 Z"
       style="opacity:1;fill:#d3dae3;fill-opacity:1" />
    <circle
       r="2"
       cy="18"
       cx="7"
       id="path4138"
       style="opacity:1;fill:#5294e2;fill-opacity:1;stroke:none;stroke-width:2;stroke-linecap:round;stroke-linejoin:round;stroke-miterlimit:4;stroke-dasharray:none;stroke-opacity:1" />
  </g>
</svg>
