<svg xmlns="http://www.w3.org/2000/svg" id="svg" width="100%" height="100%" version="1.1" viewBox="0 0 22 22">
 <g id="kopete" transform="translate(-1,-1)">
  <rect width="22" height="22" x="1" y="1" style="fill:#d3dae3;fill-opacity:0"/>
  <path d="m 12,5 c -5.5228434,0 -9.9999998,3.1473267 -9.9999998,7.029703 0,1.751764 0.9179644,3.348356 2.4257425,4.579168 l -2.4257425,4.232713 5.6188118,-2.49996 c 1.3243405,0.455049 2.807754,0.717782 4.381188,0.717782 5.522844,0 10,-3.147327 10,-7.029703 C 22,8.1473267 17.522844,5 12,5 z m 0.990099,3.6138613 1.014852,0 c 0.835398,0.992713 1.237623,2.1266547 1.237623,3.4158417 0,1.327842 -0.421821,2.46297 -1.262376,3.391049 l -0.990099,0 c 0.788982,-1.005465 1.188119,-2.140515 1.188119,-3.391049 0,-1.240237 -0.399137,-2.3741784 -1.188119,-3.4158417 z M 9.6980201,10.148515 c 0.2088467,0 0.3870099,0.07842 0.5198019,0.19802 0.132784,0.119921 0.19802,0.262494 0.19802,0.445544 0,0.188198 -0.06653,0.32697 -0.19802,0.445545 -0.1315,0.118575 -0.3279674,0.19802 -0.5445552,0.19802 -0.2036905,0 -0.3609736,-0.07445 -0.4950489,-0.19802 -0.1340754,-0.123723 -0.1980198,-0.267644 -0.1980198,-0.445545 0,-0.188198 0.062653,-0.35303 0.1980198,-0.470257 0.1353664,-0.117466 0.3135287,-0.173307 0.5198022,-0.173307 z m -0.5445546,3.044594 1.1138615,0 -0.5693069,1.955407 -0.9405943,0 0.3960397,-1.955407 z" style="fill:#d3dae3"/>
 </g>
 <g id="kopete-offline" transform="translate(-1,-41)">
  <rect width="22" height="22" x="1" y="1" style="fill:#d3dae3;fill-opacity:0"/>
  <g transform="matrix(0.94061919,0,0,0.94061919,0.36576417,0.99487057)">
   <path d="m 12.368699,4.1583405 c -5.8714977,0 -10.6312947,3.3461 -10.6312947,7.4734845 0,1.862434 0.975915,3.559821 2.5788785,4.868333 l -2.5788785,4.499838 5.9735246,-2.657782 c 1.4079455,0.483777 2.9850061,0.763095 4.6577701,0.763095 1.446892,0 2.821558,-0.210857 4.078839,-0.578847 -0.0034,-0.07158 0,-0.138354 0,-0.210521 0,-2.31017 1.873962,-4.184141 4.184098,-4.184141 0.568448,0 1.084813,0.110397 1.578905,0.315781 0.507397,-0.872145 0.789453,-1.815193 0.789453,-2.815756 0,-4.1273845 -4.759797,-7.4734845 -10.631295,-7.4734845 z m 1.052604,3.8420868 1.078918,0 c 0.888136,1.0553823 1.315754,2.2608237 1.315754,3.6313977 0,1.411752 -0.448451,2.618541 -1.342069,3.605209 l -1.052603,0 c 0.83879,-1.06894 1.263124,-2.275645 1.263124,-3.605209 0,-1.318533 -0.424334,-2.5239747 -1.263124,-3.6313977 z M 9.9213961,9.6318784 c 0.2220319,0 0.4114419,0.083366 0.5526169,0.2105207 0.141167,0.1274913 0.210521,0.2791509 0.210521,0.4737559 0,0.199995 -0.07073,0.347612 -0.210521,0.473587 -0.139803,0.12606 -0.348673,0.210521 -0.578932,0.210521 -0.21655,0 -0.3837623,-0.07916 -0.5263017,-0.210521 C 9.22624,10.658293 9.1582586,10.505287 9.1582586,10.316155 c 0,-0.200079 0.066609,-0.3754006 0.2105207,-0.5000289 0.143912,-0.1248808 0.3333216,-0.1842477 0.5526168,-0.1842477 z m -0.5789319,3.2367976 1.1841788,0 -0.6052469,2.078934 -0.9999732,0 0.4210413,-2.078934 z" style="opacity:0.3;fill:#d3dae3"/>
   <path d="m 18.84221,15.949857 -0.605247,0.605289 1.763111,1.789426 -1.763111,1.763153 0.605247,0.605205 1.789426,-1.789426 1.763111,1.789426 0.605247,-0.605205 -1.789426,-1.763153 1.789426,-1.789426 -0.605247,-0.605289 -1.763111,1.763153 -1.789426,-1.763153 z" style="fill:#5294e2"/>
  </g>
 </g>
</svg>
