<svg xmlns="http://www.w3.org/2000/svg" width="22" height="22" version="1.1" viewBox="0 0 22 22">
 <g id="korgac" transform="translate(-1,-1)">
  <rect width="22" height="22" x="1" y="1" style="fill:#d3dae3;fill-opacity:0"/>
  <path d="M 12,4 C 10.458705,4 9.2028355,5.1661805 9.0332031,6.6621094 6.6483721,7.7755664 5,10.185204 5,13 c 0,3.877997 3.1220027,7 7,7 3.87799,0 7,-3.122003 7,-7 C 19,10.185204 17.351627,7.7755664 14.966797,6.6621094 14.797164,5.1661805 13.541295,4 12,4 Z M 7.875,4.0703125 C 6.2111759,4.9227004 4.8558592,6.2726121 4,7.9296875 L 4,8.0527344 4.921875,8.3574219 C 5.6762063,6.9139363 6.8553233,5.7395464 8.3046875,4.9882812 l -0.3066406,-0.9179687 -0.1230469,0 z m 8.126953,0 -0.306641,0.9179687 c 1.44936,0.7512718 2.628473,1.9256618 3.382813,3.3691407 L 20,8.0527344 20,7.9296875 C 19.14414,6.2726187 17.788818,4.9226938 16.125,4.0703125 l -0.123047,0 z M 12,8 c 2.769992,0 5,2.241238 5,5 l -5,0 0,-5 z" style="fill:#d3dae3"/>
 </g>
</svg>
