<?xml version="1.0" encoding="UTF-8" standalone="no"?>
<svg
   xmlns:dc="http://purl.org/dc/elements/1.1/"
   xmlns:cc="http://creativecommons.org/ns#"
   xmlns:rdf="http://www.w3.org/1999/02/22-rdf-syntax-ns#"
   xmlns:svg="http://www.w3.org/2000/svg"
   xmlns="http://www.w3.org/2000/svg"
   version="1.1"
   id="svg4147"
   viewBox="0 0 22 22"
   height="22"
   width="22">
  <defs
     id="defs10" />
  <metadata
     id="metadata4152">
    <rdf:RDF>
      <cc:Work
         rdf:about="">
        <dc:format>
                    image/svg+xml
                </dc:format>
        <dc:type
           rdf:resource="http://purl.org/dc/dcmitype/StillImage" />
        <dc:title></dc:title>
      </cc:Work>
    </rdf:RDF>
  </metadata>
  <g
     transform="translate(-1,-1)"
     id="korgac">
    <rect
       y="1"
       x="1"
       height="22"
       width="22"
       id="rect3009"
       style="fill:#d3dae3;fill-opacity:0;stroke:none" />
    <path
       id="rect4120-4-7"
       d="M 12,4 C 10.458705,4 9.2028355,5.1661805 9.0332031,6.6621094 6.6483721,7.7755664 5,10.185204 5,13 c 0,3.877997 3.1220027,7 7,7 3.87799,0 7,-3.122003 7,-7 C 19,10.185204 17.351627,7.7755664 14.966797,6.6621094 14.797164,5.1661805 13.541295,4 12,4 Z M 7.875,4.0703125 C 6.2111759,4.9227004 4.8558592,6.2726121 4,7.9296875 L 4,8.0527344 4.921875,8.3574219 C 5.6762063,6.9139363 6.8553233,5.7395464 8.3046875,4.9882812 l -0.3066406,-0.9179687 -0.1230469,0 z m 8.126953,0 -0.306641,0.9179687 c 1.44936,0.7512718 2.628473,1.9256618 3.382813,3.3691407 L 20,8.0527344 20,7.9296875 C 19.14414,6.2726187 17.788818,4.9226938 16.125,4.0703125 l -0.123047,0 z M 12,8 c 2.769992,0 5,2.241238 5,5 l -5,0 0,-5 z"
       style="color:#7b7c7e;opacity:1;fill:#d3dae3;fill-opacity:1;stroke:none" />
  </g>
</svg>
