<?xml version="1.0" encoding="UTF-8" standalone="no"?>
<svg xmlns:dc="http://purl.org/dc/elements/1.1/" xmlns:cc="http://creativecommons.org/ns#" xmlns:rdf="http://www.w3.org/1999/02/22-rdf-syntax-ns#" xmlns:svg="http://www.w3.org/2000/svg" xmlns="http://www.w3.org/2000/svg" viewBox="0 0 22 22" id="svg" version="1.1" width="100%" height="100%">
    <defs id="defs81">
        <style id="current-color-scheme" type="text/css">
            .ColorScheme-Text { color:#7B7C7E; } .ColorScheme-Background{ color:#EFF0F1; } .ColorScheme-Highlight{ color:#3DAEE6; } .ColorScheme-ViewText { color:#7B7C7E; } .ColorScheme-ViewBackground{ color:#FCFCFC; } .ColorScheme-ViewHover { color:#3DAEE6; } .ColorScheme-ViewFocus{ color:#1E92FF; } .ColorScheme-ButtonText { color:#7B7C7E; } .ColorScheme-ButtonBackground{ color:#EFF0F1; } .ColorScheme-ButtonHover { color:#3DAEE6; } .ColorScheme-ButtonFocus{ color:#1E92FF; }
        </style>
    </defs>
    <metadata id="metadata34">
        <rdf:RDF>
            <cc:Work rdf:about="">
                <dc:format>
                    image/svg+xml
                </dc:format>
                <dc:type rdf:resource="http://purl.org/dc/dcmitype/StillImage"/>
                <dc:title/>
            </cc:Work>
        </rdf:RDF>
    </metadata>
    <g id="kpackagekit-security">
        <rect y="0" x="0" height="22" width="22" id="rect4163" style="opacity:0;fill:#7a0000;fill-opacity:1;stroke:none;stroke-opacity:1"/>
        <path style="opacity:0.99999999;fill:#5294e2;fill-opacity:1;stroke:none;stroke-opacity:1" d="M 10.761719 3.0136719 A 8 8 0 0 0 4.0722656 7 A 8 8 0 0 0 5.3984375 16.703125 L 6.4433594 14.892578 A 6 6 0 0 1 5.8046875 8 A 6 6 0 0 1 12.09375 5.1074219 L 13.134766 3.3027344 A 8 8 0 0 0 10.761719 3.0136719 z M 16.601562 5.296875 L 15.556641 7.1074219 A 6 6 0 0 1 16.195312 14 A 6 6 0 0 1 9.90625 16.892578 L 8.8652344 18.697266 A 8 8 0 0 0 17.927734 15 A 8 8 0 0 0 16.601562 5.296875 z M 10 7 L 10 12 L 12 12 L 12 7 L 10 7 z M 11 13 A 1 1 0 0 0 10 14 A 1 1 0 0 0 11 15 A 1 1 0 0 0 12 14 A 1 1 0 0 0 11 13 z " id="path4148"/>
    </g>
    <g id="kpackagekit-updates" transform="translate(-27,0)">
        <rect style="opacity:0;fill:#7a0000;fill-opacity:1;stroke:none;stroke-opacity:1" id="rect4172" width="22" height="22" x="0" y="0"/>
        <path style="opacity:0.99999999;fill:#5294e2;fill-opacity:1;stroke:none;stroke-opacity:1" d="M -16.238281 3.0136719 A 8 8 0 0 0 -22.927734 7 A 8 8 0 0 0 -21.601562 16.703125 L -20.556641 14.892578 A 6 6 0 0 1 -21.195312 8 A 6 6 0 0 1 -14.90625 5.1074219 L -13.865234 3.3027344 A 8 8 0 0 0 -16.238281 3.0136719 z M -10.398438 5.296875 L -11.443359 7.1074219 A 6 6 0 0 1 -10.804688 14 A 6 6 0 0 1 -17.09375 16.892578 L -18.134766 18.697266 A 8 8 0 0 0 -9.0722656 15 A 8 8 0 0 0 -10.398438 5.296875 z M -19 10 A 1 1 0 0 0 -20 11 A 1 1 0 0 0 -19 12 A 1 1 0 0 0 -18 11 A 1 1 0 0 0 -19 10 z M -16 10 A 1 1 0 0 0 -17 11 A 1 1 0 0 0 -16 12 A 1 1 0 0 0 -15 11 A 1 1 0 0 0 -16 10 z M -13 10 A 1 1 0 0 0 -14 11 A 1 1 0 0 0 -13 12 A 1 1 0 0 0 -12 11 A 1 1 0 0 0 -13 10 z " transform="translate(27,0)" id="path4174"/>
    </g>
    <g id="kpackagekit-important" transform="translate(27,0)">
        <rect style="opacity:0;fill:#7a0000;fill-opacity:1;stroke:none;stroke-opacity:1" id="rect4204" width="22" height="22" x="0" y="0"/>
        <path id="path4206" d="M 10.761719,3.0136719 A 8,8 0 0 0 4.0722656,7 8,8 0 0 0 5.3984375,16.703125 L 6.4433594,14.892578 A 6,6 0 0 1 5.8046875,8 6,6 0 0 1 12.09375,5.1074219 L 13.134766,3.3027344 A 8,8 0 0 0 10.761719,3.0136719 Z M 16.601562,5.296875 15.556641,7.1074219 A 6,6 0 0 1 16.195312,14 6,6 0 0 1 9.90625,16.892578 L 8.8652344,18.697266 A 8,8 0 0 0 17.927734,15 8,8 0 0 0 16.601562,5.296875 Z M 10,7 l 0,5 2,0 0,-5 -2,0 z m 1,6 a 1,1 0 0 0 -1,1 1,1 0 0 0 1,1 1,1 0 0 0 1,-1 1,1 0 0 0 -1,-1 z" style="opacity:0.99999999;fill:#5294e2;fill-opacity:1;stroke:none;stroke-opacity:1"/>
    </g>
    <g transform="translate(55.3,0)" id="kpackagekit-inactive">
        <rect y="0" x="0" height="22" width="22" id="rect4210" style="opacity:0;fill:#7a0000;fill-opacity:1;stroke:none;stroke-opacity:1"/>
        <path style="opacity:1;fill:#ffffff;fill-opacity:1;stroke:none;stroke-opacity:1" d="M 66.0625 3.0136719 A 8 8 0 0 0 59.373047 7 A 8 8 0 0 0 60.699219 16.703125 L 61.744141 14.892578 A 6 6 0 0 1 61.105469 8 A 6 6 0 0 1 67.394531 5.1074219 L 68.435547 3.3027344 A 8 8 0 0 0 66.0625 3.0136719 z M 71.902344 5.296875 L 70.857422 7.1074219 A 6 6 0 0 1 71.496094 14 A 6 6 0 0 1 65.207031 16.892578 L 64.166016 18.697266 A 8 8 0 0 0 73.228516 15 A 8 8 0 0 0 71.902344 5.296875 z " transform="translate(-55.3,0)" id="path4220"/>
    </g>
</svg>
