<?xml version="1.0" encoding="UTF-8" standalone="no"?>
<svg xmlns:dc="http://purl.org/dc/elements/1.1/" xmlns:cc="http://creativecommons.org/ns#" xmlns:rdf="http://www.w3.org/1999/02/22-rdf-syntax-ns#" xmlns:svg="http://www.w3.org/2000/svg" xmlns="http://www.w3.org/2000/svg" version="1.1" id="svg2" viewBox="0 0 22 22">
    <metadata id="metadata10">
        <rdf:RDF>
            <cc:Work rdf:about="">
                <dc:format>
                    image/svg+xml
                </dc:format>
                <dc:type rdf:resource="http://purl.org/dc/dcmitype/StillImage"/>
                <dc:title/>
            </cc:Work>
        </rdf:RDF>
    </metadata>
    <defs id="defs3051">
        <style id="current-color-scheme" type="text/css">
            .ColorScheme-Text { color:#4d4d4d; }
        </style>
    </defs>
    <g transform="translate(-326,-534.3622)" id="kruler">
        <rect y="534.36218" x="326" height="22" width="22" id="rect4165" style="opacity:1;fill:none;fill-opacity:1;stroke:none"/>
        <path id="path6" class="ColorScheme-Text" d="m 328,538.3622 0,3 0,11 2,0 16,0 0,-2 -16,0 0,-9 16,0 0,-3 z m 3,4 0,3 1,0 0,-3 z m 2,0 0,3 1,0 0,-3 z m 2,0 0,6 1,0 0,-6 z m 2,0 0,3 1,0 0,-3 z m 2,0 0,3 1,0 0,-3 z m 2,0 0,6 1,0 0,-6 z m 2,0 0,3 1,0 0,-3 z" style="color:#31363b;opacity:1;fill:#d3dae3;fill-opacity:1;stroke:none"/>
    </g>
</svg>
