<svg xmlns="http://www.w3.org/2000/svg" width="32" height="32" version="1.1">
 <g id="22-22-kteatime">
  <rect style="opacity:0.001" width="22" height="22" x="32" y="10"/>
  <path style="fill:#d3dae3" d="m 36,15 c 0,0.709 0.01873,1.3725 0.05273,2 H 34.5 C 33.669,17 33,17.669 33,18.5 v 6 c 0,0.831 0.669,1.5 1.5,1.5 H 38 c 0.4115,0 0.782234,-0.164641 1.052734,-0.431641 C 40.758734,26.996359 42.906,27 44.75,27 48.5,27 53,27 53,15 Z m 11.09375,2 c 0,0 1.180247,1.592847 0.847656,3.683594 -0.140892,0.885194 -1.220375,3.423886 -4.513672,3.048828 -0.218663,0.330355 -0.348294,0.699737 -0.410156,1.085937 C 42.858942,24.856982 42.490234,25 42.490234,25 c 0.149173,-0.872165 0.503001,-1.745213 1.023438,-2.099609 2.356341,-1.605421 2.949219,-4.185547 2.949219,-4.185547 0,0 -0.537109,2.145147 -3.185547,4.007812 -0.417399,0.293619 -0.726563,0.808594 -0.726563,0.808594 -0.07583,-0.01219 -2.400888,-3.727993 3.109375,-5.634766 C 46.404261,17.639022 47.09375,17 47.09375,17 Z m -11.671875,1.5 h 0.751953 c 0.294,2.764 0.947906,4.633125 1.816406,5.890625 C 37.865734,24.458625 37.726172,24.5 37.576172,24.5 H 35.421875 C 34.910475,24.5 34.5,24.054 34.5,23.5 v -4 c 0,-0.554 0.410475,-1 0.921875,-1 z"/>
 </g>
 <g id="kteatime">
  <rect style="opacity:0.001" width="32" height="32" x="0" y="0"/>
  <path style="fill:#d3dae3" d="M 6 7 C 6 8.057128 6.0261549 9.0468027 6.0742188 9.9765625 C 6.0745878 9.9834519 6.0738471 9.9931409 6.0742188 10 L 4.0996094 10 C 2.9362093 10 2 10.936208 2 12.099609 L 2 20 C 2 21.163399 2.9362093 22.099609 4.0996094 22.099609 L 8.8007812 22.099609 C 9.1779445 22.099609 9.525547 21.993201 9.8300781 21.820312 C 12.058368 23.948761 14.93472 24 17.550781 24 C 17.695334 24 17.847778 23.991735 17.996094 23.988281 C 17.997394 23.988311 17.9987 23.988252 18 23.988281 C 18.149542 23.99168 18.303399 24 18.449219 24 C 23.699219 24 30 23.8 30 7 L 18 7 L 6 7 z M 21.640625 9 C 21.640625 9 23.410945 11.389271 22.912109 14.525391 C 22.700793 15.853182 21.080071 19.662196 16.140625 19.099609 C 15.812664 19.595141 15.620128 20.147262 15.527344 20.726562 C 15.289414 20.784493 14.736328 21 14.736328 21 C 14.960064 19.691752 15.488954 18.383158 16.269531 17.851562 C 19.803686 15.443431 20.693359 11.572266 20.693359 11.572266 C 20.693359 11.572266 19.888272 14.789986 15.916016 17.583984 C 15.28998 18.024411 14.826172 18.796875 14.826172 18.796875 C 14.712438 18.778585 11.225673 13.20391 19.490234 10.34375 C 20.60628 9.957557 21.640625 9 21.640625 9 z M 5.390625 12.099609 L 6.2441406 12.099609 C 6.2445104 12.103085 6.2457232 12.105902 6.2460938 12.109375 C 6.6122167 15.710479 7.3783591 18.225378 8.40625 19.972656 C 8.3404764 19.984355 8.2761443 20 8.2070312 20 L 5.390625 20 C 4.6746649 20 4.0996094 19.375209 4.0996094 18.599609 L 4.0996094 13.5 C 4.0996094 12.724401 4.674665 12.099609 5.390625 12.099609 z"/>
 </g>
</svg>
