<?xml version="1.0" encoding="UTF-8" standalone="no"?>
<svg
   xmlns:dc="http://purl.org/dc/elements/1.1/"
   xmlns:cc="http://creativecommons.org/ns#"
   xmlns:rdf="http://www.w3.org/1999/02/22-rdf-syntax-ns#"
   xmlns:svg="http://www.w3.org/2000/svg"
   xmlns="http://www.w3.org/2000/svg"
   version="1.1"
   id="svg4141"
   viewBox="0 0 22 22"
   height="22"
   width="22">
  <defs
     id="defs10" />
  <metadata
     id="metadata4146">
    <rdf:RDF>
      <cc:Work
         rdf:about="">
        <dc:format>
                    image/svg+xml
                </dc:format>
        <dc:type
           rdf:resource="http://purl.org/dc/dcmitype/StillImage" />
        <dc:title></dc:title>
      </cc:Work>
    </rdf:RDF>
  </metadata>
  <g
     id="kteatime">
    <rect
       style="fill:#d3dae3;fill-opacity:0;stroke:none"
       id="rect3009"
       width="22"
       height="22"
       x="0"
       y="2.4424907e-15" />
    <path
       id="path4147"
       d="m 4,3 0,11 c 0,1.108 0.892,2 2,2 l 8,0 c 1,0 2,-1 2,-2 l 0,-1 c 2.209139,0 4,-1.790861 4,-4 C 20,6.790861 18.209139,5 16,5 L 16,3 4,3 Z m 12,4 c 1.656854,0 2,0.3431458 2,2 0,1.656854 -0.343146,2 -2,2 l 0,-4 z m -14,10 0,2 16,0 0,-2 -16,0 z"
       style="color:#7b7c7e;opacity:1;fill:#d3dae3;fill-opacity:1" />
  </g>
</svg>
