<svg xmlns="http://www.w3.org/2000/svg" width="32" height="32" version="1">
 <g id="22-22-ktorrent" transform="translate(32.000001,10.000001)">
  <rect style="opacity:0.001" width="22" height="22" x="0" y="0"/>
  <path style="fill:#d3dae3" d="M 8.6953125,3 C 8.3523605,3 8.0433531,3.3617296 8,3.8066406 V 10 H 4 l 7,7 7,-7 H 14 V 3.8066406 C 14,3.3597156 13.64764,3 13.304688,3 Z M 11,17 H 3.8007813 C 3.3575813,17 3,17.446 3,18 c 0,0.554 0.3575813,1 0.8007813,1 H 18.199219 C 18.642419,19 19,18.554 19,18 19,17.446 18.642419,17 18.199219,17 Z"/>
 </g>
 <g id="ktorrent">
  <rect style="opacity:0.001" width="32" height="32" x="0" y="0"/>
  <path style="fill:#d3dae3" d="m 12.042485,4 c -0.514429,0 -0.97794,0.5425945 -1.042969,1.209961 V 15 H 5.5000003 L 16,25.000001 26.500001,15 H 21.000484 V 5.209961 C 21.000484,4.5395734 20.471943,4 19.957516,4 Z M 16,25.000001 H 5.2011722 c -0.6647999,0 -1.2011719,0.669 -1.2011719,1.499999 0,0.831 0.536372,1.5 1.2011719,1.5 H 26.798829 C 27.46363,28 28,27.331 28,26.5 28,25.669001 27.46363,25.000001 26.798829,25.000001 Z"/>
 </g>
</svg>
