<svg xmlns="http://www.w3.org/2000/svg" width="32" height="32" version="1">
 <g id="22-22-kup" transform="translate(32.000001,10.000001)">
  <rect style="opacity:0.001" width="22" height="22" x="0" y="0"/>
  <path style="fill:#d3dae3" d="M 4.002905,3.0004358 A 0.99829173,0.99855868 0 0 0 3.3069001,4.7145867 l 2.1036114,2.1041741 a 6.987343,6.9892116 0 0 0 -1.3978586,4.1790962 6.987343,6.9892116 0 0 0 1.3978586,4.179096 l -2.1036114,2.104174 a 0.99829173,0.99855868 0 1 0 1.4115056,1.411883 l 2.1036115,-2.104174 a 6.987343,6.9892116 0 0 0 4.1779788,1.398233 6.987343,6.9892116 0 0 0 4.177979,-1.398233 l 2.103612,2.104174 a 0.99829173,0.99855868 0 1 0 1.411505,-1.411883 L 16.58948,15.176953 A 6.987343,6.9892116 0 0 0 17.987339,10.997857 6.987343,6.9892116 0 0 0 16.58948,6.8187608 L 18.693092,4.7145867 A 0.99829173,0.99855868 0 0 0 17.967844,3.0004358 0.99829173,0.99855868 0 0 0 17.281587,3.3027036 l -2.103612,2.104174 A 6.987343,6.9892116 0 0 0 10.999996,4.0086452 6.987343,6.9892116 0 0 0 6.8220172,5.4068776 L 4.7184057,3.3027036 A 0.99829173,0.99855868 0 0 0 4.002905,3.0004358 Z m 6.997091,3.0051271 a 4.9909592,4.9922939 0 0 1 2.748927,0.8307489 L 10.999996,9.5859738 8.2510694,6.8363118 A 4.9909592,4.9922939 0 0 1 10.999996,6.0055629 Z m -4.1604325,2.2426322 2.748927,2.7496619 -2.748927,2.749661 A 4.9909592,4.9922939 0 0 1 6.0090367,10.997857 4.9909592,4.9922939 0 0 1 6.8395635,8.2481951 Z m 8.3208655,0 a 4.9909592,4.9922939 0 0 1 0.830527,2.7496619 4.9909592,4.9922939 0 0 1 -0.830527,2.749661 l -2.748928,-2.749661 z m -4.160433,4.1615439 2.748927,2.749663 a 4.9909592,4.9922939 0 0 1 -2.748927,0.830749 4.9909592,4.9922939 0 0 1 -2.7489266,-0.830749 z"/>
 </g>
 <g id="kup">
  <rect style="opacity:0.001" width="32" height="32" x="0" y="0"/>
  <path style="fill:#d3dae3" d="M 5.484375 3.984375 A 1.50015 1.50015 0 0 0 4.4394531 6.5605469 L 7.2402344 9.3613281 A 11 11 0 0 0 5 16 A 11 11 0 0 0 7.2441406 22.634766 L 4.4394531 25.439453 A 1.50015 1.50015 0 1 0 6.5605469 27.560547 L 9.3613281 24.759766 A 11 11 0 0 0 16 27 A 11 11 0 0 0 22.634766 24.755859 L 25.439453 27.560547 A 1.50015 1.50015 0 1 0 27.560547 25.439453 L 24.759766 22.638672 A 11 11 0 0 0 27 16 A 11 11 0 0 0 24.755859 9.3652344 L 27.560547 6.5605469 A 1.50015 1.50015 0 0 0 26.470703 3.9863281 A 1.50015 1.50015 0 0 0 25.439453 4.4394531 L 22.638672 7.2402344 A 11 11 0 0 0 16 5 A 11 11 0 0 0 9.3652344 7.2441406 L 6.5605469 4.4394531 A 1.50015 1.50015 0 0 0 5.484375 3.984375 z M 16 8 A 8 8 0 0 1 20.496094 9.3828125 L 16 13.878906 L 11.509766 9.3886719 A 8 8 0 0 1 16 8 z M 9.3828125 11.503906 L 13.878906 16 L 9.3886719 20.490234 A 8 8 0 0 1 8 16 A 8 8 0 0 1 9.3828125 11.503906 z M 22.611328 11.509766 A 8 8 0 0 1 24 16 A 8 8 0 0 1 22.617188 20.496094 L 18.121094 16 L 22.611328 11.509766 z M 16 18.121094 L 20.490234 22.611328 A 8 8 0 0 1 16 24 A 8 8 0 0 1 11.503906 22.617188 L 16 18.121094 z"/>
 </g>
</svg>
