<svg xmlns="http://www.w3.org/2000/svg" xmlns:osb="http://www.openswatchbook.org/uri/2009/osb" width="22" height="22" version="1.1" style="enable-background:new">
 <defs>
  <linearGradient id="linearGradient5606" osb:paint="solid">
   <stop id="stop5608" offset="0" style="stop-color:#000000"/>
  </linearGradient>
 </defs>
 <g id="list-remove" transform="translate(-260.00082,5.00334)">
  <rect width="22" height="22" x="285" y="-5" style="opacity:0"/>
  <g transform="translate(285.00081,-5.00334)" style="enable-background:new">
   <g id="layer12-2" transform="translate(-445.0004,125.00336)">
    <path d="m 461.65725,-119.66021 a 8,8 0 0 0 -11.3137,0 8,8 0 0 0 0,11.3137 8,8 0 0 0 11.3137,0 8,8 0 0 0 0,-11.3137 z m -1.22362,3.34494 a 5,5 0 0 1 -0.8977,5.84744 5,5 0 0 1 -5.84329,0.89355 l 6.74099,-6.74099 z m -2.12547,-2.11717 -6.74099,6.74099 a 5,5 0 0 1 0.8977,-5.84744 5,5 0 0 1 5.84329,-0.89355 z" style="fill:#d3dae3"/>
   </g>
  </g>
 </g>
 <g id="list-add" transform="translate(-285.00081,5.00334)">
  <path d="m 285.00081,-5.00334 22,0 0,22 -22,0 z" style="opacity:0"/>
  <path d="m 9,3 0,6 -6,0 0,4 6,0 0,6 4,0 0,-6 6,0 0,-4 -6,0 0,-6 -4,0 z" transform="translate(285.00081,-5.00334)" style="fill:#d3dae3"/>
 </g>
 <g id="16-16-list-remove" transform="translate(-285.00081,5.00334)">
  <rect width="16" height="16" x="306" y="-26" style="opacity:0;fill:#39ffff"/>
  <g transform="translate(306.00095,-26.00332)" style="enable-background:new">
   <g id="layer12-3" transform="translate(-445.0004,119.00336)">
    <path d="m 453.00026,-118.00338 c -3.86295,0 -7,3.13704 -7,7 0,3.86295 3.13705,7 7,7 3.86295,0 7,-3.13705 7,-7 0,-3.86296 -3.13705,-7 -7,-7 z m 0,2 c 1.01943,0 1.95898,0.28763 2.75,0.8125 l -6.9375,6.9375 c -0.52487,-0.79102 -0.8125,-1.73057 -0.8125,-2.75 0,-2.75926 2.24075,-5 5,-5 z m 4.1875,2.25 c 0.52487,0.79102 0.8125,1.73057 0.8125,2.75 0,2.75925 -2.24075,5 -5,5 -1.01943,0 -1.95898,-0.28763 -2.75,-0.8125 l 6.9375,-6.9375 z" style="fill:#d3dae3"/>
   </g>
  </g>
 </g>
 <g id="16-16-list-add" transform="translate(-285.00081,5.00334)">
  <rect width="16" height="16" x="288" y="-26" style="opacity:0;fill:#39ffff"/>
  <g transform="translate(288.00081,-26.00334)" style="enable-background:new">
   <g id="layer12-21" transform="translate(-285.00081,-0.99666)">
    <path d="m 292.00081,3.99666 0,4 -4,0 0,2 4,0 0,4 2,0 0,-4 4,0 0,-2 -4,0 0,-4 -2,0 z" style="fill:#d3dae3"/>
   </g>
  </g>
 </g>
</svg>
