<svg xmlns="http://www.w3.org/2000/svg" xmlns:osb="http://www.openswatchbook.org/uri/2009/osb" id="svg7384" width="22" height="22" version="1.1" style="enable-background:new">
 <defs id="defs7386">
  <linearGradient id="linearGradient5606" osb:paint="solid">
   <stop id="stop5608" offset="0" style="stop-color:#000000;stop-opacity:1"/>
  </linearGradient>
 </defs>
 <g id="list-remove" transform="translate(-260.00082,5.00334)">
  <rect id="rect4169" width="22" height="22" x="285" y="-5" style="opacity:0;fill:#000000;fill-opacity:1;stroke:none;stroke-opacity:1"/>
  <g id="g4154" transform="translate(285.00081,-5.00334)" style="enable-background:new">
   <g id="layer12-2" transform="translate(-445.0004,125.00336)" style="display:inline">
    <path id="path4140" d="m 461.65725,-119.66021 a 8,8 0 0 0 -11.3137,0 8,8 0 0 0 0,11.3137 8,8 0 0 0 11.3137,0 8,8 0 0 0 0,-11.3137 z m -1.22362,3.34494 a 5,5 0 0 1 -0.8977,5.84744 5,5 0 0 1 -5.84329,0.89355 l 6.74099,-6.74099 z m -2.12547,-2.11717 -6.74099,6.74099 a 5,5 0 0 1 0.8977,-5.84744 5,5 0 0 1 5.84329,-0.89355 z" style="opacity:1;fill:#d3dae3;fill-opacity:1;stroke:none;stroke-opacity:1"/>
   </g>
  </g>
 </g>
 <g id="list-add" transform="translate(-285.00081,5.00334)">
  <path id="rect4138" d="m 285.00081,-5.00334 22,0 0,22 -22,0 z" style="opacity:0;fill:#000000;fill-opacity:1;fill-rule:nonzero;stroke:none;stroke-width:1;stroke-linecap:round;stroke-linejoin:round;stroke-miterlimit:4;stroke-dasharray:none;stroke-dashoffset:0;stroke-opacity:1"/>
  <path id="rect4179" d="m 9,3 0,6 -6,0 0,4 6,0 0,6 4,0 0,-6 6,0 0,-4 -6,0 0,-6 -4,0 z" transform="translate(285.00081,-5.00334)" style="opacity:1;fill:#d3dae3;fill-opacity:1;stroke:none;stroke-opacity:1"/>
 </g>
 <g id="16-16-list-remove" transform="translate(-285.00081,5.00334)">
  <rect id="rect4175" width="16" height="16" x="306" y="-26" style="opacity:0;fill:#39ffff;fill-opacity:1;stroke:none;stroke-opacity:1"/>
  <g id="g4155" transform="translate(306.00095,-26.00332)" style="enable-background:new">
   <g id="layer12-3" transform="translate(-445.0004,119.00336)" style="display:inline">
    <path id="path4992" d="m 453.00026,-118.00338 c -3.86295,0 -7,3.13704 -7,7 0,3.86295 3.13705,7 7,7 3.86295,0 7,-3.13705 7,-7 0,-3.86296 -3.13705,-7 -7,-7 z m 0,2 c 1.01943,0 1.95898,0.28763 2.75,0.8125 l -6.9375,6.9375 c -0.52487,-0.79102 -0.8125,-1.73057 -0.8125,-2.75 0,-2.75926 2.24075,-5 5,-5 z m 4.1875,2.25 c 0.52487,0.79102 0.8125,1.73057 0.8125,2.75 0,2.75925 -2.24075,5 -5,5 -1.01943,0 -1.95898,-0.28763 -2.75,-0.8125 l 6.9375,-6.9375 z" style="color:#000000;font-style:normal;font-variant:normal;font-weight:normal;font-stretch:normal;line-height:normal;font-family:Sans;-inkscape-font-specification:Sans;text-indent:0;text-align:start;text-decoration:none;text-decoration-line:none;letter-spacing:normal;word-spacing:normal;text-transform:none;direction:ltr;block-progression:tb;writing-mode:lr-tb;baseline-shift:baseline;text-anchor:start;display:inline;overflow:visible;visibility:visible;opacity:1;fill:#d3dae3;fill-opacity:1;stroke:none;stroke-width:2;marker:none;enable-background:accumulate"/>
   </g>
  </g>
 </g>
 <g id="16-16-list-add" transform="translate(-285.00081,5.00334)">
  <rect id="rect4173" width="16" height="16" x="288" y="-26" style="opacity:0;fill:#39ffff;fill-opacity:1;stroke:none;stroke-opacity:1"/>
  <g id="g4169" transform="translate(288.00081,-26.00334)" style="enable-background:new">
   <g id="layer12-21" transform="translate(-285.00081,-0.99666)" style="display:inline">
    <path id="rect31992" d="m 292.00081,3.99666 0,4 -4,0 0,2 4,0 0,4 2,0 0,-4 4,0 0,-2 -4,0 0,-4 -2,0 z" style="color:#bebebe;display:inline;overflow:visible;visibility:visible;opacity:1;fill:#d3dae3;fill-opacity:1;stroke:none;stroke-width:1;marker:none"/>
   </g>
  </g>
 </g>
</svg>
