<svg xmlns="http://www.w3.org/2000/svg" width="32" height="32" version="1.1">
 <g id="22-22-lutris" transform="translate(32,10)">
  <rect style="opacity:0.001" width="22" height="22" x="0" y="0"/>
  <path style="fill:#d3dae3" d="M 10.74648,3 C 6.5616824,2.99625 3.1127093,6.4426505 3.0027025,10.791016 2.8908177,15.208404 6.266939,18.884506 10.541412,19 c 3.45866,0.002 6.458715,-1.99765 7.185209,-5.257812 -1.072557,1.781235 -3.082126,2.333415 -4.876724,2.328124 -1.476971,-0.01224 -3.1164697,-0.356705 -4.3767477,-1.048828 -1.6464769,-0.911001 -1.5263937,-2.050513 -1.4725872,-2.847656 0.031089,-0.459186 0.2552824,-1.236413 0.8495696,-1.988281 0.192502,0.07091 0.3789271,0.155046 0.5448963,0.271484 0.4095878,0.276586 0.779476,0.690649 1.3046265,0.503907 C 10.058683,10.834994 10.0775,10.620219 9.9398775,10.269531 9.823659,9.9843942 9.63254,9.4934669 9.3949811,9.3046875 9.3004556,9.2298685 9.1622927,9.1832643 9.0141397,9.1425781 9.2654439,8.9823566 9.5388107,8.83116 9.851991,8.6992188 10.725887,8.3905772 11.694766,8.214942 12.63311,8.2265625 c 0.191785,0.2924412 0.36378,0.5935439 0.667937,0.7109375 0.508061,0.2064296 0.718609,-0.1307116 0.699187,-0.5410156 0.04719,0.013443 0.09601,0.022113 0.142571,0.037109 1.004669,0.2267407 1.728072,0.5180353 2.683468,0.8554687 0,0 -0.0082,0.016614 0.255847,0.082031 0.773302,0.1225117 1.224281,-0.093624 1.49993,-0.3828126 0.06638,-0.00381 0.129729,-0.027928 0.187491,-0.099609 0.104435,-0.1295163 0.302868,-0.3184787 0.189444,-0.5996094 0.03613,-0.1525268 0.04101,-0.2597656 0.04101,-0.2597656 l -0.05273,-0.2988281 -0.162102,-0.4042969 -0.07617,-0.171875 -0.01562,-0.03125 C 18.771739,7.0585549 18.83149,6.9496881 18.841804,6.8144531 18.858293,6.6000209 18.751008,6.414026 18.60158,6.3886719 18.601255,6.1509994 18.587078,5.8793655 18.54299,5.5097656 18.482193,4.9998633 18.147582,4.7980076 18.039107,4.71875 17.930389,4.639635 17.422945,4.2569446 16.937596,4.0664062 16.451949,3.875866 15.962175,3.7350873 15.357592,3.8203125 c -0.06713,0.00949 -0.131072,0.019368 -0.197257,0.029297 -0.01172,-0.00372 -0.02052,-0.00796 -0.0332,-0.011719 -0.230544,-0.068484 -0.393663,-0.4420136 -0.582004,-0.4375 -0.01441,3.457e-4 -0.03017,0.00236 -0.04492,0.00391 -0.01452,0.00152 -0.02803,0.00307 -0.04297,0.00586 h -0.002 c -0.01522,0.00284 -0.02919,0.00745 -0.04492,0.011719 -0.01718,0.00466 -0.03528,0.010376 -0.05078,0.017578 -0.11022,0.051252 -0.176991,0.2445701 -0.21874,0.3710938 C 13.173903,3.321627 12.092337,3.0348136 10.945689,3.0039062 10.878903,3.0020963 10.812905,3.00006 10.74648,3 Z m 5.693092,3.0039062 c 0.126994,-0.015117 0.260373,0.018183 0.369124,0.1035157 0.217747,0.1710387 0.255482,0.4841558 0.08593,0.7011719 -0.170042,0.2170151 -0.483516,0.2543995 -0.701139,0.083984 -0.217625,-0.1712882 -0.258047,-0.484031 -0.08789,-0.7011719 0.08484,-0.1083204 0.206974,-0.1723825 0.333968,-0.1875 z"/>
  <path style="opacity:0.3;fill:#d3dae3" d="m 12.322581,9.2781112 c -0.538112,0.019536 -1.077175,0.130022 -1.605394,0.2734707 0.05261,0.1210992 0.116987,0.2646962 0.148431,0.3418385 a 1.0000531,1.0002218 0 0 1 0.0059,0.01172 c 0.09985,0.2544336 0.232915,0.5903186 0.0957,1.0704436 -0.136932,0.47912 -0.593782,0.807271 -0.935505,0.927847 -0.5510901,0.194101 -1.1579731,0.04918 -1.5077411,-0.142596 -0.121435,-0.06658 -0.148347,-0.101499 -0.238271,-0.164082 -0.07932,0.223321 -0.280519,0.547281 -0.287095,0.642656 -0.02812,0.416524 -0.04214,0.731782 0.04687,0.994263 0.08873,0.261637 0.253777,0.547005 0.90816,0.910267 l 0.0039,0.002 c 1.0622411,0.582278 2.5739141,0.912946 3.9002081,0.92394 1.586006,0.0039 3.177237,-0.458495 4.011531,-1.843974 a 1.0000531,1.0002218 0 0 1 1.074164,-0.462994 5.9995838,6.0008577 0 0 0 0.05664,-0.761812 5.9995838,6.0008577 0 0 0 -0.230458,-1.631058 c -0.267672,0.03008 -0.547817,0.03711 -0.843711,-0.0098 a 1.0000531,1.0002218 0 0 1 -0.08398,-0.01758 c -0.153558,-0.03804 -0.240601,-0.0609 -0.357405,-0.107431 -0.0047,-0.0019 -0.01668,-0.0099 -0.02148,-0.01172 -0.721985,-0.2555625 -1.294497,-0.4371537 -1.915926,-0.615309 -0.0032,0.00318 -6.06e-4,0.0066 -0.0039,0.00977 -0.418004,0.403551 -1.132705,0.436325 -1.607358,0.2480724 C 12.551367,9.7151061 12.497915,9.4988438 12.322609,9.2781112 Z"/>
 </g>
 <g id="lutris">
  <rect style="opacity:0.001" width="32" height="32" x="0" y="0"/>
  <path style="opacity:0.3;fill:#d3dae3" d="M 17.277344 12.748047 C 16.826185 12.829586 16.384516 12.937896 15.931641 13.0625 C 16.041431 13.456877 16.109723 13.912562 15.931641 14.529297 C 15.662553 15.461201 14.772608 16.090739 14.136719 16.314453 C 13.237814 16.631802 12.302456 16.436127 11.632812 16.154297 C 11.294505 16.825397 11.091629 17.428449 11.074219 17.685547 C 10.992955 18.889139 10.875099 19.626598 11.650391 20.447266 C 13.197201 21.732962 15.440518 22.337496 17.826172 22.654297 C 21.328238 22.809616 24.104222 21.996008 25.726562 19.271484 A 2.0002 2.0002 0 0 1 27.896484 18.349609 C 27.95725 17.902151 27.997322 17.452246 28 17 C 27.998177 16.214215 27.904346 15.433629 27.728516 14.669922 C 27.278308 14.700994 26.814287 14.699746 26.330078 14.623047 A 2.0002 2.0002 0 0 1 26.162109 14.589844 C 25.889221 14.522228 25.734056 14.482261 25.511719 14.394531 C 25.502069 14.390721 25.476697 14.372841 25.466797 14.369141 C 24.233947 13.929258 23.382091 13.605047 22.462891 13.267578 C 22.167649 13.709662 21.765461 14.137737 21.1875 14.34375 C 20.417263 14.618299 19.646249 14.488426 19.039062 14.244141 C 18.096581 13.872895 17.58889 13.201166 17.277344 12.748047 z"/>
  <path style="fill:#d3dae3" d="M 15.556641 1.5 C 8.2325577 1.493433 2.196437 7.5263838 2.0039062 15.134766 C 1.8080901 22.863914 7.7162354 29.29206 15.197266 29.494141 C 20.709494 29.431731 26.902155 25.718493 27.445312 20.294922 C 25.360129 23.796733 21.605255 24.846276 17.650391 24.654297 C 15.055308 24.317379 12.319591 23.678957 10.267578 21.921875 C 8.7962345 20.446034 9.0016105 18.684032 9.078125 17.550781 C 9.1410159 16.622148 9.6102652 14.957757 11.041016 13.46875 C 11.089139 13.499256 11.144845 13.518124 11.191406 13.550781 C 11.908252 14.034726 12.553557 14.756434 13.472656 14.429688 C 14.101017 14.209323 14.135395 13.836258 13.894531 13.222656 C 13.738362 12.839602 13.503494 12.247819 13.214844 11.841797 C 13.243744 11.82655 13.269422 11.809974 13.298828 11.794922 L 13.300781 11.792969 C 13.417704 11.733149 13.546765 11.679962 13.669922 11.623047 C 13.776615 11.573917 13.877159 11.521413 13.988281 11.474609 C 15.289939 11.015012 16.71632 10.645651 18.125 10.515625 C 18.728933 11.13374 19.012589 12.095536 19.777344 12.390625 C 20.999496 12.887068 21.244675 11.587986 20.802734 10.626953 C 21.037945 10.676099 21.272691 10.727599 21.5 10.800781 C 23.258335 11.197511 24.523212 11.915448 26.195312 12.505859 C 26.195312 12.505859 26.180622 12.533975 26.642578 12.648438 C 28.888034 13.00412 29.62096 11.76004 29.867188 10.949219 C 29.767176 11.093476 29.634488 11.215857 29.539062 11.314453 C 29.226374 11.637735 28.859765 11.520882 28.390625 11.099609 C 27.921699 10.678552 27.828365 9.9268313 28.369141 9.8945312 C 28.910129 9.8626524 29.025391 9.5 29.025391 9.5 C 29.665756 9.88426 29.91592 10.197152 29.976562 10.458984 C 29.980486 10.417192 30 10.300781 30 10.300781 L 29.908203 9.7792969 L 29.625 9.0722656 L 29.490234 8.7695312 L 29.462891 8.7148438 C 29.376497 8.785894 29.27933 8.8316063 29.173828 8.8203125 C 28.901017 8.7918375 28.704266 8.4567773 28.734375 8.0703125 C 28.764025 7.6850971 29.008439 7.3970525 29.28125 7.4257812 C 29.28891 7.4266089 29.295197 7.4322899 29.302734 7.4335938 C 29.302213 7.0171529 29.278539 6.5412056 29.201172 5.8925781 C 29.09476 5.0003965 28.508202 4.2460997 28.318359 4.1074219 C 28.128082 3.9689941 27.242021 3.3001831 26.392578 2.9667969 C 25.542616 2.6334063 24.68312 2.38799 23.625 2.5371094 C 23.507515 2.5537224 23.397084 2.5705166 23.28125 2.5878906 C 23.26074 2.5813806 23.242893 2.5749394 23.220703 2.5683594 C 22.817216 2.4485325 22.532751 1.4940555 22.203125 1.5019531 C 22.177895 1.502558 22.152773 1.5051025 22.126953 1.5078125 C 22.101533 1.5104725 22.074968 1.5146526 22.048828 1.5195312 L 22.046875 1.5195312 C 22.020235 1.5245012 21.994327 1.5296454 21.966797 1.5371094 C 21.936737 1.5452694 21.907969 1.5577105 21.880859 1.5703125 C 21.687957 1.6599885 21.569161 2.6965891 21.496094 2.9179688 C 19.803684 2.0624939 17.911119 1.5599385 15.904297 1.5058594 C 15.787409 1.5026994 15.672896 1.50011 15.556641 1.5 z M 24.876953 6.5078125 C 25.130964 6.4775814 25.397712 6.5442001 25.615234 6.7148438 C 26.050769 7.0568796 26.128197 7.6851614 25.789062 8.1191406 C 25.448947 8.5531186 24.820056 8.6278968 24.384766 8.2871094 C 23.949477 7.9445748 23.872529 7.315088 24.212891 6.8808594 C 24.382581 6.6642447 24.622942 6.5380436 24.876953 6.5078125 z"/>
 </g>
</svg>
