<svg xmlns="http://www.w3.org/2000/svg" xmlns:osb="http://www.openswatchbook.org/uri/2009/osb" width="22" height="22" version="1.1" style="enable-background:new">
 <defs>
  <linearGradient id="linearGradient5606" osb:paint="solid">
   <stop id="stop5608" offset="0" style="stop-color:#000000"/>
  </linearGradient>
 </defs>
 <g id="mail-unread" transform="translate(-467.00009,-135)">
  <path d="m 472.00009,140 c -1.108,0 -2,0.892 -2,2 l 0,8 c 0,1.108 0.892,2 2,2 l 12,0 c 1.108,0 2,-0.892 2,-2 l 0,-8 c 0,-1.108 -0.892,-2 -2,-2 l -12,0 z m 0,2 6,3 6,-3 0,2 -6,3 -6,-3 0,-2 z" style="fill:#d3dae3"/>
  <path d="m 467.0002,135 22,0 0,22 -22,0 z" style="opacity:0;fill:#2b0000;fill-opacity:0.40392157"/>
 </g>
 <g id="mail-unread-new">
  <path d="m 1.1e-4,-22 22,0 0,22 -22,0 z" style="opacity:0.001"/>
  <path d="m 5,-17 c -1.108,0 -2,0.892 -2,2 l 0,8 c 0,1.108 0.892,2 2,2 l 11,0 c -1.645,0 -3,-1.355 -3,-3 0,-1.645 1.355,-3 3,-3 1.645,0 3,1.355 3,3 l 0,-7 c 0,-1.108 -0.892,-2 -2,-2 l -12,0 z m 0,2 6,3 6,-3 0,2 -6,3 -6,-3 0,-2 z" style="fill:#d3dae3"/>
  <path d="m 16,-10 a 2,2 0 0 0 -2,2 2,2 0 0 0 2,2 2,2 0 0 0 2,-2 2,2 0 0 0 -2,-2 z" style="fill:#5294e2"/>
 </g>
 <g id="mail-mark-unread-new" transform="translate(0,-22)">
  <path d="m 1.1e-4,-22 22,0 0,22 -22,0 z" style="opacity:0.00100002"/>
  <path d="m 5,-17 c -1.108,0 -2,0.892 -2,2 l 0,8 c 0,1.108 0.892,2 2,2 l 11,0 c -1.645,0 -3,-1.355 -3,-3 0,-1.645 1.355,-3 3,-3 1.645,0 3,1.355 3,3 l 0,-7 c 0,-1.108 -0.892,-2 -2,-2 l -12,0 z m 0,2 6,3 6,-3 0,2 -6,3 -6,-3 0,-2 z" style="fill:#d3dae3"/>
  <path d="m 16,-10 a 2,2 0 0 0 -2,2 2,2 0 0 0 2,2 2,2 0 0 0 2,-2 2,2 0 0 0 -2,-2 z" style="fill:#5294e2"/>
 </g>
</svg>
