<svg xmlns="http://www.w3.org/2000/svg" width="22" height="22" version="1.1" viewBox="0 0 22 22">
 <g id="media-record" transform="translate(22,-1030.3622)">
  <rect width="22" height="22" x="0" y="1030.36" style="opacity:0.00100002"/>
  <path d="m 11,1035.3622 c -3.31104,0 -6,2.6888 -6,6 0,3.311 2.68896,6 6,6 3.31104,0 6,-2.689 6,-6 0,-3.3112 -2.68896,-6 -6,-6 z" style="fill:#5294e2"/>
 </g>
 <g id="media-playback-stop" transform="translate(44,-1030.3622)">
  <rect width="22" height="22" x="0" y="1030.36" style="opacity:0.00100002"/>
  <path d="m 5,1035.3622 0,12 12,0 0,-12 z" style="fill:#d3dae3"/>
 </g>
 <g id="media-skip-forward" transform="translate(66,-1030.3622)">
  <rect width="22" height="22" x="0" y="1030.36" style="opacity:0.00100002"/>
  <path d="m 19,1037.3622 0,8 -2,0 0,-4 0,-4 2,0 z m -2,4 -7,4 0,-4 0,-4 7,4 z m -7,0 -7,4 0,-8 7,4 z" style="fill:#d3dae3"/>
 </g>
 <g id="media-skip-backward" transform="matrix(-1,0,0,1,110,-1030.3622)">
  <rect width="22" height="22" x="0" y="1030.36" style="opacity:0.00100002"/>
  <path d="m 19,1037.3622 0,8 -2,0 0,-4 0,-4 2,0 z m -2,4 -7,4 0,-4 0,-4 7,4 z m -7,0 -7,4 0,-8 7,4 z" style="fill:#d3dae3"/>
 </g>
 <g id="media-seek-forward" transform="translate(110,-1030.3622)">
  <rect width="22" height="22" x="0" y="1030.36" style="opacity:0.00100002"/>
  <path d="m 11.000002,1037.3622 6.999997,4 -6.999997,4 0,-4 0,-4 z m 0,4 -7.0000007,4 0,-8 7.0000007,4 z" style="fill:#d3dae3"/>
 </g>
 <g id="media-seek-backward" transform="matrix(-1,0,0,1,154,-1030.3622)">
  <rect width="22" height="22" x="0" y="1030.36" style="opacity:0.00100002"/>
  <path d="m 11.000002,1037.3622 6.999997,4 -6.999997,4 0,-4 0,-4 z m 0,4 -7.0000007,4 0,-8 7.0000007,4 z" style="fill:#d3dae3"/>
 </g>
 <g id="media-eject" transform="translate(-44,-1030.3622)">
  <rect width="22" height="22" x="0" y="1030.36" style="opacity:0.00100002"/>
  <path d="m 11,1036.3622 -5,5 0,1 10,0 0,-1 z m -5,8 0,2 10,0 0,-2 z" display="block" style="display:block;fill:#d3dae3"/>
 </g>
 <g id="media-playback-pause" transform="translate(-22,-1030.3622)">
  <rect width="22" height="22" x="0" y="1030.36" style="opacity:0.00100002"/>
  <path d="m 5,1035.3622 0,12 4,0 0,-12 -4,0 z m 8,0 0,12 4,0 0,-12 -4,0 z" style="fill:#d3dae3"/>
 </g>
 <g id="media-playback-start" transform="translate(0,-1030.3622)">
  <rect width="22" height="22" x="0" y="1030.36" style="opacity:0.00100002"/>
  <path d="m 6,1035.3622 0,12 11,-6 -9.8992,-5.3996 z" style="fill:#d3dae3"/>
 </g>
</svg>
