<svg xmlns="http://www.w3.org/2000/svg" width="22" height="22" version="1.1" viewBox="0 0 22 22">
 <g id="media-record" transform="translate(22,-1030.36)">
  <rect style="opacity:0.00100002" width="22" height="22" x="0" y="1030.36"/>
  <path style="fill:#5294e2" d="m 11,1035.3622 c -3.31104,0 -6,2.6888 -6,6 0,3.311 2.68896,6 6,6 3.31104,0 6,-2.689 6,-6 0,-3.3112 -2.68896,-6 -6,-6 z"/>
 </g>
 <g id="media-playback-stop" transform="translate(44,-1030.36)">
  <rect style="opacity:0.00100002" width="22" height="22" x="0" y="1030.36"/>
  <path style="fill:#d3dae3" d="m 5,1035.3622 v 12 h 12 v -12 z"/>
 </g>
 <g id="media-skip-forward" transform="translate(66,-1030.36)">
  <rect style="opacity:0.00100002" width="22" height="22" x="0" y="1030.36"/>
  <path style="fill:#d3dae3" d="m 19,1037.3622 v 8 h -2 v -4 -4 z m -2,4 -7,4 v -4 -4 z m -7,0 -7,4 v -8 z"/>
 </g>
 <g id="media-skip-backward" transform="matrix(-1,0,0,1,110,-1030.36)">
  <rect style="opacity:0.00100002" width="22" height="22" x="0" y="1030.36"/>
  <path style="fill:#d3dae3" d="m 19,1037.3622 v 8 h -2 v -4 -4 z m -2,4 -7,4 v -4 -4 z m -7,0 -7,4 v -8 z"/>
 </g>
 <g id="media-seek-forward" transform="translate(110,-1030.36)">
  <rect style="opacity:0.00100002" width="22" height="22" x="0" y="1030.36"/>
  <path style="fill:#d3dae3" d="m 11.000002,1037.3622 6.999997,4 -6.999997,4 v -4 z m 0,4 -7.0000007,4 v -8 z"/>
 </g>
 <g id="media-seek-backward" transform="matrix(-1,0,0,1,154,-1030.36)">
  <rect style="opacity:0.00100002" width="22" height="22" x="0" y="1030.36"/>
  <path style="fill:#d3dae3" d="m 11.000002,1037.3622 6.999997,4 -6.999997,4 v -4 z m 0,4 -7.0000007,4 v -8 z"/>
 </g>
 <g id="media-eject" transform="translate(-44,-1030.36)">
  <rect style="opacity:0.00100002" width="22" height="22" x="0" y="1030.36"/>
  <path style="display:block;fill:#d3dae3" d="m 11,1036.3622 -5,5 v 1 h 10 v -1 z m -5,8 v 2 h 10 v -2 z" display="block"/>
 </g>
 <g id="media-playback-pause" transform="translate(-22,-1030.36)">
  <rect style="opacity:0.00100002" width="22" height="22" x="0" y="1030.36"/>
  <path style="fill:#d3dae3" d="m 5,1035.3622 v 12 h 4 v -12 z m 8,0 v 12 h 4 v -12 z"/>
 </g>
 <g id="media-playback-start" transform="translate(0,-1030.36)">
  <rect style="opacity:0.00100002" width="22" height="22" x="0" y="1030.36"/>
  <path style="fill:#d3dae3" d="m 6,1035.3622 v 12 l 11,-6 -9.8992,-5.3996 z"/>
 </g>
 <g id="media-playback-stopped" transform="translate(44,-1008.36)">
  <rect width="22" height="22" x="0" y="1030.36" style="opacity:0.00100002"/>
  <path d="m 5,1035.3622 v 12 h 12 v -12 z" style="fill:#d3dae3"/>
 </g>
 <g id="media-playback-paused" transform="translate(-22,-1008.36)">
  <rect width="22" height="22" x="0" y="1030.36" style="opacity:0.00100002"/>
  <path d="m 5,1035.3622 v 12 h 4 v -12 z m 8,0 v 12 h 4 v -12 z" style="fill:#d3dae3"/>
 </g>
 <g id="media-playback-playing" transform="translate(0,-1008.36)">
  <rect width="22" height="22" x="0" y="1030.36" style="opacity:0.00100002"/>
  <path d="m 6,1035.3622 v 12 l 11,-6 -9.8992,-5.3996 z" style="fill:#d3dae3"/>
 </g>
</svg>
