<?xml version="1.0" encoding="UTF-8" standalone="no"?>
<svg
   xmlns:dc="http://purl.org/dc/elements/1.1/"
   xmlns:cc="http://creativecommons.org/ns#"
   xmlns:rdf="http://www.w3.org/1999/02/22-rdf-syntax-ns#"
   xmlns:svg="http://www.w3.org/2000/svg"
   xmlns="http://www.w3.org/2000/svg"
   version="1.1"
   id="svg4163"
   viewBox="0 0 22 22"
   height="22"
   width="22">
  <defs
     id="defs34" />
  <metadata
     id="metadata4168">
    <rdf:RDF>
      <cc:Work
         rdf:about="">
        <dc:format>
                    image/svg+xml
                </dc:format>
        <dc:type
           rdf:resource="http://purl.org/dc/dcmitype/StillImage" />
        <dc:title></dc:title>
      </cc:Work>
    </rdf:RDF>
  </metadata>
  <g
     id="media-record"
     transform="translate(22,-1030.3622)">
    <rect
       y="1030.3622"
       x="0"
       height="22"
       width="22"
       id="rect4753"
       style="opacity:0.00100002;fill:#000000;fill-opacity:1;stroke:none;stroke-width:2;stroke-linecap:round;stroke-linejoin:round;stroke-miterlimit:4;stroke-dasharray:none;stroke-opacity:1" />
    <path
       id="path4646-0"
       d="m 11,1035.3622 c -3.31104,0 -6,2.6888 -6,6 0,3.311 2.68896,6 6,6 3.31104,0 6,-2.689 6,-6 0,-3.3112 -2.68896,-6 -6,-6 z"
       style="opacity:1;fill:#5294e2;fill-opacity:1;enable-background:new" />
  </g>
  <g
     id="media-playback-stop"
     transform="translate(44,-1030.3622)">
    <rect
       y="1030.3622"
       x="0"
       height="22"
       width="22"
       id="rect4761"
       style="opacity:0.00100002;fill:#000000;fill-opacity:1;stroke:none;stroke-width:2;stroke-linecap:round;stroke-linejoin:round;stroke-miterlimit:4;stroke-dasharray:none;stroke-opacity:1" />
    <path
       id="path3807-1-1-5-8"
       d="m 5,1035.3622 0,12 12,0 0,-12 z"
       style="opacity:1;fill:#d3dae3;enable-background:new" />
  </g>
  <g
     id="media-skip-forward"
     transform="translate(66,-1030.3622)">
    <rect
       y="1030.3622"
       x="0"
       height="22"
       width="22"
       id="rect4767"
       style="opacity:0.00100002;fill:#000000;fill-opacity:1;stroke:none;stroke-width:2;stroke-linecap:round;stroke-linejoin:round;stroke-miterlimit:4;stroke-dasharray:none;stroke-opacity:1" />
    <path
       id="path5181"
       d="m 19,1037.3622 0,8 -2,0 0,-4 0,-4 2,0 z m -2,4 -7,4 0,-4 0,-4 7,4 z m -7,0 -7,4 0,-8 7,4 z"
       style="opacity:1;fill:#d3dae3;enable-background:new" />
  </g>
  <g
     transform="matrix(-1,0,0,1,110,-1030.3622)"
     id="media-skip-backward">
    <rect
       style="opacity:0.00100002;fill:#000000;fill-opacity:1;stroke:none;stroke-width:2;stroke-linecap:round;stroke-linejoin:round;stroke-miterlimit:4;stroke-dasharray:none;stroke-opacity:1"
       id="rect4775"
       width="22"
       height="22"
       x="0"
       y="1030.3622" />
    <path
       style="opacity:1;fill:#d3dae3;enable-background:new"
       d="m 19,1037.3622 0,8 -2,0 0,-4 0,-4 2,0 z m -2,4 -7,4 0,-4 0,-4 7,4 z m -7,0 -7,4 0,-8 7,4 z"
       id="path4777" />
  </g>
  <g
     id="media-seek-forward"
     transform="translate(110,-1030.3622)">
    <rect
       y="1030.3622"
       x="0"
       height="22"
       width="22"
       id="rect4779"
       style="opacity:0.00100002;fill:#000000;fill-opacity:1;stroke:none;stroke-width:2;stroke-linecap:round;stroke-linejoin:round;stroke-miterlimit:4;stroke-dasharray:none;stroke-opacity:1" />
    <path
       id="path3807-1-1-4-7-2"
       d="m 11.000002,1037.3622 6.999997,4 -6.999997,4 0,-4 0,-4 z m 0,4 -7.0000007,4 0,-8 7.0000007,4 z"
       style="opacity:1;fill:#d3dae3;enable-background:new" />
  </g>
  <g
     transform="matrix(-1,0,0,1,154,-1030.3622)"
     id="media-seek-backward">
    <rect
       style="opacity:0.00100002;fill:#000000;fill-opacity:1;stroke:none;stroke-width:2;stroke-linecap:round;stroke-linejoin:round;stroke-miterlimit:4;stroke-dasharray:none;stroke-opacity:1"
       id="rect4787"
       width="22"
       height="22"
       x="0"
       y="1030.3622" />
    <path
       style="opacity:1;fill:#d3dae3;enable-background:new"
       d="m 11.000002,1037.3622 6.999997,4 -6.999997,4 0,-4 0,-4 z m 0,4 -7.0000007,4 0,-8 7.0000007,4 z"
       id="path4789" />
  </g>
  <g
     id="media-eject"
     transform="translate(-44,-1030.3622)">
    <rect
       y="1030.3622"
       x="0"
       height="22"
       width="22"
       id="rect4791"
       style="opacity:0.00100002;fill:#000000;fill-opacity:1;stroke:none;stroke-width:2;stroke-linecap:round;stroke-linejoin:round;stroke-miterlimit:4;stroke-dasharray:none;stroke-opacity:1" />
    <path
       id="path696"
       style="color:#d3dae3;display:block;opacity:1;fill:#d3dae3;enable-background:accumulate"
       d="m 11,1036.3622 -5,5 0,1 10,0 0,-1 z m -5,8 0,2 10,0 0,-2 z"
       display="block" />
  </g>
  <g
     id="media-playback-pause"
     transform="translate(-22,-1030.3622)">
    <rect
       y="1030.3622"
       x="0"
       height="22"
       width="22"
       id="rect4797"
       style="opacity:0.00100002;fill:#000000;fill-opacity:1;stroke:none;stroke-width:2;stroke-linecap:round;stroke-linejoin:round;stroke-miterlimit:4;stroke-dasharray:none;stroke-opacity:1" />
    <path
       id="path3807-1-1-5-8-6"
       d="m 5,1035.3622 0,12 4,0 0,-12 -4,0 z m 8,0 0,12 4,0 0,-12 -4,0 z"
       style="opacity:1;fill:#d3dae3;enable-background:new" />
  </g>
  <g
     transform="translate(0,-1030.3622)"
     id="media-playback-start">
    <rect
       style="opacity:0.00100002;fill:#000000;fill-opacity:1;stroke:none;stroke-width:2;stroke-linecap:round;stroke-linejoin:round;stroke-miterlimit:4;stroke-dasharray:none;stroke-opacity:1"
       id="rect4755"
       width="22"
       height="22"
       x="0"
       y="1030.3622" />
    <path
       id="path3807-1-1-9-38-4"
       d="m 6,1035.3622 0,12 11,-6 -9.8992,-5.3996 z"
       style="opacity:1;fill:#d3dae3;enable-background:new" />
  </g>
</svg>
