<svg xmlns="http://www.w3.org/2000/svg" width="32" height="32" version="1.1">
 <g id="22-22-media-record" transform="translate(256,-1052.36)">
  <rect style="opacity:0.001" width="22" height="22" x="0" y="1030.36"/>
  <path style="fill:#5294e2" d="m 11,1035.3622 c -3.31104,0 -6,2.6888 -6,6 0,3.311 2.68896,6 6,6 3.31104,0 6,-2.689 6,-6 0,-3.3112 -2.68896,-6 -6,-6 z"/>
 </g>
 <g id="22-22-media-playback-stop" transform="translate(32,-1052.36)">
  <rect style="opacity:0.001" width="22" height="22" x="0" y="1030.36"/>
  <path style="fill:#d3dae3" d="m 5,1035.3622 v 12 h 12 v -12 z"/>
 </g>
 <g id="22-22-media-skip-forward" transform="translate(96.000001,-1052.36)">
  <rect style="opacity:0.001" width="22" height="22" x="0" y="1030.36"/>
  <path style="fill:#d3dae3" d="m 19,1037.3622 v 8 h -2 v -4 -4 z m -2,4 -7,4 v -4 -4 z m -7,0 -7,4 v -8 z"/>
 </g>
 <g id="22-22-media-skip-backward" transform="matrix(-1,0,0,1,150,-1052.36)">
  <rect style="opacity:0.001" width="22" height="22" x="0" y="1030.36"/>
  <path style="fill:#d3dae3" d="m 19,1037.3622 v 8 h -2 v -4 -4 z m -2,4 -7,4 v -4 -4 z m -7,0 -7,4 v -8 z"/>
 </g>
 <g id="22-22-media-seek-forward" transform="translate(160,-1052.36)">
  <rect style="opacity:0.001" width="22" height="22" x="0" y="1030.36"/>
  <path style="fill:#d3dae3" d="m 11.000002,1037.3622 6.999997,4 -6.999997,4 v -4 z m 0,4 -7.0000007,4 v -8 z"/>
 </g>
 <g id="22-22-media-seek-backward" transform="matrix(-1,0,0,1,214,-1052.36)">
  <rect style="opacity:0.001" width="22" height="22" x="0" y="1030.36"/>
  <path style="fill:#d3dae3" d="m 11.000002,1037.3622 6.999997,4 -6.999997,4 v -4 z m 0,4 -7.0000007,4 v -8 z"/>
 </g>
 <g id="22-22-media-eject" transform="translate(224,-1052.36)">
  <rect style="opacity:0.001" width="22" height="22" x="0" y="1030.36"/>
  <path style="fill:#d3dae3" d="m 11,1036.3622 -5,5 v 1 h 10 v -1 z m -5,8 v 2 h 10 v -2 z" display="block"/>
 </g>
 <g id="22-22-media-playback-pause" transform="translate(64.000001,-1052.36)">
  <rect style="opacity:0.001" width="22" height="22" x="0" y="1030.36"/>
  <path style="fill:#d3dae3" d="m 5,1035.3622 v 12 h 4 v -12 z m 8,0 v 12 h 4 v -12 z"/>
 </g>
 <g id="22-22-media-playback-start" transform="translate(0,-1052.36)">
  <rect style="opacity:0.001" width="22" height="22" x="0" y="1030.36"/>
  <path style="fill:#d3dae3" d="m 6,1035.3622 v 12 l 11,-6 -9.8992,-5.3996 z"/>
 </g>
 <g id="22-22-media-playback-stopped" transform="translate(32,-1074.36)">
  <rect style="opacity:0.001" width="22" height="22" x="0" y="1030.36"/>
  <path style="fill:#d3dae3" d="m 5,1035.3622 v 12 h 12 v -12 z"/>
 </g>
 <g id="22-22-media-playback-paused" transform="translate(64.000001,-1074.36)">
  <rect style="opacity:0.001" width="22" height="22" x="0" y="1030.36"/>
  <path style="fill:#d3dae3" d="m 5,1035.3622 v 12 h 4 v -12 z m 8,0 v 12 h 4 v -12 z"/>
 </g>
 <g id="22-22-media-playback-playing" transform="translate(0,-1074.36)">
  <rect style="opacity:0.001" width="22" height="22" x="0" y="1030.36"/>
  <path style="fill:#d3dae3" d="m 6,1035.3622 v 12 l 11,-6 -9.8992,-5.3996 z"/>
 </g>
 <g id="media-record" transform="matrix(1.4545455,0,0,1.4545455,256,-1498.7055)">
  <rect style="opacity:0.001" width="22" height="22" x="0" y="1030.36"/>
  <path style="fill:#5294e2" d="m 11,1035.1725 c -3.4145101,0 -6.1875,2.7728 -6.1875,6.1875 0,3.4145 2.7729899,6.1875 6.1875,6.1875 3.41451,0 6.1875,-2.773 6.1875,-6.1875 0,-3.4147 -2.77299,-6.1875 -6.1875,-6.1875 z"/>
 </g>
 <g id="media-playback-stop" transform="matrix(1.4545455,0,0,1.4545455,32,-1498.7055)">
  <rect style="opacity:0.001" width="22" height="22" x="0" y="1030.36"/>
  <path style="fill:#d3dae3" d="m 4.8125,1035.1725 v 12.375 h 12.375 v -12.375 z"/>
 </g>
 <g id="media-skip-forward" transform="translate(96.000001)">
  <rect style="opacity:0.001" width="32" height="32" x="0" y="0"/>
  <path style="fill:#d3dae3" d="m 28,10 v 12 h -3 v -6 -6 z m -3,6 -10,6 V 16 10 Z M 15,16 4,22 V 10 Z"/>
 </g>
 <g id="media-seek-forward" transform="translate(160)">
  <rect style="opacity:0.001" width="32" height="32" x="0" y="0"/>
  <path style="fill:#d3dae3" d="M 17,10 26.999996,16 17,22 v -6 z m 0,6 -11,6 V 10 Z"/>
 </g>
 <g id="media-eject" transform="translate(224)">
  <rect style="opacity:0.001" width="32" height="32" x="0" y="0"/>
  <path style="fill:#d3dae3" d="M 16.5,8 9,15.5 V 17 H 24 V 15.5 Z M 9,20 v 3 h 15 v -3 z" display="block"/>
 </g>
 <g id="media-playback-pause" transform="translate(64.000001)">
  <rect style="opacity:0.001" width="32" height="32" x="0" y="0"/>
  <path style="fill:#d3dae3" d="m 7,7 v 18 h 6 V 7 Z m 12,0 v 18 h 6 V 7 Z"/>
 </g>
 <g id="media-playback-start" transform="translate(5e-7,1.9926818e-5)">
  <rect style="opacity:0.001" width="32" height="32" x="0" y="0"/>
  <path style="fill:#d3dae3" d="M 9,7 V 25 L 25,16 10.601163,7.9006 Z"/>
 </g>
 <g id="media-skip-backward" transform="matrix(-1,0,0,1,160,0)">
  <rect style="opacity:0.001" width="32" height="32" x="0" y="0"/>
  <path style="fill:#d3dae3" d="m 28,10 v 12 h -3 v -6 -6 z m -3,6 -10,6 V 16 10 Z M 15,16 4,22 V 10 Z"/>
 </g>
 <g id="media-seek-backward" transform="matrix(-1,0,0,1,224,0)">
  <rect style="opacity:0.001" width="32" height="32" x="0" y="0"/>
  <path style="fill:#d3dae3" d="M 17,10 26.999996,16 17,22 v -6 z m 0,6 -11,6 V 10 Z"/>
 </g>
 <g id="media-playback-stopped" transform="matrix(1.4545455,0,0,1.4545455,32,-1466.7055)">
  <rect style="opacity:0.001" width="22" height="22" x="0" y="1030.36"/>
  <path style="fill:#d3dae3" d="m 4.8125,1035.1725 v 12.375 h 12.375 v -12.375 z"/>
 </g>
 <g id="media-playback-paused" transform="translate(64.000001,32.000001)">
  <rect style="opacity:0.001" width="32" height="32" x="0" y="0"/>
  <path style="fill:#d3dae3" d="m 7,7 v 18 h 6 V 7 Z m 12,0 v 18 h 6 V 7 Z"/>
 </g>
 <g id="media-playback-playing" transform="translate(5e-7,32.000021)">
  <rect style="opacity:0.001" width="32" height="32" x="0" y="0"/>
  <path style="fill:#d3dae3" d="M 9,7 V 25 L 25,16 10.601163,7.9006 Z"/>
 </g>
 <g id="media-playlist-repeat">
  <path style="opacity:0.001" d="m 320,-1.99e-5 h 32 V 31.99998 h -32 z"/>
  <path style="fill:#d3dae3" d="M 331,5.9999801 V 9 h -2.85715 C 325,9 325,12 325,12 v 9.00001 c 0,0 0,2.99998 3.14285,2.99998 h 15.7143 C 347,23.99999 347,21.00001 347,21.00001 V 12 c 0,0 0,-3 -3.14285,-3 H 341 v 3 h 3 v 9.00001 H 328 V 12 h 3 v 3 l 6.57143,-4.5 z"/>
 </g>
 <g id="media-playlist-shuffle">
  <path style="opacity:0.001" d="m 288,-1.99e-5 h 32 V 31.99998 h -32 z"/>
  <path style="fill:#d3dae3" d="m 294,9 v 3 h 6.42857 l 1.42857,2.571408 L 303.28571,12 301.85714,9 Z m 14,8.428551 V 20 h -0.42857 L 306.14286,17.428551 304.71429,20 l 1.42857,3 H 308 v 2.99998 l 6,-4.285714 z M 308,5.9999801 V 9 h -1.85714 l -5.71429,11 H 294 v 3 h 7.85714 l 5.71429,-11 H 308 v 2.571408 l 6,-4.285714 z"/>
 </g>
</svg>
