<?xml version="1.0" encoding="UTF-8" standalone="no"?>
<svg
   xmlns:osb="http://www.openswatchbook.org/uri/2009/osb"
   xmlns:dc="http://purl.org/dc/elements/1.1/"
   xmlns:cc="http://creativecommons.org/ns#"
   xmlns:rdf="http://www.w3.org/1999/02/22-rdf-syntax-ns#"
   xmlns:svg="http://www.w3.org/2000/svg"
   xmlns="http://www.w3.org/2000/svg"
   width="22"
   version="1.1"
   style="enable-background:new"
   id="svg7384"
   height="22">
  <metadata
     id="metadata90">
    <rdf:RDF>
      <cc:Work
         rdf:about="">
        <dc:format>
                    image/svg+xml
                </dc:format>
        <dc:type
           rdf:resource="http://purl.org/dc/dcmitype/StillImage" />
        <dc:title>
        Paper Symbolic Icon Theme
    </dc:title>
      </cc:Work>
    </rdf:RDF>
  </metadata>
  <title
     id="title8473">
        Paper Symbolic Icon Theme
    </title>
  <defs
     id="defs7386">
    <linearGradient
       osb:paint="solid"
       id="linearGradient5606">
      <stop
         style="stop-color:#000000;stop-opacity:1;"
         offset="0"
         id="stop5608" />
    </linearGradient>
  </defs>
  <g
     id="nepomuk">
    <rect
       y="2.0664063e-06"
       x="-3.2714843e-06"
       height="22"
       width="22"
       id="rect4150"
       style="opacity:0;fill:#000000;fill-opacity:1;stroke:none;stroke-opacity:1" />
    <path
       id="path4142"
       d="m 10,3.000702 a 7,7 0 0 0 -7,7 7,7 0 0 0 7,7 7,7 0 0 0 4.08984,-1.328125 l 2.88672,2.886719 c 0.58761,0.587605 1.53349,0.587605 2.1211,0 0.5876,-0.587606 0.5876,-1.533488 0,-2.121094 L 16.0918,13.432343 A 7,7 0 0 0 17,10.000702 a 7,7 0 0 0 -7,-7 z m 0,3 a 4,4 0 0 1 4,4 4,4 0 0 1 -4,4 4,4 0 0 1 -4,-4 4,4 0 0 1 4,-4 z"
       style="opacity:1;fill:#d3dae3;fill-opacity:1;stroke:none;stroke-opacity:1" />
  </g>
</svg>
