<?xml version="1.0" encoding="UTF-8" standalone="no"?>
<svg xmlns:dc="http://purl.org/dc/elements/1.1/" xmlns:cc="http://creativecommons.org/ns#" xmlns:rdf="http://www.w3.org/1999/02/22-rdf-syntax-ns#" xmlns:svg="http://www.w3.org/2000/svg" xmlns="http://www.w3.org/2000/svg" xmlns:xlink="http://www.w3.org/1999/xlink" viewBox="0 0 22 22" id="svg" version="1.1" width="100%" height="100%">
    <defs id="defs81">
        <style id="current-color-scheme" type="text/css">
            .ColorScheme-Text { color:#7B7C7E; } .ColorScheme-Background{ color:#EFF0F1; } .ColorScheme-Highlight{ color:#3DAEE6; } .ColorScheme-ViewText { color:#7B7C7E; } .ColorScheme-ViewBackground{ color:#FCFCFC; } .ColorScheme-ViewHover { color:#3DAEE6; } .ColorScheme-ViewFocus{ color:#1E92FF; } .ColorScheme-ButtonText { color:#7B7C7E; } .ColorScheme-ButtonBackground{ color:#EFF0F1; } .ColorScheme-ButtonHover { color:#3DAEE6; } .ColorScheme-ButtonFocus{ color:#1E92FF; }
        </style>
        <linearGradient xlink:href="#linearGradient4254" id="linearGradient5399" gradientUnits="userSpaceOnUse" x1="317.91653" y1="909.77173" x2="317.91653" y2="912.77173"/>
        <linearGradient id="linearGradient4254">
            <stop id="stop4256" offset="0" style="stop-color:#888888;stop-opacity:1;"/>
            <stop id="stop4258" offset="1" style="stop-color:#232323;stop-opacity:1;"/>
        </linearGradient>
    </defs>
    <metadata id="metadata34">
        <rdf:RDF>
            <cc:Work rdf:about="">
                <dc:format>
                    image/svg+xml
                </dc:format>
                <dc:type rdf:resource="http://purl.org/dc/dcmitype/StillImage"/>
                <dc:title/>
            </cc:Work>
        </rdf:RDF>
    </metadata>
    <g id="notification-active">
        <rect y="40" x="0" height="22" width="22" id="rect3068" style="opacity:0;fill:#000000;fill-opacity:0.94117647;stroke:none"/>
        <path id="path4238" d="m 11,43 c -4.418278,0 -8,3.581722 -8,8 0,4.418278 3.581722,8 8,8 4.418278,0 8,-3.581722 8,-8 0,-4.418278 -3.581722,-8 -8,-8 z" style="opacity:1;fill:#5294e2;fill-opacity:1;fill-rule:nonzero;stroke:none;stroke-width:1;stroke-linecap:round;stroke-linejoin:round;stroke-miterlimit:4;stroke-dasharray:none;stroke-dashoffset:0;stroke-opacity:1"/>
        <path id="path4173-0" d="M 10 47 L 10 53 L 12 53 L 12 47 L 10 47 z M 11 54 C 10.546848 54 10 54.518427 10 54.980469 C 10 55.442512 10.546848 56 11 56 C 11.453152 56 12 55.442512 12 54.980469 C 12 54.518427 11.453152 54 11 54 z " style="color:#7b7c7e;opacity:1;fill:#d3dae3;fill-opacity:0.94117647;stroke:none"/>
    </g>
    <path class="ColorScheme-Text" style="fill:#d3dae3;fill-opacity:1;opacity:1" d="m -18,23 2,-2 2,2 z" id="expander-bottom"/>
    <path class="ColorScheme-Text" id="expander-top" d="m -18,17 2,2 2,-2 z" style="fill:#d3dae3;fill-opacity:1;opacity:1"/>
    <path class="ColorScheme-Text" style="fill:#d3dae3;fill-opacity:1;opacity:1" d="m -13,18 -2,2 2,2 z" id="expander-right"/>
    <path class="ColorScheme-Text" id="expander-left" d="m -19,18 2,2 -2,2 z" style="fill:#d3dae3;fill-opacity:1;opacity:1"/>
    <g id="notification-inactive">
        <rect y="0" x="0" height="22" width="22" id="rect3028" style="fill:#d3dae3;fill-opacity:0;stroke:none"/>
        <g id="g4185">
            <path style="opacity:1;fill:#d3dae3;fill-opacity:1;fill-rule:nonzero;stroke:none;stroke-width:1;stroke-linecap:round;stroke-linejoin:round;stroke-miterlimit:4;stroke-dasharray:none;stroke-dashoffset:0;stroke-opacity:1" d="M 11 3 A 8 8 0 0 0 3 11 A 8 8 0 0 0 11 19 A 8 8 0 0 0 19 11 A 8 8 0 0 0 11 3 z M 11 5 A 6 6 0 0 1 17 11 A 6 6 0 0 1 11 17 A 6 6 0 0 1 5 11 A 6 6 0 0 1 11 5 z M 10 6 L 10 12 L 12 12 L 12 6 L 10 6 z M 11 13 C 10.546848 13 10 13.518427 10 13.980469 C 10 14.442512 10.546848 15 11 15 C 11.453152 15 12 14.442512 12 13.980469 C 12 13.518427 11.453152 13 11 13 z " id="path4163"/>
        </g>
    </g>
    <g id="notification-disabled">
        <rect style="fill:#000000;fill-opacity:0.94117647;stroke:none;opacity:0" id="rect3022" width="22" height="22" x="0" y="-40"/>
        <path style="opacity:0.3;fill:#d3dae3;fill-opacity:1;fill-rule:nonzero;stroke:none;stroke-width:1;stroke-linecap:round;stroke-linejoin:round;stroke-miterlimit:4;stroke-dasharray:none;stroke-dashoffset:0;stroke-opacity:1" d="M 11 -37 A 8 8 0 0 0 3 -29 A 8 8 0 0 0 11 -21 A 8 8 0 0 0 19 -29 A 8 8 0 0 0 11 -37 z M 11 -35 A 6 6 0 0 1 17 -29 A 6 6 0 0 1 11 -23 A 6 6 0 0 1 5 -29 A 6 6 0 0 1 11 -35 z M 10 -34 L 10 -28 L 12 -28 L 12 -34 L 10 -34 z M 11 -27 C 10.546848 -27 10 -26.481573 10 -26.019531 C 10 -25.557488 10.546848 -25 11 -25 C 11.453152 -25 12 -25.557488 12 -26.019531 C 12 -26.481573 11.453152 -27 11 -27 z " id="path4196"/>
    </g>
    <g id="notification-empty">
        <rect style="fill:#000000;fill-opacity:0.94117647;stroke:none;opacity:0" id="rect3798" width="22" height="22" x="40" y="-40"/>
        <path style="opacity:1;fill:#d3dae3;fill-opacity:1;fill-rule:nonzero;stroke:none;stroke-width:1;stroke-linecap:round;stroke-linejoin:round;stroke-miterlimit:4;stroke-dasharray:none;stroke-dashoffset:0;stroke-opacity:1" d="m 51,-37 a 8,8 0 0 0 -8,8 8,8 0 0 0 8,8 8,8 0 0 0 8,-8 8,8 0 0 0 -8,-8 z m 0,2 a 6,6 0 0 1 6,6 6,6 0 0 1 -6,6 6,6 0 0 1 -6,-6 6,6 0 0 1 6,-6 z" id="path4226"/>
    </g>
    <g id="notification-progress-active">
        <rect style="fill:#000000;fill-opacity:0.94117647;stroke:none;opacity:0" id="rect3009" width="22" height="22" x="40" y="0"/>
        <path id="path4233" d="m 51,2.9999999 c -4.418278,0 -8,3.5817221 -8,8.0000001 0,4.418278 3.581722,8 8,8 4.418278,0 8,-3.581722 8,-8 0,-4.418278 -3.581722,-8.0000001 -8,-8.0000001 z" style="opacity:1;fill:#5294e2;fill-opacity:1;fill-rule:nonzero;stroke:none;stroke-width:1;stroke-linecap:round;stroke-linejoin:round;stroke-miterlimit:4;stroke-dasharray:none;stroke-dashoffset:0;stroke-opacity:1"/>
    </g>
    <g id="notification-progress-inactive">
        <rect style="fill:#000000;fill-opacity:0.94117647;stroke:none;opacity:0" id="rect3060" width="22" height="22" x="40" y="40"/>
        <path id="path4241" d="m 51,43 c -4.418278,0 -8,3.581722 -8,8 0,4.418278 3.581722,8 8,8 4.418278,0 8,-3.581722 8,-8 0,-4.418278 -3.581722,-8 -8,-8 z" style="opacity:0.3;fill:#d3dae3;fill-opacity:1;fill-rule:nonzero;stroke:none;stroke-width:1;stroke-linecap:round;stroke-linejoin:round;stroke-miterlimit:4;stroke-dasharray:none;stroke-dashoffset:0;stroke-opacity:1"/>
    </g>
</svg>
