<svg xmlns="http://www.w3.org/2000/svg" width="32" height="32" version="1">
 <g id="22-22-offline" transform="translate(27,5)">
  <rect style="opacity:0.001" width="22" height="22" x="5" y="5"/>
  <path style="fill:#f44336" d="m 22,22 v 1.414062 L 23.085938,24.5 22,25.585938 V 27 h 1.414062 L 24.5,25.914062 25.585938,27 H 27 V 25.585938 L 25.914062,24.5 27,23.414062 V 22 H 25.585938 L 24.5,23.085938 23.414062,22 Z"/>
  <path style="opacity:0.3;fill:#d3dae3" d="M 16,6 C 10.477144,6 6,10.477143 6,16 c 0,5.522858 4.477144,10 10,10 2.038144,0 3.932817,-0.611187 5.513672,-1.658203 L 21.292969,24.121094 A 1.0001,1.0001 0 0 1 21,23.414062 V 22 a 1.0001,1.0001 0 0 1 1,-1 h 1.414062 a 1.0001,1.0001 0 0 1 0.707032,0.292969 l 0.220703,0.220703 C 25.388813,19.932817 26,18.038144 26,16 26,10.477143 21.522857,6 16,6 Z m -0.935547,1.9941406 c 0.108806,-0.01139 0.245686,0.0065 0.355469,0 0.01301,0.05204 -0.07708,0.2387546 -0.201172,0.5097656 -0.790216,1.7262878 -0.8369,3.7475278 -0.103516,4.8281248 0.132716,0.195919 0.253907,0.38202 0.253907,0.40625 0,0.02424 -0.142858,0.05078 -0.304688,0.05078 -0.3799,10e-7 -0.740065,-0.23084 -1.474609,-0.8125 -0.326312,-0.25839 -0.749712,-0.474962 -0.914063,-0.507812 -0.258081,-0.05156 -0.326284,-0.02922 -0.660156,0.304688 -0.310635,0.310584 -0.40625,0.47934 -0.40625,0.763671 0,1.078223 1.280827,1.933145 3.660156,2.4375 3.231223,0.684839 4.026105,1.298953 4.115235,2.998047 0.111903,2.130617 -1.021331,3.736741 -3.50586,4.980469 -0.296546,0.148492 -0.484954,0.207878 -0.609375,0.255859 -0.05514,-0.0049 -0.09933,0.0049 -0.154297,0 -0.02114,-0.06587 -0.05078,-0.218243 -0.05078,-0.507812 0,-1.131634 -0.445068,-2.297837 -1.117187,-2.949219 -0.180417,-0.174873 -0.684591,-0.544709 -1.117188,-0.8125 -0.432581,-0.267776 -0.869537,-0.57822 -0.966797,-0.710937 -0.161141,-0.220233 -0.172664,-0.354867 -0.04883,-0.761719 0.22568,-0.743063 0.493412,-1.159403 1.015625,-1.628906 0.273776,-0.246141 0.548725,-0.450178 0.609375,-0.455079 0.06067,-0.0049 -0.34908,-0.129893 -0.964844,-0.255859 -0.615733,-0.12621 -1.518682,-0.390047 -1.984375,-0.558594 C 9.6386694,15.260234 8.4891023,14.612681 8.0507812,14.144531 8.0322512,14.124681 8.0161,14.11132 8,14.09375 c 0.628012,-2.501606 2.3902,-4.5510085 4.726562,-5.5390625 0.488855,-0.206768 0.99342,-0.3482222 1.525391,-0.4570313 0.264977,-0.05416 0.538903,-0.0757 0.8125,-0.1035156 z m 7.625,3.8125004 c 0.191025,0.118078 0.913249,1.680238 1.119141,2.441406 0.265819,0.982671 0.246579,2.682021 0,3.658203 -0.09385,0.37154 -0.21585,0.718459 -0.25586,0.761719 -0.04001,0.04326 -0.18674,-0.203394 -0.357422,-0.50586 C 23.02462,17.85969 22.482403,17.21637 22.029297,16.738281 20.721422,15.358208 20.514655,14.638525 21.0625,13.537109 c 0.276282,-0.555408 1.479111,-1.821708 1.626953,-1.730468 z"/>
 </g>
 <g id="offline">
  <rect style="opacity:0.001" width="32" height="32" x="0" y="0"/>
  <path style="opacity:0.3;fill:#d3dae3" d="M 16 2 C 8.268002 2 2 8.268001 2 16 C 2 23.732002 8.268002 30 16 30 C 18.998617 30 21.770807 29.048605 24.048828 27.443359 L 23.292969 26.6875 A 1.0001 1.0001 0 0 1 23 25.980469 L 23 24 A 1.0001 1.0001 0 0 1 24 23 L 25.980469 23 A 1.0001 1.0001 0 0 1 26.6875 23.292969 L 27.443359 24.048828 C 29.048605 21.770807 30 18.998618 30 16 C 30 8.268001 23.731999 2 16 2 z M 14.689453 4.7910156 C 14.841782 4.7750656 15.033804 4.8001156 15.1875 4.7910156 C 15.20571 4.8638756 15.079979 5.1264444 14.90625 5.5058594 C 13.799948 7.9226624 13.734981 10.75279 14.761719 12.265625 C 14.947521 12.539912 15.117187 12.800062 15.117188 12.833984 C 15.117188 12.867924 14.916015 12.904297 14.689453 12.904297 C 14.157593 12.904299 13.653361 12.581901 12.625 11.767578 C 12.168163 11.405832 11.575794 11.102631 11.345703 11.056641 C 10.984389 10.984461 10.889296 11.014949 10.421875 11.482422 C 9.986986 11.917239 9.8535156 12.154671 9.8535156 12.552734 C 9.8535156 14.062246 11.645502 15.258747 14.976562 15.964844 C 19.500274 16.923619 20.613499 17.783377 20.738281 20.162109 C 20.894945 23.144972 19.308418 25.393547 15.830078 27.134766 C 15.414913 27.342655 15.150752 27.425016 14.976562 27.492188 C 14.899363 27.485287 14.838673 27.499088 14.761719 27.492188 C 14.732119 27.399967 14.689453 27.186645 14.689453 26.78125 C 14.689453 25.196961 14.06792 23.564281 13.126953 22.652344 C 12.874369 22.407522 12.168136 21.890533 11.5625 21.515625 C 10.956886 21.14074 10.345148 20.705333 10.208984 20.519531 C 9.9833874 20.211203 9.967253 20.022717 10.140625 19.453125 C 10.456577 18.412836 10.831402 17.831133 11.5625 17.173828 C 11.945786 16.829231 12.331106 16.542016 12.416016 16.535156 C 12.500956 16.528256 11.926523 16.354087 11.064453 16.177734 C 10.202427 16.001042 8.9390794 15.63245 8.2871094 15.396484 C 7.0949184 14.965109 5.4847437 14.057755 4.8710938 13.402344 C 4.8451537 13.374554 4.8233213 13.356631 4.8007812 13.332031 C 5.6799982 9.8297839 8.1470627 6.9594469 11.417969 5.5761719 C 12.102366 5.2866959 12.807974 5.089832 13.552734 4.9375 C 13.923702 4.86168 14.306418 4.8299586 14.689453 4.7910156 z M 25.365234 10.128906 C 25.632669 10.294215 26.643392 12.48124 26.931641 13.546875 C 27.303787 14.922614 27.276851 17.301314 26.931641 18.667969 C 26.800251 19.188125 26.630233 19.673811 26.574219 19.734375 C 26.518209 19.794935 26.313172 19.450797 26.074219 19.027344 C 25.83525 18.603958 25.075755 17.702527 24.441406 17.033203 C 22.610381 15.101101 22.320908 14.094716 23.087891 12.552734 C 23.474685 11.775162 25.158255 10.00117 25.365234 10.128906 z M 25 25 L 25 25.566406 L 25.603516 26.169922 C 25.798005 25.986209 25.986209 25.798005 26.169922 25.603516 L 25.566406 25 L 25 25 z"/>
  <path style="fill:#f44336" d="m 24,24 v 1.979687 L 25.520313,27.5 24,29.020314 V 31 h 1.979687 L 27.5,29.479687 29.020314,31 H 31 V 29.020314 L 29.479687,27.5 31,25.979687 V 24 H 29.020314 L 27.5,25.520313 25.979687,24 Z"/>
 </g>
</svg>
