<svg xmlns="http://www.w3.org/2000/svg" width="32" height="32" version="1.1">
 <g id="22-22-onboard" transform="translate(32,-288.53)">
  <rect style="opacity:0.001" width="22" height="22" x="0" y="298.53"/>
  <path style="fill:#d3dae3" d="m 5.2851562,301.53332 c -1.2662857,0 -2.2851561,1.01887 -2.2851561,2.28516 v 11.42968 c 0,1.26629 1.0188705,2.28516 2.2851561,2.28516 H 16.714844 C 17.981129,317.53332 19,316.51445 19,315.24816 v -11.42968 c 0,-1.26629 -1.018871,-2.28516 -2.285156,-2.28516 z m 2.2167969,2 c 0.7813261,0 1.3913201,0.22266 1.8339845,0.66602 C 9.7788026,304.64259 10,305.25221 10,306.03332 c 0,0.77903 -0.2211974,1.39073 -0.6640624,1.83398 -0.4426644,0.44306 -1.0526583,0.66602 -1.8339845,0.66602 -0.7792221,0 -1.3929214,-0.22296 -1.8378905,-0.66602 -0.4427648,-0.44325 -0.6640625,-1.05495 -0.6640625,-1.83398 0,-0.78111 0.2212977,-1.39073 0.6640625,-1.83398 0.4449691,-0.44336 1.0586684,-0.66602 1.8378905,-0.66602 z m 0,0.90039 c -0.3820461,0 -0.6781606,0.14018 -0.8886719,0.41992 -0.2106114,0.27974 -0.3183594,0.67186 -0.3183593,1.17969 0,0.50574 0.1077479,0.89995 0.3183593,1.17969 0.2105112,0.27974 0.5066257,0.41992 0.8886719,0.41992 0.3841502,0 0.6801138,-0.14018 0.8906251,-0.41992 0.2105112,-0.27974 0.3164062,-0.67395 0.3164062,-1.17969 0,-0.50783 -0.1058951,-0.89995 -0.3164062,-1.17969 -0.2105113,-0.27974 -0.5064748,-0.41992 -0.8906251,-0.41992 z M 13,310.53332 h 1.880859 c 0.674989,0 1.163403,0.10421 1.464844,0.31445 0.304446,0.21024 0.455078,0.54508 0.455078,1.00782 0,0.24322 -0.05485,0.45289 -0.166015,0.625 -0.110161,0.17004 -0.272114,0.2945 -0.482422,0.37695 0.269395,0.0804 0.479738,0.22889 0.626953,0.44531 C 16.926514,313.51928 17,313.78539 17,314.09973 c 0,0.48231 -0.158146,0.84407 -0.474609,1.08007 -0.316464,0.23704 -0.799367,0.35352 -1.445313,0.35352 H 13 Z m 1.253906,0.87695 v 1.0586 h 0.691406 c 0.197292,0 0.347069,-0.0451 0.449219,-0.13477 0.102143,-0.0886 0.154297,-0.22036 0.154297,-0.39453 0,-0.17211 -0.05215,-0.30395 -0.154297,-0.39258 -0.10215,-0.0917 -0.251928,-0.13672 -0.449219,-0.13672 z m -0.002,1.9375 v 1.3086 h 0.734375 c 0.251368,0 0.443174,-0.0548 0.56836,-0.16407 0.128186,-0.10924 0.191406,-0.27554 0.191406,-0.49609 0,-0.21642 -0.06131,-0.37914 -0.1875,-0.48633 -0.126184,-0.10924 -0.318895,-0.16211 -0.572266,-0.16211 z"/>
 </g>
 <g id="onboard">
  <rect style="opacity:0.001" width="32" height="32" x="0" y="0"/>
  <path style="fill:#d3dae3" d="M 7.4277344 4 C 5.5283059 4 4 5.5282994 4 7.4277344 L 4 24.572266 C 4 26.471701 5.528306 28 7.4277344 28 L 24.572266 28 C 26.471694 28 28 26.471701 28 24.572266 L 28 7.4277344 C 28 5.5282994 26.471694 4 24.572266 4 L 7.4277344 4 z M 11.003906 7 C 12.254028 7 13.229236 7.3570303 13.9375 8.0664062 C 14.646083 8.7756064 15 9.7502249 15 11 C 15 12.246449 14.646083 13.224394 13.9375 13.933594 C 13.229236 14.64249 12.254028 15 11.003906 15 C 9.7571513 15 8.7744506 14.64249 8.0625 13.933594 C 7.3540763 13.224394 7 12.246449 7 11 C 7 9.7502249 7.3540763 8.7756063 8.0625 8.0664062 C 8.7744505 7.3570303 9.7571514 7 11.003906 7 z M 11.003906 8.4394531 C 10.392632 8.4394531 9.9188498 8.6656971 9.5820312 9.1132812 C 9.245053 9.5608653 9.0703125 10.187473 9.0703125 11 C 9.0703125 11.809184 9.2450532 12.439136 9.5820312 12.886719 C 9.9188498 13.334304 10.392632 13.560547 11.003906 13.560547 C 11.618546 13.560547 12.090916 13.334304 12.427734 12.886719 C 12.764552 12.439136 12.935547 11.809184 12.935547 11 C 12.935547 10.187473 12.764552 9.5608654 12.427734 9.1132812 C 12.090916 8.6656971 11.618546 8.4394531 11.003906 8.4394531 z M 18 17 L 21.007812 17 C 22.087795 17 22.869259 17.165568 23.351562 17.501953 C 23.838679 17.838337 24.082031 18.376804 24.082031 19.117188 C 24.082031 19.506339 23.994274 19.841811 23.816406 20.117188 C 23.640146 20.389252 23.379462 20.58683 23.042969 20.71875 C 23.474002 20.847389 23.809379 21.085369 24.044922 21.431641 C 24.280469 21.777929 24.400391 22.204087 24.400391 22.707031 C 24.400391 23.478727 24.148919 24.055994 23.642578 24.433594 C 23.136235 24.812857 22.359685 25 21.326172 25 L 18 25 L 18 17 z M 20.005859 18.402344 L 20.005859 20.097656 L 21.113281 20.097656 C 21.428948 20.097656 21.668591 20.024331 21.832031 19.880859 C 21.995465 19.739099 22.076172 19.528672 22.076172 19.25 C 22.076172 18.974624 21.995472 18.762903 21.832031 18.621094 C 21.668591 18.474374 21.428947 18.402344 21.113281 18.402344 L 20.005859 18.402344 z M 20.001953 21.501953 L 20.001953 23.597656 L 21.177734 23.597656 C 21.579923 23.597656 21.887593 23.508816 22.087891 23.333984 C 22.292988 23.159199 22.394531 22.891942 22.394531 22.539062 C 22.394531 22.192792 22.295649 21.933223 22.09375 21.761719 C 21.891856 21.586932 21.583128 21.501953 21.177734 21.501953 L 20.001953 21.501953 z"/>
 </g>
</svg>
