<svg xmlns="http://www.w3.org/2000/svg" width="64" height="64" version="1.1">
 <g id="osd-shutd-screen" transform="translate(128)">
  <rect style="opacity:0.001" width="64" height="64" x="0" y="0"/>
  <g transform="translate(13,-28)">
   <path style="opacity:0.3;fill:#d3dae3" transform="translate(-141,28)" d="M 147 4 C 145.892 4 145 4.892 145 6 L 145 30 C 145 31.108 145.892 32 147 32 L 171.35547 32 A 10 10 0 0 1 170.21289 29 L 148 29 L 148 7 L 182 7 L 182 17.203125 A 10 10 0 0 1 185 18.349609 L 185 6 C 185 4.892 184.108 4 183 4 L 147 4 z"/>
  </g>
  <g transform="translate(20,-5)">
   <path style="fill:#f44336" transform="translate(-148,5)" d="M 180 19 A 8 8 0 0 0 172 27 A 8 8 0 0 0 180 35 A 8 8 0 0 0 188 27 A 8 8 0 0 0 180 19 z M 182.99023 22.986328 A 1.0001 1.0001 0 0 1 183.70703 24.707031 L 181.41406 27 L 183.70703 29.292969 A 1.0001 1.0001 0 1 1 182.29297 30.707031 L 180 28.414062 L 177.70703 30.707031 A 1.0001 1.0001 0 1 1 176.29297 29.292969 L 178.58594 27 L 176.29297 24.707031 A 1.0001 1.0001 0 0 1 176.99023 22.990234 A 1.0001 1.0001 0 0 1 177.70703 23.292969 L 180 25.585938 L 182.29297 23.292969 A 1.0001 1.0001 0 0 1 182.99023 22.986328 z"/>
  </g>
  <g transform="translate(0,-3)">
   <path style="fill:#d3dae3" transform="translate(-128,3)" d="M 134 29 C 132.892 29 132 29.892 132 31 L 132 55 C 132 56.108 132.892 57 134 57 L 158.35547 57 A 10 10 0 0 1 157.21289 54 L 135 54 L 135 32 L 169 32 L 169 42.203125 A 10 10 0 0 1 172 43.349609 L 172 31 C 172 29.892 171.108 29 170 29 L 134 29 z"/>
  </g>
  <g transform="translate(7,20)">
   <path style="fill:#4caf50" transform="translate(-135,-20)" d="M 167 44 A 8 8 0 0 0 159 52 A 8 8 0 0 0 167 60 A 8 8 0 0 0 175 52 A 8 8 0 0 0 167 44 z M 170.96484 46.988281 A 1.0001 1.0001 0 0 1 171.8418 48.541016 L 167.3418 55.541016 A 1.0001 1.0001 0 0 1 165.73242 55.640625 L 163.23242 52.640625 A 1.0001 1.0001 0 1 1 164.76758 51.359375 L 166.39453 53.3125 L 170.1582 47.458984 A 1.0001 1.0001 0 0 1 170.96484 46.988281 z"/>
  </g>
 </g>
 <g id="osd-shutd-laptop" transform="translate(64)">
  <rect style="opacity:0.001" width="64" height="64" x="0" y="0"/>
  <g transform="translate(13,-28)">
   <path style="opacity:0.3;fill:#d3dae3" transform="translate(-77,28)" d="M 83 4 C 81.892 4 81 4.892 81 6 L 81 30 C 81 31.108 81.892 32 83 32 L 107.35547 32 A 10 10 0 0 1 106.21289 29 L 84 29 L 84 7 L 118 7 L 118 17.203125 A 10 10 0 0 1 121 18.349609 L 121 6 C 121 4.892 120.108 4 119 4 L 83 4 z"/>
  </g>
  <g transform="translate(0,-3)">
   <path style="fill:#d3dae3" transform="translate(-64,3)" d="M 70 29 C 68.892 29 68 29.892 68 31 L 68 55 C 68 56.108 68.892 57 70 57 L 94.355469 57 A 10 10 0 0 1 93.212891 54 L 71 54 L 71 32 L 105 32 L 105 42.203125 A 10 10 0 0 1 108 43.349609 L 108 31 C 108 29.892 107.108 29 106 29 L 70 29 z"/>
  </g>
  <g transform="translate(13,-25)">
   <g transform="translate(7,20)">
    <path style="fill:#4caf50" transform="translate(-84,5)" d="M 116 19 A 8 8 0 0 0 108 27 A 8 8 0 0 0 116 35 A 8 8 0 0 0 124 27 A 8 8 0 0 0 116 19 z M 119.96484 21.988281 A 1.0001 1.0001 0 0 1 120.8418 23.541016 L 116.3418 30.541016 A 1.0001 1.0001 0 0 1 114.73242 30.640625 L 112.23242 27.640625 A 1.0001 1.0001 0 1 1 113.76758 26.359375 L 115.39453 28.3125 L 119.1582 22.458984 A 1.0001 1.0001 0 0 1 119.96484 21.988281 z"/>
   </g>
  </g>
  <g transform="translate(-13,25)">
   <g transform="translate(20,-5)">
    <path style="fill:#f44336" transform="translate(-71,-20)" d="M 103 44 A 8 8 0 0 0 95 52 A 8 8 0 0 0 103 60 A 8 8 0 0 0 111 52 A 8 8 0 0 0 103 44 z M 105.99023 47.986328 A 1.0001 1.0001 0 0 1 106.70703 49.707031 L 104.41406 52 L 106.70703 54.292969 A 1.0001 1.0001 0 1 1 105.29297 55.707031 L 103 53.414062 L 100.70703 55.707031 A 1.0001 1.0001 0 1 1 99.292969 54.292969 L 101.58594 52 L 99.292969 49.707031 A 1.0001 1.0001 0 0 1 99.990234 47.990234 A 1.0001 1.0001 0 0 1 100.70703 48.292969 L 103 50.585938 L 105.29297 48.292969 A 1.0001 1.0001 0 0 1 105.99023 47.986328 z"/>
   </g>
  </g>
 </g>
 <g id="osd-duplicate">
  <rect style="opacity:0.001" width="64" height="64" x="0" y="0"/>
  <g transform="translate(13,-28)">
   <path style="opacity:0.3;fill:#d3dae3" transform="translate(-13,28)" d="M 19 4 C 17.892 4 17 4.892 17 6 L 17 30 C 17 31.108 17.892 32 19 32 L 43.355469 32 A 10 10 0 0 1 42.212891 29 L 20 29 L 20 7 L 54 7 L 54 17.203125 A 10 10 0 0 1 57 18.349609 L 57 6 C 57 4.892 56.108 4 55 4 L 19 4 z"/>
  </g>
  <g transform="translate(0,-3)">
   <path style="fill:#d3dae3" transform="translate(0,3)" d="M 6 29 C 4.892 29 4 29.892 4 31 L 4 55 C 4 56.108 4.892 57 6 57 L 30.355469 57 A 10 10 0 0 1 29.212891 54 L 7 54 L 7 32 L 41 32 L 41 42.203125 A 10 10 0 0 1 44 43.349609 L 44 31 C 44 29.892 43.108 29 42 29 L 6 29 z"/>
  </g>
  <g transform="translate(13,-25)">
   <g transform="translate(7,20)">
    <path style="fill:#4caf50" transform="translate(-20,5)" d="M 52 19 A 8 8 0 0 0 44 27 A 8 8 0 0 0 52 35 A 8 8 0 0 0 60 27 A 8 8 0 0 0 52 19 z M 55.964844 21.988281 A 1.0001 1.0001 0 0 1 56.841797 23.541016 L 52.341797 30.541016 A 1.0001 1.0001 0 0 1 50.732422 30.640625 L 48.232422 27.640625 A 1.0001 1.0001 0 1 1 49.767578 26.359375 L 51.394531 28.3125 L 55.158203 22.458984 A 1.0001 1.0001 0 0 1 55.964844 21.988281 z"/>
   </g>
  </g>
  <g>
   <g transform="translate(7,20)">
    <path style="fill:#4caf50" transform="translate(-7,-20)" d="M 39 44 A 8 8 0 0 0 31 52 A 8 8 0 0 0 39 60 A 8 8 0 0 0 47 52 A 8 8 0 0 0 39 44 z M 42.964844 46.988281 A 1.0001 1.0001 0 0 1 43.841797 48.541016 L 39.341797 55.541016 A 1.0001 1.0001 0 0 1 37.732422 55.640625 L 35.232422 52.640625 A 1.0001 1.0001 0 1 1 36.767578 51.359375 L 38.394531 53.3125 L 42.158203 47.458984 A 1.0001 1.0001 0 0 1 42.964844 46.988281 z"/>
   </g>
  </g>
 </g>
 <g id="osd-rotate-normal" transform="translate(512)">
  <rect style="opacity:0.001" width="64" height="64" x="0" y="0"/>
  <path style="fill:#d3dae3" transform="translate(-512)" d="M 518.80078 12 C 517.24958 12 516 13.241712 516 14.785156 L 516 48.214844 C 516 49.758288 517.24958 51 518.80078 51 L 569.19922 51 C 570.75042 51 572 49.758288 572 48.214844 L 572 14.785156 C 572 13.241712 570.75042 12 569.19922 12 L 518.80078 12 z M 520 16 L 568 16 L 568 47 L 520 47 L 520 16 z"/>
 </g>
 <g id="osd-sbs-left" transform="translate(192)">
  <rect style="opacity:0.001" width="64" height="64" x="-64" y="0" transform="scale(-1,1)"/>
  <path style="fill:#d3dae3" transform="translate(-192)" d="M 229 12 L 229 16 L 248 16 L 248 47 L 229 47 L 229 51 L 249.19922 51 C 250.75042 51 252 49.758129 252 48.214844 L 252 14.785156 C 252 13.241871 250.75042 12 249.19922 12 L 229 12 z"/>
  <path style="opacity:0.3;fill:#d3dae3" transform="translate(-192)" d="M 198.80078 12 C 197.24958 12 196 13.241871 196 14.785156 L 196 48.214844 C 196 49.758129 197.24958 51 198.80078 51 L 219 51 L 219 47 L 200 47 L 200 16 L 219 16 L 219 12 L 198.80078 12 z"/>
  <rect style="fill:#ff9800" width="6" height="49" x="-35" y="7" rx="3" ry="3" transform="scale(-1,1)"/>
 </g>
 <g id="osd-sbs-sright" transform="matrix(-1,0,0,1,320,0)">
  <rect style="opacity:0.001" width="64" height="64" x="-64" y="0" transform="scale(-1,1)"/>
  <path style="fill:#d3dae3" transform="matrix(-1,0,0,1,320,0)" d="M 262.80078 12 C 261.24958 12 260 13.241871 260 14.785156 L 260 48.214844 C 260 49.758129 261.24958 51 262.80078 51 L 283 51 L 283 47 L 264 47 L 264 16 L 283 16 L 283 12 L 262.80078 12 z"/>
  <path style="opacity:0.3;fill:#d3dae3" transform="matrix(-1,0,0,1,320,0)" d="M 293 12 L 293 16 L 312 16 L 312 47 L 293 47 L 293 51 L 313.19922 51 C 314.75042 51 316 49.758129 316 48.214844 L 316 14.785156 C 316 13.241871 314.75042 12 313.19922 12 L 293 12 z"/>
  <rect style="fill:#ff9800" width="6" height="49" x="-35" y="7" rx="3" ry="3" transform="scale(-1,1)"/>
 </g>
 <g id="osd-rotate-flip" transform="translate(448)">
  <rect style="opacity:0.001" width="64" height="64" x="0" y="0"/>
  <path style="fill:#d3dae3" transform="translate(-448)" d="M 454.80078 12 C 453.24958 12 452 13.241712 452 14.785156 L 452 48.214844 C 452 49.758288 453.24958 51 454.80078 51 L 479.4375 51 A 18 18 0 0 1 478.25391 47 L 456 47 L 456 16 L 504 16 L 504 27.900391 A 18 18 0 0 1 508 30.609375 L 508 14.785156 C 508 13.241712 506.75042 12 505.19922 12 L 454.80078 12 z"/>
  <g>
   <path style="fill:#4285f4" transform="translate(-448)" d="M 496 28 A 16 16 0 0 0 480 44 A 16 16 0 0 0 496 60 A 16 16 0 0 0 512 44 A 16 16 0 0 0 496 28 z M 495.97852 32.001953 A 0.85192496 0.87369317 82.468787 0 1 496.47656 32.125 A 0.85192496 0.87369317 82.468787 0 1 496.67773 32.291016 A 0.85192496 0.87369317 82.468787 0 1 496.77344 32.425781 L 498.32617 35.060547 L 499.88477 37.699219 A 0.85192496 0.87369317 82.468787 0 1 499.125 38.980469 L 498 38.984375 L 498 49.015625 L 499.125 49.019531 A 0.87369317 0.85192496 7.531213 0 1 499.88477 50.300781 L 498.32617 52.939453 L 496.77344 55.574219 A 0.87369317 0.85192496 7.531213 0 1 496.67773 55.708984 A 0.87369317 0.85192496 7.531213 0 1 496.47656 55.875 A 0.87369317 0.85192496 7.531213 0 1 495.26367 55.570312 L 493.6875 52.923828 L 492.11719 50.273438 A 0.87369317 0.85192496 7.531213 0 1 492.87109 49 L 494 49.003906 L 494 38.996094 L 492.87109 39 A 0.85192496 0.87369317 82.468787 0 1 492.11719 37.726562 L 493.6875 35.076172 L 495.26367 32.429688 A 0.85192496 0.87369317 82.468787 0 1 495.97852 32.001953 z"/>
  </g>
 </g>
 <g id="osd-rotate-cw" transform="translate(384)">
  <rect style="opacity:0.001" width="64" height="64" x="0" y="0"/>
  <path style="fill:#d3dae3" transform="translate(-384)" d="M 390.80078 12 C 389.24958 12 388 13.241712 388 14.785156 L 388 48.214844 C 388 49.758288 389.24958 51 390.80078 51 L 415.4375 51 A 18 18 0 0 1 414.25391 47 L 392 47 L 392 16 L 440 16 L 440 27.900391 A 18 18 0 0 1 444 30.609375 L 444 14.785156 C 444 13.241712 442.75042 12 441.19922 12 L 390.80078 12 z"/>
  <g transform="matrix(-1,0,0,1,96,0)">
   <path style="fill:#4285f4" transform="matrix(-1,0,0,1,480,0)" d="M 432 28 A 16 16 0 0 0 416 44 A 16 16 0 0 0 432 60 A 16 16 0 0 0 448 44 A 16 16 0 0 0 432 28 z M 431.65234 34.005859 C 431.92421 33.99659 432.19478 33.998814 432.46484 34.011719 C 434.95362 34.130634 437.32798 35.187253 439.09766 36.970703 L 440.5332 36.134766 A 0.97504568 0.98245658 0 0 1 440.70508 36.054688 A 0.97504568 0.98245658 0 0 1 440.99414 36 A 0.97504568 0.98245658 0 0 1 441.99609 36.982422 L 442 40.501953 L 441.99609 44.019531 A 0.97504568 0.98245658 0 0 1 440.5332 44.869141 L 437.51367 43.111328 L 434.48633 41.349609 A 0.97504568 0.98245658 0 0 1 434.48633 39.650391 L 435.43359 39.099609 C 433.97883 38.077621 432.11753 37.715575 430.32227 38.238281 C 427.71575 38.99719 425.9542 41.387197 426 44.101562 C 426.0458 46.815929 427.88694 49.143912 430.51758 49.814453 A 2.0002 2.0002 0 1 1 429.5293 53.689453 C 425.16944 52.578139 422.07786 48.666595 422.00195 44.167969 C 421.92605 39.669343 424.88519 35.656207 429.20508 34.398438 C 430.01506 34.162608 430.83674 34.033668 431.65234 34.005859 z"/>
  </g>
 </g>
 <g id="osd-rotate-ccw" transform="translate(320)">
  <rect style="opacity:0.001" width="64" height="64" x="0" y="0"/>
  <path style="fill:#d3dae3" transform="translate(-320)" d="M 326.80078 12 C 325.24958 12 324 13.241712 324 14.785156 L 324 48.214844 C 324 49.758288 325.24958 51 326.80078 51 L 351.4375 51 A 18 18 0 0 1 350.25391 47 L 328 47 L 328 16 L 376 16 L 376 27.900391 A 18 18 0 0 1 380 30.609375 L 380 14.785156 C 380 13.241712 378.75042 12 377.19922 12 L 326.80078 12 z"/>
  <g>
   <path style="fill:#4285f4" transform="translate(-320)" d="M 368 28 A 16 16 0 0 0 352 44 A 16 16 0 0 0 368 60 A 16 16 0 0 0 384 44 A 16 16 0 0 0 368 28 z M 368.34766 34.005859 C 369.16326 34.033668 369.98494 34.162608 370.79492 34.398438 C 375.11481 35.656207 378.07395 39.669343 377.99805 44.167969 C 377.92214 48.666595 374.83056 52.578139 370.4707 53.689453 A 2.0002 2.0002 0 1 1 369.48242 49.814453 C 372.11306 49.143912 373.9542 46.815929 374 44.101562 C 374.0458 41.387197 372.28425 38.99719 369.67773 38.238281 C 367.88247 37.715575 366.02117 38.077621 364.56641 39.099609 L 365.51367 39.650391 A 0.97504568 0.98245658 0 0 1 365.51367 41.349609 L 362.48633 43.111328 L 359.4668 44.869141 A 0.97504568 0.98245658 0 0 1 358.00391 44.019531 L 358 40.501953 L 358.00391 36.982422 A 0.97504568 0.98245658 0 0 1 359.00586 36 A 0.97504568 0.98245658 0 0 1 359.29492 36.054688 A 0.97504568 0.98245658 0 0 1 359.4668 36.134766 L 360.90234 36.970703 C 362.67202 35.187253 365.04638 34.130634 367.53516 34.011719 C 367.80522 33.998814 368.07579 33.99659 368.34766 34.005859 z"/>
  </g>
 </g>
</svg>
