<svg xmlns="http://www.w3.org/2000/svg" width="32" height="32" version="1">
 <g id="22-22-plasma-browser-integration" transform="translate(27,5)">
  <rect style="opacity:0.001" width="22" height="22" x="5" y="5"/>
  <path style="fill:#d3dae3" d="m 11,7 c -0.554,0 -1,0.446 -1,1 0,0.554 0.446,1 1,1 0.554,0 1,-0.446 1,-1 C 12,7.446 11.554,7 11,7 Z M 17.285156,7 15,9.201172 18.427734,12.5 15,15.798828 17.285156,18 20.714844,14.701172 23,12.5 20.714844,10.298828 Z M 8.5,13 C 7.669006,13 7,13.668994 7,14.5 7,15.330994 7.669006,16 8.5,16 9.331006,16 10,15.330994 10,14.5 10,13.668994 9.331006,13 8.5,13 Z M 21,17 c -2.209143,0 -4,1.790857 -4,4 0,2.209142 1.790857,4 4,4 2.209142,0 4,-1.790858 4,-4 0,-2.209143 -1.790858,-4 -4,-4 z m -0.375,0.796875 c 0.04352,-0.0046 0.09866,0.0026 0.142578,0 0.0052,0.02082 -0.03044,0.09667 -0.08008,0.205078 -0.316086,0.690515 -0.334367,1.499402 -0.04102,1.931641 0.05309,0.07837 0.101563,0.152417 0.101563,0.162109 0,0.0097 -0.05831,0.01953 -0.123047,0.01953 -0.15196,1e-6 -0.296027,-0.09156 -0.589844,-0.324218 -0.130526,-0.103357 -0.299493,-0.189985 -0.365234,-0.203125 -0.103232,-0.02063 -0.130123,-0.01246 -0.263672,0.121093 -0.124254,0.124234 -0.162109,0.192908 -0.162109,0.306641 0,0.431289 0.511159,0.772866 1.46289,0.974609 1.29249,0.273935 1.610834,0.519581 1.646485,1.199219 0.04476,0.852247 -0.408533,1.494696 -1.402344,1.992188 -0.118619,0.0594 -0.194372,0.08237 -0.244141,0.101562 -0.02205,-0.0019 -0.03856,0.0019 -0.06055,0 -0.0084,-0.02634 -0.02148,-0.0873 -0.02148,-0.203125 0,-0.452654 -0.176465,-0.919134 -0.445312,-1.179687 -0.07216,-0.06995 -0.274229,-0.217103 -0.447266,-0.324219 -0.173034,-0.10711 -0.347815,-0.232069 -0.386719,-0.285156 -0.06446,-0.08809 -0.06906,-0.141948 -0.01953,-0.304688 0.09028,-0.297225 0.197365,-0.46259 0.40625,-0.65039 0.109511,-0.09846 0.219881,-0.181633 0.24414,-0.183594 0.02426,-0.0019 -0.140412,-0.05118 -0.386718,-0.101563 -0.246293,-0.05049 -0.606692,-0.155238 -0.792969,-0.222656 -0.340627,-0.123251 -0.801233,-0.383054 -0.976563,-0.570313 -0.0074,-0.008 -0.01308,-0.01249 -0.01953,-0.01953 0.251204,-1.000641 0.956081,-1.821576 1.890625,-2.216797 0.195542,-0.08271 0.396587,-0.138116 0.609375,-0.18164 0.105992,-0.02167 0.214779,-0.03184 0.324219,-0.04297 z M 13,19 c -1.108,0 -2,0.892 -2,2 0,1.108 0.892,2 2,2 1.108,0 2,-0.892 2,-2 0,-1.108 -0.892,-2 -2,-2 z m 10.675781,0.322266 c 0.07641,0.04723 0.364909,0.672095 0.447266,0.976562 0.106327,0.393069 0.09863,1.072418 0,1.462891 -0.03754,0.148616 -0.08556,0.287383 -0.101563,0.304687 -0.016,0.01731 -0.07431,-0.08018 -0.142578,-0.201172 -0.06828,-0.120967 -0.285553,-0.379077 -0.466797,-0.570312 -0.523149,-0.552029 -0.605857,-0.838731 -0.386718,-1.279297 0.110513,-0.222163 0.591254,-0.729856 0.65039,-0.693359 z"/>
 </g>
 <g id="plasma-browser-integration">
  <rect style="opacity:0.001" width="32" height="32" x="0" y="0"/>
  <path style="fill:#d3dae3" d="M 8.5 2 C 7.669 2 7 2.669 7 3.5 C 7 4.331 7.669 5 8.5 5 C 9.3310001 5 10 4.331 10 3.5 C 10 2.669 9.3310001 2 8.5 2 z M 17.427734 2 L 14 5.4023438 L 19.142578 10.5 L 14 15.597656 L 17.427734 19 L 22.572266 13.902344 L 26 10.5 L 22.572266 7.0976562 L 17.427734 2 z M 4.5 11 C 3.11501 11 2 12.11499 2 13.5 C 2 14.884989 3.11501 16 4.5 16 C 5.88501 16 7 14.884989 7 13.5 C 7 12.11499 5.8850101 11 4.5 11 z M 24 18 C 20.686516 18 18 20.686515 18 24 C 18 27.313481 20.686516 30 24 30 C 27.313482 30 30 27.313481 30 24 C 30 20.686515 27.313482 17.999999 24 18 z M 23.439453 19.195312 C 23.504733 19.188412 23.586471 19.199313 23.652344 19.195312 C 23.660144 19.226533 23.605707 19.339352 23.53125 19.501953 C 23.057154 20.537653 23.0307 21.752078 23.470703 22.400391 C 23.550333 22.517938 23.623047 22.629994 23.623047 22.644531 C 23.623047 22.659081 23.536561 22.673828 23.439453 22.673828 C 23.21153 22.673829 22.993429 22.534509 22.552734 22.185547 C 22.356959 22.030522 22.104463 21.902521 22.005859 21.882812 C 21.851021 21.851872 21.809685 21.864142 21.609375 22.064453 C 21.423007 22.250791 21.367188 22.352851 21.367188 22.523438 C 21.367188 23.170327 22.133051 23.681782 23.560547 23.984375 C 25.499148 24.39525 25.975825 24.765769 26.029297 25.785156 C 26.096437 27.063437 25.416394 28.025297 23.925781 28.771484 C 23.747864 28.860574 23.635195 28.895043 23.560547 28.923828 C 23.527477 28.920928 23.503683 28.926728 23.470703 28.923828 C 23.458103 28.884328 23.439453 28.792865 23.439453 28.619141 C 23.439453 27.940207 23.172773 27.242365 22.769531 26.851562 C 22.661299 26.746645 22.359146 26.525897 22.099609 26.365234 C 21.840076 26.204581 21.577883 26.015173 21.519531 25.935547 C 21.422851 25.803423 21.415942 25.724562 21.490234 25.480469 C 21.625644 25.034662 21.786303 24.785587 22.099609 24.503906 C 22.263864 24.356227 22.428458 24.233411 22.464844 24.230469 C 22.501234 24.227569 22.254198 24.153697 21.884766 24.078125 C 21.515351 24.002395 20.976661 23.843309 20.697266 23.742188 C 20.186362 23.557325 19.495398 23.16759 19.232422 22.886719 C 19.221322 22.874719 19.210842 22.869935 19.201172 22.859375 C 19.577951 21.358518 20.635391 20.125993 22.037109 19.533203 C 22.330401 19.409147 22.632013 19.325048 22.951172 19.259766 C 23.110149 19.227266 23.275304 19.212003 23.439453 19.195312 z M 11 21 C 9.3380001 21 8 22.337999 8 24 C 8 25.661999 9.3380001 27 11 27 C 12.662 27 14 25.661999 14 24 C 14 22.337999 12.662 21 11 21 z M 28.013672 21.484375 C 28.128279 21.555215 28.562021 22.492551 28.685547 22.949219 C 28.845028 23.538782 28.833482 24.55691 28.685547 25.142578 C 28.629247 25.365487 28.557206 25.575608 28.533203 25.601562 C 28.509203 25.627533 28.420753 25.47835 28.318359 25.296875 C 28.215942 25.115437 27.889034 24.730192 27.617188 24.443359 C 26.832518 23.615374 26.708424 23.184242 27.037109 22.523438 C 27.202867 22.190217 27.924975 21.429634 28.013672 21.484375 z"/>
 </g>
</svg>
