<svg xmlns="http://www.w3.org/2000/svg" width="32" height="32" version="1.1">
 <g id="22-22-plasmavault_error" transform="translate(32,10)">
  <rect style="opacity:0.001" width="22" height="22" x="0" y="0"/>
  <path style="fill:#f44336" d="M 4.1425781,3 C 4.1425781,3 3,3.04269 3,4.1855469 V 16.857422 C 3,16.857422 2.9997211,18 4.1425781,18 H 17.857422 C 17.857422,18 19,18.000279 19,16.857422 V 6.171875 C 19,5.0290177 17.857422,5 17.857422,5 H 12.142578 L 9.8574219,3 Z M 10,6 h 2 v 7 h -2 z m 1,8 a 1,1 0 0 1 1,1 1,1 0 0 1 -1,1 1,1 0 0 1 -1,-1 1,1 0 0 1 1,-1 z"/>
 </g>
 <g id="plasmavault_error">
  <rect style="opacity:0.001" width="32" height="32" x="0" y="0"/>
  <path style="fill:#f44336" d="M 4,3 C 4,3 2,3 2,5 V 27 C 2,27 2,29 4,29 H 28 C 28,29 30,29 30,27 V 9 C 30,7 28,7 28,7 H 18 L 14,3 Z M 15,10 H 18 V 21 H 15 Z M 16.5,23 C 17.328,23 18,23.672 18,24.5 18,25.328 17.328,26 16.5,26 15.672,26 15,25.328 15,24.5 15,23.672 15.672,23 16.5,23 Z"/>
 </g>
</svg>
