<svg xmlns="http://www.w3.org/2000/svg" id="svg" width="100%" height="100%" version="1.1" viewBox="0 0 22 22">
 <g id="preferences-desktop-notification" transform="translate(22,-39.787798)">
  <rect width="22" height="22" x="0" y="40" style="opacity:0;fill-opacity:0.94117647"/>
  <path d="m 11,43 c -4.418278,0 -8,3.581722 -8,8 0,4.418278 3.581722,8 8,8 4.418278,0 8,-3.581722 8,-8 0,-4.418278 -3.581722,-8 -8,-8 z" style="fill:#5294e2"/>
  <path d="m 10,47 0,6 2,0 0,-6 -2,0 z m 1,7 c -0.453152,0 -1,0.518427 -1,0.980469 C 10,55.442512 10.546848,56 11,56 11.453152,56 12,55.442512 12,54.980469 12,54.518427 11.453152,54 11,54 Z" style="fill:#d3dae3"/>
 </g>
 <g id="preferences-desktop-display-randr" transform="translate(33,0)">
  <rect width="22" height="22" x="-33" y="0" style="opacity:0.00100002"/>
  <path d="M 3.8574219,2 C 2.2745649,2 1,3.2495813 1,4.8007812 L 1,13.199219 C 1,14.750419 2.2745649,16 3.8574219,16 L 7,16 l 0,3 -3,0 0,1 14,0 0,-1 -3,0 0,-3 3.142578,0 C 19.725435,16 21,14.750419 21,13.199219 L 21,4.8007812 C 21,3.2495813 19.725435,2 18.142578,2 L 3.8574219,2 Z M 5.2851562,5 16.714844,5 C 17.506273,5 18,5.4236187 18,6.1992188 l 0,5.6015622 c 0,0.775599 -0.493727,1.398438 -1.285156,1.398438 l -11.4296878,0 C 4.4937272,13.199219 4,12.57638 4,11.800781 L 4,6.1992188 C 4,5.4236186 4.4937272,5 5.2851562,5 Z" transform="translate(-33,1.5113048e-5)" style="fill:#d3dae3"/>
 </g>
 <g id="preferences-system-bluetooth-activated" transform="translate(44,-104)">
  <rect width="22" height="22" x="0" y="104" style="opacity:0"/>
  <path d="M 11.5,107 C 8.453,107 6,109.676 6,113 l 0,4 c 0,3.324 2.453,6 5.5,6 3.047,0 5.5,-2.676 5.5,-6 l 0,-4 c 0,-3.324 -2.453,-6 -5.5,-6 z m 7.5,0 a 2,2 0 0 0 -2,2 2,2 0 0 0 2,2 2,2 0 0 0 2,-2 2,2 0 0 0 -2,-2 z m -8,2 0.5,0 c 0.20775,0 0.39305,0.13292 0.46875,0.3125 l 2.875,2.84375 0.40625,0.375 -0.4375,0.34375 -2.5625,2.125 2.5625,2.125 0.4375,0.34375 -0.40625,0.375 -2.875,2.84375 c -0.0252,0.0599 -0.0798,0.11106 -0.125,0.15625 C 11.75335,120.93415 11.6385,121 11.5,121 l -0.5,0 0,-0.5 0,-4.4375 -2.15625,1.78125 C 8.75325,117.93425 8.63807,118 8.5,118 l -0.5,0 0,-0.5 c 0,-0.15322 0.079,-0.28328 0.1875,-0.375 L 10.75,115 8.3125,112.96875 C 8.2658,112.94905 8.2257,112.9072 8.1875,112.875 8.07896,112.7833 8,112.65322 8,112.5 l 0,-0.5 0.5,0 c 0.12292,0 0.22543,0.0514 0.3125,0.125 0.0107,0.009 0.02135,0.0213 0.03125,0.0312 L 11,113.9375 11,109.5 11,109 Z m 1,1.6875 0,3.25 1.78125,-1.46875 L 12,110.6875 Z m 0,5.375 0,3.25 1.78125,-1.78125 L 12,116.0625 Z" style="fill:#d3dae3"/>
 </g>
 <g id="preferences-system-bluetooth" transform="translate(10,-3.9e-6)">
  <rect width="22" height="22" x="56" y="0" style="opacity:0"/>
  <path d="M 67.5,3 C 64.453,3 62,5.676 62,9 l 0,4 c 0,3.324 2.453,6 5.5,6 3.047,0 5.5,-2.676 5.5,-6 L 73,9 C 73,5.676 70.547,3 67.5,3 Z M 67,5 67.5,5 c 0.20775,0 0.39305,0.13292 0.46875,0.3125 l 2.875,2.84375 L 71.25,8.53125 70.8125,8.875 68.25,11 l 2.5625,2.125 0.4375,0.34375 -0.40625,0.375 -2.875,2.84375 c -0.0252,0.0599 -0.0798,0.11106 -0.125,0.15625 C 67.75335,16.93415 67.6385,17 67.5,17 l -0.5,0 0,-0.5 0,-4.4375 -2.15625,1.78125 C 64.75325,13.93425 64.63807,14 64.5,14 l -0.5,0 0,-0.5 c 0,-0.15322 0.079,-0.28328 0.1875,-0.375 L 66.75,11 64.3125,8.96875 C 64.2658,8.94905 64.2257,8.90725 64.1875,8.87505 64.07896,8.78335 64,8.65327 64,8.50005 l 0,-0.5 0.5,0 c 0.12292,0 0.22543,0.0514 0.3125,0.125 0.0107,0.009 0.0213,0.0213 0.0312,0.0312 l 2.15625,1.78125 0,-4.4375 0,-0.5 z m 1,1.6875 0,3.25 L 69.78125,8.46875 68,6.6875 Z m 0,5.375 0,3.25 1.78125,-1.78125 L 68,12.0625 Z" style="fill:#d3dae3"/>
 </g>
 <g id="preferences-system-bluetooth-inactive" transform="translate(32,-3.9e-6)">
  <rect width="22" height="22" x="56" y="0" style="opacity:0"/>
  <path d="M 67.5,3 C 64.453,3 62,5.676 62,9 l 0,4 c 0,3.324 2.453,6 5.5,6 3.047,0 5.5,-2.676 5.5,-6 L 73,9 C 73,5.676 70.547,3 67.5,3 Z M 67,5 67.5,5 c 0.20775,0 0.39305,0.13292 0.46875,0.3125 l 2.875,2.84375 L 71.25,8.53125 70.8125,8.875 68.25,11 l 2.5625,2.125 0.4375,0.34375 -0.40625,0.375 -2.875,2.84375 c -0.0252,0.0599 -0.0798,0.11106 -0.125,0.15625 C 67.75335,16.93415 67.6385,17 67.5,17 l -0.5,0 0,-0.5 0,-4.4375 -2.15625,1.78125 C 64.75325,13.93425 64.63807,14 64.5,14 l -0.5,0 0,-0.5 c 0,-0.15322 0.079,-0.28328 0.1875,-0.375 L 66.75,11 64.3125,8.96875 C 64.2658,8.94905 64.2257,8.90725 64.1875,8.87505 64.07896,8.78335 64,8.65327 64,8.50005 l 0,-0.5 0.5,0 c 0.12292,0 0.22543,0.0514 0.3125,0.125 0.0107,0.009 0.0213,0.0213 0.0312,0.0312 l 2.15625,1.78125 0,-4.4375 0,-0.5 z m 1,1.6875 0,3.25 L 69.78125,8.46875 68,6.6875 Z m 0,5.375 0,3.25 1.78125,-1.78125 L 68,12.0625 Z" style="opacity:0.3;fill:#d3dae3"/>
 </g>
</svg>
