<svg xmlns="http://www.w3.org/2000/svg" xmlns:osb="http://www.openswatchbook.org/uri/2009/osb" width="22" height="22" version="1.1" style="enable-background:new">
 <defs>
  <linearGradient id="linearGradient5606" osb:paint="solid">
   <stop id="stop5608" offset="0" style="stop-color:#000000"/>
  </linearGradient>
 </defs>
 <g id="printer" transform="translate(-505.0006,125.00672)">
  <rect width="22" height="22" x="505" y="-125.01" style="opacity:0;fill:#2b0000;fill-opacity:0.40392157"/>
  <path d="M 6,3 6,6 16,6 16,3 6,3 Z M 3.2851562,7 C 2.6423062,7 2,7.5826756 2,8.1660156 L 2,12.833984 C 2,13.417324 2.6423062,14 3.2851562,14 L 5,14 l 0,-2 12,0 0,2 1.714844,0 C 19.357694,14 20,13.417324 20,12.833984 L 20,8.1660156 C 20,7.5826756 19.357694,7 18.714844,7 L 3.2851562,7 Z M 6,13 l 0,6 10,0 0,-6 -10,0 z" transform="translate(505.0006,-125.00672)" style="fill:#d3dae3"/>
 </g>
</svg>
