<?xml version="1.0" encoding="UTF-8" standalone="no"?>
<svg
   xmlns:osb="http://www.openswatchbook.org/uri/2009/osb"
   xmlns:dc="http://purl.org/dc/elements/1.1/"
   xmlns:cc="http://creativecommons.org/ns#"
   xmlns:rdf="http://www.w3.org/1999/02/22-rdf-syntax-ns#"
   xmlns:svg="http://www.w3.org/2000/svg"
   xmlns="http://www.w3.org/2000/svg"
   width="22"
   version="1.1"
   style="enable-background:new"
   id="svg7384"
   height="22">
  <metadata
     id="metadata90">
    <rdf:RDF>
      <cc:Work
         rdf:about="">
        <dc:format>
                    image/svg+xml
                </dc:format>
        <dc:type
           rdf:resource="http://purl.org/dc/dcmitype/StillImage" />
        <dc:title>
        Paper Symbolic Icon Theme
    </dc:title>
      </cc:Work>
    </rdf:RDF>
  </metadata>
  <title
     id="title8473">
        Paper Symbolic Icon Theme
    </title>
  <defs
     id="defs7386">
    <linearGradient
       osb:paint="solid"
       id="linearGradient5606">
      <stop
         style="stop-color:#000000;stop-opacity:1;"
         offset="0"
         id="stop5608" />
    </linearGradient>
  </defs>
  <g
     transform="translate(-504.00018,-200)"
     id="qbittorrent">
    <path
       id="rect4152"
       d="m 504.00018,200 22,0 0,22 -22,0 z"
       style="opacity:0;fill:#000000;fill-opacity:1;fill-rule:nonzero;stroke:none;stroke-width:1;stroke-linecap:round;stroke-linejoin:round;stroke-miterlimit:4;stroke-dasharray:none;stroke-dashoffset:0;stroke-opacity:1" />
    <path
       style="color:#000000;opacity:1;fill:#d3dae3;fill-opacity:1"
       d="m 515.00018,203 a 8,8 0 0 0 -8,8 8,8 0 0 0 8,8 8,8 0 0 0 8,-8 8,8 0 0 0 -8,-8 z m 1,2 1,0 0,4.50391 a 2.5,2.5 0 0 1 1.5,-0.50391 2.5,2.5 0 0 1 2.5,2.5 2.5,2.5 0 0 1 -2.5,2.5 2.5,2.5 0 0 1 -1.5,-0.50195 l 0,0.50195 -1,0 0,-2.5 0,-6.5 z m -4.5,4 a 2.5,2.5 0 0 1 1.5,0.50195 l 0,-0.50195 1,0 0,2.5 0,6.5 -1,0 0,-4.50391 a 2.5,2.5 0 0 1 -1.5,0.50391 2.5,2.5 0 0 1 -2.5,-2.5 2.5,2.5 0 0 1 2.5,-2.5 z m 0,1 a 1.5,1.5 0 0 0 -1.5,1.5 1.5,1.5 0 0 0 1.5,1.5 1.5,1.5 0 0 0 1.5,-1.5 1.5,1.5 0 0 0 -1.5,-1.5 z m 7,0 a 1.5,1.5 0 0 0 -1.5,1.5 1.5,1.5 0 0 0 1.5,1.5 1.5,1.5 0 0 0 1.5,-1.5 1.5,1.5 0 0 0 -1.5,-1.5 z"
       id="path4230" />
  </g>
</svg>
