<svg xmlns="http://www.w3.org/2000/svg" width="32" height="32" version="1.1">
 <g id="22-22-quassel" transform="translate(0,-22)">
  <rect style="opacity:0.001" width="22" height="22" x="0" y="0"/>
  <path style="fill:#d3dae3" d="m 11,3 c -4.418278,0 -8,3.581722 -8,8 0,4.418278 3.581722,8 8,8 4.418278,0 8,-3.581722 8,-8 0,-4.418278 -3.581722,-8 -8,-8 z m 0,2 c 3.313708,0 6,2.6862915 6,6 0,1.249675 -0.383439,2.410311 -1.037109,3.371094 C 15.978195,14.248303 16,14.126936 16,14 c 0,-1.656854 -1.343146,-3 -3,-3 -1.656854,0 -3,1.343146 -3,3 0,1.379197 0.935517,2.52824 2.203125,2.878906 C 11.814285,16.958084 11.412222,17 11,17 7.6862915,17 5,14.313708 5,11 5,7.6862915 7.6862915,5 11,5 Z"/>
 </g>
 <g id="22-22-quassel-inactive" transform="translate(64,-22)">
  <rect style="opacity:0.001" width="22" height="22" x="0" y="0"/>
  <path style="opacity:0.3;fill:#d3dae3" d="m 11,3 c -4.418278,0 -8,3.581722 -8,8 0,4.418278 3.581722,8 8,8 4.418278,0 8,-3.581722 8,-8 0,-4.418278 -3.581722,-8 -8,-8 z m 0,2 c 3.313708,0 6,2.6862915 6,6 0,1.249675 -0.383439,2.410311 -1.037109,3.371094 C 15.978195,14.248303 16,14.126936 16,14 c 0,-1.656854 -1.343146,-3 -3,-3 -1.656854,0 -3,1.343146 -3,3 0,1.379197 0.935517,2.52824 2.203125,2.878906 C 11.814285,16.958084 11.412222,17 11,17 7.6862915,17 5,14.313708 5,11 5,7.6862915 7.6862915,5 11,5 Z"/>
 </g>
 <g id="22-22-quassel-message" transform="translate(-29.999999,-23)">
  <rect style="opacity:0.001" width="22" height="22" x="62" y="1"/>
  <circle style="fill:#4285f4" cx="75" cy="15" r="3"/>
  <path style="fill:#d3dae3" d="m 73,4 c -4.418278,0 -8,3.581722 -8,8 0,4.418278 3.581722,8 8,8 4.418278,0 8,-3.581722 8,-8 0,-4.418278 -3.581722,-8 -8,-8 z m 0,2 a 6,6 0 0 1 0.611328,0.03125 c 6.41e-4,6.49e-5 0.0013,-6.51e-5 0.002,0 a 6,6 0 0 1 0.578125,0.087891 c 0.197341,0.039778 0.392221,0.089811 0.582032,0.1484375 0.37981,0.1173121 0.742491,0.2704601 1.085937,0.4570313 a 6,6 0 0 1 0.01758,0.00977 c 0.03743,0.020494 0.07244,0.045143 0.109375,0.066406 0.133263,0.076717 0.266018,0.15578 0.392578,0.2421876 a 6,6 0 0 1 0.0098,0.00586 c 0.03701,0.025371 0.07102,0.053906 0.107422,0.080078 0.118154,0.084943 0.234194,0.1705678 0.345703,0.2636719 a 6,6 0 0 1 0.197265,0.1796875 c 0.07684,0.070144 0.155418,0.1388847 0.228516,0.2128906 a 6,6 0 0 1 0.175781,0.1933594 c 0.07709,0.085114 0.156349,0.1683609 0.228516,0.2578125 a 6,6 0 0 1 0.130859,0.1757813 c 0.07236,0.096699 0.142452,0.1938361 0.208985,0.2949218 a 6,6 0 0 1 0.132812,0.2167969 c 0.05881,0.098145 0.116665,0.1971462 0.169922,0.2988281 a 6,6 0 0 1 0.0918,0.1855469 c 0.05954,0.1239357 0.116872,0.2484738 0.167969,0.3769531 a 6,6 0 0 1 0.05273,0.1445313 c 0.04918,0.1336123 0.09502,0.2683643 0.134766,0.4062503 a 6,6 0 0 1 0.04883,0.189453 c 0.03261,0.128829 0.06377,0.258626 0.08789,0.390625 a 6,6 0 0 1 0.0332,0.220703 c 0.01702,0.117796 0.03289,0.235561 0.04297,0.355469 A 6,6 0 0 1 79,12 6,6 0 0 1 78.9375,12.820312 c -0.0088,0.06364 -0.01856,0.126465 -0.0293,0.189454 a 6,6 0 0 1 -0.179687,0.773437 c -9.79e-4,0.0031 -9.7e-4,0.0066 -0.002,0.0098 a 6,6 0 0 1 -0.01758,0.04687 6,6 0 0 1 -0.265625,0.666015 c -0.03122,0.06765 -0.06207,0.13491 -0.0957,0.201172 a 6,6 0 0 1 -0.36914,0.638672 6,6 0 0 1 -0.01563,0.02344 c -8e-5,6.39e-4 7.9e-5,0.0013 0,0.002 A 6,6 0 0 1 74.189453,17.875 c 0.0046,0.0013 0.0091,0.0026 0.01367,0.0039 -0.03514,0.0072 -0.07206,0.0091 -0.107422,0.01563 a 6,6 0 0 1 -0.257812,0.03906 c -0.108164,0.01522 -0.216245,0.03164 -0.326172,0.04102 A 6,6 0 0 1 73,18 a 6,6 0 0 1 -0.611328,-0.03125 6,6 0 0 1 -0.002,0 c -0.195786,-0.01988 -0.388365,-0.04964 -0.578125,-0.08789 -0.197342,-0.03978 -0.392221,-0.08981 -0.582032,-0.148437 -0.37981,-0.117312 -0.742491,-0.27046 -1.085937,-0.457031 -0.0033,-0.0018 -0.0064,-0.004 -0.0098,-0.0059 a 6,6 0 0 1 -0.117187,-0.07031 c -0.133263,-0.07672 -0.266018,-0.15578 -0.392578,-0.242188 a 6,6 0 0 1 -0.117188,-0.08594 c -0.118154,-0.08494 -0.234194,-0.170568 -0.345703,-0.263672 a 6,6 0 0 1 -0.197265,-0.179688 c -0.07684,-0.07014 -0.155418,-0.138884 -0.228516,-0.21289 a 6,6 0 0 1 -0.175781,-0.19336 c -0.07709,-0.08511 -0.156349,-0.16836 -0.228516,-0.257812 a 6,6 0 0 1 -0.130859,-0.175781 c -0.07236,-0.0967 -0.142452,-0.193837 -0.208985,-0.294922 a 6,6 0 0 1 -0.132812,-0.216797 c -0.05881,-0.09814 -0.116665,-0.197146 -0.169922,-0.298828 a 6,6 0 0 1 -0.0918,-0.185547 c -0.05954,-0.123936 -0.116872,-0.248474 -0.167969,-0.376953 a 6,6 0 0 1 -0.05273,-0.144532 c -0.04918,-0.133612 -0.09502,-0.268364 -0.134766,-0.40625 a 6,6 0 0 1 -0.04883,-0.189453 c -0.03261,-0.128829 -0.06377,-0.258626 -0.08789,-0.390625 a 6,6 0 0 1 -0.0332,-0.220703 c -0.01702,-0.117796 -0.03289,-0.235561 -0.04297,-0.355469 A 6,6 0 0 1 67,12 6,6 0 0 1 67.03125,11.388672 c 0.01989,-0.196445 0.04952,-0.389697 0.08789,-0.580078 0.03978,-0.197341 0.08981,-0.392221 0.148437,-0.582032 0.117312,-0.3798101 0.27046,-0.7424909 0.457031,-1.085937 0.0018,-0.00334 0.004,-0.00643 0.0059,-0.00977 a 6,6 0 0 1 0.07031,-0.1171875 c 0.07672,-0.1332624 0.15578,-0.2660184 0.242188,-0.3925781 a 6,6 0 0 1 0.08594,-0.1171876 c 0.08494,-0.1181543 0.170568,-0.234194 0.263672,-0.3457031 a 6,6 0 0 1 0.179688,-0.1972656 c 0.07014,-0.076839 0.138884,-0.1554177 0.21289,-0.2285156 a 6,6 0 0 1 0.19336,-0.1757813 c 0.08511,-0.077093 0.16836,-0.1563481 0.257812,-0.2285156 a 6,6 0 0 1 0.175781,-0.1308594 c 0.0967,-0.072356 0.193837,-0.1424516 0.294922,-0.2089844 a 6,6 0 0 1 0.216797,-0.1328124 c 0.09815,-0.058814 0.197146,-0.1166646 0.298828,-0.1699219 A 6,6 0 0 1 70.408203,6.59375 c 0.123936,-0.05954 0.248474,-0.116872 0.376953,-0.1679688 a 6,6 0 0 1 0.144532,-0.052734 c 0.133612,-0.049182 0.268364,-0.095015 0.40625,-0.1347657 a 6,6 0 0 1 0.189453,-0.048828 c 0.128829,-0.032612 0.258626,-0.063765 0.390625,-0.087891 a 6,6 0 0 1 0.220703,-0.033203 c 0.117796,-0.017024 0.235561,-0.032894 0.355469,-0.042969 A 6,6 0 0 1 73,6 Z"/>
 </g>
 <g id="quassel">
  <rect style="opacity:0.001" width="32" height="32" x="0" y="0"/>
  <path style="fill:#d3dae3" d="M 16 4 C 9.3725833 4 4 9.3725831 4 16 C 4 22.627418 9.3725834 28 16 28 C 22.627418 28 28 22.627418 28 16 C 28 9.3725831 22.627418 4 16 4 z M 16 7 A 9 9 0 0 1 25 16 A 9 9 0 0 1 22.763672 21.927734 A 4.5 4.5 0 0 0 23 20.5 A 4.5 4.5 0 0 0 18.5 16 A 4.5 4.5 0 0 0 14 20.5 A 4.5 4.5 0 0 0 17.472656 24.876953 A 9 9 0 0 1 16 25 A 9 9 0 0 1 7 16 A 9 9 0 0 1 16 7 z"/>
 </g>
 <g id="quassel-message" transform="translate(32)">
  <rect style="opacity:0.001" width="32" height="32" x="0" y="0"/>
  <circle style="fill:#4285f4" cx="18.5" cy="20.5" r="4.5"/>
  <path style="fill:#d3dae3" d="M 16,4 C 9.3725833,4 4,9.3725831 4,16 4,22.627418 9.3725834,28 16,28 22.627418,28 28,22.627418 28,16 28,9.3725831 22.627418,4 16,4 Z m 0,3 a 9,9 0 0 1 9,9 9,9 0 0 1 -9,9 9,9 0 0 1 -9,-9 9,9 0 0 1 9,-9 z"/>
 </g>
 <g id="quassel-inactive" transform="translate(64)">
  <rect style="opacity:0.001" width="32" height="32" x="0" y="0"/>
  <path style="opacity:0.3;fill:#d3dae3" transform="translate(-64)" d="M 80 4 C 73.372583 4 68 9.3725831 68 16 C 68 22.627418 73.372583 28 80 28 C 86.627418 28 92 22.627418 92 16 C 92 9.3725831 86.627418 4 80 4 z M 80 7 A 9 9 0 0 1 89 16 A 9 9 0 0 1 86.763672 21.927734 A 4.5 4.5 0 0 0 87 20.5 A 4.5 4.5 0 0 0 82.5 16 A 4.5 4.5 0 0 0 78 20.5 A 4.5 4.5 0 0 0 81.472656 24.876953 A 9 9 0 0 1 80 25 A 9 9 0 0 1 71 16 A 9 9 0 0 1 80 7 z"/>
 </g>
</svg>
