<svg xmlns="http://www.w3.org/2000/svg" id="svg" width="100%" height="100%" version="1.1" viewBox="0 0 22 22">
 <g id="quassel">
  <rect width="22" height="22" x="0" y="0" style="fill:#d3dae3;fill-opacity:0"/>
  <path d="M 11 3 C 6.581722 3 3 6.581722 3 11 C 3 15.418278 6.581722 19 11 19 C 15.418278 19 19 15.418278 19 11 C 19 6.581722 15.418278 3 11 3 z M 11 5 C 14.313708 5 17 7.6862915 17 11 C 17 12.249675 16.616561 13.410311 15.962891 14.371094 C 15.978195 14.248303 16 14.126936 16 14 C 16 12.343146 14.656854 11 13 11 C 11.343146 11 10 12.343146 10 14 C 10 15.379197 10.935517 16.52824 12.203125 16.878906 C 11.814285 16.958084 11.412222 17 11 17 C 7.6862915 17 5 14.313708 5 11 C 5 7.6862915 7.6862915 5 11 5 z" style="fill:#d3dae3"/>
 </g>
 <g id="quassel_inactive" transform="translate(-22,0)">
  <rect width="22" height="22" x="0" y="0" style="fill:#d3dae3;fill-opacity:0"/>
  <path d="m 11,3 c -4.418278,0 -8,3.581722 -8,8 0,4.418278 3.581722,8 8,8 4.418278,0 8,-3.581722 8,-8 0,-4.418278 -3.581722,-8 -8,-8 z m 0,2 c 3.313708,0 6,2.6862915 6,6 0,1.249675 -0.383439,2.410311 -1.037109,3.371094 C 15.978195,14.248303 16,14.126936 16,14 c 0,-1.656854 -1.343146,-3 -3,-3 -1.656854,0 -3,1.343146 -3,3 0,1.379197 0.935517,2.52824 2.203125,2.878906 C 11.814285,16.958084 11.412222,17 11,17 7.6862915,17 5,14.313708 5,11 5,7.6862915 7.6862915,5 11,5 Z" style="fill:#d3dae3;opacity:0.3"/>
 </g>
 <g id="quassel_message" transform="translate(22,0)">
  <rect width="22" height="22" x="0" y="0" style="fill:#d3dae3;fill-opacity:0"/>
  <path d="m 11,3 c -4.418278,0 -8,3.581722 -8,8 0,4.418278 3.581722,8 8,8 4.418278,0 8,-3.581722 8,-8 0,-4.418278 -3.581722,-8 -8,-8 z m 0,2 c 3.313708,0 6,2.6862915 6,6 0,1.249675 -0.383439,2.410311 -1.037109,3.371094 C 15.978195,14.248303 16,14.126936 16,14 c 0,-1.656854 -1.343146,-3 -3,-3 -1.656854,0 -3,1.343146 -3,3 0,1.379197 0.935517,2.52824 2.203125,2.878906 C 11.814285,16.958084 11.412222,17 11,17 7.6862915,17 5,14.313708 5,11 5,7.6862915 7.6862915,5 11,5 Z" style="fill:#5294e2"/>
 </g>
</svg>
