<svg xmlns="http://www.w3.org/2000/svg" width="22" height="22" version="1.1" viewBox="0 0 22 22">
 <g id="ring-kde">
  <rect width="22" height="22" x="0" y="0" style="opacity:0.001"/>
  <path d="M 8.09375 3.5878906 C 7.9151703 3.5977516 7.7399642 3.645971 7.5800781 3.7382812 L 6.4257812 4.40625 C 5.7862371 4.775491 5.6271125 5.6913394 6.0703125 6.4589844 L 8.6933594 11 L 11.001953 7 L 9.5351562 4.4589844 C 9.2027562 3.8832507 8.6294892 3.5583077 8.09375 3.5878906 z M 13.310547 11 L 11.001953 15 L 12.470703 17.542969 C 12.913903 18.310614 13.786237 18.63096 14.425781 18.261719 L 15.580078 17.595703 C 16.219622 17.226462 16.376794 16.310614 15.933594 15.542969 L 13.310547 11 z" style="opacity:0.3;fill:#d3dae3"/>
  <rect width="4" height="16" x="-17.03" y="-3.97" rx="1.333" ry="1.6" transform="matrix(-0.8660254,-0.5,-0.5,0.8660254,0,0)" style="opacity:0.6;fill:#d3dae3"/>
  <rect width="4" height="16" x="-13" y="-19" rx="1.333" ry="1.6" transform="matrix(0,-1,-1,0,0,0)" style="fill:#d3dae3"/>
 </g>
</svg>
