<?xml version="1.0" encoding="UTF-8" standalone="no"?>
<svg xmlns:dc="http://purl.org/dc/elements/1.1/" xmlns:cc="http://creativecommons.org/ns#" xmlns:rdf="http://www.w3.org/1999/02/22-rdf-syntax-ns#" xmlns:svg="http://www.w3.org/2000/svg" xmlns="http://www.w3.org/2000/svg" id="svg4153" version="1.1" width="22" height="22" viewBox="0 0 22 22">
    <metadata id="metadata4159">
        <rdf:RDF>
            <cc:Work rdf:about="">
                <dc:format>
                    image/svg+xml
                </dc:format>
                <dc:type rdf:resource="http://purl.org/dc/dcmitype/StillImage"/>
                <dc:title/>
            </cc:Work>
        </rdf:RDF>
    </metadata>
    <defs id="defs4157">
        <style type="text/css" id="current-color-scheme">
            .ColorScheme-Text { color:#31363b; } .ColorScheme-Background { color:#eff0f1; } .ColorScheme-Highlight { color:#3daee9; } .ColorScheme-ViewText { color:#31363b; } .ColorScheme-ViewBackground { color:#fcfcfc; } .ColorScheme-ViewHover { color:#93cee9; } .ColorScheme-ViewFocus{ color:#3daee9; } .ColorScheme-ButtonText { color:#31363b; } .ColorScheme-ButtonBackground { color:#eff0f1; } .ColorScheme-ButtonHover { color:#93cee9; } .ColorScheme-ButtonFocus{ color:#3daee9; }
        </style>
    </defs>
    <g transform="translate(27,0)" id="software-updates-updates">
        <rect y="0" x="0" height="22" width="22" id="rect4163" style="opacity:0;fill:#7a0000;fill-opacity:1;stroke:none;stroke-opacity:1"/>
        <path style="opacity:1;fill:#5294e2;fill-opacity:1;stroke:none;stroke-opacity:1" d="M 10.761719,3.0136719 A 8,8 0 0 0 4.0722656,7 8,8 0 0 0 5.3984375,16.703125 L 6.4433594,14.892578 A 6,6 0 0 1 5.8046875,8 6,6 0 0 1 12.09375,5.1074219 L 13.134766,3.3027344 A 8,8 0 0 0 10.761719,3.0136719 Z M 16.601562,5.296875 15.556641,7.1074219 A 6,6 0 0 1 16.195312,14 6,6 0 0 1 9.90625,16.892578 L 8.8652344,18.697266 A 8,8 0 0 0 17.927734,15 8,8 0 0 0 16.601562,5.296875 Z M 10,7 l 0,5 2,0 0,-5 -2,0 z m 1,6 a 1,1 0 0 0 -1,1 1,1 0 0 0 1,1 1,1 0 0 0 1,-1 1,1 0 0 0 -1,-1 z" id="path4148"/>
    </g>
    <g id="software-updates-additional">
        <rect style="opacity:0;fill:#7a0000;fill-opacity:1;stroke:none;stroke-opacity:1" id="rect4172" width="22" height="22" x="0" y="0"/>
        <path style="opacity:1;fill:#5294e2;fill-opacity:1;stroke:none;stroke-opacity:1" d="M -16.238281,3.0136719 A 8,8 0 0 0 -22.927734,7 a 8,8 0 0 0 1.326172,9.703125 l 1.044921,-1.810547 A 6,6 0 0 1 -21.195312,8 6,6 0 0 1 -14.90625,5.1074219 l 1.041016,-1.8046875 a 8,8 0 0 0 -2.373047,-0.2890625 z m 5.839843,2.2832031 -1.044921,1.8105469 A 6,6 0 0 1 -10.804688,14 6,6 0 0 1 -17.09375,16.892578 l -1.041016,1.804688 A 8,8 0 0 0 -9.0722656,15 8,8 0 0 0 -10.398438,5.296875 Z M -19,10 a 1,1 0 0 0 -1,1 1,1 0 0 0 1,1 1,1 0 0 0 1,-1 1,1 0 0 0 -1,-1 z m 3,0 a 1,1 0 0 0 -1,1 1,1 0 0 0 1,1 1,1 0 0 0 1,-1 1,1 0 0 0 -1,-1 z m 3,0 a 1,1 0 0 0 -1,1 1,1 0 0 0 1,1 1,1 0 0 0 1,-1 1,1 0 0 0 -1,-1 z" transform="translate(27,0)" id="path4174"/>
    </g>
    <g id="software-updates-security" transform="translate(54,0)">
        <rect style="opacity:0;fill:#7a0000;fill-opacity:1;stroke:none;stroke-opacity:1" id="rect4204" width="22" height="22" x="0" y="0"/>
        <path id="path4206" d="M 10.761719,3.0136719 A 8,8 0 0 0 4.0722656,7 8,8 0 0 0 5.3984375,16.703125 L 6.4433594,14.892578 A 6,6 0 0 1 5.8046875,8 6,6 0 0 1 12.09375,5.1074219 L 13.134766,3.3027344 A 8,8 0 0 0 10.761719,3.0136719 Z M 16.601562,5.296875 15.556641,7.1074219 A 6,6 0 0 1 16.195312,14 6,6 0 0 1 9.90625,16.892578 L 8.8652344,18.697266 A 8,8 0 0 0 17.927734,15 8,8 0 0 0 16.601562,5.296875 Z M 10,7 l 0,5 2,0 0,-5 -2,0 z m 1,6 a 1,1 0 0 0 -1,1 1,1 0 0 0 1,1 1,1 0 0 0 1,-1 1,1 0 0 0 -1,-1 z" style="opacity:1;fill:#5294e2;fill-opacity:1;stroke:none;stroke-opacity:1"/>
    </g>
    <g transform="translate(82.3,0)" id="software-updates-inactive">
        <rect y="0" x="0" height="22" width="22" id="rect4210" style="opacity:0;fill:#7a0000;fill-opacity:1;stroke:none;stroke-opacity:1"/>
        <path style="opacity:1;fill:#ffffff;fill-opacity:1;stroke:none;stroke-opacity:1" d="M 66.0625,3.0136719 A 8,8 0 0 0 59.373047,7 a 8,8 0 0 0 1.326172,9.703125 l 1.044922,-1.810547 A 6,6 0 0 1 61.105469,8 6,6 0 0 1 67.394531,5.1074219 L 68.435547,3.3027344 A 8,8 0 0 0 66.0625,3.0136719 Z M 71.902344,5.296875 70.857422,7.1074219 A 6,6 0 0 1 71.496094,14 6,6 0 0 1 65.207031,16.892578 l -1.041015,1.804688 A 8,8 0 0 0 73.228516,15 8,8 0 0 0 71.902344,5.296875 Z" transform="translate(-55.3,0)" id="path4220"/>
    </g>
    <g id="software-updates-release" transform="translate(-22,0)">
        <rect style="opacity:0;fill:#7a0000;fill-opacity:1;stroke:none;stroke-opacity:1" id="rect4198" width="22" height="22" x="0" y="0"/>
        <path id="path4200" d="M 10.761719,3.0136719 A 8,8 0 0 0 4.0722656,7 8,8 0 0 0 5.3984375,16.703125 L 6.4433594,14.892578 A 6,6 0 0 1 5.8046875,8 6,6 0 0 1 12.09375,5.1074219 L 13.134766,3.3027344 A 8,8 0 0 0 10.761719,3.0136719 Z M 16.601562,5.296875 15.556641,7.1074219 A 6,6 0 0 1 16.195312,14 6,6 0 0 1 9.90625,16.892578 L 8.8652344,18.697266 A 8,8 0 0 0 17.927734,15 8,8 0 0 0 16.601562,5.296875 Z M 10,7 l 0,5 2,0 0,-5 -2,0 z m 1,6 a 1,1 0 0 0 -1,1 1,1 0 0 0 1,1 1,1 0 0 0 1,-1 1,1 0 0 0 -1,-1 z" style="opacity:1;fill:#5294e2;fill-opacity:1;stroke:none;stroke-opacity:1"/>
    </g>
</svg>
