<?xml version="1.0" encoding="UTF-8" standalone="no"?>
<svg
   xmlns:dc="http://purl.org/dc/elements/1.1/"
   xmlns:cc="http://creativecommons.org/ns#"
   xmlns:rdf="http://www.w3.org/1999/02/22-rdf-syntax-ns#"
   xmlns:svg="http://www.w3.org/2000/svg"
   xmlns="http://www.w3.org/2000/svg"
   xmlns:sodipodi="http://sodipodi.sourceforge.net/DTD/sodipodi-0.dtd"
   xmlns:inkscape="http://www.inkscape.org/namespaces/inkscape"
   version="1.1"
   id="svg5048"
   height="22"
   width="22"
   inkscape:version="0.92.1 r15371"
   sodipodi:docname="start.svg">
  <sodipodi:namedview
     pagecolor="#ffffff"
     bordercolor="#666666"
     borderopacity="1"
     objecttolerance="10"
     gridtolerance="10"
     guidetolerance="10"
     inkscape:pageopacity="0"
     inkscape:pageshadow="2"
     inkscape:window-width="1600"
     inkscape:window-height="822"
     id="namedview22"
     showgrid="true"
     inkscape:zoom="13.23"
     inkscape:cx="-25.664455"
     inkscape:cy="12.11699"
     inkscape:window-x="0"
     inkscape:window-y="0"
     inkscape:window-maximized="1"
     inkscape:current-layer="svg5048">
    <inkscape:grid
       type="xygrid"
       id="grid831" />
  </sodipodi:namedview>
  <defs
     id="defs5050">
    <style
       type="text/css"
       id="current-color-scheme">
            .ColorScheme-Text { color:#31363b; } .ColorScheme-Background{ color:#eff0f1; } .ColorScheme-ViewText { color:#31363b; } .ColorScheme-ViewBackground{ color:#fcfcfc; } .ColorScheme-ViewHover { color:#3daee9; } .ColorScheme-ViewFocus{ color:#3daee9; } .ColorScheme-ButtonText { color:#31363b; } .ColorScheme-ButtonBackground{ color:#eff0f1; } .ColorScheme-ButtonHover { color:#3daee9; } .ColorScheme-ButtonFocus{ color:#3daee9; }
        </style>
  </defs>
  <metadata
     id="metadata5053">
    <rdf:RDF>
      <cc:Work
         rdf:about="">
        <dc:format>
                    image/svg+xml
                </dc:format>
        <dc:type
           rdf:resource="http://purl.org/dc/dcmitype/StillImage" />
        <dc:title />
      </cc:Work>
    </rdf:RDF>
  </metadata>
  <g
     id="22-22-start-here-kde">
    <rect
       y="0"
       x="0"
       height="22"
       width="22"
       id="rect849"
       style="opacity:0.001;vector-effect:none;fill:#000000;fill-opacity:1;stroke:none;stroke-width:2.71573877;stroke-linecap:round;stroke-linejoin:round;stroke-miterlimit:4;stroke-dasharray:none;stroke-dashoffset:0;stroke-opacity:1" />
    <g
       id="g4500">
      <rect
         width="20"
         height="20"
         x="-21"
         y="-21"
         rx="1"
         ry="1"
         transform="matrix(0,-1,-1,0,0,0)"
         id="rect2"
         style="fill:#2c9bff" />
      <path
         d="M 2,1 C 1.446,1 1,1.446 1,2 v 0.5 c 0,-0.554 0.446,-1 1,-1 h 18 c 0.554,0 1,0.446 1,1 V 2 C 21,1.446 20.554,1 20,1 Z"
         id="path4"
         inkscape:connector-curvature="0"
         style="opacity:0.2;fill:#ffffff" />
      <path
         d="m 2,21.5 c -0.554,0 -1,-0.446 -1,-1 V 20 c 0,0.554 0.446,1 1,1 h 18 c 0.554,0 1,-0.446 1,-1 v 0.5 c 0,0.554 -0.446,1 -1,1 z"
         id="path6"
         inkscape:connector-curvature="0"
         style="opacity:0.2" />
      <path
         style="opacity:0.2"
         d="M 12.015625,3.4746094 9,4 V 14.386719 L 12,14 11.984375,9.3183594 15.523438,14.5 19,14 15,8.6367188 l 4.013672,-4.5 -3.519531,-0.6484376 -3.509766,4.5 z M 5.6738281,6.1269531 c -0.028972,0.00241 -0.056303,0.015109 -0.078125,0.037109 l -1.0351562,1.046875 c -0.04495,0.0453 -0.052447,0.1159219 -0.017578,0.1699219 l 1.25,1.9199218 C 5.5571593,9.7192619 5.3789844,10.178103 5.2636719,10.658203 L 3.1054688,11.1875 C 3.0455625,11.2022 3,11.256359 3,11.318359 V 12 12.681641 c 0,0.062 0.045563,0.116159 0.1054688,0.130859 l 2.1582031,0.529297 c 0.1153125,0.4801 0.2934874,0.938942 0.5292969,1.357422 l -1.25,1.919922 c -0.034868,0.054 -0.027372,0.124623 0.017578,0.169921 l 1.0351562,1.046876 c 0.043643,0.044 0.1113563,0.04763 0.1640625,0.01562 L 7.71875,16.650391 c 0.3843281,0.2239 0.9855094,0.404037 1.4238281,0.523437 l 0.4589844,2.216797 C 9.614313,19.454629 9.6651406,19.5 9.7285156,19.5 H 10.5 11.271484 c 0.06338,0 0.114202,-0.04537 0.126954,-0.109375 l 0.458984,-2.216797 c 0.438319,-0.1194 1.039502,-0.299537 1.423828,-0.523437 l 1.958984,1.201171 c 0.05271,0.032 0.120422,0.02838 0.164063,-0.01562 l 1.035156,-1.046876 c 0.04495,-0.0453 0.05245,-0.115921 0.01758,-0.169921 l -1.041015,-1.59961 -0.128907,0.01953 -0.730468,-1.070312 c -0.746065,1.563963 -2.323843,2.560614 -4.056641,2.5625 -2.4852814,0 -4.5,-2.014719 -4.5,-4.5 C 6.00144,10.323124 6.9698489,8.763073 8.5,8.0039062 V 7.0214844 C 8.2147616,7.1165864 7.9344885,7.2239255 7.71875,7.3496094 L 5.7597656,6.1484375 c -0.026353,-0.016 -0.056965,-0.023891 -0.085937,-0.021484 z"
         id="path8"
         inkscape:connector-curvature="0" />
      <path
         style="fill:#ffffff"
         d="M 12.015625,2.9746094 9,3.5 V 13.886719 L 12,13.5 11.984375,8.8183594 15.523438,14 19,13.5 15,8.1367188 l 4.013672,-4.5 -3.519531,-0.6484376 -3.509766,4.5 z M 5.6738281,5.6269531 c -0.028972,0.00241 -0.056303,0.015109 -0.078125,0.037109 l -1.0351562,1.046875 c -0.04495,0.0453 -0.052447,0.1159219 -0.017578,0.1699219 l 1.25,1.9199218 C 5.5571593,9.2192619 5.3789844,9.6781034 5.2636719,10.158203 L 3.1054688,10.6875 C 3.0455625,10.7022 3,10.756359 3,10.818359 V 11.5 12.181641 c 0,0.062 0.045563,0.116159 0.1054688,0.130859 l 2.1582031,0.529297 c 0.1153125,0.4801 0.2934874,0.938942 0.5292969,1.357422 l -1.25,1.919922 c -0.034868,0.054 -0.027372,0.124623 0.017578,0.169921 l 1.0351562,1.046876 c 0.043643,0.044 0.1113563,0.04763 0.1640625,0.01562 L 7.71875,16.150391 c 0.3843281,0.2239 0.9855094,0.404037 1.4238281,0.523437 l 0.4589844,2.216797 C 9.614313,18.954629 9.6651406,19 9.7285156,19 H 10.5 11.271484 c 0.06338,0 0.114202,-0.04537 0.126954,-0.109375 l 0.458984,-2.216797 c 0.438319,-0.1194 1.039502,-0.299537 1.423828,-0.523437 l 1.958984,1.201171 c 0.05271,0.032 0.120422,0.02838 0.164063,-0.01562 l 1.035156,-1.046876 c 0.04495,-0.0453 0.05245,-0.115921 0.01758,-0.169921 l -1.041015,-1.59961 -0.128907,0.01953 -0.730468,-1.070312 c -0.746065,1.563963 -2.323843,2.560614 -4.056641,2.5625 -2.4852814,0 -4.5,-2.014719 -4.5,-4.5 C 6.00144,9.823124 6.9698489,8.263073 8.5,7.5039062 V 6.5214844 C 8.2147616,6.6165864 7.9344885,6.7239255 7.71875,6.8496094 L 5.7597656,5.6484375 c -0.026353,-0.016 -0.056965,-0.023891 -0.085937,-0.021484 z"
         id="path10"
         inkscape:connector-curvature="0" />
    </g>
  </g>
  <g
     id="start-here-kde">
    <rect
       y="-3"
       x="-37"
       height="32"
       width="32"
       id="rect860"
       style="opacity:0.001;vector-effect:none;fill:#000000;fill-opacity:1;stroke:none;stroke-width:3.22818279;stroke-linecap:round;stroke-linejoin:round;stroke-miterlimit:4;stroke-dasharray:none;stroke-dashoffset:0;stroke-opacity:1" />
    <g
       id="g4502"
       transform="translate(-37,-3)">
      <rect
         style="opacity:0.2"
         width="28"
         height="28"
         x="-31"
         y="-30"
         rx="1.4"
         ry="1.4"
         transform="matrix(0,-1,-1,0,0,0)"
         id="rect2-3" />
      <rect
         style="fill:#2c9bff"
         width="28"
         height="28"
         x="-30"
         y="-30"
         rx="1.4"
         ry="1.4"
         transform="matrix(0,-1,-1,0,0,0)"
         id="rect4" />
      <path
         style="opacity:0.2"
         d="M 18,6 14,6.6054688 V 21.074219 L 18,20 V 14.410156 L 22,21 26,19.5 21,13.5 26.001953,7.0019531 22.121094,6 18,12.558594 Z M 9.8554688,9.9238281 c -0.094592,0 -0.1891851,0.036841 -0.2617188,0.1093749 l -1.5722656,1.572266 c -0.1450675,0.145067 -0.1101437,0.352307 0,0.52539 l 1.6269531,2.554688 c -0.1205423,0.250221 -0.2249229,0.50791 -0.3125,0.771484 -0.00385,0.01134 -0.00989,0.02184 -0.013672,0.0332 l -2.9511718,0.65625 C 6.1708235,16.190994 6,16.312423 6,16.517578 V 17.5 18.482422 c 0,0.205155 0.1708235,0.32659 0.3710938,0.371094 l 2.9511718,0.65625 c 0.00646,0.0194 0.016787,0.03731 0.023437,0.05664 0.085245,0.256042 0.186352,0.506527 0.3027344,0.75 l -1.6269531,2.552735 c -0.1101437,0.173083 -0.1450675,0.380323 0,0.52539 L 9.59375,24.966797 c 0.1450675,0.145067 0.3783676,0.145067 0.523438,0 l 2.550781,-1.625 c 0.250759,0.121949 0.509105,0.227636 0.773437,0.316406 0.01735,0.0061 0.03339,0.01554 0.05078,0.02148 l 0.654296,2.949218 c 0,0.205156 0.16594,0.371094 0.371094,0.371094 h 2.220703 c 0.205155,0 0.32659,-0.170824 0.371094,-0.371094 l 0.654297,-3.039062 c 0.300604,-0.113013 0.592418,-0.248149 0.873047,-0.404297 l 2.490234,1.78125 c 0.145068,0.145067 0.378371,0.145067 0.523438,0 l 1.572265,-1.572266 c 0.145068,-0.145067 0.110144,-0.352307 0,-0.52539 l -0.947265,-1.4375 -0.09961,0.03711 c -0.225251,0.08461 -0.478825,-0.0032 -0.603515,-0.208984 L 20.576172,19.619141 C 19.746236,21.604336 17.786239,23 15.5,23 12.462434,23 10,20.537566 10,17.5 c 0,-2.33092 1.452799,-4.31835 3.5,-5.119141 v -1.095703 l -0.0078,0.03516 c -0.02208,0.0075 -0.04245,0.01957 -0.06445,0.02734 -0.260825,0.08662 -0.515895,0.189688 -0.763672,0.308594 l -2.54689,-1.623047 C 10.044652,9.9606696 9.9500611,9.9238281 9.8554688,9.9238281 Z"
         id="path8-6"
         inkscape:connector-curvature="0" />
      <path
         style="fill:#ffffff"
         d="M 18,5 14,5.6054688 V 20.074219 L 18,19 V 13.410156 L 22,20 26,18.5 21,12.5 26.001953,6.0019531 22.121094,5 18,11.558594 Z M 9.8554688,8.9238281 c -0.094592,0 -0.1891851,0.036841 -0.2617188,0.109375 L 8.0214844,10.605469 c -0.1450675,0.145067 -0.1101437,0.352307 0,0.52539 l 1.6269531,2.554688 c -0.1205423,0.250221 -0.2249229,0.50791 -0.3125,0.771484 -0.00385,0.01134 -0.00989,0.02184 -0.013672,0.0332 l -2.9511718,0.65625 C 6.1708235,15.190994 6,15.312423 6,15.517578 V 16.5 17.482422 c 0,0.205155 0.1708235,0.32659 0.3710938,0.371094 l 2.9511718,0.65625 c 0.00646,0.0194 0.016787,0.03731 0.023437,0.05664 0.085245,0.256042 0.186352,0.506527 0.3027344,0.75 l -1.6269531,2.552735 c -0.1101437,0.173083 -0.1450675,0.380323 0,0.52539 L 9.59375,23.966797 c 0.1450675,0.145067 0.3783676,0.145067 0.523438,0 l 2.550781,-1.625 c 0.250759,0.121949 0.509105,0.227636 0.773437,0.316406 0.01735,0.0061 0.03339,0.01554 0.05078,0.02148 l 0.654296,2.949218 c 0,0.205156 0.16594,0.371094 0.371094,0.371094 h 2.220703 c 0.205155,0 0.32659,-0.170824 0.371094,-0.371094 l 0.654297,-3.039062 c 0.300604,-0.113013 0.592418,-0.248149 0.873047,-0.404297 l 2.490234,1.78125 c 0.145068,0.145067 0.378371,0.145067 0.523438,0 l 1.572265,-1.572266 c 0.145068,-0.145067 0.110144,-0.352307 0,-0.52539 l -0.947265,-1.4375 -0.09961,0.03711 c -0.225251,0.08461 -0.478825,-0.0032 -0.603515,-0.208984 L 20.576172,18.619141 C 19.746236,20.604336 17.786239,22 15.5,22 12.462434,22 10,19.537566 10,16.5 c 0,-2.33092 1.452799,-4.31835 3.5,-5.119141 v -1.095703 l -0.0078,0.03516 c -0.02208,0.0075 -0.04245,0.01957 -0.06445,0.02734 -0.260825,0.08662 -0.515895,0.189688 -0.763672,0.308594 L 10.117188,9.0332031 C 10.044652,8.9606696 9.9500611,8.9238281 9.8554688,8.9238281 Z"
         id="path10-7"
         inkscape:connector-curvature="0" />
      <path
         style="opacity:0.2;fill:#ffffff"
         d="M 3.4003906,2 C 2.6247906,2 2,2.6247906 2,3.4003906 v 1 C 2,3.6247906 2.6247906,3 3.4003906,3 H 28.599609 C 29.375209,3 30,3.6247906 30,4.4003906 v -1 C 30,2.6247906 29.375209,2 28.599609,2 Z"
         id="path12"
         inkscape:connector-curvature="0" />
    </g>
  </g>
</svg>
