<?xml version="1.0" encoding="UTF-8" standalone="no"?>
<svg
   xmlns:dc="http://purl.org/dc/elements/1.1/"
   xmlns:cc="http://creativecommons.org/ns#"
   xmlns:rdf="http://www.w3.org/1999/02/22-rdf-syntax-ns#"
   xmlns:svg="http://www.w3.org/2000/svg"
   xmlns="http://www.w3.org/2000/svg"
   xmlns:sodipodi="http://sodipodi.sourceforge.net/DTD/sodipodi-0.dtd"
   xmlns:inkscape="http://www.inkscape.org/namespaces/inkscape"
   version="1.1"
   id="svg5048"
   height="22"
   width="22"
   inkscape:version="0.91 r13725"
   sodipodi:docname="start.svg">
  <sodipodi:namedview
     pagecolor="#ffffff"
     bordercolor="#666666"
     borderopacity="1"
     objecttolerance="10"
     gridtolerance="10"
     guidetolerance="10"
     inkscape:pageopacity="0"
     inkscape:pageshadow="2"
     inkscape:window-width="1600"
     inkscape:window-height="843"
     id="namedview22"
     showgrid="false"
     inkscape:zoom="10.727273"
     inkscape:cx="-3.9618644"
     inkscape:cy="11"
     inkscape:window-x="0"
     inkscape:window-y="0"
     inkscape:window-maximized="1"
     inkscape:current-layer="svg5048" />
  <defs
     id="defs5050">
    <style
       type="text/css"
       id="current-color-scheme">
            .ColorScheme-Text { color:#31363b; } .ColorScheme-Background{ color:#eff0f1; } .ColorScheme-ViewText { color:#31363b; } .ColorScheme-ViewBackground{ color:#fcfcfc; } .ColorScheme-ViewHover { color:#3daee9; } .ColorScheme-ViewFocus{ color:#3daee9; } .ColorScheme-ButtonText { color:#31363b; } .ColorScheme-ButtonBackground{ color:#eff0f1; } .ColorScheme-ButtonHover { color:#3daee9; } .ColorScheme-ButtonFocus{ color:#3daee9; }
        </style>
  </defs>
  <metadata
     id="metadata5053">
    <rdf:RDF>
      <cc:Work
         rdf:about="">
        <dc:format>
                    image/svg+xml
                </dc:format>
        <dc:type
           rdf:resource="http://purl.org/dc/dcmitype/StillImage" />
        <dc:title />
      </cc:Work>
    </rdf:RDF>
  </metadata>
  <g
     transform="translate(0,-1030.3622)"
     id="22-22-start-here-kde">
    <rect
       y="1030.3622"
       x="0"
       height="22"
       width="22"
       id="rect3861"
       style="opacity:0.00100002;fill:#000000;fill-opacity:1;stroke:none" />
    <g
       id="g4140"
       transform="translate(0,1030.3622)">
      <rect
         style="fill:#2c9bff;fill-opacity:1"
         id="rect4203"
         ry="1"
         rx="1"
         transform="matrix(0,-1,-1,0,0,0)"
         height="20"
         width="20"
         y="-21"
         x="-21" />
      <path
         style="opacity:0.2;fill:#d3dae3"
         id="rect4592"
         d="M 2,1 C 1.446,1 1,1.446 1,2 l 0,0.5 c 0,-0.554 0.446,-1 1,-1 l 18,0 c 0.554,0 1,0.446 1,1 L 21,2 C 21,1.446 20.554,1 20,1 L 2,1 Z" />
      <path
         style="opacity:0.2;fill:#000000;fill-opacity:1"
         id="path4597"
         d="m 2,21.5 c -0.554,0 -1,-0.446 -1,-1 L 1,20 c 0,0.554 0.446,1 1,1 l 18,0 c 0.554,0 1,-0.446 1,-1 l 0,0.5 c 0,0.554 -0.446,1 -1,1 l -18,0 z" />
      <path
         style="color:#31363b;opacity:0.2;fill:#000000;fill-opacity:1;stroke:none"
         d="m 12.328125,3.5 -2.8125,0.255859 0,10.955079 2.78125,-0.398438 0,-4.669922 3.742187,5.181641 2.931641,-0.88086 L 15.138672,8.960938 19,4.261719 16.009766,3.613281 12.296875,8.3125 12.328125,3.5 Z m -6.3730469,2.666016 0,0.0039 c -0.031787,0 -0.065915,0.01216 -0.089844,0.03516 L 4.7597656,7.25 c -0.046413,0.044 -0.051658,0.110762 -0.017578,0.164062 l 1.2910156,2.017579 c -0.2292853,0.3647 -0.415803,0.755221 -0.546875,1.169921 l -2.373047,0.466797 C 3.0472593,11.081259 3,11.141178 3,11.205078 l 0,1.476563 c 0,0.062 0.04938,0.116159 0.1132812,0.130859 l 2.3007813,0.529297 c 0.1230014,0.4801 0.3129231,0.938922 0.5644531,1.357422 l -1.3320312,1.919922 c -0.037193,0.054 -0.030369,0.124622 0.017578,0.169921 l 1.1054687,1.046876 c 0.046553,0.044 0.1176129,0.04762 0.1738282,0.01562 L 8.033203,16.65234 c 0.4099454,0.2239 0.8527585,0.404037 1.3203125,0.523437 l 0.4882813,2.216797 C 9.8554469,19.455578 9.9109119,19.5 9.9785156,19.5 l 1.5625004,0 c 0.06554,0 0.121148,-0.04126 0.136718,-0.101562 l 0.578125,-2.228516 c 0.482208,-0.123 0.936907,-0.304863 1.357422,-0.539063 l 2.058594,1.277344 c 0.05679,0.035 0.133495,0.02937 0.181641,-0.01563 l 1.097656,-1.046875 c 0.0467,-0.044 0.05959,-0.110862 0.02539,-0.164062 l -0.751953,-1.169922 -0.246093,0.07422 c -0.03555,0.01 -0.07456,-0.0012 -0.0957,-0.03516 0,0 -0.474894,-0.658525 -1.09375,-1.515625 -0.740128,1.3701 -2.247864,2.306641 -3.986328,2.306641 -2.4703299,0 -4.474609,-1.897475 -4.474609,-4.234375 0,-1.7191 1.0865488,-3.195022 2.6425781,-3.857422 l 0,-1.089844 C 8.6875078,7.254156 8.4123785,7.366 8.1523438,7.5 c -3.26e-4,-2e-4 5.333e-4,-0.0098 0,-0.0098 L 6.0449219,6.18356 c -0.028353,-0.018 -0.05806,-0.02058 -0.089844,-0.01758 z"
         class="ColorScheme-Text"
         id="path4196" />
      <path
         id="path7"
         class="ColorScheme-Text"
         d="m 12.328125,3 -2.8125,0.255859 0,10.955079 2.78125,-0.398438 0,-4.669922 3.742187,5.181641 2.931641,-0.88086 L 15.138672,8.460938 19,3.761719 16.009766,3.113281 12.296875,7.8125 12.328125,3 Z m -6.3730469,2.666016 0,0.0039 c -0.031787,0 -0.065915,0.01216 -0.089844,0.03516 L 4.7597656,6.75 c -0.046413,0.044 -0.051658,0.110762 -0.017578,0.164062 l 1.2910156,2.017579 c -0.2292853,0.3647 -0.415803,0.755221 -0.546875,1.169921 l -2.373047,0.466797 C 3.0472593,10.581259 3,10.641178 3,10.705078 l 0,1.476563 c 0,0.062 0.04938,0.116159 0.1132812,0.130859 l 2.3007813,0.529297 c 0.1230014,0.4801 0.3129231,0.938922 0.5644531,1.357422 l -1.3320312,1.919922 c -0.037193,0.054 -0.030369,0.124622 0.017578,0.169921 l 1.1054687,1.046876 c 0.046553,0.044 0.1176129,0.04762 0.1738282,0.01562 L 8.033203,16.15234 c 0.4099454,0.2239 0.8527585,0.404037 1.3203125,0.523437 l 0.4882813,2.216797 C 9.8554469,18.955578 9.9109119,19 9.9785156,19 l 1.5625004,0 c 0.06554,0 0.121148,-0.04126 0.136718,-0.101562 l 0.578125,-2.228516 c 0.482208,-0.123 0.936907,-0.304863 1.357422,-0.539063 l 2.058594,1.277344 c 0.05679,0.035 0.133495,0.02937 0.181641,-0.01563 l 1.097656,-1.046875 c 0.0467,-0.044 0.05959,-0.110862 0.02539,-0.164062 l -0.751953,-1.169922 -0.246093,0.07422 c -0.03555,0.01 -0.07456,-0.0012 -0.0957,-0.03516 0,0 -0.474894,-0.658525 -1.09375,-1.515625 -0.740128,1.3701 -2.247864,2.306641 -3.986328,2.306641 -2.4703299,0 -4.474609,-1.897475 -4.474609,-4.234375 0,-1.7191 1.0865488,-3.195022 2.6425781,-3.857422 l 0,-1.089844 C 8.6875078,6.754156 8.4123785,6.866 8.1523438,7 c -3.26e-4,-2e-4 5.333e-4,-0.0098 0,-0.0098 L 6.0449219,5.68356 c -0.028353,-0.018 -0.05806,-0.02058 -0.089844,-0.01758 z"
         style="color:#31363b;fill:#ffffff;fill-opacity:1;stroke:none" />
    </g>
  </g>
  <g
     transform="translate(0,-1030.3622)"
     id="start-here-kde">
    <rect
       style="opacity:0.00100002;fill:#000000;fill-opacity:1;stroke:none"
       id="rect4146"
       width="32"
       height="32"
       x="22"
       y="1020.3622" />
    <g
       id="g4181">
      <rect
         style="opacity:0.2;fill:#000000;fill-opacity:1"
         id="rect4179"
         ry="1.4"
         rx="1.4"
         transform="matrix(0,-1,-1,0,0,0)"
         height="28"
         width="28"
         y="-52"
         x="-1051.3622" />
      <rect
         x="-1050.3622"
         y="-52"
         width="28"
         height="28"
         transform="matrix(0,-1,-1,0,0,0)"
         rx="1.4"
         ry="1.4"
         id="rect4150"
         style="fill:#2c9bff;fill-opacity:1" />
      <path
         id="path4172"
         class="ColorScheme-Text"
         d="m 39.931819,1025.7259 -4.090909,0.3722 0,15.9347 4.045454,-0.5796 0,-6.7926 5.443181,7.5369 4.264206,-1.2812 -5.573864,-7.2472 5.616477,-6.8352 -4.349431,-0.9432 -5.400569,6.8352 0.04545,-7 z m -9.269887,3.8779 0,0.01 c -0.04624,0 -0.09588,0.018 -0.130682,0.051 l -1.607954,1.5199 c -0.06751,0.064 -0.07514,0.1611 -0.02557,0.2386 l 1.877841,2.9347 c -0.333506,0.5305 -0.604805,1.0985 -0.795455,1.7017 l -3.451705,0.679 c -0.09603,0.019 -0.164773,0.1059 -0.164773,0.1988 l 0,2.1478 c 0,0.09 0.07183,0.1689 0.164773,0.1903 l 3.346591,0.7699 c 0.178911,0.6983 0.455161,1.3657 0.821023,1.9744 l -1.9375,2.7926 c -0.0541,0.079 -0.04417,0.1813 0.02557,0.2472 l 1.607954,1.5227 c 0.06771,0.064 0.171074,0.069 0.252842,0.023 l 3.039772,-1.7443 c 0.596285,0.3257 1.240376,0.5877 1.920455,0.7614 l 0.710227,3.2244 c 0.01986,0.092 0.100531,0.1563 0.198864,0.1563 l 2.272728,0 c 0.09533,0 0.176215,-0.06 0.198862,-0.1478 l 0.84091,-3.2414 c 0.701393,-0.1789 1.362773,-0.4435 1.974432,-0.7841 l 2.994318,1.8579 c 0.0826,0.051 0.194175,0.043 0.264205,-0.023 l 1.596591,-1.5227 c 0.06793,-0.064 0.08668,-0.1613 0.03693,-0.2387 l -1.09375,-1.7017 -0.357953,0.108 c -0.05171,0.014 -0.108451,0 -0.1392,-0.051 0,0 -0.690755,-0.9578 -1.59091,-2.2045 -1.076549,1.9929 -3.26962,3.3551 -5.798295,3.3551 -3.593207,0 -6.508522,-2.76 -6.508522,-6.1591 0,-2.5005 1.580434,-4.6473 3.84375,-5.6108 l 0,-1.5852 c -0.411927,0.1367 -0.812115,0.2994 -1.190347,0.4943 -4.74e-4,-3e-4 7.76e-4,-0.014 0,-0.014 l -3.065341,-1.9006 c -0.04124,-0.026 -0.08445,-0.03 -0.130682,-0.026 z"
         style="color:#31363b;opacity:0.2;fill:#000000;fill-opacity:1;stroke:none" />
      <path
         style="color:#31363b;fill:#ffffff;fill-opacity:1;stroke:none"
         d="m 39.931819,1024.7259 -4.090909,0.3722 0,15.9347 4.045454,-0.5796 0,-6.7926 5.443181,7.5369 4.264206,-1.2812 -5.573864,-7.2472 5.616477,-6.8352 -4.349431,-0.9432 -5.400569,6.8352 0.04545,-7 z m -9.269887,3.8779 0,0.01 c -0.04624,0 -0.09588,0.018 -0.130682,0.051 l -1.607954,1.5199 c -0.06751,0.064 -0.07514,0.1611 -0.02557,0.2386 l 1.877841,2.9347 c -0.333506,0.5305 -0.604805,1.0985 -0.795455,1.7017 l -3.451705,0.679 c -0.09603,0.019 -0.164773,0.1059 -0.164773,0.1988 l 0,2.1478 c 0,0.09 0.07183,0.1689 0.164773,0.1903 l 3.346591,0.7699 c 0.178911,0.6983 0.455161,1.3657 0.821023,1.9744 l -1.9375,2.7926 c -0.0541,0.079 -0.04417,0.1813 0.02557,0.2472 l 1.607954,1.5227 c 0.06771,0.064 0.171074,0.069 0.252842,0.023 l 3.039772,-1.7443 c 0.596285,0.3257 1.240376,0.5877 1.920455,0.7614 l 0.710227,3.2244 c 0.01986,0.092 0.100531,0.1563 0.198864,0.1563 l 2.272728,0 c 0.09533,0 0.176215,-0.06 0.198862,-0.1478 l 0.84091,-3.2414 c 0.701393,-0.1789 1.362773,-0.4435 1.974432,-0.7841 l 2.994318,1.8579 c 0.0826,0.051 0.194175,0.043 0.264205,-0.023 l 1.596591,-1.5227 c 0.06793,-0.064 0.08668,-0.1613 0.03693,-0.2387 l -1.09375,-1.7017 -0.357953,0.108 c -0.05171,0.014 -0.108451,0 -0.1392,-0.051 0,0 -0.690755,-0.9578 -1.59091,-2.2045 -1.076549,1.9929 -3.26962,3.3551 -5.798295,3.3551 -3.593207,0 -6.508522,-2.76 -6.508522,-6.1591 0,-2.5005 1.580434,-4.6473 3.84375,-5.6108 l 0,-1.5852 c -0.411927,0.1367 -0.812115,0.2994 -1.190347,0.4943 -4.74e-4,-3e-4 7.76e-4,-0.014 0,-0.014 l -3.065341,-1.9006 c -0.04124,-0.026 -0.08445,-0.03 -0.130682,-0.026 z"
         class="ColorScheme-Text"
         id="path4158" />
      <path
         style="opacity:0.2;fill:#d3dae3;fill-opacity:1"
         d="M 25.400391,-8 C 24.624791,-8 24,-7.3752094 24,-6.5996094 l 0,1 C 24,-6.3752094 24.624791,-7 25.400391,-7 l 25.199218,0 C 51.375209,-7 52,-6.3752094 52,-5.5996094 l 0,-1 C 52,-7.3752094 51.375209,-8 50.599609,-8 l -25.199218,0 z"
         transform="translate(0,1030.3622)"
         id="rect4174" />
    </g>
  </g>
</svg>
