<svg xmlns="http://www.w3.org/2000/svg" width="22" height="22" version="1.1">
 <g id="22-22-start-here-kde">
  <rect width="22" height="22" x="0" y="0" style="opacity:0.001"/>
  <g>
   <path d="M 12.015625,2.9746094 9,3.5 V 13.886719 L 12,13.5 11.984375,8.8183594 15.523438,14 19,13.5 15,8.1367188 l 4.013672,-4.5 -3.519531,-0.6484376 -3.509766,4.5 z M 5.6738281,5.6269531 c -0.028972,0.00241 -0.056303,0.015109 -0.078125,0.037109 l -1.0351562,1.046875 c -0.04495,0.0453 -0.052447,0.1159219 -0.017578,0.1699219 l 1.25,1.9199218 C 5.5571593,9.2192619 5.3789844,9.6781034 5.2636719,10.158203 L 3.1054688,10.6875 C 3.0455625,10.7022 3,10.756359 3,10.818359 V 11.5 12.181641 c 0,0.062 0.045563,0.116159 0.1054688,0.130859 l 2.1582031,0.529297 c 0.1153125,0.4801 0.2934874,0.938942 0.5292969,1.357422 l -1.25,1.919922 c -0.034868,0.054 -0.027372,0.124623 0.017578,0.169921 l 1.0351562,1.046876 c 0.043643,0.044 0.1113563,0.04763 0.1640625,0.01562 L 7.71875,16.150391 c 0.3843281,0.2239 0.9855094,0.404037 1.4238281,0.523437 l 0.4589844,2.216797 C 9.614313,18.954629 9.6651406,19 9.7285156,19 H 10.5 11.271484 c 0.06338,0 0.114202,-0.04537 0.126954,-0.109375 l 0.458984,-2.216797 c 0.438319,-0.1194 1.039502,-0.299537 1.423828,-0.523437 l 1.958984,1.201171 c 0.05271,0.032 0.120422,0.02838 0.164063,-0.01562 l 1.035156,-1.046876 c 0.04495,-0.0453 0.05245,-0.115921 0.01758,-0.169921 l -1.041015,-1.59961 -0.128907,0.01953 -0.730468,-1.070312 c -0.746065,1.563963 -2.323843,2.560614 -4.056641,2.5625 -2.4852814,0 -4.5,-2.014719 -4.5,-4.5 C 6.00144,9.823124 6.9698489,8.263073 8.5,7.5039062 V 6.5214844 C 8.2147616,6.6165864 7.9344885,6.7239255 7.71875,6.8496094 L 5.7597656,5.6484375 c -0.026353,-0.016 -0.056965,-0.023891 -0.085937,-0.021484 z" style="fill:#d3dae3"/>
  </g>
 </g>
 <g id="start-here-kde">
  <rect width="32" height="32" x="-37" y="-3" style="opacity:0.001"/>
  <g transform="translate(-37,-3)">
   <path d="M 18,5 14,5.6054688 V 20.074219 L 18,19 V 13.410156 L 22,20 26,18.5 21,12.5 26.001953,6.0019531 22.121094,5 18,11.558594 Z M 9.8554688,8.9238281 c -0.094592,0 -0.1891851,0.036841 -0.2617188,0.109375 L 8.0214844,10.605469 c -0.1450675,0.145067 -0.1101437,0.352307 0,0.52539 l 1.6269531,2.554688 c -0.1205423,0.250221 -0.2249229,0.50791 -0.3125,0.771484 -0.00385,0.01134 -0.00989,0.02184 -0.013672,0.0332 l -2.9511718,0.65625 C 6.1708235,15.190994 6,15.312423 6,15.517578 V 16.5 17.482422 c 0,0.205155 0.1708235,0.32659 0.3710938,0.371094 l 2.9511718,0.65625 c 0.00646,0.0194 0.016787,0.03731 0.023437,0.05664 0.085245,0.256042 0.186352,0.506527 0.3027344,0.75 l -1.6269531,2.552735 c -0.1101437,0.173083 -0.1450675,0.380323 0,0.52539 L 9.59375,23.966797 c 0.1450675,0.145067 0.3783676,0.145067 0.523438,0 l 2.550781,-1.625 c 0.250759,0.121949 0.509105,0.227636 0.773437,0.316406 0.01735,0.0061 0.03339,0.01554 0.05078,0.02148 l 0.654296,2.949218 c 0,0.205156 0.16594,0.371094 0.371094,0.371094 h 2.220703 c 0.205155,0 0.32659,-0.170824 0.371094,-0.371094 l 0.654297,-3.039062 c 0.300604,-0.113013 0.592418,-0.248149 0.873047,-0.404297 l 2.490234,1.78125 c 0.145068,0.145067 0.378371,0.145067 0.523438,0 l 1.572265,-1.572266 c 0.145068,-0.145067 0.110144,-0.352307 0,-0.52539 l -0.947265,-1.4375 -0.09961,0.03711 c -0.225251,0.08461 -0.478825,-0.0032 -0.603515,-0.208984 L 20.576172,18.619141 C 19.746236,20.604336 17.786239,22 15.5,22 12.462434,22 10,19.537566 10,16.5 c 0,-2.33092 1.452799,-4.31835 3.5,-5.119141 v -1.095703 l -0.0078,0.03516 c -0.02208,0.0075 -0.04245,0.01957 -0.06445,0.02734 -0.260825,0.08662 -0.515895,0.189688 -0.763672,0.308594 L 10.117188,9.0332031 C 10.044652,8.9606696 9.9500611,8.9238281 9.8554688,8.9238281 Z" style="fill:#d3dae3"/>
  </g>
 </g>
</svg>
