<svg xmlns="http://www.w3.org/2000/svg" width="32" height="32" version="1.1" viewBox="0 0 32 32">
 <g id="22-22-system-suspend" transform="translate(-21.999999,-988.36218)">
  <rect width="22" height="22" x="0" y="1030.36" style="opacity:0.00100002"/>
  <g transform="matrix(1.0009385,0,0,0.99883233,-322.31608,1012.4029)">
   <path d="M 8.0449219,2 C 5.4709885,1.9800034 3.1612109,3.6075004 2.3203125,6.0351562 2.0969331,6.6800174 1.9985687,7.3426625 2,8 1.9989991,8.6573375 2.0969831,9.3199826 2.3203125,9.9648438 3.1612109,12.3925 5.4709885,14.02 8.0449219,14 10.618845,13.980003 12.900212,12.315429 13.703125,9.875 13.906195,9.2577756 14.001361,8.6263907 14,8 14.001001,7.3736093 13.906205,6.7422244 13.703125,6.125 12.900212,3.684571 10.618845,2.0199966 8.0449219,2 Z M 8.0292969,3.9980469 C 9.7515617,4.0114312 11.263538,5.1131547 11.800781,6.7460938 11.936599,7.1589011 12.00029,7.582557 12,8 12.00029,8.417443 11.936639,8.8410989 11.800781,9.2539062 11.263538,10.886845 9.7515617,11.988573 8.0292969,12.001953 6.307032,12.015337 4.7736051,10.936893 4.2109375,9.3125 4.0615674,8.8812761 3.9955932,8.4378711 3.9960938,8 3.9955932,7.5621289 4.0615574,7.1187239 4.2109375,6.6875 4.7736051,5.0631071 6.307032,3.9846625 8.0292969,3.9980469 Z M 5.8554688,7 C 5.3807835,7 5,7.446 5,8 5,8.554 5.3807835,9 5.8554688,9 L 10.142578,9 C 10.61726,9 11,8.554 11,8 11,7.446 10.61726,7 10.142578,7 L 5.8554688,7 Z" transform="matrix(0.99906238,0,0,1.001169,325.01106,20.983802)" style="fill:#d3dae3"/>
  </g>
 </g>
 <g id="22-22-system-switch-user" transform="translate(1e-6,-988.36218)">
  <rect width="22" height="22" x="0" y="1030.36" style="opacity:0.00100002"/>
  <path d="m 10.9943,1035.362 c -1.8700303,0 -3.3939153,1.5345 -3.4492153,3.4512 -0.0459,0.012 -0.0915,0.033 -0.13476,0.055 -0.43005,0.227 -0.54034,0.9343 -0.2461,1.5899 0.23672,0.5274 0.65753,0.8538 1.03906,0.8437 0.28723,1.7528 1.430425,3.0606 2.7910153,3.0606 l 0.0117,0 c 1.36059,0 2.5038,-1.3078 2.79102,-3.0606 0.38154,0.01 0.80234,-0.3163 1.03906,-0.8437 0.29424,-0.6556 0.18394,-1.3629 -0.24609,-1.5899 -0.0433,-0.023 -0.0888,-0.044 -0.13477,-0.055 -0.0553,-1.9167 -1.57919,-3.4512 -3.44922,-3.4512 l -0.0117,0 z m 2.40039,8 c -0.28889,0.7005 -1.27408,1.2246 -2.44922,1.2246 -1.1698503,0 -2.1455953,-0.5173 -2.4394453,-1.2129 -2.46908,0.2581 -4.26818,0.8896 -4.48438,1.6367 -0.003,0.01 0.002,0.016 0,0.024 -0.007,0.026 -0.007,0.049 -0.01,0.076 -10e-4,0.012 -0.0117,0.021 -0.0117,0.035 -9e-5,0 0,0.011 0,0.012 l 0,1.8477 c 0,0.1976 0.15571,0.3574 0.34961,0.3574 l 13.3007853,0 c 0.1939,0 0.3496,-0.1598 0.3496,-0.3574 l 0,-1.8477 c 0,-0.01 3.5e-4,-0.015 0,-0.023 -0.002,-0.043 -0.0208,-0.081 -0.0332,-0.123 -0.22075,-0.7563 -2.05842,-1.3964 -4.57226,-1.6484 z" style="fill:#d3dae3"/>
 </g>
 <g id="22-22-system-shutdown" transform="translate(-43.999999,-988.36218)">
  <rect width="22" height="22" x="0" y="1030.36" style="opacity:0.00100002"/>
  <path d="m 11.000336,1034.362 c -0.553987,0 -0.99995,0.4462 -0.99995,1 l 0,5.0019 c 0,0.5538 0.445963,0.9981 0.99995,0.9981 0.553988,0 0.99995,-0.4443 0.99995,-0.9981 l 0,-5.0019 c 0,-0.5538 -0.445962,-1 -0.99995,-1 z m 2.939305,1.9902 a 1.000176,0.99982748 0 0 0 -0.542942,1.8086 c 1.377976,1.0304 1.941017,2.8148 1.404226,4.4492 -0.536779,1.6344 -2.050513,2.7386 -3.771293,2.752 -1.7207811,0.013 -3.2501263,-1.0675 -3.8123083,-2.6934 -0.562183,-1.6258 -0.02587,-3.419 1.335869,-4.4707 a 1.000176,0.99982748 0 1 0 -1.222594,-1.582 c -2.035135,1.5718 -2.842036,4.2772 -2.001852,6.707 0.840173,2.4298 3.144793,4.0591 5.7165093,4.0391 2.571705,-0.02 4.853744,-1.6863 5.655965,-4.1289 0.80223,-2.4426 -0.04794,-5.1339 -2.107316,-6.6739 a 1.000176,0.99982748 0 0 0 -0.654264,-0.207 z" style="fill:#d3dae3"/>
 </g>
 <g id="22-22-system-log-out" transform="matrix(0,-1,1,0,-1096.3623,64)">
  <rect width="22" height="22" x="0" y="1030.36" style="opacity:0.00100002"/>
  <g id="layer12" transform="matrix(1.0009385,0,0,0.99883233,-322.31609,1012.4029)">
   <path d="M 8.0449219,2 C 5.4709885,1.98 3.161211,3.6075002 2.3203125,6.0351562 2.0969411,6.6800174 1.998566,7.342662 2,8 1.998566,8.657338 2.0969411,9.3199826 2.3203125,9.9648438 3.161211,12.3925 5.4709885,14.02 8.0449219,14 10.618845,13.980003 12.900212,12.315429 13.703125,9.875 13.906197,9.2577753 14.001356,8.626391 14,8 14.001356,7.373609 13.906197,6.7422247 13.703125,6.125 12.900212,3.6845712 10.618845,2.019997 8.0449219,2 Z M 8.0292969,3.9980469 C 9.7515617,4.0114279 11.263537,5.1131547 11.800781,6.7460938 11.9366,7.1589017 12.00029,7.5825571 12,8 12.00029,8.4174429 11.936599,8.8410983 11.800781,9.2539062 11.263537,10.886845 9.7515617,11.988572 8.0292969,12.001953 6.307032,12.015337 4.773605,10.936893 4.2109375,9.3125 4.0615674,8.881276 3.995597,8.4378713 3.9960938,8 3.995597,7.5621287 4.0615674,7.118724 4.2109375,6.6875 4.773605,5.0631072 6.307032,3.9846629 8.0292969,3.9980469 Z M 6.4746094,6 A 0.4736353,0.52746185 0 0 0 6.0625,6.7890625 L 7.5898438,9.734375 A 0.4736353,0.52746185 0 0 0 7.9746094,10 0.4736353,0.52746185 0 0 0 8.0234375,10 0.4736353,0.52746185 0 0 0 8.4101562,9.734375 L 9.9375,6.7890625 A 0.4736353,0.52746185 0 0 0 9.5273438,6 L 6.4746094,6 Z" transform="matrix(0.99906238,0,0,1.001169,325.01107,20.983802)" style="fill:#d3dae3"/>
  </g>
 </g>
 <g id="22-22-system-reboot" transform="matrix(-1,0,0,1,-65.999999,-988.36218)">
  <rect width="22" height="22" x="0" y="1030.36" style="opacity:0.00100002"/>
  <path d="m 11.475393,1035.3621 a 0.4736353,0.52746183 0 0 0 -0.412109,0.7891 l 1.527343,2.9453 a 0.4736353,0.52746183 0 0 0 0.384766,0.2656 0.4736353,0.52746183 0 0 0 0.04883,0 0.4736353,0.52746183 0 0 0 0.386718,-0.2656 l 0.326172,-0.6289 c 1.12174,1.0534 1.553588,2.6586 1.064453,4.1465 -0.536781,1.6327 -2.050703,2.7366 -3.771484,2.75 -1.7207807,0.013 -3.2503167,-1.0672 -3.8124997,-2.6915 -0.562183,-1.6242 -0.02584,-3.4141 1.335938,-4.4648 a 1.0005526,0.99921387 0 1 0 -1.222657,-1.582 c -2.035134,1.5702 -2.842137,4.2737 -2.001953,6.7011 0.840174,2.4275 3.145082,4.0552 5.7167967,4.0352 2.571705,-0.02 4.854029,-1.6848 5.65625,-4.125 0.789982,-2.4029 -0.02804,-5.0426 -2.019531,-6.5918 l 0.255859,-0.4941 a 0.4736353,0.52746183 0 0 0 -0.410156,-0.7891 l -3.052734,0 z" style="fill:#d3dae3"/>
 </g>
 <g id="22-22-system-suspend-hibernate" transform="translate(-110,-988.36218)">
  <rect width="22" height="22" x="0" y="1030.36" style="opacity:0.00100002"/>
  <g transform="matrix(1.0009385,0,0,0.99883233,-322.31607,1012.4029)">
   <path d="M 80.044922,2 C 77.470989,1.9800034 75.161212,3.6075014 74.320312,6.0351562 74.096933,6.6800174 73.998569,7.3426625 74,8 73.999,8.6573375 74.09698,9.3199826 74.320312,9.9648438 75.161212,12.3925 77.470989,14.02 80.044922,14 82.618845,13.98 84.900212,12.315429 85.703125,9.875 85.906195,9.2577756 86.001361,8.6263907 86,8 86.001001,7.3736093 85.906205,6.7422244 85.703125,6.125 84.900212,3.684571 82.618845,2.0199966 80.044922,2 Z m -0.01563,1.9980469 c 1.722265,0.013384 3.234241,1.1151078 3.771484,2.7480469 C 83.936599,7.1589011 84.00029,7.582557 84,8 84.00029,8.417443 83.936639,8.8410989 83.800781,9.2539062 83.263538,10.886845 81.751562,11.988574 80.029297,12.001953 78.307032,12.015337 76.773605,10.936893 76.210938,9.3125 76.061566,8.8812761 75.995593,8.4378711 75.996094,8 75.995593,7.5621289 76.061556,7.1187239 76.210938,6.6875 76.773605,5.0631071 78.307032,3.9846625 80.029297,3.9980469 Z M 80,6 a 2,2 0 0 0 -2,2 2,2 0 0 0 2,2 2,2 0 0 0 2,-2 2,2 0 0 0 -2,-2 z" transform="matrix(0.99906238,0,0,1.001169,253.07856,20.983802)" style="fill:#d3dae3"/>
  </g>
 </g>
 <g id="22-22-system-lock-screen" transform="translate(22.000001,-988.36218)">
  <rect width="22" height="22" x="0" y="1030.36" style="opacity:0.00100002"/>
  <path d="m 11,1034.3622 c -2.216,0 -4,1.8216 -4,4.0625 l 0,1.9375 -1,0 c -0.554,0 -1,0.446 -1,1 l 0,6 c 0,0.554 0.446,1 1,1 l 10,0 c 0.554,0 1,-0.446 1,-1 l 0,-6 c 0,-0.554 -0.446,-1 -1,-1 l -1,0 0,-1.9375 c 0,-2.24 -1.784,-4.0625 -4,-4.0625 z m 0,2 c 1.108,0 2,0.892 2,2 l 0,2 -4,0 0,-2 c 0,-1.108 0.892,-2 2,-2 z" style="fill:#d3dae3"/>
 </g>
 <g id="system-log-out" transform="translate(0,-1020.3622)">
  <rect width="32" height="32" x="96" y="1020.36" style="opacity:0.00100002"/>
  <g transform="translate(96,1020.3622)">
   <circle cx="16" cy="16" r="14" style="fill:#7bbb36"/>
   <path d="m 16,8 a 9,9 0 0 1 9,9 9,9 0 0 1 -9,9 9,9 0 0 1 -9,-9 9,9 0 0 1 9,-9 z m 0,2 a 7,7 0 0 0 -7,7 7,7 0 0 0 7,7 7,7 0 0 0 7,-7 7,7 0 0 0 -7,-7 z m 0,4 1.9824,1.5391 2.018,1.461 -2.017,1.461 -1.983,1.539 0.024,-2 -3.024,0 c -0.554,0 -1,-0.446 -1,-1 0,-0.554 0.446,-1 1,-1 l 3.0234,0 -0.02344,-2 z" style="opacity:0.2"/>
   <path d="m 16,7 a 9,9 0 0 1 9,9 9,9 0 0 1 -9,9 9,9 0 0 1 -9,-9 9,9 0 0 1 9,-9 z m 0,2 a 7,7 0 0 0 -7,7 7,7 0 0 0 7,7 7,7 0 0 0 7,-7 7,7 0 0 0 -7,-7 z m 0,4 1.9824,1.5391 2.018,1.461 -2.017,1.461 -1.983,1.539 0.024,-2 -3.024,0 c -0.554,0 -1,-0.446 -1,-1 0,-0.554 0.446,-1 1,-1 l 3.0234,0 -0.02344,-2 z" style="fill:#ffffff"/>
   <path d="M 16,2 A 14,14 0 0 0 2,16 14,14 0 0 0 2.0215,16.586 14,14 0 0 1 15.9995,3 14,14 0 0 1 29.9785,16.414 14,14 0 0 0 29.9995,16 a 14,14 0 0 0 -14,-14 z" style="opacity:0.2;fill:#d3dae3"/>
   <path d="M 29.979,16.414 A 14,14 0 0 1 16,30 14,14 0 0 1 2.022,16.586 14,14 0 0 0 2,17 14,14 0 0 0 16,31 14,14 0 0 0 30,17 14,14 0 0 0 29.979,16.414 Z" style="opacity:0.2"/>
  </g>
 </g>
 <g id="system-shutdown" transform="translate(0,-1020.3622)">
  <rect width="32" height="32" x="32" y="1020.36" style="opacity:0.00100002"/>
  <g transform="translate(32,1020.3622)">
   <circle cx="16" cy="16" r="14" style="fill:#c2352a"/>
   <path d="m 16,8 a 9,9 0 0 0 -9,9 9,9 0 0 0 9,9 9,9 0 0 0 9,-9 9,9 0 0 0 -9,-9 z m 0,2 a 7,7 0 0 1 7,7 7,7 0 0 1 -7,7 7,7 0 0 1 -7,-7 7,7 0 0 1 7,-7 z m 0,3 c -0.554,0 -1,0.446 -1,1 l 0,6 c 0,0.554 0.446,1 1,1 0.554,0 1,-0.446 1,-1 l 0,-6 c 0,-0.554 -0.446,-1 -1,-1 z" style="opacity:0.2"/>
   <path d="m 16,7 a 9,9 0 0 0 -9,9 9,9 0 0 0 9,9 9,9 0 0 0 9,-9 9,9 0 0 0 -9,-9 z m 0,2 a 7,7 0 0 1 7,7 7,7 0 0 1 -7,7 7,7 0 0 1 -7,-7 7,7 0 0 1 7,-7 z m 0,3 c -0.554,0 -1,0.446 -1,1 l 0,6 c 0,0.554 0.446,1 1,1 0.554,0 1,-0.446 1,-1 l 0,-6 c 0,-0.554 -0.446,-1 -1,-1 z" style="fill:#ffffff"/>
   <path d="M 16,2 A 14,14 0 0 0 2,16 14,14 0 0 0 2.0215,16.586 14,14 0 0 1 15.9995,3 14,14 0 0 1 29.9785,16.414 14,14 0 0 0 29.9995,16 a 14,14 0 0 0 -14,-14 z" style="opacity:0.2;fill:#d3dae3"/>
   <path d="M 29.979,16.414 A 14,14 0 0 1 16,30 14,14 0 0 1 2.022,16.586 14,14 0 0 0 2,17 14,14 0 0 0 16,31 14,14 0 0 0 30,17 14,14 0 0 0 29.979,16.414 Z" style="opacity:0.2"/>
  </g>
 </g>
 <g id="system-suspend-hibernate" transform="translate(64,-1020.3622)">
  <rect width="32" height="32" x="0" y="1020.36" style="opacity:0.00100002"/>
  <g transform="translate(0,1020.3622)">
   <circle cx="16" cy="16" r="14" style="fill:#9f65d3"/>
   <path d="m 16,8 c -4.9706,0 -9,4.0294 -9,9 0,4.9706 4.0294,9 9,9 4.9706,0 9,-4.0294 9,-9 0,-4.9706 -4.0294,-9 -9,-9 z m 0,2 c 3.866,0 7,3.134 7,7 0,3.866 -3.134,7 -7,7 -3.866,0 -7,-3.134 -7,-7 0,-3.866 3.134,-7 7,-7 z m 0,5 a 2,2 0 0 0 -2,2 2,2 0 0 0 2,2 2,2 0 0 0 2,-2 2,2 0 0 0 -2,-2 z" style="opacity:0.2"/>
   <path d="m 16,7 c -4.9706,0 -9,4.0294 -9,9 0,4.9706 4.0294,9 9,9 4.9706,0 9,-4.0294 9,-9 0,-4.9706 -4.0294,-9 -9,-9 z m 0,2 c 3.866,0 7,3.134 7,7 0,3.866 -3.134,7 -7,7 -3.866,0 -7,-3.134 -7,-7 0,-3.866 3.134,-7 7,-7 z m 0,5 a 2,2 0 0 0 -2,2 2,2 0 0 0 2,2 2,2 0 0 0 2,-2 2,2 0 0 0 -2,-2 z" style="fill:#ffffff"/>
   <path d="M 16,2 A 14,14 0 0 0 2,16 14,14 0 0 0 2.0215,16.586 14,14 0 0 1 15.9995,3 14,14 0 0 1 29.9785,16.414 14,14 0 0 0 29.9995,16 a 14,14 0 0 0 -14,-14 z" style="opacity:0.2;fill:#d3dae3"/>
   <path d="M 29.979,16.414 A 14,14 0 0 1 16,30 14,14 0 0 1 2.022,16.586 14,14 0 0 0 2,17 14,14 0 0 0 16,31 14,14 0 0 0 30,17 14,14 0 0 0 29.979,16.414 Z" style="opacity:0.2"/>
  </g>
 </g>
 <g id="system-switch-user" transform="translate(160,-1020.3622)">
  <rect width="32" height="32" x="0" y="1020.36" style="opacity:0.00100002"/>
  <g transform="translate(0,1020.3622)">
   <circle cx="16" cy="16" r="14" style="fill:#36bb94"/>
   <path d="m 13,8.9999 c -0.665,0 -1,0.4129 -1,0.9258 l 0,11.074 -3,0 4,4 4,-4 -3,0 0,-11.074 c 0,-0.5129 -0.335,-0.926 -1,-0.926 z m 6,0 -4,4 3,0 0,11.074 c 0,0.513 0.335,0.926 1,0.926 0.6648,0 1,-0.41291 1,-0.92578 l 0,-11.074 3,0 -4,-4 z" style="opacity:0.2;fill-rule:evenodd"/>
   <path d="m 13,8 c -0.665,0 -1,0.4129 -1,0.9258 l 0,11.074 -3,0 4,4 4,-4 -3,0 0,-11.074 c 0,-0.5129 -0.335,-0.926 -1,-0.926 z m 6,0 -4,4 3,0 0,11.074 c 0,0.513 0.335,0.926 1,0.926 0.6648,0 1,-0.41291 1,-0.92578 l 0,-11.074 3,0 -4,-4 z" style="fill:#ffffff;fill-rule:evenodd"/>
   <path d="M 16,2 A 14,14 0 0 0 2,16 14,14 0 0 0 2.0215,16.586 14,14 0 0 1 15.9995,3 14,14 0 0 1 29.9785,16.414 14,14 0 0 0 29.9995,16 a 14,14 0 0 0 -14,-14 z" style="opacity:0.2;fill:#d3dae3"/>
   <path d="M 29.979,16.414 A 14,14 0 0 1 16,30 14,14 0 0 1 2.022,16.586 14,14 0 0 0 2,17 14,14 0 0 0 16,31 14,14 0 0 0 30,17 14,14 0 0 0 29.979,16.414 Z" style="opacity:0.2"/>
  </g>
 </g>
 <g id="system-suspend" transform="translate(-32,-1020.3622)">
  <rect width="32" height="32" x="0" y="1020.36" style="opacity:0.00100002"/>
  <g transform="translate(0,1020.3622)">
   <circle cx="16" cy="16" r="14" style="fill:#41a5c7"/>
   <path d="m 25,17 a 9,9 0 0 0 -9,-9 9,9 0 0 0 -9,9 9,9 0 0 0 9,9 9,9 0 0 0 9,-9 z m -2,0 a 7,7 0 0 1 -7,7 7,7 0 0 1 -7,-7 7,7 0 0 1 7,-7 7,7 0 0 1 7,7 z m -3,0 c 0,-0.554 -0.446,-1 -1,-1 l -6,0 c -0.554,0 -1,0.446 -1,1 0,0.554 0.446,1 1,1 l 6,0 c 0.554,0 1,-0.446 1,-1 z" style="opacity:0.2"/>
   <path d="m 25,16 a 9,9 0 0 0 -9,-9 9,9 0 0 0 -9,9 9,9 0 0 0 9,9 9,9 0 0 0 9,-9 z m -2,0 a 7,7 0 0 1 -7,7 7,7 0 0 1 -7,-7 7,7 0 0 1 7,-7 7,7 0 0 1 7,7 z m -3,0 c 0,-0.554 -0.446,-1 -1,-1 l -6,0 c -0.554,0 -1,0.446 -1,1 0,0.554 0.446,1 1,1 l 6,0 c 0.554,0 1,-0.446 1,-1 z" style="fill:#ffffff"/>
   <path d="M 16,2 A 14,14 0 0 0 2,16 14,14 0 0 0 2.0215,16.586 14,14 0 0 1 15.9995,3 14,14 0 0 1 29.9785,16.414 14,14 0 0 0 29.9995,16 a 14,14 0 0 0 -14,-14 z" style="opacity:0.2;fill:#d3dae3"/>
   <path d="M 29.979,16.414 A 14,14 0 0 1 16,30 14,14 0 0 1 2.022,16.586 14,14 0 0 0 2,17 14,14 0 0 0 16,31 14,14 0 0 0 30,17 14,14 0 0 0 29.979,16.414 Z" style="opacity:0.2"/>
  </g>
 </g>
 <g id="system-reboot" transform="translate(0,-1020.3622)">
  <rect width="32" height="32" x="0" y="1020.36" style="opacity:0.00100002"/>
  <g transform="translate(0,1020.3622)">
   <circle cx="16" cy="16" r="14" style="fill:#eac046"/>
   <path d="m 14,5 0,3.2344 C 9.9084,9.167 7.0044,12.803 7,17 c 0,4.9706 4.0294,9 9,9 4.5795,-0.0054 8.4248,-3.4488 8.9336,-8 0,0 0.06641,-1 -0.93359,-1 -1,0 -1.0801,1 -1.0801,1 -0.497,3.441 -3.443,5.996 -6.92,6 -3.866,0 -7,-3.134 -7,-7 0.0031,-3.093 2.036,-5.817 5,-6.701 l 0,2.701 4,-4 z" style="opacity:0.2"/>
   <path d="m 14,4 0,3.2344 C 9.9084,8.1669 7.0044,11.803 7,16 c 0,4.9706 4.0294,9 9,9 4.5795,-0.0054 8.4248,-3.4488 8.9336,-8 0,0 0.06641,-1 -0.93359,-1 -1,0 -1.0801,1 -1.0801,1 -0.497,3.441 -3.443,5.996 -6.92,6 -3.866,0 -7,-3.134 -7,-7 0.0031,-3.093 2.036,-5.817 5,-6.701 l 0,2.701 4,-4 z" style="fill:#ffffff"/>
   <path d="M 16,2 A 14,14 0 0 0 2,16 14,14 0 0 0 2.0215,16.586 14,14 0 0 1 15.9995,3 14,14 0 0 1 29.9785,16.414 14,14 0 0 0 29.9995,16 a 14,14 0 0 0 -14,-14 z" style="opacity:0.2;fill:#d3dae3"/>
   <path d="M 29.979,16.414 A 14,14 0 0 1 16,30 14,14 0 0 1 2.022,16.586 14,14 0 0 0 2,17 14,14 0 0 0 16,31 14,14 0 0 0 30,17 14,14 0 0 0 29.979,16.414 Z" style="opacity:0.2"/>
  </g>
 </g>
 <g id="system-lock-screen" transform="translate(0,-1020.3622)">
  <rect width="32" height="32" x="128" y="1020.36" style="opacity:0.00100002"/>
  <g transform="translate(128,1.7382813e-5)">
   <circle cx="16" cy="1037.362" r="14" style="opacity:0.2"/>
   <circle cx="16" cy="1036.362" r="14" style="fill:#ea882b"/>
   <path d="m 16,1027.3623 c -2.8204,0 -5,2.2937 -5,5.1429 l 0,1.857 -1.1091,0 c -0.4932,0 -0.8909,0.473 -0.8909,0.971 l 0,9.129 c 0,0.498 0.3977,0.9 0.8909,0.9 l 12.218,0 c 0.493,0 0.891,-0.402 0.891,-0.9 l 0,-9.1286 c 0,-0.498 -0.399,-1.003 -0.891,-0.971 l -1.109,0 0,-1.857 c 0,-2.8493 -2.18,-5.143 -5,-5.143 z m 0,2 c 1.7627,0 3,1.3621 3,3.1429 l 0,1.857 -6,0 0,-1.857 c 0,-1.781 1.237,-3.143 3,-3.143 z" style="opacity:0.2"/>
   <path d="m 16,1026.3624 c -2.8204,0 -5,2.2937 -5,5.1429 l 0,1.857 -1.1091,0 c -0.4932,0 -0.8909,0.473 -0.8909,0.971 l 0,9.129 c 0,0.498 0.3977,0.9 0.8909,0.9 l 12.218,0 c 0.493,0 0.891,-0.402 0.891,-0.9 l 0,-9.1286 c 0,-0.498 -0.399,-1.003 -0.891,-0.971 l -1.109,0 0,-1.857 c 0,-2.8493 -2.18,-5.143 -5,-5.143 z m 0,2 c 1.7627,0 3,1.3621 3,3.1429 l 0,1.857 -6,0 0,-1.857 c 0,-1.781 1.237,-3.143 3,-3.143 z" style="fill:#ffffff"/>
   <path d="M 16,2 A 14,14 0 0 0 2,16 14,14 0 0 0 2.0214844,16.585938 14,14 0 0 1 16,3 14,14 0 0 1 29.978516,16.414062 14,14 0 0 0 30,16 14,14 0 0 0 16,2 Z" transform="translate(0,1020.3622)" style="opacity:0.2;fill:#d3dae3"/>
  </g>
 </g>
</svg>
