<svg xmlns="http://www.w3.org/2000/svg" width="32" height="32" version="1.1">
 <g id="system-user-prompt" transform="translate(352)">
  <rect style="opacity:0.001" width="32" height="32" x="0" y="0"/>
  <path style="fill:#d3dae3" d="M 3.4628906,6 C 2.3393719,5.9986321 1.6360925,7.0403426 2.1972656,7.8730469 l 2.1074219,4.8984371 0.6972656,1.03125 v 6.72461 C 5.0019531,23.00405 7.5238772,25 10.035156,25 H 25.466797 C 27.978075,25 30,23.00405 30,20.527344 V 10.472656 C 30,7.9959513 27.978075,6 25.466797,6 H 16.683594 10.035156 9.3710938 Z M 11.636719,9 H 24.365234 C 24.7178,9 25,9.4459971 25,10 c 0,0.553999 -0.2822,1 -0.634766,1 H 11.636719 C 11.284169,11 11,10.553999 11,10 11,9.4459971 11.284169,9 11.636719,9 Z m 0,5 H 24.365234 C 24.7178,14 25,14.445999 25,15 c 0,0.554001 -0.2822,1 -0.634766,1 H 11.636719 C 11.284169,16 11,15.554001 11,15 c 0,-0.554001 0.284169,-1 0.636719,-1 z m 0.08008,5 h 8.570312 C 20.682827,19 21,19.445999 21,20 c 0,0.553998 -0.317173,1 -0.712891,1 H 11.716797 C 11.321081,21 11,20.553998 11,20 c 0,-0.554001 0.321081,-1 0.716797,-1 z"/>
 </g>
 <g id="22-22-system-software-update" transform="translate(-54,-72)">
  <rect style="opacity:0.001" width="22" height="22" x="0" y="32"/>
  <path style="fill:#d3dae3" d="m 11,35 c -4.4183,0 -8,3.5817 -8,8 0,4.418 3.5817,8 8,8 4.418,0 8,-3.582 8,-8 0,-4.4183 -3.582,-8 -8,-8 z m 0,2 c 1.495771,0 2.989091,0.560161 4.148438,1.671875 -0.370703,0.143824 -0.713602,0.377967 -0.976563,0.75 l -0.460937,0.654297 C 12.142097,38.621879 9.6974738,38.646276 8.171875,40.171875 7.3909653,40.952785 7.0040093,41.976417 7.0039062,43 h 0.296875 A 0.69923716,0.5746971 1.1588047e-6 0 1 7.90625,43.861328 l -0.6503906,0.925781 -0.6523438,0.925782 a 0.69923716,0.5746971 1.1588047e-6 0 1 -1.2089844,0 L 4.7441406,44.787109 4.09375,43.861328 A 0.69923716,0.5746971 1.1588047e-6 0 1 4.4921875,43.025391 0.69923716,0.5746971 1.1588047e-6 0 1 4.6972656,43 H 5.0019531 C 5.0020237,41.464515 5.5863637,39.929261 6.7578125,38.757812 7.9293912,37.586234 9.464469,37 11,37 Z m 4.962891,3.001953 a 0.69923716,0.5746971 1.1588047e-6 0 1 0.642578,0.285156 l 0.65039,0.925782 0.650391,0.925781 A 0.69923716,0.5746971 1.1588047e-6 0 1 17.507812,42.974609 0.69923716,0.5746971 1.1588047e-6 0 1 17.302734,43 h -0.304687 c -7.1e-5,1.535485 -0.584412,3.070735 -1.755859,4.242188 C 14.070609,48.413764 12.535531,49 11,49 9.5050912,49 8.0125771,48.440509 6.8535156,47.330078 c 0.363732,-0.140945 0.7082551,-0.373476 0.9746094,-0.75 v -0.002 l 0.4609375,-0.654297 c 1.5688391,1.454293 4.0134635,1.429896 5.5390625,-0.0957 C 14.609035,45.047215 14.995991,44.023583 14.996094,43 H 14.699219 A 0.69923716,0.5746971 1.1588047e-6 0 1 14.09375,42.138672 l 0.650391,-0.925781 0.652343,-0.925782 a 0.69923716,0.5746971 1.1588047e-6 0 1 0.566407,-0.285156 z"/>
 </g>
 <g id="22-22-system-shutdown" transform="translate(-15,-45)">
  <rect style="opacity:0.001" width="22" height="22" x="5" y="5"/>
  <path style="fill:#d3dae3" d="M 15.985352,7.9999031 A 1.0001,0.9966092 0 0 0 15,9.0096686 V 14.98916 a 1.0001,0.9966092 0 1 0 2,0 V 9.0096686 A 1.0001,0.9966092 0 0 0 15.985352,7.9999031 Z m -3.356446,2.0009759 a 1.0001608,1.0010221 0 0 0 -0.533203,0.176758 c -2.5474257,1.713274 -3.6839537,4.900139 -2.7968747,7.840821 0.8870797,2.940681 3.5949607,4.965361 6.6640627,4.981445 3.069102,0.01609 5.798998,-1.979911 6.716797,-4.911133 0.917799,-2.931224 -0.185483,-6.129262 -2.714843,-7.869141 a 1.0001608,1.0010221 0 1 0 -1.132814,1.648437 c 1.812622,1.246854 2.597178,3.521463 1.939454,5.622071 -0.657724,2.100608 -2.598436,3.519339 -4.797852,3.507813 -2.199416,-0.01152 -4.124056,-1.450231 -4.759766,-3.557618 -0.635709,-2.107387 0.171503,-4.373776 1.997071,-5.601563 a 1.0001608,1.0010221 0 0 0 -0.582032,-1.83789 z"/>
 </g>
 <g id="22-22-system-reboot" transform="translate(7,-45)">
  <rect style="opacity:0.001" width="22" height="22" x="5" y="5"/>
  <path style="fill:#d3dae3" d="m 16.015625,9 a 1.0001,1.0001 0 1 0 -0.0039,2 c 1.397778,0.0024 2.730544,0.589407 3.675775,1.619141 0.850536,0.926572 1.310887,2.133499 1.310547,3.380859 h -1.994141 l 1.5,2 1.5,2 1.5,-2 1.5,-2 H 22.998047 C 22.997824,14.254653 22.349711,12.561524 21.160156,11.265625 19.837636,9.824874 17.971338,9.003413 16.015625,9 Z M 10,12 8.5,14 7,16 h 2.0058594 c 2.232e-4,1.745347 0.6483363,3.438476 1.8378906,4.734375 1.32252,1.440752 3.188818,2.262212 5.144531,2.265625 a 1.0001,1.0001 0 1 0 0.0039,-2 C 14.594406,20.99756 13.261637,20.410593 12.316406,19.380859 11.46587,18.454287 11.005519,17.24736 11.005859,16 H 13 l -1.5,-2 z"/>
 </g>
 <g id="22-22-system-save-session" transform="translate(-37,-45)">
  <rect style="opacity:0.001" width="22" height="22" x="5" y="5"/>
  <path style="fill:#d3dae3" d="m 10,9.0000001 c -0.55,0 -1,0.45 -1,0.9999999 v 11 l 1.999999,2 H 22 c 0.55,0 1,-0.45 1,-1 V 10 C 23,9.45 22.55,9 22,9 Z M 10.999999,11 H 21 v 10 h -1 v -5 h -8.000001 v 5 h -1 z M 16,17 h 2 v 4 h -2 z"/>
 </g>
 <g id="22-22-system-suspend" transform="translate(29,-45)">
  <rect style="opacity:0.001" width="22" height="22" x="5" y="5"/>
  <path style="fill:#d3dae3" d="m 16,9 a 7,7 0 0 0 -7,7 7,7 0 0 0 7,7 7,7 0 0 0 7,-7 7,7 0 0 0 -7,-7 z m 0,2 a 5,5 0 0 1 5,5 5,5 0 0 1 -5,5 5,5 0 0 1 -5,-5 5,5 0 0 1 5,-5 z m -1.990234,4 a 0.99537445,1.0001 0 1 0 0,2 h 3.980469 a 0.99537445,1.0001 0 1 0 0,-2 z"/>
 </g>
 <g id="22-22-system-suspend-hibernate" transform="translate(51,-45)">
  <rect style="opacity:0.001" width="22" height="22" x="5" y="5"/>
  <path style="fill:#d3dae3" d="m 16,9 a 7,7 0 0 0 -7,7 7,7 0 0 0 7,7 7,7 0 0 0 7,-7 7,7 0 0 0 -7,-7 z m 0,2 a 5,5 0 0 1 5,5 5,5 0 0 1 -5,5 5,5 0 0 1 -5,-5 5,5 0 0 1 5,-5 z m 0,3 a 1.9999998,1.9999998 0 0 0 -2,2 1.9999998,1.9999998 0 0 0 2,2 1.9999998,1.9999998 0 0 0 2,-2 1.9999998,1.9999998 0 0 0 -2,-2 z"/>
 </g>
 <g id="22-22-system-log-out" transform="translate(73,-45)">
  <rect style="opacity:0.001" width="22" height="22" x="5" y="5"/>
  <path style="fill:#d3dae3" d="m 15.818271,9.0027023 c -0.209035,0.00578 -0.417466,0.020695 -0.625,0.044925 -1.660273,0.193856 -3.251137,0.9749297 -4.431641,2.3047377 -2.3610069,2.659615 -2.3473049,6.687193 0.03223,9.330277 2.379537,2.643085 6.387181,3.083813 9.284179,1.019553 1.089858,-0.774228 -0.07499,-2.406614 -1.163085,-1.629917 -2.080767,1.482652 -4.922736,1.171814 -6.631836,-0.726578 -1.7091,-1.898394 -1.719229,-4.754915 -0.02343,-6.665182 1.69579,-1.910265 4.535876,-2.242535 6.626953,-0.774431 1.09802,0.801101 2.278302,-0.875336 1.152343,-1.636754 C 18.765266,9.3750786 17.281519,8.962265 15.818281,9.0027023 Z m 4.18164,3.4971457 v 2.500054 h -3 c -0.552285,0 -1,0.447725 -1,1.000021 0,0.552296 0.447715,1.000021 1,1.000021 h 3 v 2.500054 l 4.5,-3.500075 z"/>
 </g>
 <g id="22-22-system-lock-screen" transform="translate(95,-45)">
  <rect style="opacity:0.001" width="22" height="22" x="5" y="5"/>
  <path style="fill:#d3dae3" d="m 16,9 c -2.216,0 -4,1.784 -4,4 v 2 h -1 c -0.554,0 -1,0.446 -1,1 v 6 c 0,0.554 0.446,1 1,1 h 10 c 0.554,0 1,-0.446 1,-1 v -6 c 0,-0.554 -0.446,-1 -1,-1 H 20 V 13 C 20,10.784 18.216,9 16,9 Z m 0,2 c 1.108,0 2,0.892 2,2 v 2 h -4 v -2 c 0,-1.108 0.892,-2 2,-2 z"/>
 </g>
 <g id="22-22-system-switch-user" transform="translate(117,-45)">
  <rect style="opacity:0.001" width="22" height="22" x="5" y="5"/>
  <path style="fill:#d3dae3" d="m 20,9.0000884 c -0.504781,0 -1.00956,0.337357 -1,1.0117176 v 7.988282 h -2.5 l 3.5,4.5 3.5,-4.5 H 21 V 10.011806 C 21.0096,9.3374454 20.504781,9.0000884 20,9.0000884 Z m -8,0.5 -3.4999998,4.4999996 H 11 v 7.988281 c -0.01913,1.348723 2.019125,1.348723 2,0 v -7.988281 h 2.5 z"/>
 </g>
 <g id="system-software-update">
  <rect style="opacity:0.001" width="32" height="32" x="0" y="0"/>
  <path style="fill:#d3dae3" d="M 16 2 C 8.267975 2 2 8.267975 2 16 C 2 23.7315 8.267975 30 16 30 C 23.7315 30 30 23.7315 30 16 C 30 8.267975 23.7315 2 16 2 z M 16 5 C 18.742247 5 21.479999 6.0263106 23.605469 8.0644531 C 22.925846 8.3281304 22.296548 8.7573925 21.814453 9.4394531 L 20.970703 10.640625 C 18.094494 7.9744211 13.611385 8.0175212 10.814453 10.814453 C 9.3827859 12.246121 8.6740179 14.123431 8.6738281 16 L 9.21875 16 A 1.2819349 1.0536114 1.1588047e-06 0 1 10.328125 17.580078 L 9.1367188 19.277344 L 7.9394531 20.974609 A 1.2819349 1.0536114 1.1588047e-06 0 1 5.7226562 20.974609 L 4.53125 19.277344 L 3.3378906 17.580078 A 1.2819349 1.0536114 1.1588047e-06 0 1 4.0683594 16.046875 A 1.2819349 1.0536114 1.1588047e-06 0 1 4.4453125 16 L 5.0039062 16 C 5.0040347 13.184946 6.0749997 10.370313 8.2226562 8.2226562 C 10.37055 6.074763 13.18486 5 16 5 z M 25.099609 10.503906 A 1.2819349 1.0536114 1.1588047e-06 0 1 26.277344 11.025391 L 27.46875 12.724609 L 28.662109 14.421875 A 1.2819349 1.0536114 1.1588047e-06 0 1 27.931641 15.953125 A 1.2819349 1.0536114 1.1588047e-06 0 1 27.554688 16 L 26.996094 16 C 26.995964 18.815056 25.924997 21.62968 23.777344 23.777344 C 21.629449 25.925232 18.815141 27 16 27 C 13.259334 27 10.523384 25.97329 8.3984375 23.9375 C 9.0652795 23.679101 9.69723 23.252794 10.185547 22.5625 L 10.185547 22.560547 L 11.029297 21.359375 C 13.905502 24.025579 18.388615 23.982473 21.185547 21.185547 C 22.617215 19.753959 23.325984 17.876569 23.326172 16 L 22.78125 16 A 1.2819349 1.0536114 1.1588047e-06 0 1 21.671875 14.419922 L 22.865234 12.722656 L 24.060547 11.025391 A 1.2819349 1.0536114 1.1588047e-06 0 1 25.099609 10.503906 z"/>
 </g>
 <g id="system-shutdown" transform="translate(64)">
  <rect style="opacity:0.001" width="32" height="32" x="0" y="0"/>
  <path style="fill:#d3dae3" d="m 15.970707,1.0000101 a 2.0002,1.9932184 0 0 0 -1.97071,2.019531 V 14.978524 a 2.0002,1.9932184 0 1 0 4,0 V 3.0195411 a 2.0002,1.9932184 0 0 0 -2.02929,-2.019531 z m -6.7128903,4.001952 a 2.0003216,2.0020442 0 0 0 -1.06641,0.353516 c -5.09485,3.426548 -7.36790997,9.8002779 -5.59375,15.6816419 1.77416,5.881362 7.18992,9.930722 13.3281303,9.96289 6.1382,0.03218 11.59799,-3.959822 13.43359,-9.822266 1.8356,-5.862448 -0.37097,-12.2585239 -5.42969,-15.7382819 a 2.0003216,2.0020442 0 1 0 -2.26562,3.296874 c 3.62524,2.4937079 5.19435,7.0429259 3.8789,11.2441419 -1.31544,4.201216 -5.19687,7.038678 -9.5957,7.015626 -4.39883,-0.02304 -8.2481103,-2.900462 -9.5195303,-7.115236 -1.27142,-4.214774 0.343,-8.747552 3.9941403,-11.2031259 a 2.0003216,2.0020442 0 0 0 -1.1640603,-3.67578 z"/>
 </g>
 <g id="system-reboot" transform="translate(96)">
  <rect style="opacity:0.001" width="32" height="32" x="0" y="0"/>
  <path style="fill:#d3dae3" d="m 15.03125,2 c -2.704206,-0.043153 -2.712166,4.0326065 -0.0078,4 2.795556,0.0048 5.4611,1.1788132 7.351562,3.2382812 C 24.076072,11.091425 24.996774,13.50528 24.996094,16 H 22 L 27.007812,24 32,16 H 28.996094 C 28.995648,12.509306 27.699422,9.123048 25.320312,6.53125 22.675272,3.649748 18.942676,2.006826 15.03125,2 Z M 5,8 0,16 h 3.0117188 c 4.46e-4,3.490694 1.2966722,6.876952 3.6757812,9.46875 2.64504,2.881504 6.377636,4.524424 10.289062,4.53125 2.704206,0.04315 2.712167,-4.032607 0.0078,-4 C 14.188825,25.9951 11.523274,24.821187 9.6328125,22.761719 7.9317405,20.908575 7.0110388,18.49472 7.0117188,16 H 10 Z"/>
 </g>
 <g id="system-save-session" transform="translate(32)">
  <rect style="opacity:0.001" width="32" height="32" x="0" y="0"/>
  <path style="fill:#d3dae3" d="m 4,2.0000002 c -1.1,0 -2,0.9 -2,1.9999998 v 22 l 3.999998,4 H 28 c 1.1,0 2,-0.9 2,-2 V 4 C 30,2.9 29.1,2 28,2 Z M 5.999998,6 H 26 V 26 H 24 V 16 H 7.999998 v 10 h -2 z M 16,18 h 4 v 8 h -4 z"/>
 </g>
 <g id="system-suspend" transform="translate(128)">
  <rect style="opacity:0.001" width="32" height="32" x="0" y="0"/>
  <path style="fill:#d3dae3" d="m 15.999998,2 a 14,14 0 0 0 -14,14 14,14 0 0 0 14,14 A 14,14 0 0 0 30.000002,16 14,14 0 0 0 15.999998,2 Z m 0,4 a 10,10 0 0 1 10,10 10,10 0 0 1 -10,10 10,10 0 0 1 -10,-10 10,10 0 0 1 10,-10 z m -3.980468,8 a 1.9907489,2.0002 0 1 0 0,4 h 7.960938 a 1.9907489,2.0002 0 1 0 0,-4 z"/>
 </g>
 <g id="system-suspend-hibernate" transform="translate(160)">
  <rect style="opacity:0.001" width="32" height="32" x="0" y="0"/>
  <path style="fill:#d3dae3" d="M 16,2 A 14,14 0 0 0 2,16 14,14 0 0 0 16,30 14,14 0 0 0 30,16 14,14 0 0 0 16,2 Z m 0,4 A 10,10 0 0 1 26,16 10,10 0 0 1 16,26 10,10 0 0 1 6,16 10,10 0 0 1 16,6 Z m 0,6 a 3.9999996,3.9999996 0 0 0 -4,4 3.9999996,3.9999996 0 0 0 4,4 3.9999996,3.9999996 0 0 0 4,-4 3.9999996,3.9999996 0 0 0 -4,-4 z"/>
 </g>
 <g id="system-switch-user" transform="translate(256)">
  <rect style="opacity:0.001" width="32" height="32" x="0" y="0"/>
  <path style="fill:#d3dae3" d="m 24,2.0001772 c -1.00956,0 -2.01912,0.674714 -2,2.0234352 V 20.000176 h -5 l 7,9 7,-9 H 26 V 4.0236124 C 26.0192,2.6748912 25.00956,2.0001772 24,2.0001772 Z m -16,1 -7,8.9999988 h 5 v 15.976562 c -0.0383,2.697446 4.03825,2.697446 4,0 V 12.000176 h 5 z"/>
 </g>
 <g id="system-log-out" transform="translate(192)">
  <rect style="opacity:0.001" width="32" height="32" x="0" y="0"/>
  <path style="fill:#d3dae3" d="m 14.636534,2.0054042 c -0.41807,0.01156 -0.83493,0.04139 -1.25,0.08985 -3.32054,0.387712 -6.5022705,1.9498594 -8.8632805,4.6094754 -4.72201,5.3192304 -4.69461,13.3743864 0.0645,18.6605544 4.75907,5.28617 12.7743605,6.167626 18.5683605,2.039106 2.17971,-1.548456 -0.14998,-4.813228 -2.32617,-3.259834 -4.16154,2.965304 -9.84547,2.343628 -13.2636705,-1.453156 -3.4182,-3.796788 -3.43846,-9.50983 -0.0469,-13.3303644 3.3915805,-3.82053 9.0717505,-4.48507 13.2539005,-1.548862 2.19604,1.602202 4.55661,-1.750672 2.30469,-3.273508 -2.54744,-1.7885088 -5.51493,-2.614136 -8.44141,-2.5332614 z m 8.36328,6.9942914 v 5.0001084 h -6 c -1.10457,0 -2,0.89545 -2,2.000042 0,1.104592 0.89543,2.000042 2,2.000042 h 6 v 5.000108 l 9,-7.00015 z"/>
 </g>
 <g id="system-lock-screen" transform="translate(224)">
  <rect style="opacity:0.001" width="32" height="32" x="0" y="0"/>
  <path style="fill:#d3dae3" d="M 16,2 C 11.568,2 8,5.568 8,10 v 4 H 6 c -1.108,0 -2,0.892 -2,2 v 12 c 0,1.108 0.892,2 2,2 h 20 c 1.108,0 2,-0.892 2,-2 V 16 c 0,-1.108 -0.892,-2 -2,-2 H 24 V 10 C 24,5.568 20.432,2 16,2 Z m 0,4 c 2.216,0 4,1.784 4,4 v 4 h -8 v -4 c 0,-2.216 1.784,-4 4,-4 z"/>
 </g>
 <g id="22-22-system-user-prompt" transform="translate(183,-45)">
  <rect style="opacity:0.001" width="22" height="22" x="5" y="5"/>
  <path style="fill:#d3dae3" d="m 8.8356824,10 c -0.64199,-7.92e-4 -1.04331,0.601892 -0.72265,1.083984 l 1.49023,2.835937 0.3984396,0.597657 v 3.892578 c 0,1.433883 1.15487,2.589844 2.58984,2.589844 h 8.81836 c 1.43497,0 2.58984,-1.155961 2.58984,-2.589844 V 12.589843 C 23.999742,11.155961 22.844872,10 21.409902,10 h -5.01953 -3.79883 -0.3789 z m 4.4941396,2 h 7.27344 c 0.20146,0 0.36328,0.222999 0.36328,0.5 0,0.277 -0.16182,0.5 -0.36328,0.5 h -7.27344 c -0.20145,0 -0.36328,-0.223 -0.36328,-0.5 0,-0.277001 0.16183,-0.5 0.36328,-0.5 z m 0,3 h 7.27344 c 0.20146,0 0.36328,0.222999 0.36328,0.5 0,0.277 -0.16182,0.5 -0.36328,0.5 h -7.27344 c -0.20145,0 -0.36328,-0.223 -0.36328,-0.5 0,-0.277001 0.16183,-0.5 0.36328,-0.5 z m 0.0996,3 h 5.14258 c 0.23743,0 0.42773,0.223 0.42773,0.5 0,0.277 -0.1903,0.5 -0.42773,0.5 h -5.14258 c -0.23743,0 -0.42969,-0.223 -0.42969,-0.5 0,-0.277 0.19226,-0.5 0.42969,-0.5 z"/>
 </g>
 <g id="22-22-system-user-list" transform="translate(161,-45)">
  <rect style="opacity:0.001" width="22" height="22" x="5" y="5"/>
  <path style="fill:#d3dae3" d="m 19,8 c -1.6572,0 -3,1.3434 -3,3 0,1.6566 1.3428,3 3,3 1.6572,0 3,-1.3434 3,-3 0,-1.6566 -1.3428,-3 -3,-3 z m -6,3 c -1.6572,0 -3,1.3434 -3,3 0,1.6566 1.3428,3 3,3 1.6572,0 3,-1.3434 3,-3 0,-1.6566 -1.3428,-3 -3,-3 z m 6,4 c -0.88919,5e-4 -1.6177,0.0962 -2.21875,0.25 -0.31193,0.87444 -0.93573,1.6024 -1.72266,2.0918 1.39814,0.31564 2.5066,0.81025 3.08008,1.48828 C 18.97573,19.81975 19,20.95313 19,20.95313 v 0.0469 c 4.07693,0 5,-1.8457 5,-1.8457 v -1.20118 c 0,0 9.5e-4,-2.95497 -4.99805,-2.95312 z m -6,3 c -4.9995,0.003 -5,2.95313 -5,2.95313 v 1.20117 c 0,0 0.92307,1.8457 5,1.8457 4.07693,0 5,-1.8457 5,-1.8457 v -1.20117 c 0,0 9.5e-4,-2.95497 -4.99805,-2.95313 z"/>
 </g>
 <g id="22-22-system-users" transform="translate(139,-45)">
  <rect style="opacity:0.001" width="22" height="22" x="5" y="5"/>
  <path style="fill:#d3dae3" d="m 16,8 c -1.6572,0 -3,1.3434 -3,3 0,1.656601 1.3428,3 3,3 1.6572,0 3,-1.343399 3,-3 0,-1.6566 -1.3428,-3 -3,-3 z m 0,7 c -5.9994,0.0037 -6,3.9375 -6,3.9375 v 1.601562 c 0,0 1.107685,2.460938 6,2.460938 4.892314,0 6,-2.460938 6,-2.460938 V 18.9375 c 0,0 7.53e-4,-3.939961 -5.998047,-3.9375 z"/>
 </g>
 <g id="system-users" transform="translate(288)">
  <rect style="opacity:0.001" width="32" height="32" x="0" y="0"/>
  <path style="fill:#d3dae3" d="m 16,2 c -3.3144,0 -6,2.6867996 -6,6 0,3.313202 2.6856,6 6,6 3.314402,0 6,-2.686798 6,-6 0,-3.3132004 -2.685598,-6 -6,-6 z m 0,13 C 5.0011002,15.006931 5,22.382812 5,22.382812 v 3.001954 C 5,25.384766 7.030756,30 16,30 c 8.969242,0 11,-4.615234 11,-4.615234 v -3.001954 c 0,0 0.0017,-7.387425 -10.996094,-7.382812 z"/>
 </g>
 <g id="system-user-list" transform="translate(320)">
  <rect style="opacity:0.001" width="32" height="32" x="0" y="0"/>
  <path style="fill:#d3dae3" d="m 22,2 c -2.762001,0 -5,2.239 -5,5 0,2.761 2.237999,5 5,5 2.761999,0 5,-2.239 5,-5 C 27,4.239 24.761999,2 22,2 Z M 11,8 c -2.762001,0 -5,2.239 -5,5 0,2.761 2.237999,5 5,5 2.761999,0 5,-2.239 5,-5 0,-2.761 -2.238001,-5 -5,-5 z m 11,6 c -1.761017,0.0011 -3.134025,0.240935 -4.205078,0.613281 -0.416112,1.608357 -1.434393,2.971467 -2.757813,3.939453 2.08974,0.574232 3.611575,1.530451 4.517579,2.646485 0.796661,0.981345 1.146094,2.030598 1.30664,2.767578 C 21.223011,23.98836 21.601458,24 22,24 c 6.523087,0 8,-3.076172 8,-3.076172 v -2.001953 c 0,0 0.0024,-4.924941 -7.996094,-4.921875 z m -11,6 c -7.999201,0.005 -8,4.921875 -8,4.921875 v 2.001953 C 3,26.923828 4.476911,30 11,30 c 6.523087,0 8,-3.076172 8,-3.076172 v -2.001953 c 0,0 0.0024,-4.924941 -7.996094,-4.921875 z"/>
 </g>
</svg>
