<svg xmlns="http://www.w3.org/2000/svg" width="32" height="32" x="0" y="0" version="1.1" xml:space="preserve">
 <g id="thunderbird">
  <rect style="opacity:0.001" width="32" height="32" x="0" y="0"/>
  <path style="opacity:0.3;fill:#d3dae3" d="m 19.246094,11.603516 c -1.157624,0.553047 -2.43905,1.191406 -3.921875,1.191406 -0.934712,0 -1.669977,-0.287153 -2.185547,-0.423828 -0.51557,-0.136676 -0.683062,-0.156556 -0.935547,-0.01172 -0.02606,0.01487 -0.05278,0.02855 -0.08008,0.04102 -0.702514,0.323737 -1.399923,0.891485 -2.4101564,1.330078 -0.091928,0.04499 -0.1844617,0.09229 -0.2773437,0.138672 -0.024309,0.02311 -0.043675,0.0421 -0.076172,0.07422 -0.1063601,0.105121 -0.2512289,0.255688 -0.390625,0.419922 -0.060144,0.07086 -0.096689,0.143901 -0.1484375,0.220703 l 2.9746095,4.207032 9.140625,-3.507813 C 20.770498,14.221283 20.357,13.11492 19.763672,12.166016 c -6.5e-4,-6.52e-4 -0.0013,-0.0013 -0.002,-0.002 -0.05456,-0.0828 -0.312203,-0.344757 -0.515625,-0.560546 z M 6.0742188,14.140625 c -0.0034,0.02929 -0.024784,0.06074 -0.027344,0.08984 -0.1018841,1.158758 0.1733275,2.2517 0.796875,3.232422 0.5519852,0.862972 -0.3962394,1.899206 -1.3046875,1.425781 -0.042122,-0.02184 -0.091566,-0.05054 -0.1347656,-0.07227 0.2098318,1.148193 0.5129817,2.210986 0.921875,3.21875 l 13.4667971,4.265625 c 1.058328,-1.353266 2.076741,-3.163574 2.689453,-5.46289 -0.88667,0.196957 -1.597925,0.155797 -1.609375,0.154297 -0.767561,-0.100499 -1.134843,-0.997451 -0.658203,-1.607422 0.635942,-0.814422 0.849334,-1.908865 0.804687,-3.134766 l -9.224609,3.541016 -3.3046876,-4.673828 c -0.098571,0.827085 -1.1058147,1.178287 -1.6972656,0.591796 -0.4772482,-0.474757 -0.64469,-1.029672 -0.71875,-1.568359 z"/>
  <path style="fill:#d3dae3" d="M 13,2 C 10.808991,2.0584775 9.523723,4.1282747 8.6015625,5.921875 8.4263287,6.0147291 8.2506697,6.1044558 8.0761719,6.2011719 6.3354829,7.3714631 4.9096652,8.9924448 3.8085938,10.765625 2.8400527,12.475209 2.2533209,14.377443 2.0351562,16.326172 1.9055082,18.301913 2.1310116,20.313708 2.875,22.162109 4.2833891,25.336987 7.7697028,29.039591 11,29 6.3148349,25.873043 4.6450712,22.09714 4.1054688,17.267578 4.0848368,16.936119 4.0426864,16.577662 4.1621094,16.666016 4.6088416,17.374049 5.2244946,17.597999 6,18 5.2645412,16.843263 4.9298826,15.517594 5.0507812,14.142578 5.1720919,12.762876 5.9497658,11.424765 6.8046875,10.433594 6.9060047,10.317604 7.0195993,10.20774 7.125,10.09375 c 0.045713,0.354968 0.1052068,0.709414 0.1464844,1.052734 -0.00787,0.170393 0.05095,0.451247 0.064453,0.652344 -5.78e-5,-1.79e-4 -0.00394,-0.0059 -0.00391,-0.0059 0.00147,0 -0.1168359,0.377597 -0.2128906,0.845703 -7.744e-4,0.0033 -0.00119,0.0064 -0.00195,0.0098 -0.1490937,0.73301 -0.2299203,1.74397 0.3808594,2.351562 0.086569,-0.818783 1.3484985,-1.951515 1.3671875,-1.964844 0.1517679,-0.07703 0.30551,-0.152374 0.4492187,-0.222656 0.8535806,-0.370582 1.5454566,-0.930835 2.3906246,-1.320312 1.113704,-0.638871 2.188496,0.302734 3.619141,0.302734 1.367777,0 2.812533,-0.791781 4.166015,-1.400391 0.315001,0.325857 0.878677,0.855519 1.125,1.242188 h -0.0039 c 0.705491,1.128284 1.194812,2.43931 1.355469,3.726562 0.200478,1.683718 0.03266,3.361753 -0.962891,4.636719 0.02052,0.0027 1.805098,0.130409 2.996094,-1 -0.849742,6.570236 -4.87845,10.082465 -7,11 2.824197,0.190066 5,-2 5,-2 0.410709,-0.584957 -0.992748,1.398133 -2,2 1.845469,-0.516751 3.081511,-0.70496 4.246094,-1.554688 -4.36e-4,0 0.946341,-0.514535 1.933594,-1.640624 0.131339,-0.14981 0.356974,-0.358689 0.492187,-0.529297 0.08405,-0.106058 0.161991,-0.21375 0.244141,-0.320313 0.01448,-0.01752 0.031,-0.03496 0.04492,-0.05273 C 29.038847,23.3604 30.049635,20.19991 29.974609,17.335938 29.989199,13.864161 28.57991,10.850815 26.212891,8.359375 24.501088,6.557594 22.557447,5.3563099 20.806641,4.7597656 18.538258,4.1083818 15.740265,3.8301922 13.738281,4.2089844 13.548694,4.2723704 13.766011,3.1663574 14,3 13.50089,3.0467228 12.969605,4.0027346 12.537109,4.4160156 12.505726,4.4233562 12.467203,4.4297007 12.4375,4.4375 12.703594,3.9026435 12.587096,3.5374448 13,3 11.800974,3.2238524 11.5663,4.007868 11.150391,4.7910156 10.992263,4.8444003 10.839043,4.9097102 10.683594,4.96875 11.077613,3.6624152 11.794408,2.99714 13,2 Z m -2.792969,7 c 0.388214,-0.00749 0.738787,0.058594 0.742188,0.058594 0.0066,0 0.177063,0.6801112 -0.142578,1.261718 -0.319638,0.583827 -1.065929,0.817424 -1.478516,0.597657 C 8.906474,10.698202 8.9079714,9.9646863 9.234375,9.3808594 9.3919272,9.0889459 9.8188178,9.0074918 10.207031,9 Z"/>
 </g>
 <g id="22-22-thunderbird" transform="translate(27,5)">
  <rect style="opacity:0.001" width="22" height="22" x="5" y="5"/>
  <path style="opacity:0.3;fill:#d3dae3" d="m 17.818359,13.310582 c -0.567804,0.231761 -1.10149,0.484375 -1.824218,0.484375 -0.02606,3.7e-4 -0.05212,-2.84e-4 -0.07813,-0.002 -1.291809,-0.101243 -1.894597,-0.02099 -2.837886,0.898434 -0.07581,0.07372 -0.162828,0.13518 -0.257812,0.181641 -0.05975,0.02922 -0.11626,0.05116 -0.173828,0.07617 -0.06556,0.04068 -0.135855,0.07308 -0.208985,0.09766 l 1.556641,1.748047 4.914062,-1.544922 c 0.04003,-0.147765 0.07825,-0.316126 0.08399,-0.300781 -0.2267,-0.922367 -0.496956,-1.302578 -1.173829,-1.638672 z m -5.673828,1.90625 c -0.208772,0.439056 -0.699741,0.675018 -1.173828,0.537109 -4e-5,0.262589 -0.07252,0.548361 -0.0098,0.783203 0.102689,0.390092 -0.03903,0.803687 -0.359375,1.048829 0.191507,0.669017 0.438161,1.310166 0.761719,1.921874 l 6.205078,1.902344 c 0.03813,-0.04568 0.07765,-0.08161 0.115235,-0.128906 0.389406,-0.490041 0.754454,-1.068637 1.054687,-1.724609 -0.0088,0.0042 -0.0247,0.01162 -0.0332,0.01563 -0.09192,0.04338 -0.167699,0.07808 -0.224609,0.103515 -0.02846,0.01272 -0.05156,0.02165 -0.07422,0.03125 -0.01133,0.0048 -0.02051,0.01028 -0.03906,0.01758 -0.0093,0.0037 -0.01904,0.0067 -0.04492,0.01563 -0.01294,0.0045 -0.06611,0.01945 -0.06641,0.01953 -1.5e-4,4e-5 -0.08975,0.02147 -0.08984,0.02148 -9.2e-5,10e-5 -0.257733,0.0053 -0.289063,0.0059 -0.774371,-0.09183 -1.15041,-0.995198 -0.669922,-1.609375 0.0027,-0.0034 0.01097,-0.01603 0.01367,-0.01953 0.243167,-0.313175 0.751662,-1.042657 1.158203,-1.765625 0.112572,-0.200191 0.181438,-0.37224 0.271485,-0.560547 l -4.656251,1.462891 z"/>
  <path style="fill:#d3dae3" d="m 14.396657,7.7953428 c -1.20476,0.032155 -1.859552,1.1267711 -2.367188,2.1230469 -0.185205,0.09344 -0.373364,0.1757623 -0.55664,0.2773433 -0.99468,0.668738 -1.8102696,1.59613 -2.4394534,2.609375 -0.5534521,0.976906 -0.8890064,2.062222 -1.0136719,3.175782 -0.074085,1.128995 0.055332,2.279708 0.4804688,3.335937 0.3295182,0.928332 0.9097504,1.947786 1.6523435,2.583262 0.985875,0.657857 1.769874,1.133727 2.845703,1.087891 -2.239841,-1.791482 -3.4216124,-3.939763 -3.7949215,-6.468027 -0.011789,-0.189405 -0.035038,-0.394238 0.033203,-0.34375 0.2552755,0.40459 0.3146666,0.389425 0.7578125,0.61914 -0.3820351,-1.429782 0.128135,-3.020414 0.751953,-4.181641 0.07805,-0.08935 0.162801,-0.175074 0.246094,-0.261719 l 0.03906,0.0059 c 0.01402,0.22327 0.04043,0.448037 0.06641,0.664063 -0.0048,0.104082 0.0616,0.281849 0.08203,0.396484 -0.01537,0.04023 -0.09877,0.280853 -0.130859,0.582031 -0.01935,0.119286 -0.02002,0.236507 -0.002,0.351563 0.0032,0.02268 0.005,0.0441 0.0098,0.06641 0.0097,0.04048 0.02065,0.08136 0.03711,0.121094 0.03475,0.09384 0.08104,0.182539 0.156242,0.255859 0.02782,-0.125426 0.08458,-0.226611 0.16211,-0.310547 0.01936,-0.02096 0.04863,-0.03376 0.07031,-0.05273 0.07025,-0.05953 0.143598,-0.116958 0.222656,-0.160156 0.01556,-0.0085 0.01582,-0.0058 0.03125,-0.01367 0.196357,-0.100226 0.389587,-0.16211 0.390625,-0.16211 l 0.01563,-0.01563 c 0.08124,-0.03308 0.163188,-0.06874 0.238282,-0.105469 1.127185,-1.098669 2.193155,-1.290982 3.613281,-1.179687 0.781587,0 1.226582,-0.203004 2,-0.550781 1.186546,0.49605 1.695811,1.270693 2,2.550781 0.114559,0.962125 -1.431114,3.269495 -2,3.998047 -6.8e-5,1.1e-5 -0.0039,0.002 -0.0039,0.002 1.2e-5,0 0.0039,-10e-6 0.0039,0 0.01173,0.0016 1.717869,-0.760302 2.398438,-1.40625 -0.485567,3.754421 -3.186124,6.081862 -4.398438,6.606168 0.936965,0.06306 2.220246,-0.52096 3.103516,-1.060547 -0.403265,0.43212 -0.834566,0.89984 -1.103516,1.060547 1.054554,-0.295286 2.053274,-0.403114 2.71875,-0.888672 -2.49e-4,0 0.539372,-0.493939 1.103516,-1.137418 0.07505,-0.08561 0.203986,-0.203291 0.28125,-0.300781 0.04803,-0.06061 0.09368,-0.122701 0.140625,-0.183594 0.0083,-0.01001 0.01744,-0.02109 0.02539,-0.03125 1.187377,-1.452539 1.765529,-3.257976 1.722657,-4.894531 0.0083,-1.983918 -0.797808,-3.705273 -2.150391,-5.128954 C 20.857921,10.400564 19.746711,9.7690828 18.74625,9.4282003 17.71093,9.1309001 16.492766,8.980078 15.457188,9.0375753 c -0.103696,0.00127 -0.391212,0.00968 -0.783203,0.042969 -0.04584,-0.086358 0.0112,-0.4068056 0.123047,-0.4863281 -0.245162,0.02295 -0.471027,0.3418588 -0.679688,0.5625 -0.03512,0.00685 -0.07117,0.013798 -0.103516,0.021484 0.18793,-0.3251345 0.379542,-0.6908926 0.603516,-0.9824218 -0.69386,0.1295199 -0.99666,0.6750525 -1.335938,1.1777344 -0.09792,0.032234 -0.192967,0.071367 -0.289062,0.1074219 0.251668,-0.7261876 0.724921,-1.123638 1.404297,-1.6855469 z m -1.798828,4.2001992 c 0.194105,-0.0038 0.369394,0.0293 0.371094,0.0293 0.0033,0 0.08755,0.340058 -0.07227,0.63086 -0.159818,0.291911 -0.531988,0.408711 -0.73828,0.298828 -0.210825,-0.109883 -0.210076,-0.477619 -0.04687,-0.769531 0.07878,-0.145956 0.292222,-0.185708 0.486328,-0.189454 z"/>
 </g>
</svg>
