<svg xmlns="http://www.w3.org/2000/svg" width="32" height="32" version="1.1">
 <g id="22-22-tools-report-bug" transform="translate(32,-1.9073486e-6)">
  <rect style="opacity:0.001" width="22" height="22" x="0" y="10"/>
  <path style="fill:#f44336" d="M 3.125,13 C 2,13 2,14.142578 2,14.142578 V 25.875 c 0,1.143176 1.125,1.142578 1.125,1.142578 H 7.5507812 C 7.2610936,27.089594 6.9815288,27.300445 7,27.861328 V 29 h 8 v -1.138672 c 0,-0.561433 -0.253862,-0.7719 -0.511719,-0.84375 H 18.875 C 20,27.017578 20,25.875 20,25.875 V 14.142578 C 20,14.142578 20,13 18.875,13 Z M 4,15 h 14 v 9.986328 l -14,0.02734 z m 5,2 v 2 h 1 v -2 z m 3,0 v 2 h 1 v -2 z m -4,4 v 1 h 6 v -1 z m 6,1 v 1 h 1 V 22 Z M 8,22 H 7 v 1 h 1 z"/>
 </g>
 <g id="tools-report-bug">
  <rect style="opacity:0.001" width="32" height="32" x="0" y="0"/>
  <path style="fill:#f44336" d="M 4.625,5 C 3,5 3,6.6425781 3,6.6425781 V 23.373047 C 3,25.016363 4.625,25 4.625,25 h 6.392578 C 10.599141,25.103522 9.973319,25.422246 10,26.228516 V 28 H 22 V 26.228516 C 22,25.421456 21.411523,25.103284 21.039062,25 H 27.375 C 29.000001,25 29,23.373048 29,23.373047 V 6.6425781 C 29,6.6425781 29.000001,5 27.375,5 Z M 6,8 H 26 V 21.960938 L 6,22 Z m 7,2 v 3 h 2 v -3 z m 4,0 v 3 h 2 v -3 z m -5,6 v 2 h 8 v -2 z m 8,2 v 2 h 2 v -2 z m -8,0 h -2 v 2 h 2 z"/>
 </g>
</svg>
