<svg xmlns="http://www.w3.org/2000/svg" xmlns:osb="http://www.openswatchbook.org/uri/2009/osb" width="22" height="22" version="1.1" style="enable-background:new">
 <defs>
  <linearGradient id="linearGradient5606" osb:paint="solid">
   <stop id="stop5608" offset="0" style="stop-color:#000000"/>
  </linearGradient>
 </defs>
 <g id="touchpad_enabled" transform="translate(32,-10)">
  <rect width="32" height="32" x="0" y="-32" style="opacity:0.00100002"/>
  <g transform="translate(0,-32)">
   <rect width="26" height="26" x="-29" y="-29" rx="1.3" ry="1.3" transform="matrix(0,-1,-1,0,0,0)" style="fill:#c4c4c4"/>
   <path d="M 4.3008,3 C 3.5806,3 3,3.5806 3,4.3008 l 0,1 C 3,4.5806 3.5806,4 4.3008,4 l 23.398,0 c 0.72,0 1.301,0.5806 1.301,1.3008 l 0,-1 C 28.9998,3.5806 28.4188,3 27.6988,3 L 4.3008,3 Z" style="opacity:0.1;fill:#d3dae3"/>
   <g style="fill:#5d5d5d">
    <rect width="11" height="6" x="4" y="22" rx="1.222" ry="1.2"/>
    <rect width="11" height="6" x="17" y="22" rx="1.222" ry="1.2"/>
    <rect width="4" height="1" x="24" y="7"/>
    <rect width="4" height="1" x="24" y="9"/>
    <rect width="4" height="1" x="24" y="11"/>
    <rect width="4" height="1" x="24" y="13"/>
    <rect width="4" height="1" x="24" y="15"/>
    <rect width="4" height="1" x="24" y="17"/>
   </g>
   <path d="m 3,27.699 0,1 C 3,29.419 3.5806,30 4.3008,30 l 23.398,0 c 0.72,0 1.301,-0.581 1.301,-1.301 l 0,-1 c 0,0.72 -0.581,1.301 -1.301,1.301 l -23.398,0 c -0.7204,0 -1.301,-0.581 -1.301,-1.301 z" style="opacity:0.2"/>
  </g>
 </g>
 <g id="touchpad_disabled" transform="translate(0,-10)">
  <rect width="32" height="32" x="0" y="-32" style="opacity:0.00100002"/>
  <g transform="translate(0,-32)">
   <rect width="26" height="26" x="-29" y="-29" rx="1.3" ry="1.3" transform="matrix(0,-1,-1,0,0,0)" style="fill:#c4c4c4"/>
   <path d="M 4.3008,3 C 3.5806,3 3,3.5806 3,4.3008 l 0,1 C 3,4.5806 3.5806,4 4.3008,4 l 23.398,0 c 0.72,0 1.301,0.5806 1.301,1.3008 l 0,-1 C 28.9998,3.5806 28.4188,3 27.6988,3 L 4.3008,3 Z" style="opacity:0.1;fill:#d3dae3"/>
   <g style="fill:#5d5d5d">
    <rect width="11" height="6" x="4" y="22" rx="1.222" ry="1.2"/>
    <rect width="11" height="6" x="17" y="22" rx="1.222" ry="1.2"/>
    <rect width="4" height="1" x="24" y="7"/>
    <rect width="4" height="1" x="24" y="9"/>
    <rect width="4" height="1" x="24" y="11"/>
    <rect width="4" height="1" x="24" y="13"/>
    <rect width="4" height="1" x="24" y="15"/>
    <rect width="4" height="1" x="24" y="17"/>
   </g>
   <path d="m 3,27.699 0,1 C 3,29.419 3.5806,30 4.3008,30 l 23.398,0 c 0.72,0 1.301,-0.581 1.301,-1.301 l 0,-1 c 0,0.72 -0.581,1.301 -1.301,1.301 l -23.398,0 c -0.7204,0 -1.301,-0.581 -1.301,-1.301 z" style="opacity:0.2"/>
   <circle cx="24" cy="24" r="7" style="fill:#db3c30"/>
   <path d="M 30.977,24.459 A 7,7 0 0 1 24,31 7,7 0 0 1 17.023,24.541 7,7 0 0 0 17,25 a 7,7 0 0 0 7,7 7,7 0 0 0 7,-7 7,7 0 0 0 -0.02344,-0.54102 z" style="opacity:0.2"/>
   <g transform="matrix(0.70711,-0.70711,0.70711,0.70711,-9.9411,24)" style="fill:#d3dae3">
    <rect width="8" height="2" x="20" y="23" style="fill:#ffffff"/>
    <rect width="8" height="2" x="20" y="-25" transform="matrix(0,1,-1,0,0,0)" style="fill:#ffffff"/>
   </g>
  </g>
 </g>
 <g id="22-22-touchpad_enabled" transform="translate(-425.0002,165.00336)" style="filter:url(#filter7554);enable-background:new">
  <path d="m 425.0002,-165.00336 22,0 c 0,0 0,0 0,0 l 0,22 c 0,0 0,0 0,0 l -22,0 c 0,0 0,0 0,0 l 0,-22 c 0,0 0,0 0,0 z" style="opacity:0"/>
  <path d="m 428.19942,-162.00336 c -1.2,0 -1.19922,1.23047 -1.19922,1.23047 l 0,13.53906 c 0,0 -7.8e-4,1.23047 1.19922,1.23047 l 15.60156,0 c 0,0 1.19922,3e-4 1.19922,-1.23047 l 0,-13.53906 c 0,-1.23077 -1.19922,-1.23047 -1.19922,-1.23047 l -15.60156,0 z m 12.80078,2 2,0 0,1 -2,0 0,-1 z m 0,2 2,0 0,1 -2,0 0,-1 z m 0,2 2,0 0,1 -2,0 0,-1 z m 0,2 2,0 0,1 -2,0 0,-1 z m -12,3 6,0 0,3 -6,0 0,-3 z m 8,0 6,0 0,3 -6,0 0,-3 z" style="fill:#d3dae3"/>
 </g>
 <g id="22-22-touchpad_disabled" transform="translate(-425.0002,165.00336)" style="filter:url(#filter7554);enable-background:new">
  <path d="m 447.0002,-165.00336 22,0 c 0,0 0,0 0,0 l 0,22 c 0,0 0,0 0,0 l -22,0 c 0,0 0,0 0,0 l 0,-22 c 0,0 0,0 0,0 z" style="opacity:0"/>
  <path id="222" d="m 450.19942,-162.00336 c -1.2,0 -1.19922,1.23047 -1.19922,1.23047 l 0,13.53906 c 0,0 -7.8e-4,1.23047 1.19922,1.23047 l 15.60156,0 c 0,0 1.19922,3e-4 1.19922,-1.23047 l 0,-13.53906 c 0,-1.23077 -1.19922,-1.23047 -1.19922,-1.23047 l -15.60156,0 z m 12.80078,2 2,0 0,1 -2,0 0,-1 z m 0,2 2,0 0,1 -2,0 0,-1 z m 0,2 2,0 0,1 -2,0 0,-1 z m 0,2 2,0 0,1 -2,0 0,-1 z m -12,3 6,0 0,3 -6,0 0,-3 z m 8,0 6,0 0,3 -6,0 0,-3 z" style="opacity:0.3;fill:#d3dae3"/>
 </g>
</svg>
