<svg xmlns="http://www.w3.org/2000/svg" width="22" height="22" version="1.1" viewBox="0 0 22 22">
 <g id="layer1" transform="translate(0,-1030.3622)">
  <g id="update-none" transform="translate(46.529079,1.688616)">
   <rect width="22" height="22" x="-46.53" y="1028.67" style="opacity:0.001"/>
   <path d="m -35.529081,1031.6736 c -4.4183,0 -8,3.5817 -8,8 0,4.418 3.5817,8 8,8 4.418,0 8,-3.582 8,-8 0,-4.4183 -3.582,-8 -8,-8 z m 3.385,4.582 c 0.083,0 0.165,0.032 0.228,0.096 l 0.955,0.9551 c 0.128,0.1274 0.128,0.3317 0,0.459 l -4.185,4.1852 -1.012,1.012 -0.057,0.057 c -0.095,0.095 -0.25,0.095 -0.3452,0 l -0.0567,-0.057 -0.9551,-0.955 -2.8847,-2.885 c -0.0955,-0.095 -0.0955,-0.25 0,-0.345 l 1.0683,-1.0688 c 0.0955,-0.096 0.2502,-0.096 0.3457,0 l 2.6567,2.6558 4.011,-4.0133 c 0.064,-0.064 0.148,-0.096 0.231,-0.096 z" style="fill:#d3dae3"/>
  </g>
  <g id="update-low" transform="translate(24,1.7382813e-5)">
   <rect width="22" height="22" x="0" y="1030.36" style="opacity:0.001"/>
   <path d="m 11,1033.3622 c -4.4183,0 -8,3.5817 -8,8 0,4.418 3.5817,8 8,8 4.418,0 8,-3.582 8,-8 0,-4.4183 -3.582,-8 -8,-8 z m -1,3 2,0 0,5 3,0 -4,5 -4,-5 3,0 0,-5 z" style="fill:#d3dae3"/>
   <circle cx="20" cy="1048.362" r="2" style="fill:#5294e2"/>
  </g>
  <g id="update-medium" transform="translate(48,1.7382813e-5)">
   <rect width="22" height="22" x="0" y="1030.36" style="opacity:0.00100002"/>
   <path d="m 11,1033.3622 c -4.4183,0 -8,3.5817 -8,8 0,4.418 3.5817,8 8,8 4.418,0 8,-3.582 8,-8 0,-4.4183 -3.582,-8 -8,-8 z m -1,3 2,0 0,5 3,0 -4,5 -4,-5 3,0 0,-5 z" style="fill:#d3dae3"/>
   <circle cx="20" cy="1048.362" r="2" style="fill:#5294e2"/>
  </g>
  <g id="update-high" transform="translate(72,1.7382813e-5)">
   <rect width="22" height="22" x="0" y="1030.36" style="opacity:0.00100002"/>
   <path d="m 11,1033.3622 c -4.4183,0 -8,3.5817 -8,8 0,4.418 3.5817,8 8,8 4.418,0 8,-3.582 8,-8 0,-4.4183 -3.582,-8 -8,-8 z m -1,3 2,0 0,5 3,0 -4,5 -4,-5 3,0 0,-5 z" style="fill:#d3dae3"/>
   <circle cx="20" cy="1048.362" r="2" style="fill:#5294e2"/>
  </g>
 </g>
</svg>
