<svg xmlns="http://www.w3.org/2000/svg" id="svg" width="100%" height="100%" version="1.1" viewBox="0 0 22 22">
 <g id="user-busy" transform="translate(199,-1)">
  <rect width="22" height="22" x="1" y="1" style="fill:#d3dae3;fill-opacity:0"/>
  <path d="m 12,4 c -1.662,0 -3,1.338 -3,3 0,1.662 1.338,3 3,3 1.662,0 3,-1.338 3,-3 0,-1.662 -1.338,-3 -3,-3 z m 0,1 c 1.108,0 2,0.892 2,2 0,1.108 -0.892,2 -2,2 -1.108,0 -2,-0.892 -2,-2 0,-1.108 0.892,-2 2,-2 z m 0,7 c -2.77,0 -5,0.891984 -5,2 l 0,5 0,1 1.2011733,0 7.5976537,0 L 17,20 l 0,-1 0,-5 c 0,-1.108016 -2.23,-2 -5,-2 z" style="fill:#d3dae3"/>
 </g>
 <g id="user-away-extended" transform="translate(159,-1)">
  <rect width="22" height="22" x="1" y="1" style="fill:#d3dae3;fill-opacity:0"/>
  <path d="m 12,4 c -1.66199,0 -3,1.338 -3,3 0,1.662 1.33801,3 3,3 1.662,0 3,-1.338 3,-3 0,-1.662 -1.338,-3 -3,-3 z" style="fill:#ebb557"/>
  <path d="M 171 11 C 168.23001 11 166 11.89198 166 13 L 166 18 L 166 19 L 167.1875 19 L 174.8125 19 L 176 19 L 176 18 L 176 13 C 176 11.89198 173.77 11 171 11 z M 168.65625 14.34375 L 173.34375 14.34375 L 173.34375 15.65625 L 168.65625 15.65625 L 168.65625 14.34375 z" transform="translate(-159,1)" style="fill:#ebb557"/>
 </g>
 <g id="user-away" transform="translate(119,-1)">
  <rect width="22" height="22" x="1" y="1" style="fill:#d3dae3;fill-opacity:0"/>
  <path d="m 12,4 c -1.662,0 -3,1.338 -3,3 0,1.662 1.338,3 3,3 1.662,0 3,-1.338 3,-3 0,-1.662 -1.338,-3 -3,-3 z m 0,8 c -2.77,0 -5,0.89198 -5,2 l 0,5 0,1 1.2011733,0 7.5976597,0 L 17,20 l 0,-1 0,-5 c 0,-1.10802 -2.23,-2 -5,-2 z" style="fill:#ebb557"/>
 </g>
 <g id="user-offline" transform="translate(79,-1)">
  <rect width="22" height="22" x="1" y="1" style="fill:#d3dae3;fill-opacity:0"/>
  <path d="m 12,4 c -1.662,0 -3,1.338 -3,3 0,1.662 1.338,3 3,3 1.662,0 3,-1.338 3,-3 0,-1.662 -1.338,-3 -3,-3 z m 0,8 c -2.77,0 -5,0.89198 -5,2 l 0,5 0,1 1.20117,0 7.59766,0 1.20117,0 0,-1 0,-5 c 0,-1.10802 -2.23,-2 -5,-2 z" style="fill:#5294e2"/>
 </g>
 <g id="user-invisible" transform="translate(-1,-1)">
  <rect width="22" height="22" x="41" y="1" style="fill:#d3dae3;fill-opacity:0"/>
  <path d="m 52,4 c -1.662,0 -3,1.338 -3,3 0,1.662 1.338,3 3,3 1.662,0 3,-1.338 3,-3 0,-1.662 -1.338,-3 -3,-3 z m 0,8 c -2.77,0 -5,0.89198 -5,2 l 0,5 0,1 1.20117,0 7.59766,0 1.20117,0 0,-1 0,-5 c 0,-1.10802 -2.23,-2 -5,-2 z" style="fill:#d3dae3;fill-opacity:0.3"/>
 </g>
 <g id="user-online" transform="translate(-1,39)">
  <rect width="22" height="22" x="1" y="-39" style="fill:#d3dae3;fill-opacity:0"/>
  <path d="m 12,-36 c -1.662,0 -3,1.338 -3,3 0,1.662 1.338,3 3,3 1.662,0 3,-1.338 3,-3 0,-1.662 -1.338,-3 -3,-3 z m 0,8 c -2.77,0 -5,0.891984 -5,2 l 0,5 0,1 1.2011719,0 7.5976561,0 1.201172,0 0,-1 0,-5 c 0,-1.108016 -2.23,-2 -5,-2 z" style="fill:#d3dae3"/>
 </g>
 <g id="user-identity" transform="translate(-486.72644,-502.11926)">
  <rect width="22" height="22" x="721.73" y="502.12" style="opacity:0.01000001;fill:#fdbc4b;fill-opacity:0.00392157"/>
  <path d="m 732.72644,505.11926 c -2.04554,0 -3.69232,1.64677 -3.69232,3.69232 0,2.04554 1.64678,3.69231 3.69232,3.69231 2.04553,0 3.69231,-1.64677 3.69231,-3.69231 0,-2.04555 -1.64678,-3.69232 -3.69231,-3.69232 z m 0,8.61539 c -3.40927,0 -6.15386,2.74461 -6.15386,6.15386 l 0,1.23077 12.30771,0 0,-1.23077 c 0,-3.40925 -2.74459,-6.15386 -6.15385,-6.15386 z" style="fill:#d3dae3"/>
 </g>
</svg>
