<svg xmlns="http://www.w3.org/2000/svg" width="32" height="32" version="1.1">
 <g id="22-22-user-identity" transform="translate(0,-22)">
  <rect style="opacity:0.001" width="22" height="22" x="0" y="0"/>
  <path style="fill:#d3dae3" d="m 11,3 c -4.432,0 -8,3.568 -8,8 0,4.432 3.568,8 8,8 4.432,0 8,-3.568 8,-8 0,-4.432 -3.568,-8 -8,-8 z m 0,3 c 1.104533,0 2,0.8954667 2,2 0,1.1044 -0.8956,2 -2,2 C 9.8956,10 9,9.1044 9,8 9,6.8956 9.8956,6 11,6 Z m 0,5 c 3.9992,-0.0015 4,2.460938 4,2.460938 v 1 C 15,14.460937 14.261543,16 11,16 7.7384568,16 7,14.460938 7,14.460938 v -1 C 7,13.460937 7.0003998,11.0023 11,11 Z"/>
 </g>
 <g id="22-22-user-online" transform="translate(155,-27)">
  <rect style="opacity:0.001" width="22" height="22" x="5" y="5"/>
  <path style="fill:#d3dae3" d="m 16,8 c -4.432,0 -8,3.568 -8,8 0,4.432 3.568,8 8,8 0.402589,0 0.795337,-0.03885 1.181641,-0.0957 A 5.5,5.5 0 0 1 16.027344,20.99805 C 16.017318,20.998076 16.010073,21 16,21 12.738457,21 12,19.460938 12,19.460938 v -1 c 0,-10e-7 4e-4,-2.458638 4,-2.460938 0.823311,-3.09e-4 1.469011,0.107876 1.988281,0.273438 A 5.5,5.5 0 0 1 21.5,15 5.5,5.5 0 0 1 23.980469,15.597656 C 23.7709,11.355315 20.296148,8 16,8 Z m 0,3 c 1.104533,0 2,0.895467 2,2 0,1.1044 -0.8956,2 -2,2 -1.1044,0 -2,-0.8956 -2,-2 0,-1.1044 0.8956,-2 2,-2 z"/>
  <path style="fill:#4caf50" d="m 21.1875,16.009766 c -1.44098,0.101835 -2.807333,0.895036 -3.583984,2.240234 -1.24264,2.152317 -0.505833,4.903842 1.646484,6.146484 2.152317,1.24264 4.903842,0.505833 6.146484,-1.646484 1.24264,-2.152317 0.505833,-4.903842 -1.646484,-6.146484 -0.807119,-0.46599 -1.697912,-0.654852 -2.5625,-0.59375 z m 2.458984,2.636718 0.707032,0.707032 L 21,22.707031 18.646484,20.353516 19.353516,19.646484 21,21.292969 Z"/>
 </g>
 <g id="22-22-user-busy" transform="translate(27,-27)">
  <rect style="opacity:0.001" width="22" height="22" x="5" y="5"/>
  <path style="fill:#d3dae3" d="m 16,8 c -4.432,0 -8,3.568 -8,8 0,4.432 3.568,8 8,8 0.402589,0 0.795337,-0.03885 1.181641,-0.0957 A 5.5,5.5 0 0 1 16.027344,20.99805 C 16.017318,20.998076 16.010073,21 16,21 12.738457,21 12,19.460938 12,19.460938 v -1 c 0,-10e-7 4e-4,-2.458638 4,-2.460938 0.823311,-3.09e-4 1.469011,0.107876 1.988281,0.273438 A 5.5,5.5 0 0 1 21.5,15 5.5,5.5 0 0 1 23.980469,15.597656 C 23.7709,11.355315 20.296148,8 16,8 Z m 0,3 c 1.104533,0 2,0.895467 2,2 0,1.1044 -0.8956,2 -2,2 -1.1044,0 -2,-0.8956 -2,-2 0,-1.1044 0.8956,-2 2,-2 z"/>
  <path style="fill:#f44336" d="M 21.5,16 A 4.5,4.5 0 0 0 17,20.5 4.5,4.5 0 0 0 21.5,25 4.5,4.5 0 0 0 26,20.5 4.5,4.5 0 0 0 21.5,16 Z M 21,17 h 1 v 3 h 3 v 1 h -3 -1 v -1 z"/>
 </g>
 <g id="22-22-user-offline" transform="translate(91,-27)">
  <rect style="opacity:0.001" width="22" height="22" x="5" y="5"/>
  <path style="opacity:0.3;fill:#d3dae3" d="m 16,8 c -4.432,0 -8,3.568 -8,8 0,4.432 3.568,8 8,8 0.402589,0 0.795337,-0.03885 1.181641,-0.0957 A 5.5,5.5 0 0 1 16.027344,20.99805 C 16.017318,20.998076 16.010073,21 16,21 12.738457,21 12,19.460938 12,19.460938 v -1 c 0,-10e-7 4e-4,-2.458638 4,-2.460938 0.823311,-3.09e-4 1.469011,0.107876 1.988281,0.273438 A 5.5,5.5 0 0 1 21.5,15 5.5,5.5 0 0 1 23.980469,15.597656 C 23.7709,11.355315 20.296148,8 16,8 Z m 0,3 c 1.104533,0 2,0.895467 2,2 0,1.1044 -0.8956,2 -2,2 -1.1044,0 -2,-0.8956 -2,-2 0,-1.1044 0.8956,-2 2,-2 z"/>
  <path style="fill:#d3dae3" d="M 21.5,16 C 19.014719,16 17,18.014719 17,20.5 17,22.985281 19.014719,25 21.5,25 23.985281,25 26,22.985281 26,20.5 26,18.014719 23.985281,16 21.5,16 Z m 2.5,4 v 1 h -5 v -1 z"/>
 </g>
 <g id="22-22-user-invisible" transform="translate(123,-27)">
  <rect style="opacity:0.001" width="22" height="22" x="5" y="5"/>
  <path style="fill:#d3dae3" d="m 16,8 c -4.432,0 -8,3.568 -8,8 0,4.432 3.568,8 8,8 0.402589,0 0.795337,-0.03885 1.181641,-0.0957 A 5.5,5.5 0 0 1 16.027344,20.99805 C 16.017318,20.998076 16.010073,21 16,21 12.738457,21 12,19.460938 12,19.460938 v -1 c 0,-10e-7 4e-4,-2.458638 4,-2.460938 0.823311,-3.09e-4 1.469011,0.107876 1.988281,0.273438 A 5.5,5.5 0 0 1 21.5,15 5.5,5.5 0 0 1 23.980469,15.597656 C 23.7709,11.355315 20.296148,8 16,8 Z m 0,3 c 1.104533,0 2,0.895467 2,2 0,1.1044 -0.8956,2 -2,2 -1.1044,0 -2,-0.8956 -2,-2 0,-1.1044 0.8956,-2 2,-2 z"/>
  <path style="fill:#d3dae3" d="m 17.602885,18.25 c -1.24264,2.152317 -0.505202,4.904473 1.647115,6.147115 2.152317,1.24264 4.904473,0.505202 6.147115,-1.647115 C 26.639755,20.597683 25.902317,17.845527 23.75,16.602885 21.597683,15.360245 18.845527,16.097683 17.602885,18.25 Z m 4.714103,-0.165063 0.866024,0.499999 -2.5,4.330127 -0.866024,-0.499999 z"/>
 </g>
 <g id="22-22-user-away-extended" transform="translate(187,-27)">
  <rect style="opacity:0.001" width="22" height="22" x="5" y="5"/>
  <path style="fill:#d3dae3" d="m 16,8 c -4.432,0 -8,3.568 -8,8 0,4.432 3.568,8 8,8 0.402589,0 0.795337,-0.03885 1.181641,-0.0957 A 5.5,5.5 0 0 1 16.027344,20.99805 C 16.017318,20.998076 16.010073,21 16,21 12.738457,21 12,19.460938 12,19.460938 v -1 c 0,-10e-7 4e-4,-2.458638 4,-2.460938 0.823311,-3.09e-4 1.469011,0.107876 1.988281,0.273438 A 5.5,5.5 0 0 1 21.5,15 5.5,5.5 0 0 1 23.980469,15.597656 C 23.7709,11.355315 20.296148,8 16,8 Z m 0,3 c 1.104533,0 2,0.895467 2,2 0,1.1044 -0.8956,2 -2,2 -1.1044,0 -2,-0.8956 -2,-2 0,-1.1044 0.8956,-2 2,-2 z"/>
  <path style="fill:#d3dae3" d="M 21.5,16 C 19.014719,16 17,18.014719 17,20.5 17,22.985281 19.014719,25 21.5,25 23.985281,25 26,22.985281 26,20.5 26,18.014719 23.985281,16 21.5,16 Z M 19,20 h 1 v 1 h -1 z m 2,0 h 1 v 1 h -1 z m 2,0 h 1 v 1 h -1 z"/>
 </g>
 <g id="22-22-user-away" transform="translate(59,-27)">
  <rect style="opacity:0.001" width="22" height="22" x="5" y="5"/>
  <path style="fill:#d3dae3" d="m 16,8 c -4.432,0 -8,3.568 -8,8 0,4.432 3.568,8 8,8 0.402589,0 0.795337,-0.03885 1.181641,-0.0957 A 5.5,5.5 0 0 1 16.027344,20.99805 C 16.017318,20.998076 16.010073,21 16,21 12.738457,21 12,19.460938 12,19.460938 v -1 c 0,-10e-7 4e-4,-2.458638 4,-2.460938 0.823311,-3.09e-4 1.469011,0.107876 1.988281,0.273438 A 5.5,5.5 0 0 1 21.5,15 5.5,5.5 0 0 1 23.980469,15.597656 C 23.7709,11.355315 20.296148,8 16,8 Z m 0,3 c 1.104533,0 2,0.895467 2,2 0,1.1044 -0.8956,2 -2,2 -1.1044,0 -2,-0.8956 -2,-2 0,-1.1044 0.8956,-2 2,-2 z"/>
  <path style="fill:#ff9800" d="M 21.5,16 C 19.014719,16 17,18.014719 17,20.5 17,22.985281 19.014719,25 21.5,25 23.985281,25 26,22.985281 26,20.5 26,18.014719 23.985281,16 21.5,16 Z M 24,18 22.75,22.375 21.5,21.75 20.875,23 20.25,21.125 19,20.5 Z"/>
 </g>
 <g id="22-22-user-trash" transform="translate(251,-27)">
  <rect style="opacity:0.001" width="22" height="22" x="5" y="5"/>
  <path style="fill:#d3dae3" d="m 14,9 c -1,0 -1,1 -1,1 h -3 c 0,0 -1,0 -1,1 v 1 h 13 v -1 c 0,-1 -1,-1 -1,-1 h -3 c 0,0 0,-1 -1,-1 z m -4,4 v 9 c 0,0.52 0.48,1 1,1 h 8 1 c 0.52,0 1,-0.48 1,-1 v -9 z"/>
 </g>
 <g id="22-22-user-trash-full" transform="translate(283,-27)">
  <rect style="opacity:0.001" width="22" height="22" x="5" y="5"/>
  <path style="fill:#d3dae3" d="m 14,9.000001 c -1,0 -1,1 -1,1 h -3 c 0,0 -1,0 -1,1 V 12 h 13 v -0.999999 c 0,-1 -1,-1 -1,-1 h -3 c 0,0 0,-1 -1,-1 z M 9,13 v 3 c 0,1 0.05922,2.15 0.199219,3 C 9.339219,19.85 10,22 10,22 c 0,0 0.48,1 1,1 h 9 c 0.52,0 1,-1 1,-1 0,0 0.660781,-2.15 0.800781,-3 C 21.940781,18.15 22,17 22,16 v -3 z"/>
 </g>
 <g id="22-22-user-desktop" transform="translate(219,-27)">
  <rect style="opacity:0.001" width="22" height="22" x="5" y="5"/>
  <path style="fill:#d3dae3" d="M 8,11 V 22.205078 C 8,22.64576 8.3575814,23 8.8007812,23 H 12 v -1 c 0,-0.554001 0.412443,-1 0.923828,-1 h 6.152344 C 19.587557,21 20,21.445999 20,22 v 1 h 3.199219 C 23.642419,23 24,22.64576 24,22.205078 V 11 Z"/>
  <path style="opacity:0.3;fill:#d3dae3" d="m 8.7999995,8.9999999 c -0.4432,0 -0.8,0.3547728 -0.8,0.7954546 V 11 H 24 V 9.7954545 C 24,9.3547727 23.64288,8.9999999 23.2,8.9999999 Z"/>
 </g>
 <g id="user-identity">
  <rect style="opacity:0.001" width="32" height="32" x="0" y="0"/>
  <path style="fill:#d3dae3" d="M 16,4 C 9.3520004,4 4,9.3520001 4,16 4,22.648 9.3520004,28 16,28 22.648001,28 28,22.648 28,16 28,9.3520001 22.648001,4 16,4 Z m 0,5 c 1.6568,0 3,1.3432 3,3 0,1.6566 -1.343399,3 -3,3 -1.6566,0 -3,-1.3434 -3,-3 0,-1.6566 1.3434,-3 3,-3 z m 0,8 c 5.998801,-0.0021 6,3.445313 6,3.445312 v 1.400391 C 22,21.845702 20.892315,24 16,24 11.107686,24 10,21.845703 10,21.845703 v -1.400391 c 0,-2e-6 6e-4,-3.442092 6,-3.445312 z"/>
 </g>
 <g id="user-busy" transform="translate(32)">
  <rect style="opacity:0.001" width="32" height="32" x="0" y="0"/>
  <path style="fill:#d3dae3" transform="translate(-32)" d="M 48 4 C 41.352 4 36 9.3520001 36 16 C 36 22.648 41.352 28 48 28 C 48.245346 28 48.484951 27.977271 48.726562 27.962891 A 8 8 0 0 1 47.070312 23.970703 C 42.967655 23.719438 42 21.845703 42 21.845703 L 42 20.445312 C 42 20.445311 42.0006 17.00322 48 17 C 48.59769 16.999791 49.120925 17.04206 49.605469 17.103516 A 8 8 0 0 1 55 15 A 8 8 0 0 1 59.962891 16.734375 C 59.977573 16.490214 60 16.247978 60 16 C 60 9.3520001 54.648001 4 48 4 z M 48 9 C 49.6568 9 51 10.3432 51 12 C 51 13.6566 49.656601 15 48 15 C 46.3434 15 45 13.6566 45 12 C 45 10.3434 46.3434 9 48 9 z"/>
  <path style="fill:#f44336" transform="translate(-32)" d="M 55 17 C 51.686292 17 49 19.686292 49 23 C 49 26.313708 51.686292 29 55 29 C 58.313708 29 61 26.313708 61 23 C 61 19.686292 58.313708 17 55 17 z M 54 19 L 56 19 L 56 22 L 59 22 L 59 24 L 56 24 L 54 24 L 54 22 L 54 19 z"/>
 </g>
 <g id="user-away" transform="translate(64)">
  <rect style="opacity:0.001" width="32" height="32" x="0" y="0"/>
  <path style="fill:#d3dae3" transform="translate(-64)" d="M 80 4 C 73.352 4 68 9.3520001 68 16 C 68 22.648 73.352 28 80 28 C 80.245346 28 80.484951 27.977271 80.726562 27.962891 C 79.818653 26.809327 79.245659 25.428188 79.070312 23.970703 C 74.967656 23.719439 74 21.845703 74 21.845703 L 74 20.445312 C 74 20.445311 74.0006 17.00322 80 17 C 80.59769 16.999791 81.120925 17.04206 81.605469 17.103516 C 83.077928 15.753382 85.002254 15.00302 87 15 C 88.802442 15.0025 90.551213 15.613674 91.962891 16.734375 C 91.977573 16.490214 92 16.247978 92 16 C 92 9.3520001 86.648001 4 80 4 z M 80 9 C 81.6568 9 83 10.3432 83 12 C 83 13.6566 81.656601 15 80 15 C 78.3434 15 77 13.6566 77 12 C 77 10.3434 78.3434 9 80 9 z"/>
  <path style="fill:#ff9800" transform="translate(-64)" d="M 87 17 C 83.686292 17 81 19.686292 81 23 C 81 26.313708 83.686292 29 87 29 C 90.313708 29 93 26.313708 93 23 C 93 19.686292 90.313708 17 87 17 z M 90 20 L 88.5 25.25 L 87 24.5 L 86.25 26 L 85.5 23.75 L 84 23 L 90 20 z"/>
 </g>
 <g id="user-offline" transform="translate(96)">
  <rect style="opacity:0.001" width="32" height="32" x="0" y="0"/>
  <path style="opacity:0.3;fill:#d3dae3" d="M 16,4 C 9.3520004,4 4,9.3520001 4,16 c 0,6.648 5.3520004,12 12,12 0.245346,0 0.484951,-0.02273 0.726562,-0.03711 -0.907909,-1.153564 -1.480904,-2.534703 -1.65625,-3.992188 C 10.967655,23.719438 10,21.845703 10,21.845703 v -1.400391 c 0,-1e-6 6e-4,-3.442092 6,-3.445312 0.59769,-2.09e-4 1.120925,0.04206 1.605469,0.103516 C 19.077928,15.753382 21.002254,15.00302 23,15 c 1.802442,0.0025 3.551213,0.613674 4.962891,1.734375 C 27.977573,16.490214 28,16.247978 28,16 28,9.3520001 22.648001,4 16,4 Z m 0,5 c 1.6568,0 3,1.3432 3,3 0,1.6566 -1.343399,3 -3,3 -1.6566,0 -3,-1.3434 -3,-3 0,-1.6566 1.3434,-3 3,-3 z"/>
  <path style="fill:#d3dae3" d="m 23,17 c -3.313708,0 -6,2.686292 -6,6 0,3.313708 2.686292,6 6,6 3.313708,0 6,-2.686292 6,-6 0,-3.313708 -2.686292,-6 -6,-6 z m -4,5 h 5 3 v 2 h -3 -5 z"/>
 </g>
 <g id="user-invisible" transform="translate(128)">
  <rect style="opacity:0.001" width="32" height="32" x="0" y="0"/>
  <path style="fill:#d3dae3" transform="translate(-128)" d="M 144 4 C 137.352 4 132 9.3520001 132 16 C 132 22.648 137.352 28 144 28 C 144.24535 28 144.48495 27.977271 144.72656 27.962891 C 143.81865 26.809327 143.24566 25.428188 143.07031 23.970703 C 138.96766 23.71944 138 21.845703 138 21.845703 L 138 20.445312 C 138 20.445311 138.0006 17.00322 144 17 C 144.59769 16.999791 145.12092 17.04206 145.60547 17.103516 C 147.07793 15.753382 149.00225 15.00302 151 15 C 152.80244 15.0025 154.55121 15.613674 155.96289 16.734375 C 155.97757 16.490214 156 16.247978 156 16 C 156 9.3520001 150.648 4 144 4 z M 144 9 C 145.6568 9 147 10.3432 147 12 C 147 13.6566 145.6566 15 144 15 C 142.3434 15 141 13.6566 141 12 C 141 10.3434 142.3434 9 144 9 z"/>
  <path style="fill:#d3dae3" transform="translate(-128)" d="M 151.16016 17.001953 C 149.03272 16.9467 146.94358 18.027373 145.80469 20 C 144.14811 22.869276 145.13072 26.538736 148 28.195312 C 150.86928 29.85189 154.53874 28.869276 156.19531 26 C 157.85189 23.130724 156.86928 19.461265 154 17.804688 C 153.10335 17.287007 152.12717 17.027068 151.16016 17.001953 z M 152.13281 19.037109 L 153.86523 20.037109 L 152.36523 22.634766 L 149.86719 26.962891 L 148.13477 25.962891 L 150.63477 21.634766 L 152.13281 19.037109 z"/>
 </g>
 <g id="user-online" transform="translate(160)">
  <rect style="opacity:0.001" width="32" height="32" x="0" y="0"/>
  <path style="fill:#d3dae3" transform="translate(-160)" d="M 176 4 C 169.352 4 164 9.3520001 164 16 C 164 22.648 169.352 28 176 28 C 176.24535 28 176.48495 27.977271 176.72656 27.962891 C 175.81865 26.809327 175.24566 25.428188 175.07031 23.970703 C 170.96766 23.719439 170 21.845703 170 21.845703 L 170 20.445312 C 170 20.445311 170.0006 17.00322 176 17 C 176.59769 16.999791 177.12092 17.04206 177.60547 17.103516 C 179.07793 15.753382 181.00225 15.00302 183 15 C 184.80244 15.0025 186.55121 15.613674 187.96289 16.734375 C 187.97757 16.490214 188 16.247978 188 16 C 188 9.3520001 182.648 4 176 4 z M 176 9 C 177.6568 9 179 10.3432 179 12 C 179 13.6566 177.6566 15 176 15 C 174.3434 15 173 13.6566 173 12 C 173 10.3434 174.3434 9 176 9 z"/>
  <path style="fill:#4caf50" transform="translate(-160)" d="M 183 17 C 179.68629 17 177 19.686292 177 23 C 177 26.313708 179.68629 29 183 29 C 186.31371 29 189 26.313708 189 23 C 189 19.686292 186.31371 17 183 17 z M 185.64258 19.953125 L 187.05078 21.375 L 182.33008 26.046875 L 178.94922 22.666016 L 180.36328 21.251953 L 182.33594 23.224609 L 185.64258 19.953125 z"/>
 </g>
 <g id="user-away-extended" transform="translate(192)">
  <rect style="opacity:0.001" width="32" height="32" x="0" y="0"/>
  <path style="fill:#d3dae3" transform="translate(-192)" d="M 208 4 C 201.352 4 196 9.3520001 196 16 C 196 22.648 201.352 28 208 28 C 208.24535 28 208.48495 27.977271 208.72656 27.962891 C 207.81865 26.809327 207.24566 25.428188 207.07031 23.970703 C 202.96766 23.71944 202 21.845703 202 21.845703 L 202 20.445312 C 202 20.445311 202.0006 17.00322 208 17 C 208.59769 16.999791 209.12092 17.04206 209.60547 17.103516 C 211.07793 15.753382 213.00225 15.00302 215 15 C 216.80244 15.0025 218.55121 15.613674 219.96289 16.734375 C 219.97757 16.490214 220 16.247978 220 16 C 220 9.3520001 214.648 4 208 4 z M 208 9 C 209.6568 9 211 10.3432 211 12 C 211 13.6566 209.6566 15 208 15 C 206.3434 15 205 13.6566 205 12 C 205 10.3434 206.3434 9 208 9 z"/>
  <path style="fill:#d3dae3" transform="translate(-192)" d="M 215 17 C 211.68629 17 209 19.686292 209 23 C 209 26.313708 211.68629 29 215 29 C 218.31371 29 221 26.313708 221 23 C 221 19.686292 218.31371 17 215 17 z M 211 22 L 213 22 L 213 24 L 211 24 L 211 22 z M 214 22 L 216 22 L 216 24 L 214 24 L 214 22 z M 217 22 L 219 22 L 219 24 L 217 24 L 217 22 z"/>
 </g>
 <g id="user-trash" transform="translate(256)">
  <rect style="opacity:0.001" width="32" height="32" x="0" y="0"/>
  <path style="fill:#d3dae3" d="M 14.324219,6 C 12.939605,6 12.939453,7 12.939453,7 H 8.3847656 C 8.3847656,7 7,6.9907697 7,8.4453125 V 10 H 25 V 8.4453125 C 25,6.990767 23.615234,7 23.615234,7 h -4.554687 c 0,0 -1.51e-4,-1 -1.384766,-1 z M 8,12 V 24.544922 C 8,25.301286 8.6987144,26 9.4550781,26 H 21.091797 22.544922 C 23.301287,26 24,25.301286 24,24.544922 V 12 Z"/>
 </g>
 <g id="user-trash-full" transform="translate(288)">
  <rect style="opacity:0.001" width="32" height="32" x="0" y="0"/>
  <path style="fill:#d3dae3" d="M 14.324219,6 C 12.939605,6 12.939453,7 12.939453,7 H 8.3847656 C 8.3847656,7 7,6.9907697 7,8.4453125 V 10 H 25 V 8.4453125 C 25,6.990767 23.615234,7 23.615234,7 h -4.554687 c 0,0 -1.51e-4,-1 -1.384766,-1 z M 7,12 v 4.199219 c 0,1.4 0.081549,3.011172 0.2753906,4.201172 0.193846,1.19 1.109375,4.199218 1.109375,4.199218 0,0 0.6647656,1.400391 1.3847656,1.400391 H 22.230469 c 0.72,0 1.384765,-1.400391 1.384765,-1.400391 0,0 0.915529,-3.009218 1.109375,-4.199218 C 24.918455,19.210391 25,17.599219 25,16.199219 V 12 Z"/>
 </g>
 <g id="user-desktop" transform="translate(224)">
  <rect style="opacity:0.001" width="32" height="32" x="0" y="0"/>
  <path style="fill:#d3dae3" d="M 4.0000011,8.0000017 V 24.807617 C 4.0000011,25.46864 4.5363732,26 5.2011729,26 h 4.7988281 v -1.499999 c 0,-0.831002 0.618664,-1.5 1.385742,-1.5 h 9.228515 c 0.767078,0 1.385742,0.668998 1.385742,1.5 V 26 h 4.798829 C 27.463628,26 28,25.46864 28,24.807617 V 8.0000017 Z"/>
  <path style="opacity:0.3;fill:#d3dae3" d="m 5.2000003,5.0000018 c -0.6647999,0 -1.1999999,0.5321591 -1.1999999,1.1931818 V 8.0000017 H 28 V 6.1931836 C 28,5.5321609 27.46432,5.0000018 26.8,5.0000018 Z"/>
 </g>
</svg>
