<svg xmlns="http://www.w3.org/2000/svg" xmlns:osb="http://www.openswatchbook.org/uri/2009/osb" id="svg" width="100%" height="100%" version="1.1" viewBox="0 0 22 22">
 <defs>
  <linearGradient id="linearGradient5606" osb:paint="solid">
   <stop id="stop5608" offset="0" style="stop-color:#000000"/>
  </linearGradient>
 </defs>
 <g id="22-22-video-display-brightness">
  <rect width="22" height="22" x="0" y="0" style="opacity:0;fill:#00000f;fill-opacity:0.00392157"/>
  <path d="M 11 1.0996094 L 8.0996094 4 L 4 4 L 4 8.0996094 L 1.0996094 11 L 4 13.900391 L 4 18 L 8.0996094 18 L 11 20.900391 L 13.900391 18 L 18 18 L 18 13.900391 L 20.900391 11 L 18 8.0996094 L 18 4 L 13.900391 4 L 11 1.0996094 z M 11 5 A 6 6 0 0 1 17 11 A 6 6 0 0 1 11 17 A 6 6 0 0 1 5 11 A 6 6 0 0 1 11 5 z M 11 7 C 8.790861 7 7 8.790861 7 11 C 7 13.209139 8.790861 15 11 15 L 11 7 z" style="fill:#d3dae3"/>
 </g>
 <g id="video-display-brightness">
  <rect width="32" height="32" x="0" y="-34.01" style="opacity:0.001"/>
  <g transform="translate(-1.366272e-6,-35)">
   <rect width="21" height="16" x="-28" y="-24" rx="1.313" ry="1.333" transform="matrix(0,-1,-1,0,0,0)" style="fill:#c4c4c4"/>
   <rect width="20" height="26" x="-25" y="-29" rx="1.25" ry="1.3" transform="matrix(0,-1,-1,0,0,0)" style="fill:#c4c4c4"/>
   <rect width="16" height="22" x="-23" y="-27" rx="0" ry="0" transform="matrix(0,-1,-1,0,0,0)" style="fill:#5d5d5d"/>
   <path d="M 4.3008,5 C 3.5806,5 3,5.5575 3,6.25 l 0,1 C 3,6.5575 3.5806,6 4.3008,6 l 23.398,0 c 0.72,0 1.301,0.5575 1.301,1.25 l 0,-1 C 28.9998,5.5575 28.4188,5 27.6988,5 L 4.3008,5 Z" style="opacity:0.1;fill:#d3dae3"/>
   <path d="m 8,26.688 0,1 C 8,28.415 8.5953,29 9.334,29 l 13.332,0 C 23.405,29 24,28.415 24,27.688 l 0,-1 C 24,27.415 23.405,28 22.666,28 L 9.334,28 C 8.5953,28 8,27.415 8,26.688 Z" style="opacity:0.2"/>
   <path d="m 3,23.75 0,1 C 3,25.442 3.5806,26 4.3008,26 l 23.398,0 c 0.72,0 1.301,-0.558 1.301,-1.25 l 0,-1 c 0,0.692 -0.581,1.25 -1.301,1.25 l -23.398,0 c -0.7204,0 -1.301,-0.558 -1.301,-1.25 z" style="opacity:0.2"/>
   <path d="m 16,8.7185 c 0.73778,0.72803 1.443,1.5569 2.1895,2.2812 l 2.8105,0 0,2.8086 c 0.72444,0.74643 1.5531,1.4536 2.2812,2.1914 -0.72806,0.7378 -1.5569,1.472 -2.2812,2.2207 l 0,2.7793 -2.8105,0 c -0.747,0.724 -1.452,1.553 -2.19,2.281 -0.738,-0.728 -1.472,-1.557 -2.221,-2.281 l -2.779,0 0,-2.782 c -0.724,-0.748 -1.5532,-1.48 -2.2812,-2.218 0.728,-0.738 1.5572,-1.445 2.2812,-2.192 l 0,-2.8086 2.7793,0 c 0.749,-0.724 1.483,-1.5524 2.221,-2.2805 z m 0,3.2812 0,8 a 4,4 0 0 0 4,-4 4,4 0 0 0 -4,-4 z" style="opacity:0.2"/>
   <path d="m 16,7.7188 c 0.738,0.728 1.443,1.5569 2.189,2.2812 l 2.811,0 0,2.809 c 0.724,0.746 1.553,1.453 2.281,2.191 -0.728,0.738 -1.557,1.472 -2.281,2.221 L 21,20 18.189,20 C 17.443,20.724 16.738,21.553 16,22.281 15.262,21.553 14.528,20.724 13.779,20 L 11,20 11,17.219 C 10.276,16.47 9.4468,15.738 8.7188,15 9.4468,14.262 10.276,13.555 11,12.809 L 11,10 13.779,10 C 14.528,9.2756 15.262,8.4468 16,7.7188 Z M 16,11 l 0,8 a 4,4 0 0 0 4,-4 4,4 0 0 0 -4,-4 z" style="fill:#c4c4c4"/>
  </g>
 </g>
</svg>
