<svg xmlns="http://www.w3.org/2000/svg" xmlns:osb="http://www.openswatchbook.org/uri/2009/osb" id="svg7384" style="enable-background:new" width="32" height="32" version="1.1">
 <defs id="defs7386">
  <linearGradient id="linearGradient5606" osb:paint="solid">
   <stop id="stop5608" style="stop-color:#000000;stop-opacity:1;" offset="0"/>
  </linearGradient>
 </defs>
 <g id="view-refresh" transform="translate(-250.00021,54.000004)">
  <path id="path4156" style="opacity:0;fill:#ff0000;fill-opacity:1;fill-rule:nonzero;stroke:none;stroke-width:1;stroke-linecap:round;stroke-linejoin:round;stroke-miterlimit:4;stroke-dasharray:none;stroke-dashoffset:0;stroke-opacity:1" d="m 282.00021,-38.000004 16,0 0,16 -16,0 z"/>
  <g id="g4149" style="enable-background:new" transform="translate(281.97246,-37.000109)">
   <g id="layer12-0" style="display:inline" transform="translate(-485.03396,-41.017475)">
    <path id="path6694" style="opacity:1;fill:#d3dae3;fill-opacity:1;stroke:none" d="m 499.06185,49.01758 c 0,3.31371 -2.68629,6 -6,6 -3.28006,0 -5.94034,-2.63316 -5.99414,-5.90039 a 1,1 0 0 1 -0.006,-0.09961 1,1 0 0 1 1,-1 1,1 0 0 1 1,1 c 0,2.20914 1.79086,4 4,4 2.20914,0 4,-1.79086 4,-4 0,-2.20914 -1.79086,-4 -4,-4 l 0,2 -4,-3 4,-3 0,2 c 3.31371,0 6,2.68629 6,6 z"/>
   </g>
  </g>
 </g>
 <g id="view-history" transform="translate(-265.00021,54.000004)">
  <rect id="rect8345" style="opacity:0.00100002;fill:#000000;fill-opacity:1;stroke:none;stroke-width:1.1829319;stroke-linecap:round;stroke-linejoin:round;stroke-miterlimit:4;stroke-dasharray:none;stroke-opacity:1" width="32" height="32" x="265" y="-54"/>
  <g id="g6247" transform="translate(265.00021,-54.000004)">
   <rect id="rect4255" style="fill:#e49549;fill-opacity:1" width="28" height="28" x="-30" y="-30" rx="14" ry="14" transform="matrix(0,-1,-1,0,0,0)"/>
   <rect id="rect4058" style="opacity:0.2" width="22" height="22" x="-28" y="-27" rx="11" ry="11" transform="matrix(0,-1,-1,0,0,0)"/>
   <g id="g4042" transform="matrix(0.34375,0,0,0.34375,-96.75,-65.125)">
    <path id="path4044" style="fill:#ebebeb" d="m 328,204 c -8.864,0 -16.841,3.591 -22.625,9.375 -5.79,5.78 -9.38,13.76 -9.38,22.62 0,17.728 14.272,32 32,32 l 0,-32 22.625,-22.625 c -5.78,-5.79 -13.76,-9.38 -22.62,-9.38 z"/>
    <path id="path4046" style="fill:#c4c4c4" d="M 350.62,213.38 328,236 l 0,32 c 17.728,0 32,-14.272 32,-32 0,-8.864 -3.591,-16.841 -9.375,-22.625 z"/>
    <path id="path4048" style="color:#000000;text-indent:0;text-decoration:none;text-decoration-line:none;text-transform:none;block-progression:tb;fill:#5e5e5e" d="m 350,212.56 -23.442,22.002 2.875,2.875 22.002,-23.442 -1.4352,-1.4352 z"/>
    <path id="path4050" style="fill:none;stroke:#f34235;stroke-width:2px" d="m 328,236 0,32"/>
    <path id="path4052" style="color:#000000;text-indent:0;text-decoration:none;text-decoration-line:none;text-transform:none;block-progression:tb;fill:#3f3f3f" d="m 312.73,219.27 -1.4375,1.4375 15.27,16.73 2.875,-2.875 z"/>
    <circle id="path4054" style="fill:#3f3f3f" cx="160" cy="184" r="1" transform="matrix(2,0,0,2,8,-132)"/>
   </g>
   <path id="rect4056" style="opacity:0.2" d="M 2.0254,16.5 C 2.0195,16.667 2,16.831 2,17 c 0,7.756 6.244,14 14,14 7.756,0 14,-6.244 14,-14 0,-0.16884 -0.01952,-0.33264 -0.02539,-0.5 -0.264,7.521 -6.388,13.5 -13.975,13.5 -7.5872,0 -13.711,-5.979 -13.975,-13.5 z"/>
  </g>
 </g>
</svg>
