<svg xmlns="http://www.w3.org/2000/svg" width="32" height="32" version="1.1">
 <g id="22-22-virt-manager" transform="translate(32,10)">
  <rect style="opacity:0.001" width="22" height="22" x="0" y="0"/>
  <path style="opacity:0.3;fill:#d3dae3" d="m 0,7 3.225,8 h 2.3 L 8.7,7 H 6.525 L 4.35,12.275 2.2,7 Z"/>
  <path style="fill:#d3dae3" d="M 9.825,7 C 8.7419,9.6805 7.6411,12.3442 6.5,15 H 8.8 L 10.95,9.75 13.075,15 h 2.3 L 17.5,9.6 19.7,15 H 22 C 20.8589,12.3442 19.7331,9.6805 18.65,7 h -2.3 L 14.225,12.275 12.05,7 Z"/>
 </g>
 <g id="virt-manager">
  <rect style="opacity:0.001" width="32" height="32" x="0" y="0"/>
  <path style="opacity:0.3;fill:#d3dae3" d="M 0,10 4.8375003,22 H 8.2875008 L 13.050001,10 H 9.7875009 L 6.5250005,17.9125 3.3000003,10 Z"/>
  <path style="fill:#d3dae3" d="M 13.737501,10 C 12.11285,14.02075 10.46165,18.016301 8.75,22 H 12.2 L 15.425,14.125 18.6125,22 h 3.450001 l 3.1875,-8.1 3.3,8.1 h 3.450001 c -1.711651,-3.983699 -3.40035,-7.97925 -5.025,-12 h -3.450001 l -3.1875,7.9125 L 17.075,10 Z"/>
 </g>
</svg>
