<svg xmlns="http://www.w3.org/2000/svg" width="22" height="22" version="1.1" style="enable-background:new">
 <g id="vlc">
  <rect width="22" height="22" x="0" y="0" rx=".752" ry=".72" style="opacity:0.00100002"/>
  <path d="m 10.96,3 c -0.005,-2e-5 -0.01,-0.002 -0.0154,-0.002 -0.687,0 -1.1558,0.1941 -1.2235,0.45952 -0.0348,0.0546 -0.0769,0.1056 -0.0957,0.16913 l -0.64422,3.1748 c 0.96505,0.69965 3.066,0.69965 4.0311,0 l -0.64421,-3.1748 c -0.004,-0.0136 -0.0157,-0.0226 -0.0205,-0.0359 6e-5,-0.002 0.003,-0.004 0.003,-0.005 C 12.35056,3.50385 12.29467,3.4229 12.20702,3.3483 12.13002,3.2658 12.03317,3.19985 11.92337,3.1621 11.62677,3.06002 11.3151,2.99995 10.9972,2.9964 Z m -2.8058,6.6003 -0.65106,2.1986 -1.056,0 c -0.28245,7e-5 -0.53724,0.16987 -0.64593,0.43049 l -1.7498,5.7989 c -0.19207,0.46083 0.14656,0.96845 0.64593,0.9686 l 12.599,0 c 0.49936,-1.5e-4 0.83799,-0.50777 0.64592,-0.9686 l -1.7498,-5.7989 c -0.1087,-0.26062 -0.36349,-0.43042 -0.64593,-0.43049 l -1.056,0 -0.65105,-2.1986 c -1.9246,0.76526 -3.5418,0.96203 -5.6852,0 z m 6.4371,2.5351 0.57587,1.9492 c 0.0897,0.30331 -0.0346,0.62879 -0.30417,0.79435 -1.0985,0.67411 -2.4982,1.0048 -3.8927,1.0181 C 9.5759,15.91045 8.1751,15.60862 7.0964,14.85665 6.84937,14.68431 6.74103,14.37329 6.82641,14.08451 l 0.55024,-1.8603 c 0.75371,0.44185 4.1682,1.7558 7.2146,-0.0888 z" style="fill:#d3dae3;fill-rule:evenodd"/>
 </g>
</svg>
