<svg xmlns="http://www.w3.org/2000/svg" width="32" height="32" version="1.1">
 <g id="22-22-vlc" transform="translate(0,-22)">
  <rect style="opacity:0.001" width="22" height="22" x="0" y="0" rx=".752" ry=".72"/>
  <path style="fill:#d3dae3" d="m 10.96,3 c -0.005,-2e-5 -0.01,-0.002 -0.0154,-0.002 -0.687,0 -1.1558,0.1941 -1.2235,0.45952 -0.0348,0.0546 -0.0769,0.1056 -0.0957,0.16913 l -0.64422,3.1748 c 0.96505,0.69965 3.066,0.69965 4.0311,0 l -0.64421,-3.1748 c -0.004,-0.0136 -0.0157,-0.0226 -0.0205,-0.0359 6e-5,-0.002 0.003,-0.004 0.003,-0.005 C 12.35056,3.50385 12.29467,3.4229 12.20702,3.3483 12.13002,3.2658 12.03317,3.19985 11.92337,3.1621 11.62677,3.06002 11.3151,2.99995 10.9972,2.9964 Z M 8.1542,9.6003 7.50314,11.7989 h -1.056 c -0.28245,7e-5 -0.53724,0.16987 -0.64593,0.43049 l -1.7498,5.7989 c -0.19207,0.46083 0.14656,0.96845 0.64593,0.9686 h 12.599 c 0.49936,-1.5e-4 0.83799,-0.50777 0.64592,-0.9686 l -1.7498,-5.7989 c -0.1087,-0.26062 -0.36349,-0.43042 -0.64593,-0.43049 h -1.056 L 13.83948,9.6003 c -1.9246,0.76526 -3.5418,0.96203 -5.6852,0 z m 6.4371,2.5351 0.57587,1.9492 c 0.0897,0.30331 -0.0346,0.62879 -0.30417,0.79435 -1.0985,0.67411 -2.4982,1.0048 -3.8927,1.0181 C 9.5759,15.91045 8.1751,15.60862 7.0964,14.85665 6.84937,14.68431 6.74103,14.37329 6.82641,14.08451 l 0.55024,-1.8603 c 0.75371,0.44185 4.1682,1.7558 7.2146,-0.0888 z"/>
 </g>
 <g id="vlc">
  <rect style="opacity:0.001" width="32" height="32" x="0" y="0" rx="1.094" ry="1.047"/>
  <path style="fill:#d3dae3" d="m 15.444747,4.0053969 c -0.0075,-3e-5 -0.015,-0.003 -0.0231,-0.003 -1.030502,0 -1.733704,0.2911412 -1.835254,0.6892591 -0.0522,0.081897 -0.115349,0.1583951 -0.143549,0.2536871 L 12.476513,9.707397 c 1.447577,1.049443 4.599006,1.049443 6.046658,0 L 17.556856,4.9453432 c -0.006,-0.0204 -0.02355,-0.033899 -0.03075,-0.053848 9.1e-5,-0.003 0.0045,-0.006 0.0045,-0.0075 2.1e-5,-0.1228433 -0.08381,-0.2442647 -0.215289,-0.3561613 C 17.199815,4.4040877 17.054541,4.3051657 16.88984,4.2485424 16.444939,4.0954271 15.977434,4.0053249 15.500583,4 Z M 11.236041,14.006 10.25945,17.003143 H 8.6754484 C 8.2517728,17.003249 7.8695873,17.25794 7.7065521,17.648858 L 5.0818487,26.547144 C 4.7937432,27.238368 5.301689,27.999775 6.0507449,28 H 24.94927 c 0.749041,-2.25e-4 1.256986,-0.761632 0.968882,-1.452856 L 23.293448,17.648857 C 23.130398,17.25794 22.748212,17.003248 22.324551,17.003142 H 20.740549 L 19.763973,14.006 c -2.886904,1.147855 -5.312707,1.443001 -8.527812,0 z m 9.655664,3.702078 0.863805,2.923712 c 0.134551,0.454951 -0.0519,0.943156 -0.456255,1.191489 -1.647752,1.011133 -3.747306,1.507153 -5.839058,1.527103 -2.091603,0.0201 -4.192806,-0.432632 -5.8108569,-1.560553 C 9.2787941,21.531327 9.116284,21.064811 9.2443541,20.631655 L 10.069715,17.84129 c 1.130567,0.662755 6.252308,2.63362 10.821915,-0.133196 z"/>
 </g>
</svg>
