<?xml version="1.0" encoding="UTF-8" standalone="no"?>
<svg
   xmlns:osb="http://www.openswatchbook.org/uri/2009/osb"
   xmlns:dc="http://purl.org/dc/elements/1.1/"
   xmlns:cc="http://creativecommons.org/ns#"
   xmlns:rdf="http://www.w3.org/1999/02/22-rdf-syntax-ns#"
   xmlns:svg="http://www.w3.org/2000/svg"
   xmlns="http://www.w3.org/2000/svg"
   width="22"
   version="1.1"
   style="enable-background:new"
   id="svg7384"
   height="22">
  <metadata
     id="metadata90">
    <rdf:RDF>
      <cc:Work
         rdf:about="">
        <dc:format>
                    image/svg+xml
                </dc:format>
        <dc:type
           rdf:resource="http://purl.org/dc/dcmitype/StillImage" />
        <dc:title>
        Paper Symbolic Icon Theme
    </dc:title>
      </cc:Work>
    </rdf:RDF>
  </metadata>
  <title
     id="title8473">
        Paper Symbolic Icon Theme
    </title>
  <defs
     id="defs7386">
    <linearGradient
       osb:paint="solid"
       id="linearGradient5606">
      <stop
         style="stop-color:#000000;stop-opacity:1;"
         offset="0"
         id="stop5608" />
    </linearGradient>
  </defs>
  <g
     transform="translate(-467.00009,-135)"
     id="wallet-open">
    <path
       id="rect4188"
       d="m 467.0002,135 22,0 0,22 -22,0 z"
       style="opacity:0;fill:#2b0000;fill-opacity:0.40392157;fill-rule:nonzero;stroke:none;stroke-width:1;stroke-linecap:round;stroke-linejoin:round;stroke-miterlimit:4;stroke-dasharray:none;stroke-dashoffset:0;stroke-opacity:1" />
    <path
       id="path4166"
       transform="translate(467.00009,135)"
       d="M 7,3 C 5.89201,3 5,3.892 5,5 l 0,12 c 0,1.108 0.89201,2 2,2 l 8,0 c 1.10799,0 2,-0.892 2,-2 L 17,5 C 17,3.892 16.10799,3 15,3 L 7,3 Z m 3,2 2,0 0,9 -2,0 0,-9 z m 0,10 2,0 0,2 -2,0 0,-2 z"
       style="opacity:1;fill:#d3dae3;fill-opacity:1;stroke:none;stroke-width:2;stroke-miterlimit:4;stroke-dasharray:none;stroke-opacity:1" />
  </g>
  <g
     transform="translate(-467.00009,-135)"
     id="wallet-closed">
    <path
       id="path4194"
       transform="translate(467.00009,135)"
       d="m 29,3 c -1.10799,0 -2,0.892 -2,2 l 0,12 c 0,1.108 0.89201,2 2,2 l 8,0 c 1.10799,0 2,-0.892 2,-2 L 39,5 C 39,3.892 38.10799,3 37,3 l -8,0 z m 3,5 c 1.108,0 2,1.0422556 2,2.322266 l 0,1.105468 0.5,0 c 0.277,0 0.5,0.255696 0.5,0.572266 l 0,3.427734 C 35,15.744314 34.777,16 34.5,16 l -5,0 C 29.223,16 29,15.744314 29,15.427734 L 29,12 c 0,-0.31657 0.223,-0.572266 0.5,-0.572266 l 0.5,0 0,-1.105468 C 30,9.0417556 30.892,8 32,8 Z m 0,1.1425781 c -0.554,0 -1,0.5094382 -1,1.1425779 l 0,1.142578 2,0 0,-1.142578 C 33,9.6520163 32.554,9.1425781 32,9.1425781 Z"
       style="opacity:1;fill:#d3dae3;fill-opacity:1;stroke:none;stroke-width:2;stroke-miterlimit:4;stroke-dasharray:none;stroke-opacity:1" />
    <path
       style="opacity:0;fill:#2b0000;fill-opacity:0.40392157;fill-rule:nonzero;stroke:none;stroke-width:1;stroke-linecap:round;stroke-linejoin:round;stroke-miterlimit:4;stroke-dasharray:none;stroke-dashoffset:0;stroke-opacity:1"
       d="m 489.00009,135 22,0 0,22 -22,0 z"
       id="path4183" />
  </g>
</svg>
