<svg xmlns="http://www.w3.org/2000/svg" width="32" height="32" version="1.1">
 <rect style="opacity:0.001" width="22" height="22" x="-38.33" y="13.77"/>
 <g id="22-22-window-close" transform="translate(32,10)">
  <rect style="opacity:0.00100002" width="22" height="22" x="0" y="0"/>
  <g transform="matrix(1.7493122,0,0,1.7499488,-107.95048,-909.47286)">
   <g transform="translate(19,-242)">
    <path style="fill:#d3dae3" d="m 45.571203,764.57141 h 0.857142 c 0.0089,-1.1e-4 0.01782,-4e-4 0.02679,0 0.21853,0.01 0.437032,0.11021 0.589286,0.26785 l 1.955357,1.95536 1.982143,-1.95536 c 0.227678,-0.19757 0.382861,-0.26185 0.589285,-0.26785 h 0.857143 v 0.85714 c 0,0.24555 -0.02943,0.47199 -0.214285,0.64286 l -1.955357,1.95535 1.928571,1.92858 c 0.161304,0.16128 0.241064,0.38867 0.241071,0.61607 v 0.85714 h -0.857143 c -0.2274,-10e-6 -0.454788,-0.0798 -0.616071,-0.24107 l -1.955357,-1.95536 -1.955357,1.95536 c -0.161288,0.1613 -0.388684,0.24107 -0.616076,0.24107 h -0.857142 v -0.85714 c -3e-6,-0.22739 0.07977,-0.45479 0.241071,-0.61607 l 1.955357,-1.92858 -1.955357,-1.95535 c -0.180636,-0.16683 -0.259851,-0.40222 -0.241071,-0.64286 z"/>
   </g>
  </g>
 </g>
 <g id="window-close">
  <rect style="opacity:0.001" width="32" height="32" x="0" y="0"/>
  <g transform="matrix(2.623967,0,0,2.624922,-162.42563,-1364.7087)">
   <g transform="translate(19,-242)">
    <path style="fill:#d3dae3" d="m 45.571203,764.57141 h 0.857142 c 0.0089,-1.1e-4 0.01782,-4e-4 0.02679,0 0.21853,0.01 0.437032,0.11021 0.589286,0.26785 l 1.955357,1.95536 1.982143,-1.95536 c 0.227678,-0.19757 0.382861,-0.26185 0.589285,-0.26785 h 0.857143 v 0.85714 c 0,0.24555 -0.02943,0.47199 -0.214285,0.64286 l -1.955357,1.95535 1.928571,1.92858 c 0.161304,0.16128 0.241064,0.38867 0.241071,0.61607 v 0.85714 h -0.857143 c -0.2274,-10e-6 -0.454788,-0.0798 -0.616071,-0.24107 l -1.955357,-1.95536 -1.955357,1.95536 c -0.161288,0.1613 -0.388684,0.24107 -0.616076,0.24107 h -0.857142 v -0.85714 c -3e-6,-0.22739 0.07977,-0.45479 0.241071,-0.61607 l 1.955357,-1.92858 -1.955357,-1.95535 c -0.180636,-0.16683 -0.259851,-0.40222 -0.241071,-0.64286 z"/>
   </g>
  </g>
 </g>
 <g id="22-22-window-pin" transform="translate(27,-27)">
  <rect style="opacity:0.001" width="22" height="22" x="5" y="5"/>
  <path style="fill:#d3dae3" d="m 12.021484,8.00005 a 0.9947634,1.0001 0 1 0 0,2 H 13 v 3 c 0,1.328 -1.695715,2 -3,2 v 2 h 5 v 6 l 0.976562,1 1.023438,-1 v -6 h 5 v -2 c -1.304286,0 -3.055749,-0.673171 -3,-2 v -3 h 0.978516 a 0.9947634,1.0001 0 1 0 0,-2 z"/>
 </g>
 <g id="16-16-window-pin" transform="translate(46,-24)">
  <rect style="opacity:0.001" width="16" height="16" x="8" y="8"/>
  <path style="fill:#d3dae3" d="m 13.510737,12.000059 c -0.672537,-0.0096 -0.672537,1.009544 0,0.999994 h 0.489255 v 1.999962 c 0,0.663996 -0.847853,0.999994 -1.499992,0.999994 v 0.999994 h 2.499985 v 2.500009 l 0.488277,0.499997 0.511716,-0.499997 v -2.500009 h 2.499985 v -0.999994 c -0.652138,0 -1.527864,-0.336583 -1.499991,-0.999994 v -1.999962 h 0.489255 c 0.672537,0.0095 0.672537,-1.009544 0,-0.999994 z"/>
 </g>
 <g id="window-pin" transform="translate(-7.9999995,-74)">
  <rect style="opacity:0.001" width="32" height="32" x="8" y="42"/>
  <path style="fill:#d3dae3" d="m 18.559,45.000156 c -2.101692,-0.02986 -2.101692,3.029703 0,2.999844 H 20 v 4.812607 C 20,54.887595 17.037989,56 15.000056,56 v 3 H 23 v 9.43751 L 24.5,70 26,68.43751 V 59 h 8 v -3 c -2.037934,0 -5.087107,-1.114236 -5,-3.187393 V 48 h 1.391 c 2.101692,0.02986 2.101692,-3.029703 0,-2.999844 z"/>
 </g>
 <g id="8-8-window-pin" transform="translate(58,-20)">
  <rect style="opacity:0.001" width="8" height="8" x="12" y="12"/>
  <path style="fill:#d3dae3" d="m 13.510737,12.000059 c -0.672537,-0.0096 -0.672537,1.009544 0,0.999994 h 0.489255 v 1.999962 c 0,0.663996 -0.847853,0.999994 -1.499992,0.999994 v 0.999994 h 2.499985 v 2.500009 l 0.488277,0.499997 0.511716,-0.499997 v -2.500009 h 2.499985 v -0.999994 c -0.652138,0 -1.527864,-0.336583 -1.499991,-0.999994 v -1.999962 h 0.489255 c 0.672537,0.0095 0.672537,-1.009544 0,-0.999994 z"/>
 </g>
</svg>
