<svg xmlns="http://www.w3.org/2000/svg" xmlns:osb="http://www.openswatchbook.org/uri/2009/osb" id="svg7384" width="22" height="22" version="1.1" style="enable-background:new">
 <defs id="defs7386">
  <linearGradient id="linearGradient5606" osb:paint="solid">
   <stop id="stop5608" offset="0" style="stop-color:#000000;stop-opacity:1"/>
  </linearGradient>
 </defs>
 <g id="zoom-fit-width" transform="translate(-465.0002,65.00334)">
  <rect id="rect3338" width="22" height="22" x="465" y="-65" style="opacity:0;fill:#0000ff;fill-rule:evenodd;stroke:none;stroke-width:1px;stroke-linecap:butt;stroke-linejoin:miter;stroke-opacity:1"/>
  <path id="path5837" d="m 473.0002,-57.00334 -5,3 5,3 0,-2 6,0 0,2 5,-3 -5,-3 0,2 -6,0 0,-2 z" style="opacity:1;fill:#d3dae3;fill-opacity:1;stroke:none"/>
 </g>
 <g id="zoom-fit-height" transform="matrix(0,1,-1,0,-17.00334,-465.00037)">
  <rect id="rect4142" width="22" height="22" x="465" y="-65" style="opacity:0;fill:#0000ff;fill-rule:evenodd;stroke:none;stroke-width:1px;stroke-linecap:butt;stroke-linejoin:miter;stroke-opacity:1"/>
  <path id="path4144" d="m 473.0002,-57.00334 -5,3 5,3 0,-2 6,0 0,2 5,-3 -5,-3 0,2 -6,0 0,-2 z" style="opacity:1;fill:#d3dae3;fill-opacity:1;stroke:none"/>
 </g>
 <g id="16-16-zoom-fit-width" transform="translate(-486.00018,85.003342)" style="display:inline;enable-background:new">
  <rect id="rect4142-1" width="16" height="16" x="489" y="-59" style="opacity:0;fill:#0000ff;fill-rule:evenodd;stroke:none;stroke-width:1px;stroke-linecap:butt;stroke-linejoin:miter;stroke-opacity:1"/>
  <path id="path4144-5" d="m 494.0002,-54.00334 -4,2.999999 4,3.000001 0,-2.000001 6,0 0,2.000001 4,-3.000001 -4,-2.999999 0,2.000001 -6,0 z" style="opacity:1;fill:#d3dae3;fill-opacity:1;stroke:none"/>
 </g>
 <g id="16-16-zoom-fit-height" transform="matrix(0,1,-1,0,-14.00334,-463.00018)" style="display:inline;enable-background:new">
  <rect id="rect4155" width="16" height="16" x="489" y="-59" style="opacity:0;fill:#0000ff;fill-rule:evenodd;stroke:none;stroke-width:1px;stroke-linecap:butt;stroke-linejoin:miter;stroke-opacity:1"/>
  <path id="path4157" d="m 494.0002,-54.00334 -4,2.999999 4,3.000001 0,-2.000001 6,0 0,2.000001 4,-3.000001 -4,-2.999999 0,2.000001 -6,0 z" style="opacity:1;fill:#d3dae3;fill-opacity:1;stroke:none"/>
 </g>
</svg>
