<svg xmlns="http://www.w3.org/2000/svg" xmlns:osb="http://www.openswatchbook.org/uri/2009/osb" width="22" height="22" version="1.1" style="enable-background:new">
 <defs>
  <linearGradient id="linearGradient5606" osb:paint="solid">
   <stop id="stop5608" offset="0" style="stop-color:#000000"/>
  </linearGradient>
 </defs>
 <g id="zoom-fit-width" transform="translate(-465.0002,65.00334)">
  <rect width="22" height="22" x="465" y="-65" style="opacity:0;fill:#0000ff;fill-rule:evenodd"/>
  <path d="m 473.0002,-57.00334 -5,3 5,3 0,-2 6,0 0,2 5,-3 -5,-3 0,2 -6,0 0,-2 z" style="fill:#d3dae3"/>
 </g>
 <g id="zoom-fit-height" transform="matrix(0,1,-1,0,-17.00334,-465.00037)">
  <rect width="22" height="22" x="465" y="-65" style="opacity:0;fill:#0000ff;fill-rule:evenodd"/>
  <path d="m 473.0002,-57.00334 -5,3 5,3 0,-2 6,0 0,2 5,-3 -5,-3 0,2 -6,0 0,-2 z" style="fill:#d3dae3"/>
 </g>
 <g id="16-16-zoom-fit-width" transform="translate(-486.00018,85.003342)" style="enable-background:new">
  <rect width="16" height="16" x="489" y="-59" style="opacity:0;fill:#0000ff;fill-rule:evenodd"/>
  <path d="m 494.0002,-54.00334 -4,2.999999 4,3.000001 0,-2.000001 6,0 0,2.000001 4,-3.000001 -4,-2.999999 0,2.000001 -6,0 z" style="fill:#d3dae3"/>
 </g>
 <g id="16-16-zoom-fit-height" transform="matrix(0,1,-1,0,-14.00334,-463.00018)" style="enable-background:new">
  <rect width="16" height="16" x="489" y="-59" style="opacity:0;fill:#0000ff;fill-rule:evenodd"/>
  <path d="m 494.0002,-54.00334 -4,2.999999 4,3.000001 0,-2.000001 6,0 0,2.000001 4,-3.000001 -4,-2.999999 0,2.000001 -6,0 z" style="fill:#d3dae3"/>
 </g>
</svg>
