<svg xmlns="http://www.w3.org/2000/svg" id="svg4306" style="enable-background:new" width="16" height="16" version="1.1">
 <g id="active-center">
  <rect id="rect17883-29-2-2" style="display:inline;opacity:0.7;fill:none;fill-opacity:1;stroke:none;stroke-width:1;stroke-linecap:butt;stroke-linejoin:miter;stroke-miterlimit:4;stroke-dasharray:none;stroke-dashoffset:0;stroke-opacity:0" width="16" height="16" x="0" y="0"/>
  <circle id="path4179" style="opacity:0.7;fill:#b9bcc2;fill-opacity:1;stroke:none;stroke-width:2;stroke-miterlimit:4;stroke-dasharray:none;stroke-opacity:1" cx="8" cy="8" r="3"/>
 </g>
 <g id="hover-center" transform="translate(-39)">
  <ellipse id="path4068-7-5-9-6-7-2-4-6-6" style="display:inline;opacity:0.45;fill:#5f697f;fill-opacity:1;stroke:none;stroke-width:0;stroke-linecap:butt;stroke-linejoin:miter;stroke-miterlimit:4;stroke-dasharray:none;stroke-dashoffset:0;stroke-opacity:1" cx="65" cy="8" rx="6" ry="6"/>
  <path id="path4068-7-5-9-6-7-2-5-78-2-6" style="display:inline;opacity:0.37000002;fill:#15171c;fill-opacity:1;stroke:none;stroke-width:0;stroke-linecap:butt;stroke-linejoin:miter;stroke-miterlimit:4;stroke-dasharray:none;stroke-dashoffset:0;stroke-opacity:1" d="m 65,1 a 7,7 0 0 0 -7,7 7,7 0 0 0 7,7 7,7 0 0 0 7,-7 7,7 0 0 0 -7,-7 z m 0,1 a 6,6 0 0 1 6,6 6,6 0 0 1 -6,6 6,6 0 0 1 -6,-6 6,6 0 0 1 6,-6 z"/>
  <rect id="rect17883-0-1-5" style="display:inline;opacity:1;fill:none;fill-opacity:1;stroke:none;stroke-width:1;stroke-linecap:butt;stroke-linejoin:miter;stroke-miterlimit:4;stroke-dasharray:none;stroke-dashoffset:0;stroke-opacity:0" width="16" height="16" x="57" y="0"/>
  <circle id="circle4275" style="opacity:1;fill:#c4c7cc;fill-opacity:1;stroke:none;stroke-width:2;stroke-miterlimit:4;stroke-dasharray:none;stroke-opacity:1" cx="65" cy="8" r="3"/>
 </g>
 <g id="pressed-center" transform="translate(-2)">
  <g id="g4490-2-9-1-2-4-8" style="display:inline;opacity:1" transform="translate(-1388,-247)">
   <g id="g4092-0-6-3-6-8-3-7" style="display:inline" transform="translate(58)">
    <circle id="path4068-7-6-5-1-6-6-0" style="fill:#5294e2;fill-opacity:1;stroke:none;stroke-width:0;stroke-linecap:butt;stroke-linejoin:miter;stroke-miterlimit:4;stroke-dasharray:none;stroke-dashoffset:0;stroke-opacity:1" cx="1376" cy="255" r="7"/>
   </g>
  </g>
  <rect id="rect17883-79-3-0" style="display:inline;opacity:1;fill:none;fill-opacity:1;stroke:none;stroke-width:1;stroke-linecap:butt;stroke-linejoin:miter;stroke-miterlimit:4;stroke-dasharray:none;stroke-dashoffset:0;stroke-opacity:0" width="16" height="16" x="38" y="0"/>
  <circle id="circle4224" style="opacity:1;fill:#ffffff;fill-opacity:1;stroke:none;stroke-width:2;stroke-miterlimit:4;stroke-dasharray:none;stroke-opacity:1" cx="46" cy="8" r="3"/>
 </g>
 <g id="inactive-center" transform="translate(36)">
  <circle id="circle4222" style="opacity:0.4;fill:#b9bcc2;fill-opacity:1;stroke:none;stroke-width:2;stroke-miterlimit:4;stroke-dasharray:none;stroke-opacity:1" cx="26" cy="8" r="3"/>
  <rect id="rect17883-39-6-2-5" style="display:inline;opacity:0.4;fill:none;fill-opacity:1;stroke:none;stroke-width:1;stroke-linecap:butt;stroke-linejoin:miter;stroke-miterlimit:4;stroke-dasharray:none;stroke-dashoffset:0;stroke-opacity:0" width="16" height="16" x="18" y="0"/>
 </g>
 <g id="deactivated-center" transform="translate(54)">
  <circle id="circle33" style="opacity:0.4;fill:#b9bcc2;fill-opacity:1;stroke:none;stroke-width:2;stroke-miterlimit:4;stroke-dasharray:none;stroke-opacity:1" cx="26" cy="8" r="3"/>
  <rect id="rect35" style="display:inline;opacity:0.4;fill:none;fill-opacity:1;stroke:none;stroke-width:1;stroke-linecap:butt;stroke-linejoin:miter;stroke-miterlimit:4;stroke-dasharray:none;stroke-dashoffset:0;stroke-opacity:0" width="16" height="16" x="18" y="0"/>
 </g>
</svg>
