<svg xmlns="http://www.w3.org/2000/svg" id="svg4306" style="enable-background:new" width="16" height="16" version="1.1">
 <g id="active-center" style="display:inline" transform="translate(-645,185.63782)">
  <g id="g4927-9-2-8" style="display:inline;opacity:1" transform="translate(-678,-432.63782)">
   <g id="g4490-6-5-2-5-3" style="display:inline;opacity:1" transform="translate(-103,0)">
    <g id="g4092-0-2-21-0-9-7" style="display:inline" transform="translate(58,0)">
     <path id="path4068-7-5-9-6-5-8" style="fill:#cc575d;fill-opacity:1;stroke:none;stroke-width:0;stroke-linecap:butt;stroke-linejoin:miter;stroke-miterlimit:4;stroke-dasharray:none;stroke-dashoffset:0;stroke-opacity:1" d="m 414,58 a 7,7 0 0 0 -7,7 7,7 0 0 0 7,7 7,7 0 0 0 7,-7 7,7 0 0 0 -7,-7 z m -3,3.921875 0.75,0 c 0.008,-9e-5 0.0156,-3.45e-4 0.0234,0 0.19121,0.0084 0.3824,0.09643 0.51562,0.234375 L 414,63.867188 415.73438,62.15625 c 0.19921,-0.172875 0.335,-0.229125 0.51562,-0.234375 l 0.75,0 0,0.75 c 0,0.214853 -0.0258,0.412987 -0.1875,0.5625 l -1.71094,1.710937 1.6875,1.6875 C 416.9302,66.77394 416.99999,66.9729 417,67.171875 l 0,0.75 -0.75,0 c -0.19898,-8e-6 -0.39794,-0.06982 -0.53906,-0.210937 L 414,66 l -1.71094,1.710938 c -0.14112,0.141142 -0.34009,0.210937 -0.53906,0.210937 l -0.75,0 0,-0.75 c 0,-0.198967 0.0698,-0.397935 0.21094,-0.539063 l 1.71094,-1.6875 -1.71094,-1.710937 C 411.05288,63.088403 410.98357,62.882438 411,62.671875 l 0,-0.75 z" transform="translate(962.00001,190.00002)"/>
    </g>
   </g>
  </g>
  <rect id="rect17883-39-99-8" style="display:inline;opacity:1;fill:none;fill-opacity:1;stroke:none;stroke-width:1;stroke-linecap:butt;stroke-linejoin:miter;stroke-miterlimit:4;stroke-dasharray:none;stroke-dashoffset:0;stroke-opacity:0" width="16" height="16" x="645" y="-185.64"/>
 </g>
 <g id="hover-center" style="display:inline" transform="translate(-524,185.63782)">
  <g id="g4927-97-4" style="display:inline;opacity:1" transform="translate(-781,-432.63782)">
   <g id="g4490-6-9-1-3" style="display:inline;opacity:1" transform="translate(-103)">
    <g id="g4092-0-2-3-4-6" style="display:inline" transform="translate(58)">
     <path id="path4068-7-5-8-2-3" style="fill:#d7787d;fill-opacity:1;stroke:none;stroke-width:0;stroke-linecap:butt;stroke-linejoin:miter;stroke-miterlimit:4;stroke-dasharray:none;stroke-dashoffset:0;stroke-opacity:1" d="m 414,92 a 7,7 0 0 0 -7,7 7,7 0 0 0 7,7 7,7 0 0 0 7,-7 7,7 0 0 0 -7,-7 z m -3,3.921875 h 0.75 c 0.008,-9e-5 0.0156,-3.45e-4 0.0234,0 0.19121,0.0084 0.3824,0.09643 0.51562,0.234375 L 414,97.867188 415.73438,96.15625 c 0.19921,-0.172875 0.335,-0.229125 0.51562,-0.234375 H 417 v 0.75 c 0,0.214853 -0.0258,0.412987 -0.1875,0.5625 l -1.71094,1.710937 1.6875,1.687498 c 0.14114,0.14113 0.21093,0.34009 0.21094,0.53907 v 0.75 h -0.75 c -0.19898,-1e-5 -0.39794,-0.0698 -0.53906,-0.21094 L 414,100 l -1.71094,1.71094 c -0.14112,0.14114 -0.34009,0.21094 -0.53906,0.21094 H 411 v -0.75 c 0,-0.19897 0.0698,-0.39794 0.21094,-0.53907 l 1.71094,-1.687498 -1.71094,-1.710937 C 411.05288,97.088403 410.98357,96.882438 411,96.671875 Z" transform="translate(962,156.00002)"/>
    </g>
   </g>
  </g>
  <rect id="rect17883-5-4-2" style="display:inline;opacity:1;fill:none;fill-opacity:1;stroke:none;stroke-width:1;stroke-linecap:butt;stroke-linejoin:miter;stroke-miterlimit:4;stroke-dasharray:none;stroke-dashoffset:0;stroke-opacity:0" width="16" height="16" x="542" y="-185.64"/>
 </g>
 <g id="pressed-center" style="display:inline" transform="translate(-405,185.63782)">
  <g id="g4927-8-7-4-9" style="display:inline;opacity:1" transform="translate(-882,-432.63782)">
   <g id="g4490-6-3-7-46-6" style="display:inline;opacity:1" transform="translate(-103)">
    <g id="g4092-0-2-2-1-7-2" style="display:inline" transform="translate(58)">
     <path id="path4068-7-5-4-9-7-6" style="fill:#be3841;fill-opacity:1;stroke:none;stroke-width:0;stroke-linecap:butt;stroke-linejoin:miter;stroke-miterlimit:4;stroke-dasharray:none;stroke-dashoffset:0;stroke-opacity:1" d="m 414,109 a 7,7 0 0 0 -7,7 7,7 0 0 0 7,7 7,7 0 0 0 7,-7 7,7 0 0 0 -7,-7 z m -3,3.92188 h 0.75 c 0.008,-1e-4 0.0156,-3.5e-4 0.0234,0 0.19121,0.008 0.3824,0.0964 0.51562,0.23437 l 1.71094,1.71094 1.73438,-1.71094 c 0.19921,-0.17287 0.335,-0.22913 0.51562,-0.23437 h 0.75 v 0.75 c 0,0.21485 -0.0258,0.41298 -0.1875,0.5625 l -1.71094,1.71093 1.6875,1.6875 c 0.14114,0.14113 0.21093,0.34009 0.21094,0.53907 v 0.75 h -0.75 c -0.19898,-1e-5 -0.39794,-0.0698 -0.53906,-0.21094 L 414,117 l -1.71094,1.71094 c -0.14112,0.14114 -0.34009,0.21094 -0.53906,0.21094 H 411 v -0.75 c 0,-0.19897 0.0698,-0.39794 0.21094,-0.53907 l 1.71094,-1.6875 -1.71094,-1.71093 c -0.15806,-0.14598 -0.22737,-0.35194 -0.21094,-0.5625 z" transform="translate(962.00001,139.00001)"/>
    </g>
   </g>
  </g>
  <rect id="rect17883-02-4-3" style="display:inline;opacity:1;fill:none;fill-opacity:1;stroke:none;stroke-width:1;stroke-linecap:butt;stroke-linejoin:miter;stroke-miterlimit:4;stroke-dasharray:none;stroke-dashoffset:0;stroke-opacity:0" width="16" height="16" x="441" y="-185.64"/>
 </g>
 <g id="inactive-center" style="display:inline;opacity:0.4" transform="translate(-591,185.63782)">
  <g id="g4927-9-2-8-0" style="display:inline;opacity:1" transform="translate(-678,-432.63782)">
   <g id="g4490-6-5-2-5-3-3" style="display:inline;opacity:1" transform="translate(-103,0)">
    <g id="g4092-0-2-21-0-9-7-0" style="display:inline" transform="translate(58,0)">
     <path id="path4068-7-5-9-6-5-8-3" style="fill:#b9bcc2;fill-opacity:1;stroke:none;stroke-width:0;stroke-linecap:butt;stroke-linejoin:miter;stroke-miterlimit:4;stroke-dasharray:none;stroke-dashoffset:0;stroke-opacity:1" d="m 414,58 a 7,7 0 0 0 -7,7 7,7 0 0 0 7,7 7,7 0 0 0 7,-7 7,7 0 0 0 -7,-7 z m -3,3.921875 0.75,0 c 0.008,-9e-5 0.0156,-3.45e-4 0.0234,0 0.19121,0.0084 0.3824,0.09643 0.51562,0.234375 L 414,63.867188 415.73438,62.15625 c 0.19921,-0.172875 0.335,-0.229125 0.51562,-0.234375 l 0.75,0 0,0.75 c 0,0.214853 -0.0258,0.412987 -0.1875,0.5625 l -1.71094,1.710937 1.6875,1.6875 C 416.9302,66.77394 416.99999,66.9729 417,67.171875 l 0,0.75 -0.75,0 c -0.19898,-8e-6 -0.39794,-0.06982 -0.53906,-0.210937 L 414,66 l -1.71094,1.710938 c -0.14112,0.141142 -0.34009,0.210937 -0.53906,0.210937 l -0.75,0 0,-0.75 c 0,-0.198967 0.0698,-0.397935 0.21094,-0.539063 l 1.71094,-1.6875 -1.71094,-1.710937 C 411.05288,63.088403 410.98357,62.882438 411,62.671875 l 0,-0.75 z" transform="translate(962.00001,190.00002)"/>
    </g>
   </g>
  </g>
  <rect id="rect17883-39-99-8-6" style="display:inline;opacity:1;fill:none;fill-opacity:1;stroke:none;stroke-width:1;stroke-linecap:butt;stroke-linejoin:miter;stroke-miterlimit:4;stroke-dasharray:none;stroke-dashoffset:0;stroke-opacity:0" width="16" height="16" x="645" y="-185.64"/>
 </g>
 <g id="deactivated-center" style="display:inline;opacity:0.4" transform="translate(-573,185.63782)">
  <g id="g98" style="display:inline;opacity:1" transform="translate(-678,-432.63782)">
   <g id="g76" style="display:inline;opacity:1" transform="translate(-103)">
    <g id="g74" style="display:inline" transform="translate(58)">
     <path id="path72" style="fill:#b9bcc2;fill-opacity:1;stroke:none;stroke-width:0;stroke-linecap:butt;stroke-linejoin:miter;stroke-miterlimit:4;stroke-dasharray:none;stroke-dashoffset:0;stroke-opacity:1" d="m 414,58 a 7,7 0 0 0 -7,7 7,7 0 0 0 7,7 7,7 0 0 0 7,-7 7,7 0 0 0 -7,-7 z m -3,3.921875 h 0.75 c 0.008,-9e-5 0.0156,-3.45e-4 0.0234,0 0.19121,0.0084 0.3824,0.09643 0.51562,0.234375 L 414,63.867188 415.73438,62.15625 c 0.19921,-0.172875 0.335,-0.229125 0.51562,-0.234375 H 417 v 0.75 c 0,0.214853 -0.0258,0.412987 -0.1875,0.5625 l -1.71094,1.710937 1.6875,1.6875 C 416.9302,66.77394 416.99999,66.9729 417,67.171875 v 0.75 h -0.75 c -0.19898,-8e-6 -0.39794,-0.06982 -0.53906,-0.210937 L 414,66 l -1.71094,1.710938 c -0.14112,0.141142 -0.34009,0.210937 -0.53906,0.210937 H 411 v -0.75 c 0,-0.198967 0.0698,-0.397935 0.21094,-0.539063 l 1.71094,-1.6875 -1.71094,-1.710937 C 411.05288,63.088403 410.98357,62.882438 411,62.671875 Z" transform="translate(962.00001,190.00002)"/>
    </g>
   </g>
  </g>
  <rect id="rect100" style="display:inline;opacity:1;fill:none;fill-opacity:1;stroke:none;stroke-width:1;stroke-linecap:butt;stroke-linejoin:miter;stroke-miterlimit:4;stroke-dasharray:none;stroke-dashoffset:0;stroke-opacity:0" width="16" height="16" x="645" y="-185.64"/>
 </g>
</svg>
