<svg xmlns="http://www.w3.org/2000/svg" width="16" height="16" version="1.1">
 <g id="active-center">
  <rect style="opacity:0.001" width="16" height="16" x="0" y="0"/>
  <path  style="opacity:0.7;fill:#b9bcc2" d="m 5,10 h 6 L 8,5 Z"/>
 </g>
 <g id="hover-center">
  <rect style="opacity:0.001" width="16" height="16" x="18" y="0"/>
  <circle style="opacity:0.45;fill:#5f697f" cx="26" cy="8" r="6"/>
  <path style="opacity:0.37;fill:#15171c" d="m 26,1 a 7,7 0 0 0 -7,7 7,7 0 0 0 7,7 7,7 0 0 0 7,-7 7,7 0 0 0 -7,-7 z m 0,1 a 6,6 0 0 1 6,6 6,6 0 0 1 -6,6 6,6 0 0 1 -6,-6 6,6 0 0 1 6,-6 z"/>
  <path style="fill:#c4c7cc" d="m 23,10 h 6 L 26,5 Z"/>
 </g>
 <g id="pressed-center">
  <circle style="fill:#5294e2" cx="44" cy="8" r="7"/>
  <rect style="opacity:0.001" width="16" height="16" x="36" y="0"/>
  <path  style="fill:#ffffff" d="m 41,10 h 6 L 44,5 Z"/>
 </g>
 <g id="inactive-center">
  <rect style="opacity:0.001" width="16" height="16" x="54" y="0"/>
  <path  style="opacity:0.4;fill:#b9bcc2" d="m 59,10 h 6 L 62,5 Z"/>
 </g>
 <g id="deactivated-center">
  <rect  style="opacity:0.001" width="16" height="16" x="72" y="0"/>
  <path  style="opacity:0.4;fill:#b9bcc2" d="m 77,10 h 6 L 80,5 Z"/>
 </g>
</svg>
