<svg xmlns="http://www.w3.org/2000/svg"  width="16" height="16" version="1.1">
 <g id="active-center">
  <rect style="opacity:0.001" width="16" height="16" x="0" y="-16" transform="scale(1,-1)"/>
  <path  style="opacity:0.7;fill:#b9bcc2" d="m 5,6 h 6 l -3,5 z"/>
 </g>
 <g id="hover-center">
  <rect style="opacity:0.001" width="16" height="16" x="18" y="-16" transform="scale(1,-1)"/>
  <circle style="opacity:0.45;fill:#5f697f" cx="26" cy="-8" r="6" transform="scale(1,-1)"/>
  <path style="opacity:0.37;fill:#15171c" d="m 26,15.000005 a 7,-7 0 0 1 -7,-7 7,-7 0 0 1 7,-7 7,-7 0 0 1 7,7 7,-7 0 0 1 -7,7 z m 0,-1 a 6,-6 0 0 0 6,-6 6,-6 0 0 0 -6,-6 6,-6 0 0 0 -6,6 6,-6 0 0 0 6,6 z"/>
  <path style="fill:#c4c7cc" d="m 23,6 h 6 l -3,5 z"/>
 </g>
 <g id="pressed-center">
  <rect style="opacity:0.001" width="16" height="16" x="36" y="-16" transform="scale(1,-1)"/>
  <circle style="fill:#5294e2" cx="44" cy="-8" r="7" transform="scale(1,-1)"/>
  <path  style="fill:#ffffff" d="m 41,6 h 6 l -3,5 z"/>
 </g>
 <g id="inactive-center">
  <rect style="opacity:0.001" width="16" height="16" x="54" y="-16" transform="scale(1,-1)"/>
  <path  style="opacity:0.4;fill:#b9bcc2" d="m 59,6 h 6 l -3,5 z"/>
 </g>
 <g id="deactivated-center">
  <rect  style="opacity:0.001" width="16" height="16" x="72" y="-16" transform="scale(1,-1)"/>
  <path  style="opacity:0.4;fill:#b9bcc2" d="m 77,6 h 6 l -3,5 z"/>
 </g>
</svg>
