<svg xmlns="http://www.w3.org/2000/svg" width="32" height="32" version="1.1">
 <defs>
  <style id="current-color-scheme" type="text/css">
   .ColorScheme-Background {color:#2f343f; } .ColorScheme-ButtonBackground { color:#444a58; } .ColorScheme-Highlight { color:#5294e2; } .ColorScheme-Text { color:#d3dae3; } .ColorScheme-NegativeText { color:#f44336; } .ColorScheme-PositiveText { color:#4caf50; } .ColorScheme-NeutralText { color:#ff9800; }
  </style>
 </defs>
 <g id="22-22-akonadi" transform="translate(32,10)">
  <path style="opacity:0.001" d="M 0,2.5e-7 H 22 V 22 H 0 Z"/>
  <path style="fill:currentColor" class="ColorScheme-Text" d="M 8.0019531,3.0000197 C 5.795054,4.2739273 4.4304903,6.4317721 4.0898438,8.7636916 4.3312286,8.6491667 4.580506,8.5468498 4.8359375,8.4648635 5.9378894,8.1111678 7.1671312,8.0051375 8.453125,8.0000197 10.233741,7.9929334 12.135218,8.2250209 13.919922,8.5664259 12.530826,5.568254 10.524073,2.988368 8.0019531,3.0000197 Z m 4.2402349,1.1171875 c 1.042747,1.1188808 1.891926,2.5313686 2.585937,4.0292969 l 0.318359,0.6875 C 16.1095,9.0535555 17.033238,9.2902692 17.837891,9.5429885 17.245192,6.76718 15.034948,4.6240535 12.242188,4.1172072 Z M 8.4570312,9.0000197 C 5.9988955,9.0098023 3.8923126,9.4379938 3,11.00002 c 0,4.418 3.5817,8 8,8 4.418,0 8,-3.582 8,-8 C 16.659086,10.084629 12.159712,8.9852842 8.4570312,9.0000197 Z"/>
 </g>
 <g id="akonadi">
  <path style="opacity:0.001" d="M 0,0 H 32 V 32 H 0 Z"/>
  <path style="fill:currentColor" class="ColorScheme-Text" d="M 11.502929,4.0000288 C 8.1925809,5.9108901 6.1457353,9.1476575 5.6347655,12.645536 5.9968428,12.47375 6.3707589,12.320274 6.7539061,12.197294 8.406834,11.666751 10.250696,11.507706 12.179687,11.500029 c 2.670924,-0.01063 5.52314,0.337501 8.200196,0.849609 C 18.296239,7.8523802 15.286109,3.9825511 11.502929,4.0000288 Z M 17.863281,5.67581 c 1.564121,1.6783212 2.83789,3.797053 3.878906,6.043946 l 0.477539,1.031249 c 1.444524,0.329327 2.830131,0.684398 4.03711,1.063477 C 25.367788,9.6507693 22.052422,6.4360795 17.863281,5.67581 Z m -5.677734,7.324219 c -3.6872038,0.01467 -6.8470782,0.656961 -8.1855472,3.000001 0,6.627 5.3725501,12 11.9999992,12 C 22.627,28.00003 28,22.62703 28,16.00003 24.488629,14.626943 17.739567,12.977926 12.185547,13.000029 Z"/>
 </g>
</svg>
