<svg xmlns="http://www.w3.org/2000/svg" width="32" height="32" version="1.1">
 <defs>
  <style id="current-color-scheme" type="text/css">
   .ColorScheme-Background {color:#2f343f; } .ColorScheme-ButtonBackground { color:#444a58; } .ColorScheme-Highlight { color:#5294e2; } .ColorScheme-Text { color:#d3dae3; } .ColorScheme-NegativeText { color:#f44336; } .ColorScheme-PositiveText { color:#4caf50; } .ColorScheme-NeutralText { color:#ff9800; }
  </style>
 </defs>
 <g id="22-22-akregator" transform="translate(32,10)">
  <rect style="opacity:0.001" width="22" height="22" x="0" y="0"/>
  <path style="fill:currentColor" class="ColorScheme-Text" d="m 5.0000005,2.9999997 c -1.108,0 -2,0.8920001 -2,2.0000001 V 17 c 0,1.108 0.892,2 2,2 H 17 c 1.108,0 2,-0.892 2,-2 C 19,3 9,3 5.0000005,2.9999997 Z m 0,2.0000001 c 6.2222215,0 9.4609935,2.2049917 10.8847655,4.9101562 C 17.308536,12.61532 17,15.611111 17,17 H 15 C 15,15.388889 15.191463,12.884678 14.115234,10.839844 13.039005,8.7950078 10.777778,6.9999998 5.0000005,6.9999998 Z m 0,4 c 3.910823,0 6.1296825,1.1321932 7.1582015,2.8632812 C 13.186721,13.594369 12.999999,15.5516 12.999999,17 h -2 c 0,-1.5516 0.04484,-3.094371 -0.560547,-4.113282 C 9.8340715,11.867807 8.5535725,11 5.0000005,11 Z m 2.001953,3.9999992 c 1.104335,0 1.997387,0.896324 1.998046,2.000001 0,1.104994 -0.893711,2 -1.998046,2 -1.106972,0 -2.001953,-0.895006 -2.001953,-2 0,-1.103677 0.894981,-2.000001 2.001953,-2.000001 z"/>
 </g>
 <g id="akregator">
  <rect style="opacity:0.001" width="32" height="32" x="0" y="0"/>
  <path style="fill:currentColor" class="ColorScheme-Text" d="m 7.0000003,3.9999994 c -1.6620001,0 -3.0000002,1.3380002 -3.0000002,3.0000002 V 25.000002 c 0,1.662 1.3380001,2.999999 3.0000002,2.999999 H 25.000001 C 26.662001,28.000001 28,26.662002 28,25.000002 28,3.9999998 13,3.9999998 7.0000003,3.9999994 Z m 0,3.0000002 c 9.3333337,0 14.1914917,3.3074874 16.3271497,7.3652354 2.135654,4.057746 1.672851,8.551432 1.672851,10.634767 H 22 C 22,22.583334 22.287195,18.827018 20.672851,15.759767 19.058508,12.692512 15.666667,9.9999997 7.0000003,9.9999997 Z m 0,6.0000004 c 5.8662347,0 9.1945237,1.698291 10.7373027,4.294922 1.542779,2.596632 1.262696,5.532479 1.262696,7.70508 h -3 c 0,-2.3274 0.06726,-4.641557 -0.840821,-6.169924 C 14.251107,17.301711 12.330358,16 7.0000003,16 Z m 3.0029297,6 c 1.656502,0 2.99608,1.344486 2.997069,3.000001 0,1.657492 -1.340567,3.000001 -2.997069,3.000001 -1.6604582,0 -3.0029297,-1.342509 -3.0029297,-3.000001 C 7.0000003,20.344486 8.3424718,19 10.00293,19 Z"/>
 </g>
</svg>
