<svg xmlns="http://www.w3.org/2000/svg" width="32" height="32" version="1.1">
 <defs>
  <style id="current-color-scheme" type="text/css">
   .ColorScheme-Background {color:#2f343f; } .ColorScheme-ButtonBackground { color:#444a58; } .ColorScheme-Highlight { color:#5294e2; } .ColorScheme-Text { color:#d3dae3; } .ColorScheme-NegativeText { color:#f44336; } .ColorScheme-PositiveText { color:#4caf50; } .ColorScheme-NeutralText { color:#ff9800; }
  </style>
 </defs>
 <g id="22-22-amarok" transform="translate(32)">
  <rect style="opacity:0.001" width="22" height="22" x="0" y="10"/>
  <path style="fill:currentColor" class="ColorScheme-Text" d="m 16.086562,13 c -0.381,0 -1.119484,0.930995 -1.396484,1.078125 -0.278,0.1472 -2.570469,2.215366 -2.777969,2.509766 -0.208,0.2943 -0.485156,0.417078 -0.785156,0.392578 -0.3005,-0.0245 -1.2487655,-0.03409 -1.5722655,0.162109 -0.323,0.1963 -1.7982687,1.799994 -2.1679687,1.996094 -0.3694,0.1962 -0.8530844,0.297766 -1.0839844,0.322266 -0.2309,0.0245 -0.995325,0.929862 -1.203125,1.101562 -0.2078,0.1717 -1.8491781,0.925266 -2.0800782,1.072266 -0.2309399,0.1472 1.4837734,1.808422 1.7607735,1.857422 0.27707,0.04913 -0.7186594,0.699775 -0.7246094,1.166015 -0.0059,0.46514 0.6778447,1.850269 3.4755547,3.480469 2.4186,1.4093 5.272903,0.730399 6.237203,0.443359 0.38258,-0.11389 0.2417,-1.421887 0.3125,-2.117187 0.04622,-0.44146 0.208214,-4.24361 0.808594,-5.22461 0.6003,-0.98095 2.016012,-2.15865 2.616312,-2.28125 0.60035,-0.12263 0.484375,-0.369153 0.484375,-0.589843 0,-0.22071 -0.09226,-0.711607 -0.253906,-0.785157 -0.16161,-0.07356 -0.79225,0.368939 -1,0.417969 -0.2078,0.04904 -1.19929,0.122203 -1.33789,-0.123047 -0.138501,-0.24511 1.219983,-2.647106 1.381484,-2.941406 0.1615,-0.29435 0.230187,-0.686626 -0.07031,-1.103516 C 16.410609,13.416564 16.203515,13 16.088515,13 Z m -5.533828,5.009766 c 0.244632,-0.02466 0.435547,0.0039 0.435547,0.0039 0.0876,0.1973 -0.321372,0.817744 -0.701172,0.902344 -0.3796999,0.0845 -1.2559559,1.324868 -1.2851559,1.042968 -0.0293,-0.2818 0.3507625,-1.211865 0.7890625,-1.634765 0.2190754,-0.2114 0.5170874,-0.289791 0.7617184,-0.314453 z"/>
 </g>
 <g id="amarok">
  <rect style="opacity:0.001" width="32" height="32" x="0" y="0"/>
  <path style="fill:currentColor" class="ColorScheme-Text" d="m 24.195312,4 c -0.558762,0 -1.642589,1.3964849 -2.048828,1.6171875 -0.407704,0.2208076 -3.769906,3.3240098 -4.074218,3.765625 -0.305044,0.4414653 -0.710421,0.6246415 -1.150391,0.5878906 -0.440703,-0.036755 -1.832207,-0.050172 -2.306641,0.2441409 -0.473701,0.29446 -2.637497,2.69998 -3.179687,2.99414 -0.541749,0.29431 -1.251214,0.44567 -1.5898439,0.482422 -0.33863,0.03675 -1.4589196,1.394784 -1.7636719,1.652344 -0.3047522,0.257558 -2.7121511,1.388867 -3.0507812,1.609375 -0.3386884,0.220808 2.1757925,2.911373 2.5820312,2.984875 0.4063412,0.07369 -1.0537738,1.050617 -1.0625,1.75 -0.00865,0.697735 0.9946317,2.5756 5.0976568,5.020984 3.547034,2.114023 7.631861,1.094637 9.04607,0.664063 0.561079,-0.170842 0.355152,-2.132796 0.458984,-3.175781 0.06778,-0.662213 0.405464,-5.96595 1.285961,-7.4375 0.880379,-1.471477 2.957512,-3.237969 3.837891,-3.421875 0.880452,-0.183952 0.708984,-0.553719 0.708984,-0.884766 0,-0.331075 -0.13403,-1.266624 -0.371094,-1.376953 -0.237012,-0.110345 -1.162117,0.752624 -1.466796,0.826172 -0.304754,0.07356 -1.759624,0.184295 -1.962891,-0.183594 -0.20312,-0.367677 1.788539,-4.3710348 2.025391,-4.8125 C 25.447788,6.4647098 25.550074,5.8773096 25.109375,5.2519531 24.670868,4.6258015 24.36592,4 24.197266,4 Z m -7.402343,8.003906 c 0.117467,0.0061 0.189453,0.01758 0.189453,0.01758 0.131407,0.295823 -0.483005,1.224718 -1.052734,1.351563 -0.569579,0.126695 -1.883932,1.987121 -1.927735,1.564453 -0.04395,-0.422518 0.52611,-1.817096 1.183594,-2.451172 0.32863,-0.316964 0.775612,-0.433726 1.142578,-0.470703 0.183484,-0.01849 0.347376,-0.01782 0.464844,-0.01172 z"/>
 </g>
</svg>
