<svg xmlns="http://www.w3.org/2000/svg" id="svg2" width="32" height="32" version="1.1" viewBox="0 0 32 32">
 <defs id="defs8">
  <style id="current-color-scheme" type="text/css">
   .ColorScheme-Text { color:#d3dae3; } .ColorScheme-Highlight { color:#5294e2; } .ColorScheme-ButtonBackground { color:#d3dae3; }
  </style>
 </defs>
 <g id="applications-other">
  <rect id="rect4167" width="32" height="32" x="0" y="0" style="opacity:0.001;fill:#000000;fill-opacity:1;fill-rule:evenodd;stroke:none;stroke-width:6;stroke-linecap:round;stroke-linejoin:round;stroke-miterlimit:4;stroke-dasharray:none;stroke-opacity:1"/>
  <g id="g4169">
   <path style="fill:currentColor" class="ColorScheme-Text" d="M 16 2 A 14 14 0 0 0 2 16 A 14 14 0 0 0 16 30 A 14 14 0 0 0 30 16 A 14 14 0 0 0 16 2 z M 11 7 A 4 4 0 0 1 15 11 A 4 4 0 0 1 11 15 A 4 4 0 0 1 7 11 A 4 4 0 0 1 11 7 z M 21 7 A 4 4 0 0 1 25 11 A 4 4 0 0 1 21 15 A 4 4 0 0 1 17 11 A 4 4 0 0 1 21 7 z M 11 17 A 4 4 0 0 1 15 21 A 4 4 0 0 1 11 25 A 4 4 0 0 1 7 21 A 4 4 0 0 1 11 17 z M 21 17 A 4 4 0 0 1 25 21 A 4 4 0 0 1 21 25 A 4 4 0 0 1 17 21 A 4 4 0 0 1 21 17 z"/>
  </g>
 </g>
</svg>
