<svg xmlns="http://www.w3.org/2000/svg" width="32" height="32" version="1.1">
 <defs id="defs7386">
  <style id="current-color-scheme" type="text/css">
   .ColorScheme-Text { color:#d3dae3; } .ColorScheme-Highlight { color:#5294e2; } .ColorScheme-ButtonBackground { color:#d3dae3; }
  </style>
 </defs>
 <g id="applications-other">
  <rect id="rect2994" style="opacity:0.00100002;fill:#000000;fill-opacity:1;stroke:none" width="32" height="32" x="0" y="0"/>
  <g id="g5994">
   <path id="rect4203-0" style="fill:currentColor" class="ColorScheme-Text" d="M 3.4003906 3 C 2.6247906 3 2 3.6191719 2 4.3886719 L 2 26.611328 C 2 27.381328 2.6247906 28 3.4003906 28 L 28.599609 28 C 29.375209 28 30 27.380788 30 26.611328 L 30 4.3886719 C 30 3.6190719 29.375609 3 28.599609 3 L 3.4003906 3 z M 7.9960938 8 A 1 1 0 0 1 8.9960938 9 A 1 1 0 0 1 7.9960938 10 A 1 1 0 0 1 6.9960938 9 A 1 1 0 0 1 7.9960938 8 z M 13 8 L 24 8 C 24.554 8 25 8.446 25 9 C 25 9.554 24.554 10 24 10 L 13 10 C 12.446 10 12 9.554 12 9 C 12 8.446 12.446 8 13 8 z M 7.9960938 15 A 1 1 0 0 1 8.9960938 16 A 1 1 0 0 1 7.9960938 17 A 1 1 0 0 1 6.9960938 16 A 1 1 0 0 1 7.9960938 15 z M 13 15 L 24 15 C 24.554 15 25 15.446 25 16 C 25 16.554 24.554 17 24 17 L 13 17 C 12.446 17 12 16.554 12 16 C 12 15.446 12.446 15 13 15 z M 7.9960938 21 A 1 1 0 0 1 8.9960938 22 A 1 1 0 0 1 7.9960938 23 A 1 1 0 0 1 6.9960938 22 A 1 1 0 0 1 7.9960938 21 z M 13 21 L 24 21 C 24.554 21 25 21.446 25 22 C 25 22.554 24.554 23 24 23 L 13 23 C 12.446 23 12 22.554 12 22 C 12 21.446 12.446 21 13 21 z"/>
  </g>
 </g>
</svg>
