<?xml version="1.0" encoding="UTF-8" standalone="no"?>
<svg
   xmlns:dc="http://purl.org/dc/elements/1.1/"
   xmlns:cc="http://creativecommons.org/ns#"
   xmlns:rdf="http://www.w3.org/1999/02/22-rdf-syntax-ns#"
   xmlns:svg="http://www.w3.org/2000/svg"
   xmlns="http://www.w3.org/2000/svg"
   xmlns:sodipodi="http://sodipodi.sourceforge.net/DTD/sodipodi-0.dtd"
   xmlns:inkscape="http://www.inkscape.org/namespaces/inkscape"
   width="22"
   version="1.1"
   style="enable-background:new"
   id="svg7384"
   height="22"
   inkscape:version="0.91 r13725"
   sodipodi:docname="audio.svg">
  <metadata
     id="metadata67">
    <rdf:RDF>
      <cc:Work
         rdf:about="">
        <dc:format>image/svg+xml</dc:format>
        <dc:type
           rdf:resource="http://purl.org/dc/dcmitype/StillImage" />
      </cc:Work>
    </rdf:RDF>
  </metadata>
  <sodipodi:namedview
     pagecolor="#ffffff"
     bordercolor="#666666"
     borderopacity="1"
     objecttolerance="10"
     gridtolerance="10"
     guidetolerance="10"
     inkscape:pageopacity="0"
     inkscape:pageshadow="2"
     inkscape:window-width="1600"
     inkscape:window-height="843"
     id="namedview65"
     showgrid="false"
     inkscape:zoom="6.18"
     inkscape:cx="53.647249"
     inkscape:cy="29.644068"
     inkscape:window-x="0"
     inkscape:window-y="0"
     inkscape:window-maximized="1"
     inkscape:current-layer="svg7384" />
  <title
     id="title8473">
  Paper Symbolic Icon Theme
 </title>
  <defs
     id="defs8">
    <style
       type="text/css"
       id="current-color-scheme">
   .ColorScheme-Text { color:#d3dae3; } .ColorScheme-Highlight { color:#5294e2; } .ColorScheme-ButtonBackground { color:#d3dae3; }
  </style>
  </defs>
  <g
     transform="translate(-325.0004,419)"
     id="22-22-audio-volume-muted">
    <path
       id="rect4182"
       d="m 325.0004,-419 22,0 c 0,0 0,0 0,0 l 0,22 c 0,0 0,0 0,0 l -22,0 c 0,0 0,0 0,0 l 0,-22 c 0,0 0,0 0,0 z"
       style="opacity:0.001;fill:currentColor" />
    <path
       style="fill:currentColor"
       class="ColorScheme-Text"
       opacity=".3"
       d="m 335.0004,-416 -5,5 -3,0 0,6 3,0 5,5 z m 2,0 0,2 c 2.86838,0.84571 5,3.06286 5,6 0,2.93714 -2.13163,5.15429 -5,6 l 0,2 c 3.89455,-0.89143 7,-4.11429 7,-8 0,-3.88571 -3.10545,-7.10857 -7,-8 z m 0,4 0,8 c 0,0 3.0002,-1 3,-4 -2e-4,-3 -3,-4 -3,-4 z"
       id="path5105" />
  </g>
  <g
     id="22-22-audio-volume-low"
     transform="translate(-300.0004,419)">
    <path
       style="opacity:0.001;fill:currentColor"
       d="m 325.0004,-419 22,0 c 0,0 0,0 0,0 l 0,22 c 0,0 0,0 0,0 l -22,0 c 0,0 0,0 0,0 l 0,-22 c 0,0 0,0 0,0 z"
       id="path4176" />
    <path
       style="fill:currentColor"
       class="ColorScheme-Text"
       opacity="1"
       d="m 335.0004,-416 -5,5 -3,0 0,6 3,0 5,5 z"
       id="path4196" />
    <path
       style="fill:currentColor"
       class="ColorScheme-Text"
       opacity=".3"
       d="m 337.0004,-416 0,2 c 2.86838,0.84571 5,3.06286 5,6 0,2.93714 -2.13163,5.15429 -5,6 l 0,2 c 3.89455,-0.89143 7,-4.11429 7,-8 0,-3.88571 -3.10545,-7.10857 -7,-8 z"
       id="path4194" />
    <path
       style="fill:currentColor"
       class="ColorScheme-Text"
       opacity=".3"
       d="m 337.0004,-412 0,8 c 0,0 3.0002,-1 3,-4 -2e-4,-3 -3,-4 -3,-4 z"
       id="path4178" />
  </g>
  <g
     transform="translate(-275.0004,419)"
     id="22-22-audio-volume-medium">
    <path
       id="path4182"
       d="m 325.0004,-419 22,0 c 0,0 0,0 0,0 l 0,22 c 0,0 0,0 0,0 l -22,0 c 0,0 0,0 0,0 l 0,-22 c 0,0 0,0 0,0 z"
       style="opacity:0.001;fill:currentColor" />
    <path
       style="fill:currentColor"
       class="ColorScheme-Text"
       opacity="1"
       d="m 335.0004,-416 -5,5 -3,0 0,6 3,0 5,5 z"
       id="path4202" />
    <path
       style="fill:currentColor"
       class="ColorScheme-Text"
       opacity=".3"
       d="m 337.0004,-416 0,2 c 2.86838,0.84571 5,3.06286 5,6 0,2.93714 -2.13163,5.15429 -5,6 l 0,2 c 3.89455,-0.89143 7,-4.11429 7,-8 0,-3.88571 -3.10545,-7.10857 -7,-8 z"
       id="path4200" />
    <path
       style="fill:currentColor"
       class="ColorScheme-Text"
       opacity="1"
       d="m 337.0004,-412 0,8 c 0,0 3.0002,-1 3,-4 -2e-4,-3 -3,-4 -3,-4 z"
       id="path4184" />
  </g>
  <g
     id="22-22-audio-volume-high"
     transform="translate(-250.0004,419)">
    <path
       style="opacity:0.001;fill:currentColor"
       d="m 325.0004,-419 22,0 c 0,0 0,0 0,0 l 0,22 c 0,0 0,0 0,0 l -22,0 c 0,0 0,0 0,0 l 0,-22 c 0,0 0,0 0,0 z"
       id="path4188" />
    <path
       style="fill:currentColor"
       class="ColorScheme-Text"
       opacity="1"
       d="m 335.0004,-416 -5,5 -3,0 0,6 3,0 5,5 z"
       id="path4208" />
    <path
       style="fill:currentColor"
       class="ColorScheme-Text"
       opacity="1"
       d="m 337.0004,-416 0,2 c 2.86838,0.84571 5,3.06286 5,6 0,2.93714 -2.13163,5.15429 -5,6 l 0,2 c 3.89455,-0.89143 7,-4.11429 7,-8 0,-3.88571 -3.10545,-7.10857 -7,-8 z"
       id="path4206" />
    <path
       style="fill:currentColor"
       class="ColorScheme-Text"
       opacity="1"
       d="m 337.0004,-412 0,8 c 0,0 3.0002,-1 3,-4 -2e-4,-3 -3,-4 -3,-4 z"
       id="path4190" />
  </g>
</svg>
