<?xml version="1.0"?>
<svg xmlns="http://www.w3.org/2000/svg" viewBox="0 0 22 22" version="1" id="svg7229" height="22" width="22">
 <defs id="defs8">
  <style type="text/css" id="current-color-scheme">
   .ColorScheme-Text { color:#d3dae3; } .ColorScheme-Highlight { color:#5294e2; } .ColorScheme-ButtonBackground { color:#5c616c; }
  </style>
 </defs>
 <g transform="translate(-214.53572,-404.50504)" id="22-22-battery-ups">
  <rect style="opacity:0.001;fill:currentColor" id="rect4416" width="22" height="22" x="192.54" y="404.5"/>
  <path id="path4401" d="m 197.53573,408.50504 0,15 12,0 0,-15 c 0.0768,-1.06936 -1,-1 -1,-1 l -10,0 c 0,0 -1,-0.004 -1,1 z m 6,1 0,3 2,0 -2,5 0,-3 -2,0 z m -4,10 1,0 0,2 -1,0 z m 2,0 1,0 0,2 -1,0 z m 2,0 1,0 0,2 -1,0 z m 3,0 c 0.55229,0 1,0.44772 1,1 0,0.55228 -0.44771,1 -1,1 -0.55229,0 -1,-0.44772 -1,-1 0,-0.55228 0.44771,-1 1,-1 z" style="opacity:1;fill:currentColor;fill-opacity:1;stroke:none;stroke-width:0.1;stroke-linecap:square;stroke-linejoin:miter;stroke-miterlimit:4;stroke-dasharray:none;stroke-dashoffset:0;stroke-opacity:1" class="ColorScheme-Text"/>
 </g>
 <g id="22-22-Battery" transform="translate(-214.53572,-382.50504)">
  <rect y="214.54" x="-404.5" height="22" width="22" id="rect4279" style="opacity:0.001;fill:currentColor" transform="matrix(0,-1,1,0,0,0)"/>
  <path class="ColorScheme-Text" id="path4281" d="m 219.53573,401.50505 3,0 6,0 3,0 0,-3 0,-11 0,-1 -3,0 -0.99999,0 0,-0.5 c 0,-0.277 -0.223,-0.5 -0.5,-0.5 l -3,0 c -0.277,0 -0.5,0.777 -0.5,0.5 l 0,0.5 -1.00001,0 -3,0 0,1 0,12 z m 2,-2 0,-11 2.50001,0 3,0 2.49999,0 0,11 z" style="opacity:1;fill:currentColor;fill-opacity:1;stroke:none;stroke-width:0.1;stroke-linecap:square;stroke-linejoin:miter;stroke-miterlimit:4;stroke-dasharray:none;stroke-dashoffset:0;stroke-opacity:1"/>
 </g>
 <g id="22-22-Fill100" transform="translate(-192.53574,-382.50504)">
  <rect transform="matrix(0,-1,1,0,0,0)" style="opacity:0.001;fill:currentColor" id="rect4303" width="22" height="22" x="-404.5" y="214.54"/>
  <path id="path4307" d="m 229.53573,399.50504 -8,0 0,-11 8,0 z" style="opacity:1;fill:currentColor;fill-opacity:1;fill-rule:evenodd;stroke:none;stroke-width:1px;stroke-linecap:butt;stroke-linejoin:miter;stroke-opacity:1" class="ColorScheme-Text"/>
 </g>
 <g id="22-22-Fill90" transform="translate(-170.53574,-382.50504)">
  <rect transform="matrix(0,-1,1,0,0,0)" style="opacity:0.001;fill:currentColor" id="rect4311" width="22" height="22" x="-404.5" y="214.54"/>
  <path id="path4315" d="m 229.53573,399.50504 -8,0 0,-10 8,0 z" style="opacity:1;fill:currentColor;fill-opacity:1;fill-rule:evenodd;stroke:none;stroke-width:1px;stroke-linecap:butt;stroke-linejoin:miter;stroke-opacity:1" class="ColorScheme-Text"/>
 </g>
 <g transform="translate(-148.53575,-382.50504)" id="22-22-Fill80">
  <rect y="214.54" x="-404.5" height="22" width="22" id="rect4319" style="opacity:0.001;fill:currentColor" transform="matrix(0,-1,1,0,0,0)"/>
  <path class="ColorScheme-Text" style="opacity:1;fill:currentColor;fill-opacity:1;fill-rule:evenodd;stroke:none;stroke-width:1px;stroke-linecap:butt;stroke-linejoin:miter;stroke-opacity:1" d="m 229.53573,399.50504 -8,0 0,-9 8,0 z" id="path4323"/>
 </g>
 <g id="22-22-Fill70" transform="translate(-126.53574,-382.50504)">
  <rect transform="matrix(0,-1,1,0,0,0)" style="opacity:0.001;fill:currentColor" id="rect4327" width="22" height="22" x="-404.5" y="214.54"/>
  <path id="path4331" d="m 229.53573,399.50504 -8,0 0,-8 8,0 z" style="opacity:1;fill:currentColor;fill-opacity:1;fill-rule:evenodd;stroke:none;stroke-width:1px;stroke-linecap:butt;stroke-linejoin:miter;stroke-opacity:1" class="ColorScheme-Text"/>
 </g>
 <g transform="translate(-104.53575,-382.50504)" id="22-22-Fill60">
  <rect y="214.54" x="-404.5" height="22" width="22" id="rect4335" style="opacity:0.001;fill:currentColor" transform="matrix(0,-1,1,0,0,0)"/>
  <path class="ColorScheme-Text" style="opacity:1;fill:currentColor;fill-opacity:1;fill-rule:evenodd;stroke:none;stroke-width:1px;stroke-linecap:butt;stroke-linejoin:miter;stroke-opacity:1" d="m 229.53573,399.50504 -8,0 0,-7 8,0 z" id="path4339"/>
 </g>
 <g transform="translate(-82.53575,-382.50504)" id="22-22-Fill50">
  <rect y="214.54" x="-404.5" height="22" width="22" id="rect4343" style="opacity:0.001;fill:currentColor" transform="matrix(0,-1,1,0,0,0)"/>
  <path class="ColorScheme-Text" style="opacity:1;fill:currentColor;fill-opacity:1;fill-rule:evenodd;stroke:none;stroke-width:1px;stroke-linecap:butt;stroke-linejoin:miter;stroke-opacity:1" d="m 229.53573,399.50504 -8,0 0,-6 8,0 z" id="path4347"/>
 </g>
 <g id="22-22-Fill40" transform="translate(-60.53577,-382.50504)">
  <rect transform="matrix(0,-1,1,0,0,0)" style="opacity:0.001;fill:currentColor" id="rect4351" width="22" height="22" x="-404.5" y="214.54"/>
  <path id="path4355" d="m 229.53573,399.50504 -8,0 0,-5 8,0 z" style="opacity:1;fill:currentColor;fill-opacity:1;fill-rule:evenodd;stroke:none;stroke-width:1px;stroke-linecap:butt;stroke-linejoin:miter;stroke-opacity:1" class="ColorScheme-Text"/>
 </g>
 <g transform="translate(-38.53574,-382.50504)" id="22-22-Fill30">
  <rect y="214.54" x="-404.5" height="22" width="22" id="rect4359" style="opacity:0.001;fill:currentColor" transform="matrix(0,-1,1,0,0,0)"/>
  <path class="ColorScheme-Text" style="opacity:1;fill:currentColor;fill-opacity:1;fill-rule:evenodd;stroke:none;stroke-width:1px;stroke-linecap:butt;stroke-linejoin:miter;stroke-opacity:1" d="m 229.53573,399.50504 -8,0 0,-4 8,0 z" id="path4363"/>
 </g>
 <g id="22-22-Fill20" transform="translate(-16.53575,-382.50504)">
  <rect transform="matrix(0,-1,1,0,0,0)" style="opacity:0.001;fill:currentColor" id="rect4367" width="22" height="22" x="-404.5" y="214.54"/>
  <path id="path4371" d="m 229.53573,399.50504 -8,0 0,-3 8,0 z" style="opacity:1;fill:currentColor;fill-opacity:1;fill-rule:evenodd;stroke:none;stroke-width:1px;stroke-linecap:butt;stroke-linejoin:miter;stroke-opacity:1" class="ColorScheme-Text"/>
 </g>
 <g id="22-22-Fill10" transform="translate(5.46425,-382.50504)">
  <rect transform="matrix(0,-1,1,0,0,0)" style="opacity:0.001;fill:currentColor" id="rect4375" width="22" height="22" x="-404.5" y="214.54"/>
  <path style="opacity:1;fill:currentColor;fill-opacity:1;stroke:none;stroke-width:0.1;stroke-linecap:square;stroke-linejoin:miter;stroke-miterlimit:4;stroke-dasharray:none;stroke-dashoffset:0;stroke-opacity:1" d="m 219.53573,401.50505 3,0 6,0 3,0 0,-3 0,-11 0,-1 -3,0 -0.99999,0 0,-0.5 c 0,-0.277 -0.223,-0.5 -0.5,-0.5 l -3,0 c -0.277,0 -0.5,0.777 -0.5,0.5 l 0,0.5 -1.00001,0 -3,0 0,1 0,12 z m 2,-2 0,-11 2.50001,0 3,0 2.49999,0 0,11 z" id="path4377" class="ColorScheme-Text"/>
  <path id="path4379" d="m 229.53573,399.50504 -8,0 0,-2 8,0 z" style="fill:currentColor;fill-opacity:1;fill-rule:evenodd;stroke:none;stroke-width:1px;stroke-linecap:butt;stroke-linejoin:miter;stroke-opacity:1" class="ColorScheme-Text"/>
 </g>
 <g transform="translate(27.46423,-382.50504)" id="22-22-Fill0">
  <rect y="214.54" x="-404.5" height="22" width="22" id="rect4383" style="opacity:0.001;fill:currentColor" transform="matrix(0,-1,1,0,0,0)"/>
  <path class="ColorScheme-Text" id="path4385" d="m 219.53573,401.50505 3,0 6,0 3,0 0,-3 0,-11 0,-1 -3,0 -0.99999,0 0,-0.5 c 0,-0.277 -0.223,-0.5 -0.5,-0.5 l -3,0 c -0.277,0 -0.5,0.777 -0.5,0.5 l 0,0.5 -1.00001,0 -3,0 0,1 0,12 z m 2,-2 0,-11 2.50001,0 3,0 2.49999,0 0,11 z" style="opacity:1;fill:currentColor;fill-opacity:1;stroke:none;stroke-width:0.1;stroke-linecap:square;stroke-linejoin:miter;stroke-miterlimit:4;stroke-dasharray:none;stroke-dashoffset:0;stroke-opacity:1"/>
 </g>
 <g transform="translate(-280.53574,-382.50504)" id="22-22-AcAdapter">
  <rect y="214.54" x="-404.5" height="22" width="22" id="rect4437" style="opacity:0.001;fill:currentColor" transform="matrix(0,-1,1,0,0,0)"/>
  <path style="opacity:1;fill:currentColor;fill-opacity:1;fill-rule:evenodd;stroke:none;stroke-width:1px;stroke-linecap:butt;stroke-linejoin:miter;stroke-opacity:1" d="m 225.53574,389.50504 0,3 2,0 -2,5 0,-3 -2,0 2,-5 z" class="ColorScheme-ButtonBackground" id="path4441"/>
 </g>
 <g transform="translate(-214.53572,-404.50504)" id="22-22-Unavailable">
  <rect transform="matrix(0,-1,1,0,0,0)" style="opacity:0.001;fill:currentColor" id="rect4423" width="22" height="22" x="-426.5" y="170.54"/>
  <g id="g4491">
   <rect ry="1" y="415.5" x="181.54" height="10" width="10" id="rect4577" style="opacity:1;fill:currentColor;fill-opacity:1;stroke:none" class="ColorScheme-Highlight"/>
   <path style="opacity:1;fill:#ffffff;fill-opacity:1;stroke:none;stroke-width:1;stroke-linecap:round;stroke-linejoin:round;stroke-miterlimit:4;stroke-dasharray:none;stroke-opacity:1" d="m 188.65704,416.96951 -2.12132,2.12132 -2.12132,-2.12132 -1.41421,1.41421 2.12132,2.12132 -2.12132,2.12132 1.41421,1.41421 2.12132,-2.12132 2.12132,2.12132 1.41421,-1.41421 -2.12132,-2.12132 2.12132,-2.12132 -1.41421,-1.41421 z" id="rect4486"/>
  </g>
 </g>
 <g id="battery-ups" transform="translate(-214.53572,-426.50504)">
  <rect y="404.5" x="192.54" height="22" width="22" id="rect4200" style="opacity:0.001;fill:currentColor"/>
  <path style="opacity:1;fill:currentColor;fill-opacity:1;stroke:none;stroke-width:0.1;stroke-linecap:square;stroke-linejoin:miter;stroke-miterlimit:4;stroke-dasharray:none;stroke-dashoffset:0;stroke-opacity:1" d="m 197.53573,408.50504 0,15 12,0 0,-15 c 0.0768,-1.06936 -1,-1 -1,-1 l -10,0 c 0,0 -1,-0.004 -1,1 z m 6,1 0,3 2,0 -2,5 0,-3 -2,0 z m -4,10 1,0 0,2 -1,0 z m 2,0 1,0 0,2 -1,0 z m 2,0 1,0 0,2 -1,0 z m 3,0 c 0.55229,0 1,0.44772 1,1 0,0.55228 -0.44771,1 -1,1 -0.55229,0 -1,-0.44772 -1,-1 0,-0.55228 0.44771,-1 1,-1 z" id="path4202" class="ColorScheme-Text"/>
 </g>
 <g transform="translate(-214.53572,-404.50504)" id="Battery">
  <rect transform="matrix(0,-1,1,0,0,0)" style="opacity:0.001;fill:currentColor" id="rect4206" width="22" height="22" x="-404.5" y="214.54"/>
  <path style="opacity:1;fill:currentColor;fill-opacity:1;stroke:none;stroke-width:0.1;stroke-linecap:square;stroke-linejoin:miter;stroke-miterlimit:4;stroke-dasharray:none;stroke-dashoffset:0;stroke-opacity:1" d="m 219.53573,401.50505 3,0 6,0 3,0 0,-3 0,-11 0,-1 -3,0 -0.99999,0 0,-0.5 c 0,-0.277 -0.223,-0.5 -0.5,-0.5 l -3,0 c -0.277,0 -0.5,0.777 -0.5,0.5 l 0,0.5 -1.00001,0 -3,0 0,1 0,12 z m 2,-2 0,-11 2.50001,0 3,0 2.49999,0 0,11 z" id="path4208" class="ColorScheme-Text"/>
 </g>
 <g transform="translate(-192.53574,-404.50504)" id="Fill100">
  <rect y="214.54" x="-404.5" height="22" width="22" id="rect4212" style="opacity:0.001;fill:currentColor" transform="matrix(0,-1,1,0,0,0)"/>
  <path class="ColorScheme-Text" style="opacity:1;fill:currentColor;fill-opacity:1;fill-rule:evenodd;stroke:none;stroke-width:1px;stroke-linecap:butt;stroke-linejoin:miter;stroke-opacity:1" d="m 229.53573,399.50504 -8,0 0,-11 8,0 z" id="path4214"/>
 </g>
 <g transform="translate(-170.53574,-404.50504)" id="Fill90">
  <rect y="214.54" x="-404.5" height="22" width="22" id="rect4218" style="opacity:0.001;fill:currentColor" transform="matrix(0,-1,1,0,0,0)"/>
  <path class="ColorScheme-Text" style="opacity:1;fill:currentColor;fill-opacity:1;fill-rule:evenodd;stroke:none;stroke-width:1px;stroke-linecap:butt;stroke-linejoin:miter;stroke-opacity:1" d="m 229.53573,399.50504 -8,0 0,-10 8,0 z" id="path4220"/>
 </g>
 <g id="Fill80" transform="translate(-148.53575,-404.50504)">
  <rect transform="matrix(0,-1,1,0,0,0)" style="opacity:0.001;fill:currentColor" id="rect4224" width="22" height="22" x="-404.5" y="214.54"/>
  <path id="path4226" d="m 229.53573,399.50504 -8,0 0,-9 8,0 z" style="opacity:1;fill:currentColor;fill-opacity:1;fill-rule:evenodd;stroke:none;stroke-width:1px;stroke-linecap:butt;stroke-linejoin:miter;stroke-opacity:1" class="ColorScheme-Text"/>
 </g>
 <g transform="translate(-126.53574,-404.50504)" id="Fill70">
  <rect y="214.54" x="-404.5" height="22" width="22" id="rect4230" style="opacity:0.001;fill:currentColor" transform="matrix(0,-1,1,0,0,0)"/>
  <path class="ColorScheme-Text" style="opacity:1;fill:currentColor;fill-opacity:1;fill-rule:evenodd;stroke:none;stroke-width:1px;stroke-linecap:butt;stroke-linejoin:miter;stroke-opacity:1" d="m 229.53573,399.50504 -8,0 0,-8 8,0 z" id="path4232"/>
 </g>
 <g id="Fill60" transform="translate(-104.53575,-404.50504)">
  <rect transform="matrix(0,-1,1,0,0,0)" style="opacity:0.001;fill:currentColor" id="rect4236" width="22" height="22" x="-404.5" y="214.54"/>
  <path id="path4238" d="m 229.53573,399.50504 -8,0 0,-7 8,0 z" style="opacity:1;fill:currentColor;fill-opacity:1;fill-rule:evenodd;stroke:none;stroke-width:1px;stroke-linecap:butt;stroke-linejoin:miter;stroke-opacity:1" class="ColorScheme-Text"/>
 </g>
 <g id="Fill50" transform="translate(-82.53575,-404.50504)">
  <rect transform="matrix(0,-1,1,0,0,0)" style="opacity:0.001;fill:currentColor" id="rect4242" width="22" height="22" x="-404.5" y="214.54"/>
  <path id="path4244" d="m 229.53573,399.50504 -8,0 0,-6 8,0 z" style="opacity:1;fill:currentColor;fill-opacity:1;fill-rule:evenodd;stroke:none;stroke-width:1px;stroke-linecap:butt;stroke-linejoin:miter;stroke-opacity:1" class="ColorScheme-Text"/>
 </g>
 <g transform="translate(-60.53577,-404.50504)" id="Fill40">
  <rect y="214.54" x="-404.5" height="22" width="22" id="rect4248" style="opacity:0.001;fill:currentColor" transform="matrix(0,-1,1,0,0,0)"/>
  <path class="ColorScheme-Text" style="opacity:1;fill:currentColor;fill-opacity:1;fill-rule:evenodd;stroke:none;stroke-width:1px;stroke-linecap:butt;stroke-linejoin:miter;stroke-opacity:1" d="m 229.53573,399.50504 -8,0 0,-5 8,0 z" id="path4250"/>
 </g>
 <g id="Fill30" transform="translate(-38.53574,-404.50504)">
  <rect transform="matrix(0,-1,1,0,0,0)" style="opacity:0.001;fill:currentColor" id="rect4254" width="22" height="22" x="-404.5" y="214.54"/>
  <path id="path4256" d="m 229.53573,399.50504 -8,0 0,-4 8,0 z" style="opacity:1;fill:currentColor;fill-opacity:1;fill-rule:evenodd;stroke:none;stroke-width:1px;stroke-linecap:butt;stroke-linejoin:miter;stroke-opacity:1" class="ColorScheme-Text"/>
 </g>
 <g transform="translate(-16.53575,-404.50504)" id="Fill20">
  <rect y="214.54" x="-404.5" height="22" width="22" id="rect4260" style="opacity:0.001;fill:currentColor" transform="matrix(0,-1,1,0,0,0)"/>
  <path class="ColorScheme-Text" style="opacity:1;fill:currentColor;fill-opacity:1;fill-rule:evenodd;stroke:none;stroke-width:1px;stroke-linecap:butt;stroke-linejoin:miter;stroke-opacity:1" d="m 229.53573,399.50504 -8,0 0,-3 8,0 z" id="path4262"/>
 </g>
 <g transform="translate(5.46425,-404.50504)" id="Fill10">
  <rect y="214.54" x="-404.5" height="22" width="22" id="rect4266" style="opacity:0.001;fill:currentColor" transform="matrix(0,-1,1,0,0,0)"/>
  <path class="ColorScheme-Text" id="path4268" d="m 219.53573,401.50505 3,0 6,0 3,0 0,-3 0,-11 0,-1 -3,0 -0.99999,0 0,-0.5 c 0,-0.277 -0.223,-0.5 -0.5,-0.5 l -3,0 c -0.277,0 -0.5,0.777 -0.5,0.5 l 0,0.5 -1.00001,0 -3,0 0,1 0,12 z m 2,-2 0,-11 2.50001,0 3,0 2.49999,0 0,11 z" style="opacity:1;fill:currentColor;fill-opacity:1;stroke:none;stroke-width:0.1;stroke-linecap:square;stroke-linejoin:miter;stroke-miterlimit:4;stroke-dasharray:none;stroke-dashoffset:0;stroke-opacity:1"/>
  <path class="ColorScheme-Text" style="fill:currentColor;fill-opacity:1;fill-rule:evenodd;stroke:none;stroke-width:1px;stroke-linecap:butt;stroke-linejoin:miter;stroke-opacity:1" d="m 229.53573,399.50504 -8,0 0,-2 8,0 z" id="path4270"/>
 </g>
 <g id="Fill0" transform="translate(27.46423,-404.50504)">
  <rect transform="matrix(0,-1,1,0,0,0)" style="opacity:0.001;fill:currentColor" id="rect4274" width="22" height="22" x="-404.5" y="214.54"/>
  <path style="opacity:1;fill:currentColor;fill-opacity:1;stroke:none;stroke-width:0.1;stroke-linecap:square;stroke-linejoin:miter;stroke-miterlimit:4;stroke-dasharray:none;stroke-dashoffset:0;stroke-opacity:1" d="m 219.53573,401.50505 3,0 6,0 3,0 0,-3 0,-11 0,-1 -3,0 -0.99999,0 0,-0.5 c 0,-0.277 -0.223,-0.5 -0.5,-0.5 l -3,0 c -0.277,0 -0.5,0.777 -0.5,0.5 l 0,0.5 -1.00001,0 -3,0 0,1 0,12 z m 2,-2 0,-11 2.50001,0 3,0 2.49999,0 0,11 z" id="path4276" class="ColorScheme-Text"/>
 </g>
 <g id="AcAdapter" transform="translate(-280.53574,-404.50504)">
  <rect transform="matrix(0,-1,1,0,0,0)" style="opacity:0.001;fill:currentColor" id="rect4280" width="22" height="22" x="-404.5" y="214.54"/>
  <path id="path4282" d="m 225.53574,389.50504 0,3 2,0 -2,5 0,-3 -2,0 2,-5 z" style="opacity:1;fill:currentColor;fill-opacity:1;fill-rule:evenodd;stroke:none;stroke-width:1px;stroke-linecap:butt;stroke-linejoin:miter;stroke-opacity:1"
        class="ColorScheme-ButtonBackground"/>
 </g>
 <g id="Unavailable" transform="translate(-214.53572,-426.50504)">
  <rect y="170.54" x="-426.5" height="22" width="22" id="rect4286" style="opacity:0.001;fill:currentColor" transform="matrix(0,-1,1,0,0,0)"/>
  <g id="g4288">
   <rect style="opacity:1;fill:currentColor;fill-opacity:1;stroke:none" id="rect4290" width="10" height="10" x="181.54" y="415.5" ry="1" class="ColorScheme-Highlight"/>
   <path id="path4292" d="m 188.65704,416.96951 -2.12132,2.12132 -2.12132,-2.12132 -1.41421,1.41421 2.12132,2.12132 -2.12132,2.12132 1.41421,1.41421 2.12132,-2.12132 2.12132,2.12132 1.41421,-1.41421 -2.12132,-2.12132 2.12132,-2.12132 -1.41421,-1.41421 z" style="opacity:1;fill:#ffffff;fill-opacity:1;stroke:none;stroke-width:1;stroke-linecap:round;stroke-linejoin:round;stroke-miterlimit:4;stroke-dasharray:none;stroke-opacity:1"/>
  </g>
 </g>
</svg>
