<?xml version="1.0" encoding="UTF-8" standalone="no"?>
<svg
   xmlns:dc="http://purl.org/dc/elements/1.1/"
   xmlns:cc="http://creativecommons.org/ns#"
   xmlns:rdf="http://www.w3.org/1999/02/22-rdf-syntax-ns#"
   xmlns:svg="http://www.w3.org/2000/svg"
   xmlns="http://www.w3.org/2000/svg"
   xmlns:sodipodi="http://sodipodi.sourceforge.net/DTD/sodipodi-0.dtd"
   xmlns:inkscape="http://www.inkscape.org/namespaces/inkscape"
   width="32"
   version="1.1"
   style="enable-background:new"
   height="32"
   id="svg2"
   inkscape:version="0.91 r13725"
   sodipodi:docname="bookmarks.svg">
  <metadata
     id="metadata20">
    <rdf:RDF>
      <cc:Work
         rdf:about="">
        <dc:format>image/svg+xml</dc:format>
        <dc:type
           rdf:resource="http://purl.org/dc/dcmitype/StillImage" />
      </cc:Work>
    </rdf:RDF>
  </metadata>
  <defs
     id="defs18" />
  <sodipodi:namedview
     pagecolor="#ffffff"
     bordercolor="#666666"
     borderopacity="1"
     objecttolerance="10"
     gridtolerance="10"
     guidetolerance="10"
     inkscape:pageopacity="0"
     inkscape:pageshadow="2"
     inkscape:window-width="1600"
     inkscape:window-height="843"
     id="namedview16"
     showgrid="false"
     inkscape:zoom="7.375"
     inkscape:cx="-11.525424"
     inkscape:cy="16"
     inkscape:window-x="0"
     inkscape:window-y="0"
     inkscape:window-maximized="1"
     inkscape:current-layer="svg2" />
  <title
     id="title4">
  Paper Symbolic Icon Theme
 </title>
  <g
     id="g4152">
    <rect
       y="0"
       x="0"
       height="32"
       width="32"
       style="opacity:0.00100002;fill:#000000;fill-opacity:1;stroke:none;stroke-opacity:1"
       id="rect8" />
    <path
       style="opacity:0.2;fill:#000000;fill-opacity:1"
       d="m 21.621944,2.9998853 c -2.304403,0 -4.379608,1.1910773 -5.832646,3.000039 -1.453413,-1.8089617 -3.528556,-3.000039 -5.8330205,-3.000039 -4.3941046,0 -7.9562774,4.1156654 -7.9562774,9.1927447 0,1.364118 0.2085765,2.676855 0.5738667,3.930417 0,0 0.3312356,1.131076 0.6246674,1.753719 3.3536588,7.960976 12.5902018,13.123231 12.5902018,13.123231 0,0 9.236605,-5.162393 12.590201,-13.123231 3.353596,-7.9608387 0.432712,-1.060728 0.624667,-1.753719 0.348794,-1.259355 0.573867,-2.566299 0.573867,-3.930417 0,-5.0770793 -3.562173,-9.1927447 -7.956277,-9.1927447 z"
       id="path10"
       inkscape:connector-curvature="0" />
    <path
       d="m 21.621944,1.9999453 c -2.304403,0 -4.379608,1.1910773 -5.832646,3.000039 -1.453413,-1.8089617 -3.528556,-3.000039 -5.8330205,-3.000039 -4.3941046,0 -7.9562774,4.1156654 -7.9562774,9.1927447 0,1.364118 0.2085765,2.676855 0.5738667,3.930417 0,0 0.3312356,1.131076 0.6246674,1.753719 3.3536588,7.960976 12.5902018,13.123231 12.5902018,13.123231 0,0 9.236605,-5.162393 12.590201,-13.123231 3.353596,-7.9608387 0.432712,-1.060728 0.624667,-1.753719 0.348794,-1.259355 0.573867,-2.566299 0.573867,-3.930417 0,-5.0770793 -3.562173,-9.1927447 -7.956277,-9.1927447 z"
       style="fill:#c2352a"
       id="path12"
       inkscape:connector-curvature="0" />
    <path
       d="M 9.9570312,2 C 5.5629266,2 2,6.1162801 2,11.193359 2,11.371763 2.012512,11.546028 2.019531,11.722656 2.2326084,6.8654104 5.70023,3 9.9570312,3 12.261496,3 14.33565,4.1910383 15.789062,6 17.2421,4.1910383 19.316691,3 21.621094,3 c 4.253364,0 7.717378,3.8592203 7.935547,8.710938 0.0072,-0.172622 0.02148,-0.343107 0.02148,-0.517579 C 29.578125,6.1162801 26.015198,2 21.621094,2 19.316691,2 17.2421,3.1910383 15.789062,5 14.33565,3.1910383 12.261496,2 9.9570312,2 Z M 29.876953,13.275391 c -0.120086,0.269142 -0.311868,0.702348 -0.484375,1.083984 -0.0083,0.05052 -0.02051,0.100028 -0.0293,0.150391 0.04173,-0.105988 0.612053,-1.454871 0.513672,-1.234375 z"
       style="opacity:0.2;fill:#d3dae3;fill-opacity:1"
       id="path14"
       inkscape:connector-curvature="0" />
  </g>
</svg>
