<svg xmlns="http://www.w3.org/2000/svg" width="32" height="32" version="1">
 <defs>
  <style id="current-color-scheme" type="text/css">
   .ColorScheme-Background {color:#2f343f; } .ColorScheme-ButtonBackground { color:#444a58; } .ColorScheme-Highlight { color:#5294e2; } .ColorScheme-Text { color:#d3dae3; } .ColorScheme-NegativeText { color:#f44336; } .ColorScheme-PositiveText { color:#4caf50; } .ColorScheme-NeutralText { color:#ff9800; }
  </style>
 </defs>
 <g id="22-22-cadence" transform="translate(27,5)">
  <path style="fill:currentColor" class="ColorScheme-Text" d="m 15.999999,8.0001308 c -0.904957,0.015 -2.28497,0.225514 -2.642578,0.615235 -0.381363,0.415605 -0.46397,0.999909 -0.357422,1.6464842 0.203127,1.232663 1.905361,2.743927 2.914062,4.103516 -0.007,0.0088 -0.01442,0.01857 -0.02148,0.02734 -0.508075,0.632274 -1.56773,1.212279 -2.0625,1.703125 0.07975,-0.359236 0.137175,-1.149442 0.150391,-1.398438 0.01132,-0.213292 0.0056,-0.378794 -0.06055,-0.513671 -0.03308,-0.06744 -0.09243,-0.132099 -0.173828,-0.158204 -0.0814,-0.02611 -0.165398,-0.0087 -0.238282,0.02539 -0.196786,0.504927 -0.522267,1.184166 -0.787109,1.81836 -0.243544,0.404481 -0.415716,1.128721 -0.527344,1.386718 -0.05748,0.132851 -0.100289,0.248703 -0.126953,0.34961 -0.02512,0.09506 -0.03744,0.178583 -0.0332,0.255859 0.13912,0.187597 0.364068,0.160151 0.546875,0.171875 0.07935,-8.32e-4 0.162269,-0.01488 0.253906,-0.07031 0.215049,-0.130093 0.478403,-0.335675 0.759766,-0.576172 -0.200672,0.664198 -0.234613,0.875986 -0.554688,1.61914 -0.0044,0.01036 -0.01114,0.0209 -0.01563,0.03125 -1.688895,-0.229902 -3.4501608,-0.0842 -4.6425778,0.326172 -0.625464,0.215252 -1.107127,0.69495 -1.294922,1.22461 -0.187794,0.529662 -0.07342,1.202608 0.398438,2.037109 0.471855,0.834501 0.992354,1.217025 1.546875,1.335938 0.554521,0.118912 1.1083228,-0.0366 1.6210938,-0.451172 0.97757,-0.790357 1.859026,-2.624004 2.544921,-4.167969 0.01126,0.0017 0.02391,0.0023 0.03516,0.0039 0.807741,0.119162 1.582568,1.20627 2.259767,1.384766 -0.354601,0.11134 -0.769443,0.226614 -0.994142,0.339843 -0.192386,0.09695 -0.334923,0.184475 -0.419921,0.308594 -0.0425,0.06206 -0.07058,0.145725 -0.05273,0.228516 0.01785,0.08279 0.07626,0.146031 0.142578,0.191406 0.132645,0.09075 0.320905,0.140705 0.601562,0.181641 0.280656,0.04093 0.750689,0.06587 1.226563,0.07227 0.0014,1.9e-5 0.0025,-1.9e-5 0.0039,0 0.0014,-1.9e-5 0.0025,1.9e-5 0.0039,0 0.475874,-0.0064 0.945907,-0.03134 1.226563,-0.07227 0.280657,-0.04094 0.468917,-0.09089 0.601562,-0.181641 0.06632,-0.04537 0.124728,-0.108616 0.142578,-0.191406 0.01785,-0.08279 -0.01023,-0.166456 -0.05273,-0.228516 -0.085,-0.124119 -0.227536,-0.211644 -0.419922,-0.308594 -0.224699,-0.113228 -0.639541,-0.228503 -0.994141,-0.339843 0.677199,-0.178496 1.452025,-1.265604 2.259766,-1.384766 0.01125,-0.0016 0.0239,-0.0022 0.03516,-0.0039 0.685895,1.543965 1.567352,3.377612 2.544922,4.167969 0.51277,0.414572 1.066573,0.570084 1.621094,0.451172 0.554521,-0.118913 1.07502,-0.501437 1.546875,-1.335938 0.471858,-0.834501 0.586232,-1.507447 0.398437,-2.037109 -0.187795,-0.52966 -0.669457,-1.009358 -1.294921,-1.22461 -1.192417,-0.410372 -2.953685,-0.556074 -4.642579,-0.326172 -0.0045,-0.01035 -0.01122,-0.02089 -0.01562,-0.03125 -0.320077,-0.743154 -0.354016,-0.954942 -0.554688,-1.61914 0.281363,0.240497 0.544717,0.446079 0.759766,0.576172 0.09164,0.05543 0.174556,0.06948 0.253906,0.07031 0.182807,-0.01172 0.407755,0.01572 0.546875,-0.171875 0.0042,-0.07728 -0.0081,-0.160799 -0.0332,-0.255859 -0.02666,-0.100907 -0.06947,-0.216759 -0.126953,-0.34961 -0.111628,-0.257997 -0.2838,-0.982237 -0.527344,-1.386718 -0.264842,-0.634194 -0.590324,-1.313433 -0.787109,-1.81836 -0.07289,-0.03408 -0.156882,-0.0515 -0.238282,-0.02539 -0.0814,0.0261 -0.140748,0.09076 -0.173828,0.158204 -0.06615,0.134878 -0.07187,0.300379 -0.06055,0.513671 0.01322,0.248996 0.07064,1.039202 0.150391,1.398438 -0.49477,-0.490842 -1.554425,-1.070847 -2.0625,-1.703121 -0.0071,-0.0088 -0.01449,-0.01854 -0.02148,-0.02734 1.008693,-1.359589 2.710927,-2.870853 2.914054,-4.103516 0.106548,-0.6465752 0.02394,-1.2308792 -0.357422,-1.6464842 -0.357608,-0.389721 -1.737621,-0.600235 -2.642578,-0.615235 z"/>
  <rect style="opacity:0.001" width="22" height="22" x="5" y="5"/>
 </g>
 <g id="cadence">
  <rect style="opacity:0.001" width="32" height="32" x="0" y="0"/>
  <path style="fill:currentColor" class="ColorScheme-Text" d="m 15.999964,2.9999957 c -1.407708,0.023438 -3.754691,0.3523713 -4.310969,0.9613203 -0.59323,0.6493932 -0.72173,1.562383 -0.555989,2.572673 0.315975,1.9260672 3.164189,4.287456 4.733277,6.411848 -0.01089,0.01375 -0.02243,0.02901 -0.03341,0.04272 -0.790336,0.987944 -2.238354,1.593941 -3.007995,2.360901 0.124055,-0.561317 0.213382,-1.796032 0.233941,-2.185095 0.01761,-0.333274 0.0087,-0.591875 -0.09419,-0.802624 -0.05146,-0.105372 -0.14378,-0.206408 -0.270399,-0.247198 -0.126622,-0.0408 -0.257285,-0.01359 -0.37066,0.03967 -0.306111,0.788961 -0.812413,1.85029 -1.224389,2.841233 -0.378846,0.632012 -0.846998,2.364119 -1.020641,2.767247 -0.08942,0.207583 -0.1560044,0.388605 -0.1974814,0.546274 -0.03908,0.148534 -0.05824,0.279041 -0.05164,0.399786 0.2164084,0.293125 0.5663264,0.250241 0.8506914,0.268559 0.123433,-0.0013 0.252419,-0.02324 0.394964,-0.109861 0.334521,-0.203273 0.744181,-0.524501 1.181856,-0.900283 -0.312156,1.037826 -0.364953,0.968392 -0.862846,2.129587 -0.0068,0.01619 -0.01732,0.03266 -0.02431,0.04884 C 8.74261,19.786366 6.0028699,20.014029 4.1480035,20.655247 3.1750619,20.991582 2.4258102,21.841292 2.1336854,22.6689 c -0.2921234,0.827609 -0.1142087,1.879105 0.6197909,3.183034 0.7339948,1.303928 1.543658,1.901632 2.4062441,2.087436 0.8625861,0.185804 1.7240535,-0.0572 2.5216953,-0.704967 1.5206609,-1.234952 2.8918113,-4.200241 3.9587573,-6.612727 0.01752,0.0027 0.03719,0.0035 0.05469,0.0061 1.256483,0.186194 2.461766,2.085278 3.515185,2.364182 -0.5516,0.173972 -1.196909,0.354091 -1.54644,0.531014 -0.299266,0.151487 -0.520989,0.288247 -0.653208,0.482186 -0.06611,0.09697 -0.109791,0.227699 -0.08203,0.357061 0.02776,0.129362 0.118627,0.228178 0.221788,0.299077 0.206336,0.1418 0.499184,0.219855 0.935761,0.283819 0.436575,0.06395 1.167735,0.102922 1.907982,0.112924 0.0021,3e-5 0.0038,-2.9e-5 0.0061,0 0.0021,-2.9e-5 0.0038,3e-5 0.0061,0 0.740247,-0.0099 1.471407,-0.04897 1.907982,-0.112924 0.436577,-0.06398 0.729425,-0.142016 0.935761,-0.283819 0.103159,-0.07089 0.194021,-0.169715 0.221788,-0.299077 0.02776,-0.12936 -0.01591,-0.26009 -0.08203,-0.357061 -0.132222,-0.193939 -0.353944,-0.330699 -0.65321,-0.482186 -0.349531,-0.176922 -0.994839,-0.357043 -1.546438,-0.531014 1.053419,-0.278904 2.2587,-2.177988 3.515183,-2.364183 0.0175,-0.0025 0.03717,-0.0034 0.05469,-0.0061 1.066946,2.412485 2.438097,5.377775 3.958758,6.612727 0.79764,0.647779 1.659109,0.890771 2.521696,0.704967 0.862586,-0.185804 1.672248,-0.783508 2.406244,-2.087436 0.733999,-1.303929 0.911914,-2.355425 0.619789,-3.183034 -0.292125,-0.827608 -1.041375,-1.677318 -2.014317,-2.013654 -1.854866,-0.641217 -4.59461,-0.86888 -7.221771,-0.509653 -0.007,-0.01618 -0.01745,-0.03265 -0.0243,-0.04884 -0.497897,-1.161196 -0.550691,-1.091761 -0.862846,-2.129588 0.437674,0.375782 0.847335,0.69701 1.181855,0.900283 0.142551,0.08662 0.271531,0.108565 0.394964,0.109861 0.284366,-0.01831 0.634284,0.02456 0.850692,-0.268559 0.0065,-0.120751 -0.0126,-0.251252 -0.05164,-0.399786 -0.04147,-0.157668 -0.108065,-0.338691 -0.197482,-0.546274 -0.173644,-0.403127 -0.441466,-1.83496 -0.820312,-2.466972 -0.411975,-0.990943 -1.018423,-2.352547 -1.324533,-3.141508 -0.113385,-0.05325 -0.244039,-0.08047 -0.37066,-0.03967 -0.126622,0.04078 -0.218941,0.141815 -0.270399,0.247198 -0.102902,0.21075 -0.111797,0.46935 -0.09419,0.802624 0.02056,0.389063 0.109885,1.623778 0.233942,2.185095 -0.76964,-0.766954 -2.317844,-1.372951 -3.108181,-2.360894 -0.01105,-0.01375 -0.02254,-0.02897 -0.03341,-0.04272 1.56908,-2.124393 4.517294,-4.4857816 4.833267,-6.4118487 C 21.132736,5.5237052 21.004234,4.6107155 20.411007,3.9613222 19.854729,3.3523733 17.407746,3.0234399 16.000039,3.000002 Z"/>
 </g>
</svg>
