<svg xmlns="http://www.w3.org/2000/svg" width="32" height="32" version="1">
 <defs>
  <style id="current-color-scheme" type="text/css">
   .ColorScheme-Background {color:#2f343f; } .ColorScheme-ButtonBackground { color:#444a58; } .ColorScheme-Highlight { color:#5294e2; } .ColorScheme-Text { color:#d3dae3; } .ColorScheme-NegativeText { color:#f44336; } .ColorScheme-PositiveText { color:#4caf50; } .ColorScheme-NeutralText { color:#ff9800; }
  </style>
 </defs>
 <g id="22-22-cantata" transform="translate(32.000001,10.000001)">
  <rect style="opacity:0.001" width="22" height="22" x="0" y="0" rx=".582" ry=".688"/>
  <path style="fill:currentColor" class="ColorScheme-Text" d="M 10.810547,2.9806386 A 8,8 0 0 0 2.9999995,11.023608 8.0000005,8.0000005 0 0 0 19,11.023608 8,8 0 0 0 10.810547,2.9806386 Z M 11,4.9786856 c 3.308423,0 6,2.6915771 6,6.0000004 0,3.308422 -2.691577,5.999998 -6,5.999998 -3.3084235,0 -6.0000005,-2.691576 -6.0000005,-5.999998 0,-3.3084233 2.691577,-6.0000004 6.0000005,-6.0000004 z m 0.400391,0.9999999 C 11.000391,5.9786855 11,6.3966543 11,6.3966543 v 4.7890627 c -0.384502,-0.136042 -0.670523,-0.206361 -1.0996095,-0.207031 -1.546397,0 -2.900391,0.89543 -2.900391,1.999998 0,1.10457 1.453603,2 3,2 1.5463985,0 3.0000015,-0.89543 3.0000015,-2 V 7.9786855 c 0,0 2.26729,1.1586675 1.324218,2.0234385 -0.259008,0.14857 -0.344328,0.378196 -0.298828,0.578125 0.06909,0.303608 0.439979,0.538683 0.953125,0.320312 C 15.749531,10.498572 16,9.7779042 16,9.1779043 c 0,-1.8 -2.999608,-3.1992188 -4.599609,-3.1992188 z"/>
 </g>
 <g id="cantata">
  <rect style="opacity:0.001" width="32" height="32" x="0" y="0" rx=".847" ry="1.001"/>
  <path style="fill:currentColor" class="ColorScheme-Text" d="M 15.715825,4.0034937 C 9.1746194,4.1579331 3.9632154,9.5103524 4.0001918,16.03614 4.0027579,22.644278 9.3745034,27.999862 16,27.999862 c 6.625496,0 11.997242,-5.355584 11.999808,-11.963722 C 28.038045,9.2886945 22.479207,3.8435929 15.715825,4.0034937 Z M 16,6.9926624 c 4.962555,0 8.999857,4.0267216 8.999857,8.9762726 0,4.94955 -4.037302,8.976268 -8.999857,8.976268 -4.962555,0 -8.9998561,-4.026718 -8.9998561,-8.976268 0,-4.949551 4.0373011,-8.9762726 8.9998561,-8.9762726 z m 0.600577,1.9962924 C 16.000587,8.9889548 16,9.614255 16,9.614255 v 6.664407 c -0.576743,-0.203524 -1.005768,-0.308724 -1.649388,-0.309727 -2.319557,0 -4.350516,1.339604 -4.350516,2.992087 0,1.652488 2.180369,2.992091 4.499928,2.992091 2.31956,0 4.49993,-1.339603 4.49993,-2.992091 v -6.979977 c 0,0 2.981932,1.233173 1.567347,2.526909 -0.388506,0.222267 -0.516483,0.565799 -0.448235,0.864902 0.103634,0.45421 0.659959,0.805894 1.429665,0.479201 1.156504,-0.601394 1.532202,-1.679545 1.532202,-2.577173 0,-2.692882 -4.080392,-4.2859292 -6.480356,-4.2859292 z"/>
 </g>
</svg>
