<svg xmlns="http://www.w3.org/2000/svg" width="32" height="32" version="1.1">
 <defs>
  <style id="current-color-scheme" type="text/css">
   .ColorScheme-Background {color:#2f343f; } .ColorScheme-ButtonBackground { color:#444a58; } .ColorScheme-Highlight { color:#5294e2; } .ColorScheme-Text { color:#d3dae3; } .ColorScheme-NegativeText { color:#f44336; } .ColorScheme-PositiveText { color:#4caf50; } .ColorScheme-NeutralText { color:#ff9800; }
  </style>
 </defs>
 <g id="22-22-choqok_offline" transform="translate(32.000001,10.000001)">
  <rect style="opacity:0.001" width="22" height="22" x="0" y="0"/>
  <path style="opacity:0.35;fill:currentColor" class="ColorScheme-Text" d="M 11,3 10.238281,4 9.400391,3.5 8.833984,4.7265625 C 7.079166,5.0876625 5.8381164,5.9347906 4.8105469,7.275391 3.0132402,9.620291 3,13.667425 3,15.953125 3,18.238825 7.190476,19 11,19 c 3.809524,0 8,-0.761175 8,-3.046875 0,-2.2857 -0.01325,-6.332834 -1.810547,-8.677734 C 16.161883,5.9347906 14.920835,5.0876625 13.166016,4.7265625 L 12.599609,3.5 11.761719,4 Z m 3.5,7 A 1.5,1.5 0 0 1 16,11.5 1.5,1.5 0 0 1 14.5,13 1.5,1.5 0 0 1 13,11.5 1.5,1.5 0 0 1 14.5,10 Z m -7,1 A 1.5,1.5 0 0 1 9,12.5 1.5,1.5 0 0 1 8.912109,13 1.5,1.5 0 0 0 7.5,12 1.5,1.5 0 0 0 6.0878906,13 1.5,1.5 0 0 1 6,12.5 1.5,1.5 0 0 1 7.5,11 Z m 6.5,0 v 1 h 1 v -1 z m -3,2 c 0.07658,10e-4 0.15085,0.03466 0.205078,0.09766 l 1.701172,1.738278 C 13.088291,15.046036 12.991911,15.9999 12.734375,16 H 11 9.265625 C 9.008086,15.9999 8.911709,15.046036 9.09375,14.835938 l 1.701172,-1.738282 C 10.849149,13.034656 10.923415,13.0001 11,13 Z"/>
 </g>
 <g id="choqok_offline">
  <rect style="opacity:0.001" width="32" height="32" x="0" y="0"/>
  <path style="opacity:0.35;fill:currentColor" class="ColorScheme-Text" d="M 16 4 L 14.857422 5.5 L 13.601562 4.75 L 12.751953 6.5898438 C 10.119726 7.1314938 8.2581512 8.4031625 6.7167969 10.414062 C 4.0208368 13.931413 4 20.001138 4 23.429688 C 4 26.858238 10.285715 28 16 28 C 21.714286 28 28 26.858238 28 23.429688 C 28 20.001138 27.981105 13.931413 25.285156 10.414062 C 23.7438 8.4031625 21.882229 7.1314937 19.25 6.5898438 L 18.400391 4.75 L 17.142578 5.5 L 16 4 z M 21 15 A 2.0000001 2.0000001 0 0 1 23 17 A 2.0000001 2.0000001 0 0 1 21 19 A 2.0000001 2.0000001 0 0 1 19 17 A 2.0000001 2.0000001 0 0 1 21 15 z M 11 16 A 1.9999998 1.9999998 0 0 1 13 18 A 1.9999998 1.9999998 0 0 1 12.882812 18.666016 A 1.9999998 1.9999998 0 0 0 11 17.333984 A 1.9999998 1.9999998 0 0 0 9.1171875 18.666016 A 1.9999998 1.9999998 0 0 1 9 18 A 1.9999998 1.9999998 0 0 1 11 16 z M 20 16 L 20 18 L 22 18 L 22 16 L 20 16 z M 16 19 C 16.114871 19.0013 16.227252 19.046847 16.308594 19.130859 L 18.859375 21.447266 C 19.132437 21.727396 18.987868 22.999868 18.601562 23 L 16 23 L 13.398438 23 C 13.012129 22.999868 12.867563 21.727396 13.140625 21.447266 L 15.693359 19.130859 C 15.774699 19.046859 15.885123 19.000132 16 19 z"/>
 </g>
</svg>
