<?xml version="1.0"?>
<svg xmlns:osb="http://www.openswatchbook.org/uri/2009/osb" xmlns="http://www.w3.org/2000/svg" width="22" version="1.1" height="22">
 <defs id="defs7386">
  <style type="text/css" id="current-color-scheme">
   .ColorScheme-Text { color:#d3dae3; } .ColorScheme-Highlight { color:#5294e2; } .ColorScheme-ButtonBackground { color:#d3dae3; }
  </style>
 </defs>
  <g
     id="22-22-computer-laptop"
     transform="translate(66,0)">
    <rect
       y="0"
       x="-30"
       height="22"
       width="22"
       id="rect4289"
       style="opacity:0.001;fill:#000000;fill-opacity:1;stroke:none" />
    <g
       id="g4314">
      <path
         style="opacity:1;fill:currentColor;fill-opacity:1;fill-rule:nonzero;stroke:none;stroke-width:1;stroke-linecap:round;stroke-linejoin:round;stroke-miterlimit:4;stroke-dasharray:none;stroke-dashoffset:0;stroke-opacity:1"
         d="M 39.857422 2 C 38.274565 2 37 3.2495814 37 4.8007812 L 37 13.199219 C 37 14.750419 38.274565 16 39.857422 16 L 38.75 16 C 37.226506 16 36 16.892 36 18 C 36 19.108 37.226506 20 38.75 20 L 55.25 20 C 56.773494 20 58 19.108 58 18 C 58 16.892 56.773494 16 55.25 16 L 54.142578 16 C 55.725435 16 57 14.750419 57 13.199219 L 57 4.8007812 C 57 3.2495814 55.725435 2 54.142578 2 L 39.857422 2 z M 41.285156 5 L 52.714844 5 C 53.506273 5 54 5.4236187 54 6.1992188 L 54 11.800781 C 54 12.57638 53.506273 13.199219 52.714844 13.199219 L 41.285156 13.199219 C 40.493727 13.199219 40 12.57638 40 11.800781 L 40 6.1992188 C 40 5.4236187 40.493727 5 41.285156 5 z"
         transform="translate(-66,0)"
         id="path4293"
         class="ColorScheme-Text" />
    </g>
  </g>
  <g
     id="16-16-computer">
    <rect
       style="opacity:0.001;fill:#00000f;fill-opacity:1;stroke:none"
       id="rect3034"
       width="15.989"
       height="15.989"
       x="0"
       y="26.01" />
    <path
       style="opacity:1;fill:currentColor;fill-opacity:1;fill-rule:nonzero;stroke:none;stroke-width:1;stroke-linecap:round;stroke-linejoin:round;stroke-miterlimit:4;stroke-dasharray:none;stroke-dashoffset:0;stroke-opacity:1"
       d="M 3 28 C 1.892 28 1 28.892 1 30 L 1 36 C 1 37.108 1.892 38 3 38 L 5 38 L 5 40 L 3 40 L 3 41 L 13 41 L 13 40 L 11 40 L 11 38 L 13 38 C 14.108 38 15 37.108 15 36 L 15 30 C 15 28.892 14.108 28 13 28 L 3 28 z M 4 30 L 12 30 C 12.554 30 13 30.446 13 31 L 13 35 C 13 35.554 12.554 36 12 36 L 4 36 C 3.446 36 3 35.554 3 35 L 3 31 C 3 30.446 3.446 30 4 30 z"
       id="rect4219"
       class="ColorScheme-Text" />
  </g>
  <g
     id="16-16-computer-laptop">
    <rect
       style="opacity:0.001;fill:#000000;fill-opacity:1;stroke:none"
       id="rect3042"
       width="16"
       height="16"
       x="36"
       y="26" />
    <g
       transform="translate(53,50)"
       id="g4242">
      <path
         style="opacity:1;fill:currentColor;fill-opacity:1;fill-rule:nonzero;stroke:none;stroke-width:1;stroke-linecap:round;stroke-linejoin:round;stroke-miterlimit:4;stroke-dasharray:none;stroke-dashoffset:0;stroke-opacity:1"
         d="M 39 28 C 37.892 28 37 28.892 37 30 L 37 36 C 37 37.108 37.892 38 39 38 L 38 38 C 36.892 38 36 38.669 36 39.5 C 36 40.331 36.892 41 38 41 L 50 41 C 51.108 41 52 40.331 52 39.5 C 52 38.669 51.108 38 50 38 L 49 38 C 50.108 38 51 37.108 51 36 L 51 30 C 51 28.892 50.108 28 49 28 L 39 28 z M 40 30 L 48 30 C 48.554 30 49 30.446 49 31 L 49 35 C 49 35.554 48.554 36 48 36 L 40 36 C 39.446 36 39 35.554 39 35 L 39 31 C 39 30.446 39.446 30 40 30 z"
         transform="translate(-53,-50)"
         id="path4233"
         class="ColorScheme-Text" />
    </g>
  </g>
  <g
     id="22-22-computer"
     transform="translate(33,-1.5113048e-5)">
    <rect
       style="opacity:0.001;fill:#000000;fill-opacity:1;stroke:none"
       id="rect4332"
       width="22"
       height="22"
       x="-33"
       y="0" />
    <path
       style="opacity:1;fill:currentColor;fill-opacity:1;fill-rule:nonzero;stroke:none;stroke-width:1;stroke-linecap:round;stroke-linejoin:round;stroke-miterlimit:4;stroke-dasharray:none;stroke-dashoffset:0;stroke-opacity:1"
       d="M 3.8574219 2 C 2.2745649 2 1 3.2495813 1 4.8007812 L 1 13.199219 C 1 14.750419 2.2745649 16 3.8574219 16 L 7 16 L 7 19 L 4 19 L 4 20 L 18 20 L 18 19 L 15 19 L 15 16 L 18.142578 16 C 19.725435 16 21 14.750419 21 13.199219 L 21 4.8007812 C 21 3.2495813 19.725435 2 18.142578 2 L 3.8574219 2 z M 5.2851562 5 L 16.714844 5 C 17.506273 5 18 5.4236187 18 6.1992188 L 18 11.800781 C 18 12.57638 17.506273 13.199219 16.714844 13.199219 L 5.2851562 13.199219 C 4.4937272 13.199219 4 12.57638 4 11.800781 L 4 6.1992188 C 4 5.4236186 4.4937272 5 5.2851562 5 z"
       transform="translate(-33,1.5113048e-5)"
       id="path4336"
       class="ColorScheme-Text" />
  </g>
  <g
     id="computer">
    <rect
       y="-34"
       x="0"
       height="32"
       width="32"
       id="rect4419"
       style="opacity:0.001;fill:#000000;fill-opacity:1;stroke:none" />
    <path
       id="rect4777"
       d="M 4.3007812 -30 C 3.5805813 -30 3 -29.4425 3 -28.75 L 3 -11.25 C 3 -10.5575 3.5805813 -10 4.3007812 -10 L 8 -10 L 8 -8.3125 C 8 -7.585098 8.5955024 -7 9.3339844 -7 L 22.667969 -7 C 23.406451 -7 24 -7.585098 24 -8.3125 L 24 -10 L 27.701172 -10 C 28.421372 -10 29 -10.5575 29 -11.25 L 29 -28.75 C 29 -29.4425 28.421372 -30 27.701172 -30 L 4.3007812 -30 z M 5 -28 L 27 -28 L 27 -12 L 5 -12 L 5 -28 z "
       style="fill:currentColor" class="ColorScheme-Text" />
  </g>
  <g
     id="computer-laptop">
    <rect
       style="opacity:0.001;fill:#000000;fill-opacity:1;stroke:none"
       id="rect4393"
       width="32"
       height="32"
       x="36"
       y="-34" />
    <path
       id="rect4777-4"
       d="M 40.300781 -29 C 39.580581 -29 39 -28.4425 39 -27.75 L 39 -12.25 C 39 -11.558 39.580581 -11 40.300781 -11 L 38 -11 C 37.446 -11 37 -10.554 37 -10 L 37 -9 C 37 -8.446 37.446 -8 38 -8 L 66 -8 C 66.554 -8 67 -8.446 67 -9 L 67 -10 C 67 -10.554 66.554 -11 66 -11 L 63.699219 -11 C 64.419419 -11 65 -11.5575 65 -12.25 L 65 -27.75 C 65 -28.4425 64.419219 -29 63.699219 -29 L 40.300781 -29 z M 41 -27 L 63 -27 L 63 -13 L 41 -13 L 41 -27 z "
       style="fill:currentColor" class="ColorScheme-Text" />
  </g>
</svg>
