<svg xmlns="http://www.w3.org/2000/svg" id="svg" width="100%" height="100%" version="1.1" viewBox="0 0 22 22">
 <defs id="defs81">
  <style id="current-color-scheme" type="text/css">
   .ColorScheme-Text { color:#d3dae3; } .ColorScheme-Highlight { color:#5294e2; } .ColorScheme-ButtonBackground { color:#d3dae3; }
  </style>
 </defs>
 <g id="configure">
  <rect id="rect2985" width="22" height="22" x="0" y="0" style="opacity:0.001;fill:#000000;fill-opacity:0"/>
  <path id="path4141" class="ColorScheme-Text" d="M 8.9824219 3 L 8.8046875 5.1074219 A 6.3423397 6.2857118 0 0 0 6.9511719 6.1699219 L 5.0175781 5.2675781 L 3 8.7324219 L 4.7539062 9.9394531 A 6.3423397 6.2857118 0 0 0 4.6582031 11 A 6.3423397 6.2857118 0 0 0 4.75 12.064453 L 3 13.267578 L 5.0175781 16.732422 L 6.9453125 15.832031 A 6.3423397 6.2857118 0 0 0 8.8046875 16.888672 L 8.9824219 19 L 13.017578 19 L 13.195312 16.892578 A 6.3423397 6.2857118 0 0 0 15.048828 15.830078 L 16.982422 16.732422 L 19 13.267578 L 17.246094 12.060547 A 6.3423397 6.2857118 0 0 0 17.341797 11 A 6.3423397 6.2857118 0 0 0 17.25 9.9355469 L 19 8.7324219 L 16.982422 5.2675781 L 15.054688 6.1679688 A 6.3423397 6.2857118 0 0 0 13.195312 5.1113281 L 13.017578 3 L 8.9824219 3 z M 11 8 A 3.0000004 2.9999999 0 0 1 14 11 A 3.0000004 2.9999999 0 0 1 11 14 A 3.0000004 2.9999999 0 0 1 8 11 A 3.0000004 2.9999999 0 0 1 11 8 z" style="opacity:1;fill:currentColor"/>
 </g>
 <g id="16-16-configure">
  <rect id="rect4183" width="16" height="16" x="3" y="-18" style="opacity:0.001;fill:#000000;fill-opacity:0"/>
  <g id="layer2" transform="translate(-421.0625,-446)" style="display:inline">
   <path id="path10500-6" class="ColorScheme-Text" d="m 430.25,429 -0.1543,1.84375 a 5.5,5.5 0 0 0 -1.60742,0.92969 l -1.67578,-0.78906 -1.75,3.03124 1.52148,1.05665 a 5.5,5.5 0 0 0 -0.084,0.92773 5.5,5.5 0 0 0 0.0801,0.93164 l -1.51758,1.05274 1.75,3.03124 1.67188,-0.7871 a 5.5,5.5 0 0 0 1.61132,0.92382 L 430.25,443 l 3.5,0 0.1543,-1.84375 a 5.5,5.5 0 0 0 1.60742,-0.92969 l 1.67578,0.78906 1.75,-3.03124 -1.52148,-1.05665 a 5.5,5.5 0 0 0 0.084,-0.92773 5.5,5.5 0 0 0 -0.0801,-0.93164 l 1.51758,-1.05274 -1.75,-3.03124 -1.67188,0.7871 a 5.5,5.5 0 0 0 -1.61132,-0.92382 L 433.75,429 l -3.5,0 z m 1.75,5 a 2,2 0 0 1 2,2 2,2 0 0 1 -2,2 2,2 0 0 1 -2,-2 2,2 0 0 1 2,-2 z" style="opacity:1;fill:currentColor"/>
  </g>
 </g>
</svg>
