<svg xmlns="http://www.w3.org/2000/svg" width="32" height="32" version="1.1">
 <defs>
  <style id="current-color-scheme" type="text/css">
   .ColorScheme-Background {color:#2f343f; } .ColorScheme-ButtonBackground { color:#444a58; } .ColorScheme-Highlight { color:#5294e2; } .ColorScheme-Text { color:#d3dae3; } .ColorScheme-NegativeText { color:#f44336; } .ColorScheme-PositiveText { color:#4caf50; } .ColorScheme-NeutralText { color:#ff9800; }
  </style>
 </defs>
 <g id="22-22-document-encrypt" transform="translate(-315,235)">
  <rect style="opacity:0.001" width="22" height="22" x="347" y="-257"/>
  <path style="fill:currentColor" class="ColorScheme-PositiveText" d="m 357.99758,-254.00336 c -5.00262,-0.003 -4.99999,4.64286 -4.99999,4.64286 v 2.35714 h -0.83333 c -0.64633,0 -1.16667,0.36686 -1.16667,1 v 6.85714 c 0,0.63315 0.52034,1.14286 1.16667,1.14286 h 11.66666 c 0.64633,0 1.16667,-0.50971 1.16667,-1.14286 v -6.85714 c 0,-0.63314 -0.52963,-0.89079 -1.16667,-1 h -0.83333 v -2.35714 c 0,0 0.003,-4.6395 -5.00001,-4.64286 z m 0,3 c 2.00262,-0.003 2.00001,1.57143 2.00001,1.57143 v 2.42857 h -4 v -2.42857 c 0,0 0.003,-1.56807 1.99999,-1.57143 z"/>
 </g>
 <g id="22-22-document-open-recent" transform="translate(-383,211)">
  <rect style="opacity:0.001" width="22" height="22" x="383" y="-233"/>
  <path style="fill:currentColor" class="ColorScheme-Text" d="m 393.99759,-231.00336 a 9,9 0 0 0 -9,9 9,9 0 0 0 9,9 9,9 0 0 0 9,-9 9,9 0 0 0 -9,-9 z m 0,3 a 6,6 0 0 1 6,6 6,6 0 0 1 -6,6 6,6 0 0 1 -6,-6 6,6 0 0 1 6,-6 z m -1,1 v 6 h 0.082 v 0.0117 l 3.45312,3.45313 1.41407,-1.41407 -2.94922,-2.95117 v -5.09961 h -2 z"/>
 </g>
 <g id="22-22-document-decrypt" transform="translate(31.999999)">
  <rect style="opacity:0.001" width="22" height="22" x="32" y="-22"/>
  <path style="fill:currentColor" class="ColorScheme-NegativeText" d="m 43,-19 c -0.291932,-1.73e-4 -0.561626,0.01983 -0.820312,0.04883 -0.05558,0.0064 -0.108003,0.01576 -0.16211,0.02344 -0.224342,0.03101 -0.436912,0.07219 -0.636719,0.123046 -0.01813,0.0047 -0.03675,0.0088 -0.05469,0.01367 -0.702862,0.18683 -1.246364,0.49174 -1.681641,0.853516 -0.06427,0.05356 -0.118391,0.112029 -0.177734,0.167969 -0.206555,0.194662 -0.388083,0.39574 -0.539063,0.609375 -0.02271,0.03181 -0.0448,0.06366 -0.06641,0.0957 -0.2673,0.400833 -0.453778,0.804413 -0.576172,1.185547 -0.01598,0.04783 -0.02876,0.09002 -0.04297,0.136718 -0.0555,0.189834 -0.100189,0.361755 -0.13086,0.523438 -0.01782,0.08829 -0.02891,0.131404 -0.04102,0.208984 -4.44e-4,0.0029 -0.0015,0.0069 -0.002,0.0098 C 38.014158,-14.645157 38,-14.357422 38,-14.357422 V -14 h 3 v -0.427734 c 0,0 0.006,-0.262898 0.140625,-0.572266 h 0.002 c 0.04531,-0.103223 0.109436,-0.212443 0.189453,-0.318359 0.01315,-0.01732 0.02873,-0.03363 0.04297,-0.05078 0.07226,-0.08727 0.165426,-0.168742 0.269531,-0.246093 0.03312,-0.02445 0.06486,-0.04943 0.101563,-0.07227 0.111033,-0.0694 0.246916,-0.126408 0.394531,-0.175781 0.05094,-0.01689 0.09277,-0.03887 0.148437,-0.05274 0.04111,-0.01033 0.08705,-0.01686 0.13086,-0.02539 C 42.593783,-15.974796 42.780671,-16.00033 43,-16 c 0.220705,-3.31e-4 0.407349,0.02481 0.582031,0.05859 0.04176,0.0082 0.0857,0.01363 0.125,0.02344 0.06035,0.01495 0.10534,0.0401 0.160157,0.05859 0.142375,0.04835 0.27481,0.102787 0.382812,0.169922 0.04047,0.02509 0.07519,0.05306 0.111328,0.08008 0.09785,0.07357 0.186597,0.149931 0.25586,0.232422 0.01896,0.02253 0.03762,0.04553 0.05469,0.06836 0.07669,0.103081 0.141507,0.208264 0.185547,0.308594 C 44.992014,-14.69063 45,-14.427734 45,-14.427734 V -12 h -1 -2 -1 -3 -0.833984 c -0.567623,0 -1.036541,0.283475 -1.142578,0.78125 C 36.007729,-11.150898 36,-11.079143 36,-11 v 6.8574219 C 36,-3.5094281 36.519687,-3 37.166016,-3 H 48.833984 C 49.480314,-3 50,-3.5094281 50,-4.1425781 V -11 c 0,-0.63314 -0.519686,-1 -1.166016,-1 H 48 v -2.357422 c 0,0 -0.0141,-0.287701 -0.06836,-0.642578 -8.33e-4,-0.0054 -0.0011,-0.0043 -0.002,-0.0098 -0.01252,-0.08031 -0.02625,-0.127003 -0.04492,-0.21875 -0.03077,-0.160646 -0.07373,-0.33153 -0.128907,-0.519531 -0.01274,-0.04171 -0.02492,-0.07849 -0.03906,-0.121094 -0.121206,-0.379928 -0.305186,-0.783086 -0.570313,-1.183593 -0.02561,-0.03825 -0.0529,-0.07536 -0.08008,-0.113282 -0.155413,-0.219068 -0.340567,-0.426276 -0.554687,-0.625 -0.05255,-0.04881 -0.0999,-0.09953 -0.15625,-0.146484 -0.435277,-0.361776 -0.980732,-0.666686 -1.683594,-0.853516 -0.01855,-0.005 -0.03789,-0.0088 -0.05664,-0.01367 -0.198436,-0.05043 -0.408242,-0.09218 -0.630859,-0.123046 -0.05483,-0.0078 -0.107719,-0.01694 -0.164063,-0.02344 C 43.561512,-18.980202 43.29208,-19.00017 43,-19 Z"/>
 </g>
 <g id="document-open-recent" transform="translate(3.4999998e-6,1.5000001e-6)">
  <rect style="opacity:0.001" width="32" height="32" x="0" y="0"/>
  <path style="fill:currentColor" class="ColorScheme-Text" d="M 16,3 A 13,13 0 0 0 3,16 13,13 0 0 0 16,29 13,13 0 0 0 29,16 13,13 0 0 0 16,3 Z m 0,4 a 8.9999998,8.9999998 0 0 1 9,9 8.9999998,8.9999998 0 0 1 -9,9 8.9999998,8.9999998 0 0 1 -9,-9 8.9999998,8.9999998 0 0 1 9,-9 z m -2,2 v 8.445312 L 19.005859,22.449219 21.148438,20.40625 17,16.144531 V 9 Z"/>
 </g>
 <g id="document-decrypt" transform="translate(64.000001,3.5000001e-6)">
  <rect style="opacity:0.001" width="32" height="32" x="0" y="0"/>
  <path style="fill:currentColor" class="ColorScheme-NegativeText" d="M 16,4 C 8.4960707,3.9955 9,10.964844 9,10.964844 V 11 h 4 v -0.542969 c 0,0 0.0045,-2.3523816 3,-2.3574216 3.00393,-0.0045 3,2.3574216 3,2.3574216 V 14 H 15 13 9 8 6.75 C 5.7805052,14 5,14.55029 5,15.5 V 26.285156 C 5,27.23488 5.7805052,28 6.75,28 h 18.5 C 26.219495,28 27,27.23488 27,26.285156 V 15.5 C 27,14.55029 26.20556,14.163815 25.25,14 H 23 v -3.035156 c 0,0 0.504514,-6.959804 -7,-6.964844 z"/>
 </g>
 <g id="document-encrypt" transform="translate(32.000001,3.5000001e-6)">
  <rect style="opacity:0.001" width="32" height="32" x="0" y="0"/>
  <path style="fill:currentColor" class="ColorScheme-PositiveText" d="M 15.999985,4.0000022 C 8.4960557,3.9955022 9,10.964292 9,10.964292 V 14 H 6.7500024 c -0.9694948,0 -1.7500048,0.55029 -1.7500048,1.5 v 10.78571 c 0,0.949724 0.78051,1.71429 1.7500048,1.71429 H 25.249998 c 0.969495,0 1.750005,-0.764566 1.750005,-1.71429 V 15.5 c 0,-0.94971 -0.794445,-1.336185 -1.750005,-1.5 H 23 v -3.035708 c 0,0 0.504499,-6.9592498 -7.000015,-6.9642898 z m 0,4.1004251 C 19.003915,8.0959273 19,10.457573 19,10.457573 V 14 h -5.999999 v -3.542427 c 0,0 0.0045,-2.3521057 2.999984,-2.3571457 z"/>
 </g>
</svg>
