<svg xmlns="http://www.w3.org/2000/svg" id="svg2" width="22" height="22" version="1.1">
 <defs id="defs4">
  <style id="current-color-scheme" type="text/css">
   .ColorScheme-Text { color:#d3dae3; } .ColorScheme-Highlight { color:#5294e2; } .ColorScheme-ButtonBackground { color:#d3dae3; }
  </style>
 </defs>
 <rect id="rect3018" style="opacity:0;fill:currentColor;fill-opacity:1;stroke:none" class="ColorScheme-Text" width="16" height="16" x="-20.43" y="-19.39" ry="0"/>
 <g id="16-16-drive-harddisk">
  <rect id="rect3835" style="opacity:0;fill:#131313;fill-opacity:0.67054266;stroke:none" width="16" height="16" x="-20" y="6" ry="0"/>
  <path id="rect8476" style="fill:currentColor;fill-opacity:1" class="ColorScheme-Text" d="m -17,7 c -1,0 -1,1 -1,1 l 0,12 c 0,0 0,1 1,1 l 10,0 c 0,0 1,0 1,-1 L -6,8 c 0,0 0,-1 -1,-1 z m 5,2 c 2.20914,0 4,1.79086 4,4 0,2.20914 -1.79086,4 -4,4 l -4,0 0,-4 c 0,-2.20914 1.79086,-4 4,-4 z m 0,2 c -1.10457,0 -2,0.89543 -2,2 0,1.10457 0.89543,2 2,2 1.10457,0 2,-0.89543 2,-2 0,-1.10457 -0.89543,-2 -2,-2 z"/>
 </g>
 <g id="drive-harddisk">
  <rect id="rect3004" style="opacity:0;fill:currentColor;fill-opacity:1;stroke:none" class="ColorScheme-Text" width="22" height="22" x="0" y="0" ry="1.375"/>
  <path id="path4153" style="fill:currentColor;fill-opacity:1" class="ColorScheme-Text" d="M 5.166016,3 C 3.99935,3 4,4.142578 4,4.142578 L 4,17.857422 C 4,17.857422 3.99935,19 5.166016,19 l 11.667968,0 C 16.833984,19 18,19.000279 18,17.857422 L 18,4.142578 C 18,4.142578 18.00065,3 16.833984,3 L 5.166016,3 Z M 11,5 c 2.761425,0 5,2.238575 5,5 0,2.761425 -2.238575,5 -5,5 L 6,15 6,10 C 6,7.238575 8.238573,5 11,5 Z m 0,3 c -1.10457,0 -2,0.89543 -2,2 0,1.10457 0.89543,2 2,2 1.10457,0 2,-0.89543 2,-2 0,-1.10457 -0.89543,-2 -2,-2 z"/>
 </g>
</svg>
