<svg xmlns="http://www.w3.org/2000/svg" width="32" height="32" version="1.1">
 <defs>
  <style id="current-color-scheme" type="text/css">
   .ColorScheme-Background {color:#2f343f; } .ColorScheme-ButtonBackground { color:#444a58; } .ColorScheme-Highlight { color:#5294e2; } .ColorScheme-Text { color:#d3dae3; } .ColorScheme-NegativeText { color:#f44336; } .ColorScheme-PositiveText { color:#4caf50; } .ColorScheme-NeutralText { color:#ff9800; }
  </style>
 </defs>
 <g id="22-22-emblem-shared-symbolic" transform="translate(27,5.0000005)">
  <rect style="opacity:0.001" width="22" height="22" x="5" y="5"/>
  <path style="fill:currentColor" class="ColorScheme-Text" d="M 19.470703,10.152344 10.113281,16 19.470703,21.847656 20.529297,20.152344 13.884766,16 20.529297,11.847656 Z"/>
  <path style="fill:currentColor" class="ColorScheme-Text" d="m 20,8 a 3,3 0 0 0 -3,3 3,3 0 0 0 3,3 3,3 0 0 0 3,-3 3,3 0 0 0 -3,-3 z m -8,5 a 3,3 0 0 0 -3,3 3,3 0 0 0 3,3 3,3 0 0 0 3,-3 3,3 0 0 0 -3,-3 z m 8,5 a 3,3 0 0 0 -3,3 3,3 0 0 0 3,3 3,3 0 0 0 3,-3 3,3 0 0 0 -3,-3 z"/>
 </g>
 <g id="emblem-shared-symbolic">
  <rect style="opacity:0.001" width="32" height="32" x="0" y="0"/>
  <path style="fill:currentColor" class="ColorScheme-Text" d="M 20.744141,7.2050781 6.5234375,15.5 20.744141,23.794922 22.255859,21.205078 12.476562,15.5 22.255859,9.7949219 Z"/>
  <path style="fill:currentColor" class="ColorScheme-Text" d="m 21.500001,3.9999996 a 4.5000001,4.5000001 0 0 0 -4.5,4.5000002 A 4.5000001,4.5000001 0 0 0 21.500001,13 4.5000001,4.5000001 0 0 0 26,8.4999998 4.5000001,4.5000001 0 0 0 21.500001,3.9999996 Z"/>
  <path style="fill:currentColor" class="ColorScheme-Text" d="M 9.5000001,11 A 4.5000001,4.5000001 0 0 0 5,15.5 4.5000001,4.5000001 0 0 0 9.5000001,20 4.5000001,4.5000001 0 0 0 14,15.5 4.5000001,4.5000001 0 0 0 9.5000001,11 Z"/>
  <path style="fill:currentColor" class="ColorScheme-Text" d="m 21.500001,18 a 4.5000001,4.5000001 0 0 0 -4.5,4.500001 A 4.5000001,4.5000001 0 0 0 21.500001,27 4.5000001,4.5000001 0 0 0 26,22.500001 4.5000001,4.5000001 0 0 0 21.500001,18 Z"/>
 </g>
</svg>
