<svg xmlns="http://www.w3.org/2000/svg" width="32" height="32" version="1.1">
 <defs>
  <style id="current-color-scheme" type="text/css">
   .ColorScheme-Background {color:#2f343f; } .ColorScheme-ButtonBackground { color:#444a58; } .ColorScheme-Highlight { color:#5294e2; } .ColorScheme-Text { color:#d3dae3; } .ColorScheme-NegativeText { color:#f44336; } .ColorScheme-PositiveText { color:#4caf50; } .ColorScheme-NeutralText { color:#ff9800; }
  </style>
 </defs>
 <g id="22-22-face-laughing" transform="translate(32.000001,10.000001)">
  <rect style="opacity:0.001" width="22" height="22" x="0" y="0"/>
  <path style="fill:currentColor" class="ColorScheme-Text" d="m 11,3 a 8,8 0 0 0 -8,8 8,8 0 0 0 8,8 8,8 0 0 0 8,-8 8,8 0 0 0 -8,-8 z M 8,7 A 2,2 0 0 1 10,9 2,2 0 0 1 8,11 2,2 0 0 1 6,9 2,2 0 0 1 8,7 Z m 6,0 a 2,2 0 0 1 2,2 2,2 0 0 1 -2,2 2,2 0 0 1 -2,-2 2,2 0 0 1 2,-2 z m -7.0625,4.986328 a 1.0001,1.0001 0 0 1 0.099609,0 1.0001,1.0001 0 0 1 0.953125,0.867188 c 0,0 0.075177,0.506001 0.4785156,1.050781 C 8.8720887,14.449077 9.5021818,15 11,15 c 1.497818,0 2.127911,-0.550923 2.53125,-1.095703 0.403336,-0.544781 0.478516,-1.050781 0.478516,-1.050781 a 1.00101,1.00101 0 1 1 1.980468,0.292968 c 0,0 -0.144347,0.994 -0.851562,1.949219 C 14.431457,16.050923 13.059966,17 11,17 8.9400341,17 7.5685434,16.050923 6.8613281,15.095703 6.1541128,14.140483 6.0097656,13.146484 6.0097656,13.146484 A 1.0001,1.0001 0 0 1 6.9375,11.986328 Z"/>
 </g>
 <g id="face-laughing">
  <rect style="opacity:0.001" width="32" height="32" x="0" y="0"/>
  <path style="fill:currentColor" class="ColorScheme-Text" d="M 16 4 A 12 12 0 0 0 4 16 A 12 12 0 0 0 16 28 A 12 12 0 0 0 28 16 A 12 12 0 0 0 16 4 z M 11.5 10 A 2.4999998 2.4999998 0 0 1 14 12.5 A 2.4999998 2.4999998 0 0 1 11.5 15 A 2.4999998 2.4999998 0 0 1 9 12.5 A 2.4999998 2.4999998 0 0 1 11.5 10 z M 20.5 10 A 2.4999998 2.4999998 0 0 1 23 12.5 A 2.4999998 2.4999998 0 0 1 20.5 15 A 2.4999998 2.4999998 0 0 1 18 12.5 A 2.4999998 2.4999998 0 0 1 20.5 10 z M 10.449219 16.96875 A 1.50015 1.50015 0 0 1 11.988281 18.314453 C 11.988281 18.314453 12.064219 18.919609 12.574219 19.599609 C 13.084219 20.279609 13.9 21 16 21 C 18.1 21 18.915781 20.279609 19.425781 19.599609 C 19.935779 18.919609 20.011719 18.314453 20.011719 18.314453 A 1.50015 1.50015 0 0 1 21.515625 16.978516 A 1.50015 1.50015 0 0 1 22.988281 18.685547 C 22.988281 18.685547 22.814219 20.080391 21.824219 21.400391 C 20.834219 22.720391 18.9 24 16 24 C 13.1 24 11.165781 22.720391 10.175781 21.400391 C 9.1857818 20.080391 9.0117188 18.685547 9.0117188 18.685547 A 1.50015 1.50015 0 0 1 10.449219 16.96875 z"/>
 </g>
</svg>
