<svg xmlns="http://www.w3.org/2000/svg" width="22" height="22" version="1.1">
 <defs>
  <style id="current-color-scheme" type="text/css">
   .ColorScheme-Background {color:#2f343f; } .ColorScheme-ButtonBackground { color:#444a58; } .ColorScheme-Highlight { color:#5294e2; } .ColorScheme-Text { color:#d3dae3; } .ColorScheme-NegativeText { color:#f44336; } .ColorScheme-PositiveText { color:#4caf50; } .ColorScheme-NeutralText { color:#ff9800; }
  </style>
 </defs>
 <g id="fcitx-punc-inactive" transform="translate(22,-132)">
  <path style="opacity:0.35;fill:currentColor" class="ColorScheme-Text" d="m 137,113 c -1.108,0 -2,0.892 -2,2 v 12 c 0,1.108 0.892,2 2,2 h 12 c 1.108,0 2,-0.892 2,-2 v -12 c 0,-1.108 -0.892,-2 -2,-2 z m 2.5,5 c 1.37479,0 2.5,1.12521 2.5,2.5 0,1.37479 -1.12521,2.5 -2.5,2.5 -1.37479,0 -2.5,-1.12521 -2.5,-2.5 0,-1.37479 1.12521,-2.5 2.5,-2.5 z m 7,0 c 1.37479,0 2.5,1.12521 2.5,2.5 0,2.39815 -1.11188,3.83998 -2.2168,4.59961 -1.10491,0.75963 -2.2207,0.89648 -2.2207,0.89648 l -0.125,-0.99218 c 0,0 0.88421,-0.11315 1.7793,-0.72852 0.48676,-0.33465 0.96571,-0.80875 1.30664,-1.50195 C 147.20988,122.9158 146.86519,123 146.5,123 c -1.37479,0 -2.5,-1.12521 -2.5,-2.5 0,-1.37479 1.12521,-2.5 2.5,-2.5 z"/>
  <rect style="opacity:0.001" width="22" height="22" x="132" y="110"/>
 </g>
 <g id="fcitx-wbpy" transform="translate(0,-132)">
  <path style="fill:currentColor" class="ColorScheme-Text" d="m 181,3 c -1.108,0 -2,0.892 -2,2 v 12 c 0,1.108 0.892,2 2,2 h 7 v -3 h -6 v -1 h 2.09961 l 0.88867,-4 H 183 v -1 h 2.21094 l 0.66601,-3 H 182 V 6 h 9 v 1 h -4.09766 l -0.66601,3 H 190 v 2 h 5 V 5 c 0,-1.108 -0.892,-2 -2,-2 z m 5.01367,8 -0.89062,4 H 188 v -1 c 0,-0.727842 0.40646,-1.372679 1,-1.722656 V 11 Z M 190,13 c -0.554,0 -1,0.446 -1,1 v 6 c 0,0.554 0.446,1 1,1 h 6 c 0.554,0 1,-0.446 1,-1 v -6 c 0,-0.554 -0.446,-1 -1,-1 z m 1,1 h 1 2 1 v 1 2 1 h -3 v 2 h -1 v -2 -1 -2 z m 1,1 v 2 h 2 v -2 z"/>
  <rect style="opacity:0.001" width="22" height="22" x="176" y="0"/>
 </g>
 <g id="fcitx-pinyin" transform="translate(0,-132)">
  <path style="fill:currentColor" class="ColorScheme-Text" d="m 5,3.0000153 c -1.108,0 -2,0.892 -2,2 V 17.000015 c 0,1.108 0.892,2 2,2 h 12 c 1.107999,0 1.999999,-0.892 1.999999,-2 V 5.0000153 c 0,-1.108 -0.892,-2 -1.999999,-2 z m 5.9004,1.6992 1.5,2 -0.3984,0.3008 h 1.996 l -0.398,-0.3008 1.5,-2 0.8,0.6016 -1.275,1.6992 H 17 v 1 h -2 v 2.9999997 h 2 v 1 h -2 v 5 h -1 v -5 h -2.041 c -0.096,1.12 -0.4768,2.031 -0.9258,2.811 -0.621,1.07 -1.6914,2.054 -1.6914,2.054 l -0.6836,-0.728 c 0,0 1.0125,-0.966 1.5098,-1.826 0.401,-0.7 0.7039,-1.411 0.7929,-2.311 H 9 v -0.9395 l -1.0000001,0.5 v 5.4395 H 5 v -1 h 1.9999999 v -3.9395 l -1.7772999,0.8887 -0.4454,-0.8984 2.2226999,-1.1113 V 8.0000153 H 5 v -1 h 1.9999999 v -2 h 1 v 2 H 9 v 1 H 7.9999999 v 2.4394997 l 0.7773001,-0.3887 0.4454,0.8984 -0.1055,0.0508 H 11 V 8.0000153 h -1 v -1 h 1.375 l -1.2754,-1.6992 z M 12,8.0000153 v 2.9999997 h 2 V 8.0000153 Z"/>
  <rect style="opacity:0.001" width="22" height="22" x="0" y="0"/>
 </g>
 <g id="fcitx-wubi" transform="translate(0,-132)">
  <path style="fill:currentColor" class="ColorScheme-Text" d="m 159,3 c -1.108,0 -2,0.892 -2,2 v 12 c 0,1.108 0.892,2 2,2 h 12 c 1.108,0 2,-0.892 2,-2 V 5 c 0,-1.108 -0.892,-2 -2,-2 z m 1,3 h 9 v 1 h -4.09766 l -0.66601,3 H 168 v 5 h 2 v 1 h -10 v -1 h 2.09961 l 0.88867,-4 H 161 v -1 h 2.21094 l 0.66601,-3 H 160 Z m 4.01367,5 -0.89062,4 H 167 v -4 z"/>
  <rect style="opacity:0.001" width="22" height="22" x="154" y="0"/>
 </g>
 <g id="fcitx-googlepinyin" transform="translate(0,-132)">
  <path style="fill:currentColor" class="ColorScheme-Text" d="m 5,47 c -1.108,0 -2,0.892 -2,2 v 12 c 0,1.108 0.892,2 2,2 h 12 c 1.107999,0 2,-0.892 2,-2 V 49 c 0,-1.108 -0.892001,-2 -2,-2 z m 6,2 a 6,6 0 0 1 3.833984,1.384766 l -1.27539,1.542968 A 4,4 0 0 0 11,51 a 4,4 0 0 0 -4,4 4,4 0 0 0 4,4 4,4 0 0 0 3.857422,-3 H 11 v -2 h 5 v 0.0078 h 0.916016 A 6,6 0 0 1 17,55 6,6 0 0 1 11,61 6,6 0 0 1 5,55 6,6 0 0 1 11,49 Z"/>
  <rect style="opacity:0.001" width="22" height="22" x="0" y="44"/>
 </g>
 <g id="fcitx-sunpinyin" transform="translate(22,-87.999992)">
  <path style="fill:currentColor" class="ColorScheme-Text" d="m 11,1.5136719 c -0.255619,0 -0.511163,0.099053 -0.707031,0.2949219 L 8.1015625,4 H 5 C 4.4459998,4 4,4.4459998 4,5 V 8.0996094 L 1.8066406,10.292969 c -0.3917372,0.391737 -0.3917372,1.022325 0,1.414062 L 4,13.900391 V 17 c 0,0.554 0.4459998,1 1,1 h 3.0996094 l 2.1933596,2.193359 c 0.391737,0.391738 1.022325,0.391738 1.414062,0 L 13.900391,18 H 17 c 0.554,0 1,-0.446 1,-1 v -3.101562 l 2.191406,-2.191407 c 0.391737,-0.391737 0.391737,-1.022325 0,-1.414062 L 18,8.1015625 V 5 C 18,4.4459998 17.554,4 17,4 H 13.898438 L 11.707031,1.8085938 C 11.511163,1.612725 11.255619,1.5136719 11,1.5136719 Z m -0.09961,3.1875 1.5,2 L 12.001953,7 h 1.996094 l -0.398438,-0.2988281 1.5,-2 0.800782,0.5996093 L 14.625,7 H 17 v 1 h -2 v 3 h 2 v 1 h -2 v 5 h -1 v -5 h -2.041016 c -0.09614,1.118701 -0.477091,2.02943 -0.925781,2.806641 -0.620717,1.075 -1.6914061,2.058593 -1.6914061,2.058593 L 8.6582031,16.136719 c 0,0 1.0124506,-0.968778 1.5097659,-1.830078 C 10.569285,13.61152 10.872261,12.895032 10.960938,12 H 9 v -0.941406 l -1,0.5 V 17 H 5 V 16 H 7 V 12.058594 L 5.2226562,12.947266 4.7773438,12.052734 7,10.941406 V 8 H 5 V 7 H 7 V 5 H 8 V 7 H 9 V 8 H 8 v 2.441406 L 8.7773438,10.052734 9.2226562,10.947266 9.1171875,11 H 11 V 8 H 10 V 7 h 1.375 L 10.099609,5.3007812 10.900391,4.7011719 Z M 12,8 v 3 h 2 V 8 Z"/>
  <rect style="opacity:0.001" width="22" height="22" x="0" y="0"/>
 </g>
 <g id="fcitx-emoji" transform="translate(0,-132)">
  <rect style="opacity:0.001" width="22" height="22" x="0" y="132"/>
  <path style="fill:currentColor" class="ColorScheme-Text" d="m 5,135 c -1.108,0 -2,0.892 -2,2 v 12 c 0,1.108 0.892,2 2,2 h 12 c 1.107999,0 2,-0.892 2,-2 v -12 c 0,-1.108 -0.892001,-2 -2,-2 z m 2.5,4 A 1.5,1.5 0 0 1 9,140.5 1.5,1.5 0 0 1 7.5,142 1.5,1.5 0 0 1 6,140.5 1.5,1.5 0 0 1 7.5,139 Z m 7,0 A 1.5,1.5 0 0 1 16,140.5 1.5,1.5 0 0 1 14.5,142 1.5,1.5 0 0 1 13,140.5 1.5,1.5 0 0 1 14.5,139 Z M 6,144 h 1 v 2 h 8 v -2 h 1 v 2 1 H 15 7 6 Z"/>
 </g>
 <g id="fcitx-erbi" transform="translate(0,-132)">
  <path style="fill:currentColor" class="ColorScheme-Text" d="m 137,2.999995 c -1.108,0 -2,0.892 -2,2 v 12 c 0,1.108 0.892,2 2,2 h 12 c 1.108,0 2,-0.892 2,-2 v -12 c 0,-1.108 -0.892,-2 -2,-2 z m 8.03125,0.992187 1,0.01563 c -0.0102,0.680148 0.0121,1.337777 0.0371,1.992188 h 2.93164 v 1 h -2.88282 c 0.14883,2.308238 0.48145,4.400619 0.89063,6.033203 0.2903,1.158273 0.61578,2.093664 0.91211,2.708985 0.14816,0.307659 0.29288,0.534515 0.39648,0.65625 0.0462,0.05426 -0.001,0.03006 0.0117,0.03906 0.23837,-0.0636 0.37119,-0.153757 0.47852,-0.429688 0.12164,-0.312741 0.17609,-0.811555 0.18359,-1.375 l 1,0.01172 c -0.008,0.606847 -0.047,1.197587 -0.25195,1.72461 -0.20499,0.527023 -0.66007,0.999054 -1.30274,1.111328 a 0.50005,0.50005 0 0 1 -0.0801,0.0059 c -0.37198,0.0048 -0.60755,-0.212401 -0.80078,-0.439453 -0.19323,-0.227052 -0.36374,-0.515167 -0.53515,-0.871094 -0.34282,-0.711854 -0.67852,-1.695627 -0.98047,-2.90039 C 145.60959,11.562043 145.26542,9.393081 145.11518,7 h -8.11523 V 6 h 8.07031 c -0.0246,-0.660019 -0.0493,-1.321596 -0.0391,-2.007813 z M 148,3.999982 c 0.41683,0.378939 0.75817,0.776526 1.02343,1.193359 L 148.05664,5.7617 c -0.22737,-0.416833 -0.53122,-0.833166 -0.91016,-1.25 z m -10,4 h 6 v 1 h -6 z m 0,2 h 6 v 1 h -6 z m 0,2 h 1 5 v 3 h -1 v -2 h -4 v 2 h -1 v -2 z m 2.00976,2 h 1.08203 c -0.0833,1.204012 -0.38375,2.115307 -0.92969,2.693359 -0.64419,0.719985 -1.79946,1.155065 -3.46679,1.306641 l -0.45508,-0.966797 c 1.51576,-0.151576 2.5191,-0.492922 3.01172,-1.023437 0.42977,-0.429773 0.6762,-1.10749 0.75781,-2.009766 z m 1.69336,0.998047 c 0.94735,0.454727 1.81946,0.985494 2.61523,1.591797 l -0.79687,0.910156 c -0.75788,-0.644197 -1.59055,-1.19371 -2.5,-1.648438 z"/>
  <rect style="opacity:0.001" width="22" height="22" x="132" y="0"/>
 </g>
 <g id="fcitx-ziranma" transform="translate(0,-132)">
  <path style="fill:currentColor" class="ColorScheme-Text" d="m 203,3 c -1.108,0 -2,0.892 -2,2 v 12 c 0,1.108 0.892,2 2,2 h 12 c 1.108,0 2,-0.892 2,-2 V 5 c 0,-1.108 -0.892,-2 -2,-2 z m 4.6797,1.6152 0.6406,0.7696 L 206.3828,7 H 214 V 17 H 204 V 7 h 0.8184 z M 205,8 v 2 h 6 v 1 h -6 v 2 h 6 v 1 h -6 v 2 h 8 V 8 Z"/>
  <rect style="opacity:0.001" width="22" height="22" x="198" y="0"/>
 </g>
 <g id="fcitx-quanpin" transform="translate(0,-132)">
  <path style="fill:currentColor" class="ColorScheme-Text" d="m 27,3 c -1.108,0 -2,0.892 -2,2 v 12 c 0,1.108 0.892,2 2,2 h 12 c 1.107999,0 2,-0.892 2,-2 V 5 C 41,3.892 40.107999,3 39,3 Z m 5.509766,1.9023438 0.980468,0.1953124 c -0.01013,0.050704 -0.03402,0.096718 -0.04687,0.1464844 1.876405,2.2890488 5.732422,3.7871094 5.732422,3.7871094 l -0.351562,0.9375 c 0,0 -0.808431,-0.3217555 -1.824219,-0.8378906 V 10 h -3.5 v 2 H 36 v 1 h -2.5 v 3 H 38 v 1 H 28 v -1 h 4.5 V 13 H 30 v -1 h 2.5 V 10 H 29 V 9.1757812 C 27.971304,9.6774967 27.169922,9.9707031 27.169922,9.9707031 L 26.830078,9.0292969 c 0,0 1.341234,-0.4888122 2.736328,-1.2773438 1.395095,-0.7885316 2.757475,-1.9201838 2.94336,-2.8496093 z M 33,6.2324219 c -0.667588,0.99691 -1.846139,1.771561 -2.941406,2.390625 C 29.810788,8.7631109 29.575427,8.8790495 29.337891,9 h 7.396484 C 35.543014,8.3695184 34.116196,7.4472455 33,6.2324219 Z"/>
  <rect style="opacity:0.001" width="22" height="22" x="22" y="0"/>
 </g>
 <g id="fcitx-cangjie" transform="translate(0,-132)">
  <path style="fill:currentColor" class="ColorScheme-Text" d="m 225,3 c -1.108,0 -2,0.892 -2,2 v 12 c 0,1.108 0.892,2 2,2 h 12 c 1.108,0 2,-0.892 2,-2 V 5 c 0,-1.108 -0.892,-2 -2,-2 z m 5.584,1.7227 h 0.832 c 1.844,2.7653 5.647,3.2812 5.647,3.2812 l -0.125,0.9922 c 0,0 -0.834,-0.1238 -1.938,-0.5352 V 13 h -7.0547 c -0.0423,0.339 -0.1137,0.673 -0.2207,1 H 235 v 3 h -8 v -1.377 l -0.0664,0.125 c -0.5203,0.911 -1.043,1.565 -1.043,1.565 l -0.7812,-0.625 c -1e-4,0 0.4774,-0.597 0.957,-1.436 C 226.5461,14.413 227,13.333 227,12.5 V 8.4609 c -1.1036,0.4114 -1.9375,0.5352 -1.9375,0.5352 l -0.125,-0.9922 c 0,0 3.8029,-0.5159 5.6465,-3.2812 z M 231,5.7031 C 230.1412,6.7727 229.0665,7.5017 228.0664,8 h 2.5313 l -0.875,-0.584 0.5546,-0.832 1.5,1 L 231.5,8 h 2.434 C 232.9335,7.5017 231.8588,6.7727 231,5.7031 Z M 228,9 v 1 h 5 v 1 h -5 v 1 h 6 V 9 Z m 0,6 v 1 h 6 v -1 z"/>
  <rect style="opacity:0.001" width="22" height="22" x="220" y="0"/>
 </g>
 <g id="fcitx-bopomofo" transform="translate(0,-132)">
  <rect style="opacity:0.001" width="22" height="22" x="66" y="0"/>
  <path style="fill:currentColor" class="ColorScheme-Text" d="m 71,3 c -1.108,0 -2,0.892 -2,2 v 12 c 0,1.108 0.892,2 2,2 h 12 c 1.107999,0 2,-0.892 2,-2 V 5 C 85,3.892 84.107999,3 83,3 Z m 6.300781,1.5996094 2,1.5 -0.601562,0.8007812 -2,-1.5 z m -5.947265,0.046875 2,2 -0.707032,0.7070312 -2,-2 z M 74,7 h 9 v 1 h -4 v 3 h 3 v 1 h -3 v 4 h 4 v 1 h -9 v -1 h 4 v -4 h -3 v -1 h 3 V 8 h -4 z m -2.646484,0.6464844 2,2 -0.707032,0.7070316 -2,-2.0000004 z m 1.171875,3.1953126 0.949218,0.316406 -2,6 -0.949218,-0.316406 z"/>
 </g>
 <g id="fcitx-chewing" transform="translate(0,-132)">
  <path style="fill:currentColor" class="ColorScheme-Text" d="m 93,3.0000148 c -1.108,0 -2,0.892 -2,2 V 17.000015 c 0,1.108 0.892,2 2,2 h 12 c 1.108,0 2,-0.892 2,-2 V 5.0000148 c 0,-1.108 -0.892,-2 -2,-2 z m 0,2 h 6 v 1 h -2 v 3 h 1.5 0.5 l -0.4004,-0.3008 c 0,0 1.4004,-1.9492 1.4004,-3.6992 h 1 c 0,0.7087 -0.1654,1.3887 -0.3828,2 H 102 v -2 h 1 v 2 h 2 v 1 h -2 v 2.0000002 h 2 v 1 h -5 v -1 h 2 V 8.0000148 h -1.8027 c -0.3987,0.7896 -0.7969,1.3008 -0.7969,1.3008 L 99,9.0000148 V 17.000015 H 93 V 9.0000148 h 1 v -3 h -1 z m 2,1 v 3 h 1 v -3 z m 0,4.0000002 v 3 h -1 v 1 h 3 v 1 h -3 v 1 h 4 v -6 h -1 v 3 h -1 v -3 z m 5,2 h 5 v 5 h -5 z m 1,1 v 3 h 3 v -3 z"/>
  <rect style="opacity:0.001" width="22" height="22" x="88" y="0"/>
 </g>
 <g id="fcitx-rime" transform="translate(0,-132)">
  <path style="fill:currentColor" class="ColorScheme-Text" d="m 115,3.000015 c -1.108,0 -2,0.892 -2,2 v 12 c 0,1.108 0.892,2 2,2 h 12 c 1.108,0 2,-0.892 2,-2 v -12 c 0,-1.108 -0.892,-2 -2,-2 z m 5,2 h 1 v 6.9824 c 1.811,-0.0816 2.721,-0.6066 3.262,-1.4922 0.59,-0.9652002 0.738,-2.511 0.738,-4.4902 h 1 c 0,2.0207998 -0.102,3.7250003 -0.887,5.0098 -0.726,1.1889 -2.063,1.8739 -4.113,1.9707 v 3.0195 h 5 v 1 h -11 v -1 h 5 v -3.0195 c -2.0504,-0.0968 -3.3867,-0.7818 -4.1133,-1.9707 C 115.1016,9.7250153 115,8.0208148 115,6.000015 h 1 c 0,1.9792 0.1484,3.5249998 0.7383,4.4902 0.5412,0.8856 1.4507,1.4106 3.2617,1.4922 z"/>
  <rect style="opacity:0.001" width="22" height="22" x="110" y="0"/>
 </g>
 <g id="fcitx-libkkc" transform="translate(0,-132)">
  <rect style="opacity:0.001" width="22" height="22" x="22" y="66"/>
  <path style="fill:currentColor" class="ColorScheme-Text" d="m 27,69 c -1.107999,0 -2,0.892 -2,2 v 12 c 0,1.108001 0.892001,2 2,2 h 12 c 1.107998,0 2,-0.891999 2,-2 V 71 c 0,-1.108 -0.892002,-2 -2,-2 z m 0,4 h 1 v 4.292969 L 30.292969,75 H 31 v -2 h 1 v 4.292969 L 34.292969,75 h 1.414062 l -3,3 3,3 H 34.292969 L 32,78.707031 V 81 H 31.707031 31 30.292969 L 28,78.707031 V 81 h -1 z m 10,2 c 0.583333,0 1.110664,0.153634 1.478516,0.521484 C 38.846367,75.889344 39,76.41667 39,77 H 38 C 38,76.58333 37.903633,76.360656 37.771484,76.228516 37.639336,76.0964 37.416667,76 37,76 36.583333,76 36.360664,76.096366 36.228516,76.228516 36.09637,76.360656 36,76.58333 36,77 v 2 c 0,0.41667 0.09637,0.639344 0.228516,0.771484 C 36.360664,79.9036 36.583333,80 37,80 37.416667,80 37.639336,79.90363 37.771484,79.771484 37.90363,79.639344 38,79.41667 38,79 h 1 c 0,0.58333 -0.153633,1.110656 -0.521484,1.478516 C 38.110664,80.846366 37.583333,81 37,81 36.416667,81 35.889336,80.846366 35.521484,80.478516 35.153633,80.110656 35,79.58333 35,79 v -2 c 0,-0.58333 0.153633,-1.110656 0.521484,-1.478516 C 35.889336,75.153634 36.416667,75 37,75 Z M 31,75.707031 28.707031,78 31,80.292969 Z"/>
 </g>
 <g id="fcitx-libskk" transform="translate(0,-132)">
  <rect style="opacity:0.001" width="22" height="22" x="44" y="66"/>
  <path style="fill:currentColor" class="ColorScheme-Text" d="m 49,69 c -1.108,0 -2,0.892 -2,2 v 12 c 0,1.108 0.892,2 2,2 h 12 c 1.107999,0 2,-0.892 2,-2 V 71 c 0,-1.108 -0.892001,-2 -2,-2 z m 4,4 h 1 v 4.292969 L 56.292969,75 H 57 v -2 h 1 v 4.292969 L 60.292969,75 h 1.414062 l -3,3 3,3 H 60.292969 L 58,78.707031 V 81 H 57.707031 57 56.292969 L 54,78.707031 V 81 h -1 v -2 c 0,0.58333 -0.153633,1.110666 -0.521484,1.478516 C 52.110665,80.846366 51.583333,81 51,81 50.416667,81 49.889335,80.846366 49.521484,80.478516 49.153633,80.110666 49,79.58333 49,79 h 1 c 0,0.41666 0.09637,0.639334 0.228516,0.771484 C 50.360665,79.9036 50.583333,80 51,80 51.416667,80 51.639335,79.90363 51.771484,79.771484 51.90363,79.639334 52,79.41666 52,79 52,78.58333 51.903633,78.360666 51.771484,78.228516 51.639335,78.09641 51.416667,78 51,78 50.416667,78 49.889335,77.846366 49.521484,77.478516 49.153633,77.110666 49,76.58333 49,76 49,75.41666 49.153633,74.889334 49.521484,74.521484 49.889335,74.153634 50.416667,74 51,74 c 0.583333,0 1.110665,0.153634 1.478516,0.521484 C 52.846367,74.889334 53,75.41666 53,76 Z m 0,3 H 52 C 52,75.58333 51.903633,75.360666 51.771484,75.228516 51.639335,75.09641 51.416667,75 51,75 50.583333,75 50.360665,75.096366 50.228516,75.228516 50.09637,75.360666 50,75.58333 50,76 c 0,0.41666 0.09637,0.639334 0.228516,0.771484 C 50.360665,76.9036 50.583333,77 51,77 c 0.583333,0 1.110665,0.153634 1.478516,0.521484 C 52.846367,77.889334 53,78.41666 53,79 Z M 57,75.707031 54.707031,78 57,80.292969 Z"/>
 </g>
 <g id="fcitx-fullwidth-active" transform="translate(132,-213.99997)">
  <rect style="opacity:0.001" width="22" height="22" x="0" y="170"/>
  <circle style="fill:currentColor" class="ColorScheme-Text" cx="11" cy="181" r="8"/>
 </g>
 <g id="fcitx-fullwidth-inactive" transform="translate(154,-213.99997)">
  <rect style="opacity:0.001" width="22" height="22" x="0" y="170"/>
  <path style="fill:currentColor" class="ColorScheme-Text" transform="translate(-154,81.999973)" d="M 167.56641,91.431641 A 8,7.9999995 0 0 1 168,94 a 8,7.9999995 0 0 1 -8,8 8,7.9999995 0 0 1 -2.56641,-0.43164 A 8,7.9999995 0 0 0 165,107 a 8,7.9999995 0 0 0 8,-8 8,7.9999995 0 0 0 -5.43359,-7.568359 z"/>
 </g>
 <g id="fcitx-punc-active" transform="translate(0,-132)">
  <path style="fill:currentColor" class="ColorScheme-Text" d="m 137,113 c -1.108,0 -2,0.892 -2,2 v 12 c 0,1.108 0.892,2 2,2 h 12 c 1.108,0 2,-0.892 2,-2 v -12 c 0,-1.108 -0.892,-2 -2,-2 z m 2.5,5 c 1.37479,0 2.5,1.12521 2.5,2.5 0,1.37479 -1.12521,2.5 -2.5,2.5 -1.37479,0 -2.5,-1.12521 -2.5,-2.5 0,-1.37479 1.12521,-2.5 2.5,-2.5 z m 7,0 c 1.37479,0 2.5,1.12521 2.5,2.5 0,2.39815 -1.11188,3.83998 -2.2168,4.59961 -1.10491,0.75963 -2.2207,0.89648 -2.2207,0.89648 l -0.125,-0.99218 c 0,0 0.88421,-0.11315 1.7793,-0.72852 0.48676,-0.33465 0.96571,-0.80875 1.30664,-1.50195 C 147.20988,122.9158 146.86519,123 146.5,123 c -1.37479,0 -2.5,-1.12521 -2.5,-2.5 0,-1.37479 1.12521,-2.5 2.5,-2.5 z"/>
  <rect style="opacity:0.001" width="22" height="22" x="132" y="110"/>
 </g>
 <g id="fcitx-remind-active" transform="translate(0,-132)">
  <path style="fill:currentColor" class="ColorScheme-Text" d="m 209,91 c -3.30779,0 -6,2.692214 -6,6 -4.2e-4,0.0189 1.8e-4,0.03781 0.002,0.05664 0.0144,2.321467 0.86034,3.50927 1.61914,4.39453 C 205.38631,102.34404 206,102.89286 206,104.5 v 0.5 h 6 v -0.5 c 0,-1.60714 0.63385,-2.30403 1.39062,-3.25 0.74896,-0.93616 1.58808,-2.103867 1.60547,-4.1875 C 214.99909,97.04177 215,97.02089 215,97 c 0,-3.307786 -2.69221,-6 -6,-6 z m 0,2 c 2.21388,0 4,1.786123 4,4 0,1.500002 -0.51871,2.157161 -1.11328,2.900391 -0.5299,0.662369 -1.06925,1.874329 -1.19531,3.099609 h -3.38672 c -0.13139,-1.20312 -0.67906,-2.3518 -1.20117,-2.96094 C 205.51577,99.353356 205,98.71111 205,97 c 0,-2.213877 1.78612,-4 4,-4 z m -1.85352,4 -1.5,1.359375 L 206.35352,99 207.5,97.960938 208.64648,99 h 0.70704 L 210.5,97.960938 211.64648,99 212.35352,98.359375 210.85352,97 h -0.70704 L 209,98.039062 207.85352,97 Z M 206,106 v 1 l 1,1 h 1 2 1 l 1,-1 v -1 z"/>
  <rect style="opacity:0.001" width="22" height="22" x="198" y="88"/>
 </g>
 <g id="fcitx-handwriting-active" transform="translate(0,-132)">
  <rect style="opacity:0.001" width="22" height="22" x="198" y="110"/>
  <path style="fill:currentColor" class="ColorScheme-Text" d="m 215.61133,114 c -0.18125,0 -0.36196,0.0709 -0.50195,0.21094 l -1.39844,1.40039 2.66992,2.67969 1.4082,-1.4004 c 0.28,-0.28 0.28,-0.72976 0,-1.00976 l -1.66992,-1.66992 C 215.97414,114.07094 215.79258,114 215.61133,114 Z m -2.86133,2.57031 -6.75,6.75 V 126 h 2.66992 l 6.75,-6.75 z m -10.67383,0.37298 c -0.19319,0.004 -0.40564,0.0236 -0.64453,0.0566 -0.66156,0.0911 -0.52484,1.08327 0.13672,0.99219 0.41874,-0.0578 0.71008,-0.056 0.87109,-0.0293 0.10527,0.0175 0.14015,0.0364 0.15039,0.043 10e-4,0.0124 0.002,0.0394 -0.004,0.0898 -0.0114,0.10109 -0.0582,0.26431 -0.125,0.45118 -0.13364,0.37372 -0.35129,1.52371 -0.41016,2.02652 -0.0294,0.25141 -0.0149,0.53952 0.13281,0.80664 0.14773,0.26712 0.41956,0.46728 0.73829,0.57422 0.15253,0.0511 0.21329,0.0406 0.30859,0.0449 0.0953,0.004 0.20074,0.006 0.31641,0.006 0.23131,7e-5 0.60346,-0.003 0.85772,0.004 0.032,8.8e-4 0.0467,0.006 0.0781,0.008 -0.0907,0.0554 -0.14558,0.0982 -0.25194,0.1582 -1.31068,0.66167 -2.91243,0.85667 -2.90461,2.39152 0.0823,0.37312 0.37009,0.63181 0.73047,0.82617 0.36039,0.19436 0.83345,0.35157 1.48047,0.49804 0.44993,0.10187 0.94859,0.14708 1.46289,0.16993 v -1.00977 c -0.47115,-0.0211 -0.90101,-0.0575 -1.24219,-0.13476 -0.59572,-0.13486 -0.99935,-0.27981 -1.22656,-0.40235 -0.1521,-0.082 -0.20177,-0.13764 -0.21875,-0.1582 0.008,-0.0144 0.0234,-0.0425 0.0664,-0.0937 0.61008,-0.61329 1.52957,-0.91972 2.24414,-1.21574 0.28271,-0.15954 0.63831,-0.31223 0.85186,-0.47851 0.21356,-0.16628 0.4659,-0.33013 0.47656,-0.75196 0.006,-0.24594 -0.16427,-0.47042 -0.30468,-0.56445 -0.14044,-0.094 -0.26745,-0.13055 -0.39649,-0.16016 -0.25808,-0.0592 -0.53621,-0.0742 -0.81836,-0.082 -0.28212,-0.008 -0.66248,-0.004 -0.88311,-0.004 -0.11031,-3e-5 -0.20638,-6.6e-4 -0.27149,-0.004 -0.0275,-0.001 -0.0496,-0.005 -0.0645,-0.008 -0.11428,-0.0431 -0.14248,-0.0763 -0.1543,-0.0977 -0.0131,-0.0236 -0.0302,-0.0805 -0.0156,-0.20508 0.0292,-0.24917 0.20549,-1.3755 0.35937,-1.80581 0.0769,-0.21515 0.14852,-0.43604 0.17578,-0.67774 0.0273,-0.2417 0.006,-0.53533 -0.17578,-0.78711 -0.18155,-0.25177 -0.47835,-0.3902 -0.79882,-0.44335 -0.16024,-0.0266 -0.33416,-0.0375 -0.52735,-0.0332 z"/>
 </g>
 <g id="fcitx-shuangpin" transform="translate(0,-132)">
  <rect style="opacity:0.001" width="22" height="22" x="44" y="0"/>
  <path style="fill:currentColor" class="ColorScheme-Text" d="m 49,3.0000163 c -1.108,0 -2,0.892 -2,2 V 17.000015 c 0,1.108 0.892,2 2,2 h 11.999997 c 1.108,0 2,-0.892 2,-2 V 5.0000163 c 0,-1.108 -0.892,-2 -2,-2 z m 0,2 h 5.5488 l -0.0508,0.5508 c 0,0 -0.3276,3.5189 -1.2246,6.1288987 0.583,0.87 1.1389,1.7693 1.8379,3.0093 l -0.8691,0.491 c -0.539,-0.95 -0.9839,-1.689 -1.4219,-2.3695 -1.394,3.1205 -3.3652,4.4825 -3.3652,4.4825 l -0.5567,-0.832 c 0,0 1.9707,-1.31 3.2637,-4.6505 -0.765,-1.11 -1.6347,-2.2299987 -3.0527,-3.9999987 l 0.7812,-0.621 c 1.181,1.47 1.973,2.4911 2.668,3.4510987 0.551,-1.8999987 0.7981,-4.0005987 0.8691,-4.6405987 H 49 Z m 6,0 h 5.999997 v 0.5 c 0,2.15 -0.833,4.9701987 -1.707,6.9101987 -0.111,0.25 -0.242,0.4594 -0.367,0.6898 0.624,1.09 1.46,2.12 2.844,3.232 l -0.627,0.779 c -1.282,-1.034 -2.147,-2.04 -2.803,-3.06 -1.3932,1.984 -3.103697,3.033 -3.103697,3.033 l -0.5175,-0.855 c 0,0 1.780297,-1.099 3.068197,-3.139 -0.338,-0.6502 -0.621,-1.3102 -0.8866,-2.0002 -0.758,-1.9499987 -1.2086,-4.4997987 -1.3106,-5.0897987 H 55 Z m 1.607397,1 c 0.14,0.77 0.5686,3.0305 1.2266,4.7304987 0.173,0.45 0.351,0.8693 0.539,1.2793 0.757,-1.68 1.442,-4.1597987 1.551,-6.0097987 z"/>
 </g>
 <g id="fcitx-pinyin-libpinyin" transform="translate(0,-110)">
  <path style="fill:currentColor" class="ColorScheme-Text" d="m 5,3.0000153 c -1.108,0 -2,0.892 -2,2 V 17.000015 c 0,1.108 0.892,2 2,2 h 12 c 1.107999,0 1.999999,-0.892 1.999999,-2 V 5.0000153 c 0,-1.108 -0.892,-2 -1.999999,-2 z m 5.9004,1.6992 1.5,2 -0.3984,0.3008 h 1.996 l -0.398,-0.3008 1.5,-2 0.8,0.6016 -1.275,1.6992 H 17 v 1 h -2 v 2.9999997 h 2 v 1 h -2 v 5 h -1 v -5 h -2.041 c -0.096,1.12 -0.4768,2.031 -0.9258,2.811 -0.621,1.07 -1.6914,2.054 -1.6914,2.054 l -0.6836,-0.728 c 0,0 1.0125,-0.966 1.5098,-1.826 0.401,-0.7 0.7039,-1.411 0.7929,-2.311 H 9 v -0.9395 l -1.0000001,0.5 v 5.4395 H 5 v -1 h 1.9999999 v -3.9395 l -1.7772999,0.8887 -0.4454,-0.8984 2.2226999,-1.1113 V 8.0000153 H 5 v -1 h 1.9999999 v -2 h 1 v 2 H 9 v 1 H 7.9999999 v 2.4394997 l 0.7773001,-0.3887 0.4454,0.8984 -0.1055,0.0508 H 11 V 8.0000153 h -1 v -1 h 1.375 l -1.2754,-1.6992 z M 12,8.0000153 v 2.9999997 h 2 V 8.0000153 Z"/>
  <rect style="opacity:0.001" width="22" height="22" x="0" y="0"/>
 </g>
 <g id="fcitx-quanpin-libpinyin" transform="translate(0,-110)">
  <path style="fill:currentColor" class="ColorScheme-Text" d="m 27,3 c -1.108,0 -2,0.892 -2,2 v 12 c 0,1.108 0.892,2 2,2 h 12 c 1.107999,0 2,-0.892 2,-2 V 5 C 41,3.892 40.107999,3 39,3 Z m 5.509766,1.9023438 0.980468,0.1953124 c -0.01013,0.050704 -0.03402,0.096718 -0.04687,0.1464844 1.876405,2.2890488 5.732422,3.7871094 5.732422,3.7871094 l -0.351562,0.9375 c 0,0 -0.808431,-0.3217555 -1.824219,-0.8378906 V 10 h -3.5 v 2 H 36 v 1 h -2.5 v 3 H 38 v 1 H 28 v -1 h 4.5 V 13 H 30 v -1 h 2.5 V 10 H 29 V 9.1757812 C 27.971304,9.6774967 27.169922,9.9707031 27.169922,9.9707031 L 26.830078,9.0292969 c 0,0 1.341234,-0.4888122 2.736328,-1.2773438 1.395095,-0.7885316 2.757475,-1.9201838 2.94336,-2.8496093 z M 33,6.2324219 c -0.667588,0.99691 -1.846139,1.771561 -2.941406,2.390625 C 29.810788,8.7631109 29.575427,8.8790495 29.337891,9 h 7.396484 C 35.543014,8.3695184 34.116196,7.4472455 33,6.2324219 Z"/>
  <rect style="opacity:0.001" width="22" height="22" x="22" y="0"/>
 </g>
 <g id="fcitx-bopomofo-libpinyin" transform="translate(0,-110)">
  <rect style="opacity:0.001" width="22" height="22" x="66" y="0"/>
  <path style="fill:currentColor" class="ColorScheme-Text" d="m 71,3 c -1.108,0 -2,0.892 -2,2 v 12 c 0,1.108 0.892,2 2,2 h 12 c 1.107999,0 2,-0.892 2,-2 V 5 C 85,3.892 84.107999,3 83,3 Z m 6.300781,1.5996094 2,1.5 -0.601562,0.8007812 -2,-1.5 z m -5.947265,0.046875 2,2 -0.707032,0.7070312 -2,-2 z M 74,7 h 9 v 1 h -4 v 3 h 3 v 1 h -3 v 4 h 4 v 1 h -9 v -1 h 4 v -4 h -3 v -1 h 3 V 8 h -4 z m -2.646484,0.6464844 2,2 -0.707032,0.7070316 -2,-2.0000004 z m 1.171875,3.1953126 0.949218,0.316406 -2,6 -0.949218,-0.316406 z"/>
 </g>
 <g id="fcitx-chewing-libpinyin" transform="translate(0,-110)">
  <path style="fill:currentColor" class="ColorScheme-Text" d="m 93,3.0000148 c -1.108,0 -2,0.892 -2,2 V 17.000015 c 0,1.108 0.892,2 2,2 h 12 c 1.108,0 2,-0.892 2,-2 V 5.0000148 c 0,-1.108 -0.892,-2 -2,-2 z m 0,2 h 6 v 1 h -2 v 3 h 1.5 0.5 l -0.4004,-0.3008 c 0,0 1.4004,-1.9492 1.4004,-3.6992 h 1 c 0,0.7087 -0.1654,1.3887 -0.3828,2 H 102 v -2 h 1 v 2 h 2 v 1 h -2 v 2.0000002 h 2 v 1 h -5 v -1 h 2 V 8.0000148 h -1.8027 c -0.3987,0.7896 -0.7969,1.3008 -0.7969,1.3008 L 99,9.0000148 V 17.000015 H 93 V 9.0000148 h 1 v -3 h -1 z m 2,1 v 3 h 1 v -3 z m 0,4.0000002 v 3 h -1 v 1 h 3 v 1 h -3 v 1 h 4 v -6 h -1 v 3 h -1 v -3 z m 5,2 h 5 v 5 h -5 z m 1,1 v 3 h 3 v -3 z"/>
  <rect style="opacity:0.001" width="22" height="22" x="88" y="0"/>
 </g>
 <g id="fcitx-shuangpin-libpinyin" transform="translate(0,-110)">
  <rect style="opacity:0.001" width="22" height="22" x="44" y="0"/>
  <path style="fill:currentColor" class="ColorScheme-Text" d="m 49,3.0000163 c -1.108,0 -2,0.892 -2,2 V 17.000015 c 0,1.108 0.892,2 2,2 h 11.999997 c 1.108,0 2,-0.892 2,-2 V 5.0000163 c 0,-1.108 -0.892,-2 -2,-2 z m 0,2 h 5.5488 l -0.0508,0.5508 c 0,0 -0.3276,3.5189 -1.2246,6.1288987 0.583,0.87 1.1389,1.7693 1.8379,3.0093 l -0.8691,0.491 c -0.539,-0.95 -0.9839,-1.689 -1.4219,-2.3695 -1.394,3.1205 -3.3652,4.4825 -3.3652,4.4825 l -0.5567,-0.832 c 0,0 1.9707,-1.31 3.2637,-4.6505 -0.765,-1.11 -1.6347,-2.2299987 -3.0527,-3.9999987 l 0.7812,-0.621 c 1.181,1.47 1.973,2.4911 2.668,3.4510987 0.551,-1.8999987 0.7981,-4.0005987 0.8691,-4.6405987 H 49 Z m 6,0 h 5.999997 v 0.5 c 0,2.15 -0.833,4.9701987 -1.707,6.9101987 -0.111,0.25 -0.242,0.4594 -0.367,0.6898 0.624,1.09 1.46,2.12 2.844,3.232 l -0.627,0.779 c -1.282,-1.034 -2.147,-2.04 -2.803,-3.06 -1.3932,1.984 -3.103697,3.033 -3.103697,3.033 l -0.5175,-0.855 c 0,0 1.780297,-1.099 3.068197,-3.139 -0.338,-0.6502 -0.621,-1.3102 -0.8866,-2.0002 -0.758,-1.9499987 -1.2086,-4.4997987 -1.3106,-5.0897987 H 55 Z m 1.607397,1 c 0.14,0.77 0.5686,3.0305 1.2266,4.7304987 0.173,0.45 0.351,0.8693 0.539,1.2793 0.757,-1.68 1.442,-4.1597987 1.551,-6.0097987 z"/>
 </g>
 <g id="fcitx-anthy" transform="translate(0,-132)">
  <rect style="opacity:0.001" width="22" height="22" x="0" y="66"/>
  <path style="fill:currentColor" class="ColorScheme-Text" d="m 5.0000001,69.000008 c -1.108,0 -2,0.892 -2,2 v 12 c 0,1.108 0.892,2 2,2 H 17 c 1.108,0 2,-0.892 2,-2 v -12 c 0,-1.108 -0.892,-2 -2,-2 z m 4.334,2 H 10.6113 c -0.074,0.5556 -0.2035,1.1248 -0.3886,1.9766 2.507,-0.1016 4.3863,-0.2367 5.7773,-0.4004 v 1.2793 c -1.168,0.133 -3.0954,0.0662 -6.0546999,0.1992 -0.2963,1.1851 -0.6865,3.2169 -1.168,4.291 l 0.1114,0.0547 c 1.3702999,-0.9259 2.3357999,-1.3887 3.2987999,-1.3887 1.2225,0 2.1675,0.2961 2.8335,0.8887 0.667,0.5926 0.979,1.3516 0.979,2.2776 0,1.074 -0.404,1.489 -1.256,2.045 -0.815,0.518 -2.0382,0.777 -3.6678,0.777 -1.0222,0 -1.9570999,0.006 -3.0761999,-0.055 v -1.447 c 0.9443,0.191 1.8385,0.225 2.9647999,0.225 1.1852,0 2.0752,-0.149 2.6682,-0.446 0.629,-0.333 0.943,-0.433 0.943,-1.099 0,-0.593 -0.204,-1.056 -0.611,-1.3889 -0.408,-0.3704 -0.9997,-0.5547 -1.7775,-0.5547 -1.5185,0 -2.7427999,0.6467 -4.0761999,1.9436 l -1,-0.778 c 0.5926,-0.9622 1.1103,-3.4253 1.5547,-5.3883 h -2.666 v -1.0312 c 0.9591,-0.005 1.9321,-0.0152 2.9453,-0.0469 z"/>
 </g>
 <g id="fcitx-hangul" transform="translate(0,-132)">
  <rect style="opacity:0.001" width="22" height="22" x="0" y="88"/>
  <path style="fill:currentColor" class="ColorScheme-Text" d="m 5,91.000008 c -1.108,0 -2,0.892 -2,2 v 12.000002 c 0,1.108 0.892,2 2,2 h 12 c 1.108,0 2,-0.892 2,-2 V 93.000008 c 0,-1.108 -0.892,-2 -2,-2 z m 3,2 h 2 v 1 H 8 Z m 6,1 h 1 v 3 h 2 v 1 h -2 v 4.000002 h -1 z m -8,1 h 6 v 1 H 6 Z m 3,2 c 1.5969,0 3,1.0577 3,2.5 0,1.442302 -1.4031,2.500002 -3,2.500002 -1.5969,0 -3,-1.0577 -3,-2.500002 0,-1.4423 1.4031,-2.5 3,-2.5 z m 0,1 c -1.1645,0 -2,0.7332 -2,1.5 0,0.766802 0.8355,1.500002 2,1.500002 1.1645,0 2,-0.7332 2,-1.500002 0,-0.7668 -0.8355,-1.5 -2,-1.5 z m -1,5.000002 h 1 v 1 h 7 v 1 H 8 Z"/>
 </g>
 <g id="fcitx-unikey" transform="translate(0,-132)">
  <rect style="opacity:0.001" width="22" height="22" x="0" y="110"/>
  <path style="fill:currentColor" class="ColorScheme-Text" d="m 4.9999999,113.00001 c -1.108,0 -2,0.892 -2,2 v 12 c 0,1.108 0.892,2 2,2 H 17 c 1.108,0 2,-0.892 2,-2 v -12 c 0,-1.108 -0.892,-2 -2,-2 z m 1,3 h 1 v 1.5 c 0,0.6944 0.1274,1.0772 0.2656,1.25 0.1383,0.1728 0.3177,0.25 0.7344,0.25 0.4167001,0 0.5961,-0.0772 0.7344001,-0.25 0.1382,-0.1728 0.2656,-0.5556 0.2656,-1.25 v -1.5 h 1 v 1.5 c 0,0.8056 -0.1226001,1.4228 -0.4844001,1.875 -0.3617,0.4522 -0.9323,0.625 -1.5156,0.625 -0.5833,0 -1.1539,-0.1728 -1.5156,-0.625 -0.3618,-0.4522 -0.4844,-1.0694 -0.4844,-1.875 z m 8.0000001,0 h 1 v 4 h -1 z m -5,7 h 1 l 2,2.5 v -2.5 h 1 v 4 h -1 l -2,-2.5 v 2.5 H 9 Z"/>
 </g>
 <g id="fcitx-chttrans-active" transform="translate(-22,-132)">
  <rect style="opacity:0.001" width="22" height="22" x="154" y="132"/>
  <path style="fill:currentColor" class="ColorScheme-Text" d="m 159,135.00003 c -1.108,0 -2,0.892 -2,2 v 12 c 0,1.108 0.892,2 2,2 h 12 c 1.108,0 2,-0.892 2,-2 v -12 c 0,-1.108 -0.892,-2 -2,-2 z m 4,3 h 1 v 3 h 3 1 v -1 h 1 v 1 h 1 v 1 h -1 v 2 c 0.0474,0.72101 0,1 1,1 v 1 c -0.20833,0 -0.40483,-0.0175 -0.61523,0 -0.21041,0.0177 -0.45836,-0.0153 -0.73243,-0.15234 -0.27407,-0.13704 -0.45781,-0.32874 -0.54101,-0.64063 C 168.0282,144.89517 168,144.52086 168,144.00003 v -2 h -1 v 4 h -1 v -4 h -2 v 4 h -1 v -2 c 0,0.58333 -0.15363,1.11066 -0.52148,1.47852 -0.36786,0.36785 -0.89519,0.52148 -1.47852,0.52148 -0.58333,0 -1.11066,-0.15363 -1.47852,-0.52148 C 159.15363,145.11069 159,144.58336 159,144.00003 v -2 c 0,-0.58333 0.15363,-1.11066 0.52148,-1.47852 0.36786,-0.36785 0.89519,-0.52148 1.47852,-0.52148 0.58333,0 1.11066,0.15363 1.47852,0.52148 0.36785,0.36786 0.52148,0.89519 0.52148,1.47852 v -1 z m 0,4 h -1 c 0,-0.41667 -0.0964,-0.63934 -0.22852,-0.77148 -0.13214,-0.13212 -0.35481,-0.22852 -0.77148,-0.22852 -0.41667,0 -0.63934,0.0964 -0.77148,0.22852 C 160.0964,141.36069 160,141.58336 160,142.00003 v 2 c 0,0.41667 0.0964,0.63934 0.22852,0.77148 0.13214,0.13212 0.35481,0.22852 0.77148,0.22852 0.41667,0 0.63934,-0.0964 0.77148,-0.22852 C 161.9036,144.63937 162,144.4167 162,144.00003 h 1 z"/>
 </g>
 <g id="fcitx-chttrans-inactive" transform="translate(0,-132)">
  <rect style="opacity:0.001" width="22" height="22" x="154" y="132"/>
  <path style="opacity:0.35;fill:currentColor" class="ColorScheme-Text" d="m 159,135.00003 c -1.108,0 -2,0.892 -2,2 v 12 c 0,1.108 0.892,2 2,2 h 12 c 1.108,0 2,-0.892 2,-2 v -12 c 0,-1.108 -0.892,-2 -2,-2 z m 4,3 h 1 v 3 h 3 1 v -1 h 1 v 1 h 1 v 1 h -1 v 2 c 0.0474,0.72101 0,1 1,1 v 1 c -0.20833,0 -0.40483,-0.0175 -0.61523,0 -0.21041,0.0177 -0.45836,-0.0153 -0.73243,-0.15234 -0.27407,-0.13704 -0.45781,-0.32874 -0.54101,-0.64063 C 168.0282,144.89517 168,144.52086 168,144.00003 v -2 h -1 v 4 h -1 v -4 h -2 v 4 h -1 v -2 c 0,0.58333 -0.15363,1.11066 -0.52148,1.47852 -0.36786,0.36785 -0.89519,0.52148 -1.47852,0.52148 -0.58333,0 -1.11066,-0.15363 -1.47852,-0.52148 C 159.15363,145.11069 159,144.58336 159,144.00003 v -2 c 0,-0.58333 0.15363,-1.11066 0.52148,-1.47852 0.36786,-0.36785 0.89519,-0.52148 1.47852,-0.52148 0.58333,0 1.11066,0.15363 1.47852,0.52148 0.36785,0.36786 0.52148,0.89519 0.52148,1.47852 v -1 z m 0,4 h -1 c 0,-0.41667 -0.0964,-0.63934 -0.22852,-0.77148 -0.13214,-0.13212 -0.35481,-0.22852 -0.77148,-0.22852 -0.41667,0 -0.63934,0.0964 -0.77148,0.22852 C 160.0964,141.36069 160,141.58336 160,142.00003 v 2 c 0,0.41667 0.0964,0.63934 0.22852,0.77148 0.13214,0.13212 0.35481,0.22852 0.77148,0.22852 0.41667,0 0.63934,-0.0964 0.77148,-0.22852 C 161.9036,144.63937 162,144.4167 162,144.00003 h 1 z"/>
 </g>
 <g transform="translate(22,-132)">
  <rect style="opacity:0.001" width="22" height="22" x="198" y="110"/>
  <path style="opacity:0.35;fill:currentColor" class="ColorScheme-Text" d="m 215.61133,114 c -0.18125,0 -0.36196,0.0709 -0.50195,0.21094 l -1.39844,1.40039 2.66992,2.67969 1.4082,-1.4004 c 0.28,-0.28 0.28,-0.72976 0,-1.00976 l -1.66992,-1.66992 C 215.97414,114.07094 215.79258,114 215.61133,114 Z m -2.86133,2.57031 -6.75,6.75 V 126 h 2.66992 l 6.75,-6.75 z m -10.67383,0.37298 c -0.19319,0.004 -0.40564,0.0236 -0.64453,0.0566 -0.66156,0.0911 -0.52484,1.08327 0.13672,0.99219 0.41874,-0.0578 0.71008,-0.056 0.87109,-0.0293 0.10527,0.0175 0.14015,0.0364 0.15039,0.043 10e-4,0.0124 0.002,0.0394 -0.004,0.0898 -0.0114,0.10109 -0.0582,0.26431 -0.125,0.45118 -0.13364,0.37372 -0.35129,1.52371 -0.41016,2.02652 -0.0294,0.25141 -0.0149,0.53952 0.13281,0.80664 0.14773,0.26712 0.41956,0.46728 0.73829,0.57422 0.15253,0.0511 0.21329,0.0406 0.30859,0.0449 0.0953,0.004 0.20074,0.006 0.31641,0.006 0.23131,7e-5 0.60346,-0.003 0.85772,0.004 0.032,8.8e-4 0.0467,0.006 0.0781,0.008 -0.0907,0.0554 -0.14558,0.0982 -0.25194,0.1582 -1.31068,0.66167 -2.91243,0.85667 -2.90461,2.39152 0.0823,0.37312 0.37009,0.63181 0.73047,0.82617 0.36039,0.19436 0.83345,0.35157 1.48047,0.49804 0.44993,0.10187 0.94859,0.14708 1.46289,0.16993 v -1.00977 c -0.47115,-0.0211 -0.90101,-0.0575 -1.24219,-0.13476 -0.59572,-0.13486 -0.99935,-0.27981 -1.22656,-0.40235 -0.1521,-0.082 -0.20177,-0.13764 -0.21875,-0.1582 0.008,-0.0144 0.0234,-0.0425 0.0664,-0.0937 0.61008,-0.61329 1.52957,-0.91972 2.24414,-1.21574 0.28271,-0.15954 0.63831,-0.31223 0.85186,-0.47851 0.21356,-0.16628 0.4659,-0.33013 0.47656,-0.75196 0.006,-0.24594 -0.16427,-0.47042 -0.30468,-0.56445 -0.14044,-0.094 -0.26745,-0.13055 -0.39649,-0.16016 -0.25808,-0.0592 -0.53621,-0.0742 -0.81836,-0.082 -0.28212,-0.008 -0.66248,-0.004 -0.88311,-0.004 -0.11031,-3e-5 -0.20638,-6.6e-4 -0.27149,-0.004 -0.0275,-0.001 -0.0496,-0.005 -0.0645,-0.008 -0.11428,-0.0431 -0.14248,-0.0763 -0.1543,-0.0977 -0.0131,-0.0236 -0.0302,-0.0805 -0.0156,-0.20508 0.0292,-0.24917 0.20549,-1.3755 0.35937,-1.80581 0.0769,-0.21515 0.14852,-0.43604 0.17578,-0.67774 0.0273,-0.2417 0.006,-0.53533 -0.17578,-0.78711 -0.18155,-0.25177 -0.47835,-0.3902 -0.79882,-0.44335 -0.16024,-0.0266 -0.33416,-0.0375 -0.52735,-0.0332 z"/>
 </g>
 <g id="fcitx-remind-inactive" transform="translate(22,-132)">
  <path style="opacity:0.35;fill:currentColor" class="ColorScheme-Text" d="m 209,91 c -3.30779,0 -6,2.692214 -6,6 -4.2e-4,0.0189 1.8e-4,0.03781 0.002,0.05664 0.0144,2.321467 0.86034,3.50927 1.61914,4.39453 C 205.38631,102.34404 206,102.89286 206,104.5 v 0.5 h 6 v -0.5 c 0,-1.60714 0.63385,-2.30403 1.39062,-3.25 0.74896,-0.93616 1.58808,-2.103867 1.60547,-4.1875 C 214.99909,97.04177 215,97.02089 215,97 c 0,-3.307786 -2.69221,-6 -6,-6 z m 0,2 c 2.21388,0 4,1.786123 4,4 0,1.500002 -0.51871,2.157161 -1.11328,2.900391 -0.5299,0.662369 -1.06925,1.874329 -1.19531,3.099609 h -3.38672 c -0.13139,-1.20312 -0.67906,-2.3518 -1.20117,-2.96094 C 205.51577,99.353356 205,98.71111 205,97 c 0,-2.213877 1.78612,-4 4,-4 z m -1.85352,4 -1.5,1.359375 L 206.35352,99 207.5,97.960938 208.64648,99 h 0.70704 L 210.5,97.960938 211.64648,99 212.35352,98.359375 210.85352,97 h -0.70704 L 209,98.039062 207.85352,97 Z M 206,106 v 1 l 1,1 h 1 2 1 l 1,-1 v -1 z"/>
  <rect style="opacity:0.001" width="22" height="22" x="198" y="88"/>
 </g>
 <g id="fcitx-kbd" transform="translate(0,-132)">
  <rect style="opacity:0.001" width="22" height="22" x="154" y="66"/>
  <path style="fill:currentColor" class="ColorScheme-Text" d="m 165,67.544922 c -0.008,0.0044 -0.017,0.0092 -0.0254,0.01367 -0.41391,0.221516 -0.62662,0.567235 -0.89258,0.888672 -0.26596,0.321436 -0.59473,0.603192 -0.5625,0.589843 -0.16343,0.0677 -0.38785,0.06606 -0.69141,-0.01563 -0.30353,-0.08167 -0.66215,-0.238283 -1.0332,-0.394531 -0.37104,-0.156247 -0.75339,-0.316224 -1.16992,-0.371094 -0.41653,-0.05487 -0.91575,0.03685 -1.26953,0.390625 -0.28035,0.280352 -0.31552,0.601838 -0.3418,0.917969 -0.0263,0.316132 -0.01,0.649351 0.0215,0.962891 0.0166,0.166526 0.0386,0.325385 0.0605,0.472656 H 159 c -1.108,0 -2,0.892 -2,2 v 8 c 0,1.108 0.892,2 2,2 h 11 c 1.108,0 2,-0.892 2,-2 v -8 c 0,-1.108 -0.892,-2 -2,-2 h -9.89258 c -0.0277,-0.171256 -0.0553,-0.363337 -0.0762,-0.572266 -0.0277,-0.277534 -0.0394,-0.565687 -0.0215,-0.78125 0.0157,-0.188616 0.0805,-0.306337 0.0664,-0.302734 0.11174,-0.107504 0.19611,-0.12493 0.41797,-0.0957 0.22939,0.03022 0.55694,0.150397 0.91406,0.300781 0.35713,0.150384 0.74553,0.327896 1.16016,0.439453 0.41462,0.111558 0.87955,0.162035 1.33203,-0.02539 0.46775,-0.193748 0.68185,-0.551052 0.95313,-0.878907 0.0479,-0.05787 0.0976,-0.112617 0.14648,-0.167968 z M 159.25,73 h 1.5 c 0.1385,0 0.25,0.1115 0.25,0.25 v 1.5 c 0,0.1385 -0.1115,0.25 -0.25,0.25 h -1.5 C 159.1115,75 159,74.8885 159,74.75 v -1.5 c 0,-0.1385 0.1115,-0.25 0.25,-0.25 z m 3,0 h 1.5 c 0.1385,0 0.25,0.1115 0.25,0.25 v 1.5 c 0,0.1385 -0.1115,0.25 -0.25,0.25 h -1.5 C 162.1115,75 162,74.8885 162,74.75 v -1.5 c 0,-0.1385 0.1115,-0.25 0.25,-0.25 z m 3,0 h 1.5 c 0.139,0 0.25,0.1115 0.25,0.25 v 1.5 c 0,0.1385 -0.111,0.25 -0.25,0.25 h -1.5 C 165.111,75 165,74.8885 165,74.75 v -1.5 c 0,-0.1385 0.111,-0.25 0.25,-0.25 z m 3,0 h 1.5 c 0.139,0 0.25,0.1115 0.25,0.25 v 1.5 c 0,0.1385 -0.111,0.25 -0.25,0.25 h -1.5 C 168.111,75 168,74.8885 168,74.75 v -1.5 c 0,-0.1385 0.111,-0.25 0.25,-0.25 z m -9,3 h 1.5 c 0.1385,0 0.25,0.111 0.25,0.25 v 1.5 c 0,0.139 -0.1115,0.25 -0.25,0.25 h -1.5 C 159.1115,78 159,77.889 159,77.75 v -1.5 c 0,-0.139 0.1115,-0.25 0.25,-0.25 z m 3,0 h 1.5 c 0.1385,0 0.25,0.111 0.25,0.25 v 1.5 c 0,0.139 -0.1115,0.25 -0.25,0.25 h -1.5 C 162.1115,78 162,77.889 162,77.75 v -1.5 c 0,-0.139 0.1115,-0.25 0.25,-0.25 z m 3,0 h 1.5 c 0.139,0 0.25,0.111 0.25,0.25 v 1.5 c 0,0.139 -0.111,0.25 -0.25,0.25 h -1.5 C 165.111,78 165,77.889 165,77.75 v -1.5 c 0,-0.139 0.111,-0.25 0.25,-0.25 z m 3,0 h 1.5 c 0.139,0 0.25,0.111 0.25,0.25 v 1.5 c 0,0.139 -0.111,0.25 -0.25,0.25 h -1.5 C 168.111,78 168,77.889 168,77.75 v -1.5 c 0,-0.139 0.111,-0.25 0.25,-0.25 z m -7,3 h 6.5 c 0.139,0 0.25,0.111 0.25,0.25 v 1.5 c 0,0.139 -0.111,0.25 -0.25,0.25 h -6.5 C 161.1115,81 161,80.889 161,80.75 v -1.5 c 0,-0.139 0.1115,-0.25 0.25,-0.25 z"/>
 </g>
 <g id="fcitx-vk-active" transform="translate(22,-132)">
  <rect style="opacity:0.001" width="22" height="22" x="154" y="66"/>
  <path style="fill:currentColor" class="ColorScheme-Text" d="m 159,71.000031 c -1.108,0 -2,0.892 -2,2 v 8 c 0,1.108 0.892,2 2,2 h 11 c 1.108,0 2,-0.892 2,-2 v -8 c 0,-1.108 -0.892,-2 -2,-2 z m 0.25,2 h 1.5 c 0.1385,0 0.25,0.1115 0.25,0.25 v 1.5 c 0,0.1385 -0.1115,0.25 -0.25,0.25 h -1.5 c -0.1385,0 -0.25,-0.1115 -0.25,-0.25 v -1.5 c 0,-0.1385 0.1115,-0.25 0.25,-0.25 z m 3,0 h 1.5 c 0.1385,0 0.25,0.1115 0.25,0.25 v 1.5 c 0,0.1385 -0.1115,0.25 -0.25,0.25 h -1.5 c -0.1385,0 -0.25,-0.1115 -0.25,-0.25 v -1.5 c 0,-0.1385 0.1115,-0.25 0.25,-0.25 z m 3,0 h 1.5 c 0.139,0 0.25,0.1115 0.25,0.25 v 1.5 c 0,0.1385 -0.111,0.25 -0.25,0.25 h -1.5 c -0.139,0 -0.25,-0.1115 -0.25,-0.25 v -1.5 c 0,-0.1385 0.111,-0.25 0.25,-0.25 z m 3,0 h 1.5 c 0.139,0 0.25,0.1115 0.25,0.25 v 1.5 c 0,0.1385 -0.111,0.25 -0.25,0.25 h -1.5 c -0.139,0 -0.25,-0.1115 -0.25,-0.25 v -1.5 c 0,-0.1385 0.111,-0.25 0.25,-0.25 z m -9,3 h 1.5 c 0.1385,0 0.25,0.111 0.25,0.25 v 1.5 c 0,0.139 -0.1115,0.25 -0.25,0.25 h -1.5 c -0.1385,0 -0.25,-0.111 -0.25,-0.25 v -1.5 c 0,-0.139 0.1115,-0.25 0.25,-0.25 z m 3,0 h 1.5 c 0.1385,0 0.25,0.111 0.25,0.25 v 1.5 c 0,0.139 -0.1115,0.25 -0.25,0.25 h -1.5 c -0.1385,0 -0.25,-0.111 -0.25,-0.25 v -1.5 c 0,-0.139 0.1115,-0.25 0.25,-0.25 z m 3,0 h 1.5 c 0.139,0 0.25,0.111 0.25,0.25 v 1.5 c 0,0.139 -0.111,0.25 -0.25,0.25 h -1.5 c -0.139,0 -0.25,-0.111 -0.25,-0.25 v -1.5 c 0,-0.139 0.111,-0.25 0.25,-0.25 z m 3,0 h 1.5 c 0.139,0 0.25,0.111 0.25,0.25 v 1.5 c 0,0.139 -0.111,0.25 -0.25,0.25 h -1.5 c -0.139,0 -0.25,-0.111 -0.25,-0.25 v -1.5 c 0,-0.139 0.111,-0.25 0.25,-0.25 z m -7,3 h 6.5 c 0.139,0 0.25,0.111 0.25,0.25 v 1.5 c 0,0.139 -0.111,0.25 -0.25,0.25 h -6.5 c -0.1385,0 -0.25,-0.111 -0.25,-0.25 v -1.5 c 0,-0.139 0.1115,-0.25 0.25,-0.25 z"/>
 </g>
 <g transform="translate(44,-132)">
  <rect style="opacity:0.001" width="22" height="22" x="154" y="66"/>
  <path id="fcitx-vk-inactive" style="opacity:0.35;fill:currentColor" class="ColorScheme-Text" d="m 159,71.000031 c -1.108,0 -2,0.892 -2,2 v 8 c 0,1.108 0.892,2 2,2 h 11 c 1.108,0 2,-0.892 2,-2 v -8 c 0,-1.108 -0.892,-2 -2,-2 z m 0.25,2 h 1.5 c 0.1385,0 0.25,0.1115 0.25,0.25 v 1.5 c 0,0.1385 -0.1115,0.25 -0.25,0.25 h -1.5 c -0.1385,0 -0.25,-0.1115 -0.25,-0.25 v -1.5 c 0,-0.1385 0.1115,-0.25 0.25,-0.25 z m 3,0 h 1.5 c 0.1385,0 0.25,0.1115 0.25,0.25 v 1.5 c 0,0.1385 -0.1115,0.25 -0.25,0.25 h -1.5 c -0.1385,0 -0.25,-0.1115 -0.25,-0.25 v -1.5 c 0,-0.1385 0.1115,-0.25 0.25,-0.25 z m 3,0 h 1.5 c 0.139,0 0.25,0.1115 0.25,0.25 v 1.5 c 0,0.1385 -0.111,0.25 -0.25,0.25 h -1.5 c -0.139,0 -0.25,-0.1115 -0.25,-0.25 v -1.5 c 0,-0.1385 0.111,-0.25 0.25,-0.25 z m 3,0 h 1.5 c 0.139,0 0.25,0.1115 0.25,0.25 v 1.5 c 0,0.1385 -0.111,0.25 -0.25,0.25 h -1.5 c -0.139,0 -0.25,-0.1115 -0.25,-0.25 v -1.5 c 0,-0.1385 0.111,-0.25 0.25,-0.25 z m -9,3 h 1.5 c 0.1385,0 0.25,0.111 0.25,0.25 v 1.5 c 0,0.139 -0.1115,0.25 -0.25,0.25 h -1.5 c -0.1385,0 -0.25,-0.111 -0.25,-0.25 v -1.5 c 0,-0.139 0.1115,-0.25 0.25,-0.25 z m 3,0 h 1.5 c 0.1385,0 0.25,0.111 0.25,0.25 v 1.5 c 0,0.139 -0.1115,0.25 -0.25,0.25 h -1.5 c -0.1385,0 -0.25,-0.111 -0.25,-0.25 v -1.5 c 0,-0.139 0.1115,-0.25 0.25,-0.25 z m 3,0 h 1.5 c 0.139,0 0.25,0.111 0.25,0.25 v 1.5 c 0,0.139 -0.111,0.25 -0.25,0.25 h -1.5 c -0.139,0 -0.25,-0.111 -0.25,-0.25 v -1.5 c 0,-0.139 0.111,-0.25 0.25,-0.25 z m 3,0 h 1.5 c 0.139,0 0.25,0.111 0.25,0.25 v 1.5 c 0,0.139 -0.111,0.25 -0.25,0.25 h -1.5 c -0.139,0 -0.25,-0.111 -0.25,-0.25 v -1.5 c 0,-0.139 0.111,-0.25 0.25,-0.25 z m -7,3 h 6.5 c 0.139,0 0.25,0.111 0.25,0.25 v 1.5 c 0,0.139 -0.111,0.25 -0.25,0.25 h -6.5 c -0.1385,0 -0.25,-0.111 -0.25,-0.25 v -1.5 c 0,-0.139 0.1115,-0.25 0.25,-0.25 z"/>
 </g>
 <g id="fcitx" transform="translate(-22,-132)">
  <rect style="opacity:0.001" width="22" height="22" x="154" y="66"/>
  <path style="fill:currentColor" class="ColorScheme-Text" d="m 165,67.544922 c -0.008,0.0044 -0.017,0.0092 -0.0254,0.01367 -0.41391,0.221516 -0.62662,0.567235 -0.89258,0.888672 -0.26596,0.321436 -0.59473,0.603192 -0.5625,0.589843 -0.16343,0.0677 -0.38785,0.06606 -0.69141,-0.01563 -0.30353,-0.08167 -0.66215,-0.238283 -1.0332,-0.394531 -0.37104,-0.156247 -0.75339,-0.316224 -1.16992,-0.371094 -0.41653,-0.05487 -0.91575,0.03685 -1.26953,0.390625 -0.28035,0.280352 -0.31552,0.601838 -0.3418,0.917969 -0.0263,0.316132 -0.01,0.649351 0.0215,0.962891 0.0166,0.166526 0.0386,0.325385 0.0605,0.472656 H 159 c -1.108,0 -2,0.892 -2,2 v 8 c 0,1.108 0.892,2 2,2 h 11 c 1.108,0 2,-0.892 2,-2 v -8 c 0,-1.108 -0.892,-2 -2,-2 h -9.89258 c -0.0277,-0.171256 -0.0553,-0.363337 -0.0762,-0.572266 -0.0277,-0.277534 -0.0394,-0.565687 -0.0215,-0.78125 0.0157,-0.188616 0.0805,-0.306337 0.0664,-0.302734 0.11174,-0.107504 0.19611,-0.12493 0.41797,-0.0957 0.22939,0.03022 0.55694,0.150397 0.91406,0.300781 0.35713,0.150384 0.74553,0.327896 1.16016,0.439453 0.41462,0.111558 0.87955,0.162035 1.33203,-0.02539 0.46775,-0.193748 0.68185,-0.551052 0.95313,-0.878907 0.0479,-0.05787 0.0976,-0.112617 0.14648,-0.167968 z M 159.25,73 h 1.5 c 0.1385,0 0.25,0.1115 0.25,0.25 v 1.5 c 0,0.1385 -0.1115,0.25 -0.25,0.25 h -1.5 C 159.1115,75 159,74.8885 159,74.75 v -1.5 c 0,-0.1385 0.1115,-0.25 0.25,-0.25 z m 3,0 h 1.5 c 0.1385,0 0.25,0.1115 0.25,0.25 v 1.5 c 0,0.1385 -0.1115,0.25 -0.25,0.25 h -1.5 C 162.1115,75 162,74.8885 162,74.75 v -1.5 c 0,-0.1385 0.1115,-0.25 0.25,-0.25 z m 3,0 h 1.5 c 0.139,0 0.25,0.1115 0.25,0.25 v 1.5 c 0,0.1385 -0.111,0.25 -0.25,0.25 h -1.5 C 165.111,75 165,74.8885 165,74.75 v -1.5 c 0,-0.1385 0.111,-0.25 0.25,-0.25 z m 3,0 h 1.5 c 0.139,0 0.25,0.1115 0.25,0.25 v 1.5 c 0,0.1385 -0.111,0.25 -0.25,0.25 h -1.5 C 168.111,75 168,74.8885 168,74.75 v -1.5 c 0,-0.1385 0.111,-0.25 0.25,-0.25 z m -9,3 h 1.5 c 0.1385,0 0.25,0.111 0.25,0.25 v 1.5 c 0,0.139 -0.1115,0.25 -0.25,0.25 h -1.5 C 159.1115,78 159,77.889 159,77.75 v -1.5 c 0,-0.139 0.1115,-0.25 0.25,-0.25 z m 3,0 h 1.5 c 0.1385,0 0.25,0.111 0.25,0.25 v 1.5 c 0,0.139 -0.1115,0.25 -0.25,0.25 h -1.5 C 162.1115,78 162,77.889 162,77.75 v -1.5 c 0,-0.139 0.1115,-0.25 0.25,-0.25 z m 3,0 h 1.5 c 0.139,0 0.25,0.111 0.25,0.25 v 1.5 c 0,0.139 -0.111,0.25 -0.25,0.25 h -1.5 C 165.111,78 165,77.889 165,77.75 v -1.5 c 0,-0.139 0.111,-0.25 0.25,-0.25 z m 3,0 h 1.5 c 0.139,0 0.25,0.111 0.25,0.25 v 1.5 c 0,0.139 -0.111,0.25 -0.25,0.25 h -1.5 C 168.111,78 168,77.889 168,77.75 v -1.5 c 0,-0.139 0.111,-0.25 0.25,-0.25 z m -7,3 h 6.5 c 0.139,0 0.25,0.111 0.25,0.25 v 1.5 c 0,0.139 -0.111,0.25 -0.25,0.25 h -6.5 C 161.1115,81 161,80.889 161,80.75 v -1.5 c 0,-0.139 0.1115,-0.25 0.25,-0.25 z"/>
 </g>
 <g id="fcitx-mozc-alpha-full" transform="translate(70,-65)">
  <rect style="opacity:0.001" width="22" height="22" x="172" y="-67"/>
  <path style="fill:currentColor" class="ColorScheme-Text" d="m 177,-64 c -1.108,0 -2,0.892 -2,2 v 12 c 0,1.108 0.892,2 2,2 h 12 c 1.108,0 2,-0.892 2,-2 v -12 c 0,-1.108 -0.892,-2 -2,-2 z m 5.37305,2 h 1.26953 L 188,-50 h -1.45817 l -1.34766,-4 h -4.43516 l -1.33203,4 H 178 Z m 0.60742,1.586 L 181.028,-55 h 3.944 z"/>
 </g>
 <g id="fcitx-mozc-alpha-half" transform="translate(70,-65)">
  <rect style="opacity:0.001" width="22" height="22" x="194" y="-67"/>
  <path style="fill:currentColor" class="ColorScheme-Text" d="m 199,-64 c -1.108,0 -2,0.892 -2,2 v 12 c 0,1.108 0.892,2 2,2 h 12 c 1.108,0 2,-0.892 2,-2 v -12 c 0,-1.108 -0.892,-2 -2,-2 z m 7.49805,3 h 1.01562 L 211,-51 h -1.43945 l -1.01155,-3 h -3.133 l -0.99998,3 H 203 Z m 0.48632,2.08594 L 205.66406,-55 h 2.67188 z M 199,-52 h 3 v 1 h -3 z"/>
 </g>
 <g id="fcitx-mozc-dictionary" transform="translate(70,-65)">
  <rect style="opacity:0.001" width="22" height="22" x="304" y="-67"/>
  <path style="fill:currentColor" class="ColorScheme-Text" d="m 310,-64 c -1.108,0 -2,0.892 -2,2 v 12 c 0,1.108 0.892,2 2,2 h 1 v -16 z m 2,0 v 16 h 8 c 1.108,0 2,-0.892 2,-2 v -12 c 0,-1.108 -0.892,-2 -2,-2 z m 2,3 h 6 v 1 h -6 z m 0,3 h 6 v 1 h -6 z m 0,3 h 6 v 1 h -6 z m 0,3 h 6 v 1 h -6 z"/>
 </g>
 <g id="fcitx-mozc-direct" transform="translate(70,-65)">
  <rect style="opacity:0.001" width="22" height="22" x="216" y="-67"/>
  <path style="fill:currentColor" class="ColorScheme-Text" d="m 221,-64 c -1.108,0 -2,0.892 -2,2 v 12 c 0,1.108 0.892,2 2,2 h 12 c 1.108,0 2,-0.892 2,-2 v -12 c 0,-1.108 -0.892,-2 -2,-2 z m 5.49805,2 h 1.01562 L 231,-50 h -1.36719 l -1.07812,-4 h -3.14844 l -1.06445,4 H 223 Z m 0.48828,1.886718 L 225.62109,-55 h 2.75586 z"/>
 </g>
 <g id="fcitx-mozc-hiragana" transform="translate(70,-65)">
  <rect style="opacity:0.001" width="22" height="22" x="282" y="-67"/>
  <path style="fill:currentColor" class="ColorScheme-Text" d="m 287,-64 c -1.108,0 -2,0.892 -2,2 v 12 c 0,1.108 0.892,2 2,2 h 12 c 1.108,0 2,-0.892 2,-2 v -12 c 0,-1.108 -0.892,-2 -2,-2 z m 5,1.974609 1,0.05078 -0.0977,1.97461 H 298 v 1 h -5.14649 l -0.10742,2.162109 c 0.57357,-0.08322 1.17533,-0.113624 1.77539,-0.103515 0.15244,-0.325415 0.65625,-1.240235 0.65625,-1.240235 l 0.91602,0.400391 c 0,0 -0.38336,0.703526 -0.45703,0.865234 0.0344,0.0052 0.0713,-0.0037 0.10546,0.002 0.76707,0.127475 1.48839,0.371108 2.07617,0.78711 0.58779,0.416002 1.03682,1.02718 1.17383,1.792969 0.21112,1.180022 -0.3759,2.319228 -1.31836,3.099609 -0.94245,0.780334 -2.26646,1.343387 -3.67382,1.203399 l 0.0996,-0.994141 c 1.12694,0.112093 2.20238,-0.370133 2.9375,-0.978836 0.73511,-0.608702 1.10499,-1.403708 0.9707,-2.154297 -0.089,-0.497489 -0.34677,-0.855904 -0.76563,-1.152344 -0.41885,-0.29644 -1.00404,-0.507504 -1.66406,-0.617187 -0.14516,-0.02412 -0.30984,0.0065 -0.46094,-0.0078 -0.4078,0.839128 -0.55283,1.26801 -1.29296,2.439453 -0.64996,1.028713 -1.37509,2.017478 -2.15625,2.691406 -0.39058,0.336964 -0.79947,0.600983 -1.24805,0.726563 -0.44858,0.12558 -0.95443,0.08564 -1.38281,-0.173828 -0.54884,-0.332441 -0.89878,-0.860499 -1.02539,-1.43556 -0.12662,-0.575061 -0.0495,-1.19146 0.17578,-1.789062 0.45047,-1.195208 1.50319,-2.342666 3.00195,-2.957032 0.1733,-0.07104 0.35616,-0.130803 0.54297,-0.185547 l 0.11718,-2.380859 H 289 v -1 h 2.90039 z m 1.61133,6.052735 c -0.0429,-7.01e-4 -0.0855,0.0011 -0.12891,0.0059 -0.26841,0.02939 -0.53142,0.07245 -0.78515,0.125 l -0.1211,2.423787 c 0.13722,-0.200022 0.27288,-0.40528 0.4043,-0.613281 0.57786,-0.914615 0.63373,-1.160068 1.01953,-1.925781 -0.13173,0.0064 -0.25987,-0.01353 -0.38867,-0.01563 z m -1.93164,0.421875 c -0.0371,0.01421 -0.0753,0.02822 -0.11133,0.04297 -1.24192,0.509084 -2.10414,1.477604 -2.44531,2.382812 -0.17059,0.452604 -0.20975,0.882112 -0.13477,1.222656 0.075,0.340544 0.24474,0.598918 0.56836,0.794922 0.19565,0.11851 0.35442,0.133406 0.59375,0.06641 0.23933,-0.067 0.54261,-0.24483 0.86328,-0.521484 0.16092,-0.138832 0.32577,-0.301245 0.49219,-0.482422 z"/>
 </g>
 <g id="fcitx-mozc-katakana-full" transform="translate(70,-65)">
  <rect style="opacity:0.001" width="22" height="22" x="238" y="-67"/>
  <path style="fill:currentColor" class="ColorScheme-Text" d="m 243,-64 c -1.108,0 -2,0.892 -2,2 v 12 c 0,1.108 0.892,2 2,2 h 12 c 1.108,0 2,-0.892 2,-2 v -12 c 0,-1.108 -0.892,-2 -2,-2 z m 1,3 h 9.90039 c 0.35844,-4.22e-4 0.60091,0.365325 0.46094,0.695312 -1.03773,2.455908 -2.50712,4.215637 -4.12696,5.675782 l -0.66796,-0.742188 c 1.36812,-1.233246 2.53827,-2.725547 3.47461,-4.628906 H 244 Z m 4,2.998047 1,0.0039 c -0.005,1.469251 0.10292,2.93577 -0.29297,4.33984 -0.39589,1.404069 -1.3445,2.703765 -3.27734,3.705078 l -0.45899,-0.886709 c 1.74798,-0.905547 2.44406,-1.914736 2.77539,-3.089844 0.33133,-1.175107 0.24869,-2.558263 0.25391,-4.072265 z"/>
 </g>
 <g id="fcitx-mozc-katakana-half" transform="translate(70,-65)">
  <rect style="opacity:0.001" width="22" height="22" x="260" y="-67"/>
  <path style="fill:currentColor" class="ColorScheme-Text" d="m 265,-64 c -1.108,0 -2,0.892 -2,2 v 12 c 0,1.108 0.892,2 2,2 h 12 c 1.108,0 2,-0.892 2,-2 v -12 c 0,-1.108 -0.892,-2 -2,-2 z m 4,2.999101 h 7.61523 c 0.27569,-4.21e-4 0.46117,0.365326 0.35352,0.695313 -0.79813,2.455908 -1.62721,4.016418 -2.87305,5.476563 l -0.71484,-0.742188 c 1.05224,-1.233246 1.6529,-2.526328 2.37305,-4.429688 H 269 Z m 3,2.998047 1,0.0039 c -0.004,1.469251 0.12479,2.435614 -0.17969,3.839684 -0.30448,1.404069 -1.23413,2.204383 -2.7207,3.205696 l -0.35352,-1.085927 c 1.3444,-0.905549 1.78033,-1.216134 2.03516,-2.391243 0.25483,-1.175106 0.21473,-2.058108 0.21875,-3.57211 z m -7,6.002415 h 3 v 1 h -3 z"/>
 </g>
 <g id="fcitx-mozc-properties" transform="translate(70,-65)">
  <rect style="opacity:0.001" width="22" height="22" x="326" y="-67"/>
  <path style="fill:currentColor" class="ColorScheme-Text" d="m 335.00195,-64 -0.17578,2.10742 a 6.2848373,6.2848373 0 0 0 -1.83594,1.0625 l -1.91601,-0.90234 -2,3.46289 1.73828,1.20898 a 6.2848373,6.2848373 0 0 0 -0.0957,1.0586 6.2848373,6.2848373 0 0 0 0.0918,1.06445 l -1.73438,1.20313 2,3.46484 1.91016,-0.90039 a 6.2848373,6.2848373 0 0 0 1.8418,1.05664 L 334.99805,-48 h 4 l 0.17578,-2.10742 a 6.2848373,6.2848373 0 0 0 1.83594,-1.0625 l 1.91601,0.90234 2,-3.46289 -1.73828,-1.20898 a 6.2848373,6.2848373 0 0 0 0.0957,-1.0586 6.2848373,6.2848373 0 0 0 -0.0918,-1.06445 l 1.73438,-1.20312 -2,-3.46485 -1.91016,0.90039 a 6.2848373,6.2848373 0 0 0 -1.84179,-1.05664 L 339.00196,-64 Z M 337,-59 a 2.9999994,2.9999994 0 0 1 3,3 2.9999994,2.9999994 0 0 1 -3,3 2.9999994,2.9999994 0 0 1 -3,-3 2.9999994,2.9999994 0 0 1 3,-3 z"/>
 </g>
 <g id="fcitx-mozc-tool" transform="translate(70,-65)">
  <rect style="opacity:0.001" width="22" height="22" x="348" y="-67"/>
  <path style="fill:currentColor" class="ColorScheme-Text" d="m 362,-64 c -1.1812,0.44881 -2,1.43 -2,2.6504 0,1.2204 0.8188,2.174 2,2.623 v 2.4278 c 1.274,0.6333 2.318,1.6588 3,2.9158 v -5.3436 c 1.181,-0.449 2,-1.4026 2,-2.623 0,-1.2204 -0.819,-2.20159 -2,-2.6504 v 2 c 0,1 -1,1 -1,1 h -1 c 0,0 -1,0 -1,-1 z m -3,8 c -3.324,0 -6,2.676 -6,6 h -2 v 2 h 16 v -2 h -2 c 0,-3.324 -2.676,-6 -6,-6 z m 0,3 c 1.662,0 3,1.338 3,3 h -6 c 0,-1.662 1.338,-3 3,-3 z"/>
 </g>
 <g id="fcitx-mozc" transform="translate(0,-132)">
  <rect style="opacity:0.001" width="22" height="22" x="440" y="0"/>
  <path style="fill:currentColor" class="ColorScheme-Text" d="m 451,3 a 8,8 0 0 0 -8,8 8,8 0 0 0 8,8 8,8 0 0 0 8,-8 8,8 0 0 0 -8,-8 z m -1,1.9746094 1,0.050781 L 450.90234,7 H 456 v 1 h -5.14648 l -0.10743,2.162109 c 0.57357,-0.08322 1.17533,-0.113624 1.77539,-0.103515 0.15244,-0.3254152 0.65625,-1.2402346 0.65625,-1.2402346 l 0.91602,0.4003906 c 0,0 -0.38336,0.7035264 -0.45703,0.865234 0.0344,0.0052 0.0713,-0.0037 0.10547,0.002 0.76707,0.127475 1.48839,0.371107 2.07617,0.787109 0.58779,0.416002 1.03682,1.02718 1.17383,1.792969 0.21112,1.180022 -0.3759,2.319228 -1.31836,3.099609 -0.94245,0.780334 -2.26647,1.343113 -3.67383,1.203125 l 0.0996,-0.994141 c 1.12694,0.112093 2.20238,-0.369812 2.9375,-0.978515 0.73511,-0.608702 1.10499,-1.403708 0.9707,-2.154297 -0.089,-0.497489 -0.34676,-0.855904 -0.76562,-1.152344 -0.41885,-0.29644 -1.00405,-0.507504 -1.66407,-0.617187 -0.14515,-0.02412 -0.30983,0.0065 -0.46093,-0.0078 -0.4078,0.839128 -0.55284,1.26801 -1.29297,2.439453 -0.64996,1.028713 -1.37509,2.017478 -2.15625,2.691406 -0.39058,0.336964 -0.79947,0.600983 -1.24805,0.726563 -0.44858,0.12558 -0.95443,0.08564 -1.38281,-0.173828 -0.54884,-0.332441 -0.89878,-0.860486 -1.02539,-1.435547 -0.12662,-0.575061 -0.0495,-1.191461 0.17578,-1.789062 0.45047,-1.195209 1.50319,-2.342666 3.00195,-2.957032 0.1733,-0.07104 0.35616,-0.130803 0.54297,-0.185547 L 449.84961,8 H 447 V 7 h 2.90039 z m 1.61133,6.0527346 c -0.0429,-7.01e-4 -0.0855,0.0011 -0.12891,0.0059 -0.26841,0.02939 -0.53142,0.07245 -0.78515,0.125 l -0.1211,2.423828 c 0.13722,-0.200022 0.27288,-0.40528 0.4043,-0.613281 0.57786,-0.914615 0.63373,-1.160068 1.01953,-1.925781 -0.13173,0.0064 -0.25987,-0.01352 -0.38867,-0.01563 z m -1.93164,0.421875 c -0.0371,0.01421 -0.0753,0.02822 -0.11133,0.04297 -1.24192,0.509083 -2.10414,1.477604 -2.44531,2.382812 -0.17059,0.452604 -0.20975,0.882112 -0.13477,1.222656 0.075,0.340544 0.24474,0.598918 0.56836,0.794922 0.19565,0.11851 0.35442,0.133402 0.59375,0.06641 0.23933,-0.067 0.54261,-0.24483 0.86328,-0.521484 0.16092,-0.138832 0.32577,-0.301245 0.49219,-0.482422 z"/>
 </g>
 <g id="fcitx-mozc-setup" transform="translate(0,-110)">
  <rect style="opacity:0.001" width="22" height="22" x="440" y="0"/>
  <path style="fill:currentColor" class="ColorScheme-Text" d="m 451,3 a 8,8 0 0 0 -8,8 8,8 0 0 0 8,8 8,8 0 0 0 8,-8 8,8 0 0 0 -8,-8 z m -1,1.9746094 1,0.050781 L 450.90234,7 H 456 v 1 h -5.14648 l -0.10743,2.162109 c 0.57357,-0.08322 1.17533,-0.113624 1.77539,-0.103515 0.15244,-0.3254152 0.65625,-1.2402346 0.65625,-1.2402346 l 0.91602,0.4003906 c 0,0 -0.38336,0.7035264 -0.45703,0.865234 0.0344,0.0052 0.0713,-0.0037 0.10547,0.002 0.76707,0.127475 1.48839,0.371107 2.07617,0.787109 0.58779,0.416002 1.03682,1.02718 1.17383,1.792969 0.21112,1.180022 -0.3759,2.319228 -1.31836,3.099609 -0.94245,0.780334 -2.26647,1.343113 -3.67383,1.203125 l 0.0996,-0.994141 c 1.12694,0.112093 2.20238,-0.369812 2.9375,-0.978515 0.73511,-0.608702 1.10499,-1.403708 0.9707,-2.154297 -0.089,-0.497489 -0.34676,-0.855904 -0.76562,-1.152344 -0.41885,-0.29644 -1.00405,-0.507504 -1.66407,-0.617187 -0.14515,-0.02412 -0.30983,0.0065 -0.46093,-0.0078 -0.4078,0.839128 -0.55284,1.26801 -1.29297,2.439453 -0.64996,1.028713 -1.37509,2.017478 -2.15625,2.691406 -0.39058,0.336964 -0.79947,0.600983 -1.24805,0.726563 -0.44858,0.12558 -0.95443,0.08564 -1.38281,-0.173828 -0.54884,-0.332441 -0.89878,-0.860486 -1.02539,-1.435547 -0.12662,-0.575061 -0.0495,-1.191461 0.17578,-1.789062 0.45047,-1.195209 1.50319,-2.342666 3.00195,-2.957032 0.1733,-0.07104 0.35616,-0.130803 0.54297,-0.185547 L 449.84961,8 H 447 V 7 h 2.90039 z m 1.61133,6.0527346 c -0.0429,-7.01e-4 -0.0855,0.0011 -0.12891,0.0059 -0.26841,0.02939 -0.53142,0.07245 -0.78515,0.125 l -0.1211,2.423828 c 0.13722,-0.200022 0.27288,-0.40528 0.4043,-0.613281 0.57786,-0.914615 0.63373,-1.160068 1.01953,-1.925781 -0.13173,0.0064 -0.25987,-0.01352 -0.38867,-0.01563 z m -1.93164,0.421875 c -0.0371,0.01421 -0.0753,0.02822 -0.11133,0.04297 -1.24192,0.509083 -2.10414,1.477604 -2.44531,2.382812 -0.17059,0.452604 -0.20975,0.882112 -0.13477,1.222656 0.075,0.340544 0.24474,0.598918 0.56836,0.794922 0.19565,0.11851 0.35442,0.133402 0.59375,0.06641 0.23933,-0.067 0.54261,-0.24483 0.86328,-0.521484 0.16092,-0.138832 0.32577,-0.301245 0.49219,-0.482422 z"/>
 </g>
</svg>
