<svg xmlns="http://www.w3.org/2000/svg" width="32" height="32" version="1.1">
 <defs>
  <style id="current-color-scheme" type="text/css">
   .ColorScheme-Background {color:#2f343f; } .ColorScheme-ButtonBackground { color:#444a58; } .ColorScheme-Highlight { color:#5294e2; } .ColorScheme-Text { color:#d3dae3; } .ColorScheme-NegativeText { color:#f44336; } .ColorScheme-PositiveText { color:#4caf50; } .ColorScheme-NeutralText { color:#ff9800; }
  </style>
 </defs>
 <g id="22-22-kalarm">
  <rect style="opacity:0.001" width="22" height="22" x="32" y="10"/>
  <path style="fill:currentColor" class="ColorScheme-Text" d="M 37,11.988281 V 12 c -1.656854,0 -3,1.343146 -3,3 6.29e-4,0.799718 0.320535,1.566084 0.888672,2.128906 0.88843,-1.8521 2.388234,-3.351634 4.240234,-4.240234 C 38.568023,12.316231 37.801415,11.992004 37,11.988281 Z M 49,12 c -0.799718,6.29e-4 -1.566084,0.320535 -2.128906,0.888672 1.852,0.8886 3.351834,2.388134 4.240234,4.240234 0.560987,-0.555651 0.880296,-1.310062 0.888672,-2.099609 0,-1.656854 -1.343146,-3 -3,-3 z m -6,2 c -3.854149,0 -7,3.145851 -7,7 0,3.854149 3.145851,7 7,7 3.854149,0 7,-3.145851 7,-7 0,-3.854149 -3.145851,-7 -7,-7 z m 0,2 c 2.773268,0 5,2.226732 5,5 0,2.773268 -2.226732,5 -5,5 -2.773268,0 -5,-2.226732 -5,-5 0,-2.773268 2.226732,-5 5,-5 z m 2.876953,2.667969 c -0.144229,-0.0132 -0.296151,0.0174 -0.441406,0.101562 l -2.804688,1.580078 C 42.182122,20.602224 42.11562,21.219818 42.5,21.5625 l 0.783203,1.357422 c 0.334354,0.597369 1.228486,0.471185 1.384766,-0.195313 0.04491,-0.189618 0.01376,-0.38921 -0.08594,-0.55664 l -0.521484,-0.902344 2.111328,-1.191406 c 0.177688,-0.09703 0.308879,-0.262026 0.363281,-0.457031 0.133967,-0.48548 -0.225515,-0.909622 -0.658203,-0.949219 z m 2.824219,7.935547 c -0.7072,0.717164 -1.543466,1.294333 -2.464844,1.701172 C 46.511169,28.737054 46.987674,28.999242 47.5,29 48.328427,29 49,28.328427 49,27.5 48.999579,27.176781 48.894767,26.862344 48.701172,26.603516 Z m -11.404297,0.0039 C 37.104772,26.865423 37.000695,27.178337 37,27.5 c 0,0.828427 0.671573,1.5 1.5,1.5 0.510493,-1.45e-4 0.985867,-0.259909 1.261719,-0.689453 -0.921536,-0.407422 -1.757813,-0.985261 -2.464844,-1.703125 z"/>
 </g>
 <g id="kalarm">
  <rect style="opacity:0.001" width="32" height="32" x="0" y="0"/>
  <path style="fill:currentColor" class="ColorScheme-Text" d="M 7.3417969 2.9628906 L 7.3417969 2.9804688 C 4.9485634 2.9804688 3.0097656 4.9212195 3.0097656 7.3144531 C 3.0106741 8.4696013 3.4723263 9.5757063 4.2929688 10.388672 C 5.5762564 7.7134162 7.7428575 5.5472052 10.417969 4.2636719 C 9.6078041 3.4368127 8.4993964 2.9682683 7.3417969 2.9628906 z M 24.675781 2.9804688 C 23.520633 2.9813773 22.414527 3.4430295 21.601562 4.2636719 C 24.276674 5.5472052 26.443317 7.7134158 27.726562 10.388672 C 28.536877 9.5860644 28.997668 8.4959257 29.009766 7.3554688 C 29.009766 4.9622352 27.069015 3.0234375 24.675781 3.0234375 L 24.675781 2.9804688 z M 16 6 C 10.494072 6 6 10.494072 6 16 C 6 21.505927 10.494072 26 16 26 C 21.505928 26 26 21.505927 26 16 C 26 10.494072 21.505928 6 16 6 z M 16 9 C 19.882576 9 23 12.117424 23 16 C 23 19.882575 19.882576 23 16 23 C 12.117424 23 9 19.882575 9 16 C 9 12.117424 12.117424 9 16 9 z M 19.693359 12.994141 C 19.506808 12.977061 19.308971 13.018089 19.121094 13.126953 L 15.494141 15.169922 C 14.91373 15.496662 14.827049 16.295046 15.324219 16.738281 L 16.337891 18.494141 C 16.770355 19.266798 17.92677 19.104258 18.128906 18.242188 C 18.186996 17.996931 18.146535 17.738042 18.017578 17.521484 L 17.34375 16.355469 L 20.074219 14.814453 C 20.304046 14.688951 20.474557 14.474882 20.544922 14.222656 C 20.7182 13.59472 20.253012 13.045358 19.693359 12.994141 z M 24.660156 24.539062 C 23.638644 25.574966 22.430488 26.408437 21.099609 26.996094 C 21.496602 27.620622 22.185755 27.998905 22.925781 28 C 24.122398 28 25.091797 27.030601 25.091797 25.833984 C 25.091189 25.367113 24.939792 24.912926 24.660156 24.539062 z M 7.4296875 24.544922 C 7.1522053 24.917598 7.0010039 25.36936 7 25.833984 C 7 27.030601 7.9693988 28 9.1660156 28 C 9.9033946 27.99979 10.589828 27.624358 10.988281 27.003906 C 9.6571733 26.415342 8.4509545 25.581837 7.4296875 24.544922 z"/>
 </g>
</svg>
