<svg xmlns="http://www.w3.org/2000/svg" width="32" height="32" version="1">
 <defs>
  <style id="current-color-scheme" type="text/css">
   .ColorScheme-Background {color:#2f343f; } .ColorScheme-ButtonBackground { color:#444a58; } .ColorScheme-Highlight { color:#5294e2; } .ColorScheme-Text { color:#d3dae3; } .ColorScheme-NegativeText { color:#f44336; } .ColorScheme-PositiveText { color:#4caf50; } .ColorScheme-NeutralText { color:#ff9800; }
  </style>
 </defs>
 <g id="kate">
  <rect style="opacity:0.001" width="32" height="32" x="0" y="0"/>
  <path style="fill:currentColor" class="ColorScheme-Text" d="M 16 2 A 14 14 0 0 0 2 16 A 14 14 0 0 0 16 30 A 14 14 0 0 0 30 16 A 14 14 0 0 0 16 2 z M 14.986328 6.0039062 C 16.183699 5.964683 17.242611 6.1978472 18.0625 6.53125 C 18.253151 6.602717 18.435849 6.6817972 18.603516 6.7734375 C 14.019183 6.9458731 14.771887 9.358639 15.453125 10.710938 C 18.913593 9.7007254 21.945911 8.923079 24.408203 8.0917969 C 22.719919 10.298337 19.911885 13.279177 16.839844 13.671875 C 13.767803 14.064572 10.750672 13.630702 10.072266 15.894531 C 9.4475176 17.97931 11.933916 19.924198 14.212891 19.455078 C 16.091487 19.068373 16.199728 17.357172 15.542969 15.740234 C 15.213048 15.322503 14.893975 14.866879 14.589844 14.365234 C 15.601367 14.307834 15.413583 14.321875 17.128906 14.236328 C 19.685686 16.392767 20.533147 16.840103 25 19.986328 C 22.186432 19.787175 19.802104 19.263596 17.792969 17.876953 L 17.835938 18.009766 C 18.47551 19.598254 20.03592 23.202639 20.332031 26 C 18.908074 23.975401 18.175548 23.232091 15.96875 21.771484 C 13.570772 20.18434 11.502451 19.88154 10.119141 18.148438 C 10.117519 18.146229 10.114899 18.144786 10.113281 18.142578 C 9.8680017 17.83423 9.6370631 17.495228 9.4375 17.080078 C 9.3052653 16.804992 9.2157047 16.540594 9.1484375 16.28125 C 9.1418355 16.257746 9.1350375 16.234367 9.1289062 16.210938 C 9.1079923 16.123431 9.0919558 16.036804 9.078125 15.951172 C 8.7297005 14.105656 9.8942406 12.517483 12.814453 11.513672 C 12.000753 9.053462 7.7203879 9.6520427 7 9.5976562 C 7.8144594 9.1976155 8.5514175 8.8695307 10.230469 7.6660156 C 11.847758 6.5067741 13.5115 6.0522186 14.986328 6.0039062 z"/>
 </g>
 <g id="22-22-kate" transform="translate(27,5)">
  <rect style="opacity:0.001" width="22" height="22" x="5" y="5"/>
  <path style="fill:currentColor" class="ColorScheme-Text" d="m 15.211587,8.003428 c -1.147087,0.03865 -2.441108,0.602556 -3.698999,1.529931 -1.305928,0.962793 -1.8791179,1.225256 -2.512586,1.545282 0.5603014,0.04351 3.889472,-0.635617 4.52235,1.332512 -2.271275,0.803034 -3.7772105,2.073546 -3.506213,3.54993 0.01076,0.0685 0.02323,0.137804 0.0395,0.207808 0.0048,0.01874 0.01006,0.03745 0.01519,0.05625 0.05232,0.207472 0.121977,0.418985 0.224826,0.63905 0.155216,0.332113 0.334834,0.603309 0.525607,0.849984 0.0013,0.0018 0.0033,0.0029 0.0046,0.0047 1.075909,1.386455 2.885214,1.62869 4.750307,2.89838 1.716397,1.168462 2.28614,1.763099 3.393662,3.382745 -0.230309,-2.237844 -1.044391,-5.121295 -1.541836,-6.392061 l -0.03342,-0.106247 c 1.56266,1.109291 3.417136,1.327989 5.605466,1.487308 -3.474218,-2.51693 -4.133353,-2.674633 -6.121959,-4.399751 -1.33414,0.06844 -1.188086,0.0572 -1.974825,0.103123 0.236546,0.401307 0.484714,0.765799 0.741319,1.099978 0.510813,1.293524 0.426625,2.662458 -1.034504,2.971817 -1.772536,0.375288 -4.306583,-1.180591 -3.820668,-2.848381 0.527649,-1.811028 3.474488,-1.463939 5.863852,-1.77809 C 19.042621,13.823543 20.68689,11.765197 22,10 20.084884,10.665013 18.066474,10.960839 15.375,11.768992 14.845149,10.687175 14.459409,8.757001 18.025,8.619055 17.894593,8.545745 17.752495,8.482481 17.60421,8.425309 16.96652,8.158592 16.142922,7.972064 15.211633,8.003442 Z"/>
 </g>
</svg>
