<svg xmlns="http://www.w3.org/2000/svg" xmlns:osb="http://www.openswatchbook.org/uri/2009/osb" id="svg7384" style="enable-background:new" width="22" height="22" version="1.1">
 <defs id="defs7386">
  <style id="current-color-scheme" type="text/css">
   .ColorScheme-Text { color:#d3dae3; } .ColorScheme-Highlight { color:#5294e2; } .ColorScheme-ButtonBackground { color:#d3dae3; }
  </style>
  <linearGradient id="linearGradient5606" osb:paint="solid">
   <stop id="stop5608" style="stop-color:currentColor;stop-opacity:1;" offset="0"/>
  </linearGradient>
 </defs>
 <g id="kget" transform="translate(-305.00291,86.019038)">
  <path id="rect4139" style="opacity:0;fill:#00000f;fill-opacity:1;stroke:none;stroke-opacity:1" d="m 305.25291,-86.019038 21.5,0 c 0.1385,0 0.25,0.111499 0.25,0.250001 l 0,21.499999 c 0,0.1385 -0.11151,0.25 -0.25,0.25 l -21.5,0 c -0.1385,0 -0.25,-0.111499 -0.25,-0.25 l 0,-21.499999 c 0,-0.138501 0.11151,-0.250001 0.25,-0.250001 z"/>
  <path id="path5972" style="opacity:1;fill:currentColor;fill-opacity:1;fill-rule:nonzero;stroke:none" class="ColorScheme-Text" d="m 314.00291,-83.019038 0,7 -3,0 4.99999,6 5.00001,-6 -3,0 0,-7 z m -6,16 16,0 0,-2 -15.99926,0 z"/>
 </g>
</svg>
