<svg xmlns="http://www.w3.org/2000/svg" width="32" height="32" version="1.1">
 <defs>
  <style id="current-color-scheme" type="text/css">
   .ColorScheme-Background {color:#2f343f; } .ColorScheme-ButtonBackground { color:#444a58; } .ColorScheme-Highlight { color:#5294e2; } .ColorScheme-Text { color:#d3dae3; } .ColorScheme-NegativeText { color:#f44336; } .ColorScheme-PositiveText { color:#4caf50; } .ColorScheme-NeutralText { color:#ff9800; }
  </style>
 </defs>
 <g id="22-22-kget" transform="translate(32,10)">
  <path style="opacity:0.001" d="m 0.25,0 h 21.5 C 21.8885,0 22,0.111499 22,0.250001 V 21.75 C 22,21.8885 21.88849,22 21.75,22 H 0.25 C 0.1115,22 0,21.888501 0,21.75 V 0.250001 C 0,0.1115 0.11151,0 0.25,0 Z"/>
  <path style="fill:currentColor" class="ColorScheme-Text" d="m 11,3 a 8,8 0 0 0 -8,8 8,8 0 0 0 8,8 8,8 0 0 0 8,-8 8,8 0 0 0 -8,-8 z m -1,2 h 2 v 5 h 2.5 L 12.75,12.5 11,15 h 4 v 1 H 7 v -1 h 4 L 9.25,12.5 7.5,10 H 10 Z"/>
 </g>
 <g id="kget">
  <path style="opacity:0.001" d="M 0.36363638,0 H 31.636365 c 0.201454,0 0.363636,0.16218037 0.363636,0.36363783 V 31.636365 c 0,0.201454 -0.162196,0.363636 -0.363636,0.363636 H 0.36363638 C 0.16218182,32.000001 0,31.837821 0,31.636365 V 0.36363783 C 0,0.16218182 0.16219637,0 0.36363638,0 Z"/>
  <path style="fill:currentColor" class="ColorScheme-Text" d="M 16 4 A 12 12 0 0 0 4 16 A 12 12 0 0 0 16 28 A 12 12 0 0 0 28 16 A 12 12 0 0 0 16 4 z M 14 7 L 18 7 L 18 15 L 21.25 15 L 16 22 L 22 22 L 22 24 L 10 24 L 10 22 L 16 22 L 10.75 15 L 14 15 L 14 7 z"/>
 </g>
</svg>
