<?xml version="1.0"?>
<svg xmlns="http://www.w3.org/2000/svg" width="22" version="1.1" style="enable-background:new" id="svg7384" height="22">
 <title id="title8473">
  Paper Symbolic Icon Theme
 </title>
 <defs id="defs7386">
  <style type="text/css" id="current-color-scheme">
   .ColorScheme-Text { color:#d3dae3; } .ColorScheme-Highlight { color:#5294e2; } .ColorScheme-ButtonBackground { color:#d3dae3; }
  </style>
 </defs>
 <g transform="translate(-346.99759,257.00336)" style="display:inline;enable-background:new" id="kgpg">
  <rect y="-257" x="347" height="22" width="22" id="rect4192-0" style="opacity:0;fill:#2b0000;fill-opacity:0.40392157;fill-rule:nonzero;stroke:none;stroke-width:1;stroke-linecap:round;stroke-linejoin:round;stroke-miterlimit:4;stroke-dasharray:none;stroke-dashoffset:0;stroke-opacity:1"/>
  <path style="fill:currentColor;fill-opacity:1" id="path5975-0" d="m 357.99758,-254.00336 c -5.00262,-0.003 -4.99999,4.64286 -4.99999,4.64286 l 0,2.35714 -0.83333,0 c -0.64633,0 -1.16667,0.36686 -1.16667,1 l 0,6.85714 c 0,0.63315 0.52034,1.14286 1.16667,1.14286 l 11.66666,0 c 0.64633,0 1.16667,-0.50971 1.16667,-1.14286 l 0,-6.85714 c 0,-0.63314 -0.52963,-0.89079 -1.16667,-1 l -0.83333,0 0,-2.35714 c 0,0 0.003,-4.6395 -5.00001,-4.64286 z m 0,3 c 2.00262,-0.003 2.00001,1.57143 2.00001,1.57143 l 0,2.42857 -4,0 0,-2.42857 c 0,0 0.003,-1.56807 1.99999,-1.57143 z" class="ColorScheme-Text"/>
 </g>
 <g transform="translate(-346.99759,310.00336)" style="display:inline;enable-background:new" id="16-16-kgpg">
  <rect y="-286" x="350" height="16" width="16" id="rect4258" style="opacity:0;fill:#ff7dff;fill-opacity:1;stroke:none;stroke-opacity:1"/>
  <g transform="translate(2.99739,-35.00336)" style="display:inline" id="layer9-4">
   <path style="fill:currentColor;fill-opacity:1" id="path5975-5" d="m 355.0002,-250 c -2.216,0 -4,1.82162 -4,4.0625 l 0,1.9375 -1,0 c -0.554,0 -1,0.446 -1,1 l 0,6 c 0,0.554 0.446,1 1,1 l 10,0 c 0.554,0 1,-0.446 1,-1 l 0,-6 c 0,-0.554 -0.446,-1 -1,-1 l -1,0 0,-1.9375 c 0,-2.24 -1.784,-4.0625 -4,-4.0625 z m 0,2 c 1.108,0 2,0.892 2,2 l 0,2 -4,0 0,-2 c 0,-1.108 0.892,-2 2,-2 z" class="ColorScheme-Text"/>
  </g>
 </g>
</svg>
