<svg xmlns="http://www.w3.org/2000/svg" xmlns:osb="http://www.openswatchbook.org/uri/2009/osb" id="svg7384" width="22" height="22" version="1.1" style="enable-background:new">
 <defs>
<style id="current-color-scheme" type="text/css">
   .ColorScheme-Text { color:#d3dae3; } .ColorScheme-Highlight { color:#5294e2; } .ColorScheme-ButtonBackground { color:#d3dae3; }
  </style>
 </defs>
 <g id="kgpg" transform="translate(-346.99759,257.00336)" style="display:inline;enable-background:new">
  <rect id="rect4192-0" width="22" height="22" x="347" y="-257" style="opacity:0;fill:#2b0000;fill-opacity:0.40392157;fill-rule:nonzero;stroke:none;stroke-width:1;stroke-linecap:round;stroke-linejoin:round;stroke-miterlimit:4;stroke-dasharray:none;stroke-dashoffset:0;stroke-opacity:1"/>
  <path class="ColorScheme-Text" style="fill:currentColor" id="path5975-0" d="M 11 3 C 5.99738 2.997 6 7.6425781 6 7.6425781 L 6 10 L 5.1660156 10 C 4.5196856 10 4 10.36686 4 11 L 4 17.857422 C 4 18.490572 4.5196856 19 5.1660156 19 L 16.833984 19 C 17.480314 19 18 18.490572 18 17.857422 L 18 11 C 18 10.36686 17.471024 10.10921 16.833984 10 L 16 10 L 16 7.6425781 C 16 7.6425781 16.00301 3.00336 11 3 z M 11 6 C 13.00262 5.997 13 7.5722656 13 7.5722656 L 13 10 L 9 10 L 9 7.5722656 C 9 7.5722656 9.00301 6.00336 11 6 z M 7 13 L 15 13 L 15 16 L 7 16 L 7 13 z" transform="translate(346.99759,-257.00336)"/>
 </g>
 <g id="16-16-kgpg" transform="translate(-346.99759,310.00336)" style="display:inline;enable-background:new">
  <rect id="rect4258" width="16" height="16" x="350" y="-286" style="opacity:0;fill:#ff7dff;fill-opacity:1;stroke:none;stroke-opacity:1"/>
  <g id="layer9-4" transform="translate(2.99739,-35.00336)" style="display:inline">
   <path class="ColorScheme-Text" style="fill:currentColor" id="path5975-5" d="M 11 25 C 8.784 25 7 26.82162 7 29.0625 L 7 31 L 6 31 C 5.446 31 5 31.446 5 32 L 5 38 C 5 38.554 5.446 39 6 39 L 16 39 C 16.554 39 17 38.554 17 38 L 17 32 C 17 31.446 16.554 31 16 31 L 15 31 L 15 29.0625 C 15 26.8225 13.216 25 11 25 z M 11 27 C 12.108 27 13 27.892 13 29 L 13 31 L 9 31 L 9 29 C 9 27.892 9.892 27 11 27 z M 7 33 L 15 33 L 15 37 L 7 37 L 7 33 z" transform="translate(344.0002,-275)"/>
  </g>
 </g>
</svg>
