<svg xmlns="http://www.w3.org/2000/svg" width="32" height="32" version="1">
 <defs>
  <style id="current-color-scheme" type="text/css">
   .ColorScheme-Background {color:#2f343f; } .ColorScheme-ButtonBackground { color:#444a58; } .ColorScheme-Highlight { color:#5294e2; } .ColorScheme-Text { color:#d3dae3; } .ColorScheme-NegativeText { color:#f44336; } .ColorScheme-PositiveText { color:#4caf50; } .ColorScheme-NeutralText { color:#ff9800; }
  </style>
 </defs>
 <g id="kleopatra">
  <rect style="opacity:0.001" width="32" height="32" x="0" y="0"/>
  <path style="fill:currentColor" class="ColorScheme-Text" d="M 10.400391 2 C 5.7467908 2 2 5.7467908 2 10.400391 L 2 21.599609 C 2 26.253209 5.7467908 30 10.400391 30 L 21.599609 30 C 26.253209 30 30 26.253209 30 21.599609 L 30 10.400391 C 30 5.7467908 26.253209 2 21.599609 2 L 10.400391 2 z M 14.009766 8 C 15.93937 8 17.624618 8.4432099 20.404297 9.6816406 C 22.999485 10.837873 23.42805 11.017578 25.152344 11.017578 C 25.92579 11.017578 26 11.076669 26 11.693359 L 26 12.134766 L 25.367188 12.132812 C 24.472277 12.129756 24.360487 12.172122 23.287109 11.896484 C 22.785224 11.767603 21.361268 11.390253 20.123047 10.935547 C 16.674948 9.6693151 14.727187 9.3375246 13.091797 9.4765625 C 12.032665 9.5666082 10.073467 10.092485 8.4804688 10.716797 C 6.1494967 11.630328 6.2442772 11.600549 6.1054688 11.460938 C 5.7119692 11.065171 6.4237525 10.379115 8.0878906 9.5449219 C 10.132355 8.5200791 12.121043 8 14.009766 8 z M 12.345703 12.005859 C 13.226448 11.973032 14.602557 12.08594 15.435547 12.304688 C 15.905265 12.428038 16.621191 12.741355 17.292969 13.001953 C 20.811069 14.366721 19.148205 13.886672 22.556641 13.976562 L 25 14.039062 L 25 15.453125 L 25 16.46875 L 22.892578 16.380859 C 21.766507 16.331579 22.893573 16.373906 22.214844 16.378906 C 21.009058 16.387616 20.935998 16.803203 18.962891 17.476562 C 17.852252 17.855592 16.287388 18.224182 15.855469 18.294922 C 14.353147 18.541019 14.002103 18.427289 14.578125 18.935547 C 15.412419 19.653714 17.111574 20.528343 18.632812 21.167969 C 20.962255 22.147416 22.959266 22.35107 23.304688 21.193359 C 23.41 20.840465 23.406052 20.689302 23.283203 20.4375 C 23.055239 19.970222 22.447293 19.66236 22.099609 19.75 C 21.395728 19.927397 21.27238 21.00461 21.917969 21.339844 C 22.535706 21.660617 23.073957 21.175092 22.876953 20.474609 C 22.81987 20.271624 22.828502 20.251697 22.919922 20.382812 C 23.125902 20.678235 23.053729 21.165764 22.763672 21.457031 C 22.068323 22.15527 21.021484 21.543977 21.021484 20.439453 C 21.021484 19.31408 22.201476 18.711678 23.265625 19.21875 C 23.844476 19.494574 24.081679 19.957859 24.082031 20.816406 C 24.082685 21.929835 23.001932 22.894531 22.146484 22.894531 C 19.926438 23.036657 17.62062 22.231602 15.574219 21.167969 C 15.105601 20.924401 14.56142 20.565349 13.810547 19.892578 L 13.068359 19.162109 C 13.063097 20.488042 12.980378 22.790573 12.253906 23.990234 C 11.783631 24.057179 11.781259 23.856389 11.578125 22.007812 C 11.523885 21.497045 11.304561 20.738394 11.609375 19.335938 L 11.609375 18.570312 L 10.070312 18.298828 C 9.098501 18.148407 7.8576451 18.001469 7.2246094 17.974609 C 6.1341302 17.928335 6.0714486 17.912797 6.0097656 17.666016 C 5.8727894 17.11799 7.2702299 14.945717 8.5078125 13.783203 C 9.3062309 13.033214 10.606146 12.293221 11.578125 12.089844 C 11.788866 12.045734 12.052123 12.016799 12.345703 12.005859 z M 16.337891 13.785156 C 16.297051 13.785155 16.263672 14.201729 16.263672 14.712891 C 16.263672 15.523862 16.224227 15.710171 15.955078 16.169922 C 15.785433 16.45971 15.481822 16.825646 15.28125 16.984375 L 14.916016 17.273438 L 15.253906 17.259766 C 16.621731 17.191575 17.461345 16.895281 18.876953 16.189453 C 19.571107 15.843344 20.140625 15.520396 20.140625 15.472656 C 20.140625 15.424914 20.018842 15.353646 19.871094 15.316406 C 19.723351 15.279168 18.835929 14.920774 17.898438 14.517578 C 16.960949 14.114385 16.378731 13.785156 16.337891 13.785156 z M 10.228516 14.027344 C 10.060384 14.059334 9.650997 14.385049 8.9746094 15.037109 C 8.0661866 15.912857 7.4462792 16.775892 7.5585938 16.888672 C 7.5899285 16.920137 8.4889452 17.033839 9.6445312 17.144531 L 11.818359 17.347656 L 11.353516 16.960938 C 10.645896 16.370706 10.399684 15.810609 10.396484 14.78125 C 10.394908 14.258182 10.396652 13.995364 10.228516 14.027344 z"/>
 </g>
 <g id="22-22-kleopatra" transform="translate(27,5)">
  <rect style="opacity:0.001" width="22" height="22" x="5" y="5"/>
  <path style="fill:currentColor" class="ColorScheme-Text" d="m 14.010006,7.9995466 c -1.888723,0 -3.877411,0.520079 -5.9218754,1.544922 -1.664138,0.8341934 -2.375921,1.5202504 -1.982422,1.9160164 0.138808,0.139611 0.04403,0.16939 2.375,-0.744141 1.5929984,-0.624312 3.5521964,-1.1501894 4.6113284,-1.2402344 1.63539,-0.139038 3.583151,0.192752 7.03125,1.4589844 1.238221,0.454706 2.662177,0.832056 3.164062,0.960937 1.073378,0.275638 1.185168,0.233272 2.080079,0.236328 l 0.632812,0.002 v -0.441407 c 0,-0.61669 -0.07421,-0.675781 -0.847656,-0.675781 -1.724294,0 -2.152859,-0.179705 -4.748047,-1.3359374 -2.779679,-1.238431 -4.464927,-1.681641 -6.394531,-1.681641 z m -1.664063,4.0058594 c -0.29358,0.01094 -0.556837,0.03988 -0.767578,0.08399 -0.971979,0.203377 -2.2718944,0.94337 -3.0703124,1.693359 -1.237583,1.162514 -2.635023,3.334787 -2.498047,3.882813 0.06168,0.246781 0.124364,0.262319 1.214844,0.308593 0.633035,0.02686 1.873891,0.173798 2.8457024,0.324219 l 1.539063,0.271484 v 0.765626 c -0.304814,1.402457 -0.08549,2.161107 -0.03125,2.671874 0.203134,1.848577 0.205506,2.049367 0.675781,1.982422 0.726472,-1.199661 0.809191,-3.502192 0.814453,-4.828125 l 0.742188,0.730469 c 0.750873,0.672771 1.295054,1.031823 1.763672,1.275391 2.046401,1.063633 4.352219,1.868688 6.572265,1.726562 0.855448,0 1.936201,-0.964696 1.935547,-2.078125 -3.52e-4,-0.858547 -0.237555,-1.321832 -0.816406,-1.597656 -1.064149,-0.507072 -2.244141,0.09533 -2.244141,1.220703 0,1.104524 1.046839,1.715817 1.742188,1.017578 0.290057,-0.291267 0.36223,-0.778797 0.15625,-1.074219 -0.09142,-0.131115 -0.100053,-0.111185 -0.04297,0.0918 0.197004,0.700483 -0.341247,1.186008 -0.958984,0.865235 -0.645589,-0.335234 -0.522241,-1.412447 0.18164,-1.589844 0.347684,-0.08764 0.95563,0.220222 1.183594,0.6875 0.122849,0.251802 0.126793,0.402965 0.02148,0.755859 -0.345422,1.157711 -2.342433,0.954057 -4.671876,-0.02539 -1.521238,-0.639626 -3.220393,-1.514255 -4.054687,-2.232422 -0.576022,-0.508258 -0.224978,-0.394528 1.277344,-0.640625 0.431919,-0.07074 1.996783,-0.439331 3.107422,-0.81836 1.973107,-0.673359 2.046167,-1.088946 3.251953,-1.097656 0.678729,-0.005 -0.448337,-0.04728 0.677734,0.002 l 2.107428,0.08784 v -1.015625 -1.414063 l -2.443359,-0.0625 c -3.408436,-0.08989 -1.745572,0.390159 -5.263672,-0.974609 -0.671778,-0.260598 -1.387704,-0.573915 -1.857422,-0.697265 -0.83299,-0.218748 -2.209099,-0.331656 -3.089844,-0.298829 z m 3.992188,1.779297 c 0.04084,0 0.623058,0.329229 1.560547,0.732422 0.937491,0.403196 1.824913,0.76159 1.972656,0.798828 0.147748,0.03724 0.269531,0.108508 0.269531,0.15625 0,0.04774 -0.569518,0.370688 -1.263672,0.716797 -1.415608,0.705828 -2.255222,1.002122 -3.623047,1.070313 l -0.33789,0.01367 0.365234,-0.289063 c 0.200572,-0.158729 0.504183,-0.524665 0.673828,-0.814453 0.269149,-0.459751 0.308594,-0.64606 0.308594,-1.457031 0,-0.511162 0.03338,-0.927736 0.07422,-0.927735 z m -6.109375,0.242188 c 0.168136,-0.03198 0.166392,0.230838 0.167968,0.753906 0.0032,1.029359 0.249412,1.589457 0.957032,2.179688 l 0.464843,0.386718 -2.1738284,-0.203125 c -1.155586,-0.110692 -2.054602,-0.224394 -2.085937,-0.255859 -0.112315,-0.11278 0.507593,-0.975815 1.416016,-1.851563 0.676387,-0.65206 1.0857744,-0.977775 1.2539064,-1.009765 z"/>
 </g>
</svg>
