<svg xmlns="http://www.w3.org/2000/svg" width="32" height="32" version="1.1">
 <defs>
  <style id="current-color-scheme" type="text/css">
   .ColorScheme-Background {color:#2f343f; } .ColorScheme-ButtonBackground { color:#444a58; } .ColorScheme-Highlight { color:#5294e2; } .ColorScheme-Text { color:#d3dae3; } .ColorScheme-NegativeText { color:#f44336; } .ColorScheme-PositiveText { color:#4caf50; } .ColorScheme-NeutralText { color:#ff9800; }
  </style>
 </defs>
 <g id="22-22-kteatime" transform="translate(27,5)">
  <rect style="opacity:0.001" width="22" height="22" x="5" y="5"/>
  <path style="fill:currentColor" class="ColorScheme-Text" d="M 14.610263,8 C 13.703192,7.9967334 12.78979,8.0780928 11.905018,8.2480469 8.9351317,8.8185244 6.8698141,10.202677 6.2130573,12.0625 c -0.2110505,0.597655 -0.2488872,0.988167 -0.1837377,1.902344 0.2220616,3.115804 1.3650375,5.816705 3.2720953,7.726562 1.2865251,1.288418 2.8841221,2.093137 4.5172121,2.277344 0.131555,0.01483 0.441273,0.02905 0.688039,0.03125 2.600359,-0.01575 5.210471,-1.939427 6.116793,-3.025 0.01497,-0.01718 0.394918,0.136874 0.497765,0.237023 0.817409,0.795987 2.035568,1.073624 2.982806,0.679688 1.501754,-0.624539 2.189571,-3.023459 1.77952,-4.608508 C 25.803057,16.97207 25.600675,16.535394 25.416387,16.277344 24.857963,15.495393 24.132431,15.00772 23.18925,15 c -0.390907,-0.0032 -0.36329,0.03618 -0.273651,-0.394531 0.09768,-0.469363 0.129963,-1.450123 0.07428,-1.800781 C 22.75129,11.302308 21.835494,10.070945 20.118487,9.2050781 18.569729,8.4240622 16.605821,8.0072059 14.610263,8 Z m -0.103597,1 c 3.592666,0 6.505097,1.790861 6.505097,4 0,2.209139 -2.912431,4 -6.505097,4 -3.592667,0 -6.5050976,-1.790861 -6.5050978,-4 2e-7,-2.209139 2.9124308,-4 6.5050978,-4 z m 8.737315,7.662109 c 0.06431,6.66e-4 0.129265,0.0062 0.195465,0.01758 0.768227,0.131637 0.965401,0.816829 0.856922,1.591796 -0.104744,0.748273 -0.307412,1.915763 -0.804145,2.08507 -0.265069,0.09036 -0.674716,0.03126 -0.948009,-0.136719 -0.264735,-0.162707 -0.49576,-0.441224 -0.590307,-0.708984 -0.0429,-0.121521 -0.04206,-0.13629 0.06841,-0.476562 0.06273,-0.193208 0.192659,-1.062479 0.287334,-1.444445 l 0.17201,-0.695313 0.181783,-0.08984 c 0.198534,-0.09792 0.387611,-0.144677 0.580533,-0.142579 z"/>
 </g>
 <g id="kteatime">
  <rect style="opacity:0.001" width="32" height="32" x="0" y="0"/>
  <path style="fill:currentColor" class="ColorScheme-Text" d="M 13.914062,4 C 12.553465,3.99505 11.184573,4.1181172 9.8574219,4.3730469 5.4026184,5.2287579 2.3034883,7.3040319 1.3183594,10.09375 1.001785,10.990227 0.94524488,11.576008 1.0429688,12.947266 c 0.3330896,4.67368 2.047633,8.725072 4.9082031,11.589843 1.9297765,1.932615 4.3257701,3.139706 6.7753901,3.416016 0.197332,0.02224 0.663056,0.04359 1.033204,0.04687 3.900516,-0.02363 7.816306,-2.908759 9.175781,-4.537109 0.02245,-0.02577 0.591826,0.205247 0.746094,0.355468 1.226107,1.193975 3.05376,1.610432 4.474609,1.019532 2.252618,-0.936804 3.283042,-4.134158 2.667969,-6.511719 -0.58422,-2.268555 -1.976615,-3.382449 -3.541016,-3.425781 -0.586358,-0.0048 -0.544613,0.05426 -0.410156,-0.591797 0.146519,-0.70404 0.194853,-2.57558 0.111328,-3.101563 C 26.626493,8.9534788 24.75323,7.1073869 22.177734,5.8085938 19.85461,4.6370767 16.907384,4.0108084 13.914062,4 Z m 0.08789,2 c 5.522846,0 10,2.6863085 10,6 0,3.313689 -4.477154,6 -10,6 -5.52285,0 -9.9999999,-2.686311 -9.9999999,-6 0,-3.3136915 4.4771499,-6 9.9999999,-6 z m 12.863281,11.193359 c 0.09646,9.98e-4 0.19367,0.0083 0.292969,0.02539 1.152334,0.197455 1.447873,1.226229 1.285156,2.388672 -0.157115,1.122404 -0.459982,2.872994 -1.205078,3.126953 -0.397601,0.135538 -1.011937,0.04689 -1.421875,-0.205078 -0.397099,-0.244059 -0.744899,-0.660862 -0.886718,-1.0625 -0.06435,-0.18228 -0.0622,-0.204439 0.103515,-0.714844 0.09409,-0.289811 0.289629,-1.595022 0.431641,-2.167969 l 0.257812,-1.042968 0.271485,-0.134766 c 0.297799,-0.146879 0.581712,-0.216037 0.871093,-0.21289 z"/>
 </g>
</svg>
