<svg xmlns="http://www.w3.org/2000/svg" xmlns:osb="http://www.openswatchbook.org/uri/2009/osb" id="svg7384" style="enable-background:new" width="22" height="22" version="1.1">
 <defs id="defs7386">
  <style id="current-color-scheme" type="text/css">
   .ColorScheme-Text { color:#d3dae3; } .ColorScheme-Highlight { color:#5294e2; } .ColorScheme-ButtonBackground { color:#d3dae3; }
  </style>
  <linearGradient id="linearGradient5606" osb:paint="solid">
   <stop id="stop5608" style="stop-color:currentColor;stop-opacity:1;" offset="0"/>
  </linearGradient>
 </defs>
 <g id="list-remove" transform="translate(-260.00082,5.00334)">
  <rect id="rect4169" style="opacity:0;fill:currentColor;fill-opacity:1;stroke:none;stroke-opacity:1" width="22" height="22" x="285" y="-5"/>
  <g id="g4154" style="enable-background:new" transform="translate(285.00081,-5.00334)">
   <g id="layer12-2" style="display:inline" transform="translate(-445.0004,125.00336)">
    <path id="path4140" style="opacity:1;fill:currentColor;fill-opacity:1;stroke:none;stroke-opacity:1" class="ColorScheme-Text" d="m 461.65725,-119.66021 a 8,8 0 0 0 -11.3137,0 8,8 0 0 0 0,11.3137 8,8 0 0 0 11.3137,0 8,8 0 0 0 0,-11.3137 z m -1.22362,3.34494 a 5,5 0 0 1 -0.8977,5.84744 5,5 0 0 1 -5.84329,0.89355 l 6.74099,-6.74099 z m -2.12547,-2.11717 -6.74099,6.74099 a 5,5 0 0 1 0.8977,-5.84744 5,5 0 0 1 5.84329,-0.89355 z"/>
   </g>
  </g>
 </g>
 <g id="list-add" transform="translate(-285.00081,5.00334)">
  <path id="rect4138" style="opacity:0;fill:currentColor;fill-opacity:1;fill-rule:nonzero;stroke:none;stroke-width:1;stroke-linecap:round;stroke-linejoin:round;stroke-miterlimit:4;stroke-dasharray:none;stroke-dashoffset:0;stroke-opacity:1" d="m 285.00081,-5.00334 22,0 0,22 -22,0 z"/>
  <path id="rect4179" style="opacity:1;fill:currentColor;fill-opacity:1;stroke:none;stroke-opacity:1" class="ColorScheme-Text" d="m 9,3 0,6 -6,0 0,4 6,0 0,6 4,0 0,-6 6,0 0,-4 -6,0 0,-6 -4,0 z" transform="translate(285.00081,-5.00334)"/>
 </g>
 <g id="16-16-list-remove" transform="translate(-285.00081,5.00334)">
  <rect id="rect4175" style="opacity:0;fill:#39ffff;fill-opacity:1;stroke:none;stroke-opacity:1" width="16" height="16" x="306" y="-26"/>
  <g id="g4155" style="enable-background:new" transform="translate(306.00095,-26.00332)">
   <g id="layer12-3" style="display:inline" transform="translate(-445.0004,119.00336)">
    <path id="path4992" style="font-style:normal;font-variant:normal;font-weight:normal;fill:currentColor;fill-opacity:1;stroke:none;stroke-width:2;marker:none;enable-background:accumulate" class="ColorScheme-Text" d="m 453.00026,-118.00338 c -3.86295,0 -7,3.13704 -7,7 0,3.86295 3.13705,7 7,7 3.86295,0 7,-3.13705 7,-7 0,-3.86296 -3.13705,-7 -7,-7 z m 0,2 c 1.01943,0 1.95898,0.28763 2.75,0.8125 l -6.9375,6.9375 c -0.52487,-0.79102 -0.8125,-1.73057 -0.8125,-2.75 0,-2.75926 2.24075,-5 5,-5 z m 4.1875,2.25 c 0.52487,0.79102 0.8125,1.73057 0.8125,2.75 0,2.75925 -2.24075,5 -5,5 -1.01943,0 -1.95898,-0.28763 -2.75,-0.8125 l 6.9375,-6.9375 z"/>
   </g>
  </g>
 </g>
 <g id="16-16-list-add" transform="translate(-285.00081,5.00334)">
  <rect id="rect4173" style="opacity:0;fill:#39ffff;fill-opacity:1;stroke:none;stroke-opacity:1" width="16" height="16" x="288" y="-26"/>
  <g id="g4169" style="enable-background:new" transform="translate(288.00081,-26.00334)">
   <g id="layer12-21" style="display:inline" transform="translate(-285.00081,-0.99666)">
    <path id="rect31992" style="display:inline;overflow:visible;visibility:visible;opacity:1;fill:currentColor;fill-opacity:1;stroke:none;stroke-width:1;marker:none" class="ColorScheme-Text" d="m 292.00081,3.99666 0,4 -4,0 0,2 4,0 0,4 2,0 0,-4 4,0 0,-2 -4,0 0,-4 -2,0 z"/>
   </g>
  </g>
 </g>
</svg>
