<svg xmlns="http://www.w3.org/2000/svg" xmlns:osb="http://www.openswatchbook.org/uri/2009/osb" id="svg7384" style="enable-background:new" width="22" height="22" version="1.1">
 <defs id="defs7386">
  <style id="current-color-scheme" type="text/css">
   .ColorScheme-Text { color:#d3dae3; } .ColorScheme-Highlight { color:#5294e2; } .ColorScheme-ButtonBackground { color:#d3dae3; }
  </style>
  <linearGradient id="linearGradient5606" osb:paint="solid">
   <stop id="stop5608" style="stop-color:currentColor;stop-opacity:1;" offset="0"/>
  </linearGradient>
 </defs>
 <g id="mail-unread" transform="translate(-467.00009,-135)">
  <path id="rect5719" style="opacity:1;fill:currentColor;fill-opacity:1;stroke:none;stroke-width:2;stroke-miterlimit:4;stroke-dasharray:none;stroke-opacity:1" class="ColorScheme-Text" d="m 472.00009,140 c -1.108,0 -2,0.892 -2,2 l 0,8 c 0,1.108 0.892,2 2,2 l 12,0 c 1.108,0 2,-0.892 2,-2 l 0,-8 c 0,-1.108 -0.892,-2 -2,-2 l -12,0 z m 0,2 6,3 6,-3 0,2 -6,3 -6,-3 0,-2 z"/>
  <path id="rect4138" style="opacity:0;fill:#2b0000;fill-opacity:0.40392157;fill-rule:nonzero;stroke:none;stroke-width:1;stroke-linecap:round;stroke-linejoin:round;stroke-miterlimit:4;stroke-dasharray:none;stroke-dashoffset:0;stroke-opacity:1" d="m 467.0002,135 22,0 0,22 -22,0 z"/>
 </g>
 <g id="mail-unread-new" transform="translate(-443.0002,-135)">
  <path id="path4145" style="opacity:1;fill:currentColor;fill-opacity:1;stroke:none;stroke-width:2;stroke-miterlimit:4;stroke-dasharray:none;stroke-opacity:1" class="ColorScheme-Text" d="m 472.00009,140 c -1.108,0 -2,0.892 -2,2 l 0,8 c 0,1.108 0.892,2 2,2 l 12,0 c 1.108,0 2,-0.892 2,-2 l 0,-8 c 0,-1.108 -0.892,-2 -2,-2 l -12,0 z m 0,2 6,3 6,-3 0,2 -6,3 -6,-3 0,-2 z"/>
  <path id="path4147" style="opacity:0;fill:#2b0000;fill-opacity:0.40392157;fill-rule:nonzero;stroke:none;stroke-width:1;stroke-linecap:round;stroke-linejoin:round;stroke-miterlimit:4;stroke-dasharray:none;stroke-dashoffset:0;stroke-opacity:1" d="m 467.0002,135 22,0 0,22 -22,0 z"/>
 </g>
 <g id="mail-mark-unread-new" transform="translate(-419.0002,-135)">
  <path id="path4146" style="opacity:1;fill:currentColor;fill-opacity:1;stroke:none;stroke-width:2;stroke-miterlimit:4;stroke-dasharray:none;stroke-opacity:1" class="ColorScheme-Text" d="m 472.00009,140 c -1.108,0 -2,0.892 -2,2 l 0,8 c 0,1.108 0.892,2 2,2 l 12,0 c 1.108,0 2,-0.892 2,-2 l 0,-8 c 0,-1.108 -0.892,-2 -2,-2 l -12,0 z m 0,2 6,3 6,-3 0,2 -6,3 -6,-3 0,-2 z"/>
  <path id="path4148" style="opacity:0;fill:#2b0000;fill-opacity:0.40392157;fill-rule:nonzero;stroke:none;stroke-width:1;stroke-linecap:round;stroke-linejoin:round;stroke-miterlimit:4;stroke-dasharray:none;stroke-dashoffset:0;stroke-opacity:1" d="m 467.0002,135 22,0 0,22 -22,0 z"/>
 </g>
</svg>
