<svg xmlns="http://www.w3.org/2000/svg" width="32" height="32" version="1.1">
 <defs>
  <style id="current-color-scheme" type="text/css">
   .ColorScheme-Background {color:#2f343f; } .ColorScheme-ButtonBackground { color:#444a58; } .ColorScheme-Highlight { color:#5294e2; } .ColorScheme-Text { color:#d3dae3; } .ColorScheme-NegativeText { color:#f44336; } .ColorScheme-PositiveText { color:#4caf50; } .ColorScheme-NeutralText { color:#ff9800; }
  </style>
 </defs>
 <g id="22-22-nulloy" transform="translate(27,5.0000005)">
  <rect style="opacity:0.001" width="22" height="22" x="5" y="5"/>
  <path style="fill:currentColor" class="ColorScheme-Text" d="m 7.8007812,8 0.015625,0.109375 c 0.38758,2.568739 0.6101395,4.688491 0.8984376,5.976563 0.2882979,1.288071 0.646903,2.055427 1.3203122,2.480468 0.673409,0.42504 1.632521,0.497668 3.107422,0.451172 1.474902,-0.04647 3.470212,-0.41522 6.22461,-0.5 l 0.08984,-0.002 -0.01172,-0.08594 C 19.18584,14.455564 19.099433,12.986687 18.923828,12.001953 18.748223,11.017214 18.473372,10.402694 17.84375,9.9863281 17.214126,9.5699601 16.249941,9.3509211 14.683594,9.0957031 13.117248,8.8404851 10.946504,8.5523653 7.9082031,8.0195312 Z M 21,8 c -1.101094,0 -2,0.8931412 -2,2 0,1.106982 0.898917,2 2,2 1.101083,0 2,-0.893018 2,-2 0,-1.1068588 -0.898906,-2 -2,-2 z m 3.230469,3.529297 -0.16211,0.0957 c -1.297474,0.775815 -2.256257,0.91491 -2.998047,1.322266 -0.370893,0.203677 -0.685086,0.478048 -0.941406,0.925781 -0.256321,0.447738 -0.457447,1.065933 -0.61914,1.966797 l -0.02344,0.138672 0.128906,-0.04883 c 2.014055,-0.753822 2.909082,-0.820274 3.451172,-1.212891 0.271046,-0.196312 0.438077,-0.473804 0.591797,-0.933594 0.153721,-0.459789 0.297716,-1.10737 0.527344,-2.070312 z m -0.166016,3.371094 -0.214844,0.07031 c -2.152232,0.718146 -3.034326,0.924717 -3.486328,1.253906 -0.226003,0.16459 -0.333616,0.365254 -0.416015,0.648438 -0.0824,0.283189 -0.146477,0.65599 -0.294922,1.199219 l -0.03516,0.126953 0.128906,-0.0293 c 1.303416,-0.287641 1.903723,-0.35643 2.412109,-0.714844 0.508386,-0.358413 0.893709,-0.983894 1.783203,-2.365234 z m -4.546875,2.039062 -0.109375,0.0078 c -3.273446,0.17059 -4.97801,0.192331 -6.113281,0.917968 -0.567635,0.362799 -0.978567,0.949706 -1.353516,1.894532 -0.374949,0.944826 -0.719444,1.920856 -1.158203,3.746093 l -0.03125,0.132813 0.130859,-0.03906 c 1.953683,-0.573969 3.339572,-0.822115 4.351563,-0.984375 1.011989,-0.162254 1.653327,-0.23478 2.128906,-0.476562 0.47558,-0.241783 0.762858,-0.653913 1.048828,-1.44336 0.285969,-0.789448 0.578918,-1.835053 1.076172,-3.648437 z m 3.929688,0.07617 c -0.961323,1.008581 -1.781951,1.19094 -2.417969,1.414063 -0.31801,0.111564 -0.594522,0.235462 -0.802735,0.482421 -0.208213,0.246958 -0.34213,0.608529 -0.394531,1.181641 l -0.0078,0.09961 0.09766,-0.01172 c 1.169105,-0.151304 1.825311,-0.268194 2.322266,-0.685547 0.496955,-0.417353 0.813565,-1.113546 1.333984,-2.396485 z m -11.78711,1.886719 -0.142578,0.03711 c -1.484411,0.371915 -2.1690519,0.827698 -2.5937499,1.582031 -0.424698,0.754333 -0.5954657,1.784385 -1.1054687,3.330078 L 7.7695312,24 7.9199219,23.949219 c 0.67387,-0.222834 1.1517931,-0.383803 1.5175781,-0.566407 0.365785,-0.182576 0.620186,-0.389667 0.826172,-0.697265 0.411972,-0.61519 0.64305,-1.607648 1.347656,-3.646485 z m 11.472656,0.902344 -0.144531,0.05469 c -1.191389,0.453627 -1.8455,0.656192 -2.203125,0.966797 -0.178813,0.155303 -0.2777,0.342515 -0.3125,0.582031 -0.0348,0.239516 -0.012,0.257178 0.03516,0.646485 l 0.0098,0.08984 0.08789,-0.02148 c 0.406632,-0.102815 0.702196,-0.1021 0.939453,-0.0918 0.237255,0.0103 0.423722,0.03653 0.597656,-0.04492 0.173933,-0.08146 0.306779,-0.262931 0.447266,-0.613281 0.140486,-0.350356 0.292452,-0.606726 0.503906,-1.419922 z"/>
 </g>
 <g id="nulloy">
  <rect style="opacity:0.001" width="32" height="32" x="0" y="0"/>
  <path style="fill:currentColor" class="ColorScheme-Text" d="m 3.3008757,4 0.023437,0.1640625 c 0.5813699,3.8531084 0.9152091,7.0327355 1.3476562,8.9648445 0.4324469,1.932106 0.9703546,3.08314 1.9804683,3.720701 1.0101134,0.63756 2.4487814,0.746502 4.6611338,0.676759 2.212353,-0.0697 5.205317,-0.622831 9.336914,-0.75 l 0.134761,-0.003 -0.01758,-0.12891 C 20.378463,13.683346 20.248852,11.48003 19.985444,10.00293 19.722037,8.5258208 19.30976,7.6040408 18.365327,6.979492 17.420893,6.3549401 15.974615,6.0263816 13.625095,5.6435546 11.275575,5.2607276 8.0194596,4.828548 3.4620085,4.0292968 Z M 23.099703,4 c -1.651641,0 -3.000001,1.3397117 -3.000001,2.9999999 0,1.6604729 1.348375,2.9999998 3.000001,2.9999998 1.651624,0 2.999999,-1.3395269 2.999999,-2.9999998 C 26.099702,5.3397117 24.751344,4 23.099703,4 Z m 4.845704,5.2939453 -0.243166,0.14355 c -1.94621,1.1637217 -3.384385,1.3723647 -4.497069,1.9833987 -0.556339,0.305516 -1.027629,0.717072 -1.412109,1.388672 -0.384482,0.671607 -0.686172,1.598899 -0.92871,2.950195 l -0.03516,0.208008 0.193359,-0.07324 c 3.021083,-1.130733 4.363623,-1.230411 5.176758,-1.819336 0.406569,-0.294468 0.657115,-0.710706 0.887695,-1.400391 0.230582,-0.689683 0.446574,-1.661055 0.791016,-3.1054681 z m -0.249025,5.0566407 -0.322266,0.105465 c -3.228348,1.077219 -4.551489,1.387076 -5.229491,1.880859 -0.339005,0.246885 -0.500425,0.547881 -0.624023,0.972657 -0.1236,0.424783 -0.219715,0.983985 -0.442382,1.798828 l -0.05274,0.19043 0.19336,-0.04395 c 1.955124,-0.431462 2.855584,-0.534646 3.618164,-1.072266 0.762578,-0.53762 1.340563,-1.475841 2.674803,-3.547851 z m -6.820313,3.058593 -0.164062,0.0117 c -4.910168,0.255886 -7.467013,0.288497 -9.169919,1.376952 -0.851453,0.544198 -1.467851,1.424559 -2.030276,2.841798 -0.5624229,1.417239 -1.0791654,2.881283 -1.7373038,5.61914 l -0.046875,0.199219 0.1962884,-0.05859 c 2.9305254,-0.860953 5.0093594,-1.233173 6.5273454,-1.476563 1.517984,-0.243381 2.47999,-0.35217 3.193359,-0.714843 0.713369,-0.362674 1.144286,-0.980869 1.573241,-2.16504 0.428954,-1.184172 0.868377,-2.752579 1.614258,-5.472655 z m 5.894533,0.114255 c -1.441985,1.512872 -2.672928,1.78641 -3.626955,2.121094 -0.477015,0.167347 -0.891781,0.353193 -1.204101,0.723632 -0.31232,0.370437 -0.513195,0.912793 -0.591797,1.772461 l -0.01169,0.149415 0.14649,-0.01758 c 1.753657,-0.226956 2.737966,-0.402291 3.483399,-1.028321 0.745432,-0.626028 1.220348,-1.670318 2.000976,-3.594727 z M 9.0899376,20.353512 8.8760707,20.409179 C 6.6494542,20.967051 5.6224929,21.650725 4.9854459,22.782225 4.3483989,23.913724 4.0922475,25.458802 3.327243,27.777342 L 3.254,28 3.4795861,27.92383 C 4.490391,27.589579 5.2072756,27.348125 5.7559532,27.074219 6.3046306,26.800355 6.6862321,26.489719 6.9952111,26.028321 7.613169,25.105536 7.959786,23.61685 9.016695,20.558594 Z m 17.2089824,1.353516 -0.216796,0.08204 c -1.787084,0.680441 -2.768249,0.984288 -3.304687,1.450195 -0.26822,0.232955 -0.41655,0.513773 -0.46875,0.873047 -0.0522,0.359274 -0.018,0.385767 0.05274,0.969728 l 0.01469,0.13476 0.131835,-0.03222 c 0.609948,-0.154222 1.053294,-0.15315 1.409179,-0.137699 0.355883,0.01545 0.635583,0.0548 0.896485,-0.06738 0.260898,-0.12219 0.460169,-0.394397 0.670898,-0.919922 0.210729,-0.525534 0.438678,-0.910089 0.755859,-2.129882 z"/>
 </g>
</svg>
