<svg xmlns="http://www.w3.org/2000/svg" xmlns:osb="http://www.openswatchbook.org/uri/2009/osb" id="svg7384" width="32" height="32" version="1.1" style="enable-background:new">
<defs id="defs8">
  <style id="current-color-scheme" type="text/css">
   .ColorScheme-Text { color:#d3dae3; } .ColorScheme-Highlight { color:#5294e2; } .ColorScheme-ButtonBackground { color:#d3dae3; }
  </style>
 </defs>
 <g id="office-chart-pie">
  <rect id="rect4167" width="32" height="32" x="0" y="0" style="opacity:0.00100002;fill:#000000;fill-opacity:1;fill-rule:evenodd;stroke:none;stroke-width:6;stroke-linecap:round;stroke-linejoin:round;stroke-miterlimit:4;stroke-dasharray:none;stroke-opacity:1"/>
  <g id="g4" transform="translate(-0.50048095,-1.2566081e-6)">
   <path id="path8" d="M 15.5,2 C 14.192803,2.018684 13.259768,2.8058961 12.822266,4.109375 L 12.839844,4.0507812 10.785156,10 3.859375,10 C 3.844274,9.9997578 3.829554,9.9997578 3.814453,10 2.9873264,10.02681 2.2422602,10.512609 1.7167968,11.152344 0.58037578,12.45684 0.82058787,14.810325 2.2636718,15.783203 l 5.4453125,3.978516 -2.1132813,6.566406 c -0.00235,0.0073 -0.00365,0.01418 -0.00586,0.02148 -0.322905,1.060759 -0.019257,2.152805 0.7929687,2.900391 0.0059,0.0055 0.011568,0.01218 0.017578,0.01758 0.9760412,0.867686 2.348922,0.977964 3.4511719,0.259766 0.02097,-0.01357 0.040337,-0.02832 0.060547,-0.04297 L 15.5,25.5 l 5.587891,3.984375 c 0.02021,0.01466 0.03958,0.02941 0.06055,0.04297 1.10225,0.718198 2.475129,0.60792 3.451171,-0.259766 0.006,-0.0054 0.01167,-0.01206 0.01758,-0.01758 0.812225,-0.747586 1.115873,-1.839632 0.792968,-2.900391 -0.0022,-0.0073 -0.0035,-0.01421 -0.0059,-0.02148 l -2.113281,-6.566406 5.445312,-3.978516 C 30.179412,14.810325 30.419624,12.45684 29.283203,11.152344 28.75774,10.512609 28.012674,10.02681 27.185547,10 c -0.0151,-2.422e-4 -0.02982,-2.422e-4 -0.04492,0 l -6.925781,0 -2.054688,-5.9492188 0.01758,0.058594 C 17.740232,2.8058961 16.807197,2.018684 15.5,2 Z" transform="translate(0.49999991,0)" style="fill:currentColor" class="ColorScheme-Text"/>
  </g>
 </g>
</svg>
