<svg xmlns="http://www.w3.org/2000/svg" width="32" height="32" version="1.1">
 <defs>
  <style id="current-color-scheme" type="text/css">
   .ColorScheme-Background {color:#2f343f; } .ColorScheme-ButtonBackground { color:#444a58; } .ColorScheme-Highlight { color:#5294e2; } .ColorScheme-Text { color:#d3dae3; } .ColorScheme-NegativeText { color:#f44336; } .ColorScheme-PositiveText { color:#4caf50; } .ColorScheme-NeutralText { color:#ff9800; }
  </style>
 </defs>
 <g id="office-chart-pie">
  <rect style="opacity:0.001" width="32" height="32" x="0" y="0"/>
  <g transform="translate(-0.50048095,-1.2566081e-6)">
   <path style="fill:currentColor" class="ColorScheme-Text" transform="translate(0.50048095,1.2566081e-6)" d="M 15.5 2 C 14.192803 2.018684 13.259768 2.8058961 12.822266 4.109375 L 12.839844 4.0507812 L 10.785156 10 L 3.859375 10 C 3.844274 9.9997578 3.8295541 9.9997578 3.8144531 10 C 2.9873265 10.02681 2.2422603 10.512609 1.7167969 11.152344 C 0.58037585 12.45684 0.82058794 14.810325 2.2636719 15.783203 L 7.7089844 19.761719 L 5.5957031 26.328125 C 5.5933531 26.335425 5.5920537 26.342309 5.5898438 26.349609 C 5.2669387 27.410368 5.5705868 28.502414 6.3828125 29.25 C 6.3887125 29.2555 6.3943806 29.262178 6.4003906 29.267578 C 7.3764318 30.135264 8.7493126 30.245542 9.8515625 29.527344 C 9.8725325 29.513774 9.8918994 29.499025 9.9121094 29.484375 L 15.5 25.5 L 21.087891 29.484375 C 21.108101 29.499035 21.127467 29.513784 21.148438 29.527344 C 22.250688 30.245542 23.623567 30.135264 24.599609 29.267578 C 24.605609 29.262178 24.611277 29.25552 24.617188 29.25 C 25.429413 28.502414 25.733061 27.410368 25.410156 26.349609 C 25.407956 26.342309 25.406697 26.335395 25.404297 26.328125 L 23.291016 19.761719 L 28.736328 15.783203 C 30.179449 14.810322 30.419624 12.45684 29.283203 11.152344 C 28.75774 10.512609 28.012674 10.02681 27.185547 10 C 27.170447 9.9997578 27.155725 9.9997578 27.140625 10 L 20.214844 10 L 18.160156 4.0507812 L 18.177734 4.109375 C 17.740228 2.8058959 16.807197 2.018684 15.5 2 z M 15.5 5.5390625 L 18.076172 13 L 26.910156 13 C 26.920715 13.00951 26.926938 13.010491 26.964844 13.056641 L 26.992188 13.089844 L 27.021484 13.123047 C 26.846489 12.92217 26.770238 13.489317 27.058594 13.294922 L 27.011719 13.328125 L 19.771484 18.617188 L 22.380859 26.720703 L 15.5 21.816406 L 8.6210938 26.720703 L 11.228516 18.617188 L 3.9882812 13.328125 L 3.9414062 13.294922 C 4.2298037 13.48935 4.1535116 12.92217 3.9785156 13.123047 L 4.0078125 13.089844 L 4.0351562 13.056641 C 4.0728507 13.010746 4.0771966 13.009606 4.0878906 13 L 12.923828 13 L 15.5 5.5390625 z M 22.541016 27.222656 L 22.552734 27.257812 L 22.554688 27.269531 C 22.491879 27.079285 22.504904 27.106495 22.541016 27.222656 z"/>
  </g>
 </g>
</svg>
