<svg xmlns="http://www.w3.org/2000/svg" width="32" height="32" version="1">
 <defs>
  <style id="current-color-scheme" type="text/css">
   .ColorScheme-Background {color:#2f343f; } .ColorScheme-ButtonBackground { color:#444a58; } .ColorScheme-Highlight { color:#5294e2; } .ColorScheme-Text { color:#d3dae3; } .ColorScheme-NegativeText { color:#f44336; } .ColorScheme-PositiveText { color:#4caf50; } .ColorScheme-NeutralText { color:#ff9800; }
  </style>
 </defs>
 <g id="22-22-org.rnd2.cpupower_gui" transform="translate(32,10)">
  <rect style="opacity:0.001" width="22" height="22" x="0" y="0"/>
  <path style="fill:currentColor" class="ColorScheme-Text" d="M 7,3 V 5 H 5.8007812 C 5.3575812,5 5,5.3575812 5,5.8007812 V 7 H 3 v 2 h 2 v 1 H 3 v 2 h 2 v 1 H 3 v 2 h 2 v 1.199219 C 5,16.642419 5.3575812,17 5.8007812,17 H 7 v 2 h 2 v -2 h 1 v 2 h 2 v -2 h 1 v 2 h 2 v -2 h 1.199219 C 16.642419,17 17,16.642419 17,16.199219 V 15 h 2 v -2 h -2 v -1 h 2 V 10 H 17 V 9 h 2 V 7 H 17 V 5.8007812 C 17,5.3575812 16.642419,5 16.199219,5 H 15 V 3 H 13 V 5 H 12 V 3 H 10 V 5 H 9 V 3 Z m 5.726562,3 -1.037109,4 H 13.5 L 9.2734375,16 10.310547,12 H 8.5 Z"/>
 </g>
 <g id="org.rnd2.cpupower_gui">
  <rect style="opacity:0.001" width="32" height="32" x="0" y="0"/>
  <path style="fill:currentColor" class="ColorScheme-Text" d="M 5,3 V 4.0253906 H 4.99805 C 4.5089355,4.1249707 4.1249707,4.5108887 4.0253906,5 H 3 V 6 H 4 V 8 H 3 v 1 h 1 v 2 H 3 v 1 h 1 v 2 H 3 v 1 h 1 v 2 H 3 v 1 h 1 v 2 H 3 v 1 h 1 v 2 H 3 v 1 h 1 v 2 H 3 v 1 h 1.0253906 v 0.002 C 4.1249707,27.491064 4.5108887,27.875029 5,27.974609 V 29 h 1 v -1 h 2 v 1 h 1 v -1 h 2 v 1 h 1 v -1 h 2 v 1 h 1 v -1 h 2 v 1 h 1 v -1 h 2 v 1 h 1 v -1 h 2 v 1 h 1 v -1 h 2 v 1 h 1 v -1.025391 h 0.002 C 27.491064,27.875029 27.875029,27.489111 27.974609,27 H 29 v -1 h -1 v -2 h 1 v -1 h -1 v -2 h 1 v -1 h -1 v -2 h 1 v -1 h -1 v -2 h 1 v -1 h -1 v -2 h 1 V 11 H 28 V 9 h 1 V 8 H 28 V 6 h 1 V 5 H 27.974609 V 4.99805 C 27.875029,4.5089355 27.489111,4.1249707 27,4.0253906 V 3 H 26 V 4 H 24 V 3 H 23 V 4 H 21 V 3 H 20 V 4 H 18 V 3 H 17 V 4 H 15 V 3 H 14 V 4 H 12 V 3 H 11 V 4 H 9 V 3 H 8 V 4 H 6 V 3 Z m 14.109375,4 -1.869141,8 H 20.5 l -7.609375,10 1.869141,-8 H 11.5 Z"/>
 </g>
</svg>
