<svg xmlns="http://www.w3.org/2000/svg" width="32" height="32" version="1.1">
 <defs>
  <style id="current-color-scheme" type="text/css">
   .ColorScheme-Background {color:#2f343f; } .ColorScheme-ButtonBackground { color:#444a58; } .ColorScheme-Highlight { color:#5294e2; } .ColorScheme-Text { color:#d3dae3; } .ColorScheme-NegativeText { color:#f44336; } .ColorScheme-PositiveText { color:#4caf50; } .ColorScheme-NeutralText { color:#ff9800; }
  </style>
 </defs>
 <g id="22-22-phone" transform="translate(0,-22)">
  <rect style="opacity:0.001" width="22" height="22" x="0" y="0" rx="0" ry="0"/>
  <path style="fill:currentColor" class="ColorScheme-Text" transform="translate(-32,-9.9999997)" d="m 39,13 c -1,0 -1,1 -1,1 v 14 c 0,0 0,1 1,1 h 8 c 1,0 1,-1 1,-1 V 14 c 0,0 0,-1 -1,-1 z m 7,3 v 9 h -6 v -8.998047 z m -3.5,10 h 0.5 0.5 c 0.277,0 0.5,0.223 0.5,0.5 V 27 27.5 C 44,27.777 43.777,28 43.5,28 H 43 42.5 C 42.223,28 42,27.777 42,27.5 V 27 26.5 C 42,26.223 42.223,26 42.5,26 Z"/>
 </g>
 <g id="22-22-phone-battery" transform="translate(2,-22)">
  <rect style="opacity:0.001" width="22" height="22" x="30" y="0" rx="0" ry="0"/>
  <path style="fill:currentColor" class="ColorScheme-NegativeText" transform="translate(-2,22)" d="m 39,-19 c -1,0 -1,1 -1,1 v 14 c 0,0 0,1 1,1 h 8 c 1,0 1,-1 1,-1 v -14 c 0,0 0,-1 -1,-1 z m 4,3 h 3 v 9 h -6 v -8.998047 h 3 z m 0,0.002 -2,4.998 h 2 v 3 l 2,-4 H 43 Z M 42.5,-6 h 1 c 0.277,0 0.5,0.223 0.5,0.5 v 1 c 0,0.277 -0.223,0.5 -0.5,0.5 h -1 C 42.223,-4 42,-4.223 42,-4.5 v -1 C 42,-5.777 42.223,-6 42.5,-6 Z"/>
 </g>
 <g id="phone">
  <rect style="opacity:0.001" width="32" height="32" x="0" y="0" rx="0" ry="0"/>
  <path style="fill:currentColor" class="ColorScheme-Text" d="M 9.5,4 C 8.000001,4 8,5.5 8,5.5 v 21 c 0,0 10e-7,1.5 1.5,1.5 h 12 C 23,28 23,26.5 23,26.5 V 5.5 C 23,5.5 23,4 21.5,4 Z M 20,8 V 22 H 11 V 8.0039062 Z m -5.25,15 h 0.75 0.75 c 0.415499,0 0.75,0.3345 0.75,0.75 v 0.75 0.75 C 17,25.6655 16.665499,26 16.25,26 H 15.5 14.75 C 14.3345,26 14,25.6655 14,25.25 V 24.5 23.75 C 14,23.3345 14.3345,23 14.75,23 Z"/>
 </g>
 <g id="phone-battery">
  <rect style="opacity:0.001" width="32" height="32" x="32" y="0" rx="0" ry="0"/>
  <path style="fill:currentColor" class="ColorScheme-NegativeText" d="M 41.5 4 C 40.000001 4 40 5.5 40 5.5 L 40 26.5 C 40 26.5 40.000001 28 41.5 28 L 53.5 28 C 55 28 55 26.5 55 26.5 L 55 5.5 C 55 5.5 55 4 53.5 4 L 41.5 4 z M 52 8 L 52 22 L 43 22 L 43 8.0039062 L 52 8 z M 48 9 L 44.5 17 L 47 17 L 47 21 L 50.5 14.998047 L 48 14.998047 L 48 9 z M 46.75 23 L 47.5 23 L 48.25 23 C 48.665499 23 49 23.3345 49 23.75 L 49 24.5 L 49 25.25 C 49 25.6655 48.665499 26 48.25 26 L 47.5 26 L 46.75 26 C 46.3345 26 46 25.6655 46 25.25 L 46 24.5 L 46 23.75 C 46 23.3345 46.3345 23 46.75 23 z"/>
 </g>
</svg>
