<svg xmlns="http://www.w3.org/2000/svg" id="svg4153" width="22" height="22" version="1.1" viewBox="0 0 22 22">
 <defs id="defs4157">
  <style id="current-color-scheme" type="text/css">
   .ColorScheme-Text { color:#d3dae3; } .ColorScheme-Highlight { color:#5294e2; } .ColorScheme-ButtonBackground { color:#d3dae3; }
  </style>
 </defs>
 <g id="software-updates-updates" transform="translate(27,0)">
  <rect id="rect4163" style="opacity:0;fill:#7a0000;fill-opacity:1;stroke:none;stroke-opacity:1" width="22" height="22" x="0" y="0"/>
  <path id="path4163" style="opacity:1;fill:currentColor;fill-opacity:1;stroke:none;stroke-opacity:1" class="ColorScheme-Text" d="M 10.761719,3.0136719 A 8,8 0 0 0 4.0722656,7 8,8 0 0 0 5.3984375,16.703125 L 6.4433594,14.892578 A 6,6 0 0 1 5.8046875,8 6,6 0 0 1 12.09375,5.1074219 L 13.134766,3.3027344 A 8,8 0 0 0 10.761719,3.0136719 Z"/>
  <path id="path4161" style="opacity:1;fill:currentColor;fill-opacity:1;stroke:none;stroke-opacity:1" class="ColorScheme-Text" d="M 16.601562,5.296875 15.556641,7.1074219 A 6,6 0 0 1 16.195312,14 6,6 0 0 1 9.90625,16.892578 L 8.8652344,18.697266 A 8,8 0 0 0 17.927734,15 8,8 0 0 0 16.601562,5.296875 Z"/>
  <path id="path4159" style="opacity:1;fill:currentColor;fill-opacity:1;stroke:none;stroke-opacity:1" class="ColorScheme-Highlight" d="m 10,7 0,5 2,0 0,-5 -2,0 z"/>
  <path id="path4148" style="opacity:1;fill:currentColor;fill-opacity:1;stroke:none;stroke-opacity:1" class="ColorScheme-Highlight" d="m 11,13 a 1,1 0 0 0 -1,1 1,1 0 0 0 1,1 1,1 0 0 0 1,-1 1,1 0 0 0 -1,-1 z"/>
 </g>
 <g id="software-updates-additional">
  <rect id="rect4172" style="opacity:0;fill:#7a0000;fill-opacity:1;stroke:none;stroke-opacity:1" width="22" height="22" x="0" y="0"/>
  <path id="path4173" style="opacity:1;fill:currentColor;fill-opacity:1;stroke:none;stroke-opacity:1" class="ColorScheme-Text" d="M 10.761719,3.0136719 A 8,8 0 0 0 4.072266,7 8,8 0 0 0 5.398438,16.703125 L 6.443359,14.892578 A 6,6 0 0 1 5.804688,8 6,6 0 0 1 12.09375,5.1074219 L 13.134766,3.3027344 A 8,8 0 0 0 10.761719,3.0136719 Z"/>
  <path id="path4171" style="opacity:1;fill:currentColor;fill-opacity:1;stroke:none;stroke-opacity:1" class="ColorScheme-Text" d="M 16.601562,5.296875 15.556641,7.1074219 A 6,6 0 0 1 16.195312,14 6,6 0 0 1 9.90625,16.892578 L 8.865234,18.697266 A 8,8 0 0 0 17.927734,15 8,8 0 0 0 16.601562,5.296875 Z"/>
  <path id="path4169" style="opacity:1;fill:currentColor;fill-opacity:1;stroke:none;stroke-opacity:1" class="ColorScheme-Highlight" d="M 8,10 A 1,1 0 0 0 7,11 1,1 0 0 0 8,12 1,1 0 0 0 9,11 1,1 0 0 0 8,10 Z"/>
  <path id="path4167" style="opacity:1;fill:currentColor;fill-opacity:1;stroke:none;stroke-opacity:1" class="ColorScheme-Highlight" d="m 11,10 a 1,1 0 0 0 -1,1 1,1 0 0 0 1,1 1,1 0 0 0 1,-1 1,1 0 0 0 -1,-1 z"/>
  <path id="path4174" style="opacity:1;fill:currentColor;fill-opacity:1;stroke:none;stroke-opacity:1" class="ColorScheme-Highlight" d="m 14,10 a 1,1 0 0 0 -1,1 1,1 0 0 0 1,1 1,1 0 0 0 1,-1 1,1 0 0 0 -1,-1 z"/>
 </g>
 <g id="software-updates-security" transform="translate(54,0)">
  <rect id="rect4204" style="opacity:0;fill:#7a0000;fill-opacity:1;stroke:none;stroke-opacity:1" width="22" height="22" x="0" y="0"/>
  <path id="path4155" style="opacity:1;fill:currentColor;fill-opacity:1;stroke:none;stroke-opacity:1" class="ColorScheme-Text" d="M 10.761719,3.0136719 A 8,8 0 0 0 4.0722656,7 8,8 0 0 0 5.3984375,16.703125 L 6.4433594,14.892578 A 6,6 0 0 1 5.8046875,8 6,6 0 0 1 12.09375,5.1074219 L 13.134766,3.3027344 A 8,8 0 0 0 10.761719,3.0136719 Z"/>
  <path id="path4153" style="opacity:1;fill:currentColor;fill-opacity:1;stroke:none;stroke-opacity:1" class="ColorScheme-Text" d="M 16.601562,5.296875 15.556641,7.1074219 A 6,6 0 0 1 16.195312,14 6,6 0 0 1 9.90625,16.892578 L 8.8652344,18.697266 A 8,8 0 0 0 17.927734,15 8,8 0 0 0 16.601562,5.296875 Z"/>
  <path id="path4151" style="opacity:1;fill:currentColor;fill-opacity:1;stroke:none;stroke-opacity:1" class="ColorScheme-Highlight" d="m 10,7 0,5 2,0 0,-5 -2,0 z"/>
  <path id="path4206" style="opacity:1;fill:currentColor;fill-opacity:1;stroke:none;stroke-opacity:1" class="ColorScheme-Highlight" d="m 11,13 a 1,1 0 0 0 -1,1 1,1 0 0 0 1,1 1,1 0 0 0 1,-1 1,1 0 0 0 -1,-1 z"/>
 </g>
 <g id="software-updates-inactive" transform="translate(82.3,0)">
  <rect id="rect4210" style="opacity:0;fill:#7a0000;fill-opacity:1;stroke:none;stroke-opacity:1" width="22" height="22" x="0" y="0"/>
  <path id="path4220" style="opacity:1;fill:currentColor;fill-opacity:1;stroke:none;stroke-opacity:1" class="ColorScheme-Text" d="M 66.0625,3.0136719 A 8,8 0 0 0 59.373047,7 a 8,8 0 0 0 1.326172,9.703125 l 1.044922,-1.810547 A 6,6 0 0 1 61.105469,8 6,6 0 0 1 67.394531,5.1074219 L 68.435547,3.3027344 A 8,8 0 0 0 66.0625,3.0136719 Z M 71.902344,5.296875 70.857422,7.1074219 A 6,6 0 0 1 71.496094,14 6,6 0 0 1 65.207031,16.892578 l -1.041015,1.804688 A 8,8 0 0 0 73.228516,15 8,8 0 0 0 71.902344,5.296875 Z" transform="translate(-55.3,0)"/>
 </g>
 <g id="software-updates-release" transform="translate(-22,0)">
  <rect id="rect4198" style="opacity:0;fill:#7a0000;fill-opacity:1;stroke:none;stroke-opacity:1" width="22" height="22" x="0" y="0"/>
  <path id="path4181" style="opacity:1;fill:currentColor;fill-opacity:1;stroke:none;stroke-opacity:1" class="ColorScheme-Text" d="M 10.761719,3.0136719 A 8,8 0 0 0 4.0722656,7 8,8 0 0 0 5.3984375,16.703125 L 6.4433594,14.892578 A 6,6 0 0 1 5.8046875,8 6,6 0 0 1 12.09375,5.1074219 L 13.134766,3.3027344 A 8,8 0 0 0 10.761719,3.0136719 Z"/>
  <path id="path4179" style="opacity:1;fill:currentColor;fill-opacity:1;stroke:none;stroke-opacity:1" class="ColorScheme-Text" d="M 16.601562,5.296875 15.556641,7.1074219 A 6,6 0 0 1 16.195312,14 6,6 0 0 1 9.90625,16.892578 L 8.8652344,18.697266 A 8,8 0 0 0 17.927734,15 8,8 0 0 0 16.601562,5.296875 Z"/>
  <path id="path4177" style="opacity:1;fill:currentColor;fill-opacity:1;stroke:none;stroke-opacity:1" class="ColorScheme-Highlight" d="m 10,7 0,5 2,0 0,-5 -2,0 z"/>
  <path id="path4200" style="opacity:1;fill:currentColor;fill-opacity:1;stroke:none;stroke-opacity:1" class="ColorScheme-Highlight" d="m 11,13 a 1,1 0 0 0 -1,1 1,1 0 0 0 1,1 1,1 0 0 0 1,-1 1,1 0 0 0 -1,-1 z"/>
 </g>
</svg>
