<svg xmlns="http://www.w3.org/2000/svg" width="32" height="32" version="1.1">
 <defs>
  <style id="current-color-scheme" type="text/css">
   .ColorScheme-Background {color:#2f343f; } .ColorScheme-ButtonBackground { color:#444a58; } .ColorScheme-Highlight { color:#5294e2; } .ColorScheme-Text { color:#d3dae3; } .ColorScheme-NegativeText { color:#f44336; } .ColorScheme-PositiveText { color:#4caf50; } .ColorScheme-NeutralText { color:#ff9800; }
  </style>
 </defs>
 <g id="22-22-start-here-kde" transform="translate(27,5.0000005)">
  <rect style="opacity:0.001" width="22" height="22" x="5" y="5"/>
  <path style="fill:currentColor" class="ColorScheme-Text" d="m 17.007931,8.000006 -3.01305,0.5245581 V 18.894826 l 2.997438,-0.386106 -0.01562,-4.674223 3.536041,5.173431 3.473594,-0.499208 -3.996585,-5.354784 4.010245,-4.4928697 -3.516526,-0.6474102 -3.506769,4.4928699 z m -6.336382,2.648141 c -0.02894,0.0024 -0.05625,0.01509 -0.07806,0.03705 l -1.0342725,1.045216 c -0.044912,0.04523 -0.052405,0.115739 -0.017565,0.169653 l 1.2489325,1.91688 c -0.235608,0.417818 -0.41363,0.875932 -0.528845,1.355271 L 8.1053789,15.700675 C 8.0455199,15.715355 8,15.769425 8,15.831327 v 0.680561 0.680561 c 0,0.0619 0.045521,0.115975 0.1053789,0.130651 l 2.1563601,0.528459 c 0.115215,0.47934 0.293237,0.937455 0.528845,1.355272 l -1.2489325,1.91688 c -0.03484,0.05391 -0.027347,0.124425 0.017565,0.169652 l 1.0342725,1.045217 c 0.0436,0.04393 0.111261,0.04755 0.163922,0.01559 l 1.957312,-1.199264 c 0.384,0.223545 0.984668,0.403397 1.422612,0.522608 l 0.458593,2.213284 C 14.608668,23.954698 14.659458,24 14.722773,24 h 0.770825 0.770825 c 0.06333,0 0.114105,-0.0453 0.126846,-0.109202 l 0.458592,-2.213284 c 0.437944,-0.119211 1.038614,-0.299063 1.422612,-0.522608 l 1.957311,1.199268 c 0.05266,0.03195 0.120319,0.02834 0.163923,-0.0156 l 1.034272,-1.045217 c 0.04491,-0.04523 0.05241,-0.115738 0.01757,-0.169652 l -1.040126,-1.597076 -0.128797,0.0195 -0.729844,-1.068616 c -0.745428,1.561485 -2.321859,2.556557 -4.053177,2.55844 -2.483159,0 -4.496158,-2.011527 -4.496158,-4.492871 0.0014,-1.705422 0.969019,-3.263001 2.497864,-4.020965 v -0.980866 c -0.284995,0.09495 -0.565029,0.202121 -0.780583,0.327606 l -1.957312,-1.199269 c -0.02633,-0.01598 -0.05692,-0.02385 -0.08587,-0.02145 z"/>
 </g>
 <g id="start-here-kde">
  <rect style="opacity:0.001" width="32" height="32" x="0" y="0"/>
  <path style="fill:currentColor" class="ColorScheme-Text" d="M 17.021484 4 L 13 4.7617188 L 13 19.835938 L 17 19.273438 L 16.978516 12.480469 L 22.121094 20 L 26.980469 19.273438 L 21.388672 11.492188 L 27 4.9609375 L 22.080078 4.0195312 L 16.978516 10.550781 L 17.021484 4 z M 7.8867188 8.5800781 C 7.8446238 8.5835681 7.8032082 8.6008705 7.7714844 8.6328125 L 6.2675781 10.154297 C 6.2022521 10.220087 6.1915115 10.321971 6.2421875 10.400391 L 8.0585938 13.1875 C 7.7158911 13.795235 7.4566479 14.462936 7.2890625 15.160156 L 4.1523438 15.927734 C 4.0652758 15.949084 4 16.029102 4 16.119141 L 4 17.107422 L 4 18.097656 C 4 18.187696 4.0652774 18.267715 4.1523438 18.289062 L 7.2890625 19.056641 C 7.4566479 19.753863 7.7158912 20.41961 8.0585938 21.027344 L 6.2421875 23.816406 C 6.1915115 23.894816 6.2022521 23.996716 6.2675781 24.0625 L 7.7714844 25.583984 C 7.8349024 25.647884 7.9351208 25.651949 8.0117188 25.605469 L 10.857422 23.861328 C 11.415968 24.186485 12.290725 24.447697 12.927734 24.621094 L 13.59375 27.841797 C 13.61228 27.934747 13.687205 28 13.779297 28 L 14.900391 28 L 16.021484 28 C 16.113604 28 16.186545 27.934746 16.205078 27.841797 L 16.873047 24.621094 C 17.510057 24.447697 18.382864 24.186485 18.941406 23.861328 L 21.789062 25.605469 C 21.865662 25.651939 21.96392 25.647894 22.027344 25.583984 L 23.53125 24.0625 C 23.59657 23.99671 23.607311 23.894826 23.556641 23.816406 L 22.044922 21.494141 L 21.857422 21.521484 L 19.892578 18.582031 A 5.5 5.5 0 0 1 14.5 23 A 5.5 5.5 0 0 1 9 17.5 A 5.5 5.5 0 0 1 11.994141 12.603516 L 11.994141 9.8789062 C 11.5796 10.017016 11.170955 10.172946 10.857422 10.355469 L 8.0117188 8.609375 C 7.9734206 8.586131 7.9288276 8.5765871 7.8867188 8.5800781 z"/>
 </g>
</svg>
