<svg xmlns="http://www.w3.org/2000/svg" width="32" height="32" version="1">
 <defs>
  <style id="current-color-scheme" type="text/css">
   .ColorScheme-Background {color:#2f343f; } .ColorScheme-ButtonBackground { color:#444a58; } .ColorScheme-Highlight { color:#5294e2; } .ColorScheme-Text { color:#d3dae3; } .ColorScheme-NegativeText { color:#f44336; } .ColorScheme-PositiveText { color:#4caf50; } .ColorScheme-NeutralText { color:#ff9800; }
  </style>
 </defs>
 <g id="22-22-strawberry" transform="translate(27,5)">
  <rect style="opacity:0.001" width="22" height="22" x="5" y="5"/>
  <path style="fill:currentColor" class="ColorScheme-Text" d="m 17.087373,8.0000204 c -0.08879,0 -0.115275,0.181015 -0.06055,0.4199219 0,0 0.15734,0.7619523 1.21289,1.3203126 0.734159,0.3629501 0.733731,0.5733741 -0.0039,0.7910151 -0.321469,0.09485 -0.713233,0.273527 -0.86914,0.398438 -0.257133,0.206014 -0.163188,0.290926 1.009765,0.916016 0.711194,0.379009 1.425049,0.800284 1.585938,0.935546 0.279332,0.23484 0.267634,0.267203 -0.277344,0.722657 -0.608397,0.508453 -1.328125,1.697155 -1.328125,2.193359 0,0.268262 0.119072,0.291638 1.121094,0.207031 0.616429,-0.05205 1.293297,-0.118481 1.505859,-0.146485 l 0.386719,-0.05078 -0.05469,1.34961 c -0.03035,0.74213 -0.11895,1.534076 -0.197265,1.759765 -0.07831,0.22569 -0.110753,0.44416 -0.07227,0.486328 0.162017,0.17752 0.822036,-0.213548 1.275391,-0.755859 0.463478,-0.554422 0.493251,-0.566767 0.591796,-0.226563 0.331871,0.609879 0.479188,1.145229 0.994141,1.679688 0.114993,0.01131 0.201612,-0.136263 0.275391,-0.439453 0.227139,-0.933414 0.10531,-1.836435 -0.373047,-2.769531 -0.257766,-0.502807 -0.509504,-1.295915 -0.560544,-1.76172 -0.05104,-0.465805 -0.134056,-1.006569 -0.185547,-1.203125 -0.07824,-0.298677 0.07175,-0.474213 0.921875,-1.0625 0.967991,-0.669843 1.219598,-1.050925 0.853516,-1.298828 -0.09096,-0.06159 -0.571545,0.125064 -1.066406,0.414063 -0.494862,0.288997 -0.996348,0.52539 -1.115235,0.52539 -0.118886,0 -0.491278,-0.362572 -0.828125,-0.804687 -0.585419,-0.768368 -0.613281,-0.856185 -0.613281,-1.9902345 0,-1.0775592 -0.03025,-1.1900385 -0.326172,-1.2363282 -0.239184,-0.037414 -0.378069,0.085476 -0.521484,0.4648437 -0.107448,0.2842238 -0.24821,0.5175783 -0.314453,0.5175783 -0.06624,0 -0.727156,-0.3050905 -1.466797,-0.6777345 -0.739656,-0.372642 -1.414223,-0.6777344 -1.5,-0.6777344 z M 16.214326,9.041036 c -0.06635,0.00626 -0.09727,0.00375 -0.171875,0.011719 -2.442654,0.2609121 -4.479565,1.774117 -6.8105454,5.054687 -0.703828,0.990553 -1.608029,2.261654 -2.009766,2.826172 -1.692378,2.378122 -1.620267,4.819444 0.173828,5.845703 1.159538,0.663275 2.2790505,0.925376 4.0527344,0.951172 0.891515,0.01295 2.198516,0.07777 2.902343,0.142578 1.963706,0.180839 2.209599,0.17624 3.591796,-0.06445 1.546994,-0.269402 2.73888,-0.83045 3.697266,-1.738282 0.38599,-0.365628 0.852472,-1.062621 1.242187,-1.771484 -0.135912,-0.219608 -0.216507,-0.4261 -0.328124,-0.648437 -0.157601,0.132513 -0.299836,0.304158 -0.46875,0.404297 -0.180998,0.107295 -0.360995,0.200902 -0.619141,0.257812 -0.258146,0.05691 -0.766022,0.09377 -1.158203,-0.335938 -0.347774,-0.381028 -0.272544,-0.5705 -0.277344,-0.697265 -0.0048,-0.126766 0.0069,-0.213818 0.01953,-0.298828 0.02531,-0.170015 0.06514,-0.3253 0.123047,-0.492188 -0.04121,0.118766 0.03562,-0.17892 0.06836,-0.470703 0.03274,-0.291783 0.06203,-0.656165 0.07617,-1.001953 l 0.0078,-0.189453 c -0.271467,0.02598 -0.456151,0.04825 -0.763672,0.07422 -0.511484,0.04319 -0.771607,0.09436 -1.201172,0.01563 -0.214783,-0.03938 -0.573515,-0.17616 -0.791016,-0.488282 -0.217487,-0.312122 -0.21289,-0.589621 -0.21289,-0.730468 0,-0.731649 0.279178,-1.112467 0.580078,-1.609375 0.205027,-0.338552 0.485638,-0.625314 0.753921,-0.919931 -0.242262,-0.139885 -0.503947,-0.290632 -0.783203,-0.439453 -0.593302,-0.316182 -0.88868,-0.435186 -1.242187,-0.755859 -0.08838,-0.08017 -0.19239,-0.183471 -0.28711,-0.365235 -0.09471,-0.181763 -0.156162,-0.472623 -0.107422,-0.724609 0.09749,-0.503973 0.359035,-0.641389 0.472657,-0.732422 0.112319,-0.08999 0.214211,-0.09022 0.318359,-0.1523436 C 16.848776,9.7982547 16.526626,9.6066959 16.403779,9.4199424 16.314328,9.2839572 16.267074,9.1618983 16.214326,9.041036 Z m -1.023437,2.96875 c 0.107057,-0.01419 0.212149,-0.01409 0.308594,0.002 0.128594,0.02139 0.243532,0.07166 0.330078,0.158203 0.346183,0.346185 0.119025,1.134882 -0.265625,1.519531 -0.384649,0.384656 -0.978035,0.416501 -1.324219,0.07032 -0.346185,-0.346185 -0.31434,-0.939569 0.07031,-1.324218 0.216366,-0.216366 0.559689,-0.383218 0.880859,-0.425782 z m -4,2 c 0.107057,-0.01419 0.212149,-0.01409 0.308594,0.002 0.128594,0.02139 0.243532,0.07166 0.330078,0.158203 0.346185,0.346188 0.119025,1.134884 -0.265625,1.519534 -0.38465,0.38465 -0.978034,0.416498 -1.324219,0.07031 -0.3461849,-0.346176 -0.3143379,-0.939566 0.07031,-1.324216 0.216365,-0.216365 0.559689,-0.383218 0.880859,-0.425781 z m 3,2 c 0.107056,-0.01419 0.212148,-0.01414 0.308594,0.002 0.128593,0.02139 0.243531,0.07166 0.330078,0.158203 0.346185,0.346186 0.119026,1.134882 -0.265625,1.519531 -0.384649,0.384649 -0.978034,0.416497 -1.324219,0.07031 -0.346185,-0.346185 -0.314336,-0.939569 0.07031,-1.324219 0.216366,-0.216366 0.55969,-0.383218 0.880859,-0.425781 z m 3.999999,1 c 0.107057,-0.01419 0.212149,-0.01414 0.308594,0.002 0.128594,0.02139 0.243532,0.07166 0.330078,0.158203 0.346185,0.346185 0.119025,1.134881 -0.265625,1.519531 -0.38465,0.384649 -0.978035,0.416497 -1.324219,0.07031 -0.346185,-0.346185 -0.314338,-0.939568 0.07031,-1.324219 0.216367,-0.216365 0.55969,-0.383218 0.880859,-0.425781 z m -8.9999984,1 c 0.107057,-0.01419 0.212148,-0.01414 0.308594,0.002 0.1285935,0.02139 0.2435315,0.07166 0.3300775,0.158203 0.3461849,0.346185 0.119025,1.134881 -0.265625,1.519531 -0.3846485,0.384649 -0.9780335,0.416497 -1.3242185,0.07031 -0.346185,-0.346185 -0.314336,-0.939569 0.07031,-1.324219 0.216366,-0.216366 0.55969,-0.383218 0.88086,-0.425781 z m 3.9999994,2 c 0.107057,-0.01419 0.212148,-0.01414 0.308594,0.002 0.128594,0.02139 0.243532,0.07166 0.330078,0.158203 0.346185,0.346186 0.119026,1.134881 -0.265625,1.519531 -0.384649,0.384649 -0.978035,0.416497 -1.324219,0.07031 -0.346185,-0.346186 -0.314337,-0.939571 0.07031,-1.324219 0.216366,-0.216366 0.55969,-0.383218 0.88086,-0.425781 z m 2.999999,1 c 0.107057,-0.01419 0.212149,-0.01414 0.308594,0.002 0.128594,0.02139 0.243532,0.07166 0.330078,0.158203 0.346185,0.346184 0.119025,1.13488 -0.265625,1.519531 -0.384651,0.38465 -0.978033,0.416497 -1.324218,0.07031 -0.346184,-0.346186 -0.314338,-0.939569 0.07031,-1.324219 0.216367,-0.216365 0.55969,-0.383218 0.880858,-0.425781 z"/>
 </g>
 <g id="strawberry">
  <rect style="opacity:0.001" width="32" height="32" x="0" y="0"/>
  <path style="fill:currentColor" class="ColorScheme-Text" d="M 19.132812 4 C 18.999637 4 18.960886 4.2572517 19.042969 4.5957031 C 19.042969 4.5957031 19.277997 5.6738333 20.861328 6.4648438 C 21.96257 6.9790237 21.962027 7.2776118 20.855469 7.5859375 C 20.373265 7.7203027 19.786597 7.9753873 19.552734 8.1523438 C 19.167034 8.4441964 19.308922 8.5636754 21.068359 9.4492188 C 22.135154 9.9861498 23.203979 10.581815 23.445312 10.773438 C 23.864314 11.106127 23.846768 11.153602 23.029297 11.798828 C 22.116699 12.519138 21.037109 14.203293 21.037109 14.90625 C 21.037109 15.286285 21.213759 15.317128 22.716797 15.197266 C 23.641445 15.123536 24.659672 15.029905 24.978516 14.990234 L 25.558594 14.917969 L 25.474609 16.830078 C 25.429089 17.881431 25.297159 19.00254 25.179688 19.322266 C 25.062219 19.641993 25.012587 19.951983 25.070312 20.011719 C 25.313339 20.263207 26.304341 19.709681 26.984375 18.941406 C 27.679595 18.155975 27.723276 18.139137 27.871094 18.621094 C 28.368903 19.485088 28.59085 20.24285 29.363281 21 C 29.535771 21.01601 29.666676 20.806473 29.777344 20.376953 C 30.118055 19.054618 29.936288 17.775012 29.21875 16.453125 C 28.832093 15.740816 28.451562 14.618875 28.375 13.958984 C 28.29844 13.299094 28.172938 12.530406 28.095703 12.251953 C 27.978339 11.828825 28.205263 11.581454 29.480469 10.748047 C 30.932461 9.7991019 31.30889 9.2593986 30.759766 8.9082031 C 30.62333 8.8209461 29.904405 9.0847256 29.162109 9.4941406 C 28.419817 9.9035536 27.666612 10.238281 27.488281 10.238281 C 27.309951 10.238281 26.749413 9.7259384 26.244141 9.0996094 C 25.366008 8.0110886 25.326172 7.8878208 25.326172 6.28125 C 25.326172 4.7547079 25.281782 4.5929208 24.837891 4.5273438 C 24.479113 4.4743407 24.269813 4.6500626 24.054688 5.1875 C 23.893515 5.5901505 23.681396 5.9199219 23.582031 5.9199219 C 23.482661 5.9199219 22.49423 5.4868967 21.384766 4.9589844 C 20.27537 4.431077 19.261481 4 19.132812 4 z M 17.103516 5.0566406 C 16.969219 5.0688728 16.896004 5.0642077 16.736328 5.0820312 C 13.152314 5.482096 10.162348 7.7998698 6.7421875 12.830078 C 5.709488 14.348924 4.3824211 16.300422 3.7929688 17.166016 C 1.3098056 20.81247 1.4164206 24.555316 4.0488281 26.128906 C 5.7501736 27.14593 7.393635 27.548343 9.9960938 27.587891 C 11.30418 27.607761 13.219253 27.705305 14.251953 27.804688 C 17.133224 28.081971 17.495393 28.076114 19.523438 27.707031 C 21.793284 27.29395 23.543015 26.43302 24.949219 25.041016 C 25.675266 24.322298 26.576964 22.78416 27.199219 21.427734 C 27.182753 21.402353 27.16514 21.376961 27.148438 21.351562 C 27.039721 21.421971 26.952577 21.540396 26.839844 21.603516 C 26.540102 21.771338 26.237477 21.923008 25.783203 22.017578 C 25.32893 22.112153 24.421214 22.218196 23.632812 21.402344 C 22.91872 20.663387 23.056775 20.251259 23.046875 20.003906 C 23.037025 19.756553 23.060544 19.601865 23.083984 19.453125 C 23.130867 19.155646 23.200801 18.904933 23.300781 18.632812 C 23.182782 18.953983 23.320327 18.509685 23.367188 18.115234 C 23.400627 17.833724 23.422973 17.478652 23.445312 17.136719 C 23.223439 17.155359 23.104875 17.171283 22.876953 17.189453 C 22.105629 17.250963 21.726546 17.339512 20.972656 17.208984 C 20.595711 17.143721 19.922121 16.917635 19.478516 16.316406 C 19.034909 15.715178 19.037109 15.157504 19.037109 14.90625 C 19.037109 13.53079 19.525898 13.027871 20.005859 12.279297 C 20.186798 11.997095 20.469424 11.772824 20.677734 11.505859 C 20.49965 11.412959 20.349682 11.327788 20.167969 11.236328 C 19.274881 10.786828 18.85088 10.648974 18.205078 10.095703 C 18.043628 9.9573856 17.843912 9.7781018 17.648438 9.4238281 C 17.452962 9.0695544 17.31463 8.4652682 17.419922 7.9511719 C 17.581859 7.1605019 17.895106 6.8958618 18.134766 6.7265625 C 18.032838 6.6058881 17.797917 6.4934226 17.716797 6.3769531 C 17.294511 5.7706584 17.115271 5.1008463 17.103516 5.0566406 z M 15.947266 10.001953 C 16.261606 9.9877382 16.549411 10.06113 16.744141 10.255859 C 17.263418 10.775136 16.922679 11.95818 16.345703 12.535156 C 15.76873 13.11213 14.880604 13.157948 14.361328 12.638672 C 13.842051 12.119394 13.887868 11.23127 14.464844 10.654297 C 14.825454 10.293688 15.423366 10.025645 15.947266 10.001953 z M 8.9472656 14.001953 C 9.2616057 13.987738 9.5494116 14.06113 9.7441406 14.255859 C 10.263418 14.775136 9.9226793 15.958181 9.3457031 16.535156 C 8.7687289 17.112131 7.8806048 17.157949 7.3613281 16.638672 C 6.8420507 16.119395 6.8878681 15.231272 7.4648438 14.654297 C 7.8254535 14.293688 8.4233654 14.025645 8.9472656 14.001953 z M 13.947266 15.001953 C 14.261606 14.987738 14.549411 15.06113 14.744141 15.255859 C 15.263418 15.775136 14.92268 16.95818 14.345703 17.535156 C 13.768729 18.11213 12.880604 18.157948 12.361328 17.638672 C 11.842051 17.119394 11.887868 16.23127 12.464844 15.654297 C 12.825454 15.293687 13.423366 15.025645 13.947266 15.001953 z M 20.947266 18.001953 C 21.261606 17.987738 21.549412 18.06113 21.744141 18.255859 C 22.263419 18.775136 21.922679 19.958181 21.345703 20.535156 C 20.768728 21.11213 19.880605 21.157948 19.361328 20.638672 C 18.842052 20.119394 18.887869 19.231272 19.464844 18.654297 C 19.825454 18.293688 20.423366 18.025645 20.947266 18.001953 z M 6.9472656 20.001953 C 7.2616058 19.987738 7.5494116 20.06113 7.7441406 20.255859 C 8.2634181 20.775136 7.922679 21.95818 7.3457031 22.535156 C 6.768729 23.11213 5.8806049 23.157948 5.3613281 22.638672 C 4.8420504 22.119394 4.887869 21.23127 5.4648438 20.654297 C 5.8254536 20.293687 6.4233653 20.025645 6.9472656 20.001953 z M 12.947266 22.001953 C 13.261606 21.987738 13.549412 22.061131 13.744141 22.255859 C 14.263418 22.775135 13.922678 23.958182 13.345703 24.535156 C 12.768729 25.11213 11.880604 25.157948 11.361328 24.638672 C 10.842051 24.119394 10.887868 23.231272 11.464844 22.654297 C 11.825454 22.293688 12.423366 22.025645 12.947266 22.001953 z M 18.947266 23.001953 C 19.261606 22.987738 19.549411 23.06113 19.744141 23.255859 C 20.263418 23.775136 19.922679 24.958181 19.345703 25.535156 C 18.768729 26.11213 17.880604 26.157948 17.361328 25.638672 C 16.842051 25.119394 16.887868 24.231271 17.464844 23.654297 C 17.825454 23.293688 18.423366 23.025645 18.947266 23.001953 z"/>
 </g>
</svg>
