<svg xmlns="http://www.w3.org/2000/svg" id="svg2" width="32" height="32" version="1.1" viewBox="0 0 32 32">
 <defs id="defs87">
  <style id="current-color-scheme" type="text/css">
   .ColorScheme-Text { color:#d3dae3; } .ColorScheme-Highlight { color:#5294e2; } .ColorScheme-ButtonBackground { color:#d3dae3; }
  </style>
 </defs>
 <g id="22-22-system-suspend" transform="translate(-21.999999,-988.36218)">
  <rect id="rect4222" width="22" height="22" x="0" y="1030.36" style="opacity:0.001;fill:currentColor;fill-opacity:1;stroke:none;stroke-width:2;stroke-linecap:round;stroke-linejoin:round;stroke-miterlimit:4;stroke-dasharray:none;stroke-opacity:1"/>
  <g id="g4380" transform="matrix(1.0009385,0,0,0.99883233,-322.31608,1012.4029)" style="display:inline;opacity:1;fill:currentColor;fill-opacity:1">
   <path id="path4398" class="ColorScheme-Text" d="M 8.0449219,2 C 5.4709885,1.9800034 3.1612109,3.6075004 2.3203125,6.0351562 2.0969331,6.6800174 1.9985687,7.3426625 2,8 1.9989991,8.6573375 2.0969831,9.3199826 2.3203125,9.9648438 3.1612109,12.3925 5.4709885,14.02 8.0449219,14 10.618845,13.980003 12.900212,12.315429 13.703125,9.875 13.906195,9.2577756 14.001361,8.6263907 14,8 14.001001,7.3736093 13.906205,6.7422244 13.703125,6.125 12.900212,3.684571 10.618845,2.0199966 8.0449219,2 Z M 8.0292969,3.9980469 C 9.7515617,4.0114312 11.263538,5.1131547 11.800781,6.7460938 11.936599,7.1589011 12.00029,7.582557 12,8 12.00029,8.417443 11.936639,8.8410989 11.800781,9.2539062 11.263538,10.886845 9.7515617,11.988573 8.0292969,12.001953 6.307032,12.015337 4.7736051,10.936893 4.2109375,9.3125 4.0615674,8.8812761 3.9955932,8.4378711 3.9960938,8 3.9955932,7.5621289 4.0615574,7.1187239 4.2109375,6.6875 4.7736051,5.0631071 6.307032,3.9846625 8.0292969,3.9980469 Z M 5.8554688,7 C 5.3807835,7 5,7.446 5,8 5,8.554 5.3807835,9 5.8554688,9 L 10.142578,9 C 10.61726,9 11,8.554 11,8 11,7.446 10.61726,7 10.142578,7 L 5.8554688,7 Z" transform="matrix(0.99906238,0,0,1.001169,325.01106,20.983802)" style="fill:currentColor"/>
  </g>
 </g>
 <g id="22-22-system-switch-user" transform="translate(1e-6,-988.36218)">
  <rect id="rect4220" width="22" height="22" x="0" y="1030.36" style="opacity:0.001;fill:currentColor;fill-opacity:1;stroke:none;stroke-width:2;stroke-linecap:round;stroke-linejoin:round;stroke-miterlimit:4;stroke-dasharray:none;stroke-opacity:1"/>
  <path id="path4481" class="ColorScheme-Text" d="m 10.9943,1035.362 c -1.8700303,0 -3.3939153,1.5345 -3.4492153,3.4512 -0.0459,0.012 -0.0915,0.033 -0.13476,0.055 -0.43005,0.227 -0.54034,0.9343 -0.2461,1.5899 0.23672,0.5274 0.65753,0.8538 1.03906,0.8437 0.28723,1.7528 1.430425,3.0606 2.7910153,3.0606 l 0.0117,0 c 1.36059,0 2.5038,-1.3078 2.79102,-3.0606 0.38154,0.01 0.80234,-0.3163 1.03906,-0.8437 0.29424,-0.6556 0.18394,-1.3629 -0.24609,-1.5899 -0.0433,-0.023 -0.0888,-0.044 -0.13477,-0.055 -0.0553,-1.9167 -1.57919,-3.4512 -3.44922,-3.4512 l -0.0117,0 z m 2.40039,8 c -0.28889,0.7005 -1.27408,1.2246 -2.44922,1.2246 -1.1698503,0 -2.1455953,-0.5173 -2.4394453,-1.2129 -2.46908,0.2581 -4.26818,0.8896 -4.48438,1.6367 -0.003,0.01 0.002,0.016 0,0.024 -0.007,0.026 -0.007,0.049 -0.01,0.076 -10e-4,0.012 -0.0117,0.021 -0.0117,0.035 -9e-5,0 0,0.011 0,0.012 l 0,1.8477 c 0,0.1976 0.15571,0.3574 0.34961,0.3574 l 13.3007853,0 c 0.1939,0 0.3496,-0.1598 0.3496,-0.3574 l 0,-1.8477 c 0,-0.01 3.5e-4,-0.015 0,-0.023 -0.002,-0.043 -0.0208,-0.081 -0.0332,-0.123 -0.22075,-0.7563 -2.05842,-1.3964 -4.57226,-1.6484 z" style="fill:currentColor"/>
 </g>
 <g id="22-22-system-shutdown" transform="translate(-43.999999,-988.36218)">
  <rect id="rect4229" width="22" height="22" x="0" y="1030.36" style="opacity:0.001;fill:currentColor;fill-opacity:1;stroke:none;stroke-width:2;stroke-linecap:round;stroke-linejoin:round;stroke-miterlimit:4;stroke-dasharray:none;stroke-opacity:1"/>
  <path id="rect4324" class="ColorScheme-Text" d="m 11.000336,1034.362 c -0.553987,0 -0.99995,0.4462 -0.99995,1 l 0,5.0019 c 0,0.5538 0.445963,0.9981 0.99995,0.9981 0.553988,0 0.99995,-0.4443 0.99995,-0.9981 l 0,-5.0019 c 0,-0.5538 -0.445962,-1 -0.99995,-1 z m 2.939305,1.9902 a 1.000176,0.99982748 0 0 0 -0.542942,1.8086 c 1.377976,1.0304 1.941017,2.8148 1.404226,4.4492 -0.536779,1.6344 -2.050513,2.7386 -3.771293,2.752 -1.7207811,0.013 -3.2501263,-1.0675 -3.8123083,-2.6934 -0.562183,-1.6258 -0.02587,-3.419 1.335869,-4.4707 a 1.000176,0.99982748 0 1 0 -1.222594,-1.582 c -2.035135,1.5718 -2.842036,4.2772 -2.001852,6.707 0.840173,2.4298 3.144793,4.0591 5.7165093,4.0391 2.571705,-0.02 4.853744,-1.6863 5.655965,-4.1289 0.80223,-2.4426 -0.04794,-5.1339 -2.107316,-6.6739 a 1.000176,0.99982748 0 0 0 -0.654264,-0.207 z" style="fill:currentColor"/>
 </g>
 <g id="22-22-system-log-out" transform="matrix(0,-1,1,0,-1096.3623,64)">
  <rect id="rect4235" width="22" height="22" x="0" y="1030.36" style="opacity:0.001;fill:currentColor;fill-opacity:1;stroke:none;stroke-width:2;stroke-linecap:round;stroke-linejoin:round;stroke-miterlimit:4;stroke-dasharray:none;stroke-opacity:1"/>
  <g id="layer12" transform="matrix(1.0009385,0,0,0.99883233,-322.31609,1012.4029)" style="display:inline;opacity:1;fill:currentColor;fill-opacity:1">
   <path id="path6796" class="ColorScheme-Text" d="M 8.0449219,2 C 5.4709885,1.98 3.161211,3.6075002 2.3203125,6.0351562 2.0969411,6.6800174 1.998566,7.342662 2,8 1.998566,8.657338 2.0969411,9.3199826 2.3203125,9.9648438 3.161211,12.3925 5.4709885,14.02 8.0449219,14 10.618845,13.980003 12.900212,12.315429 13.703125,9.875 13.906197,9.2577753 14.001356,8.626391 14,8 14.001356,7.373609 13.906197,6.7422247 13.703125,6.125 12.900212,3.6845712 10.618845,2.019997 8.0449219,2 Z M 8.0292969,3.9980469 C 9.7515617,4.0114279 11.263537,5.1131547 11.800781,6.7460938 11.9366,7.1589017 12.00029,7.5825571 12,8 12.00029,8.4174429 11.936599,8.8410983 11.800781,9.2539062 11.263537,10.886845 9.7515617,11.988572 8.0292969,12.001953 6.307032,12.015337 4.773605,10.936893 4.2109375,9.3125 4.0615674,8.881276 3.995597,8.4378713 3.9960938,8 3.995597,7.5621287 4.0615674,7.118724 4.2109375,6.6875 4.773605,5.0631072 6.307032,3.9846629 8.0292969,3.9980469 Z M 6.4746094,6 A 0.4736353,0.52746185 0 0 0 6.0625,6.7890625 L 7.5898438,9.734375 A 0.4736353,0.52746185 0 0 0 7.9746094,10 0.4736353,0.52746185 0 0 0 8.0234375,10 0.4736353,0.52746185 0 0 0 8.4101562,9.734375 L 9.9375,6.7890625 A 0.4736353,0.52746185 0 0 0 9.5273438,6 L 6.4746094,6 Z" transform="matrix(0.99906238,0,0,1.001169,325.01107,20.983802)" style="fill:currentColor"/>
  </g>
 </g>
 <g id="22-22-system-reboot" transform="matrix(-1,0,0,1,-65.999999,-988.36218)">
  <rect id="rect4242" width="22" height="22" x="0" y="1030.36" style="opacity:0.001;fill:currentColor;fill-opacity:1;stroke:none;stroke-width:2;stroke-linecap:round;stroke-linejoin:round;stroke-miterlimit:4;stroke-dasharray:none;stroke-opacity:1"/>
  <path id="path4360" class="ColorScheme-Text" d="m 11.475393,1035.3621 a 0.4736353,0.52746183 0 0 0 -0.412109,0.7891 l 1.527343,2.9453 a 0.4736353,0.52746183 0 0 0 0.384766,0.2656 0.4736353,0.52746183 0 0 0 0.04883,0 0.4736353,0.52746183 0 0 0 0.386718,-0.2656 l 0.326172,-0.6289 c 1.12174,1.0534 1.553588,2.6586 1.064453,4.1465 -0.536781,1.6327 -2.050703,2.7366 -3.771484,2.75 -1.7207807,0.013 -3.2503167,-1.0672 -3.8124997,-2.6915 -0.562183,-1.6242 -0.02584,-3.4141 1.335938,-4.4648 a 1.0005526,0.99921387 0 1 0 -1.222657,-1.582 c -2.035134,1.5702 -2.842137,4.2737 -2.001953,6.7011 0.840174,2.4275 3.145082,4.0552 5.7167967,4.0352 2.571705,-0.02 4.854029,-1.6848 5.65625,-4.125 0.789982,-2.4029 -0.02804,-5.0426 -2.019531,-6.5918 l 0.255859,-0.4941 a 0.4736353,0.52746183 0 0 0 -0.410156,-0.7891 l -3.052734,0 z" style="fill:currentColor"/>
 </g>
 <g id="22-22-system-suspend-hibernate" transform="translate(-110,-988.36218)">
  <rect id="rect4248" width="22" height="22" x="0" y="1030.36" style="opacity:0.001;fill:currentColor;fill-opacity:1;stroke:none;stroke-width:2;stroke-linecap:round;stroke-linejoin:round;stroke-miterlimit:4;stroke-dasharray:none;stroke-opacity:1"/>
  <g id="g4447" transform="matrix(1.0009385,0,0,0.99883233,-322.31607,1012.4029)" style="display:inline;opacity:1;fill:currentColor;fill-opacity:1">
   <path id="path4455" class="ColorScheme-Text" d="M 80.044922,2 C 77.470989,1.9800034 75.161212,3.6075014 74.320312,6.0351562 74.096933,6.6800174 73.998569,7.3426625 74,8 73.999,8.6573375 74.09698,9.3199826 74.320312,9.9648438 75.161212,12.3925 77.470989,14.02 80.044922,14 82.618845,13.98 84.900212,12.315429 85.703125,9.875 85.906195,9.2577756 86.001361,8.6263907 86,8 86.001001,7.3736093 85.906205,6.7422244 85.703125,6.125 84.900212,3.684571 82.618845,2.0199966 80.044922,2 Z m -0.01563,1.9980469 c 1.722265,0.013384 3.234241,1.1151078 3.771484,2.7480469 C 83.936599,7.1589011 84.00029,7.582557 84,8 84.00029,8.417443 83.936639,8.8410989 83.800781,9.2539062 83.263538,10.886845 81.751562,11.988574 80.029297,12.001953 78.307032,12.015337 76.773605,10.936893 76.210938,9.3125 76.061566,8.8812761 75.995593,8.4378711 75.996094,8 75.995593,7.5621289 76.061556,7.1187239 76.210938,6.6875 76.773605,5.0631071 78.307032,3.9846625 80.029297,3.9980469 Z M 80,6 a 2,2 0 0 0 -2,2 2,2 0 0 0 2,2 2,2 0 0 0 2,-2 2,2 0 0 0 -2,-2 z" transform="matrix(0.99906238,0,0,1.001169,253.07856,20.983802)" style="fill:currentColor"/>
  </g>
 </g>
 <g id="22-22-system-lock-screen" transform="translate(22.000001,-988.36218)">
  <rect id="rect4255" width="22" height="22" x="0" y="1030.36" style="opacity:0.001;fill:currentColor;fill-opacity:1;stroke:none;stroke-width:2;stroke-linecap:round;stroke-linejoin:round;stroke-miterlimit:4;stroke-dasharray:none;stroke-opacity:1"/>
  <path id="path5975" class="ColorScheme-Text" d="m 11,1034.3622 c -2.216,0 -4,1.8216 -4,4.0625 l 0,1.9375 -1,0 c -0.554,0 -1,0.446 -1,1 l 0,6 c 0,0.554 0.446,1 1,1 l 10,0 c 0.554,0 1,-0.446 1,-1 l 0,-6 c 0,-0.554 -0.446,-1 -1,-1 l -1,0 0,-1.9375 c 0,-2.24 -1.784,-4.0625 -4,-4.0625 z m 0,2 c 1.108,0 2,0.892 2,2 l 0,2 -4,0 0,-2 c 0,-1.108 0.892,-2 2,-2 z" style="fill:currentColor"/>
 </g>
 <g id="system-log-out" transform="translate(0,-1020.3622)">
  <rect id="rect17072" width="32" height="32" x="96" y="1020.36" style="opacity:0.001;fill:currentColor;fill-opacity:1;stroke:none;stroke-width:2;stroke-linecap:round;stroke-linejoin:round;stroke-miterlimit:4;stroke-dasharray:none;stroke-opacity:1"/>
  <g id="g5182" transform="translate(96,1020.3622)">
   <path id="path5180" class="ColorScheme-Text" d="M 112 2 A 14 14 0 0 0 98 16 A 14 14 0 0 0 112 30 A 14 14 0 0 0 126 16 A 14 14 0 0 0 112 2 z M 112 7 A 9 9 0 0 1 121 16 A 9 9 0 0 1 112 25 A 9 9 0 0 1 103 16 A 9 9 0 0 1 112 7 z M 112 9 A 7 7 0 0 0 105 16 A 7 7 0 0 0 112 23 A 7 7 0 0 0 119 16 A 7 7 0 0 0 112 9 z M 112 13 L 113.98242 14.539062 L 116 16 L 113.98438 17.460938 L 112 19 L 112.02344 17 L 109 17 C 108.446 17 108 16.554 108 16 C 108 15.446 108.446 15 109 15 L 112.02344 15 L 112 13 z" transform="translate(-96)" style="fill:currentColor"/>
  </g>
 </g>
 <g id="system-shutdown" transform="translate(0,-1020.3622)">
  <rect id="rect10931" width="32" height="32" x="32" y="1020.36" style="opacity:0.001;fill:currentColor;fill-opacity:1;stroke:none;stroke-width:2;stroke-linecap:round;stroke-linejoin:round;stroke-miterlimit:4;stroke-dasharray:none;stroke-opacity:1"/>
  <g id="g4975" transform="translate(32,1020.3622)">
   <path id="path4975" class="ColorScheme-Text" d="M 48 2 A 14 14 0 0 0 34 16 A 14 14 0 0 0 48 30 A 14 14 0 0 0 62 16 A 14 14 0 0 0 48 2 z M 48 7 A 9 9 0 0 1 57 16 A 9 9 0 0 1 48 25 A 9 9 0 0 1 39 16 A 9 9 0 0 1 48 7 z M 48 9 A 7 7 0 0 0 41 16 A 7 7 0 0 0 48 23 A 7 7 0 0 0 55 16 A 7 7 0 0 0 48 9 z M 48 12 C 48.554 12 49 12.446 49 13 L 49 19 C 49 19.554 48.554 20 48 20 C 47.446 20 47 19.554 47 19 L 47 13 C 47 12.446 47.446 12 48 12 z" transform="translate(-32)" style="fill:currentColor"/>
  </g>
 </g>
 <g id="system-suspend-hibernate" transform="translate(64,-1020.3622)">
  <rect id="rect10958" width="32" height="32" x="0" y="1020.36" style="opacity:0.001;fill:currentColor;fill-opacity:1;stroke:none;stroke-width:2;stroke-linecap:round;stroke-linejoin:round;stroke-miterlimit:4;stroke-dasharray:none;stroke-opacity:1"/>
  <g id="g5391" transform="translate(0,1020.3622)">
   <path id="path5391" class="ColorScheme-Text" d="M 80 2 A 14 14 0 0 0 66 16 A 14 14 0 0 0 80 30 A 14 14 0 0 0 94 16 A 14 14 0 0 0 80 2 z M 80 7 C 84.9706 7 89 11.0294 89 16 C 89 20.9706 84.9706 25 80 25 C 75.0294 25 71 20.9706 71 16 C 71 11.0294 75.0294 7 80 7 z M 80 9 C 76.134 9 73 12.134 73 16 C 73 19.866 76.134 23 80 23 C 83.866 23 87 19.866 87 16 C 87 12.134 83.866 9 80 9 z M 80 14 A 2 2 0 0 1 82 16 A 2 2 0 0 1 80 18 A 2 2 0 0 1 78 16 A 2 2 0 0 1 80 14 z" transform="translate(-64)" style="fill:currentColor"/>
  </g>
 </g>
 <g id="system-switch-user" transform="translate(160,-1020.3622)">
  <rect id="rect11647" width="32" height="32" x="0" y="1020.36" style="opacity:0.001;fill:currentColor;fill-opacity:1;stroke:none;stroke-width:2;stroke-linecap:round;stroke-linejoin:round;stroke-miterlimit:4;stroke-dasharray:none;stroke-opacity:1"/>
  <g id="g4766" transform="translate(0,1020.3622)">
   <path id="path4766" class="ColorScheme-Text" d="M 176 2 A 14 14 0 0 0 162 16 A 14 14 0 0 0 176 30 A 14 14 0 0 0 190 16 A 14 14 0 0 0 176 2 z M 173 8 C 173.665 8 174 8.4128812 174 8.9257812 L 174 20 L 177 20 L 173 24 L 169 20 L 172 20 L 172 8.9257812 C 172 8.4128812 172.335 8 173 8 z M 179 8 L 183 12 L 180 12 L 180 23.074219 C 180 23.587089 179.6648 24 179 24 C 178.335 24 178 23.587219 178 23.074219 L 178 12 L 175 12 L 179 8 z" transform="translate(-160)" style="fill:currentColor"/>
  </g>
 </g>
 <g id="system-suspend">
  <rect id="rect10929" class="ColorScheme-Text" width="32" height="32" x="-32" y="0" style="opacity:0.001;fill:currentColor;fill-opacity:1;stroke:none;stroke-width:2;stroke-linecap:round;stroke-linejoin:round;stroke-miterlimit:4;stroke-dasharray:none;stroke-opacity:1"/>
  <g id="system-suspend2" transform="translate(-32)">
   <path id="path5182" class="ColorScheme-Text" d="M -16 2 A 14 14 0 0 0 -30 16 A 14 14 0 0 0 -16 30 A 14 14 0 0 0 -2 16 A 14 14 0 0 0 -16 2 z M -16 7 A 9 9 0 0 1 -7 16 A 9 9 0 0 1 -16 25 A 9 9 0 0 1 -25 16 A 9 9 0 0 1 -16 7 z M -16 9 A 7 7 0 0 0 -23 16 A 7 7 0 0 0 -16 23 A 7 7 0 0 0 -9 16 A 7 7 0 0 0 -16 9 z M -19 15 L -13 15 C -12.446 15 -12 15.446 -12 16 C -12 16.554 -12.446 17 -13 17 L -19 17 C -19.554 17 -20 16.554 -20 16 C -20 15.446 -19.554 15 -19 15 z" transform="translate(32)" style="fill:currentColor"/>
  </g>
 </g>
 <g id="system-reboot" transform="translate(0,-1020.3622)">
  <rect id="rect11699" width="32" height="32" x="0" y="1020.36" style="opacity:0.001;fill:currentColor;fill-opacity:1;stroke:none;stroke-width:2;stroke-linecap:round;stroke-linejoin:round;stroke-miterlimit:4;stroke-dasharray:none;stroke-opacity:1"/>
  <g id="g4768" transform="translate(0,1020.3622)">
   <path id="path4770" class="ColorScheme-Text" d="M 16 2 A 14 14 0 0 0 2 16 A 14 14 0 0 0 16 30 A 14 14 0 0 0 30 16 A 14 14 0 0 0 16 2 z M 14 4 L 18 8 L 14 12 L 14 9.2988281 C 11.036 10.182828 9.0031 12.907 9 16 C 9 19.866 12.134 23 16 23 C 19.477 22.996 22.422922 20.441 22.919922 17 C 22.919922 17 23 16 24 16 C 25 16 24.933594 17 24.933594 17 C 24.424794 21.5512 20.5795 24.9946 16 25 C 11.0294 25 7 20.9706 7 16 C 7.0044 11.803 9.9084 8.166875 14 7.234375 L 14 4 z" style="fill:currentColor"/>
  </g>
 </g>
 <g id="system-lock-screen" transform="translate(0,-1020.3622)">
  <rect id="rect10985" width="32" height="32" x="128" y="1020.36" style="opacity:0.001;fill:currentColor;fill-opacity:1;stroke:none;stroke-width:2;stroke-linecap:round;stroke-linejoin:round;stroke-miterlimit:4;stroke-dasharray:none;stroke-opacity:1"/>
  <g id="g4934" transform="translate(128,1.7382813e-5)">
   <path id="path4350" class="ColorScheme-Text" d="M 144 2 A 14 14 0 0 0 130 16 A 14 14 0 0 0 144 30 A 14 14 0 0 0 158 16 A 14 14 0 0 0 144 2 z M 144 6 C 146.82 6 149 8.2932781 149 11.142578 L 149 13 L 150.10938 13 C 150.60138 12.968 151 13.472703 151 13.970703 L 151 23.099609 C 151 23.597609 150.60237 24 150.10938 24 L 137.89062 24 C 137.39742 24 137 23.597609 137 23.099609 L 137 13.970703 C 137 13.472703 137.39742 13 137.89062 13 L 139 13 L 139 11.142578 C 139 8.2933781 141.1796 6 144 6 z M 144 8 C 142.237 8 141 9.3615781 141 11.142578 L 141 13 L 147 13 L 147 11.142578 C 147 9.3617781 145.7627 8 144 8 z" transform="translate(-128,1020.3622)" style="fill:currentColor"/>
  </g>
 </g>
</svg>
