<svg xmlns="http://www.w3.org/2000/svg" width="32" height="32" version="1.1">
 <defs>
  <style id="current-color-scheme" type="text/css">
   .ColorScheme-Background {color:#2f343f; } .ColorScheme-ButtonBackground { color:#444a58; } .ColorScheme-Highlight { color:#5294e2; } .ColorScheme-Text { color:#d3dae3; } .ColorScheme-NegativeText { color:#f44336; } .ColorScheme-PositiveText { color:#4caf50; } .ColorScheme-NeutralText { color:#ff9800; }
  </style>
 </defs>
 <g id="22-22-TeamViewer" transform="translate(32.000001,10.000001)">
  <rect style="opacity:0.001" width="22" height="22" x="0" y="0"/>
  <path style="fill:currentColor" class="ColorScheme-Text" d="m 11,3 c -4.4179185,-10e-8 -8.0000001,3.5820815 -8,8 -10e-8,4.417918 3.5820815,8 8,8 4.417918,0 8,-3.582082 8,-8 C 19,6.5820815 15.417918,2.9999999 11,3 Z M 9,8 v 2 h 4 V 8 l 3,3 -3,3 V 12 H 9 v 2 L 6,11 Z"/>
 </g>
 <g id="TeamViewer">
  <rect style="opacity:0.001" width="32" height="32" x="0" y="0"/>
  <path style="fill:currentColor" class="ColorScheme-Text" d="M 16 4 C 9.3731226 3.9999999 3.9999998 9.3731223 4 16 C 3.9999999 22.626877 9.3731226 28 16 28 C 22.626878 28 28 22.626877 28 16 C 28 9.3731223 22.626878 3.9999999 16 4 z M 13 11 L 13 14 L 19 14 L 19 11 L 24 16 L 19 21 L 19 18 L 13 18 L 13 21 L 8 16 L 13 11 z"/>
 </g>
</svg>
