<svg xmlns="http://www.w3.org/2000/svg" width="32" height="32" version="1.1">
 <defs>
  <style id="current-color-scheme" type="text/css">
   .ColorScheme-Background {color:#2f343f; } .ColorScheme-ButtonBackground { color:#444a58; } .ColorScheme-Highlight { color:#5294e2; } .ColorScheme-Text { color:#d3dae3; } .ColorScheme-NegativeText { color:#f44336; } .ColorScheme-PositiveText { color:#4caf50; } .ColorScheme-NeutralText { color:#ff9800; }
  </style>
 </defs>
 <g id="22-22-update-low" transform="translate(32,-22)">
  <rect style="opacity:0.001" width="22" height="22" x="0" y="32"/>
  <path style="fill:currentColor" class="ColorScheme-Text" d="m 11,35 c -4.4183,0 -8,3.5817 -8,8 0,4.418 3.5817,8 8,8 4.418,0 8,-3.582 8,-8 0,-4.4183 -3.582,-8 -8,-8 z m 0,2 c 1.495771,0 2.989091,0.560161 4.148438,1.671875 -0.370703,0.143824 -0.713602,0.377967 -0.976563,0.75 l -0.460937,0.654297 C 12.142097,38.621879 9.6974738,38.646276 8.171875,40.171875 7.3909653,40.952785 7.0040093,41.976417 7.0039062,43 h 0.296875 A 0.69923716,0.5746971 1.1588047e-6 0 1 7.90625,43.861328 l -0.6503906,0.925781 -0.6523438,0.925782 a 0.69923716,0.5746971 1.1588047e-6 0 1 -1.2089844,0 L 4.7441406,44.787109 4.09375,43.861328 A 0.69923716,0.5746971 1.1588047e-6 0 1 4.4921875,43.025391 0.69923716,0.5746971 1.1588047e-6 0 1 4.6972656,43 H 5.0019531 C 5.0020237,41.464515 5.5863637,39.929261 6.7578125,38.757812 7.9293912,37.586234 9.464469,37 11,37 Z m 4.962891,3.001953 a 0.69923716,0.5746971 1.1588047e-6 0 1 0.642578,0.285156 l 0.65039,0.925782 0.650391,0.925781 A 0.69923716,0.5746971 1.1588047e-6 0 1 17.507812,42.974609 0.69923716,0.5746971 1.1588047e-6 0 1 17.302734,43 h -0.304687 c -7.1e-5,1.535485 -0.584412,3.070735 -1.755859,4.242188 C 14.070609,48.413764 12.535531,49 11,49 9.5050912,49 8.0125771,48.440509 6.8535156,47.330078 c 0.363732,-0.140945 0.7082551,-0.373476 0.9746094,-0.75 v -0.002 l 0.4609375,-0.654297 c 1.5688391,1.454293 4.0134635,1.429896 5.5390625,-0.0957 C 14.609035,45.047215 14.995991,44.023583 14.996094,43 H 14.699219 A 0.69923716,0.5746971 1.1588047e-6 0 1 14.09375,42.138672 l 0.650391,-0.925781 0.652343,-0.925782 a 0.69923716,0.5746971 1.1588047e-6 0 1 0.566407,-0.285156 z"/>
  <circle style="fill:currentColor" class="ColorScheme-Highlight" cx="20" cy="50" r="2"/>
 </g>
 <g id="22-22-update-medium" transform="translate(32,-54)">
  <rect style="opacity:0.001" width="22" height="22" x="0" y="32"/>
  <path style="fill:currentColor" class="ColorScheme-Text" d="m 11,35 c -4.4183,0 -8,3.5817 -8,8 0,4.418 3.5817,8 8,8 4.418,0 8,-3.582 8,-8 0,-4.4183 -3.582,-8 -8,-8 z m 0,2 c 1.495771,0 2.989091,0.560161 4.148438,1.671875 -0.370703,0.143824 -0.713602,0.377967 -0.976563,0.75 l -0.460937,0.654297 C 12.142097,38.621879 9.6974738,38.646276 8.171875,40.171875 7.3909653,40.952785 7.0040093,41.976417 7.0039062,43 h 0.296875 A 0.69923716,0.5746971 1.1588047e-6 0 1 7.90625,43.861328 l -0.6503906,0.925781 -0.6523438,0.925782 a 0.69923716,0.5746971 1.1588047e-6 0 1 -1.2089844,0 L 4.7441406,44.787109 4.09375,43.861328 A 0.69923716,0.5746971 1.1588047e-6 0 1 4.4921875,43.025391 0.69923716,0.5746971 1.1588047e-6 0 1 4.6972656,43 H 5.0019531 C 5.0020237,41.464515 5.5863637,39.929261 6.7578125,38.757812 7.9293912,37.586234 9.464469,37 11,37 Z m 4.962891,3.001953 a 0.69923716,0.5746971 1.1588047e-6 0 1 0.642578,0.285156 l 0.65039,0.925782 0.650391,0.925781 A 0.69923716,0.5746971 1.1588047e-6 0 1 17.507812,42.974609 0.69923716,0.5746971 1.1588047e-6 0 1 17.302734,43 h -0.304687 c -7.1e-5,1.535485 -0.584412,3.070735 -1.755859,4.242188 C 14.070609,48.413764 12.535531,49 11,49 9.5050912,49 8.0125771,48.440509 6.8535156,47.330078 c 0.363732,-0.140945 0.7082551,-0.373476 0.9746094,-0.75 v -0.002 l 0.4609375,-0.654297 c 1.5688391,1.454293 4.0134635,1.429896 5.5390625,-0.0957 C 14.609035,45.047215 14.995991,44.023583 14.996094,43 H 14.699219 A 0.69923716,0.5746971 1.1588047e-6 0 1 14.09375,42.138672 l 0.650391,-0.925781 0.652343,-0.925782 a 0.69923716,0.5746971 1.1588047e-6 0 1 0.566407,-0.285156 z"/>
  <circle style="fill:currentColor" class="ColorScheme-NeutralText" cx="20" cy="50" r="2"/>
 </g>
 <g id="22-22-update-high" transform="translate(32,-86)">
  <rect style="opacity:0.001" width="22" height="22" x="0" y="32"/>
  <path style="fill:currentColor" class="ColorScheme-Text" d="m 11,35 c -4.4183,0 -8,3.5817 -8,8 0,4.418 3.5817,8 8,8 4.418,0 8,-3.582 8,-8 0,-4.4183 -3.582,-8 -8,-8 z m 0,2 c 1.495771,0 2.989091,0.560161 4.148438,1.671875 -0.370703,0.143824 -0.713602,0.377967 -0.976563,0.75 l -0.460937,0.654297 C 12.142097,38.621879 9.6974738,38.646276 8.171875,40.171875 7.3909653,40.952785 7.0040093,41.976417 7.0039062,43 h 0.296875 A 0.69923716,0.5746971 1.1588047e-6 0 1 7.90625,43.861328 l -0.6503906,0.925781 -0.6523438,0.925782 a 0.69923716,0.5746971 1.1588047e-6 0 1 -1.2089844,0 L 4.7441406,44.787109 4.09375,43.861328 A 0.69923716,0.5746971 1.1588047e-6 0 1 4.4921875,43.025391 0.69923716,0.5746971 1.1588047e-6 0 1 4.6972656,43 H 5.0019531 C 5.0020237,41.464515 5.5863637,39.929261 6.7578125,38.757812 7.9293912,37.586234 9.464469,37 11,37 Z m 4.962891,3.001953 a 0.69923716,0.5746971 1.1588047e-6 0 1 0.642578,0.285156 l 0.65039,0.925782 0.650391,0.925781 A 0.69923716,0.5746971 1.1588047e-6 0 1 17.507812,42.974609 0.69923716,0.5746971 1.1588047e-6 0 1 17.302734,43 h -0.304687 c -7.1e-5,1.535485 -0.584412,3.070735 -1.755859,4.242188 C 14.070609,48.413764 12.535531,49 11,49 9.5050912,49 8.0125771,48.440509 6.8535156,47.330078 c 0.363732,-0.140945 0.7082551,-0.373476 0.9746094,-0.75 v -0.002 l 0.4609375,-0.654297 c 1.5688391,1.454293 4.0134635,1.429896 5.5390625,-0.0957 C 14.609035,45.047215 14.995991,44.023583 14.996094,43 H 14.699219 A 0.69923716,0.5746971 1.1588047e-6 0 1 14.09375,42.138672 l 0.650391,-0.925781 0.652343,-0.925782 a 0.69923716,0.5746971 1.1588047e-6 0 1 0.566407,-0.285156 z"/>
  <circle style="fill:currentColor" class="ColorScheme-NegativeText" cx="20" cy="50" r="2"/>
 </g>
 <g id="22-22-update-none" transform="translate(32,-118)">
  <rect style="opacity:0.001" width="22" height="22" x="0" y="32"/>
  <path style="opacity:0.35;fill:currentColor" class="ColorScheme-Text" d="m 11,35 c -4.4183,0 -8,3.5817 -8,8 0,4.418 3.5817,8 8,8 4.418,0 8,-3.582 8,-8 0,-4.4183 -3.582,-8 -8,-8 z m 0,2 c 1.495771,0 2.989091,0.560161 4.148438,1.671875 -0.370703,0.143824 -0.713602,0.377967 -0.976563,0.75 l -0.460937,0.654297 C 12.142097,38.621879 9.6974738,38.646276 8.171875,40.171875 7.3909653,40.952785 7.0040093,41.976417 7.0039062,43 h 0.296875 A 0.69923716,0.5746971 1.1588047e-6 0 1 7.90625,43.861328 l -0.6503906,0.925781 -0.6523438,0.925782 a 0.69923716,0.5746971 1.1588047e-6 0 1 -1.2089844,0 L 4.7441406,44.787109 4.09375,43.861328 A 0.69923716,0.5746971 1.1588047e-6 0 1 4.4921875,43.025391 0.69923716,0.5746971 1.1588047e-6 0 1 4.6972656,43 H 5.0019531 C 5.0020237,41.464515 5.5863637,39.929261 6.7578125,38.757812 7.9293912,37.586234 9.464469,37 11,37 Z m 4.962891,3.001953 a 0.69923716,0.5746971 1.1588047e-6 0 1 0.642578,0.285156 l 0.65039,0.925782 0.650391,0.925781 A 0.69923716,0.5746971 1.1588047e-6 0 1 17.507812,42.974609 0.69923716,0.5746971 1.1588047e-6 0 1 17.302734,43 h -0.304687 c -7.1e-5,1.535485 -0.584412,3.070735 -1.755859,4.242188 C 14.070609,48.413764 12.535531,49 11,49 9.5050912,49 8.0125771,48.440509 6.8535156,47.330078 c 0.363732,-0.140945 0.7082551,-0.373476 0.9746094,-0.75 v -0.002 l 0.4609375,-0.654297 c 1.5688391,1.454293 4.0134635,1.429896 5.5390625,-0.0957 C 14.609035,45.047215 14.995991,44.023583 14.996094,43 H 14.699219 A 0.69923716,0.5746971 1.1588047e-6 0 1 14.09375,42.138672 l 0.650391,-0.925781 0.652343,-0.925782 a 0.69923716,0.5746971 1.1588047e-6 0 1 0.566407,-0.285156 z"/>
 </g>
 <g id="update-low">
  <rect style="opacity:0.001" width="32" height="32" x="0" y="0"/>
  <path style="fill:currentColor" class="ColorScheme-Text" d="M 16 4 C 9.37255 4 4 9.3725503 4 16 C 4 22.627001 9.37255 28 16 28 C 22.627 28 28 22.627001 28 16 C 28 9.3725503 22.627 4 16 4 z M 16 7 C 18.162794 7 20.318577 7.7863716 22.029297 9.3359375 C 21.619921 9.5347459 21.232787 9.8229887 20.916016 10.253906 L 20.914062 10.255859 L 19.984375 11.525391 C 17.628341 9.4247857 14.018161 9.4974659 11.757812 11.757812 C 10.586182 12.929449 10.007753 14.464387 10.007812 16 L 10.878906 16 A 1.1222676 0.88226761 0 0 1 11.849609 17.322266 L 10.660156 18.941406 L 9.4726562 20.560547 A 1.1222676 0.88226761 0 0 1 7.5292969 20.560547 L 6.3398438 18.941406 L 5.1503906 17.322266 A 1.1222676 0.88226761 0 0 1 6.1210938 16 L 7.0039062 16 C 7.0037198 13.696455 7.8791726 11.394265 9.6367188 9.6367188 C 11.394078 7.8793591 13.696699 7 16 7 z M 23.439453 11 A 1.1222676 0.88226761 0 0 1 24.470703 11.439453 L 25.660156 13.058594 L 26.849609 14.677734 A 1.1222676 0.88226761 0 0 1 25.878906 16 L 24.996094 16 C 24.99628 18.303545 24.120827 20.605735 22.363281 22.363281 C 20.605922 24.120641 18.303301 25 16 25 C 13.837206 25 11.681423 24.213629 9.9707031 22.664062 C 10.380079 22.465256 10.767213 22.177012 11.083984 21.746094 L 11.085938 21.744141 L 12.015625 20.474609 C 14.371659 22.575214 17.981839 22.502535 20.242188 20.242188 C 21.413816 19.070554 21.992247 17.535613 21.992188 16 L 21.121094 16 A 1.1222676 0.88226761 0 0 1 20.150391 14.677734 L 21.339844 13.058594 L 22.527344 11.439453 A 1.1222676 0.88226761 0 0 1 23.439453 11 z"/>
  <circle style="fill:currentColor" class="ColorScheme-Highlight" cx="29" cy="26" r="3"/>
 </g>
 <g id="update-medium" transform="translate(0,-32)">
  <rect style="opacity:0.001" width="32" height="32" x="0" y="0"/>
  <path style="fill:currentColor" class="ColorScheme-Text" d="M 16,4 C 9.37255,4 4,9.3725503 4,16 4,22.627001 9.37255,28 16,28 22.627,28 28,22.627001 28,16 28,9.3725503 22.627,4 16,4 Z m 0,3 c 2.162794,0 4.318577,0.7863716 6.029297,2.3359375 -0.409376,0.1988084 -0.79651,0.4870512 -1.113281,0.9179685 l -0.002,0.002 -0.929687,1.269532 c -2.356034,-2.1006053 -5.966214,-2.0279251 -8.226563,0.232421 -1.17163,1.171637 -1.750059,2.706575 -1.75,4.242188 h 0.871094 a 1.1222676,0.88226761 0 0 1 0.970703,1.322266 l -1.189453,1.61914 -1.1874998,1.619141 a 1.1222676,0.88226761 0 0 1 -1.9433593,0 L 6.3398438,18.941406 5.1503906,17.322266 A 1.1222676,0.88226761 0 0 1 6.1210938,16 H 7.0039062 C 7.0037198,13.696455 7.8791726,11.394265 9.6367188,9.6367188 11.394078,7.8793591 13.696699,7 16,7 Z m 7.439453,4 a 1.1222676,0.88226761 0 0 1 1.03125,0.439453 l 1.189453,1.619141 1.189453,1.61914 A 1.1222676,0.88226761 0 0 1 25.878906,16 h -0.882812 c 1.86e-4,2.303545 -0.875267,4.605735 -2.632813,6.363281 C 20.605922,24.120641 18.303301,25 16,25 13.837206,25 11.681423,24.213629 9.9707031,22.664062 10.380079,22.465256 10.767213,22.177012 11.083984,21.746094 l 0.002,-0.002 0.929687,-1.269532 c 2.356034,2.100605 5.966214,2.027926 8.226563,-0.232421 1.171628,-1.171634 1.750059,-2.706575 1.75,-4.242188 h -0.871094 a 1.1222676,0.88226761 0 0 1 -0.970703,-1.322266 l 1.189453,-1.61914 1.1875,-1.619141 A 1.1222676,0.88226761 0 0 1 23.439453,11 Z"/>
  <circle style="fill:currentColor" class="ColorScheme-NeutralText" cx="29" cy="26" r="3"/>
 </g>
 <g id="update-high" transform="translate(0,-64)">
  <rect style="opacity:0.001" width="32" height="32" x="0" y="0"/>
  <path style="fill:currentColor" class="ColorScheme-Text" d="M 16,4 C 9.37255,4 4,9.3725503 4,16 4,22.627001 9.37255,28 16,28 22.627,28 28,22.627001 28,16 28,9.3725503 22.627,4 16,4 Z m 0,3 c 2.162794,0 4.318577,0.7863716 6.029297,2.3359375 -0.409376,0.1988084 -0.79651,0.4870512 -1.113281,0.9179685 l -0.002,0.002 -0.929687,1.269532 c -2.356034,-2.1006053 -5.966214,-2.0279251 -8.226563,0.232421 -1.17163,1.171637 -1.750059,2.706575 -1.75,4.242188 h 0.871094 a 1.1222676,0.88226761 0 0 1 0.970703,1.322266 l -1.189453,1.61914 -1.1874998,1.619141 a 1.1222676,0.88226761 0 0 1 -1.9433593,0 L 6.3398438,18.941406 5.1503906,17.322266 A 1.1222676,0.88226761 0 0 1 6.1210938,16 H 7.0039062 C 7.0037198,13.696455 7.8791726,11.394265 9.6367188,9.6367188 11.394078,7.8793591 13.696699,7 16,7 Z m 7.439453,4 a 1.1222676,0.88226761 0 0 1 1.03125,0.439453 l 1.189453,1.619141 1.189453,1.61914 A 1.1222676,0.88226761 0 0 1 25.878906,16 h -0.882812 c 1.86e-4,2.303545 -0.875267,4.605735 -2.632813,6.363281 C 20.605922,24.120641 18.303301,25 16,25 13.837206,25 11.681423,24.213629 9.9707031,22.664062 10.380079,22.465256 10.767213,22.177012 11.083984,21.746094 l 0.002,-0.002 0.929687,-1.269532 c 2.356034,2.100605 5.966214,2.027926 8.226563,-0.232421 1.171628,-1.171634 1.750059,-2.706575 1.75,-4.242188 h -0.871094 a 1.1222676,0.88226761 0 0 1 -0.970703,-1.322266 l 1.189453,-1.61914 1.1875,-1.619141 A 1.1222676,0.88226761 0 0 1 23.439453,11 Z"/>
  <circle style="fill:currentColor" class="ColorScheme-NegativeText" cx="29" cy="26" r="3"/>
 </g>
 <g id="update-none" transform="translate(0,-96)">
  <rect style="opacity:0.001" width="32" height="32" x="0" y="0"/>
  <path style="opacity:0.35;fill:currentColor" class="ColorScheme-Text" d="M 16,4 C 9.37255,4 4,9.3725503 4,16 4,22.627001 9.37255,28 16,28 22.627,28 28,22.627001 28,16 28,9.3725503 22.627,4 16,4 Z m 0,3 c 2.162794,0 4.318577,0.7863716 6.029297,2.3359375 -0.409376,0.1988084 -0.79651,0.4870512 -1.113281,0.9179685 l -0.002,0.002 -0.929687,1.269532 c -2.356034,-2.1006053 -5.966214,-2.0279251 -8.226563,0.232421 -1.17163,1.171637 -1.750059,2.706575 -1.75,4.242188 h 0.871094 a 1.1222676,0.88226761 0 0 1 0.970703,1.322266 l -1.189453,1.61914 -1.1874998,1.619141 a 1.1222676,0.88226761 0 0 1 -1.9433593,0 L 6.3398438,18.941406 5.1503906,17.322266 A 1.1222676,0.88226761 0 0 1 6.1210938,16 H 7.0039062 C 7.0037198,13.696455 7.8791726,11.394265 9.6367188,9.6367188 11.394078,7.8793591 13.696699,7 16,7 Z m 7.439453,4 a 1.1222676,0.88226761 0 0 1 1.03125,0.439453 l 1.189453,1.619141 1.189453,1.61914 A 1.1222676,0.88226761 0 0 1 25.878906,16 h -0.882812 c 1.86e-4,2.303545 -0.875267,4.605735 -2.632813,6.363281 C 20.605922,24.120641 18.303301,25 16,25 13.837206,25 11.681423,24.213629 9.9707031,22.664062 10.380079,22.465256 10.767213,22.177012 11.083984,21.746094 l 0.002,-0.002 0.929687,-1.269532 c 2.356034,2.100605 5.966214,2.027926 8.226563,-0.232421 1.171628,-1.171634 1.750059,-2.706575 1.75,-4.242188 H 21.12114 a 1.1222676,0.88226761 0 0 1 -0.970703,-1.322266 l 1.189453,-1.61914 1.1875,-1.619141 A 1.1222676,0.88226761 0 0 1 23.439453,11 Z"/>
 </g>
</svg>
