<svg xmlns="http://www.w3.org/2000/svg" width="32" height="32" version="1">
 <defs>
  <style id="current-color-scheme" type="text/css">
   .ColorScheme-Background {color:#2f343f; } .ColorScheme-ButtonBackground { color:#444a58; } .ColorScheme-Highlight { color:#5294e2; } .ColorScheme-Text { color:#d3dae3; } .ColorScheme-NegativeText { color:#f44336; } .ColorScheme-PositiveText { color:#4caf50; } .ColorScheme-NeutralText { color:#ff9800; }
  </style>
 </defs>
 <g id="22-22-utilities-terminal" transform="translate(-5.0000005,-27)">
  <rect style="opacity:0.001" width="22" height="22" x="5" y="5"/>
  <path style="fill:currentColor" class="ColorScheme-Text" d="M 8.800781,9 C 8.357581,9 8,9.357581 8,9.800781 V 22.199219 C 8,22.642419 8.357581,23 8.800781,23 H 23.199219 C 23.642419,23 24,22.642419 24,22.199219 V 9.800781 C 24,9.357581 23.642419,9 23.199219,9 Z M 12,12 h 1 v 1 h 0.5 c 0.654,0 1.202203,0.418 1.408203,1 H 13 v 1 h 0.5 c 0.831,0 1.5,0.669 1.5,1.5 0,0.831 -0.669,1.5 -1.5,1.5 H 13 v 1 h -1 v -1 h -0.5 c -0.6542,0 -1.202203,-0.418 -1.408203,-1 H 12 V 16 H 11.5 C 10.669,16 10,15.331 10,14.5 10,13.669 10.669,13 11.5,13 H 12 Z m -0.5,2 c -0.277,0 -0.5,0.223 -0.5,0.5 0,0.277 0.223,0.5 0.5,0.5 H 12 v -1 z m 1.5,2 v 1 h 0.5 C 13.7767,17.0129 14,16.777 14,16.5 14,16.223 13.777,16 13.5,16 Z m 4,2 h 6 v 1 h -6 z"/>
 </g>
 <g id="utilities-terminal">
  <rect style="opacity:0.001" width="32" height="32" x="0" y="0"/>
  <path style="fill:currentColor" class="ColorScheme-Text" d="M 5.2011719 5 C 4.5363719 5 4 5.5363719 4 6.2011719 L 4 24.798828 C 4 25.463628 4.5363719 26 5.2011719 26 L 26.798828 26 C 27.463627 26 28 25.463628 28 24.798828 L 28 6.2011719 C 28 5.5363719 27.463627 5 26.798828 5 L 5.2011719 5 z M 9 8 L 10 8 L 10 9 L 10.5 9 C 11.154 9 11.702203 9.418 11.908203 10 L 10 10 L 10 11 L 10.5 11 C 11.331 11 12 11.669 12 12.5 C 12 13.331 11.331 14 10.5 14 L 10 14 L 10 15 L 9 15 L 9 14 L 8.5 14 C 7.8458 14 7.2977969 13.582 7.0917969 13 L 9 13 L 9 12 L 8.5 12 C 7.669 12 7 11.331 7 10.5 C 7 9.669 7.669 9 8.5 9 L 9 9 L 9 8 z M 8.5 10 C 8.223 10 8 10.223 8 10.5 C 8 10.777 8.223 11 8.5 11 L 9 11 L 9 10 L 8.5 10 z M 10 12 L 10 13 L 10.5 13 C 10.7767 13.0129 11 12.777 11 12.5 C 11 12.223 10.777 12 10.5 12 L 10 12 z M 13 14 L 19 14 L 19 15 L 13 15 L 13 14 z"/>
 </g>
</svg>
