<svg xmlns="http://www.w3.org/2000/svg" width="32" height="32" version="1.1">
 <defs>
  <style id="current-color-scheme" type="text/css">
   .ColorScheme-Background {color:#2f343f; } .ColorScheme-ButtonBackground { color:#444a58; } .ColorScheme-Highlight { color:#5294e2; } .ColorScheme-Text { color:#d3dae3; } .ColorScheme-NegativeText { color:#f44336; } .ColorScheme-PositiveText { color:#4caf50; } .ColorScheme-NeutralText { color:#ff9800; }
  </style>
 </defs>
 <g id="22-22-video-display-brightness" transform="translate(2e-7,-21.999998)">
  <rect style="opacity:0.001" width="22" height="22" x="0" y="0"/>
  <path style="fill:currentColor" class="ColorScheme-Text" d="M 11,1.0996094 8.0996094,4 H 4 V 8.0996094 L 1.0996094,11 4,13.900391 V 18 H 8.0996094 L 11,20.900391 13.900391,18 H 18 V 13.900391 L 20.900391,11 18,8.0996094 V 4 H 13.900391 Z M 11,5 a 6,6 0 0 1 6,6 6,6 0 0 1 -6,6 6,6 0 0 1 -6,-6 6,6 0 0 1 6,-6 z m 0,2 c -2.209139,0 -4,1.790861 -4,4 0,2.209139 1.790861,4 4,4 z"/>
 </g>
 <g id="22-22-video-card-inactive" transform="translate(27,-26.999998)">
  <rect style="opacity:0.001" width="22" height="22" x="5" y="5"/>
  <path style="fill:currentColor" class="ColorScheme-Text" d="m 9,8 c -1.325,0 -1.325,2 0,2 h 1 v 3 H 8 v 3 h 2 v 1 H 8 v 3 h 2 v 2 c 0,1.325 2,1.325 2,0 V 9 C 12,8.0000398 11,8 11,8 Z m 4,3 v 2 h 9 v 5 h 0.199219 c 0.31658,0 0.477092,0.07124 0.46289,0.06836 a 1.0001,1.0001 0 0 1 0.507813,0.273438 L 24,19.171875 V 11 Z m -4,3 h 1 v 1 H 9 Z m 5,0 v 4 h 1 v -4 z m 2,0 v 4 h 1 v -4 z m 2,0 v 4 h 1 v -4 z m 2,0 v 4 h 1 V 14 Z M 9,18 h 1 v 1 H 9 Z m 4,1 v 2 h 1 v 2 h 6.205078 a 1.0001,1.0001 0 0 1 0.136719,-0.169922 L 21.171875,22 20.341797,21.169922 A 1.0001,1.0001 0 0 1 20.207031,21 H 16 v -2 z"/>
  <path style="fill:currentColor" class="ColorScheme-NegativeText" d="m 21.000002,18.999998 v 1.199219 c 0,0.0926 0.0311,0.176228 0.04883,0.263672 l 1.537108,1.537109 -1.53711,1.537109 C 21.03039,23.624697 21,23.709689 21,23.800779 v 1.199219 h 1.199219 c 0.09036,0 0.175657,-0.03068 0.263672,-0.04883 L 24,23.41406 25.537109,24.95117 C 25.625129,24.96932 25.710422,25 25.800781,25 H 27 V 23.800781 C 27,23.709691 26.96961,23.6247 26.95117,23.537109 L 25.414062,22 l 1.53711,-1.537109 c 0.01773,-0.08744 0.04883,-0.171072 0.04883,-0.263672 V 19 h -1.199219 c -0.0926,0 -0.17623,0.0311 -0.263672,0.04883 l -1.537109,1.537108 -1.537109,-1.53711 c -0.08744,-0.01772 -0.171076,-0.04883 -0.263672,-0.04883 z"/>
 </g>
 <g id="video-display-brightness" transform="translate(2e-7,2e-6)">
  <rect style="opacity:0.001" width="32" height="32" x="0" y="0"/>
  <path style="fill:currentColor" class="ColorScheme-Text" d="M 16,2 11.898438,6 H 6 v 5.898438 L 2,16 6,20.101562 V 26 h 5.898438 L 16,30 20.101562,26 H 26 V 20.101562 L 30,16 26,11.898438 V 6 h -5.898438 z m 0,6 c 4.418277,-3e-7 8,3.581723 8,8 1e-6,4.418278 -3.581722,8 -8,8 -4.418278,0 -8.0000008,-3.581722 -8,-8 3e-7,-4.418277 3.581723,-7.9999997 8,-8 z m 0,3 c -2.761424,0 -5,2.238576 -5,5 0,2.761424 2.238576,5 5,5 z"/>
 </g>
 <g id="video-card-inactive" transform="translate(32)">
  <rect style="opacity:0.001" width="32" height="32" x="0" y="0"/>
  <path style="fill:currentColor" class="ColorScheme-Text" d="m 5.5,4.0996094 c -1.9875,0 -1.9875,3 0,3 H 7 V 12 H 4 v 4.099609 H 7 V 18 H 4 v 4.099609 H 7 V 25.5 c 0,1.9875 3,1.9875 3,0 V 5.5996094 c 0,-1.4999403 -1.5,-1.5 -1.5,-1.5 z m 5.5,4 v 2.9999996 h 14 v 7.9375 c 0.249745,0.03519 0.406463,0.08027 0.347656,0.06836 l 0.589844,0.11914 1.0625,1.0625 1,-1.001953 V 8.0996094 Z M 13,13 v 6 h 1 v -6 z m 3,0 v 6 h 1 v -6 z m 3,0 v 6 h 1 v -6 z m 3,0 v 6 h 1 V 13 Z M 5,13.099609 H 7 V 15 H 5 Z M 5,19 h 2 v 2 H 5 Z m 6,1 v 3 h 2 v 3 h 8.285156 l 1,-1 -1.060547,-1.060547 -0.11914,-0.591797 C 21.117359,23.406327 21.072293,23.249698 21.037109,23 H 16 v -3 z"/>
  <path style="fill:currentColor" class="ColorScheme-NegativeText" d="m 23.000002,21 v 1.598958 c 0,0.123466 0.04147,0.234971 0.0651,0.351562 l 2.049478,2.049479 -2.04948,2.049478 C 23.04051,27.166263 23,27.279586 23,27.401039 v 1.598958 h 1.598958 c 0.12048,0 0.234209,-0.04091 0.351562,-0.06511 l 2.049479,-2.049476 2.049478,2.049479 C 29.166837,28.95909 29.28056,29 29.401039,29 h 1.598958 v -1.598959 c 0,-0.121452 -0.04052,-0.234774 -0.06511,-0.351562 L 28.885411,25.000001 30.93489,22.950523 C 30.95853,22.833937 31,22.722427 31,22.598961 v -1.598958 h -1.598959 c -0.123466,0 -0.234972,0.04147 -0.351562,0.0651 l -2.049478,2.049478 -2.049478,-2.04948 c -0.116586,-0.02362 -0.228101,-0.0651 -0.351562,-0.0651 z"/>
 </g>
 <g id="video-display" transform="translate(2e-7,66.000002)">
  <rect style="opacity:0.001" width="32" height="32" x="0" y="-34"/>
  <g transform="translate(2e-4,-35)">
   <path style="fill:currentColor" class="ColorScheme-Text" transform="translate(0,1)" d="M 4.3007812,4 C 3.5805813,4 3,4.5575 3,5.25 v 17.5 C 3,23.4425 3.5805813,24 4.3007812,24 H 8 v 1.6875 C 8,26.414902 8.5935493,27 9.3320312,27 H 22.667969 C 23.406451,27 24,26.414902 24,25.6875 V 24 h 3.699219 C 28.419419,24 29,23.4425 29,22.75 V 5.25 C 29,4.5575 28.419419,4 27.699219,4 Z M 6,7 H 26 V 21 H 24 8 6 Z"/>
  </g>
 </g>
 <g id="22-22-video-display" transform="translate(27,37)">
  <rect style="opacity:0.001" width="22" height="22" x="5" y="5"/>
  <path style="fill:currentColor" class="ColorScheme-Text" d="M 9,9 C 8.446,9 8,9.446 8,10 v 10 c 0,0.554 0.446,1 1,1 h 5 c -0.554,0 -1,0.446 -1,1 v 1 h 6 v -1 c 0,-0.554 -0.446,-1 -1,-1 h 5 c 0.554,0 1,-0.446 1,-1 V 10 C 24,9.446 23.554,9 23,9 Z m 1,2 h 12 v 8 H 10 Z"/>
 </g>
</svg>
