<svg xmlns="http://www.w3.org/2000/svg" width="32" height="32" version="1.1">
 <defs>
  <style id="current-color-scheme" type="text/css">
   .ColorScheme-Background {color:#2f343f; } .ColorScheme-ButtonBackground { color:#444a58; } .ColorScheme-Highlight { color:#5294e2; } .ColorScheme-Text { color:#d3dae3; } .ColorScheme-NegativeText { color:#f44336; } .ColorScheme-PositiveText { color:#4caf50; } .ColorScheme-NeutralText { color:#ff9800; }
  </style>
 </defs>
 <g id="view-refresh" transform="translate(-250.00021,54.000004)">
  <path style="opacity:0.001" d="m 282.00021,-38.000004 16,0 0,16 -16,0 z"/>
  <g transform="translate(281.97246,-37.000109)">
   <g transform="translate(-485.03396,-41.017475)">
    <path style="fill:currentColor" class="ColorScheme-Text" d="m 499.06185,49.01758 c 0,3.31371 -2.68629,6 -6,6 -3.28006,0 -5.94034,-2.63316 -5.99414,-5.90039 a 1,1 0 0 1 -0.006,-0.09961 1,1 0 0 1 1,-1 1,1 0 0 1 1,1 c 0,2.20914 1.79086,4 4,4 2.20914,0 4,-1.79086 4,-4 0,-2.20914 -1.79086,-4 -4,-4 l 0,2 -4,-3 4,-3 0,2 c 3.31371,0 6,2.68629 6,6 z"/>
   </g>
  </g>
 </g>
 <g id="view-history">
  <rect style="opacity:0.001" width="32" height="32" x="0" y="0"/>
  <path style="fill:currentColor" class="ColorScheme-Text" d="M 16 2 A 14 14 0 0 0 2 16 A 14 14 0 0 0 16 30 A 14 14 0 0 0 30 16 A 14 14 0 0 0 16 2 z M 16 5 A 11 11 0 0 1 27 16 A 11 11 0 0 1 16 27 A 11 11 0 0 1 5 16 A 11 11 0 0 1 16 5 z M 21.441406 9 A 1.5 1.5 0 0 0 20.439453 9.4394531 L 17.560547 12.318359 A 4 4 0 0 1 19.681641 14.439453 L 22.560547 11.560547 A 1.5 1.5 0 0 0 22.560547 9.4394531 A 1.5 1.5 0 0 0 21.544922 9 A 1.5 1.5 0 0 0 21.441406 9 z M 9.4804688 10 A 1.5 1.5 0 0 0 8.2675781 10.646484 A 1.5 1.5 0 0 0 8.6464844 12.732422 L 12.097656 15.121094 A 4 4 0 0 1 13.804688 12.65625 L 10.353516 10.267578 A 1.5 1.5 0 0 0 9.4804688 10 z M 15.949219 13 A 3 3 0 0 0 13 16 A 3 3 0 0 0 16 19 A 3 3 0 0 0 19 16 A 3 3 0 0 0 16 13 A 3 3 0 0 0 15.949219 13 z"/>
 </g>
</svg>
