<svg xmlns="http://www.w3.org/2000/svg" width="32" height="32" version="1.1">
 <defs>
  <style id="current-color-scheme" type="text/css">
   .ColorScheme-Background {color:#2f343f; } .ColorScheme-ButtonBackground { color:#444a58; } .ColorScheme-Highlight { color:#5294e2; } .ColorScheme-Text { color:#d3dae3; } .ColorScheme-NegativeText { color:#f44336; } .ColorScheme-PositiveText { color:#4caf50; } .ColorScheme-NeutralText { color:#ff9800; }
  </style>
 </defs>
 <g id="yakuake">
  <rect style="opacity:0.001" width="32" height="32" x="0" y="0"/>
  <path style="opacity:0.35;fill:currentColor" class="ColorScheme-Text" d="M 18.046875,4.1269534 10.023438,12.148438 12.851562,14.978516 20.875,6.9550784 Z"/>
  <path style="fill:currentColor" class="ColorScheme-Text" d="M 4.8300781 4.1269531 L 2 6.9550781 L 8.6074219 13.5625 L 2 20.171875 L 4.8300781 23 L 14.265625 13.5625 L 4.8300781 4.1269531 z M 15 24 L 15 28 L 30 28 L 30 24 L 15 24 z"/>
 </g>
 <g id="22-22-yakuake" transform="translate(27,5)">
  <rect style="opacity:0.001" width="22" height="22" x="5" y="5"/>
  <path style="opacity:0.35;fill:currentColor" class="ColorScheme-Text" d="m 18.595703,7.9902344 -5.298828,5.2988276 1.414063,1.414063 5.298828,-5.2988281 z"/>
  <path style="fill:currentColor" class="ColorScheme-Text" d="M 9.4140625,7.9902344 8,9.4042969 12.589844,13.996094 8,18.585938 9.4140625,20 15.419922,13.996094 Z M 14.287109,22 v 2 H 24 v -2 z"/>
 </g>
</svg>
